<?xml version="1.0" encoding="UTF-8" standalone="no"?>
<!DOCTYPE svg PUBLIC "-//W3C//DTD SVG 1.1//EN"
 "http://www.w3.org/Graphics/SVG/1.1/DTD/svg11.dtd">
<!-- Generated by graphviz version 2.40.1 (20161225.0304)
 -->
<!-- Title: dependency Pages: 1 -->
<svg width="3107pt" height="1237pt"
 viewBox="0.00 0.00 3107.00 1237.42" xmlns="http://www.w3.org/2000/svg" xmlns:xlink="http://www.w3.org/1999/xlink">
<g id="graph0" class="graph" transform="scale(1 1) rotate(0) translate(4 1233.4179)">
<title>dependency</title>
<polygon fill="#ffffff" stroke="transparent" points="-4,4 -4,-1233.4179 3103,-1233.4179 3103,4 -4,4"/>
<!-- v_1_38 -->
<g id="node1" class="node">
<title>v_1_38</title>
<polygon fill="#3a85b9" stroke="#000000" points="250,-958 122,-958 122,-922 250,-922 250,-958"/>
<text text-anchor="middle" x="186" y="-935" font-family="Times,serif" font-size="20.00" fill="#ffffff">188 read_args</text>
</g>
<!-- v_1_34 -->
<g id="node2" class="node">
<title>v_1_34</title>
<path fill="#85cbd0" stroke="#000000" d="M74,-958C74,-958 12,-958 12,-958 6,-958 0,-952 0,-946 0,-946 0,-934 0,-934 0,-928 6,-922 12,-922 12,-922 74,-922 74,-922 80,-922 86,-928 86,-934 86,-934 86,-946 86,-946 86,-952 80,-958 74,-958"/>
<text text-anchor="middle" x="43" y="-935" font-family="Times,serif" font-size="20.00" fill="#000000">186 argv</text>
</g>
<!-- v_1_38&#45;&gt;v_1_34 -->
<g id="edge89" class="edge">
<title>v_1_38&#45;&gt;v_1_34</title>
<path fill="none" stroke="#000000" stroke-dasharray="5,2" d="M121.6116,-940C113.1674,-940 104.5896,-940 96.3556,-940"/>
<polygon fill="#000000" stroke="#000000" points="96.1457,-936.5001 86.1456,-940 96.1456,-943.5001 96.1457,-936.5001"/>
</g>
<!-- v_1_39 -->
<g id="node3" class="node">
<title>v_1_39</title>
<path fill="#85cbd0" stroke="#000000" d="M460.5,-958C460.5,-958 314.5,-958 314.5,-958 308.5,-958 302.5,-952 302.5,-946 302.5,-946 302.5,-934 302.5,-934 302.5,-928 308.5,-922 314.5,-922 314.5,-922 460.5,-922 460.5,-922 466.5,-922 472.5,-928 472.5,-934 472.5,-934 472.5,-946 472.5,-946 472.5,-952 466.5,-958 460.5,-958"/>
<text text-anchor="middle" x="387.5" y="-935" font-family="Times,serif" font-size="20.00" fill="#000000">188 input_data_file</text>
</g>
<!-- v_1_39&#45;&gt;v_1_38 -->
<g id="edge17" class="edge">
<title>v_1_39&#45;&gt;v_1_38</title>
<path fill="none" stroke="#000000" d="M302.3379,-940C288.3864,-940 274.0261,-940 260.3625,-940"/>
<polygon fill="#000000" stroke="#000000" points="260.0679,-936.5001 250.0679,-940 260.0679,-943.5001 260.0679,-936.5001"/>
</g>
<!-- v_1_40 -->
<g id="node4" class="node">
<title>v_1_40</title>
<path fill="#85cbd0" stroke="#000000" d="M1402,-325C1402,-325 1294,-325 1294,-325 1288,-325 1282,-319 1282,-313 1282,-313 1282,-301 1282,-301 1282,-295 1288,-289 1294,-289 1294,-289 1402,-289 1402,-289 1408,-289 1414,-295 1414,-301 1414,-301 1414,-313 1414,-313 1414,-319 1408,-325 1402,-325"/>
<text text-anchor="middle" x="1348" y="-302" font-family="Times,serif" font-size="20.00" fill="#000000">188 output_dir</text>
</g>
<!-- v_1_40&#45;&gt;v_1_38 -->
<g id="edge7" class="edge">
<title>v_1_40&#45;&gt;v_1_38</title>
<path fill="none" stroke="#000000" d="M1281.8873,-308.7556C1187.3644,-311.1106 1008.1438,-315 855.5,-315 855.5,-315 855.5,-315 647.5,-315 346.3596,-315 219.4673,-790.3665 191.9373,-911.95"/>
<polygon fill="#000000" stroke="#000000" points="188.4636,-911.4482 189.7141,-921.969 195.2974,-912.9647 188.4636,-911.4482"/>
</g>
<!-- v_1_41 -->
<g id="node5" class="node">
<title>v_1_41</title>
<path fill="#85cbd0" stroke="#000000" d="M678.5,-1207C678.5,-1207 616.5,-1207 616.5,-1207 610.5,-1207 604.5,-1201 604.5,-1195 604.5,-1195 604.5,-1183 604.5,-1183 604.5,-1177 610.5,-1171 616.5,-1171 616.5,-1171 678.5,-1171 678.5,-1171 684.5,-1171 690.5,-1177 690.5,-1183 690.5,-1183 690.5,-1195 690.5,-1195 690.5,-1201 684.5,-1207 678.5,-1207"/>
<text text-anchor="middle" x="647.5" y="-1184" font-family="Times,serif" font-size="20.00" fill="#000000">188 time</text>
</g>
<!-- v_1_41&#45;&gt;v_1_38 -->
<g id="edge56" class="edge">
<title>v_1_41&#45;&gt;v_1_38</title>
<path fill="none" stroke="#000000" d="M604.4696,-1181.4056C532.6339,-1167.0396 386.2901,-1130.4201 286,-1056 252.1921,-1030.9129 221.9512,-992.4851 203.7974,-966.815"/>
<polygon fill="#000000" stroke="#000000" points="206.4715,-964.5294 197.8942,-958.31 200.7209,-968.5208 206.4715,-964.5294"/>
</g>
<!-- v_1_42 -->
<g id="node6" class="node">
<title>v_1_42</title>
<path fill="#85cbd0" stroke="#000000" d="M450.5,-287C450.5,-287 324.5,-287 324.5,-287 318.5,-287 312.5,-281 312.5,-275 312.5,-275 312.5,-263 312.5,-263 312.5,-257 318.5,-251 324.5,-251 324.5,-251 450.5,-251 450.5,-251 456.5,-251 462.5,-257 462.5,-263 462.5,-263 462.5,-275 462.5,-275 462.5,-281 456.5,-287 450.5,-287"/>
<text text-anchor="middle" x="387.5" y="-264" font-family="Times,serif" font-size="20.00" fill="#000000">188 input_model</text>
</g>
<!-- v_1_42&#45;&gt;v_1_38 -->
<g id="edge29" class="edge">
<title>v_1_42&#45;&gt;v_1_38</title>
<path fill="none" stroke="#000000" d="M312.3169,-282.0016C302.3314,-286.5802 293.1083,-292.7352 286,-301 205.3083,-394.8198 189.4358,-800.766 186.5821,-911.8236"/>
<polygon fill="#000000" stroke="#000000" points="183.081,-911.8332 186.3385,-921.9148 190.0789,-912.0022 183.081,-911.8332"/>
</g>
<!-- v_1_43 -->
<g id="node7" class="node">
<title>v_1_43</title>
<path fill="#85cbd0" stroke="#000000" d="M721.5,-1153C721.5,-1153 573.5,-1153 573.5,-1153 567.5,-1153 561.5,-1147 561.5,-1141 561.5,-1141 561.5,-1129 561.5,-1129 561.5,-1123 567.5,-1117 573.5,-1117 573.5,-1117 721.5,-1117 721.5,-1117 727.5,-1117 733.5,-1123 733.5,-1129 733.5,-1129 733.5,-1141 733.5,-1141 733.5,-1147 727.5,-1153 721.5,-1153"/>
<text text-anchor="middle" x="647.5" y="-1130" font-family="Times,serif" font-size="20.00" fill="#000000">188 program_name</text>
</g>
<!-- v_1_43&#45;&gt;v_1_38 -->
<g id="edge18" class="edge">
<title>v_1_43&#45;&gt;v_1_38</title>
<path fill="none" stroke="#000000" d="M569.3656,-1116.9984C554.4757,-1112.8925 539.1345,-1108.1892 525,-1103 413.6914,-1062.1353 289.7427,-997.241 227.0777,-962.9605"/>
<polygon fill="#000000" stroke="#000000" points="228.7354,-959.8778 218.2855,-958.1313 225.3654,-966.0133 228.7354,-959.8778"/>
</g>
<!-- a_1 -->
<g id="node8" class="node">
<title>a_1</title>
<path fill="#ffffff" stroke="#000000" d="M477,-755C477,-755 298,-755 298,-755 292,-755 286,-749 286,-743 286,-743 286,-731 286,-731 286,-725 292,-719 298,-719 298,-719 477,-719 477,-719 483,-719 489,-725 489,-731 489,-731 489,-743 489,-743 489,-749 483,-755 477,-755"/>
<text text-anchor="middle" x="387.5" y="-732" font-family="Times,serif" font-size="20.00" fill="#000000">input_data_file_002.dat</text>
</g>
<!-- v_1_46 -->
<g id="node9" class="node">
<title>v_1_46</title>
<polygon fill="#3a85b9" stroke="#000000" points="754.5,-755 540.5,-755 540.5,-719 754.5,-719 754.5,-755"/>
<text text-anchor="middle" x="647.5" y="-732" font-family="Times,serif" font-size="20.00" fill="#ffffff">190 read_data_file_input</text>
</g>
<!-- v_1_46&#45;&gt;v_1_39 -->
<g id="edge75" class="edge">
<title>v_1_46&#45;&gt;v_1_39</title>
<path fill="none" stroke="#000000" stroke-dasharray="5,2" d="M624.4267,-755.0149C577.7108,-791.4893 471.8871,-874.1132 418.9245,-915.4647"/>
<polygon fill="#000000" stroke="#000000" points="416.6235,-912.8208 410.8953,-921.7337 420.9313,-918.3383 416.6235,-912.8208"/>
</g>
<!-- v_1_46&#45;&gt;a_1 -->
<g id="edge46" class="edge">
<title>v_1_46&#45;&gt;a_1</title>
<path fill="none" stroke="#000000" stroke-dasharray="5,2" d="M540.247,-737C526.7592,-737 512.9343,-737 499.3775,-737"/>
<polygon fill="#000000" stroke="#000000" points="499.0729,-733.5001 489.0729,-737 499.0729,-740.5001 499.0729,-733.5001"/>
</g>
<!-- v_1_47 -->
<g id="node10" class="node">
<title>v_1_47</title>
<path fill="#85cbd0" stroke="#000000" d="M1130.5,-969C1130.5,-969 1056.5,-969 1056.5,-969 1050.5,-969 1044.5,-963 1044.5,-957 1044.5,-957 1044.5,-945 1044.5,-945 1044.5,-939 1050.5,-933 1056.5,-933 1056.5,-933 1130.5,-933 1130.5,-933 1136.5,-933 1142.5,-939 1142.5,-945 1142.5,-945 1142.5,-957 1142.5,-957 1142.5,-963 1136.5,-969 1130.5,-969"/>
<text text-anchor="middle" x="1093.5" y="-946" font-family="Times,serif" font-size="20.00" fill="#000000">190 delstd</text>
</g>
<!-- v_1_47&#45;&gt;v_1_46 -->
<g id="edge76" class="edge">
<title>v_1_47&#45;&gt;v_1_46</title>
<path fill="none" stroke="#000000" d="M1044.3762,-948.0159C984.7541,-942.6265 882.6888,-927.6098 806,-886 748.0087,-854.5351 695.3549,-796.6282 667.759,-763.0199"/>
<polygon fill="#000000" stroke="#000000" points="670.3057,-760.603 661.295,-755.0299 664.8636,-765.0057 670.3057,-760.603"/>
</g>
<!-- v_1_48 -->
<g id="node11" class="node">
<title>v_1_48</title>
<path fill="#85cbd0" stroke="#000000" d="M1376.5,-709C1376.5,-709 1319.5,-709 1319.5,-709 1313.5,-709 1307.5,-703 1307.5,-697 1307.5,-697 1307.5,-685 1307.5,-685 1307.5,-679 1313.5,-673 1319.5,-673 1319.5,-673 1376.5,-673 1376.5,-673 1382.5,-673 1388.5,-679 1388.5,-685 1388.5,-685 1388.5,-697 1388.5,-697 1388.5,-703 1382.5,-709 1376.5,-709"/>
<text text-anchor="middle" x="1348" y="-686" font-family="Times,serif" font-size="20.00" fill="#000000">190 ipol</text>
</g>
<!-- v_1_48&#45;&gt;v_1_46 -->
<g id="edge47" class="edge">
<title>v_1_48&#45;&gt;v_1_46</title>
<path fill="none" stroke="#000000" d="M1307.3103,-693.672C1203.3774,-700.497 925.0747,-718.7724 765.0699,-729.2795"/>
<polygon fill="#000000" stroke="#000000" points="764.454,-725.8123 754.7049,-729.9601 764.9127,-732.7973 764.454,-725.8123"/>
</g>
<!-- v_1_49 -->
<g id="node12" class="node">
<title>v_1_49</title>
<path fill="#85cbd0" stroke="#000000" d="M888.5,-470C888.5,-470 822.5,-470 822.5,-470 816.5,-470 810.5,-464 810.5,-458 810.5,-458 810.5,-446 810.5,-446 810.5,-440 816.5,-434 822.5,-434 822.5,-434 888.5,-434 888.5,-434 894.5,-434 900.5,-440 900.5,-446 900.5,-446 900.5,-458 900.5,-458 900.5,-464 894.5,-470 888.5,-470"/>
<text text-anchor="middle" x="855.5" y="-447" font-family="Times,serif" font-size="20.00" fill="#000000">190 tstart</text>
</g>
<!-- v_1_49&#45;&gt;v_1_46 -->
<g id="edge1" class="edge">
<title>v_1_49&#45;&gt;v_1_46</title>
<path fill="none" stroke="#000000" d="M835.8235,-470.2079C826.3711,-479.3611 815.1401,-490.855 806,-502 747.8781,-572.8716 690.4311,-665.0096 663.4423,-709.9553"/>
<polygon fill="#000000" stroke="#000000" points="660.2793,-708.4254 658.1562,-718.8053 666.2889,-712.0149 660.2793,-708.4254"/>
</g>
<!-- v_1_50 -->
<g id="node13" class="node">
<title>v_1_50</title>
<path fill="#85cbd0" stroke="#000000" d="M891,-547C891,-547 820,-547 820,-547 814,-547 808,-541 808,-535 808,-535 808,-523 808,-523 808,-517 814,-511 820,-511 820,-511 891,-511 891,-511 897,-511 903,-517 903,-523 903,-523 903,-535 903,-535 903,-541 897,-547 891,-547"/>
<text text-anchor="middle" x="855.5" y="-524" font-family="Times,serif" font-size="20.00" fill="#000000">190 pstart</text>
</g>
<!-- v_1_50&#45;&gt;v_1_46 -->
<g id="edge60" class="edge">
<title>v_1_50&#45;&gt;v_1_46</title>
<path fill="none" stroke="#000000" d="M818.8652,-547.0473C814.3736,-549.8135 809.9726,-552.8173 806,-556 747.6056,-602.7845 693.3235,-672.7224 665.9922,-710.5014"/>
<polygon fill="#000000" stroke="#000000" points="662.9267,-708.7707 659.9502,-718.9389 668.618,-712.8462 662.9267,-708.7707"/>
</g>
<!-- v_1_51 -->
<g id="node14" class="node">
<title>v_1_51</title>
<path fill="#85cbd0" stroke="#000000" d="M886,-655C886,-655 825,-655 825,-655 819,-655 813,-649 813,-643 813,-643 813,-631 813,-631 813,-625 819,-619 825,-619 825,-619 886,-619 886,-619 892,-619 898,-625 898,-631 898,-631 898,-643 898,-643 898,-649 892,-655 886,-655"/>
<text text-anchor="middle" x="855.5" y="-632" font-family="Times,serif" font-size="20.00" fill="#000000">190 delp</text>
</g>
<!-- v_1_51&#45;&gt;v_1_46 -->
<g id="edge53" class="edge">
<title>v_1_51&#45;&gt;v_1_46</title>
<path fill="none" stroke="#000000" d="M817.8328,-655.1092C783.1892,-671.7648 731.6916,-696.5233 694.3952,-714.4543"/>
<polygon fill="#000000" stroke="#000000" points="692.7339,-711.3694 685.2379,-718.8568 695.767,-717.6782 692.7339,-711.3694"/>
</g>
<!-- v_1_52 -->
<g id="node15" class="node">
<title>v_1_52</title>
<path fill="#85cbd0" stroke="#000000" d="M883.5,-601C883.5,-601 827.5,-601 827.5,-601 821.5,-601 815.5,-595 815.5,-589 815.5,-589 815.5,-577 815.5,-577 815.5,-571 821.5,-565 827.5,-565 827.5,-565 883.5,-565 883.5,-565 889.5,-565 895.5,-571 895.5,-577 895.5,-577 895.5,-589 895.5,-589 895.5,-595 889.5,-601 883.5,-601"/>
<text text-anchor="middle" x="855.5" y="-578" font-family="Times,serif" font-size="20.00" fill="#000000">190 delt</text>
</g>
<!-- v_1_52&#45;&gt;v_1_46 -->
<g id="edge24" class="edge">
<title>v_1_52&#45;&gt;v_1_46</title>
<path fill="none" stroke="#000000" d="M820.4246,-601.1262C815.4982,-603.9609 810.5629,-606.9618 806,-610 757.7727,-642.1115 706.1562,-685.3229 675.3701,-712.1556"/>
<polygon fill="#000000" stroke="#000000" points="672.8464,-709.7135 667.6332,-718.937 677.4604,-714.9776 672.8464,-709.7135"/>
</g>
<!-- v_1_53 -->
<g id="node16" class="node">
<title>v_1_53</title>
<path fill="#85cbd0" stroke="#000000" d="M1123,-1023C1123,-1023 1064,-1023 1064,-1023 1058,-1023 1052,-1017 1052,-1011 1052,-1011 1052,-999 1052,-999 1052,-993 1058,-987 1064,-987 1064,-987 1123,-987 1123,-987 1129,-987 1135,-993 1135,-999 1135,-999 1135,-1011 1135,-1011 1135,-1017 1129,-1023 1123,-1023"/>
<text text-anchor="middle" x="1093.5" y="-1000" font-family="Times,serif" font-size="20.00" fill="#000000">190 corr</text>
</g>
<!-- v_1_53&#45;&gt;v_1_46 -->
<g id="edge4" class="edge">
<title>v_1_53&#45;&gt;v_1_46</title>
<path fill="none" stroke="#000000" d="M1051.5146,-1001.1483C991.7715,-993.8392 881.1556,-973.3631 806,-918 745.6009,-873.5072 691.9365,-802.356 665.2855,-763.851"/>
<polygon fill="#000000" stroke="#000000" points="667.9395,-761.5313 659.4071,-755.2504 662.1603,-765.4812 667.9395,-761.5313"/>
</g>
<!-- v_1_54 -->
<g id="node17" class="node">
<title>v_1_54</title>
<path fill="#85cbd0" stroke="#000000" d="M888,-801C888,-801 823,-801 823,-801 817,-801 811,-795 811,-789 811,-789 811,-777 811,-777 811,-771 817,-765 823,-765 823,-765 888,-765 888,-765 894,-765 900,-771 900,-777 900,-777 900,-789 900,-789 900,-795 894,-801 888,-801"/>
<text text-anchor="middle" x="855.5" y="-778" font-family="Times,serif" font-size="20.00" fill="#000000">190 tstop</text>
</g>
<!-- v_1_54&#45;&gt;v_1_46 -->
<g id="edge70" class="edge">
<title>v_1_54&#45;&gt;v_1_46</title>
<path fill="none" stroke="#000000" d="M810.8788,-773.1318C789.8026,-768.4708 763.8335,-762.7276 738.8525,-757.203"/>
<polygon fill="#000000" stroke="#000000" points="739.4902,-753.7595 728.9703,-755.0175 737.9786,-760.5943 739.4902,-753.7595"/>
</g>
<!-- v_1_55 -->
<g id="node18" class="node">
<title>v_1_55</title>
<path fill="#85cbd0" stroke="#000000" d="M885,-877C885,-877 826,-877 826,-877 820,-877 814,-871 814,-865 814,-865 814,-853 814,-853 814,-847 820,-841 826,-841 826,-841 885,-841 885,-841 891,-841 897,-847 897,-853 897,-853 897,-865 897,-865 897,-871 891,-877 885,-877"/>
<text text-anchor="middle" x="855.5" y="-854" font-family="Times,serif" font-size="20.00" fill="#000000">190 freq</text>
</g>
<!-- v_1_55&#45;&gt;v_1_46 -->
<g id="edge62" class="edge">
<title>v_1_55&#45;&gt;v_1_46</title>
<path fill="none" stroke="#000000" d="M824.8089,-840.9985C788.2482,-819.5542 727.0943,-783.6851 687.0265,-760.1838"/>
<polygon fill="#000000" stroke="#000000" points="688.7136,-757.1157 678.317,-755.0754 685.172,-763.1538 688.7136,-757.1157"/>
</g>
<!-- v_1_56 -->
<g id="node19" class="node">
<title>v_1_56</title>
<path fill="#85cbd0" stroke="#000000" d="M890,-709C890,-709 821,-709 821,-709 815,-709 809,-703 809,-697 809,-697 809,-685 809,-685 809,-679 815,-673 821,-673 821,-673 890,-673 890,-673 896,-673 902,-679 902,-685 902,-685 902,-697 902,-697 902,-703 896,-709 890,-709"/>
<text text-anchor="middle" x="855.5" y="-686" font-family="Times,serif" font-size="20.00" fill="#000000">190 pstop</text>
</g>
<!-- v_1_56&#45;&gt;v_1_46 -->
<g id="edge42" class="edge">
<title>v_1_56&#45;&gt;v_1_46</title>
<path fill="none" stroke="#000000" d="M808.8207,-701.3233C788.1875,-705.8864 763.1766,-711.4177 739.0696,-716.749"/>
<polygon fill="#000000" stroke="#000000" points="738.179,-713.3613 729.1707,-718.9382 739.6906,-720.1962 738.179,-713.3613"/>
</g>
<!-- v_1_59 -->
<g id="node20" class="node">
<title>v_1_59</title>
<polygon fill="#3a85b9" stroke="#000000" points="1204.5,-877 982.5,-877 982.5,-841 1204.5,-841 1204.5,-877"/>
<text text-anchor="middle" x="1093.5" y="-854" font-family="Times,serif" font-size="20.00" fill="#ffffff">192 calculate_wavelength</text>
</g>
<!-- v_1_59&#45;&gt;v_1_55 -->
<g id="edge88" class="edge">
<title>v_1_59&#45;&gt;v_1_55</title>
<path fill="none" stroke="#000000" stroke-dasharray="5,2" d="M982.1652,-859C955.9507,-859 929.2381,-859 907.1442,-859"/>
<polygon fill="#000000" stroke="#000000" points="907.0149,-855.5001 897.0149,-859 907.0149,-862.5001 907.0149,-855.5001"/>
</g>
<!-- v_1_60 -->
<g id="node21" class="node">
<title>v_1_60</title>
<path fill="#85cbd0" stroke="#000000" d="M1388.5,-801C1388.5,-801 1307.5,-801 1307.5,-801 1301.5,-801 1295.5,-795 1295.5,-789 1295.5,-789 1295.5,-777 1295.5,-777 1295.5,-771 1301.5,-765 1307.5,-765 1307.5,-765 1388.5,-765 1388.5,-765 1394.5,-765 1400.5,-771 1400.5,-777 1400.5,-777 1400.5,-789 1400.5,-789 1400.5,-795 1394.5,-801 1388.5,-801"/>
<text text-anchor="middle" x="1348" y="-778" font-family="Times,serif" font-size="20.00" fill="#000000">192 waveL</text>
</g>
<!-- v_1_60&#45;&gt;v_1_59 -->
<g id="edge41" class="edge">
<title>v_1_60&#45;&gt;v_1_59</title>
<path fill="none" stroke="#000000" d="M1295.2674,-798.7472C1257.2569,-810.0981 1205.55,-825.5391 1163.9971,-837.9478"/>
<polygon fill="#000000" stroke="#000000" points="1162.7919,-834.6549 1154.2115,-840.87 1164.7949,-841.3622 1162.7919,-834.6549"/>
</g>
<!-- v_1_63 -->
<g id="node22" class="node">
<title>v_1_63</title>
<polygon fill="#3a85b9" stroke="#000000" points="1807.5,-702 1457.5,-702 1457.5,-666 1807.5,-666 1807.5,-702"/>
<text text-anchor="middle" x="1632.5" y="-679" font-family="Times,serif" font-size="20.00" fill="#ffffff">194 calculate_incident_wave_polarization</text>
</g>
<!-- v_1_63&#45;&gt;v_1_48 -->
<g id="edge82" class="edge">
<title>v_1_63&#45;&gt;v_1_48</title>
<path fill="none" stroke="#000000" stroke-dasharray="5,2" d="M1457.1815,-688.3136C1436.0645,-688.8332 1415.9767,-689.3275 1398.923,-689.7471"/>
<polygon fill="#000000" stroke="#000000" points="1398.6255,-686.2532 1388.7146,-689.9982 1398.7977,-693.2511 1398.6255,-686.2532"/>
</g>
<!-- v_1_63&#45;&gt;v_1_60 -->
<g id="edge67" class="edge">
<title>v_1_63&#45;&gt;v_1_60</title>
<path fill="none" stroke="#000000" stroke-dasharray="5,2" d="M1580.6491,-702.043C1532.4672,-718.8093 1460.6592,-743.797 1409.5806,-761.5713"/>
<polygon fill="#000000" stroke="#000000" points="1408.2691,-758.3217 1399.9748,-764.9139 1410.5697,-764.9329 1408.2691,-758.3217"/>
</g>
<!-- v_1_64 -->
<g id="node23" class="node">
<title>v_1_64</title>
<path fill="#85cbd0" stroke="#000000" d="M2046,-634C2046,-634 2005,-634 2005,-634 1999,-634 1993,-628 1993,-622 1993,-622 1993,-610 1993,-610 1993,-604 1999,-598 2005,-598 2005,-598 2046,-598 2046,-598 2052,-598 2058,-604 2058,-610 2058,-610 2058,-622 2058,-622 2058,-628 2052,-634 2046,-634"/>
<text text-anchor="middle" x="2025.5" y="-611" font-family="Times,serif" font-size="20.00" fill="#000000">194 et</text>
</g>
<!-- v_1_64&#45;&gt;v_1_63 -->
<g id="edge5" class="edge">
<title>v_1_64&#45;&gt;v_1_63</title>
<path fill="none" stroke="#000000" d="M1992.982,-620.9993C1957.9086,-626.4425 1900.4423,-635.5087 1851,-644 1814.2607,-650.3097 1774.114,-657.5573 1738.3711,-664.135"/>
<polygon fill="#000000" stroke="#000000" points="1737.6126,-660.7158 1728.4131,-665.9711 1738.882,-667.5997 1737.6126,-660.7158"/>
</g>
<!-- v_1_65 -->
<g id="node24" class="node">
<title>v_1_65</title>
<path fill="#85cbd0" stroke="#000000" d="M2048.5,-689C2048.5,-689 2002.5,-689 2002.5,-689 1996.5,-689 1990.5,-683 1990.5,-677 1990.5,-677 1990.5,-665 1990.5,-665 1990.5,-659 1996.5,-653 2002.5,-653 2002.5,-653 2048.5,-653 2048.5,-653 2054.5,-653 2060.5,-659 2060.5,-665 2060.5,-665 2060.5,-677 2060.5,-677 2060.5,-683 2054.5,-689 2048.5,-689"/>
<text text-anchor="middle" x="2025.5" y="-666" font-family="Times,serif" font-size="20.00" fill="#000000">194 ep</text>
</g>
<!-- v_1_65&#45;&gt;v_1_63 -->
<g id="edge73" class="edge">
<title>v_1_65&#45;&gt;v_1_63</title>
<path fill="none" stroke="#000000" d="M1990.278,-672.1651C1950.7636,-673.4722 1883.5866,-675.6943 1818.0408,-677.8625"/>
<polygon fill="#000000" stroke="#000000" points="1817.8421,-674.3671 1807.9633,-678.1959 1818.0736,-681.3633 1817.8421,-674.3671"/>
</g>
<!-- a_2 -->
<g id="node25" class="node">
<title>a_2</title>
<path fill="#ffffff" stroke="#000000" d="M463.5,-144C463.5,-144 311.5,-144 311.5,-144 305.5,-144 299.5,-138 299.5,-132 299.5,-132 299.5,-120 299.5,-120 299.5,-114 305.5,-108 311.5,-108 311.5,-108 463.5,-108 463.5,-108 469.5,-108 475.5,-114 475.5,-120 475.5,-120 475.5,-132 475.5,-132 475.5,-138 469.5,-144 463.5,-144"/>
<text text-anchor="middle" x="387.5" y="-121" font-family="Times,serif" font-size="20.00" fill="#000000">BOX/coordinates.m</text>
</g>
<!-- v_1_68 -->
<g id="node26" class="node">
<title>v_1_68</title>
<polygon fill="#3a85b9" stroke="#000000" points="770,-144 525,-144 525,-108 770,-108 770,-144"/>
<text text-anchor="middle" x="647.5" y="-121" font-family="Times,serif" font-size="20.00" fill="#ffffff">196 read_model_coordinates</text>
</g>
<!-- v_1_68&#45;&gt;v_1_42 -->
<g id="edge2" class="edge">
<title>v_1_68&#45;&gt;v_1_42</title>
<path fill="none" stroke="#000000" stroke-dasharray="5,2" d="M616.6973,-144.1379C591.2357,-159.6472 554.5926,-183.1785 525,-207 507.6169,-220.993 508.4137,-230.9963 489,-242 483.6387,-245.0388 477.9239,-247.7458 472.0425,-250.1557"/>
<polygon fill="#000000" stroke="#000000" points="470.7986,-246.8841 462.6898,-253.7031 473.2811,-253.4292 470.7986,-246.8841"/>
</g>
<!-- v_1_68&#45;&gt;a_2 -->
<g id="edge72" class="edge">
<title>v_1_68&#45;&gt;a_2</title>
<path fill="none" stroke="#000000" stroke-dasharray="5,2" d="M524.733,-126C511.6607,-126 498.4906,-126 485.7536,-126"/>
<polygon fill="#000000" stroke="#000000" points="485.6418,-122.5001 475.6417,-126 485.6417,-129.5001 485.6418,-122.5001"/>
</g>
<!-- v_1_69 -->
<g id="node27" class="node">
<title>v_1_69</title>
<path fill="#85cbd0" stroke="#000000" d="M885,-144C885,-144 826,-144 826,-144 820,-144 814,-138 814,-132 814,-132 814,-120 814,-120 814,-114 820,-108 826,-108 826,-108 885,-108 885,-108 891,-108 897,-114 897,-120 897,-120 897,-132 897,-132 897,-138 891,-144 885,-144"/>
<text text-anchor="middle" x="855.5" y="-121" font-family="Times,serif" font-size="20.00" fill="#000000">196 ypts</text>
</g>
<!-- v_1_69&#45;&gt;v_1_68 -->
<g id="edge37" class="edge">
<title>v_1_69&#45;&gt;v_1_68</title>
<path fill="none" stroke="#000000" d="M813.908,-126C803.7198,-126 792.2635,-126 780.252,-126"/>
<polygon fill="#000000" stroke="#000000" points="780.0473,-122.5001 770.0473,-126 780.0472,-129.5001 780.0473,-122.5001"/>
</g>
<!-- v_1_70 -->
<g id="node28" class="node">
<title>v_1_70</title>
<path fill="#85cbd0" stroke="#000000" d="M893,-90C893,-90 818,-90 818,-90 812,-90 806,-84 806,-78 806,-78 806,-66 806,-66 806,-60 812,-54 818,-54 818,-54 893,-54 893,-54 899,-54 905,-60 905,-66 905,-66 905,-78 905,-78 905,-84 899,-90 893,-90"/>
<text text-anchor="middle" x="855.5" y="-67" font-family="Times,serif" font-size="20.00" fill="#000000">196 nverts</text>
</g>
<!-- v_1_70&#45;&gt;v_1_68 -->
<g id="edge59" class="edge">
<title>v_1_70&#45;&gt;v_1_68</title>
<path fill="none" stroke="#000000" d="M805.9431,-84.8657C782.2921,-91.0059 753.4097,-98.5042 726.8134,-105.409"/>
<polygon fill="#000000" stroke="#000000" points="725.9317,-102.0218 717.1321,-107.9224 727.6908,-108.7972 725.9317,-102.0218"/>
</g>
<!-- v_1_71 -->
<g id="node29" class="node">
<title>v_1_71</title>
<path fill="#85cbd0" stroke="#000000" d="M885,-36C885,-36 826,-36 826,-36 820,-36 814,-30 814,-24 814,-24 814,-12 814,-12 814,-6 820,0 826,0 826,0 885,0 885,0 891,0 897,-6 897,-12 897,-12 897,-24 897,-24 897,-30 891,-36 885,-36"/>
<text text-anchor="middle" x="855.5" y="-13" font-family="Times,serif" font-size="20.00" fill="#000000">196 xpts</text>
</g>
<!-- v_1_71&#45;&gt;v_1_68 -->
<g id="edge10" class="edge">
<title>v_1_71&#45;&gt;v_1_68</title>
<path fill="none" stroke="#000000" d="M820.6855,-36.0768C785.1395,-54.5333 729.8594,-83.2365 691.3482,-103.2327"/>
<polygon fill="#000000" stroke="#000000" points="689.6902,-100.1498 682.4281,-107.8643 692.9159,-106.3623 689.6902,-100.1498"/>
</g>
<!-- v_1_72 -->
<g id="node30" class="node">
<title>v_1_72</title>
<path fill="#85cbd0" stroke="#000000" d="M885,-198C885,-198 826,-198 826,-198 820,-198 814,-192 814,-186 814,-186 814,-174 814,-174 814,-168 820,-162 826,-162 826,-162 885,-162 885,-162 891,-162 897,-168 897,-174 897,-174 897,-186 897,-186 897,-192 891,-198 885,-198"/>
<text text-anchor="middle" x="855.5" y="-175" font-family="Times,serif" font-size="20.00" fill="#000000">196 zpts</text>
</g>
<!-- v_1_72&#45;&gt;v_1_68 -->
<g id="edge92" class="edge">
<title>v_1_72&#45;&gt;v_1_68</title>
<path fill="none" stroke="#000000" d="M813.908,-169.2021C788.9839,-162.7314 756.4711,-154.2906 726.804,-146.5885"/>
<polygon fill="#000000" stroke="#000000" points="727.4258,-143.134 716.8671,-144.0088 725.6668,-149.9094 727.4258,-143.134"/>
</g>
<!-- a_3 -->
<g id="node31" class="node">
<title>a_3</title>
<path fill="#ffffff" stroke="#000000" d="M441,-233C441,-233 334,-233 334,-233 328,-233 322,-227 322,-221 322,-221 322,-209 322,-209 322,-203 328,-197 334,-197 334,-197 441,-197 441,-197 447,-197 453,-203 453,-209 453,-209 453,-221 453,-221 453,-227 447,-233 441,-233"/>
<text text-anchor="middle" x="387.5" y="-210" font-family="Times,serif" font-size="20.00" fill="#000000">BOX/facets.m</text>
</g>
<!-- v_1_75 -->
<g id="node32" class="node">
<title>v_1_75</title>
<polygon fill="#3a85b9" stroke="#000000" points="748,-252 547,-252 547,-216 748,-216 748,-252"/>
<text text-anchor="middle" x="647.5" y="-229" font-family="Times,serif" font-size="20.00" fill="#ffffff">198 read_facets_model</text>
</g>
<!-- v_1_75&#45;&gt;v_1_42 -->
<g id="edge3" class="edge">
<title>v_1_75&#45;&gt;v_1_42</title>
<path fill="none" stroke="#000000" stroke-dasharray="5,2" d="M546.9772,-247.5319C522.4701,-250.8309 496.4877,-254.3286 472.768,-257.5216"/>
<polygon fill="#000000" stroke="#000000" points="472.1955,-254.067 462.7519,-258.8699 473.1294,-261.0044 472.1955,-254.067"/>
</g>
<!-- v_1_75&#45;&gt;a_3 -->
<g id="edge16" class="edge">
<title>v_1_75&#45;&gt;a_3</title>
<path fill="none" stroke="#000000" stroke-dasharray="5,2" d="M546.9772,-226.6541C519.2237,-224.626 489.578,-222.4595 463.4693,-220.5516"/>
<polygon fill="#000000" stroke="#000000" points="463.5002,-217.0446 453.2717,-219.8064 462.99,-224.026 463.5002,-217.0446"/>
</g>
<!-- v_1_76 -->
<g id="node33" class="node">
<title>v_1_76</title>
<path fill="#85cbd0" stroke="#000000" d="M892.5,-252C892.5,-252 818.5,-252 818.5,-252 812.5,-252 806.5,-246 806.5,-240 806.5,-240 806.5,-228 806.5,-228 806.5,-222 812.5,-216 818.5,-216 818.5,-216 892.5,-216 892.5,-216 898.5,-216 904.5,-222 904.5,-228 904.5,-228 904.5,-240 904.5,-240 904.5,-246 898.5,-252 892.5,-252"/>
<text text-anchor="middle" x="855.5" y="-229" font-family="Times,serif" font-size="20.00" fill="#000000">198 facets</text>
</g>
<!-- v_1_76&#45;&gt;v_1_75 -->
<g id="edge55" class="edge">
<title>v_1_76&#45;&gt;v_1_75</title>
<path fill="none" stroke="#000000" d="M806.4703,-234C791.9488,-234 775.4208,-234 758.6437,-234"/>
<polygon fill="#000000" stroke="#000000" points="758.1811,-230.5001 748.1811,-234 758.181,-237.5001 758.1811,-230.5001"/>
</g>
<!-- v_1_80 -->
<g id="node34" class="node">
<title>v_1_80</title>
<polygon fill="#3a85b9" stroke="#000000" points="1225.5,-234 961.5,-234 961.5,-198 1225.5,-198 1225.5,-234"/>
<text text-anchor="middle" x="1093.5" y="-211" font-family="Times,serif" font-size="20.00" fill="#ffffff">200 generate_transpose_matrix</text>
</g>
<!-- v_1_80&#45;&gt;v_1_76 -->
<g id="edge25" class="edge">
<title>v_1_80&#45;&gt;v_1_76</title>
<path fill="none" stroke="#000000" stroke-dasharray="5,2" d="M961.2763,-226.0001C945.0041,-227.2308 929.0659,-228.4362 914.699,-229.5228"/>
<polygon fill="#000000" stroke="#000000" points="914.2406,-226.0473 904.5331,-230.2916 914.7686,-233.0274 914.2406,-226.0473"/>
</g>
<!-- v_1_81 -->
<g id="node35" class="node">
<title>v_1_81</title>
<path fill="#85cbd0" stroke="#000000" d="M1385.5,-163C1385.5,-163 1310.5,-163 1310.5,-163 1304.5,-163 1298.5,-157 1298.5,-151 1298.5,-151 1298.5,-139 1298.5,-139 1298.5,-133 1304.5,-127 1310.5,-127 1310.5,-127 1385.5,-127 1385.5,-127 1391.5,-127 1397.5,-133 1397.5,-139 1397.5,-139 1397.5,-151 1397.5,-151 1397.5,-157 1391.5,-163 1385.5,-163"/>
<text text-anchor="middle" x="1348" y="-140" font-family="Times,serif" font-size="20.00" fill="#000000">200 node1</text>
</g>
<!-- v_1_81&#45;&gt;v_1_80 -->
<g id="edge54" class="edge">
<title>v_1_81&#45;&gt;v_1_80</title>
<path fill="none" stroke="#000000" d="M1298.3257,-158.8581C1261.3637,-169.1697 1210.2809,-183.4207 1168.377,-195.1109"/>
<polygon fill="#000000" stroke="#000000" points="1167.1795,-191.8113 1158.4878,-197.8698 1169.0605,-198.5538 1167.1795,-191.8113"/>
</g>
<!-- v_1_82 -->
<g id="node36" class="node">
<title>v_1_82</title>
<path fill="#85cbd0" stroke="#000000" d="M1385.5,-271C1385.5,-271 1310.5,-271 1310.5,-271 1304.5,-271 1298.5,-265 1298.5,-259 1298.5,-259 1298.5,-247 1298.5,-247 1298.5,-241 1304.5,-235 1310.5,-235 1310.5,-235 1385.5,-235 1385.5,-235 1391.5,-235 1397.5,-241 1397.5,-247 1397.5,-247 1397.5,-259 1397.5,-259 1397.5,-265 1391.5,-271 1385.5,-271"/>
<text text-anchor="middle" x="1348" y="-248" font-family="Times,serif" font-size="20.00" fill="#000000">200 node3</text>
</g>
<!-- v_1_82&#45;&gt;v_1_80 -->
<g id="edge13" class="edge">
<title>v_1_82&#45;&gt;v_1_80</title>
<path fill="none" stroke="#000000" d="M1298.3257,-245.7782C1277.7652,-242.7891 1252.8355,-239.1647 1227.5468,-235.4881"/>
<polygon fill="#000000" stroke="#000000" points="1227.866,-231.9978 1217.4665,-234.0226 1226.8588,-238.925 1227.866,-231.9978"/>
</g>
<!-- v_1_83 -->
<g id="node37" class="node">
<title>v_1_83</title>
<path fill="#85cbd0" stroke="#000000" d="M1385.5,-217C1385.5,-217 1310.5,-217 1310.5,-217 1304.5,-217 1298.5,-211 1298.5,-205 1298.5,-205 1298.5,-193 1298.5,-193 1298.5,-187 1304.5,-181 1310.5,-181 1310.5,-181 1385.5,-181 1385.5,-181 1391.5,-181 1397.5,-187 1397.5,-193 1397.5,-193 1397.5,-205 1397.5,-205 1397.5,-211 1391.5,-217 1385.5,-217"/>
<text text-anchor="middle" x="1348" y="-194" font-family="Times,serif" font-size="20.00" fill="#000000">200 node2</text>
</g>
<!-- v_1_83&#45;&gt;v_1_80 -->
<g id="edge86" class="edge">
<title>v_1_83&#45;&gt;v_1_80</title>
<path fill="none" stroke="#000000" d="M1298.3257,-202.3181C1279.9913,-203.5428 1258.1825,-204.9996 1235.7431,-206.4985"/>
<polygon fill="#000000" stroke="#000000" points="1235.4934,-203.0073 1225.7489,-207.1661 1235.96,-209.9917 1235.4934,-203.0073"/>
</g>
<!-- v_1_89 -->
<g id="node38" class="node">
<title>v_1_89</title>
<polygon fill="#3a85b9" stroke="#000000" points="1231.5,-109 955.5,-109 955.5,-73 1231.5,-73 1231.5,-109"/>
<text text-anchor="middle" x="1093.5" y="-86" font-family="Times,serif" font-size="20.00" fill="#ffffff">202 generate_coordinates_points</text>
</g>
<!-- v_1_89&#45;&gt;v_1_69 -->
<g id="edge28" class="edge">
<title>v_1_89&#45;&gt;v_1_69</title>
<path fill="none" stroke="#000000" stroke-dasharray="5,2" d="M971.0141,-109.0126C948.5264,-112.3196 926.2049,-115.6022 907.2653,-118.3875"/>
<polygon fill="#000000" stroke="#000000" points="906.496,-114.9629 897.1117,-119.8806 907.5145,-121.8884 906.496,-114.9629"/>
</g>
<!-- v_1_89&#45;&gt;v_1_70 -->
<g id="edge23" class="edge">
<title>v_1_89&#45;&gt;v_1_70</title>
<path fill="none" stroke="#000000" stroke-dasharray="5,2" d="M955.399,-79.9751C941.3811,-78.8561 927.7264,-77.766 915.2404,-76.7692"/>
<polygon fill="#000000" stroke="#000000" points="915.2915,-73.2622 905.0447,-75.9552 914.7344,-80.24 915.2915,-73.2622"/>
</g>
<!-- v_1_89&#45;&gt;v_1_71 -->
<g id="edge51" class="edge">
<title>v_1_89&#45;&gt;v_1_71</title>
<path fill="none" stroke="#000000" stroke-dasharray="5,2" d="M1034.6685,-72.9551C995.4964,-60.9401 944.5203,-45.3045 906.9623,-33.7847"/>
<polygon fill="#000000" stroke="#000000" points="907.8198,-30.3868 897.233,-30.8005 905.7671,-37.0791 907.8198,-30.3868"/>
</g>
<!-- v_1_89&#45;&gt;v_1_72 -->
<g id="edge80" class="edge">
<title>v_1_89&#45;&gt;v_1_72</title>
<path fill="none" stroke="#000000" stroke-dasharray="5,2" d="M1045.3371,-109.0105C1005.0979,-124.0579 947.8684,-145.4589 906.782,-160.8231"/>
<polygon fill="#000000" stroke="#000000" points="905.3694,-157.6146 897.2288,-164.3955 907.8212,-164.1712 905.3694,-157.6146"/>
</g>
<!-- v_1_90 -->
<g id="node39" class="node">
<title>v_1_90</title>
<path fill="#85cbd0" stroke="#000000" d="M1385,-109C1385,-109 1311,-109 1311,-109 1305,-109 1299,-103 1299,-97 1299,-97 1299,-85 1299,-85 1299,-79 1305,-73 1311,-73 1311,-73 1385,-73 1385,-73 1391,-73 1397,-79 1397,-85 1397,-85 1397,-97 1397,-97 1397,-103 1391,-109 1385,-109"/>
<text text-anchor="middle" x="1348" y="-86" font-family="Times,serif" font-size="20.00" fill="#000000">202 points</text>
</g>
<!-- v_1_90&#45;&gt;v_1_89 -->
<g id="edge48" class="edge">
<title>v_1_90&#45;&gt;v_1_89</title>
<path fill="none" stroke="#000000" d="M1298.9298,-91C1282.1101,-91 1262.3152,-91 1241.7683,-91"/>
<polygon fill="#000000" stroke="#000000" points="1241.631,-87.5001 1231.631,-91 1241.631,-94.5001 1241.631,-87.5001"/>
</g>
<!-- a_6 -->
<g id="node40" class="node">
<title>a_6</title>
<path fill="#ffffff" stroke="#000000" d="M2188,-217C2188,-217 1863,-217 1863,-217 1857,-217 1851,-211 1851,-205 1851,-205 1851,-193 1851,-193 1851,-187 1857,-181 1863,-181 1863,-181 2188,-181 2188,-181 2194,-181 2200,-187 2200,-193 2200,-193 2200,-205 2200,-205 2200,-211 2194,-217 2188,-217"/>
<text text-anchor="middle" x="2025.5" y="-194" font-family="Times,serif" font-size="20.00" fill="#000000">output/modular/20180324210456/plot.png</text>
</g>
<!-- v_1_96 -->
<g id="node41" class="node">
<title>v_1_96</title>
<polygon fill="#3a85b9" stroke="#000000" points="1702.5,-217 1562.5,-217 1562.5,-181 1702.5,-181 1702.5,-217"/>
<text text-anchor="middle" x="1632.5" y="-194" font-family="Times,serif" font-size="20.00" fill="#ffffff">204 plot_model</text>
</g>
<!-- a_6&#45;&gt;v_1_96 -->
<g id="edge79" class="edge">
<title>a_6&#45;&gt;v_1_96</title>
<path fill="none" stroke="#000000" stroke-dasharray="5,2" d="M1850.8358,-199C1802.7466,-199 1752.8911,-199 1712.9824,-199"/>
<polygon fill="#000000" stroke="#000000" points="1712.7942,-195.5001 1702.7942,-199 1712.7941,-202.5001 1712.7942,-195.5001"/>
</g>
<!-- v_1_96&#45;&gt;v_1_40 -->
<g id="edge12" class="edge">
<title>v_1_96&#45;&gt;v_1_40</title>
<path fill="none" stroke="#000000" stroke-dasharray="5,2" d="M1584.8811,-217.0768C1535.4412,-235.8448 1458.0902,-265.2083 1405.3278,-285.2376"/>
<polygon fill="#000000" stroke="#000000" points="1403.8811,-282.043 1395.7743,-288.8643 1406.3655,-288.5873 1403.8811,-282.043"/>
</g>
<!-- v_1_96&#45;&gt;v_1_81 -->
<g id="edge8" class="edge">
<title>v_1_96&#45;&gt;v_1_81</title>
<path fill="none" stroke="#000000" stroke-dasharray="5,2" d="M1562.1741,-185.6517C1514.7509,-176.6504 1452.8548,-164.9021 1407.8054,-156.3515"/>
<polygon fill="#000000" stroke="#000000" points="1408.3641,-152.8951 1397.8868,-154.4688 1407.0587,-159.7723 1408.3641,-152.8951"/>
</g>
<!-- v_1_96&#45;&gt;v_1_82 -->
<g id="edge94" class="edge">
<title>v_1_96&#45;&gt;v_1_82</title>
<path fill="none" stroke="#000000" stroke-dasharray="5,2" d="M1562.1741,-212.3483C1514.7509,-221.3496 1452.8548,-233.0979 1407.8054,-241.6485"/>
<polygon fill="#000000" stroke="#000000" points="1407.0587,-238.2277 1397.8868,-243.5312 1408.3641,-245.1049 1407.0587,-238.2277"/>
</g>
<!-- v_1_96&#45;&gt;v_1_83 -->
<g id="edge68" class="edge">
<title>v_1_96&#45;&gt;v_1_83</title>
<path fill="none" stroke="#000000" stroke-dasharray="5,2" d="M1562.1741,-199C1514.8505,-199 1453.1148,-199 1408.0896,-199"/>
<polygon fill="#000000" stroke="#000000" points="1407.8868,-195.5001 1397.8868,-199 1407.8867,-202.5001 1407.8868,-195.5001"/>
</g>
<!-- v_1_96&#45;&gt;v_1_90 -->
<g id="edge11" class="edge">
<title>v_1_96&#45;&gt;v_1_90</title>
<path fill="none" stroke="#000000" stroke-dasharray="5,2" d="M1584.8811,-180.9232C1535.4412,-162.1552 1458.0902,-132.7917 1405.3278,-112.7624"/>
<polygon fill="#000000" stroke="#000000" points="1406.3655,-109.4127 1395.7743,-109.1357 1403.8811,-115.957 1406.3655,-109.4127"/>
</g>
<!-- v_1_99 -->
<g id="node42" class="node">
<title>v_1_99</title>
<polygon fill="#3a85b9" stroke="#000000" points="1246,-601 941,-601 941,-565 1246,-565 1246,-601"/>
<text text-anchor="middle" x="1093.5" y="-578" font-family="Times,serif" font-size="20.00" fill="#ffffff">206 calculate_refs_geometry_model</text>
</g>
<!-- v_1_99&#45;&gt;v_1_49 -->
<g id="edge93" class="edge">
<title>v_1_99&#45;&gt;v_1_49</title>
<path fill="none" stroke="#000000" stroke-dasharray="5,2" d="M1060.4071,-564.785C1017.7785,-541.3213 943.657,-500.5234 897.2139,-474.9602"/>
<polygon fill="#000000" stroke="#000000" points="898.7602,-471.8161 888.3118,-470.0603 895.3847,-477.9486 898.7602,-471.8161"/>
</g>
<!-- v_1_99&#45;&gt;v_1_50 -->
<g id="edge78" class="edge">
<title>v_1_99&#45;&gt;v_1_50</title>
<path fill="none" stroke="#000000" stroke-dasharray="5,2" d="M1013.9186,-564.9437C980.8953,-557.451 943.3063,-548.9224 913.0331,-542.0537"/>
<polygon fill="#000000" stroke="#000000" points="913.5907,-538.5913 903.0641,-539.7919 912.0418,-545.4178 913.5907,-538.5913"/>
</g>
<!-- v_1_99&#45;&gt;v_1_51 -->
<g id="edge49" class="edge">
<title>v_1_99&#45;&gt;v_1_51</title>
<path fill="none" stroke="#000000" stroke-dasharray="5,2" d="M1013.9186,-601.0563C979.0446,-608.9689 939.0789,-618.0367 908.0143,-625.085"/>
<polygon fill="#000000" stroke="#000000" points="907.2366,-621.6724 898.259,-627.2984 908.7855,-628.4989 907.2366,-621.6724"/>
</g>
<!-- v_1_99&#45;&gt;v_1_52 -->
<g id="edge20" class="edge">
<title>v_1_99&#45;&gt;v_1_52</title>
<path fill="none" stroke="#000000" stroke-dasharray="5,2" d="M940.7512,-583C928.3946,-583 916.5672,-583 905.8651,-583"/>
<polygon fill="#000000" stroke="#000000" points="905.5603,-579.5001 895.5602,-583 905.5602,-586.5001 905.5603,-579.5001"/>
</g>
<!-- v_1_99&#45;&gt;v_1_54 -->
<g id="edge57" class="edge">
<title>v_1_99&#45;&gt;v_1_54</title>
<path fill="none" stroke="#000000" stroke-dasharray="5,2" d="M1071.9593,-601.1014C1029.233,-637.0059 933.6987,-717.2868 885.1062,-758.1208"/>
<polygon fill="#000000" stroke="#000000" points="882.5676,-755.6824 877.1635,-764.7954 887.071,-761.0415 882.5676,-755.6824"/>
</g>
<!-- v_1_99&#45;&gt;v_1_56 -->
<g id="edge90" class="edge">
<title>v_1_99&#45;&gt;v_1_56</title>
<path fill="none" stroke="#000000" stroke-dasharray="5,2" d="M1053.6642,-601.0768C1012.734,-619.6501 948.9366,-648.6002 904.838,-668.6113"/>
<polygon fill="#000000" stroke="#000000" points="903.1258,-665.5447 895.4658,-672.8643 906.0184,-671.9191 903.1258,-665.5447"/>
</g>
<!-- v_1_100 -->
<g id="node43" class="node">
<title>v_1_100</title>
<path fill="#85cbd0" stroke="#000000" d="M1369,-547C1369,-547 1327,-547 1327,-547 1321,-547 1315,-541 1315,-535 1315,-535 1315,-523 1315,-523 1315,-517 1321,-511 1327,-511 1327,-511 1369,-511 1369,-511 1375,-511 1381,-517 1381,-523 1381,-523 1381,-535 1381,-535 1381,-541 1375,-547 1369,-547"/>
<text text-anchor="middle" x="1348" y="-524" font-family="Times,serif" font-size="20.00" fill="#000000">206 ip</text>
</g>
<!-- v_1_100&#45;&gt;v_1_99 -->
<g id="edge26" class="edge">
<title>v_1_100&#45;&gt;v_1_99</title>
<path fill="none" stroke="#000000" d="M1314.9895,-536.0042C1282.9797,-542.7961 1232.8696,-553.4285 1188.4035,-562.8633"/>
<polygon fill="#000000" stroke="#000000" points="1187.4774,-559.4818 1178.4217,-564.9813 1188.9304,-566.3294 1187.4774,-559.4818"/>
</g>
<!-- v_1_101 -->
<g id="node44" class="node">
<title>v_1_101</title>
<path fill="#85cbd0" stroke="#000000" d="M1367,-493C1367,-493 1329,-493 1329,-493 1323,-493 1317,-487 1317,-481 1317,-481 1317,-469 1317,-469 1317,-463 1323,-457 1329,-457 1329,-457 1367,-457 1367,-457 1373,-457 1379,-463 1379,-469 1379,-469 1379,-481 1379,-481 1379,-487 1373,-493 1367,-493"/>
<text text-anchor="middle" x="1348" y="-470" font-family="Times,serif" font-size="20.00" fill="#000000">206 it</text>
</g>
<!-- v_1_101&#45;&gt;v_1_99 -->
<g id="edge33" class="edge">
<title>v_1_101&#45;&gt;v_1_99</title>
<path fill="none" stroke="#000000" d="M1316.7303,-487.6612C1305.7338,-492.1483 1293.3026,-497.2601 1282,-502 1235.2151,-521.6198 1182.1404,-544.481 1144.2567,-560.9036"/>
<polygon fill="#000000" stroke="#000000" points="1142.7466,-557.7435 1134.9656,-564.9343 1145.5325,-564.1653 1142.7466,-557.7435"/>
</g>
<!-- v_1_102 -->
<g id="node45" class="node">
<title>v_1_102</title>
<path fill="#85cbd0" stroke="#000000" d="M1376,-655C1376,-655 1320,-655 1320,-655 1314,-655 1308,-649 1308,-643 1308,-643 1308,-631 1308,-631 1308,-625 1314,-619 1320,-619 1320,-619 1376,-619 1376,-619 1382,-619 1388,-625 1388,-631 1388,-631 1388,-643 1388,-643 1388,-649 1382,-655 1376,-655"/>
<text text-anchor="middle" x="1348" y="-632" font-family="Times,serif" font-size="20.00" fill="#000000">206 delt</text>
</g>
<!-- v_1_102&#45;&gt;v_1_99 -->
<g id="edge81" class="edge">
<title>v_1_102&#45;&gt;v_1_99</title>
<path fill="none" stroke="#000000" d="M1307.9544,-628.5031C1275.945,-621.7113 1229.751,-611.9098 1188.4273,-603.1417"/>
<polygon fill="#000000" stroke="#000000" points="1189.1011,-599.7069 1178.5924,-601.055 1187.6482,-606.5544 1189.1011,-599.7069"/>
</g>
<!-- v_1_103 -->
<g id="node46" class="node">
<title>v_1_103</title>
<path fill="#85cbd0" stroke="#000000" d="M1378.5,-601C1378.5,-601 1317.5,-601 1317.5,-601 1311.5,-601 1305.5,-595 1305.5,-589 1305.5,-589 1305.5,-577 1305.5,-577 1305.5,-571 1311.5,-565 1317.5,-565 1317.5,-565 1378.5,-565 1378.5,-565 1384.5,-565 1390.5,-571 1390.5,-577 1390.5,-577 1390.5,-589 1390.5,-589 1390.5,-595 1384.5,-601 1378.5,-601"/>
<text text-anchor="middle" x="1348" y="-578" font-family="Times,serif" font-size="20.00" fill="#000000">206 delp</text>
</g>
<!-- v_1_103&#45;&gt;v_1_99 -->
<g id="edge45" class="edge">
<title>v_1_103&#45;&gt;v_1_99</title>
<path fill="none" stroke="#000000" d="M1305.4024,-583C1291.0752,-583 1274.1277,-583 1256.1565,-583"/>
<polygon fill="#000000" stroke="#000000" points="1256.0774,-579.5001 1246.0774,-583 1256.0774,-586.5001 1256.0774,-579.5001"/>
</g>
<!-- a_7 -->
<g id="node47" class="node">
<title>a_7</title>
<path fill="#ffffff" stroke="#000000" d="M3087,-722C3087,-722 2776,-722 2776,-722 2770,-722 2764,-716 2764,-710 2764,-710 2764,-698 2764,-698 2764,-692 2770,-686 2776,-686 2776,-686 3087,-686 3087,-686 3093,-686 3099,-692 3099,-698 3099,-698 3099,-710 3099,-710 3099,-716 3093,-722 3087,-722"/>
<text text-anchor="middle" x="2931.5" y="-699" font-family="Times,serif" font-size="20.00" fill="#000000">output/modular/20180324210456/E0.dat</text>
</g>
<!-- v_1_106 -->
<g id="node49" class="node">
<title>v_1_106</title>
<polygon fill="#3a85b9" stroke="#000000" points="1717.5,-847 1547.5,-847 1547.5,-811 1717.5,-811 1717.5,-847"/>
<text text-anchor="middle" x="1632.5" y="-824" font-family="Times,serif" font-size="20.00" fill="#ffffff">208 prepare_output</text>
</g>
<!-- a_7&#45;&gt;v_1_106 -->
<g id="edge91" class="edge">
<title>a_7&#45;&gt;v_1_106</title>
<path fill="none" stroke="#000000" stroke-dasharray="5,2" d="M2885.4531,-722.111C2844.7407,-737.2414 2783.3834,-757.9125 2728,-768 2362.7752,-834.5216 1918.7321,-835.1124 1727.5421,-831.6036"/>
<polygon fill="#000000" stroke="#000000" points="1727.5894,-828.104 1717.5241,-831.4117 1727.4552,-835.1027 1727.5894,-828.104"/>
</g>
<!-- v_1_122 -->
<g id="node55" class="node">
<title>v_1_122</title>
<polygon fill="#3a85b9" stroke="#000000" points="2722.5,-606 2241.5,-606 2241.5,-570 2722.5,-570 2722.5,-606"/>
<text text-anchor="middle" x="2482" y="-583" font-family="Times,serif" font-size="20.00" fill="#ffffff">214 calculate_incident_field_ ... bal_cartesian_coordinates</text>
</g>
<!-- a_7&#45;&gt;v_1_122 -->
<g id="edge14" class="edge">
<title>a_7&#45;&gt;v_1_122</title>
<path fill="none" stroke="#000000" stroke-dasharray="5,2" d="M2861.2656,-685.875C2780.1547,-664.9432 2647.0039,-630.5817 2561.9779,-608.6395"/>
<polygon fill="#000000" stroke="#000000" points="2562.6683,-605.203 2552.111,-606.0932 2560.9191,-611.981 2562.6683,-605.203"/>
</g>
<!-- a_8 -->
<g id="node48" class="node">
<title>a_8</title>
<path fill="#ffffff" stroke="#000000" d="M3083,-648C3083,-648 2780,-648 2780,-648 2774,-648 2768,-642 2768,-636 2768,-636 2768,-624 2768,-624 2768,-618 2774,-612 2780,-612 2780,-612 3083,-612 3083,-612 3089,-612 3095,-618 3095,-624 3095,-624 3095,-636 3095,-636 3095,-642 3089,-648 3083,-648"/>
<text text-anchor="middle" x="2931.5" y="-625" font-family="Times,serif" font-size="20.00" fill="#000000">output/modular/20180324210456/R.dat</text>
</g>
<!-- a_8&#45;&gt;v_1_106 -->
<g id="edge39" class="edge">
<title>a_8&#45;&gt;v_1_106</title>
<path fill="none" stroke="#000000" stroke-dasharray="5,2" d="M2813.9313,-648.0109C2559.3162,-687.0166 1961.1069,-778.6591 1727.9264,-814.3812"/>
<polygon fill="#000000" stroke="#000000" points="1727.1259,-810.9629 1717.7712,-815.9369 1728.1859,-817.8822 1727.1259,-810.9629"/>
</g>
<!-- v_1_117 -->
<g id="node54" class="node">
<title>v_1_117</title>
<polygon fill="#3a85b9" stroke="#000000" points="2728,-456 2236,-456 2236,-420 2728,-420 2728,-456"/>
<text text-anchor="middle" x="2482" y="-433" font-family="Times,serif" font-size="20.00" fill="#ffffff">212 calculate_spherical_coord ... system_radial_unit_vector</text>
</g>
<!-- a_8&#45;&gt;v_1_117 -->
<g id="edge6" class="edge">
<title>a_8&#45;&gt;v_1_117</title>
<path fill="none" stroke="#000000" stroke-dasharray="5,2" d="M2889.2121,-611.9371C2806.4476,-576.5849 2623.3378,-498.3712 2533.6028,-460.0417"/>
<polygon fill="#000000" stroke="#000000" points="2534.746,-456.7241 2524.175,-456.0147 2531.9963,-463.1615 2534.746,-456.7241"/>
</g>
<!-- v_1_106&#45;&gt;v_1_39 -->
<g id="edge64" class="edge">
<title>v_1_106&#45;&gt;v_1_39</title>
<path fill="none" stroke="#000000" stroke-dasharray="5,2" d="M1622.4124,-847.1095C1595.5744,-893.2628 1517.3551,-1015.1613 1414,-1065 1285.3346,-1127.0435 1236.3433,-1089 1093.5,-1089 1093.5,-1089 1093.5,-1089 855.5,-1089 781.8622,-1089 585.9726,-1106.2901 525,-1065 494.7163,-1044.4921 514.6954,-1017.0274 489,-991 477.5263,-979.3781 462.8545,-969.9384 448.2543,-962.4853"/>
<polygon fill="#000000" stroke="#000000" points="449.7276,-959.31 439.2021,-958.0996 446.6755,-965.6096 449.7276,-959.31"/>
</g>
<!-- v_1_106&#45;&gt;v_1_40 -->
<g id="edge43" class="edge">
<title>v_1_106&#45;&gt;v_1_40</title>
<path fill="none" stroke="#000000" stroke-dasharray="5,2" d="M1582.5096,-810.8338C1539.8204,-792.532 1480.6114,-759.9423 1450,-711 1379.7248,-598.6423 1457.5436,-540.1672 1414,-415 1403.5296,-384.9027 1383.7423,-354.2471 1368.5537,-333.3241"/>
<polygon fill="#000000" stroke="#000000" points="1371.3408,-331.2065 1362.574,-325.257 1365.7172,-335.3749 1371.3408,-331.2065"/>
</g>
<!-- v_1_106&#45;&gt;v_1_41 -->
<g id="edge69" class="edge">
<title>v_1_106&#45;&gt;v_1_41</title>
<path fill="none" stroke="#000000" stroke-dasharray="5,2" d="M1625.4542,-847.1992C1603.5277,-901.143 1530.8857,-1060.8375 1414,-1132 1181.2785,-1273.6857 832.1879,-1225.6195 700.398,-1200.3551"/>
<polygon fill="#000000" stroke="#000000" points="701.0316,-1196.9128 690.5461,-1198.4307 699.6896,-1203.783 701.0316,-1196.9128"/>
</g>
<!-- v_1_106&#45;&gt;v_1_42 -->
<g id="edge63" class="edge">
<title>v_1_106&#45;&gt;v_1_42</title>
<path fill="none" stroke="#000000" stroke-dasharray="5,2" d="M1608.6881,-847.0952C1569.6596,-876.1374 1488.9105,-933.6714 1414,-971 1282.596,-1036.4798 1240.3149,-1051 1093.5,-1051 1093.5,-1051 1093.5,-1051 855.5,-1051 660.9575,-1051 628.8877,-928.4813 525,-764 425.6053,-606.6323 396.8886,-376.8969 389.6688,-297.3506"/>
<polygon fill="#000000" stroke="#000000" points="393.1351,-296.8079 388.7876,-287.1462 386.161,-297.4102 393.1351,-296.8079"/>
</g>
<!-- v_1_106&#45;&gt;v_1_43 -->
<g id="edge9" class="edge">
<title>v_1_106&#45;&gt;v_1_43</title>
<path fill="none" stroke="#000000" stroke-dasharray="5,2" d="M1624.7422,-847.1262C1601.6239,-898.5412 1527.6634,-1045.3101 1414,-1103 1299.5336,-1161.0974 922.8772,-1149.8471 743.7653,-1140.7429"/>
<polygon fill="#000000" stroke="#000000" points="743.7282,-1137.2364 733.5609,-1140.2157 743.3669,-1144.2271 743.7282,-1137.2364"/>
</g>
<!-- v_1_106&#45;&gt;v_1_47 -->
<g id="edge35" class="edge">
<title>v_1_106&#45;&gt;v_1_47</title>
<path fill="none" stroke="#000000" stroke-dasharray="5,2" d="M1597.6255,-847.1022C1555.3764,-868.1411 1481.4604,-902.1249 1414,-919 1324.6601,-941.3482 1217.6266,-948.1859 1152.6387,-950.2204"/>
<polygon fill="#000000" stroke="#000000" points="1152.4749,-946.7236 1142.5788,-950.5074 1152.6745,-953.7207 1152.4749,-946.7236"/>
</g>
<!-- v_1_106&#45;&gt;v_1_48 -->
<g id="edge83" class="edge">
<title>v_1_106&#45;&gt;v_1_48</title>
<path fill="none" stroke="#000000" stroke-dasharray="5,2" d="M1595.3066,-810.9589C1543.6577,-785.906 1450.2602,-740.6025 1394.2037,-713.4116"/>
<polygon fill="#000000" stroke="#000000" points="1395.7275,-710.2608 1385.2025,-709.0455 1392.6724,-716.559 1395.7275,-710.2608"/>
</g>
<!-- v_1_106&#45;&gt;v_1_49 -->
<g id="edge19" class="edge">
<title>v_1_106&#45;&gt;v_1_49</title>
<path fill="none" stroke="#000000" stroke-dasharray="5,2" d="M1583.1044,-810.9012C1540.502,-792.5592 1481.0791,-759.8704 1450,-711 1386.6894,-611.4471 1502.9007,-525.5608 1414,-448 1340.4449,-383.8274 1037.1257,-423.0704 910.9518,-442.7541"/>
<polygon fill="#000000" stroke="#000000" points="910.0721,-439.3495 900.7397,-444.365 911.1629,-446.264 910.0721,-439.3495"/>
</g>
<!-- v_1_106&#45;&gt;v_1_50 -->
<g id="edge84" class="edge">
<title>v_1_106&#45;&gt;v_1_50</title>
<path fill="none" stroke="#000000" stroke-dasharray="5,2" d="M1580.6048,-810.9766C1536.4584,-795.8094 1471.2889,-773.8075 1414,-756 1361.4766,-739.6738 984.9603,-643.0566 941,-610 917.9462,-592.6644 926.2799,-575.4722 905,-556 903.8942,-554.9881 902.7435,-554.0006 901.5574,-553.0383"/>
<polygon fill="#000000" stroke="#000000" points="903.4629,-550.0968 893.3127,-547.0597 899.3535,-555.7637 903.4629,-550.0968"/>
</g>
<!-- v_1_106&#45;&gt;v_1_53 -->
<g id="edge21" class="edge">
<title>v_1_106&#45;&gt;v_1_53</title>
<path fill="none" stroke="#000000" stroke-dasharray="5,2" d="M1604.3685,-847.18C1563.8751,-872.5483 1486.0845,-918.3322 1414,-944 1342.2336,-969.5546 1320.8458,-963.8028 1246,-978 1212.5631,-984.3425 1174.9096,-991.0137 1145.3835,-996.138"/>
<polygon fill="#000000" stroke="#000000" points="1144.5558,-992.7292 1135.299,-997.883 1145.7493,-999.6267 1144.5558,-992.7292"/>
</g>
<!-- v_1_106&#45;&gt;v_1_54 -->
<g id="edge65" class="edge">
<title>v_1_106&#45;&gt;v_1_54</title>
<path fill="none" stroke="#000000" stroke-dasharray="5,2" d="M1547.4731,-835.716C1507.0657,-838.5828 1458.0711,-841.5896 1414,-843 1355.3634,-844.8766 1340.023,-851.6668 1282,-843 1265.4533,-840.5284 1262.3603,-835.4988 1246,-832 1127.7838,-806.7182 986.4479,-792.9771 910.4161,-786.9006"/>
<polygon fill="#000000" stroke="#000000" points="910.3734,-783.3865 900.1303,-786.0936 909.8259,-790.3651 910.3734,-783.3865"/>
</g>
<!-- v_1_106&#45;&gt;v_1_55 -->
<g id="edge38" class="edge">
<title>v_1_106&#45;&gt;v_1_55</title>
<path fill="none" stroke="#000000" stroke-dasharray="5,2" d="M1571.4364,-847.0676C1527.9614,-859.0578 1467.9249,-873.8569 1414,-881 1325.9891,-892.6582 952.2893,-887.7402 941,-886 929.6959,-884.2576 917.8374,-881.2911 906.6738,-877.9468"/>
<polygon fill="#000000" stroke="#000000" points="907.6631,-874.589 897.0738,-874.9319 905.5657,-881.2674 907.6631,-874.589"/>
</g>
<!-- v_1_106&#45;&gt;v_1_56 -->
<g id="edge31" class="edge">
<title>v_1_106&#45;&gt;v_1_56</title>
<path fill="none" stroke="#000000" stroke-dasharray="5,2" d="M1547.3853,-835.4055C1475.1995,-838.2569 1369.7099,-836.2803 1282,-810 1264.2561,-804.6834 1263.1594,-795.9762 1246,-789 1116.5857,-736.3865 1076.4255,-747.2953 941,-713 931.6265,-710.6263 921.6807,-708.0864 912.0138,-705.6065"/>
<polygon fill="#000000" stroke="#000000" points="912.6329,-702.152 902.0765,-703.0534 910.8909,-708.9318 912.6329,-702.152"/>
</g>
<!-- v_1_106&#45;&gt;v_1_102 -->
<g id="edge30" class="edge">
<title>v_1_106&#45;&gt;v_1_102</title>
<path fill="none" stroke="#000000" stroke-dasharray="5,2" d="M1597.0519,-810.8788C1558.3317,-790.0444 1495.7389,-753.2326 1450,-711 1430.6681,-693.15 1434.9032,-679.9813 1414,-664 1408.9657,-660.1511 1403.3059,-656.7619 1397.4721,-653.8025"/>
<polygon fill="#000000" stroke="#000000" points="1398.7694,-650.5458 1388.2262,-649.5014 1395.8169,-656.8927 1398.7694,-650.5458"/>
</g>
<!-- v_1_106&#45;&gt;v_1_103 -->
<g id="edge15" class="edge">
<title>v_1_106&#45;&gt;v_1_103</title>
<path fill="none" stroke="#000000" stroke-dasharray="5,2" d="M1589.0097,-810.9113C1547.847,-791.7344 1487.0011,-757.7406 1450,-711 1420.4212,-673.6355 1446.9147,-644.462 1414,-610 1409.8916,-605.6985 1405.0006,-602.0606 1399.7653,-598.9886"/>
<polygon fill="#000000" stroke="#000000" points="1401.2016,-595.7917 1390.7072,-594.3359 1398.0032,-602.0183 1401.2016,-595.7917"/>
</g>
<!-- v_1_109 -->
<g id="node50" class="node">
<title>v_1_109</title>
<polygon fill="#3a85b9" stroke="#000000" points="1815,-574 1450,-574 1450,-538 1815,-538 1815,-574"/>
<text text-anchor="middle" x="1632.5" y="-551" font-family="Times,serif" font-size="20.00" fill="#ffffff">210 calculate_global_angles_and_directions</text>
</g>
<!-- v_1_109&#45;&gt;v_1_49 -->
<g id="edge44" class="edge">
<title>v_1_109&#45;&gt;v_1_49</title>
<path fill="none" stroke="#000000" stroke-dasharray="5,2" d="M1469.5361,-537.9369C1462.5676,-533.9696 1455.9995,-529.3552 1450,-524 1407.8243,-486.3535 1459.0779,-436.1179 1414,-402 1384.3672,-379.5719 1058.5684,-367.0555 941,-400 921.0976,-405.577 901.2282,-417.2007 885.6595,-428.0466"/>
<polygon fill="#000000" stroke="#000000" points="883.5411,-425.2591 877.4797,-433.9488 887.6371,-430.9357 883.5411,-425.2591"/>
</g>
<!-- v_1_109&#45;&gt;v_1_50 -->
<g id="edge71" class="edge">
<title>v_1_109&#45;&gt;v_1_50</title>
<path fill="none" stroke="#000000" stroke-dasharray="5,2" d="M1472.684,-537.8406C1464.6678,-533.9387 1457.0368,-529.3605 1450,-524 1420.2685,-501.351 1445.5828,-467.9866 1414,-448 1246.1736,-341.7942 993.9453,-454.5721 896.2095,-506.1259"/>
<polygon fill="#000000" stroke="#000000" points="894.4142,-503.1168 887.2415,-510.9144 897.7113,-509.2916 894.4142,-503.1168"/>
</g>
<!-- v_1_109&#45;&gt;v_1_100 -->
<g id="edge58" class="edge">
<title>v_1_109&#45;&gt;v_1_100</title>
<path fill="none" stroke="#000000" stroke-dasharray="5,2" d="M1449.9075,-538.6714C1428.4258,-536.6327 1408.2822,-534.721 1391.6685,-533.1443"/>
<polygon fill="#000000" stroke="#000000" points="1391.5681,-529.6191 1381.2821,-532.1586 1390.9066,-536.5878 1391.5681,-529.6191"/>
</g>
<!-- v_1_109&#45;&gt;v_1_101 -->
<g id="edge32" class="edge">
<title>v_1_109&#45;&gt;v_1_101</title>
<path fill="none" stroke="#000000" stroke-dasharray="5,2" d="M1496.4222,-537.9902C1480.5327,-534.1773 1464.7457,-529.5682 1450,-524 1432.4579,-517.3758 1430.7312,-510.4659 1414,-502 1405.8938,-497.8983 1397.0118,-493.9295 1388.4647,-490.3545"/>
<polygon fill="#000000" stroke="#000000" points="1389.5976,-487.0367 1379.0164,-486.4995 1386.9531,-493.518 1389.5976,-487.0367"/>
</g>
<!-- v_1_109&#45;&gt;v_1_102 -->
<g id="edge22" class="edge">
<title>v_1_109&#45;&gt;v_1_102</title>
<path fill="none" stroke="#000000" stroke-dasharray="5,2" d="M1569.0068,-574.0772C1517.3294,-588.7902 1445.4025,-609.2685 1397.8159,-622.8169"/>
<polygon fill="#000000" stroke="#000000" points="1396.7063,-619.4937 1388.0469,-625.5982 1398.6231,-626.2261 1396.7063,-619.4937"/>
</g>
<!-- v_1_109&#45;&gt;v_1_103 -->
<g id="edge85" class="edge">
<title>v_1_109&#45;&gt;v_1_103</title>
<path fill="none" stroke="#000000" stroke-dasharray="5,2" d="M1449.9075,-573.3286C1432.318,-574.9979 1415.6257,-576.5821 1401.0338,-577.9669"/>
<polygon fill="#000000" stroke="#000000" points="1400.4215,-574.5092 1390.797,-578.9384 1401.083,-581.4779 1400.4215,-574.5092"/>
</g>
<!-- v_1_110 -->
<g id="node51" class="node">
<title>v_1_110</title>
<path fill="#85cbd0" stroke="#000000" d="M2050.5,-483C2050.5,-483 2000.5,-483 2000.5,-483 1994.5,-483 1988.5,-477 1988.5,-471 1988.5,-471 1988.5,-459 1988.5,-459 1988.5,-453 1994.5,-447 2000.5,-447 2000.5,-447 2050.5,-447 2050.5,-447 2056.5,-447 2062.5,-453 2062.5,-459 2062.5,-459 2062.5,-471 2062.5,-471 2062.5,-477 2056.5,-483 2050.5,-483"/>
<text text-anchor="middle" x="2025.5" y="-460" font-family="Times,serif" font-size="20.00" fill="#000000">210 i2s</text>
</g>
<!-- v_1_110&#45;&gt;v_1_109 -->
<g id="edge74" class="edge">
<title>v_1_110&#45;&gt;v_1_109</title>
<path fill="none" stroke="#000000" d="M1988.1732,-473.6431C1927.0767,-487.7901 1804.123,-516.2603 1720.0598,-535.7253"/>
<polygon fill="#000000" stroke="#000000" points="1719.2165,-532.3279 1710.2638,-537.9936 1720.7956,-539.1475 1719.2165,-532.3279"/>
</g>
<!-- v_1_111 -->
<g id="node52" class="node">
<title>v_1_111</title>
<path fill="#85cbd0" stroke="#000000" d="M2045,-578C2045,-578 2006,-578 2006,-578 2000,-578 1994,-572 1994,-566 1994,-566 1994,-554 1994,-554 1994,-548 2000,-542 2006,-542 2006,-542 2045,-542 2045,-542 2051,-542 2057,-548 2057,-554 2057,-554 2057,-566 2057,-566 2057,-572 2051,-578 2045,-578"/>
<text text-anchor="middle" x="2025.5" y="-555" font-family="Times,serif" font-size="20.00" fill="#000000">210 E</text>
</g>
<!-- v_1_111&#45;&gt;v_1_109 -->
<g id="edge77" class="edge">
<title>v_1_111&#45;&gt;v_1_109</title>
<path fill="none" stroke="#000000" d="M1993.6721,-559.6761C1956.0419,-559.293 1890.2555,-558.6235 1825.0494,-557.9598"/>
<polygon fill="#000000" stroke="#000000" points="1825.051,-554.4597 1815.0159,-557.8577 1824.9797,-561.4594 1825.051,-554.4597"/>
</g>
<!-- v_1_112 -->
<g id="node53" class="node">
<title>v_1_112</title>
<path fill="#85cbd0" stroke="#000000" d="M2051,-429C2051,-429 2000,-429 2000,-429 1994,-429 1988,-423 1988,-417 1988,-417 1988,-405 1988,-405 1988,-399 1994,-393 2000,-393 2000,-393 2051,-393 2051,-393 2057,-393 2063,-399 2063,-405 2063,-405 2063,-417 2063,-417 2063,-423 2057,-429 2051,-429"/>
<text text-anchor="middle" x="2025.5" y="-406" font-family="Times,serif" font-size="20.00" fill="#000000">210 D0</text>
</g>
<!-- v_1_112&#45;&gt;v_1_109 -->
<g id="edge61" class="edge">
<title>v_1_112&#45;&gt;v_1_109</title>
<path fill="none" stroke="#000000" d="M1987.8616,-413.1092C1951.9161,-415.9819 1896.62,-422.662 1851,-438 1781.947,-461.2165 1708.8533,-505.1968 1667.1401,-532.4137"/>
<polygon fill="#000000" stroke="#000000" points="1665.1546,-529.5304 1658.728,-537.9536 1669.0047,-535.3766 1665.1546,-529.5304"/>
</g>
<!-- v_1_117&#45;&gt;v_1_40 -->
<g id="edge52" class="edge">
<title>v_1_117&#45;&gt;v_1_40</title>
<path fill="none" stroke="#000000" stroke-dasharray="5,2" d="M2399.3777,-419.9417C2343.3568,-408.2497 2267.5032,-393.4896 2200,-384 1915.1558,-343.9566 1573.6572,-320.4308 1424.2596,-311.3492"/>
<polygon fill="#000000" stroke="#000000" points="1424.4615,-307.8551 1414.2688,-310.746 1424.0396,-314.8424 1424.4615,-307.8551"/>
</g>
<!-- v_1_117&#45;&gt;v_1_110 -->
<g id="edge34" class="edge">
<title>v_1_117&#45;&gt;v_1_110</title>
<path fill="none" stroke="#000000" stroke-dasharray="5,2" d="M2235.7118,-452.5669C2173.4736,-456.248 2113.0353,-459.8227 2073.0623,-462.1869"/>
<polygon fill="#000000" stroke="#000000" points="2072.6256,-458.7065 2062.8497,-462.7909 2073.039,-465.6943 2072.6256,-458.7065"/>
</g>
<!-- v_1_117&#45;&gt;v_1_112 -->
<g id="edge50" class="edge">
<title>v_1_117&#45;&gt;v_1_112</title>
<path fill="none" stroke="#000000" stroke-dasharray="5,2" d="M2235.7118,-423.4331C2173.6669,-419.7634 2113.4107,-416.1995 2073.4353,-413.8352"/>
<polygon fill="#000000" stroke="#000000" points="2073.4068,-410.3275 2063.2176,-413.2308 2072.9934,-417.3152 2073.4068,-410.3275"/>
</g>
<!-- v_1_122&#45;&gt;v_1_40 -->
<g id="edge27" class="edge">
<title>v_1_122&#45;&gt;v_1_40</title>
<path fill="none" stroke="#000000" stroke-dasharray="5,2" d="M2398.3843,-569.9685C2342.4256,-558.3269 2267.0269,-543.4581 2200,-533 2045.6892,-508.9232 2002.8964,-528.3178 1851,-492 1678.7744,-450.8216 1484.6262,-368.6244 1396.3352,-329.1549"/>
<polygon fill="#000000" stroke="#000000" points="1397.6681,-325.9169 1387.1117,-325.0147 1394.8014,-332.303 1397.6681,-325.9169"/>
</g>
<!-- v_1_122&#45;&gt;v_1_64 -->
<g id="edge40" class="edge">
<title>v_1_122&#45;&gt;v_1_64</title>
<path fill="none" stroke="#000000" stroke-dasharray="5,2" d="M2241.3844,-602.7585C2174.6687,-606.8506 2109.3658,-610.856 2068.3648,-613.3708"/>
<polygon fill="#000000" stroke="#000000" points="2067.992,-609.887 2058.2251,-613.9928 2068.4207,-616.8739 2067.992,-609.887"/>
</g>
<!-- v_1_122&#45;&gt;v_1_65 -->
<g id="edge66" class="edge">
<title>v_1_122&#45;&gt;v_1_65</title>
<path fill="none" stroke="#000000" stroke-dasharray="5,2" d="M2393.5512,-606.0402C2338.0527,-617.1637 2264.9499,-631.4587 2200,-643 2156.145,-650.7928 2105.914,-658.7514 2070.6407,-664.1818"/>
<polygon fill="#000000" stroke="#000000" points="2070.0066,-660.7381 2060.6527,-665.7135 2071.0677,-667.6572 2070.0066,-660.7381"/>
</g>
<!-- v_1_122&#45;&gt;v_1_110 -->
<g id="edge36" class="edge">
<title>v_1_122&#45;&gt;v_1_110</title>
<path fill="none" stroke="#000000" stroke-dasharray="5,2" d="M2432.9018,-569.9909C2377.0824,-550.0261 2282.9355,-517.8906 2200,-497 2157.3212,-486.2497 2107.919,-477.5305 2072.5965,-471.9244"/>
<polygon fill="#000000" stroke="#000000" points="2072.9885,-468.4432 2062.5678,-470.3562 2071.907,-475.3592 2072.9885,-468.4432"/>
</g>
<!-- v_1_122&#45;&gt;v_1_111 -->
<g id="edge87" class="edge">
<title>v_1_122&#45;&gt;v_1_111</title>
<path fill="none" stroke="#000000" stroke-dasharray="5,2" d="M2241.3844,-573.2415C2174.0765,-569.1131 2108.2067,-565.0729 2067.2789,-562.5626"/>
<polygon fill="#000000" stroke="#000000" points="2067.3687,-559.0616 2057.1732,-561.9427 2066.9401,-566.0485 2067.3687,-559.0616"/>
</g>
</g>
</svg>
