<?xml version="1.0" encoding="UTF-8" standalone="no"?>
<!DOCTYPE svg PUBLIC "-//W3C//DTD SVG 1.1//EN"
 "http://www.w3.org/Graphics/SVG/1.1/DTD/svg11.dtd">
<!-- Generated by graphviz version 2.40.1 (20161225.0304)
 -->
<!-- Title: Workflow Pages: 1 -->
<svg width="1493pt" height="925pt"
 viewBox="0.00 0.00 1493.00 925.00" xmlns="http://www.w3.org/2000/svg" xmlns:xlink="http://www.w3.org/1999/xlink">
<g id="graph0" class="graph" transform="scale(1 1) rotate(0) translate(4 921)">
<title>Workflow</title>
<polygon fill="#ffffff" stroke="transparent" points="-4,4 -4,-921 1489,-921 1489,4 -4,4"/>
<text text-anchor="middle" x="742.5" y="-898.6" font-family="Helvetica,sans-Serif" font-size="18.00" fill="#000000">yw_monolithic_pypofacets</text>
<g id="clust1" class="cluster">
<title>cluster_workflow_box_outer</title>
<polygon fill="none" stroke="#000000" stroke-width="2" points="22,-34 22,-855 1431,-855 1431,-34 22,-34"/>
</g>
<g id="clust2" class="cluster">
<title>cluster_workflow_box_inner</title>
<polygon fill="none" stroke="#000000" stroke-width="0" points="30,-42 30,-847 1423,-847 1423,-42 30,-42"/>
</g>
<!-- ReadArgs -->
<g id="node1" class="node">
<title>ReadArgs</title>
<polygon fill="#ccffcc" stroke="#000000" points="550.5,-767 473.5,-767 473.5,-731 550.5,-731 550.5,-767"/>
<text text-anchor="middle" x="512" y="-745.3" font-family="Helvetica,sans-Serif" font-size="14.00" fill="#000000">ReadArgs</text>
</g>
<!-- InputDataFileName -->
<g id="node19" class="node">
<title>InputDataFileName</title>
<path fill="#ffffcc" stroke="#000000" d="M567,-689.5C567,-689.5 457,-689.5 457,-689.5 451,-689.5 445,-683.5 445,-677.5 445,-677.5 445,-665.5 445,-665.5 445,-659.5 451,-653.5 457,-653.5 457,-653.5 567,-653.5 567,-653.5 573,-653.5 579,-659.5 579,-665.5 579,-665.5 579,-677.5 579,-677.5 579,-683.5 573,-689.5 567,-689.5"/>
<text text-anchor="middle" x="512" y="-667.8" font-family="Helvetica,sans-Serif" font-size="14.00" fill="#000000">InputDataFileName</text>
</g>
<!-- ReadArgs&#45;&gt;InputDataFileName -->
<g id="edge4" class="edge">
<title>ReadArgs&#45;&gt;InputDataFileName</title>
<path fill="none" stroke="#000000" d="M512,-730.6336C512,-721.4645 512,-710.1668 512,-699.9115"/>
<polygon fill="#000000" stroke="#000000" points="515.5001,-699.7345 512,-689.7346 508.5001,-699.7346 515.5001,-699.7345"/>
</g>
<!-- InputModel -->
<g id="node24" class="node">
<title>InputModel</title>
<path fill="#ffffcc" stroke="#000000" d="M1149,-689.5C1149,-689.5 1089,-689.5 1089,-689.5 1083,-689.5 1077,-683.5 1077,-677.5 1077,-677.5 1077,-665.5 1077,-665.5 1077,-659.5 1083,-653.5 1089,-653.5 1089,-653.5 1149,-653.5 1149,-653.5 1155,-653.5 1161,-659.5 1161,-665.5 1161,-665.5 1161,-677.5 1161,-677.5 1161,-683.5 1155,-689.5 1149,-689.5"/>
<text text-anchor="middle" x="1119" y="-667.8" font-family="Helvetica,sans-Serif" font-size="14.00" fill="#000000">InputModel</text>
</g>
<!-- ReadArgs&#45;&gt;InputModel -->
<g id="edge3" class="edge">
<title>ReadArgs&#45;&gt;InputModel</title>
<path fill="none" stroke="#000000" d="M550.5836,-746.8897C659.7153,-740.6609 969.0196,-721.1407 1067,-695 1069.1388,-694.4294 1071.3003,-693.7794 1073.4644,-693.0681"/>
<polygon fill="#000000" stroke="#000000" points="1074.7169,-696.3369 1082.9058,-689.6143 1072.312,-689.7629 1074.7169,-696.3369"/>
</g>
<!-- OutputDir -->
<g id="node36" class="node">
<title>OutputDir</title>
<path fill="#ffffcc" stroke="#000000" d="M1010.5,-540C1010.5,-540 959.5,-540 959.5,-540 953.5,-540 947.5,-534 947.5,-528 947.5,-528 947.5,-516 947.5,-516 947.5,-510 953.5,-504 959.5,-504 959.5,-504 1010.5,-504 1010.5,-504 1016.5,-504 1022.5,-510 1022.5,-516 1022.5,-516 1022.5,-528 1022.5,-528 1022.5,-534 1016.5,-540 1010.5,-540"/>
<text text-anchor="middle" x="985" y="-518.3" font-family="Helvetica,sans-Serif" font-size="14.00" fill="#000000">OutputDir</text>
</g>
<!-- ReadArgs&#45;&gt;OutputDir -->
<g id="edge5" class="edge">
<title>ReadArgs&#45;&gt;OutputDir</title>
<path fill="none" stroke="#000000" d="M537.6715,-730.8431C573.7663,-705.4868 637.909,-661.1028 663,-648 675.8092,-641.3109 851.5642,-573.3832 937.8616,-540.1367"/>
<polygon fill="#000000" stroke="#000000" points="939.3524,-543.3132 947.4262,-536.4528 936.8364,-536.781 939.3524,-543.3132"/>
</g>
<!-- Time -->
<g id="node43" class="node">
<title>Time</title>
<path fill="#ffffcc" stroke="#000000" d="M80,-612C80,-612 50,-612 50,-612 44,-612 38,-606 38,-600 38,-600 38,-588 38,-588 38,-582 44,-576 50,-576 50,-576 80,-576 80,-576 86,-576 92,-582 92,-588 92,-588 92,-600 92,-600 92,-606 86,-612 80,-612"/>
<text text-anchor="middle" x="65" y="-590.3" font-family="Helvetica,sans-Serif" font-size="14.00" fill="#000000">Time</text>
</g>
<!-- ReadArgs&#45;&gt;Time -->
<g id="edge1" class="edge">
<title>ReadArgs&#45;&gt;Time</title>
<path fill="none" stroke="#000000" d="M473.3163,-742.438C426.8851,-733.9979 347.0232,-717.6772 281,-695 200.6115,-667.3887 181.7036,-651.3047 101.1398,-612.0414"/>
<polygon fill="#000000" stroke="#000000" points="102.6074,-608.8634 92.0817,-607.6554 99.5568,-615.1637 102.6074,-608.8634"/>
</g>
<!-- ProgramName -->
<g id="node44" class="node">
<title>ProgramName</title>
<path fill="#ffffcc" stroke="#000000" d="M204,-612C204,-612 122,-612 122,-612 116,-612 110,-606 110,-600 110,-600 110,-588 110,-588 110,-582 116,-576 122,-576 122,-576 204,-576 204,-576 210,-576 216,-582 216,-588 216,-588 216,-600 216,-600 216,-606 210,-612 204,-612"/>
<text text-anchor="middle" x="163" y="-590.3" font-family="Helvetica,sans-Serif" font-size="14.00" fill="#000000">ProgramName</text>
</g>
<!-- ReadArgs&#45;&gt;ProgramName -->
<g id="edge2" class="edge">
<title>ReadArgs&#45;&gt;ProgramName</title>
<path fill="none" stroke="#000000" d="M473.3174,-731.8201C409.8393,-703.6278 283.6087,-647.5655 213.2807,-616.331"/>
<polygon fill="#000000" stroke="#000000" points="214.3004,-612.9542 203.7405,-612.0939 211.4591,-619.3517 214.3004,-612.9542"/>
</g>
<!-- ReadDataFileInput -->
<g id="node2" class="node">
<title>ReadDataFileInput</title>
<polygon fill="#ccffcc" stroke="#000000" points="630.5,-612 501.5,-612 501.5,-576 630.5,-576 630.5,-612"/>
<text text-anchor="middle" x="566" y="-590.3" font-family="Helvetica,sans-Serif" font-size="14.00" fill="#000000">ReadDataFileInput</text>
</g>
<!-- Freq -->
<g id="node21" class="node">
<title>Freq</title>
<path fill="#ffffcc" stroke="#000000" d="M140,-540C140,-540 110,-540 110,-540 104,-540 98,-534 98,-528 98,-528 98,-516 98,-516 98,-510 104,-504 110,-504 110,-504 140,-504 140,-504 146,-504 152,-510 152,-516 152,-516 152,-528 152,-528 152,-534 146,-540 140,-540"/>
<text text-anchor="middle" x="125" y="-518.3" font-family="Helvetica,sans-Serif" font-size="14.00" fill="#000000">Freq</text>
</g>
<!-- ReadDataFileInput&#45;&gt;Freq -->
<g id="edge7" class="edge">
<title>ReadDataFileInput&#45;&gt;Freq</title>
<path fill="none" stroke="#000000" d="M501.2006,-588.2054C424.38,-580.5745 292.799,-565.1021 182,-540 175.3359,-538.4902 168.3292,-536.5663 161.5968,-534.5412"/>
<polygon fill="#000000" stroke="#000000" points="162.5904,-531.1848 152.0015,-531.5382 160.4996,-537.8653 162.5904,-531.1848"/>
</g>
<!-- InputPolarization -->
<g id="node22" class="node">
<title>InputPolarization</title>
<path fill="#ffffcc" stroke="#000000" d="M295.5,-540C295.5,-540 202.5,-540 202.5,-540 196.5,-540 190.5,-534 190.5,-528 190.5,-528 190.5,-516 190.5,-516 190.5,-510 196.5,-504 202.5,-504 202.5,-504 295.5,-504 295.5,-504 301.5,-504 307.5,-510 307.5,-516 307.5,-516 307.5,-528 307.5,-528 307.5,-534 301.5,-540 295.5,-540"/>
<text text-anchor="middle" x="249" y="-518.3" font-family="Helvetica,sans-Serif" font-size="14.00" fill="#000000">InputPolarization</text>
</g>
<!-- ReadDataFileInput&#45;&gt;InputPolarization -->
<g id="edge10" class="edge">
<title>ReadDataFileInput&#45;&gt;InputPolarization</title>
<path fill="none" stroke="#000000" d="M501.328,-580.8114C453.3211,-570.829 386.025,-556.4337 317.6557,-540.1046"/>
<polygon fill="#000000" stroke="#000000" points="318.1036,-536.6128 307.5628,-537.6817 316.4695,-543.4194 318.1036,-536.6128"/>
</g>
<!-- PStart -->
<g id="node37" class="node">
<title>PStart</title>
<path fill="#ffffcc" stroke="#000000" d="M917,-540C917,-540 887,-540 887,-540 881,-540 875,-534 875,-528 875,-528 875,-516 875,-516 875,-510 881,-504 887,-504 887,-504 917,-504 917,-504 923,-504 929,-510 929,-516 929,-516 929,-528 929,-528 929,-534 923,-540 917,-540"/>
<text text-anchor="middle" x="902" y="-518.3" font-family="Helvetica,sans-Serif" font-size="14.00" fill="#000000">PStart</text>
</g>
<!-- ReadDataFileInput&#45;&gt;PStart -->
<g id="edge11" class="edge">
<title>ReadDataFileInput&#45;&gt;PStart</title>
<path fill="none" stroke="#000000" d="M630.5995,-578.9351C635.4651,-577.9065 640.3059,-576.9162 645,-576 739.5262,-557.551 769.3878,-569.7545 865.0624,-539.7799"/>
<polygon fill="#000000" stroke="#000000" points="866.3908,-543.0295 874.844,-536.6425 864.2528,-536.364 866.3908,-543.0295"/>
</g>
<!-- PStop -->
<g id="node38" class="node">
<title>PStop</title>
<path fill="#ffffcc" stroke="#000000" d="M773,-540C773,-540 743,-540 743,-540 737,-540 731,-534 731,-528 731,-528 731,-516 731,-516 731,-510 737,-504 743,-504 743,-504 773,-504 773,-504 779,-504 785,-510 785,-516 785,-516 785,-528 785,-528 785,-534 779,-540 773,-540"/>
<text text-anchor="middle" x="758" y="-518.3" font-family="Helvetica,sans-Serif" font-size="14.00" fill="#000000">PStop</text>
</g>
<!-- ReadDataFileInput&#45;&gt;PStop -->
<g id="edge12" class="edge">
<title>ReadDataFileInput&#45;&gt;PStop</title>
<path fill="none" stroke="#000000" d="M624.0956,-575.8913C651.4253,-566.9098 684.5194,-555.373 721.2418,-540.098"/>
<polygon fill="#000000" stroke="#000000" points="722.7976,-543.2406 730.6549,-536.1333 720.0804,-536.7895 722.7976,-543.2406"/>
</g>
<!-- InputDelP -->
<g id="node39" class="node">
<title>InputDelP</title>
<path fill="#ffffcc" stroke="#000000" d="M535,-540C535,-540 483,-540 483,-540 477,-540 471,-534 471,-528 471,-528 471,-516 471,-516 471,-510 477,-504 483,-504 483,-504 535,-504 535,-504 541,-504 547,-510 547,-516 547,-516 547,-528 547,-528 547,-534 541,-540 535,-540"/>
<text text-anchor="middle" x="509" y="-518.3" font-family="Helvetica,sans-Serif" font-size="14.00" fill="#000000">InputDelP</text>
</g>
<!-- ReadDataFileInput&#45;&gt;InputDelP -->
<g id="edge13" class="edge">
<title>ReadDataFileInput&#45;&gt;InputDelP</title>
<path fill="none" stroke="#000000" d="M551.6165,-575.8314C545.0514,-567.5386 537.1493,-557.557 529.9422,-548.4533"/>
<polygon fill="#000000" stroke="#000000" points="532.5284,-546.0813 523.5772,-540.4133 527.0401,-550.4262 532.5284,-546.0813"/>
</g>
<!-- TStart -->
<g id="node40" class="node">
<title>TStart</title>
<path fill="#ffffcc" stroke="#000000" d="M845,-540C845,-540 815,-540 815,-540 809,-540 803,-534 803,-528 803,-528 803,-516 803,-516 803,-510 809,-504 815,-504 815,-504 845,-504 845,-504 851,-504 857,-510 857,-516 857,-516 857,-528 857,-528 857,-534 851,-540 845,-540"/>
<text text-anchor="middle" x="830" y="-518.3" font-family="Helvetica,sans-Serif" font-size="14.00" fill="#000000">TStart</text>
</g>
<!-- ReadDataFileInput&#45;&gt;TStart -->
<g id="edge14" class="edge">
<title>ReadDataFileInput&#45;&gt;TStart</title>
<path fill="none" stroke="#000000" d="M630.7293,-579.0552C687.0207,-566.007 763.2024,-548.2078 792.8708,-539.6015"/>
<polygon fill="#000000" stroke="#000000" points="794.3156,-542.8139 802.771,-536.4298 792.18,-536.1476 794.3156,-542.8139"/>
</g>
<!-- TStop -->
<g id="node41" class="node">
<title>TStop</title>
<path fill="#ffffcc" stroke="#000000" d="M607,-540C607,-540 577,-540 577,-540 571,-540 565,-534 565,-528 565,-528 565,-516 565,-516 565,-510 571,-504 577,-504 577,-504 607,-504 607,-504 613,-504 619,-510 619,-516 619,-516 619,-528 619,-528 619,-534 613,-540 607,-540"/>
<text text-anchor="middle" x="592" y="-518.3" font-family="Helvetica,sans-Serif" font-size="14.00" fill="#000000">TStop</text>
</g>
<!-- ReadDataFileInput&#45;&gt;TStop -->
<g id="edge15" class="edge">
<title>ReadDataFileInput&#45;&gt;TStop</title>
<path fill="none" stroke="#000000" d="M572.5609,-575.8314C575.4027,-567.9617 578.7937,-558.5712 581.9419,-549.8533"/>
<polygon fill="#000000" stroke="#000000" points="585.2462,-551.0076 585.3508,-540.4133 578.6623,-548.63 585.2462,-551.0076"/>
</g>
<!-- InputDelT -->
<g id="node42" class="node">
<title>InputDelT</title>
<path fill="#ffffcc" stroke="#000000" d="M700.5,-540C700.5,-540 649.5,-540 649.5,-540 643.5,-540 637.5,-534 637.5,-528 637.5,-528 637.5,-516 637.5,-516 637.5,-510 643.5,-504 649.5,-504 649.5,-504 700.5,-504 700.5,-504 706.5,-504 712.5,-510 712.5,-516 712.5,-516 712.5,-528 712.5,-528 712.5,-534 706.5,-540 700.5,-540"/>
<text text-anchor="middle" x="675" y="-518.3" font-family="Helvetica,sans-Serif" font-size="14.00" fill="#000000">InputDelT</text>
</g>
<!-- ReadDataFileInput&#45;&gt;InputDelT -->
<g id="edge16" class="edge">
<title>ReadDataFileInput&#45;&gt;InputDelT</title>
<path fill="none" stroke="#000000" d="M593.5053,-575.8314C607.318,-566.7074 624.2256,-555.539 639.0529,-545.7449"/>
<polygon fill="#000000" stroke="#000000" points="641.0886,-548.5949 647.5035,-540.1628 637.2304,-542.7541 641.0886,-548.5949"/>
</g>
<!-- Corr -->
<g id="node45" class="node">
<title>Corr</title>
<path fill="#ffffcc" stroke="#000000" d="M441,-540C441,-540 411,-540 411,-540 405,-540 399,-534 399,-528 399,-528 399,-516 399,-516 399,-510 405,-504 411,-504 411,-504 441,-504 441,-504 447,-504 453,-510 453,-516 453,-516 453,-528 453,-528 453,-534 447,-540 441,-540"/>
<text text-anchor="middle" x="426" y="-518.3" font-family="Helvetica,sans-Serif" font-size="14.00" fill="#000000">Corr</text>
</g>
<!-- ReadDataFileInput&#45;&gt;Corr -->
<g id="edge8" class="edge">
<title>ReadDataFileInput&#45;&gt;Corr</title>
<path fill="none" stroke="#000000" d="M530.6721,-575.8314C509.7858,-565.0898 483.3899,-551.5148 462.3308,-540.6844"/>
<polygon fill="#000000" stroke="#000000" points="463.861,-537.5357 453.3674,-536.0747 460.6596,-543.7607 463.861,-537.5357"/>
</g>
<!-- Delstd -->
<g id="node46" class="node">
<title>Delstd</title>
<path fill="#ffffcc" stroke="#000000" d="M368.5,-540C368.5,-540 337.5,-540 337.5,-540 331.5,-540 325.5,-534 325.5,-528 325.5,-528 325.5,-516 325.5,-516 325.5,-510 331.5,-504 337.5,-504 337.5,-504 368.5,-504 368.5,-504 374.5,-504 380.5,-510 380.5,-516 380.5,-516 380.5,-528 380.5,-528 380.5,-534 374.5,-540 368.5,-540"/>
<text text-anchor="middle" x="353" y="-518.3" font-family="Helvetica,sans-Serif" font-size="14.00" fill="#000000">Delstd</text>
</g>
<!-- ReadDataFileInput&#45;&gt;Delstd -->
<g id="edge9" class="edge">
<title>ReadDataFileInput&#45;&gt;Delstd</title>
<path fill="none" stroke="#000000" d="M501.223,-576.7309C467.6106,-567.1186 426.1311,-554.2322 390,-540 389.9045,-539.9624 389.8088,-539.9246 389.7131,-539.8867"/>
<polygon fill="#000000" stroke="#000000" points="391.2451,-536.735 380.6734,-536.0342 388.5006,-543.1746 391.2451,-536.735"/>
</g>
<!-- CalculateWaveLength -->
<g id="node3" class="node">
<title>CalculateWaveLength</title>
<polygon fill="#ccffcc" stroke="#000000" points="226.5,-468 77.5,-468 77.5,-432 226.5,-432 226.5,-468"/>
<text text-anchor="middle" x="152" y="-446.3" font-family="Helvetica,sans-Serif" font-size="14.00" fill="#000000">CalculateWaveLength</text>
</g>
<!-- WaveLength -->
<g id="node23" class="node">
<title>WaveLength</title>
<path fill="#ffffcc" stroke="#000000" d="M214.5,-396C214.5,-396 145.5,-396 145.5,-396 139.5,-396 133.5,-390 133.5,-384 133.5,-384 133.5,-372 133.5,-372 133.5,-366 139.5,-360 145.5,-360 145.5,-360 214.5,-360 214.5,-360 220.5,-360 226.5,-366 226.5,-372 226.5,-372 226.5,-384 226.5,-384 226.5,-390 220.5,-396 214.5,-396"/>
<text text-anchor="middle" x="180" y="-374.3" font-family="Helvetica,sans-Serif" font-size="14.00" fill="#000000">WaveLength</text>
</g>
<!-- CalculateWaveLength&#45;&gt;WaveLength -->
<g id="edge19" class="edge">
<title>CalculateWaveLength&#45;&gt;WaveLength</title>
<path fill="none" stroke="#000000" d="M159.0656,-431.8314C162.126,-423.9617 165.7779,-414.5712 169.1682,-405.8533"/>
<polygon fill="#000000" stroke="#000000" points="172.4768,-407.0019 172.8393,-396.4133 165.9527,-404.4647 172.4768,-407.0019"/>
</g>
<!-- CalculateIncidentWavePolarization -->
<g id="node4" class="node">
<title>CalculateIncidentWavePolarization</title>
<polygon fill="#ccffcc" stroke="#000000" points="555,-324 329,-324 329,-288 555,-288 555,-324"/>
<text text-anchor="middle" x="442" y="-302.3" font-family="Helvetica,sans-Serif" font-size="14.00" fill="#000000">CalculateIncidentWavePolarization</text>
</g>
<!-- Et -->
<g id="node53" class="node">
<title>Et</title>
<path fill="#ffffcc" stroke="#000000" d="M526,-246.5C526,-246.5 496,-246.5 496,-246.5 490,-246.5 484,-240.5 484,-234.5 484,-234.5 484,-222.5 484,-222.5 484,-216.5 490,-210.5 496,-210.5 496,-210.5 526,-210.5 526,-210.5 532,-210.5 538,-216.5 538,-222.5 538,-222.5 538,-234.5 538,-234.5 538,-240.5 532,-246.5 526,-246.5"/>
<text text-anchor="middle" x="511" y="-224.8" font-family="Helvetica,sans-Serif" font-size="14.00" fill="#000000">Et</text>
</g>
<!-- CalculateIncidentWavePolarization&#45;&gt;Et -->
<g id="edge21" class="edge">
<title>CalculateIncidentWavePolarization&#45;&gt;Et</title>
<path fill="none" stroke="#000000" d="M458.352,-287.6336C467.2029,-277.6924 478.2816,-265.249 487.9898,-254.3447"/>
<polygon fill="#000000" stroke="#000000" points="490.7298,-256.5308 494.7653,-246.7346 485.5016,-251.876 490.7298,-256.5308"/>
</g>
<!-- Ep -->
<g id="node54" class="node">
<title>Ep</title>
<path fill="#ffffcc" stroke="#000000" d="M454,-246.5C454,-246.5 424,-246.5 424,-246.5 418,-246.5 412,-240.5 412,-234.5 412,-234.5 412,-222.5 412,-222.5 412,-216.5 418,-210.5 424,-210.5 424,-210.5 454,-210.5 454,-210.5 460,-210.5 466,-216.5 466,-222.5 466,-222.5 466,-234.5 466,-234.5 466,-240.5 460,-246.5 454,-246.5"/>
<text text-anchor="middle" x="439" y="-224.8" font-family="Helvetica,sans-Serif" font-size="14.00" fill="#000000">Ep</text>
</g>
<!-- CalculateIncidentWavePolarization&#45;&gt;Ep -->
<g id="edge22" class="edge">
<title>CalculateIncidentWavePolarization&#45;&gt;Ep</title>
<path fill="none" stroke="#000000" d="M441.289,-287.6336C440.9341,-278.4645 440.4968,-267.1668 440.0998,-256.9115"/>
<polygon fill="#000000" stroke="#000000" points="443.5901,-256.5917 439.7059,-246.7346 436.5954,-256.8625 443.5901,-256.5917"/>
</g>
<!-- ReadModelCoordinates -->
<g id="node5" class="node">
<title>ReadModelCoordinates</title>
<polygon fill="#ccffcc" stroke="#000000" points="1212.5,-612 1053.5,-612 1053.5,-576 1212.5,-576 1212.5,-612"/>
<text text-anchor="middle" x="1133" y="-590.3" font-family="Helvetica,sans-Serif" font-size="14.00" fill="#000000">ReadModelCoordinates</text>
</g>
<!-- XPoints -->
<g id="node28" class="node">
<title>XPoints</title>
<path fill="#ffffcc" stroke="#000000" d="M1165.5,-540C1165.5,-540 1126.5,-540 1126.5,-540 1120.5,-540 1114.5,-534 1114.5,-528 1114.5,-528 1114.5,-516 1114.5,-516 1114.5,-510 1120.5,-504 1126.5,-504 1126.5,-504 1165.5,-504 1165.5,-504 1171.5,-504 1177.5,-510 1177.5,-516 1177.5,-516 1177.5,-528 1177.5,-528 1177.5,-534 1171.5,-540 1165.5,-540"/>
<text text-anchor="middle" x="1146" y="-518.3" font-family="Helvetica,sans-Serif" font-size="14.00" fill="#000000">XPoints</text>
</g>
<!-- ReadModelCoordinates&#45;&gt;XPoints -->
<g id="edge25" class="edge">
<title>ReadModelCoordinates&#45;&gt;XPoints</title>
<path fill="none" stroke="#000000" d="M1136.2804,-575.8314C1137.6708,-568.131 1139.3241,-558.9743 1140.8692,-550.4166"/>
<polygon fill="#000000" stroke="#000000" points="1144.3428,-550.8761 1142.6754,-540.4133 1137.4542,-549.6322 1144.3428,-550.8761"/>
</g>
<!-- YPoints -->
<g id="node29" class="node">
<title>YPoints</title>
<path fill="#ffffcc" stroke="#000000" d="M1246.5,-540C1246.5,-540 1207.5,-540 1207.5,-540 1201.5,-540 1195.5,-534 1195.5,-528 1195.5,-528 1195.5,-516 1195.5,-516 1195.5,-510 1201.5,-504 1207.5,-504 1207.5,-504 1246.5,-504 1246.5,-504 1252.5,-504 1258.5,-510 1258.5,-516 1258.5,-516 1258.5,-528 1258.5,-528 1258.5,-534 1252.5,-540 1246.5,-540"/>
<text text-anchor="middle" x="1227" y="-518.3" font-family="Helvetica,sans-Serif" font-size="14.00" fill="#000000">YPoints</text>
</g>
<!-- ReadModelCoordinates&#45;&gt;YPoints -->
<g id="edge26" class="edge">
<title>ReadModelCoordinates&#45;&gt;YPoints</title>
<path fill="none" stroke="#000000" d="M1156.7202,-575.8314C1168.4094,-566.8779 1182.6688,-555.9558 1195.2809,-546.2955"/>
<polygon fill="#000000" stroke="#000000" points="1197.4769,-549.0222 1203.2874,-540.1628 1193.2203,-543.4651 1197.4769,-549.0222"/>
</g>
<!-- ZPoints -->
<g id="node30" class="node">
<title>ZPoints</title>
<path fill="#ffffcc" stroke="#000000" d="M1327,-540C1327,-540 1289,-540 1289,-540 1283,-540 1277,-534 1277,-528 1277,-528 1277,-516 1277,-516 1277,-510 1283,-504 1289,-504 1289,-504 1327,-504 1327,-504 1333,-504 1339,-510 1339,-516 1339,-516 1339,-528 1339,-528 1339,-534 1333,-540 1327,-540"/>
<text text-anchor="middle" x="1308" y="-518.3" font-family="Helvetica,sans-Serif" font-size="14.00" fill="#000000">ZPoints</text>
</g>
<!-- ReadModelCoordinates&#45;&gt;ZPoints -->
<g id="edge27" class="edge">
<title>ReadModelCoordinates&#45;&gt;ZPoints</title>
<path fill="none" stroke="#000000" d="M1179.4345,-575.9873C1203.421,-566.5538 1233.3323,-554.593 1267.3853,-540.194"/>
<polygon fill="#000000" stroke="#000000" points="1268.7761,-543.406 1276.6123,-536.2755 1266.0398,-536.9629 1268.7761,-543.406"/>
</g>
<!-- Nverts -->
<g id="node31" class="node">
<title>Nverts</title>
<path fill="#ffffcc" stroke="#000000" d="M1084,-540C1084,-540 1052,-540 1052,-540 1046,-540 1040,-534 1040,-528 1040,-528 1040,-516 1040,-516 1040,-510 1046,-504 1052,-504 1052,-504 1084,-504 1084,-504 1090,-504 1096,-510 1096,-516 1096,-516 1096,-528 1096,-528 1096,-534 1090,-540 1084,-540"/>
<text text-anchor="middle" x="1068" y="-518.3" font-family="Helvetica,sans-Serif" font-size="14.00" fill="#000000">Nverts</text>
</g>
<!-- ReadModelCoordinates&#45;&gt;Nverts -->
<g id="edge28" class="edge">
<title>ReadModelCoordinates&#45;&gt;Nverts</title>
<path fill="none" stroke="#000000" d="M1116.5978,-575.8314C1108.9585,-567.3694 1099.7317,-557.1489 1091.3793,-547.8971"/>
<polygon fill="#000000" stroke="#000000" points="1093.9221,-545.4906 1084.6231,-540.4133 1088.7262,-550.1813 1093.9221,-545.4906"/>
</g>
<!-- ReadFacetsModel -->
<g id="node6" class="node">
<title>ReadFacetsModel</title>
<polygon fill="#ccffcc" stroke="#000000" points="1393.5,-612 1266.5,-612 1266.5,-576 1393.5,-576 1393.5,-612"/>
<text text-anchor="middle" x="1330" y="-590.3" font-family="Helvetica,sans-Serif" font-size="14.00" fill="#000000">ReadFacetsModel</text>
</g>
<!-- Facets -->
<g id="node27" class="node">
<title>Facets</title>
<path fill="#ffffcc" stroke="#000000" d="M1402.5,-540C1402.5,-540 1369.5,-540 1369.5,-540 1363.5,-540 1357.5,-534 1357.5,-528 1357.5,-528 1357.5,-516 1357.5,-516 1357.5,-510 1363.5,-504 1369.5,-504 1369.5,-504 1402.5,-504 1402.5,-504 1408.5,-504 1414.5,-510 1414.5,-516 1414.5,-516 1414.5,-528 1414.5,-528 1414.5,-534 1408.5,-540 1402.5,-540"/>
<text text-anchor="middle" x="1386" y="-518.3" font-family="Helvetica,sans-Serif" font-size="14.00" fill="#000000">Facets</text>
</g>
<!-- ReadFacetsModel&#45;&gt;Facets -->
<g id="edge31" class="edge">
<title>ReadFacetsModel&#45;&gt;Facets</title>
<path fill="none" stroke="#000000" d="M1344.1312,-575.8314C1350.5811,-567.5386 1358.3445,-557.557 1365.4252,-548.4533"/>
<polygon fill="#000000" stroke="#000000" points="1368.3019,-550.4556 1371.6786,-540.4133 1362.7764,-546.158 1368.3019,-550.4556"/>
</g>
<!-- GenerateTransposeMatrix -->
<g id="node7" class="node">
<title>GenerateTransposeMatrix</title>
<polygon fill="#ccffcc" stroke="#000000" points="1414.5,-468 1239.5,-468 1239.5,-432 1414.5,-432 1414.5,-468"/>
<text text-anchor="middle" x="1327" y="-446.3" font-family="Helvetica,sans-Serif" font-size="14.00" fill="#000000">GenerateTransposeMatrix</text>
</g>
<!-- Node1 -->
<g id="node32" class="node">
<title>Node1</title>
<path fill="#ffffcc" stroke="#000000" d="M1393,-396C1393,-396 1361,-396 1361,-396 1355,-396 1349,-390 1349,-384 1349,-384 1349,-372 1349,-372 1349,-366 1355,-360 1361,-360 1361,-360 1393,-360 1393,-360 1399,-360 1405,-366 1405,-372 1405,-372 1405,-384 1405,-384 1405,-390 1399,-396 1393,-396"/>
<text text-anchor="middle" x="1377" y="-374.3" font-family="Helvetica,sans-Serif" font-size="14.00" fill="#000000">Node1</text>
</g>
<!-- GenerateTransposeMatrix&#45;&gt;Node1 -->
<g id="edge34" class="edge">
<title>GenerateTransposeMatrix&#45;&gt;Node1</title>
<path fill="none" stroke="#000000" d="M1339.6171,-431.8314C1345.3172,-423.6232 1352.1663,-413.7606 1358.4359,-404.7323"/>
<polygon fill="#000000" stroke="#000000" points="1361.3838,-406.6234 1364.213,-396.4133 1355.6342,-402.6306 1361.3838,-406.6234"/>
</g>
<!-- Node2 -->
<g id="node33" class="node">
<title>Node2</title>
<path fill="#ffffcc" stroke="#000000" d="M1245,-396C1245,-396 1213,-396 1213,-396 1207,-396 1201,-390 1201,-384 1201,-384 1201,-372 1201,-372 1201,-366 1207,-360 1213,-360 1213,-360 1245,-360 1245,-360 1251,-360 1257,-366 1257,-372 1257,-372 1257,-384 1257,-384 1257,-390 1251,-396 1245,-396"/>
<text text-anchor="middle" x="1229" y="-374.3" font-family="Helvetica,sans-Serif" font-size="14.00" fill="#000000">Node2</text>
</g>
<!-- GenerateTransposeMatrix&#45;&gt;Node2 -->
<g id="edge35" class="edge">
<title>GenerateTransposeMatrix&#45;&gt;Node2</title>
<path fill="none" stroke="#000000" d="M1302.2705,-431.8314C1290.0838,-422.8779 1275.2177,-411.9558 1262.0688,-402.2955"/>
<polygon fill="#000000" stroke="#000000" points="1263.8527,-399.263 1253.7216,-396.1628 1259.7082,-404.9042 1263.8527,-399.263"/>
</g>
<!-- Node3 -->
<g id="node34" class="node">
<title>Node3</title>
<path fill="#ffffcc" stroke="#000000" d="M1319,-396C1319,-396 1287,-396 1287,-396 1281,-396 1275,-390 1275,-384 1275,-384 1275,-372 1275,-372 1275,-366 1281,-360 1287,-360 1287,-360 1319,-360 1319,-360 1325,-360 1331,-366 1331,-372 1331,-372 1331,-384 1331,-384 1331,-390 1325,-396 1319,-396"/>
<text text-anchor="middle" x="1303" y="-374.3" font-family="Helvetica,sans-Serif" font-size="14.00" fill="#000000">Node3</text>
</g>
<!-- GenerateTransposeMatrix&#45;&gt;Node3 -->
<g id="edge36" class="edge">
<title>GenerateTransposeMatrix&#45;&gt;Node3</title>
<path fill="none" stroke="#000000" d="M1320.9438,-431.8314C1318.3488,-424.0463 1315.2576,-414.7729 1312.3782,-406.1347"/>
<polygon fill="#000000" stroke="#000000" points="1315.6205,-404.7933 1309.1378,-396.4133 1308.9797,-407.0069 1315.6205,-404.7933"/>
</g>
<!-- GenerateCoordinatesPoints -->
<g id="node8" class="node">
<title>GenerateCoordinatesPoints</title>
<polygon fill="#ccffcc" stroke="#000000" points="1221,-468 1037,-468 1037,-432 1221,-432 1221,-468"/>
<text text-anchor="middle" x="1129" y="-446.3" font-family="Helvetica,sans-Serif" font-size="14.00" fill="#000000">GenerateCoordinatesPoints</text>
</g>
<!-- Points -->
<g id="node35" class="node">
<title>Points</title>
<path fill="#ffffcc" stroke="#000000" d="M1153,-396C1153,-396 1123,-396 1123,-396 1117,-396 1111,-390 1111,-384 1111,-384 1111,-372 1111,-372 1111,-366 1117,-360 1123,-360 1123,-360 1153,-360 1153,-360 1159,-360 1165,-366 1165,-372 1165,-372 1165,-384 1165,-384 1165,-390 1159,-396 1153,-396"/>
<text text-anchor="middle" x="1138" y="-374.3" font-family="Helvetica,sans-Serif" font-size="14.00" fill="#000000">Points</text>
</g>
<!-- GenerateCoordinatesPoints&#45;&gt;Points -->
<g id="edge38" class="edge">
<title>GenerateCoordinatesPoints&#45;&gt;Points</title>
<path fill="none" stroke="#000000" d="M1131.2711,-431.8314C1132.2336,-424.131 1133.3782,-414.9743 1134.4479,-406.4166"/>
<polygon fill="#000000" stroke="#000000" points="1137.9309,-406.7702 1135.6983,-396.4133 1130.9849,-405.9019 1137.9309,-406.7702"/>
</g>
<!-- PlotModel -->
<g id="node9" class="node">
<title>PlotModel</title>
<polygon fill="#ccffcc" stroke="#000000" points="1304.5,-324 1227.5,-324 1227.5,-288 1304.5,-288 1304.5,-324"/>
<text text-anchor="middle" x="1266" y="-302.3" font-family="Helvetica,sans-Serif" font-size="14.00" fill="#000000">PlotModel</text>
</g>
<!-- PlotOutput -->
<g id="node17" class="node">
<title>PlotOutput</title>
<path fill="#ffffcc" stroke="#000000" d="M1232,-205.5C1232,-205.5 1374,-205.5 1374,-205.5 1380,-205.5 1386,-211.5 1386,-217.5 1386,-217.5 1386,-239.5 1386,-239.5 1386,-245.5 1380,-251.5 1374,-251.5 1374,-251.5 1232,-251.5 1232,-251.5 1226,-251.5 1220,-245.5 1220,-239.5 1220,-239.5 1220,-217.5 1220,-217.5 1220,-211.5 1226,-205.5 1232,-205.5"/>
<text text-anchor="middle" x="1303" y="-236.3" font-family="Helvetica,sans-Serif" font-size="14.00" fill="#000000">PlotOutput</text>
<polyline fill="none" stroke="#000000" points="1220,-228.5 1386,-228.5 "/>
<text text-anchor="middle" x="1303" y="-213.3" font-family="Helvetica,sans-Serif" font-size="14.00" fill="#000000">file:{{OutputDir}/plot.png}</text>
</g>
<!-- PlotModel&#45;&gt;PlotOutput -->
<g id="edge43" class="edge">
<title>PlotModel&#45;&gt;PlotOutput</title>
<path fill="none" stroke="#000000" d="M1274.7685,-287.6336C1278.575,-279.6605 1283.1499,-270.0778 1287.4979,-260.9706"/>
<polygon fill="#000000" stroke="#000000" points="1290.7551,-262.2717 1291.905,-251.7394 1284.4381,-259.2558 1290.7551,-262.2717"/>
</g>
<!-- CalculateRefsGeometryModel -->
<g id="node10" class="node">
<title>CalculateRefsGeometryModel</title>
<polygon fill="#ccffcc" stroke="#000000" points="774.5,-468 575.5,-468 575.5,-432 774.5,-432 774.5,-468"/>
<text text-anchor="middle" x="675" y="-446.3" font-family="Helvetica,sans-Serif" font-size="14.00" fill="#000000">CalculateRefsGeometryModel</text>
</g>
<!-- IP -->
<g id="node47" class="node">
<title>IP</title>
<path fill="#ffffcc" stroke="#000000" d="M951,-396C951,-396 921,-396 921,-396 915,-396 909,-390 909,-384 909,-384 909,-372 909,-372 909,-366 915,-360 921,-360 921,-360 951,-360 951,-360 957,-360 963,-366 963,-372 963,-372 963,-384 963,-384 963,-390 957,-396 951,-396"/>
<text text-anchor="middle" x="936" y="-374.3" font-family="Helvetica,sans-Serif" font-size="14.00" fill="#000000">IP</text>
</g>
<!-- CalculateRefsGeometryModel&#45;&gt;IP -->
<g id="edge50" class="edge">
<title>CalculateRefsGeometryModel&#45;&gt;IP</title>
<path fill="none" stroke="#000000" d="M740.5244,-431.9243C790.6384,-418.0998 857.9152,-399.5406 899.0496,-388.1932"/>
<polygon fill="#000000" stroke="#000000" points="900.2088,-391.5043 908.9179,-385.4709 898.3472,-384.7563 900.2088,-391.5043"/>
</g>
<!-- IT -->
<g id="node48" class="node">
<title>IT</title>
<path fill="#ffffcc" stroke="#000000" d="M681,-396C681,-396 651,-396 651,-396 645,-396 639,-390 639,-384 639,-384 639,-372 639,-372 639,-366 645,-360 651,-360 651,-360 681,-360 681,-360 687,-360 693,-366 693,-372 693,-372 693,-384 693,-384 693,-390 687,-396 681,-396"/>
<text text-anchor="middle" x="666" y="-374.3" font-family="Helvetica,sans-Serif" font-size="14.00" fill="#000000">IT</text>
</g>
<!-- CalculateRefsGeometryModel&#45;&gt;IT -->
<g id="edge49" class="edge">
<title>CalculateRefsGeometryModel&#45;&gt;IT</title>
<path fill="none" stroke="#000000" d="M672.7289,-431.8314C671.7664,-424.131 670.6218,-414.9743 669.5521,-406.4166"/>
<polygon fill="#000000" stroke="#000000" points="673.0151,-405.9019 668.3017,-396.4133 666.0691,-406.7702 673.0151,-405.9019"/>
</g>
<!-- DelP -->
<g id="node49" class="node">
<title>DelP</title>
<path fill="#ffffcc" stroke="#000000" d="M753,-396C753,-396 723,-396 723,-396 717,-396 711,-390 711,-384 711,-384 711,-372 711,-372 711,-366 717,-360 723,-360 723,-360 753,-360 753,-360 759,-360 765,-366 765,-372 765,-372 765,-384 765,-384 765,-390 759,-396 753,-396"/>
<text text-anchor="middle" x="738" y="-374.3" font-family="Helvetica,sans-Serif" font-size="14.00" fill="#000000">DelP</text>
</g>
<!-- CalculateRefsGeometryModel&#45;&gt;DelP -->
<g id="edge51" class="edge">
<title>CalculateRefsGeometryModel&#45;&gt;DelP</title>
<path fill="none" stroke="#000000" d="M690.8976,-431.8314C698.2278,-423.454 707.066,-413.3531 715.0969,-404.1749"/>
<polygon fill="#000000" stroke="#000000" points="717.9373,-406.2438 721.8884,-396.4133 712.6693,-401.6343 717.9373,-406.2438"/>
</g>
<!-- DelT -->
<g id="node50" class="node">
<title>DelT</title>
<path fill="#ffffcc" stroke="#000000" d="M825,-396C825,-396 795,-396 795,-396 789,-396 783,-390 783,-384 783,-384 783,-372 783,-372 783,-366 789,-360 795,-360 795,-360 825,-360 825,-360 831,-360 837,-366 837,-372 837,-372 837,-384 837,-384 837,-390 831,-396 825,-396"/>
<text text-anchor="middle" x="810" y="-374.3" font-family="Helvetica,sans-Serif" font-size="14.00" fill="#000000">DelT</text>
</g>
<!-- CalculateRefsGeometryModel&#45;&gt;DelT -->
<g id="edge52" class="edge">
<title>CalculateRefsGeometryModel&#45;&gt;DelT</title>
<path fill="none" stroke="#000000" d="M709.0662,-431.8314C728.8453,-421.2825 753.7483,-408.0009 773.8691,-397.2698"/>
<polygon fill="#000000" stroke="#000000" points="775.5652,-400.3319 782.7417,-392.5378 772.2711,-394.1555 775.5652,-400.3319"/>
</g>
<!-- PrepareOutput -->
<g id="node11" class="node">
<title>PrepareOutput</title>
<polygon fill="#ccffcc" stroke="#000000" points="479,-468 373,-468 373,-432 479,-432 479,-468"/>
<text text-anchor="middle" x="426" y="-446.3" font-family="Helvetica,sans-Serif" font-size="14.00" fill="#000000">PrepareOutput</text>
</g>
<!-- R_Output -->
<g id="node15" class="node">
<title>R_Output</title>
<path fill="#ffffcc" stroke="#000000" d="M724,-50.5C724,-50.5 850,-50.5 850,-50.5 856,-50.5 862,-56.5 862,-62.5 862,-62.5 862,-84.5 862,-84.5 862,-90.5 856,-96.5 850,-96.5 850,-96.5 724,-96.5 724,-96.5 718,-96.5 712,-90.5 712,-84.5 712,-84.5 712,-62.5 712,-62.5 712,-56.5 718,-50.5 724,-50.5"/>
<text text-anchor="middle" x="787" y="-81.3" font-family="Helvetica,sans-Serif" font-size="14.00" fill="#000000">R_Output</text>
<polyline fill="none" stroke="#000000" points="712,-73.5 862,-73.5 "/>
<text text-anchor="middle" x="787" y="-58.3" font-family="Helvetica,sans-Serif" font-size="14.00" fill="#000000">file:{{OutputDir}/R.dat}</text>
</g>
<!-- PrepareOutput&#45;&gt;R_Output -->
<g id="edge60" class="edge">
<title>PrepareOutput&#45;&gt;R_Output</title>
<path fill="none" stroke="#000000" d="M464.6375,-431.9247C522.2402,-402.798 629.4695,-339.7361 682,-252 709.5499,-205.9864 673.3628,-178.3449 702,-133 709.5077,-121.1121 720.3392,-110.9421 731.7696,-102.5476"/>
<polygon fill="#000000" stroke="#000000" points="733.9227,-105.3141 740.1597,-96.7496 729.9431,-99.5554 733.9227,-105.3141"/>
</g>
<!-- E0_Output -->
<g id="node16" class="node">
<title>E0_Output</title>
<path fill="#ffffcc" stroke="#000000" d="M345.5,-50.5C345.5,-50.5 478.5,-50.5 478.5,-50.5 484.5,-50.5 490.5,-56.5 490.5,-62.5 490.5,-62.5 490.5,-84.5 490.5,-84.5 490.5,-90.5 484.5,-96.5 478.5,-96.5 478.5,-96.5 345.5,-96.5 345.5,-96.5 339.5,-96.5 333.5,-90.5 333.5,-84.5 333.5,-84.5 333.5,-62.5 333.5,-62.5 333.5,-56.5 339.5,-50.5 345.5,-50.5"/>
<text text-anchor="middle" x="412" y="-81.3" font-family="Helvetica,sans-Serif" font-size="14.00" fill="#000000">E0_Output</text>
<polyline fill="none" stroke="#000000" points="333.5,-73.5 490.5,-73.5 "/>
<text text-anchor="middle" x="412" y="-58.3" font-family="Helvetica,sans-Serif" font-size="14.00" fill="#000000">file:{{OutputDir}/E0.dat}</text>
</g>
<!-- PrepareOutput&#45;&gt;E0_Output -->
<g id="edge59" class="edge">
<title>PrepareOutput&#45;&gt;E0_Output</title>
<path fill="none" stroke="#000000" d="M397.3258,-431.9184C362.9749,-407.7745 310,-361.5374 310,-306 310,-306 310,-306 310,-228.5 310,-184.842 309.045,-169.4991 333,-133 340.657,-121.3335 351.4145,-111.0776 362.5323,-102.5126"/>
<polygon fill="#000000" stroke="#000000" points="364.6434,-105.3048 370.6522,-96.5787 360.5132,-99.6531 364.6434,-105.3048"/>
</g>
<!-- CalculateGlobalAnglesAndDirections -->
<g id="node12" class="node">
<title>CalculateGlobalAnglesAndDirections</title>
<polygon fill="#ccffcc" stroke="#000000" points="926,-324 688,-324 688,-288 926,-288 926,-324"/>
<text text-anchor="middle" x="807" y="-302.3" font-family="Helvetica,sans-Serif" font-size="14.00" fill="#000000">CalculateGlobalAnglesAndDirections</text>
</g>
<!-- D0 -->
<g id="node51" class="node">
<title>D0</title>
<path fill="#ffffcc" stroke="#000000" d="M861,-246.5C861,-246.5 831,-246.5 831,-246.5 825,-246.5 819,-240.5 819,-234.5 819,-234.5 819,-222.5 819,-222.5 819,-216.5 825,-210.5 831,-210.5 831,-210.5 861,-210.5 861,-210.5 867,-210.5 873,-216.5 873,-222.5 873,-222.5 873,-234.5 873,-234.5 873,-240.5 867,-246.5 861,-246.5"/>
<text text-anchor="middle" x="846" y="-224.8" font-family="Helvetica,sans-Serif" font-size="14.00" fill="#000000">D0</text>
</g>
<!-- CalculateGlobalAnglesAndDirections&#45;&gt;D0 -->
<g id="edge76" class="edge">
<title>CalculateGlobalAnglesAndDirections&#45;&gt;D0</title>
<path fill="none" stroke="#000000" d="M816.2425,-287.6336C821.0023,-278.175 826.902,-266.4512 832.1899,-255.9432"/>
<polygon fill="#000000" stroke="#000000" points="835.4551,-257.2406 836.8239,-246.7346 829.2022,-254.094 835.4551,-257.2406"/>
</g>
<!-- E -->
<g id="node52" class="node">
<title>E</title>
<path fill="#ffffcc" stroke="#000000" d="M661,-246.5C661,-246.5 631,-246.5 631,-246.5 625,-246.5 619,-240.5 619,-234.5 619,-234.5 619,-222.5 619,-222.5 619,-216.5 625,-210.5 631,-210.5 631,-210.5 661,-210.5 661,-210.5 667,-210.5 673,-216.5 673,-222.5 673,-222.5 673,-234.5 673,-234.5 673,-240.5 667,-246.5 661,-246.5"/>
<text text-anchor="middle" x="646" y="-224.8" font-family="Helvetica,sans-Serif" font-size="14.00" fill="#000000">E</text>
</g>
<!-- CalculateGlobalAnglesAndDirections&#45;&gt;E -->
<g id="edge77" class="edge">
<title>CalculateGlobalAnglesAndDirections&#45;&gt;E</title>
<path fill="none" stroke="#000000" d="M769.2527,-287.8297C743.095,-275.2383 708.4533,-258.5629 682.5581,-246.0978"/>
<polygon fill="#000000" stroke="#000000" points="683.9739,-242.895 673.4454,-241.7113 680.9378,-249.2023 683.9739,-242.895"/>
</g>
<!-- CalculateSphericalCoordinateSystemRadialUnitVector -->
<g id="node13" class="node">
<title>CalculateSphericalCoordinateSystemRadialUnitVector</title>
<polygon fill="#ccffcc" stroke="#000000" points="1053,-169 711,-169 711,-133 1053,-133 1053,-169"/>
<text text-anchor="middle" x="882" y="-147.3" font-family="Helvetica,sans-Serif" font-size="14.00" fill="#000000">CalculateSphericalCoordinateSystemRadialUnitVector</text>
</g>
<!-- CalculateSphericalCoordinateSystemRadialUnitVector&#45;&gt;R_Output -->
<g id="edge84" class="edge">
<title>CalculateSphericalCoordinateSystemRadialUnitVector&#45;&gt;R_Output</title>
<path fill="none" stroke="#000000" d="M859.4863,-132.6336C848.684,-123.8212 835.4716,-113.0426 823.2997,-103.1129"/>
<polygon fill="#000000" stroke="#000000" points="825.4482,-100.3487 815.487,-96.7394 821.0233,-105.7728 825.4482,-100.3487"/>
</g>
<!-- CalculateIncidentFieldInGlobalCartesianCoordinates -->
<g id="node14" class="node">
<title>CalculateIncidentFieldInGlobalCartesianCoordinates</title>
<polygon fill="#ccffcc" stroke="#000000" points="672.5,-169 341.5,-169 341.5,-133 672.5,-133 672.5,-169"/>
<text text-anchor="middle" x="507" y="-147.3" font-family="Helvetica,sans-Serif" font-size="14.00" fill="#000000">CalculateIncidentFieldInGlobalCartesianCoordinates</text>
</g>
<!-- CalculateIncidentFieldInGlobalCartesianCoordinates&#45;&gt;E0_Output -->
<g id="edge89" class="edge">
<title>CalculateIncidentFieldInGlobalCartesianCoordinates&#45;&gt;E0_Output</title>
<path fill="none" stroke="#000000" d="M484.4863,-132.6336C473.684,-123.8212 460.4716,-113.0426 448.2997,-103.1129"/>
<polygon fill="#000000" stroke="#000000" points="450.4482,-100.3487 440.487,-96.7394 446.0233,-105.7728 450.4482,-100.3487"/>
</g>
<!-- R_Output_output_port -->
<g id="node59" class="node">
<title>R_Output_output_port</title>
<ellipse fill="#ffffff" stroke="#000000" cx="787" cy="-7" rx="7" ry="7"/>
</g>
<!-- R_Output&#45;&gt;R_Output_output_port -->
<g id="edge100" class="edge">
<title>R_Output&#45;&gt;R_Output_output_port</title>
<path fill="none" stroke="#000000" d="M787,-50.2415C787,-41.6855 787,-32.1565 787,-24.2258"/>
<polygon fill="#000000" stroke="#000000" points="790.5001,-24.0497 787,-14.0498 783.5001,-24.0498 790.5001,-24.0497"/>
</g>
<!-- E0_Output_output_port -->
<g id="node60" class="node">
<title>E0_Output_output_port</title>
<ellipse fill="#ffffff" stroke="#000000" cx="412" cy="-7" rx="7" ry="7"/>
</g>
<!-- E0_Output&#45;&gt;E0_Output_output_port -->
<g id="edge101" class="edge">
<title>E0_Output&#45;&gt;E0_Output_output_port</title>
<path fill="none" stroke="#000000" d="M412,-50.2415C412,-41.6855 412,-32.1565 412,-24.2258"/>
<polygon fill="#000000" stroke="#000000" points="415.5001,-24.0497 412,-14.0498 408.5001,-24.0498 415.5001,-24.0497"/>
</g>
<!-- PlotOutput_output_port -->
<g id="node61" class="node">
<title>PlotOutput_output_port</title>
<ellipse fill="#ffffff" stroke="#000000" cx="1446" cy="-151" rx="7" ry="7"/>
</g>
<!-- PlotOutput&#45;&gt;PlotOutput_output_port -->
<g id="edge102" class="edge">
<title>PlotOutput&#45;&gt;PlotOutput_output_port</title>
<path fill="none" stroke="#000000" d="M1360.5996,-205.3729C1382.2448,-195.5407 1406.545,-183.0808 1427,-169 1429.2925,-167.4219 1431.5756,-165.5686 1433.7226,-163.662"/>
<polygon fill="#000000" stroke="#000000" points="1436.3378,-166.0007 1441.0596,-156.5163 1431.4538,-160.986 1436.3378,-166.0007"/>
</g>
<!-- Arguments -->
<g id="node18" class="node">
<title>Arguments</title>
<path fill="#ffffcc" stroke="#000000" d="M541.5,-839C541.5,-839 482.5,-839 482.5,-839 476.5,-839 470.5,-833 470.5,-827 470.5,-827 470.5,-815 470.5,-815 470.5,-809 476.5,-803 482.5,-803 482.5,-803 541.5,-803 541.5,-803 547.5,-803 553.5,-809 553.5,-815 553.5,-815 553.5,-827 553.5,-827 553.5,-833 547.5,-839 541.5,-839"/>
<text text-anchor="middle" x="512" y="-817.3" font-family="Helvetica,sans-Serif" font-size="14.00" fill="#000000">Arguments</text>
</g>
<!-- Arguments&#45;&gt;ReadArgs -->
<g id="edge6" class="edge">
<title>Arguments&#45;&gt;ReadArgs</title>
<path fill="none" stroke="#000000" d="M512,-802.8314C512,-795.131 512,-785.9743 512,-777.4166"/>
<polygon fill="#000000" stroke="#000000" points="515.5001,-777.4132 512,-767.4133 508.5001,-777.4133 515.5001,-777.4132"/>
</g>
<!-- InputDataFileName&#45;&gt;ReadDataFileInput -->
<g id="edge17" class="edge">
<title>InputDataFileName&#45;&gt;ReadDataFileInput</title>
<path fill="none" stroke="#000000" d="M524.7972,-653.1336C531.5895,-643.3854 540.0582,-631.2313 547.5483,-620.4817"/>
<polygon fill="#000000" stroke="#000000" points="550.4494,-622.4402 553.2946,-612.2346 544.7061,-618.4384 550.4494,-622.4402"/>
</g>
<!-- InputDataFileName&#45;&gt;PrepareOutput -->
<g id="edge63" class="edge">
<title>InputDataFileName&#45;&gt;PrepareOutput</title>
<path fill="none" stroke="#000000" d="M444.9445,-661.9209C378.2169,-651.4019 281.3678,-633.1646 250,-612 233.8523,-601.1047 240.9521,-587.1798 225,-576 173.7967,-540.1147 127.1386,-589.5477 89,-540 79.2406,-527.3211 78.6198,-516.1759 89,-504 106.5303,-483.437 270.1807,-464.7612 362.816,-455.7234"/>
<polygon fill="#000000" stroke="#000000" points="363.3056,-459.1925 372.9231,-454.7481 362.6331,-452.2249 363.3056,-459.1925"/>
</g>
<!-- InputDataFile -->
<g id="node20" class="node">
<title>InputDataFile</title>
<path fill="#ffffcc" stroke="#000000" d="M906,-648.5C906,-648.5 1046,-648.5 1046,-648.5 1052,-648.5 1058,-654.5 1058,-660.5 1058,-660.5 1058,-682.5 1058,-682.5 1058,-688.5 1052,-694.5 1046,-694.5 1046,-694.5 906,-694.5 906,-694.5 900,-694.5 894,-688.5 894,-682.5 894,-682.5 894,-660.5 894,-660.5 894,-654.5 900,-648.5 906,-648.5"/>
<text text-anchor="middle" x="976" y="-679.3" font-family="Helvetica,sans-Serif" font-size="14.00" fill="#000000">InputDataFile</text>
<polyline fill="none" stroke="#000000" points="894,-671.5 1058,-671.5 "/>
<text text-anchor="middle" x="976" y="-656.3" font-family="Helvetica,sans-Serif" font-size="14.00" fill="#000000">file:{InputDataFileName}</text>
</g>
<!-- InputDataFile&#45;&gt;ReadDataFileInput -->
<g id="edge18" class="edge">
<title>InputDataFile&#45;&gt;ReadDataFileInput</title>
<path fill="none" stroke="#000000" d="M893.8196,-650.1532C890.5079,-649.4056 887.2252,-648.6845 884,-648 801.1953,-630.4246 705.3035,-614.7771 640.6513,-604.9086"/>
<polygon fill="#000000" stroke="#000000" points="640.9621,-601.4157 630.55,-603.375 639.9113,-608.3364 640.9621,-601.4157"/>
</g>
<!-- Freq&#45;&gt;CalculateWaveLength -->
<g id="edge20" class="edge">
<title>Freq&#45;&gt;CalculateWaveLength</title>
<path fill="none" stroke="#000000" d="M131.8132,-503.8314C134.7644,-495.9617 138.2858,-486.5712 141.555,-477.8533"/>
<polygon fill="#000000" stroke="#000000" points="144.8609,-479.0055 145.095,-468.4133 138.3066,-476.5476 144.8609,-479.0055"/>
</g>
<!-- Freq&#45;&gt;PrepareOutput -->
<g id="edge70" class="edge">
<title>Freq&#45;&gt;PrepareOutput</title>
<path fill="none" stroke="#000000" d="M152.0405,-509.183C156.6367,-507.2789 161.4088,-505.4668 166,-504 231.804,-482.9766 309.6517,-468.0636 362.8994,-459.3106"/>
<polygon fill="#000000" stroke="#000000" points="363.5663,-462.7483 372.8784,-457.695 362.4475,-455.8382 363.5663,-462.7483"/>
</g>
<!-- InputPolarization&#45;&gt;CalculateIncidentWavePolarization -->
<g id="edge23" class="edge">
<title>InputPolarization&#45;&gt;CalculateIncidentWavePolarization</title>
<path fill="none" stroke="#000000" d="M265.1231,-503.9555C299.3947,-465.5997 379.5786,-375.8602 419.1225,-331.6038"/>
<polygon fill="#000000" stroke="#000000" points="421.734,-333.934 425.787,-324.1451 416.5142,-329.27 421.734,-333.934"/>
</g>
<!-- InputPolarization&#45;&gt;PrepareOutput -->
<g id="edge71" class="edge">
<title>InputPolarization&#45;&gt;PrepareOutput</title>
<path fill="none" stroke="#000000" d="M293.6646,-503.8314C317.5477,-494.1162 347.129,-482.0831 372.2628,-471.8592"/>
<polygon fill="#000000" stroke="#000000" points="373.7125,-475.0481 381.6566,-468.038 371.0748,-468.564 373.7125,-475.0481"/>
</g>
<!-- WaveLength&#45;&gt;CalculateIncidentWavePolarization -->
<g id="edge24" class="edge">
<title>WaveLength&#45;&gt;CalculateIncidentWavePolarization</title>
<path fill="none" stroke="#000000" d="M226.5384,-365.2108C265.3082,-354.5565 321.2836,-339.174 366.4639,-326.758"/>
<polygon fill="#000000" stroke="#000000" points="367.5088,-330.1007 376.2239,-324.0759 365.6539,-323.3509 367.5088,-330.1007"/>
</g>
<!-- InputModel&#45;&gt;ReadModelCoordinates -->
<g id="edge29" class="edge">
<title>InputModel&#45;&gt;ReadModelCoordinates</title>
<path fill="none" stroke="#000000" d="M1122.3178,-653.1336C1123.9916,-643.868 1126.058,-632.4288 1127.926,-622.088"/>
<polygon fill="#000000" stroke="#000000" points="1131.3725,-622.6975 1129.706,-612.2346 1124.484,-621.4531 1131.3725,-622.6975"/>
</g>
<!-- InputModel&#45;&gt;ReadFacetsModel -->
<g id="edge32" class="edge">
<title>InputModel&#45;&gt;ReadFacetsModel</title>
<path fill="none" stroke="#000000" d="M1161.1919,-656.003C1192.7414,-644.4149 1236.2775,-628.4242 1271.2342,-615.5846"/>
<polygon fill="#000000" stroke="#000000" points="1272.6691,-618.7863 1280.8492,-612.053 1270.2556,-612.2155 1272.6691,-618.7863"/>
</g>
<!-- InputModel&#45;&gt;PrepareOutput -->
<g id="edge64" class="edge">
<title>InputModel&#45;&gt;PrepareOutput</title>
<path fill="none" stroke="#000000" d="M1083.5204,-653.4448C1078.0981,-651.2821 1072.4803,-649.3617 1067,-648 818.9309,-586.3608 745.9274,-648.9516 493,-612 422.8061,-601.745 226.1436,-595.5309 182,-540 172.0436,-527.4752 171.9829,-516.4763 182,-504 204.2703,-476.2622 298.1209,-461.9031 362.7149,-455.164"/>
<polygon fill="#000000" stroke="#000000" points="363.2162,-458.6313 372.8152,-454.1469 362.5149,-451.6665 363.2162,-458.6313"/>
</g>
<!-- CoordinatesFile -->
<g id="node25" class="node">
<title>CoordinatesFile</title>
<path fill="#ffffcc" stroke="#000000" d="M683.5,-648.5C683.5,-648.5 862.5,-648.5 862.5,-648.5 868.5,-648.5 874.5,-654.5 874.5,-660.5 874.5,-660.5 874.5,-682.5 874.5,-682.5 874.5,-688.5 868.5,-694.5 862.5,-694.5 862.5,-694.5 683.5,-694.5 683.5,-694.5 677.5,-694.5 671.5,-688.5 671.5,-682.5 671.5,-682.5 671.5,-660.5 671.5,-660.5 671.5,-654.5 677.5,-648.5 683.5,-648.5"/>
<text text-anchor="middle" x="773" y="-679.3" font-family="Helvetica,sans-Serif" font-size="14.00" fill="#000000">CoordinatesFile</text>
<polyline fill="none" stroke="#000000" points="671.5,-671.5 874.5,-671.5 "/>
<text text-anchor="middle" x="773" y="-656.3" font-family="Helvetica,sans-Serif" font-size="14.00" fill="#000000">file:{InputModel}/coordinates.m</text>
</g>
<!-- CoordinatesFile&#45;&gt;ReadModelCoordinates -->
<g id="edge30" class="edge">
<title>CoordinatesFile&#45;&gt;ReadModelCoordinates</title>
<path fill="none" stroke="#000000" d="M874.718,-649.6024C927.7381,-638.1883 992.0123,-624.3515 1043.1787,-613.3365"/>
<polygon fill="#000000" stroke="#000000" points="1044.1906,-616.699 1053.23,-611.1727 1042.7173,-609.8557 1044.1906,-616.699"/>
</g>
<!-- FacetsFile -->
<g id="node26" class="node">
<title>FacetsFile</title>
<path fill="#ffffcc" stroke="#000000" d="M1257,-648.5C1257,-648.5 1403,-648.5 1403,-648.5 1409,-648.5 1415,-654.5 1415,-660.5 1415,-660.5 1415,-682.5 1415,-682.5 1415,-688.5 1409,-694.5 1403,-694.5 1403,-694.5 1257,-694.5 1257,-694.5 1251,-694.5 1245,-688.5 1245,-682.5 1245,-682.5 1245,-660.5 1245,-660.5 1245,-654.5 1251,-648.5 1257,-648.5"/>
<text text-anchor="middle" x="1330" y="-679.3" font-family="Helvetica,sans-Serif" font-size="14.00" fill="#000000">FacetsFile</text>
<polyline fill="none" stroke="#000000" points="1245,-671.5 1415,-671.5 "/>
<text text-anchor="middle" x="1330" y="-656.3" font-family="Helvetica,sans-Serif" font-size="14.00" fill="#000000">file:{InputModel}/facets.m</text>
</g>
<!-- FacetsFile&#45;&gt;ReadFacetsModel -->
<g id="edge33" class="edge">
<title>FacetsFile&#45;&gt;ReadFacetsModel</title>
<path fill="none" stroke="#000000" d="M1330,-648.2474C1330,-640.0965 1330,-630.8503 1330,-622.3302"/>
<polygon fill="#000000" stroke="#000000" points="1333.5001,-622.0633 1330,-612.0633 1326.5001,-622.0634 1333.5001,-622.0633"/>
</g>
<!-- Facets&#45;&gt;GenerateTransposeMatrix -->
<g id="edge37" class="edge">
<title>Facets&#45;&gt;GenerateTransposeMatrix</title>
<path fill="none" stroke="#000000" d="M1371.1118,-503.8314C1364.247,-495.454 1355.9699,-485.3531 1348.4489,-476.1749"/>
<polygon fill="#000000" stroke="#000000" points="1351.1341,-473.9297 1342.0886,-468.4133 1345.7197,-478.3665 1351.1341,-473.9297"/>
</g>
<!-- XPoints&#45;&gt;GenerateCoordinatesPoints -->
<g id="edge39" class="edge">
<title>XPoints&#45;&gt;GenerateCoordinatesPoints</title>
<path fill="none" stroke="#000000" d="M1141.7102,-503.8314C1139.892,-496.131 1137.7301,-486.9743 1135.7095,-478.4166"/>
<polygon fill="#000000" stroke="#000000" points="1139.0519,-477.3414 1133.3476,-468.4133 1132.2392,-478.95 1139.0519,-477.3414"/>
</g>
<!-- YPoints&#45;&gt;GenerateCoordinatesPoints -->
<g id="edge40" class="edge">
<title>YPoints&#45;&gt;GenerateCoordinatesPoints</title>
<path fill="none" stroke="#000000" d="M1202.2705,-503.8314C1190.0838,-494.8779 1175.2177,-483.9558 1162.0688,-474.2955"/>
<polygon fill="#000000" stroke="#000000" points="1163.8527,-471.263 1153.7216,-468.1628 1159.7082,-476.9042 1163.8527,-471.263"/>
</g>
<!-- ZPoints&#45;&gt;GenerateCoordinatesPoints -->
<g id="edge41" class="edge">
<title>ZPoints&#45;&gt;GenerateCoordinatesPoints</title>
<path fill="none" stroke="#000000" d="M1276.6249,-507.6946C1273.7176,-506.4255 1270.8095,-505.1769 1268,-504 1241.4272,-492.8685 1211.6908,-481.2106 1186.5625,-471.5875"/>
<polygon fill="#000000" stroke="#000000" points="1187.7644,-468.3 1177.1737,-468.0043 1185.2684,-474.8399 1187.7644,-468.3"/>
</g>
<!-- Nverts&#45;&gt;GenerateCoordinatesPoints -->
<g id="edge42" class="edge">
<title>Nverts&#45;&gt;GenerateCoordinatesPoints</title>
<path fill="none" stroke="#000000" d="M1083.3929,-503.8314C1090.4904,-495.454 1099.048,-485.3531 1106.824,-476.1749"/>
<polygon fill="#000000" stroke="#000000" points="1109.6061,-478.3056 1113.3999,-468.4133 1104.2652,-473.7807 1109.6061,-478.3056"/>
</g>
<!-- Node1&#45;&gt;PlotModel -->
<g id="edge44" class="edge">
<title>Node1&#45;&gt;PlotModel</title>
<path fill="none" stroke="#000000" d="M1348.99,-359.8314C1334.9239,-350.7074 1317.706,-339.539 1302.6067,-329.7449"/>
<polygon fill="#000000" stroke="#000000" points="1304.2953,-326.6684 1294.001,-324.1628 1300.486,-332.5412 1304.2953,-326.6684"/>
</g>
<!-- Node2&#45;&gt;PlotModel -->
<g id="edge45" class="edge">
<title>Node2&#45;&gt;PlotModel</title>
<path fill="none" stroke="#000000" d="M1238.3367,-359.8314C1242.4243,-351.8771 1247.3104,-342.369 1251.8309,-333.5723"/>
<polygon fill="#000000" stroke="#000000" points="1255.0799,-334.9074 1256.5376,-324.4133 1248.8539,-331.7078 1255.0799,-334.9074"/>
</g>
<!-- Node3&#45;&gt;PlotModel -->
<g id="edge46" class="edge">
<title>Node3&#45;&gt;PlotModel</title>
<path fill="none" stroke="#000000" d="M1293.6633,-359.8314C1289.5757,-351.8771 1284.6896,-342.369 1280.1691,-333.5723"/>
<polygon fill="#000000" stroke="#000000" points="1283.1461,-331.7078 1275.4624,-324.4133 1276.9201,-334.9074 1283.1461,-331.7078"/>
</g>
<!-- Points&#45;&gt;PlotModel -->
<g id="edge47" class="edge">
<title>Points&#45;&gt;PlotModel</title>
<path fill="none" stroke="#000000" d="M1165.1455,-362.7307C1182.5825,-352.9223 1205.5563,-339.9996 1225.1724,-328.9655"/>
<polygon fill="#000000" stroke="#000000" points="1226.9172,-331.9999 1233.917,-324.0467 1223.4853,-325.8988 1226.9172,-331.9999"/>
</g>
<!-- OutputDir&#45;&gt;PlotModel -->
<g id="edge48" class="edge">
<title>OutputDir&#45;&gt;PlotModel</title>
<path fill="none" stroke="#000000" d="M991.5199,-503.7272C998.7701,-484.779 1011.6453,-454.7926 1028,-432 1054.7521,-394.7172 1062.7577,-383.7848 1102,-360 1137.7767,-338.3157 1183.2867,-324.2253 1217.2844,-315.8937"/>
<polygon fill="#000000" stroke="#000000" points="1218.5166,-319.1989 1227.4423,-313.4909 1216.9052,-312.3869 1218.5166,-319.1989"/>
</g>
<!-- OutputDir&#45;&gt;PrepareOutput -->
<g id="edge65" class="edge">
<title>OutputDir&#45;&gt;PrepareOutput</title>
<path fill="none" stroke="#000000" d="M947.3106,-506.565C944.192,-505.595 941.0618,-504.7209 938,-504 776.7461,-466.0325 731.6281,-486.4912 567,-468 541.5721,-465.1439 513.6114,-461.6485 489.341,-458.5003"/>
<polygon fill="#000000" stroke="#000000" points="489.5523,-454.9983 479.1835,-457.1752 488.6467,-461.9394 489.5523,-454.9983"/>
</g>
<!-- OutputDir&#45;&gt;CalculateSphericalCoordinateSystemRadialUnitVector -->
<g id="edge88" class="edge">
<title>OutputDir&#45;&gt;CalculateSphericalCoordinateSystemRadialUnitVector</title>
<path fill="none" stroke="#000000" d="M985,-503.8146C985,-476.4983 985,-423.25 985,-378 985,-378 985,-378 985,-306 985,-259.7564 986.2616,-243.0631 960,-205 951.7208,-193.0003 939.8418,-182.8429 927.8421,-174.6883"/>
<polygon fill="#000000" stroke="#000000" points="929.4408,-171.5559 919.1329,-169.1068 925.6638,-177.4494 929.4408,-171.5559"/>
</g>
<!-- OutputDir&#45;&gt;CalculateIncidentFieldInGlobalCartesianCoordinates -->
<g id="edge95" class="edge">
<title>OutputDir&#45;&gt;CalculateIncidentFieldInGlobalCartesianCoordinates</title>
<path fill="none" stroke="#000000" d="M950.2383,-503.9719C910.8006,-484.1054 844.1399,-452.2852 784,-432 717.397,-409.5348 683.9749,-441.0261 630,-396 558.9257,-336.7096 593.2903,-285.1506 547,-205 541.5736,-195.6042 534.8108,-185.9085 528.3989,-177.3708"/>
<polygon fill="#000000" stroke="#000000" points="531.0392,-175.0629 522.1663,-169.273 525.492,-179.3324 531.0392,-175.0629"/>
</g>
<!-- PStart&#45;&gt;CalculateRefsGeometryModel -->
<g id="edge53" class="edge">
<title>PStart&#45;&gt;CalculateRefsGeometryModel</title>
<path fill="none" stroke="#000000" d="M874.7233,-507.6974C871.8119,-506.3712 868.867,-505.1106 866,-504 832.3674,-490.971 794.3081,-479.5691 761.0642,-470.6418"/>
<polygon fill="#000000" stroke="#000000" points="761.9321,-467.2511 751.369,-468.0713 760.138,-474.0173 761.9321,-467.2511"/>
</g>
<!-- PStart&#45;&gt;PrepareOutput -->
<g id="edge72" class="edge">
<title>PStart&#45;&gt;PrepareOutput</title>
<path fill="none" stroke="#000000" d="M874.8832,-507.2318C871.9406,-505.9964 868.9447,-504.8843 866,-504 737.807,-465.5031 699.8309,-484.4749 567,-468 541.6067,-464.8505 513.6526,-461.2994 489.3779,-458.1887"/>
<polygon fill="#000000" stroke="#000000" points="489.582,-454.6863 479.2178,-456.885 488.691,-461.6294 489.582,-454.6863"/>
</g>
<!-- PStart&#45;&gt;CalculateGlobalAnglesAndDirections -->
<g id="edge80" class="edge">
<title>PStart&#45;&gt;CalculateGlobalAnglesAndDirections</title>
<path fill="none" stroke="#000000" d="M899.2149,-503.7661C893.9155,-472.7041 880.4713,-408.2112 854,-360 848.5603,-350.0928 841.0545,-340.4103 833.637,-332.0428"/>
<polygon fill="#000000" stroke="#000000" points="835.9822,-329.4238 826.6226,-324.459 830.8433,-334.1769 835.9822,-329.4238"/>
</g>
<!-- PStop&#45;&gt;CalculateRefsGeometryModel -->
<g id="edge54" class="edge">
<title>PStop&#45;&gt;CalculateRefsGeometryModel</title>
<path fill="none" stroke="#000000" d="M737.0556,-503.8314C726.9309,-495.0485 714.6223,-484.3712 703.6452,-474.8489"/>
<polygon fill="#000000" stroke="#000000" points="705.7851,-472.0718 695.9377,-468.1628 701.1981,-477.3595 705.7851,-472.0718"/>
</g>
<!-- PStop&#45;&gt;PrepareOutput -->
<g id="edge73" class="edge">
<title>PStop&#45;&gt;PrepareOutput</title>
<path fill="none" stroke="#000000" d="M730.8252,-507.4145C727.894,-506.1435 724.9165,-504.9731 722,-504 679.8211,-489.9264 562.8383,-470.6901 489.1955,-459.3815"/>
<polygon fill="#000000" stroke="#000000" points="489.518,-455.8902 479.1041,-457.8398 488.4608,-462.8099 489.518,-455.8902"/>
</g>
<!-- InputDelP&#45;&gt;CalculateRefsGeometryModel -->
<g id="edge55" class="edge">
<title>InputDelP&#45;&gt;CalculateRefsGeometryModel</title>
<path fill="none" stroke="#000000" d="M547.0838,-505.4817C569.9157,-495.5787 599.2368,-482.8612 624.0453,-472.1008"/>
<polygon fill="#000000" stroke="#000000" points="625.5281,-475.2728 633.3096,-468.0826 622.7426,-468.8509 625.5281,-475.2728"/>
</g>
<!-- InputDelP&#45;&gt;PrepareOutput -->
<g id="edge67" class="edge">
<title>InputDelP&#45;&gt;PrepareOutput</title>
<path fill="none" stroke="#000000" d="M488.0556,-503.8314C477.9309,-495.0485 465.6223,-484.3712 454.6452,-474.8489"/>
<polygon fill="#000000" stroke="#000000" points="456.7851,-472.0718 446.9377,-468.1628 452.1981,-477.3595 456.7851,-472.0718"/>
</g>
<!-- TStart&#45;&gt;CalculateRefsGeometryModel -->
<g id="edge56" class="edge">
<title>TStart&#45;&gt;CalculateRefsGeometryModel</title>
<path fill="none" stroke="#000000" d="M802.9268,-508.3268C799.9227,-506.8504 796.9016,-505.3831 794,-504 771.5221,-493.2851 746.4441,-481.8319 725.1274,-472.2429"/>
<polygon fill="#000000" stroke="#000000" points="726.4882,-469.0174 715.9317,-468.1169 723.6226,-475.4039 726.4882,-469.0174"/>
</g>
<!-- TStart&#45;&gt;PrepareOutput -->
<g id="edge74" class="edge">
<title>TStart&#45;&gt;PrepareOutput</title>
<path fill="none" stroke="#000000" d="M802.8591,-507.31C799.9212,-506.0593 796.933,-504.9223 794,-504 765.5546,-495.0549 586.5721,-470.9051 489.0973,-458.149"/>
<polygon fill="#000000" stroke="#000000" points="489.4343,-454.6633 479.0652,-456.8387 488.5276,-461.6044 489.4343,-454.6633"/>
</g>
<!-- TStart&#45;&gt;CalculateGlobalAnglesAndDirections -->
<g id="edge82" class="edge">
<title>TStart&#45;&gt;CalculateGlobalAnglesAndDirections</title>
<path fill="none" stroke="#000000" d="M836.4043,-503.9971C846.2279,-473.548 862.2602,-410.2861 846,-360 842.8312,-350.2001 837.1468,-340.6831 831.0809,-332.4383"/>
<polygon fill="#000000" stroke="#000000" points="833.6471,-330.0398 824.7108,-324.3483 828.1474,-334.3703 833.6471,-330.0398"/>
</g>
<!-- TStop&#45;&gt;CalculateRefsGeometryModel -->
<g id="edge57" class="edge">
<title>TStop&#45;&gt;CalculateRefsGeometryModel</title>
<path fill="none" stroke="#000000" d="M612.9444,-503.8314C623.0691,-495.0485 635.3777,-484.3712 646.3548,-474.8489"/>
<polygon fill="#000000" stroke="#000000" points="648.8019,-477.3595 654.0623,-468.1628 644.2149,-472.0718 648.8019,-477.3595"/>
</g>
<!-- TStop&#45;&gt;PrepareOutput -->
<g id="edge75" class="edge">
<title>TStop&#45;&gt;PrepareOutput</title>
<path fill="none" stroke="#000000" d="M564.9711,-508.2319C561.9587,-506.7732 558.9235,-505.3361 556,-504 531.6775,-492.8842 504.3963,-481.4051 481.1296,-471.9041"/>
<polygon fill="#000000" stroke="#000000" points="482.3415,-468.6187 471.7596,-468.0959 479.7058,-475.1036 482.3415,-468.6187"/>
</g>
<!-- InputDelT&#45;&gt;CalculateRefsGeometryModel -->
<g id="edge58" class="edge">
<title>InputDelT&#45;&gt;CalculateRefsGeometryModel</title>
<path fill="none" stroke="#000000" d="M675,-503.8314C675,-496.131 675,-486.9743 675,-478.4166"/>
<polygon fill="#000000" stroke="#000000" points="678.5001,-478.4132 675,-468.4133 671.5001,-478.4133 678.5001,-478.4132"/>
</g>
<!-- InputDelT&#45;&gt;PrepareOutput -->
<g id="edge69" class="edge">
<title>InputDelT&#45;&gt;PrepareOutput</title>
<path fill="none" stroke="#000000" d="M637.4135,-507.2081C634.2436,-506.0817 631.0754,-504.997 628,-504 581.9999,-489.088 529.1771,-475.0736 489.0875,-465.0602"/>
<polygon fill="#000000" stroke="#000000" points="489.7301,-461.6136 479.1815,-462.6026 488.0444,-468.4076 489.7301,-461.6136"/>
</g>
<!-- Time&#45;&gt;PrepareOutput -->
<g id="edge61" class="edge">
<title>Time&#45;&gt;PrepareOutput</title>
<path fill="none" stroke="#000000" d="M58.1504,-575.7358C51.9288,-555.6577 46.0582,-523.6485 63,-504 72.7043,-492.7453 261.1087,-469.2092 362.5579,-457.2741"/>
<polygon fill="#000000" stroke="#000000" points="363.1672,-460.7267 372.6918,-456.0864 362.3523,-453.7743 363.1672,-460.7267"/>
</g>
<!-- ProgramName&#45;&gt;PrepareOutput -->
<g id="edge62" class="edge">
<title>ProgramName&#45;&gt;PrepareOutput</title>
<path fill="none" stroke="#000000" d="M114.0078,-575.8267C98.3854,-567.434 82.8657,-555.7491 74,-540 66.1512,-526.0574 63.5793,-516.1412 74,-504 92.5272,-482.4138 266.3458,-463.9554 362.5954,-455.2843"/>
<polygon fill="#000000" stroke="#000000" points="363.1463,-458.7491 372.7963,-454.3757 362.5252,-451.7767 363.1463,-458.7491"/>
</g>
<!-- Corr&#45;&gt;PrepareOutput -->
<g id="edge66" class="edge">
<title>Corr&#45;&gt;PrepareOutput</title>
<path fill="none" stroke="#000000" d="M426,-503.8314C426,-496.131 426,-486.9743 426,-478.4166"/>
<polygon fill="#000000" stroke="#000000" points="429.5001,-478.4132 426,-468.4133 422.5001,-478.4133 429.5001,-478.4132"/>
</g>
<!-- Delstd&#45;&gt;PrepareOutput -->
<g id="edge68" class="edge">
<title>Delstd&#45;&gt;PrepareOutput</title>
<path fill="none" stroke="#000000" d="M371.421,-503.8314C380.1529,-495.219 390.7317,-484.7851 400.2423,-475.4048"/>
<polygon fill="#000000" stroke="#000000" points="402.923,-477.6769 407.5849,-468.1628 398.0075,-472.6931 402.923,-477.6769"/>
</g>
<!-- IP&#45;&gt;CalculateGlobalAnglesAndDirections -->
<g id="edge78" class="edge">
<title>IP&#45;&gt;CalculateGlobalAnglesAndDirections</title>
<path fill="none" stroke="#000000" d="M908.9574,-362.9064C891.4026,-353.1084 868.1829,-340.1486 848.3369,-329.0718"/>
<polygon fill="#000000" stroke="#000000" points="849.9262,-325.9506 839.4884,-324.133 846.5146,-332.063 849.9262,-325.9506"/>
</g>
<!-- IP&#45;&gt;CalculateSphericalCoordinateSystemRadialUnitVector -->
<g id="edge85" class="edge">
<title>IP&#45;&gt;CalculateSphericalCoordinateSystemRadialUnitVector</title>
<path fill="none" stroke="#000000" d="M943.1823,-359.9716C955.0198,-327.2501 974.9594,-256.6929 950,-205 944.3106,-193.2168 934.6622,-183.2163 924.3935,-175.144"/>
<polygon fill="#000000" stroke="#000000" points="926.2307,-172.152 916.089,-169.0865 922.1055,-177.8073 926.2307,-172.152"/>
</g>
<!-- IP&#45;&gt;CalculateIncidentFieldInGlobalCartesianCoordinates -->
<g id="edge90" class="edge">
<title>IP&#45;&gt;CalculateIncidentFieldInGlobalCartesianCoordinates</title>
<path fill="none" stroke="#000000" d="M938.6581,-359.9772C940.7294,-341.4908 942.1867,-312.1095 935,-288 922.497,-246.0556 918.7831,-228.7204 882,-205 864.4006,-193.6506 771.5097,-180.2296 682.5924,-169.6068"/>
<polygon fill="#000000" stroke="#000000" points="682.9559,-166.1255 672.6135,-168.4242 682.1321,-173.0768 682.9559,-166.1255"/>
</g>
<!-- IT&#45;&gt;CalculateGlobalAnglesAndDirections -->
<g id="edge79" class="edge">
<title>IT&#45;&gt;CalculateGlobalAnglesAndDirections</title>
<path fill="none" stroke="#000000" d="M693.1862,-364.1177C712.8096,-354.0972 739.7428,-340.3441 762.4828,-328.7322"/>
<polygon fill="#000000" stroke="#000000" points="764.2988,-331.7348 771.6131,-324.0699 761.1153,-325.5006 764.2988,-331.7348"/>
</g>
<!-- IT&#45;&gt;CalculateSphericalCoordinateSystemRadialUnitVector -->
<g id="edge86" class="edge">
<title>IT&#45;&gt;CalculateSphericalCoordinateSystemRadialUnitVector</title>
<path fill="none" stroke="#000000" d="M664.4991,-359.9815C663.7753,-340.6998 665.2407,-309.9322 679,-288 713.4229,-233.1303 778.7656,-195.0491 826.0375,-173.2064"/>
<polygon fill="#000000" stroke="#000000" points="827.5619,-176.3584 835.2364,-169.0542 824.682,-169.9783 827.5619,-176.3584"/>
</g>
<!-- IT&#45;&gt;CalculateIncidentFieldInGlobalCartesianCoordinates -->
<g id="edge91" class="edge">
<title>IT&#45;&gt;CalculateIncidentFieldInGlobalCartesianCoordinates</title>
<path fill="none" stroke="#000000" d="M658.1511,-359.8623C639.9924,-318.11 595.8093,-217.7924 585,-205 575.1538,-193.3474 562.2216,-183.0578 549.7254,-174.6703"/>
<polygon fill="#000000" stroke="#000000" points="551.4902,-171.6439 541.1872,-169.1742 547.7013,-177.5299 551.4902,-171.6439"/>
</g>
<!-- DelP&#45;&gt;CalculateGlobalAnglesAndDirections -->
<g id="edge81" class="edge">
<title>DelP&#45;&gt;CalculateGlobalAnglesAndDirections</title>
<path fill="none" stroke="#000000" d="M755.4116,-359.8314C763.521,-351.3694 773.3156,-341.1489 782.182,-331.8971"/>
<polygon fill="#000000" stroke="#000000" points="784.9618,-334.0549 789.354,-324.4133 779.9079,-329.2115 784.9618,-334.0549"/>
</g>
<!-- DelT&#45;&gt;CalculateGlobalAnglesAndDirections -->
<g id="edge83" class="edge">
<title>DelT&#45;&gt;CalculateGlobalAnglesAndDirections</title>
<path fill="none" stroke="#000000" d="M809.243,-359.8314C808.9221,-352.131 808.5406,-342.9743 808.184,-334.4166"/>
<polygon fill="#000000" stroke="#000000" points="811.6806,-334.2589 807.7672,-324.4133 804.6867,-334.5503 811.6806,-334.2589"/>
</g>
<!-- D0&#45;&gt;CalculateSphericalCoordinateSystemRadialUnitVector -->
<g id="edge87" class="edge">
<title>D0&#45;&gt;CalculateSphericalCoordinateSystemRadialUnitVector</title>
<path fill="none" stroke="#000000" d="M854.5315,-210.1336C858.9252,-200.675 864.3711,-188.9512 869.2522,-178.4432"/>
<polygon fill="#000000" stroke="#000000" points="872.4911,-179.7784 873.5297,-169.2346 866.1426,-176.8294 872.4911,-179.7784"/>
</g>
<!-- E&#45;&gt;CalculateIncidentFieldInGlobalCartesianCoordinates -->
<g id="edge92" class="edge">
<title>E&#45;&gt;CalculateIncidentFieldInGlobalCartesianCoordinates</title>
<path fill="none" stroke="#000000" d="M618.6893,-212.7613C614.1256,-210.1558 609.4343,-207.4923 605,-205 586.6857,-194.7066 566.3555,-183.4729 548.9811,-173.9304"/>
<polygon fill="#000000" stroke="#000000" points="550.642,-170.8495 540.1912,-169.1084 547.2752,-176.9867 550.642,-170.8495"/>
</g>
<!-- Et&#45;&gt;CalculateIncidentFieldInGlobalCartesianCoordinates -->
<g id="edge93" class="edge">
<title>Et&#45;&gt;CalculateIncidentFieldInGlobalCartesianCoordinates</title>
<path fill="none" stroke="#000000" d="M510.0521,-210.1336C509.5788,-200.9645 508.9957,-189.6668 508.4664,-179.4115"/>
<polygon fill="#000000" stroke="#000000" points="511.952,-179.0409 507.9411,-169.2346 504.9613,-179.4017 511.952,-179.0409"/>
</g>
<!-- Ep&#45;&gt;CalculateIncidentFieldInGlobalCartesianCoordinates -->
<g id="edge94" class="edge">
<title>Ep&#45;&gt;CalculateIncidentFieldInGlobalCartesianCoordinates</title>
<path fill="none" stroke="#000000" d="M455.1151,-210.1336C463.8377,-200.1924 474.7557,-187.749 484.3233,-176.8447"/>
<polygon fill="#000000" stroke="#000000" points="487.0361,-179.0597 491.0006,-169.2346 481.7744,-174.443 487.0361,-179.0597"/>
</g>
<!-- Arguments_input_port -->
<g id="node55" class="node">
<title>Arguments_input_port</title>
<ellipse fill="#ffffff" stroke="#000000" cx="512" cy="-882" rx="7" ry="7"/>
</g>
<!-- Arguments_input_port&#45;&gt;Arguments -->
<g id="edge96" class="edge">
<title>Arguments_input_port&#45;&gt;Arguments</title>
<path fill="none" stroke="#000000" d="M512,-874.5202C512,-868.1405 512,-858.5482 512,-849.2385"/>
<polygon fill="#000000" stroke="#000000" points="515.5001,-849.0338 512,-839.0338 508.5001,-849.0339 515.5001,-849.0338"/>
</g>
<!-- CoordinatesFile_input_port -->
<g id="node56" class="node">
<title>CoordinatesFile_input_port</title>
<ellipse fill="#ffffff" stroke="#000000" cx="7" cy="-749" rx="7" ry="7"/>
</g>
<!-- CoordinatesFile_input_port&#45;&gt;CoordinatesFile -->
<g id="edge97" class="edge">
<title>CoordinatesFile_input_port&#45;&gt;CoordinatesFile</title>
<path fill="none" stroke="#000000" d="M11.284,-743.1804C14.7402,-738.9836 20.0022,-733.6152 26,-731 140.7143,-680.9814 463.4213,-706.8908 588,-695 611.6888,-692.7389 637.0249,-689.8391 661.1098,-686.8536"/>
<polygon fill="#000000" stroke="#000000" points="661.8597,-690.2871 671.3468,-685.5705 660.9891,-683.3414 661.8597,-690.2871"/>
</g>
<!-- FacetsFile_input_port -->
<g id="node57" class="node">
<title>FacetsFile_input_port</title>
<ellipse fill="#ffffff" stroke="#000000" cx="1478" cy="-749" rx="7" ry="7"/>
</g>
<!-- FacetsFile_input_port&#45;&gt;FacetsFile -->
<g id="edge98" class="edge">
<title>FacetsFile_input_port&#45;&gt;FacetsFile</title>
<path fill="none" stroke="#000000" d="M1473.7693,-743.0625C1470.8111,-739.2372 1466.5819,-734.3676 1462,-731 1444.6892,-718.2769 1424.2248,-707.4175 1404.6418,-698.5953"/>
<polygon fill="#000000" stroke="#000000" points="1405.9843,-695.3624 1395.4201,-694.5578 1403.1768,-701.7747 1405.9843,-695.3624"/>
</g>
<!-- InputDataFile_input_port -->
<g id="node58" class="node">
<title>InputDataFile_input_port</title>
<ellipse fill="#ffffff" stroke="#000000" cx="1446" cy="-749" rx="7" ry="7"/>
</g>
<!-- InputDataFile_input_port&#45;&gt;InputDataFile -->
<g id="edge99" class="edge">
<title>InputDataFile_input_port&#45;&gt;InputDataFile</title>
<path fill="none" stroke="#000000" d="M1441.6884,-743.2421C1438.2178,-739.0776 1432.9498,-733.7226 1427,-731 1281.1861,-664.2747 1225.9061,-722.9217 1068,-695 1067.8985,-694.9821 1067.797,-694.9641 1067.6955,-694.946"/>
<polygon fill="#000000" stroke="#000000" points="1068.6031,-691.5559 1058.1256,-693.1284 1067.2969,-698.433 1068.6031,-691.5559"/>
</g>
</g>
</svg>
