<?xml version="1.0" encoding="UTF-8" standalone="no"?>
<!DOCTYPE svg PUBLIC "-//W3C//DTD SVG 1.1//EN"
 "http://www.w3.org/Graphics/SVG/1.1/DTD/svg11.dtd">
<!-- Generated by graphviz version 2.40.1 (20161225.0304)
 -->
<!-- Title: dependency Pages: 1 -->
<svg width="1556pt" height="1502pt"
 viewBox="0.00 0.00 1556.00 1502.00" xmlns="http://www.w3.org/2000/svg" xmlns:xlink="http://www.w3.org/1999/xlink">
<g id="graph0" class="graph" transform="scale(1 1) rotate(0) translate(4 1498)">
<title>dependency</title>
<polygon fill="#ffffff" stroke="transparent" points="-4,4 -4,-1498 1552,-1498 1552,4 -4,4"/>
<!-- a_1 -->
<g id="node1" class="node">
<title>a_1</title>
<path fill="#ffffff" stroke="#000000" d="M191,-279C191,-279 12,-279 12,-279 6,-279 0,-273 0,-267 0,-267 0,-255 0,-255 0,-249 6,-243 12,-243 12,-243 191,-243 191,-243 197,-243 203,-249 203,-255 203,-255 203,-267 203,-267 203,-273 197,-279 191,-279"/>
<text text-anchor="middle" x="101.5" y="-256" font-family="Times,serif" font-size="20.00" fill="#000000">input_data_file_002.dat</text>
</g>
<!-- v_1_208 -->
<g id="node2" class="node">
<title>v_1_208</title>
<polygon fill="#3a85b9" stroke="#000000" points="459,-279 264,-279 264,-243 459,-243 459,-279"/>
<text text-anchor="middle" x="361.5" y="-256" font-family="Times,serif" font-size="20.00" fill="#ffffff">176 read_param_input</text>
</g>
<!-- v_1_208&#45;&gt;a_1 -->
<g id="edge6" class="edge">
<title>v_1_208&#45;&gt;a_1</title>
<path fill="none" stroke="#000000" stroke-dasharray="5,2" d="M263.9459,-261C247.4786,-261 230.2694,-261 213.4698,-261"/>
<polygon fill="#000000" stroke="#000000" points="213.0729,-257.5001 203.0729,-261 213.0729,-264.5001 213.0729,-257.5001"/>
</g>
<!-- v_1_33 -->
<g id="node3" class="node">
<title>v_1_33</title>
<path fill="#85cbd0" stroke="#000000" d="M1375,-576C1375,-576 1229,-576 1229,-576 1223,-576 1217,-570 1217,-564 1217,-564 1217,-552 1217,-552 1217,-546 1223,-540 1229,-540 1229,-540 1375,-540 1375,-540 1381,-540 1387,-546 1387,-552 1387,-552 1387,-564 1387,-564 1387,-570 1381,-576 1375,-576"/>
<text text-anchor="middle" x="1302" y="-553" font-family="Times,serif" font-size="20.00" fill="#000000">174 input_data_file</text>
</g>
<!-- v_1_209 -->
<g id="node4" class="node">
<title>v_1_209</title>
<path fill="#85cbd0" stroke="#000000" d="M606.5,-522C606.5,-522 532.5,-522 532.5,-522 526.5,-522 520.5,-516 520.5,-510 520.5,-510 520.5,-498 520.5,-498 520.5,-492 526.5,-486 532.5,-486 532.5,-486 606.5,-486 606.5,-486 612.5,-486 618.5,-492 618.5,-498 618.5,-498 618.5,-510 618.5,-510 618.5,-516 612.5,-522 606.5,-522"/>
<text text-anchor="middle" x="569.5" y="-499" font-family="Times,serif" font-size="20.00" fill="#000000">176 delstd</text>
</g>
<!-- v_1_209&#45;&gt;v_1_208 -->
<g id="edge16" class="edge">
<title>v_1_209&#45;&gt;v_1_208</title>
<path fill="none" stroke="#000000" d="M532.0844,-485.9466C527.8179,-483.2154 523.6844,-480.222 520,-477 455.0867,-420.2333 401.0655,-332.4019 376.2055,-288.2728"/>
<polygon fill="#000000" stroke="#000000" points="379.131,-286.332 371.2113,-279.2943 373.0136,-289.7347 379.131,-286.332"/>
</g>
<!-- v_1_210 -->
<g id="node5" class="node">
<title>v_1_210</title>
<path fill="#85cbd0" stroke="#000000" d="M598,-468C598,-468 541,-468 541,-468 535,-468 529,-462 529,-456 529,-456 529,-444 529,-444 529,-438 535,-432 541,-432 541,-432 598,-432 598,-432 604,-432 610,-438 610,-444 610,-444 610,-456 610,-456 610,-462 604,-468 598,-468"/>
<text text-anchor="middle" x="569.5" y="-445" font-family="Times,serif" font-size="20.00" fill="#000000">176 ipol</text>
</g>
<!-- v_1_210&#45;&gt;v_1_208 -->
<g id="edge44" class="edge">
<title>v_1_210&#45;&gt;v_1_208</title>
<path fill="none" stroke="#000000" d="M533.2906,-431.8987C528.6827,-429.1226 524.137,-426.1309 520,-423 465.1886,-381.5193 411.3748,-321.2125 382.7213,-287.0901"/>
<polygon fill="#000000" stroke="#000000" points="385.0806,-284.4536 375.9933,-279.0064 379.7003,-288.9316 385.0806,-284.4536"/>
</g>
<!-- v_1_211 -->
<g id="node6" class="node">
<title>v_1_211</title>
<path fill="#85cbd0" stroke="#000000" d="M602.5,-414C602.5,-414 536.5,-414 536.5,-414 530.5,-414 524.5,-408 524.5,-402 524.5,-402 524.5,-390 524.5,-390 524.5,-384 530.5,-378 536.5,-378 536.5,-378 602.5,-378 602.5,-378 608.5,-378 614.5,-384 614.5,-390 614.5,-390 614.5,-402 614.5,-402 614.5,-408 608.5,-414 602.5,-414"/>
<text text-anchor="middle" x="569.5" y="-391" font-family="Times,serif" font-size="20.00" fill="#000000">176 tstart</text>
</g>
<!-- v_1_211&#45;&gt;v_1_208 -->
<g id="edge29" class="edge">
<title>v_1_211&#45;&gt;v_1_208</title>
<path fill="none" stroke="#000000" d="M535.4298,-377.9933C530.2131,-375.0707 524.9276,-372.0126 520,-369 475.7245,-341.9314 426.6149,-307.7942 394.9661,-285.2269"/>
<polygon fill="#000000" stroke="#000000" points="396.6903,-282.1569 386.5211,-279.184 392.6168,-287.8496 396.6903,-282.1569"/>
</g>
<!-- v_1_212 -->
<g id="node7" class="node">
<title>v_1_212</title>
<path fill="#85cbd0" stroke="#000000" d="M605,-360C605,-360 534,-360 534,-360 528,-360 522,-354 522,-348 522,-348 522,-336 522,-336 522,-330 528,-324 534,-324 534,-324 605,-324 605,-324 611,-324 617,-330 617,-336 617,-336 617,-348 617,-348 617,-354 611,-360 605,-360"/>
<text text-anchor="middle" x="569.5" y="-337" font-family="Times,serif" font-size="20.00" fill="#000000">176 pstart</text>
</g>
<!-- v_1_212&#45;&gt;v_1_208 -->
<g id="edge46" class="edge">
<title>v_1_212&#45;&gt;v_1_208</title>
<path fill="none" stroke="#000000" d="M523.0796,-323.9228C491.8041,-311.7434 450.3838,-295.6134 417.3108,-282.734"/>
<polygon fill="#000000" stroke="#000000" points="418.3669,-279.3893 407.7785,-279.0219 415.8268,-285.9122 418.3669,-279.3893"/>
</g>
<!-- v_1_213 -->
<g id="node8" class="node">
<title>v_1_213</title>
<path fill="#85cbd0" stroke="#000000" d="M600,-306C600,-306 539,-306 539,-306 533,-306 527,-300 527,-294 527,-294 527,-282 527,-282 527,-276 533,-270 539,-270 539,-270 600,-270 600,-270 606,-270 612,-276 612,-282 612,-282 612,-294 612,-294 612,-300 606,-306 600,-306"/>
<text text-anchor="middle" x="569.5" y="-283" font-family="Times,serif" font-size="20.00" fill="#000000">176 delp</text>
</g>
<!-- v_1_213&#45;&gt;v_1_208 -->
<g id="edge39" class="edge">
<title>v_1_213&#45;&gt;v_1_208</title>
<path fill="none" stroke="#000000" d="M526.9062,-282.471C510.0531,-280.2833 489.8482,-277.6606 469.4407,-275.0115"/>
<polygon fill="#000000" stroke="#000000" points="469.7874,-271.5273 459.42,-273.7108 468.8863,-278.469 469.7874,-271.5273"/>
</g>
<!-- v_1_214 -->
<g id="node9" class="node">
<title>v_1_214</title>
<path fill="#85cbd0" stroke="#000000" d="M597.5,-252C597.5,-252 541.5,-252 541.5,-252 535.5,-252 529.5,-246 529.5,-240 529.5,-240 529.5,-228 529.5,-228 529.5,-222 535.5,-216 541.5,-216 541.5,-216 597.5,-216 597.5,-216 603.5,-216 609.5,-222 609.5,-228 609.5,-228 609.5,-240 609.5,-240 609.5,-246 603.5,-252 597.5,-252"/>
<text text-anchor="middle" x="569.5" y="-229" font-family="Times,serif" font-size="20.00" fill="#000000">176 delt</text>
</g>
<!-- v_1_214&#45;&gt;v_1_208 -->
<g id="edge3" class="edge">
<title>v_1_214&#45;&gt;v_1_208</title>
<path fill="none" stroke="#000000" d="M529.3955,-239.2059C512.0705,-241.4548 490.8831,-244.2051 469.4709,-246.9845"/>
<polygon fill="#000000" stroke="#000000" points="468.7615,-243.5472 459.2953,-248.3054 469.6626,-250.4889 468.7615,-243.5472"/>
</g>
<!-- v_1_215 -->
<g id="node10" class="node">
<title>v_1_215</title>
<path fill="#85cbd0" stroke="#000000" d="M599,-90C599,-90 540,-90 540,-90 534,-90 528,-84 528,-78 528,-78 528,-66 528,-66 528,-60 534,-54 540,-54 540,-54 599,-54 599,-54 605,-54 611,-60 611,-66 611,-66 611,-78 611,-78 611,-84 605,-90 599,-90"/>
<text text-anchor="middle" x="569.5" y="-67" font-family="Times,serif" font-size="20.00" fill="#000000">176 corr</text>
</g>
<!-- v_1_215&#45;&gt;v_1_208 -->
<g id="edge45" class="edge">
<title>v_1_215&#45;&gt;v_1_208</title>
<path fill="none" stroke="#000000" d="M533.2906,-90.1013C528.6827,-92.8774 524.137,-95.8691 520,-99 465.1886,-140.4807 411.3748,-200.7875 382.7213,-234.9099"/>
<polygon fill="#000000" stroke="#000000" points="379.7003,-233.0684 375.9933,-242.9936 385.0806,-237.5464 379.7003,-233.0684"/>
</g>
<!-- v_1_216 -->
<g id="node11" class="node">
<title>v_1_216</title>
<path fill="#85cbd0" stroke="#000000" d="M602,-198C602,-198 537,-198 537,-198 531,-198 525,-192 525,-186 525,-186 525,-174 525,-174 525,-168 531,-162 537,-162 537,-162 602,-162 602,-162 608,-162 614,-168 614,-174 614,-174 614,-186 614,-186 614,-192 608,-198 602,-198"/>
<text text-anchor="middle" x="569.5" y="-175" font-family="Times,serif" font-size="20.00" fill="#000000">176 tstop</text>
</g>
<!-- v_1_216&#45;&gt;v_1_208 -->
<g id="edge20" class="edge">
<title>v_1_216&#45;&gt;v_1_208</title>
<path fill="none" stroke="#000000" d="M524.8788,-197.3765C493.4804,-209.6038 451.2228,-226.0599 417.5506,-239.1726"/>
<polygon fill="#000000" stroke="#000000" points="415.8969,-236.0605 407.8486,-242.9508 418.4371,-242.5833 415.8969,-236.0605"/>
</g>
<!-- v_1_217 -->
<g id="node12" class="node">
<title>v_1_217</title>
<path fill="#85cbd0" stroke="#000000" d="M599,-36C599,-36 540,-36 540,-36 534,-36 528,-30 528,-24 528,-24 528,-12 528,-12 528,-6 534,0 540,0 540,0 599,0 599,0 605,0 611,-6 611,-12 611,-12 611,-24 611,-24 611,-30 605,-36 599,-36"/>
<text text-anchor="middle" x="569.5" y="-13" font-family="Times,serif" font-size="20.00" fill="#000000">176 freq</text>
</g>
<!-- v_1_217&#45;&gt;v_1_208 -->
<g id="edge13" class="edge">
<title>v_1_217&#45;&gt;v_1_208</title>
<path fill="none" stroke="#000000" d="M532.0844,-36.0534C527.8179,-38.7846 523.6844,-41.778 520,-45 455.0867,-101.7667 401.0655,-189.5981 376.2055,-233.7272"/>
<polygon fill="#000000" stroke="#000000" points="373.0136,-232.2653 371.2113,-242.7057 379.131,-235.668 373.0136,-232.2653"/>
</g>
<!-- v_1_218 -->
<g id="node13" class="node">
<title>v_1_218</title>
<path fill="#85cbd0" stroke="#000000" d="M604,-144C604,-144 535,-144 535,-144 529,-144 523,-138 523,-132 523,-132 523,-120 523,-120 523,-114 529,-108 535,-108 535,-108 604,-108 604,-108 610,-108 616,-114 616,-120 616,-120 616,-132 616,-132 616,-138 610,-144 604,-144"/>
<text text-anchor="middle" x="569.5" y="-121" font-family="Times,serif" font-size="20.00" fill="#000000">176 pstop</text>
</g>
<!-- v_1_218&#45;&gt;v_1_208 -->
<g id="edge12" class="edge">
<title>v_1_218&#45;&gt;v_1_208</title>
<path fill="none" stroke="#000000" d="M535.4298,-144.0067C530.2131,-146.9293 524.9276,-149.9874 520,-153 475.7245,-180.0686 426.6149,-214.2058 394.9661,-236.7731"/>
<polygon fill="#000000" stroke="#000000" points="392.6168,-234.1504 386.5211,-242.816 396.6903,-239.8431 392.6168,-234.1504"/>
</g>
<!-- v_1_224 -->
<g id="node14" class="node">
<title>v_1_224</title>
<polygon fill="#3a85b9" stroke="#000000" points="948.5,-36 726.5,-36 726.5,0 948.5,0 948.5,-36"/>
<text text-anchor="middle" x="837.5" y="-13" font-family="Times,serif" font-size="20.00" fill="#ffffff">178 calculate_wavelength</text>
</g>
<!-- v_1_224&#45;&gt;v_1_217 -->
<g id="edge42" class="edge">
<title>v_1_224&#45;&gt;v_1_217</title>
<path fill="none" stroke="#000000" stroke-dasharray="5,2" d="M726.1721,-18C689.7653,-18 651.0589,-18 621.2271,-18"/>
<polygon fill="#000000" stroke="#000000" points="621.0638,-14.5001 611.0637,-18 621.0637,-21.5001 621.0638,-14.5001"/>
</g>
<!-- v_1_225 -->
<g id="node15" class="node">
<title>v_1_225</title>
<path fill="#85cbd0" stroke="#000000" d="M1342.5,-36C1342.5,-36 1261.5,-36 1261.5,-36 1255.5,-36 1249.5,-30 1249.5,-24 1249.5,-24 1249.5,-12 1249.5,-12 1249.5,-6 1255.5,0 1261.5,0 1261.5,0 1342.5,0 1342.5,0 1348.5,0 1354.5,-6 1354.5,-12 1354.5,-12 1354.5,-24 1354.5,-24 1354.5,-30 1348.5,-36 1342.5,-36"/>
<text text-anchor="middle" x="1302" y="-13" font-family="Times,serif" font-size="20.00" fill="#000000">178 waveL</text>
</g>
<!-- v_1_225&#45;&gt;v_1_224 -->
<g id="edge34" class="edge">
<title>v_1_225&#45;&gt;v_1_224</title>
<path fill="none" stroke="#000000" d="M1249.1682,-18C1179.0792,-18 1053.2504,-18 959.0907,-18"/>
<polygon fill="#000000" stroke="#000000" points="958.9284,-14.5001 948.9284,-18 958.9283,-21.5001 958.9284,-14.5001"/>
</g>
<!-- v_1_232 -->
<g id="node16" class="node">
<title>v_1_232</title>
<polygon fill="#3a85b9" stroke="#000000" points="1012.5,-468 662.5,-468 662.5,-432 1012.5,-432 1012.5,-468"/>
<text text-anchor="middle" x="837.5" y="-445" font-family="Times,serif" font-size="20.00" fill="#ffffff">180 calculate_incident_wave_polarization</text>
</g>
<!-- v_1_232&#45;&gt;v_1_210 -->
<g id="edge4" class="edge">
<title>v_1_232&#45;&gt;v_1_210</title>
<path fill="none" stroke="#000000" stroke-dasharray="5,2" d="M662.4813,-450C647.4281,-450 633.1393,-450 620.4813,-450"/>
<polygon fill="#000000" stroke="#000000" points="620.2513,-446.5001 610.2512,-450 620.2512,-453.5001 620.2513,-446.5001"/>
</g>
<!-- v_1_233 -->
<g id="node17" class="node">
<title>v_1_233</title>
<path fill="#85cbd0" stroke="#000000" d="M1322.5,-481C1322.5,-481 1281.5,-481 1281.5,-481 1275.5,-481 1269.5,-475 1269.5,-469 1269.5,-469 1269.5,-457 1269.5,-457 1269.5,-451 1275.5,-445 1281.5,-445 1281.5,-445 1322.5,-445 1322.5,-445 1328.5,-445 1334.5,-451 1334.5,-457 1334.5,-457 1334.5,-469 1334.5,-469 1334.5,-475 1328.5,-481 1322.5,-481"/>
<text text-anchor="middle" x="1302" y="-458" font-family="Times,serif" font-size="20.00" fill="#000000">180 et</text>
</g>
<!-- v_1_233&#45;&gt;v_1_232 -->
<g id="edge14" class="edge">
<title>v_1_233&#45;&gt;v_1_232</title>
<path fill="none" stroke="#000000" d="M1269.3373,-462.0859C1218.1315,-460.6528 1115.2357,-457.773 1022.728,-455.184"/>
<polygon fill="#000000" stroke="#000000" points="1022.7542,-451.6835 1012.6602,-454.9022 1022.5583,-458.6807 1022.7542,-451.6835"/>
</g>
<!-- v_1_234 -->
<g id="node18" class="node">
<title>v_1_234</title>
<path fill="#85cbd0" stroke="#000000" d="M1325,-427C1325,-427 1279,-427 1279,-427 1273,-427 1267,-421 1267,-415 1267,-415 1267,-403 1267,-403 1267,-397 1273,-391 1279,-391 1279,-391 1325,-391 1325,-391 1331,-391 1337,-397 1337,-403 1337,-403 1337,-415 1337,-415 1337,-421 1331,-427 1325,-427"/>
<text text-anchor="middle" x="1302" y="-404" font-family="Times,serif" font-size="20.00" fill="#000000">180 ep</text>
</g>
<!-- v_1_234&#45;&gt;v_1_232 -->
<g id="edge18" class="edge">
<title>v_1_234&#45;&gt;v_1_232</title>
<path fill="none" stroke="#000000" d="M1266.7058,-412.1153C1214.6692,-416.7084 1113.683,-425.6222 1022.7356,-433.6498"/>
<polygon fill="#000000" stroke="#000000" points="1022.2064,-430.1828 1012.5529,-434.5486 1022.822,-437.1557 1022.2064,-430.1828"/>
</g>
<!-- a_2 -->
<g id="node19" class="node">
<title>a_2</title>
<path fill="#ffffff" stroke="#000000" d="M177.5,-684C177.5,-684 25.5,-684 25.5,-684 19.5,-684 13.5,-678 13.5,-672 13.5,-672 13.5,-660 13.5,-660 13.5,-654 19.5,-648 25.5,-648 25.5,-648 177.5,-648 177.5,-648 183.5,-648 189.5,-654 189.5,-660 189.5,-660 189.5,-672 189.5,-672 189.5,-678 183.5,-684 177.5,-684"/>
<text text-anchor="middle" x="101.5" y="-661" font-family="Times,serif" font-size="20.00" fill="#000000">BOX/coordinates.m</text>
</g>
<!-- v_1_259 -->
<g id="node20" class="node">
<title>v_1_259</title>
<polygon fill="#3a85b9" stroke="#000000" points="484,-684 239,-684 239,-648 484,-648 484,-684"/>
<text text-anchor="middle" x="361.5" y="-661" font-family="Times,serif" font-size="20.00" fill="#ffffff">184 read_model_coordinates</text>
</g>
<!-- v_1_259&#45;&gt;a_2 -->
<g id="edge50" class="edge">
<title>v_1_259&#45;&gt;a_2</title>
<path fill="none" stroke="#000000" stroke-dasharray="5,2" d="M238.733,-666C225.6607,-666 212.4906,-666 199.7536,-666"/>
<polygon fill="#000000" stroke="#000000" points="199.6418,-662.5001 189.6417,-666 199.6417,-669.5001 199.6418,-662.5001"/>
</g>
<!-- v_1_235 -->
<g id="node21" class="node">
<title>v_1_235</title>
<path fill="#85cbd0" stroke="#000000" d="M164.5,-738C164.5,-738 38.5,-738 38.5,-738 32.5,-738 26.5,-732 26.5,-726 26.5,-726 26.5,-714 26.5,-714 26.5,-708 32.5,-702 38.5,-702 38.5,-702 164.5,-702 164.5,-702 170.5,-702 176.5,-708 176.5,-714 176.5,-714 176.5,-726 176.5,-726 176.5,-732 170.5,-738 164.5,-738"/>
<text text-anchor="middle" x="101.5" y="-715" font-family="Times,serif" font-size="20.00" fill="#000000">182 input_model</text>
</g>
<!-- v_1_259&#45;&gt;v_1_235 -->
<g id="edge31" class="edge">
<title>v_1_259&#45;&gt;v_1_235</title>
<path fill="none" stroke="#000000" stroke-dasharray="5,2" d="M274.5623,-684.0563C246.1705,-689.9531 214.6893,-696.4914 186.4459,-702.3574"/>
<polygon fill="#000000" stroke="#000000" points="185.6805,-698.9416 176.6012,-704.4021 187.104,-705.7953 185.6805,-698.9416"/>
</g>
<!-- v_1_260 -->
<g id="node22" class="node">
<title>v_1_260</title>
<path fill="#85cbd0" stroke="#000000" d="M599,-738C599,-738 540,-738 540,-738 534,-738 528,-732 528,-726 528,-726 528,-714 528,-714 528,-708 534,-702 540,-702 540,-702 599,-702 599,-702 605,-702 611,-708 611,-714 611,-714 611,-726 611,-726 611,-732 605,-738 599,-738"/>
<text text-anchor="middle" x="569.5" y="-715" font-family="Times,serif" font-size="20.00" fill="#000000">184 ypts</text>
</g>
<!-- v_1_260&#45;&gt;v_1_259 -->
<g id="edge47" class="edge">
<title>v_1_260&#45;&gt;v_1_259</title>
<path fill="none" stroke="#000000" d="M527.908,-709.2021C502.9839,-702.7314 470.4711,-694.2906 440.804,-686.5885"/>
<polygon fill="#000000" stroke="#000000" points="441.4258,-683.134 430.8671,-684.0088 439.6668,-689.9094 441.4258,-683.134"/>
</g>
<!-- v_1_261 -->
<g id="node23" class="node">
<title>v_1_261</title>
<path fill="#85cbd0" stroke="#000000" d="M607,-684C607,-684 532,-684 532,-684 526,-684 520,-678 520,-672 520,-672 520,-660 520,-660 520,-654 526,-648 532,-648 532,-648 607,-648 607,-648 613,-648 619,-654 619,-660 619,-660 619,-672 619,-672 619,-678 613,-684 607,-684"/>
<text text-anchor="middle" x="569.5" y="-661" font-family="Times,serif" font-size="20.00" fill="#000000">184 nverts</text>
</g>
<!-- v_1_261&#45;&gt;v_1_259 -->
<g id="edge27" class="edge">
<title>v_1_261&#45;&gt;v_1_259</title>
<path fill="none" stroke="#000000" d="M519.9431,-666C511.9111,-666 503.2758,-666 494.3316,-666"/>
<polygon fill="#000000" stroke="#000000" points="494.1177,-662.5001 484.1177,-666 494.1176,-669.5001 494.1177,-662.5001"/>
</g>
<!-- v_1_262 -->
<g id="node24" class="node">
<title>v_1_262</title>
<path fill="#85cbd0" stroke="#000000" d="M599,-630C599,-630 540,-630 540,-630 534,-630 528,-624 528,-618 528,-618 528,-606 528,-606 528,-600 534,-594 540,-594 540,-594 599,-594 599,-594 605,-594 611,-600 611,-606 611,-606 611,-618 611,-618 611,-624 605,-630 599,-630"/>
<text text-anchor="middle" x="569.5" y="-607" font-family="Times,serif" font-size="20.00" fill="#000000">184 xpts</text>
</g>
<!-- v_1_262&#45;&gt;v_1_259 -->
<g id="edge8" class="edge">
<title>v_1_262&#45;&gt;v_1_259</title>
<path fill="none" stroke="#000000" d="M527.908,-622.7979C502.9839,-629.2686 470.4711,-637.7094 440.804,-645.4115"/>
<polygon fill="#000000" stroke="#000000" points="439.6668,-642.0906 430.8671,-647.9912 441.4258,-648.866 439.6668,-642.0906"/>
</g>
<!-- v_1_263 -->
<g id="node25" class="node">
<title>v_1_263</title>
<path fill="#85cbd0" stroke="#000000" d="M599,-576C599,-576 540,-576 540,-576 534,-576 528,-570 528,-564 528,-564 528,-552 528,-552 528,-546 534,-540 540,-540 540,-540 599,-540 599,-540 605,-540 611,-546 611,-552 611,-552 611,-564 611,-564 611,-570 605,-576 599,-576"/>
<text text-anchor="middle" x="569.5" y="-553" font-family="Times,serif" font-size="20.00" fill="#000000">184 zpts</text>
</g>
<!-- v_1_263&#45;&gt;v_1_259 -->
<g id="edge21" class="edge">
<title>v_1_263&#45;&gt;v_1_259</title>
<path fill="none" stroke="#000000" d="M534.6855,-576.0768C499.1395,-594.5333 443.8594,-623.2365 405.3482,-643.2327"/>
<polygon fill="#000000" stroke="#000000" points="403.6902,-640.1498 396.4281,-647.8643 406.9159,-646.3623 403.6902,-640.1498"/>
</g>
<!-- a_4 -->
<g id="node26" class="node">
<title>a_4</title>
<path fill="#ffffff" stroke="#000000" d="M155,-792C155,-792 48,-792 48,-792 42,-792 36,-786 36,-780 36,-780 36,-768 36,-768 36,-762 42,-756 48,-756 48,-756 155,-756 155,-756 161,-756 167,-762 167,-768 167,-768 167,-780 167,-780 167,-786 161,-792 155,-792"/>
<text text-anchor="middle" x="101.5" y="-769" font-family="Times,serif" font-size="20.00" fill="#000000">BOX/facets.m</text>
</g>
<!-- v_1_278 -->
<g id="node27" class="node">
<title>v_1_278</title>
<polygon fill="#3a85b9" stroke="#000000" points="462,-792 261,-792 261,-756 462,-756 462,-792"/>
<text text-anchor="middle" x="361.5" y="-769" font-family="Times,serif" font-size="20.00" fill="#ffffff">186 read_facets_model</text>
</g>
<!-- v_1_278&#45;&gt;v_1_235 -->
<g id="edge53" class="edge">
<title>v_1_278&#45;&gt;v_1_235</title>
<path fill="none" stroke="#000000" stroke-dasharray="5,2" d="M274.5623,-755.9437C246.1705,-750.0469 214.6893,-743.5086 186.4459,-737.6426"/>
<polygon fill="#000000" stroke="#000000" points="187.104,-734.2047 176.6012,-735.5979 185.6805,-741.0584 187.104,-734.2047"/>
</g>
<!-- v_1_278&#45;&gt;a_4 -->
<g id="edge15" class="edge">
<title>v_1_278&#45;&gt;a_4</title>
<path fill="none" stroke="#000000" stroke-dasharray="5,2" d="M260.9772,-774C233.2237,-774 203.578,-774 177.4693,-774"/>
<polygon fill="#000000" stroke="#000000" points="177.2718,-770.5001 167.2717,-774 177.2717,-777.5001 177.2718,-770.5001"/>
</g>
<!-- v_1_279 -->
<g id="node28" class="node">
<title>v_1_279</title>
<path fill="#85cbd0" stroke="#000000" d="M606.5,-792C606.5,-792 532.5,-792 532.5,-792 526.5,-792 520.5,-786 520.5,-780 520.5,-780 520.5,-768 520.5,-768 520.5,-762 526.5,-756 532.5,-756 532.5,-756 606.5,-756 606.5,-756 612.5,-756 618.5,-762 618.5,-768 618.5,-768 618.5,-780 618.5,-780 618.5,-786 612.5,-792 606.5,-792"/>
<text text-anchor="middle" x="569.5" y="-769" font-family="Times,serif" font-size="20.00" fill="#000000">186 facets</text>
</g>
<!-- v_1_279&#45;&gt;v_1_278 -->
<g id="edge38" class="edge">
<title>v_1_279&#45;&gt;v_1_278</title>
<path fill="none" stroke="#000000" d="M520.4703,-774C505.9488,-774 489.4208,-774 472.6437,-774"/>
<polygon fill="#000000" stroke="#000000" points="472.1811,-770.5001 462.1811,-774 472.181,-777.5001 472.1811,-770.5001"/>
</g>
<!-- v_1_287 -->
<g id="node29" class="node">
<title>v_1_287</title>
<polygon fill="#3a85b9" stroke="#000000" points="969.5,-792 705.5,-792 705.5,-756 969.5,-756 969.5,-792"/>
<text text-anchor="middle" x="837.5" y="-769" font-family="Times,serif" font-size="20.00" fill="#ffffff">188 generate_transpose_matrix</text>
</g>
<!-- v_1_287&#45;&gt;v_1_279 -->
<g id="edge24" class="edge">
<title>v_1_287&#45;&gt;v_1_279</title>
<path fill="none" stroke="#000000" stroke-dasharray="5,2" d="M705.4628,-774C678.5373,-774 651.506,-774 628.7189,-774"/>
<polygon fill="#000000" stroke="#000000" points="628.5634,-770.5001 618.5634,-774 628.5633,-777.5001 628.5634,-770.5001"/>
</g>
<!-- v_1_288 -->
<g id="node30" class="node">
<title>v_1_288</title>
<path fill="#85cbd0" stroke="#000000" d="M1339.5,-846C1339.5,-846 1264.5,-846 1264.5,-846 1258.5,-846 1252.5,-840 1252.5,-834 1252.5,-834 1252.5,-822 1252.5,-822 1252.5,-816 1258.5,-810 1264.5,-810 1264.5,-810 1339.5,-810 1339.5,-810 1345.5,-810 1351.5,-816 1351.5,-822 1351.5,-822 1351.5,-834 1351.5,-834 1351.5,-840 1345.5,-846 1339.5,-846"/>
<text text-anchor="middle" x="1302" y="-823" font-family="Times,serif" font-size="20.00" fill="#000000">188 node1</text>
</g>
<!-- v_1_288&#45;&gt;v_1_287 -->
<g id="edge43" class="edge">
<title>v_1_288&#45;&gt;v_1_287</title>
<path fill="none" stroke="#000000" d="M1252.0353,-822.7178C1202.3169,-817.414 1123.8539,-808.9157 1056,-801 1031.3657,-798.1262 1005.1819,-794.9747 979.8167,-791.8707"/>
<polygon fill="#000000" stroke="#000000" points="980.1161,-788.3813 969.7644,-790.638 979.2639,-795.3293 980.1161,-788.3813"/>
</g>
<!-- v_1_289 -->
<g id="node31" class="node">
<title>v_1_289</title>
<path fill="#85cbd0" stroke="#000000" d="M1339.5,-792C1339.5,-792 1264.5,-792 1264.5,-792 1258.5,-792 1252.5,-786 1252.5,-780 1252.5,-780 1252.5,-768 1252.5,-768 1252.5,-762 1258.5,-756 1264.5,-756 1264.5,-756 1339.5,-756 1339.5,-756 1345.5,-756 1351.5,-762 1351.5,-768 1351.5,-768 1351.5,-780 1351.5,-780 1351.5,-786 1345.5,-792 1339.5,-792"/>
<text text-anchor="middle" x="1302" y="-769" font-family="Times,serif" font-size="20.00" fill="#000000">188 node3</text>
</g>
<!-- v_1_289&#45;&gt;v_1_287 -->
<g id="edge22" class="edge">
<title>v_1_289&#45;&gt;v_1_287</title>
<path fill="none" stroke="#000000" d="M1252.2904,-774C1187.8211,-774 1072.6579,-774 980.01,-774"/>
<polygon fill="#000000" stroke="#000000" points="979.9758,-770.5001 969.9757,-774 979.9757,-777.5001 979.9758,-770.5001"/>
</g>
<!-- v_1_290 -->
<g id="node32" class="node">
<title>v_1_290</title>
<path fill="#85cbd0" stroke="#000000" d="M1339.5,-738C1339.5,-738 1264.5,-738 1264.5,-738 1258.5,-738 1252.5,-732 1252.5,-726 1252.5,-726 1252.5,-714 1252.5,-714 1252.5,-708 1258.5,-702 1264.5,-702 1264.5,-702 1339.5,-702 1339.5,-702 1345.5,-702 1351.5,-708 1351.5,-714 1351.5,-714 1351.5,-726 1351.5,-726 1351.5,-732 1345.5,-738 1339.5,-738"/>
<text text-anchor="middle" x="1302" y="-715" font-family="Times,serif" font-size="20.00" fill="#000000">188 node2</text>
</g>
<!-- v_1_290&#45;&gt;v_1_287 -->
<g id="edge17" class="edge">
<title>v_1_290&#45;&gt;v_1_287</title>
<path fill="none" stroke="#000000" d="M1252.0353,-725.2822C1202.3169,-730.586 1123.8539,-739.0843 1056,-747 1031.3657,-749.8738 1005.1819,-753.0253 979.8167,-756.1293"/>
<polygon fill="#000000" stroke="#000000" points="979.2639,-752.6707 969.7644,-757.362 980.1161,-759.6187 979.2639,-752.6707"/>
</g>
<!-- v_1_310 -->
<g id="node33" class="node">
<title>v_1_310</title>
<polygon fill="#3a85b9" stroke="#000000" points="975.5,-657 699.5,-657 699.5,-621 975.5,-621 975.5,-657"/>
<text text-anchor="middle" x="837.5" y="-634" font-family="Times,serif" font-size="20.00" fill="#ffffff">190 generate_coordinates_points</text>
</g>
<!-- v_1_310&#45;&gt;v_1_260 -->
<g id="edge56" class="edge">
<title>v_1_310&#45;&gt;v_1_260</title>
<path fill="none" stroke="#000000" stroke-dasharray="5,2" d="M777.6891,-657.0772C730.6468,-671.2952 665.7913,-690.897 621.0277,-704.4263"/>
<polygon fill="#000000" stroke="#000000" points="619.7922,-701.1433 611.2325,-707.3868 621.8174,-707.8439 619.7922,-701.1433"/>
</g>
<!-- v_1_310&#45;&gt;v_1_261 -->
<g id="edge19" class="edge">
<title>v_1_310&#45;&gt;v_1_261</title>
<path fill="none" stroke="#000000" stroke-dasharray="5,2" d="M699.1823,-652.935C674.5445,-655.4172 650.1014,-657.8797 629.1895,-659.9865"/>
<polygon fill="#000000" stroke="#000000" points="628.8207,-656.5059 619.2219,-660.9907 629.5224,-663.4706 628.8207,-656.5059"/>
</g>
<!-- v_1_310&#45;&gt;v_1_262 -->
<g id="edge25" class="edge">
<title>v_1_310&#45;&gt;v_1_262</title>
<path fill="none" stroke="#000000" stroke-dasharray="5,2" d="M699.1823,-625.065C671.3237,-622.2584 643.7143,-619.4768 621.177,-617.2063"/>
<polygon fill="#000000" stroke="#000000" points="621.4968,-613.7209 611.1963,-616.2007 620.7951,-620.6856 621.4968,-613.7209"/>
</g>
<!-- v_1_310&#45;&gt;v_1_263 -->
<g id="edge37" class="edge">
<title>v_1_310&#45;&gt;v_1_263</title>
<path fill="none" stroke="#000000" stroke-dasharray="5,2" d="M777.6891,-620.9228C730.6468,-606.7048 665.7913,-587.103 621.0277,-573.5737"/>
<polygon fill="#000000" stroke="#000000" points="621.8174,-570.1561 611.2325,-570.6132 619.7922,-576.8567 621.8174,-570.1561"/>
</g>
<!-- v_1_311 -->
<g id="node34" class="node">
<title>v_1_311</title>
<path fill="#85cbd0" stroke="#000000" d="M1339,-657C1339,-657 1265,-657 1265,-657 1259,-657 1253,-651 1253,-645 1253,-645 1253,-633 1253,-633 1253,-627 1259,-621 1265,-621 1265,-621 1339,-621 1339,-621 1345,-621 1351,-627 1351,-633 1351,-633 1351,-645 1351,-645 1351,-651 1345,-657 1339,-657"/>
<text text-anchor="middle" x="1302" y="-634" font-family="Times,serif" font-size="20.00" fill="#000000">190 points</text>
</g>
<!-- v_1_311&#45;&gt;v_1_310 -->
<g id="edge11" class="edge">
<title>v_1_311&#45;&gt;v_1_310</title>
<path fill="none" stroke="#000000" d="M1252.7301,-639C1189.7163,-639 1077.7618,-639 985.9698,-639"/>
<polygon fill="#000000" stroke="#000000" points="985.7353,-635.5001 975.7353,-639 985.7352,-642.5001 985.7353,-635.5001"/>
</g>
<!-- a_6 -->
<g id="node35" class="node">
<title>a_6</title>
<path fill="#ffffff" stroke="#000000" d="M1489,-900C1489,-900 1115,-900 1115,-900 1109,-900 1103,-894 1103,-888 1103,-888 1103,-876 1103,-876 1103,-870 1109,-864 1115,-864 1115,-864 1489,-864 1489,-864 1495,-864 1501,-870 1501,-876 1501,-876 1501,-888 1501,-888 1501,-894 1495,-900 1489,-900"/>
<text text-anchor="middle" x="1302" y="-877" font-family="Times,serif" font-size="20.00" fill="#000000">plot_modular_pypofacets_20180324011644.png</text>
</g>
<!-- v_1_1524 -->
<g id="node36" class="node">
<title>v_1_1524</title>
<polygon fill="#3a85b9" stroke="#000000" points="907.5,-900 767.5,-900 767.5,-864 907.5,-864 907.5,-900"/>
<text text-anchor="middle" x="837.5" y="-877" font-family="Times,serif" font-size="20.00" fill="#ffffff">192 plot_model</text>
</g>
<!-- a_6&#45;&gt;v_1_1524 -->
<g id="edge30" class="edge">
<title>a_6&#45;&gt;v_1_1524</title>
<path fill="none" stroke="#000000" stroke-dasharray="5,2" d="M1102.9888,-882C1037.6591,-882 968.7468,-882 917.507,-882"/>
<polygon fill="#000000" stroke="#000000" points="917.501,-878.5001 907.501,-882 917.5009,-885.5001 917.501,-878.5001"/>
</g>
<!-- v_1_1543 -->
<g id="node37" class="node">
<title>v_1_1543</title>
<polygon fill="#3a85b9" stroke="#000000" points="990,-279 685,-279 685,-243 990,-243 990,-279"/>
<text text-anchor="middle" x="837.5" y="-256" font-family="Times,serif" font-size="20.00" fill="#ffffff">194 calculate_refs_geometry_model</text>
</g>
<!-- v_1_1543&#45;&gt;v_1_211 -->
<g id="edge10" class="edge">
<title>v_1_1543&#45;&gt;v_1_211</title>
<path fill="none" stroke="#000000" stroke-dasharray="5,2" d="M801.6344,-279.0666C753.3298,-303.3992 667.3633,-346.7032 614.6929,-373.2349"/>
<polygon fill="#000000" stroke="#000000" points="612.9375,-370.2002 605.5811,-377.8248 616.0866,-376.4518 612.9375,-370.2002"/>
</g>
<!-- v_1_1543&#45;&gt;v_1_212 -->
<g id="edge48" class="edge">
<title>v_1_1543&#45;&gt;v_1_212</title>
<path fill="none" stroke="#000000" stroke-dasharray="5,2" d="M777.6891,-279.0772C732.6547,-292.6883 671.2953,-311.2335 626.8665,-324.6616"/>
<polygon fill="#000000" stroke="#000000" points="625.6507,-321.3726 617.091,-327.6162 627.6759,-328.0733 625.6507,-321.3726"/>
</g>
<!-- v_1_1543&#45;&gt;v_1_213 -->
<g id="edge35" class="edge">
<title>v_1_1543&#45;&gt;v_1_213</title>
<path fill="none" stroke="#000000" stroke-dasharray="5,2" d="M684.7115,-276.3929C662.3014,-278.6506 640.6065,-280.8363 622.2014,-282.6905"/>
<polygon fill="#000000" stroke="#000000" points="621.6474,-279.2285 612.0487,-283.7134 622.3492,-286.1933 621.6474,-279.2285"/>
</g>
<!-- v_1_1543&#45;&gt;v_1_214 -->
<g id="edge28" class="edge">
<title>v_1_1543&#45;&gt;v_1_214</title>
<path fill="none" stroke="#000000" stroke-dasharray="5,2" d="M684.7115,-245.6071C661.3045,-243.249 638.6779,-240.9694 619.765,-239.064"/>
<polygon fill="#000000" stroke="#000000" points="619.959,-235.5659 609.6585,-238.0458 619.2573,-242.5307 619.959,-235.5659"/>
</g>
<!-- v_1_1543&#45;&gt;v_1_216 -->
<g id="edge40" class="edge">
<title>v_1_1543&#45;&gt;v_1_216</title>
<path fill="none" stroke="#000000" stroke-dasharray="5,2" d="M777.6891,-242.9228C731.6507,-229.0082 668.5514,-209.9372 623.9208,-196.4481"/>
<polygon fill="#000000" stroke="#000000" points="624.7118,-193.0308 614.1268,-193.488 622.6865,-199.7315 624.7118,-193.0308"/>
</g>
<!-- v_1_1543&#45;&gt;v_1_218 -->
<g id="edge33" class="edge">
<title>v_1_1543&#45;&gt;v_1_218</title>
<path fill="none" stroke="#000000" stroke-dasharray="5,2" d="M801.6344,-242.9334C753.3298,-218.6008 667.3633,-175.2968 614.6929,-148.7651"/>
<polygon fill="#000000" stroke="#000000" points="616.0866,-145.5482 605.5811,-144.1752 612.9375,-151.7998 616.0866,-145.5482"/>
</g>
<!-- v_1_1544 -->
<g id="node38" class="node">
<title>v_1_1544</title>
<path fill="#85cbd0" stroke="#000000" d="M1323,-346C1323,-346 1281,-346 1281,-346 1275,-346 1269,-340 1269,-334 1269,-334 1269,-322 1269,-322 1269,-316 1275,-310 1281,-310 1281,-310 1323,-310 1323,-310 1329,-310 1335,-316 1335,-322 1335,-322 1335,-334 1335,-334 1335,-340 1329,-346 1323,-346"/>
<text text-anchor="middle" x="1302" y="-323" font-family="Times,serif" font-size="20.00" fill="#000000">194 ip</text>
</g>
<!-- v_1_1544&#45;&gt;v_1_1543 -->
<g id="edge7" class="edge">
<title>v_1_1544&#45;&gt;v_1_1543</title>
<path fill="none" stroke="#000000" d="M1268.8785,-325.1255C1221.5463,-320.845 1131.8853,-312.0959 1056,-301 1017.2838,-295.339 974.9348,-287.8821 937.9141,-280.9421"/>
<polygon fill="#000000" stroke="#000000" points="938.0966,-277.4148 927.6211,-279.0003 936.7989,-284.2935 938.0966,-277.4148"/>
</g>
<!-- v_1_1545 -->
<g id="node39" class="node">
<title>v_1_1545</title>
<path fill="#85cbd0" stroke="#000000" d="M1321,-292C1321,-292 1283,-292 1283,-292 1277,-292 1271,-286 1271,-280 1271,-280 1271,-268 1271,-268 1271,-262 1277,-256 1283,-256 1283,-256 1321,-256 1321,-256 1327,-256 1333,-262 1333,-268 1333,-268 1333,-280 1333,-280 1333,-286 1327,-292 1321,-292"/>
<text text-anchor="middle" x="1302" y="-269" font-family="Times,serif" font-size="20.00" fill="#000000">194 it</text>
</g>
<!-- v_1_1545&#45;&gt;v_1_1543 -->
<g id="edge55" class="edge">
<title>v_1_1545&#45;&gt;v_1_1543</title>
<path fill="none" stroke="#000000" d="M1270.8016,-273.1268C1215.9833,-271.5926 1098.8261,-268.3138 1000.1426,-265.5519"/>
<polygon fill="#000000" stroke="#000000" points="1000.1379,-262.0505 990.0438,-265.2693 999.942,-269.0477 1000.1379,-262.0505"/>
</g>
<!-- v_1_1546 -->
<g id="node40" class="node">
<title>v_1_1546</title>
<path fill="#85cbd0" stroke="#000000" d="M1330,-238C1330,-238 1274,-238 1274,-238 1268,-238 1262,-232 1262,-226 1262,-226 1262,-214 1262,-214 1262,-208 1268,-202 1274,-202 1274,-202 1330,-202 1330,-202 1336,-202 1342,-208 1342,-214 1342,-214 1342,-226 1342,-226 1342,-232 1336,-238 1330,-238"/>
<text text-anchor="middle" x="1302" y="-215" font-family="Times,serif" font-size="20.00" fill="#000000">194 delt</text>
</g>
<!-- v_1_1546&#45;&gt;v_1_1543 -->
<g id="edge9" class="edge">
<title>v_1_1546&#45;&gt;v_1_1543</title>
<path fill="none" stroke="#000000" d="M1261.995,-223.5311C1204.1898,-228.6334 1093.9647,-238.3626 1000.3222,-246.6282"/>
<polygon fill="#000000" stroke="#000000" points="999.8089,-243.1598 990.1554,-247.5256 1000.4244,-250.1327 999.8089,-243.1598"/>
</g>
<!-- v_1_1547 -->
<g id="node41" class="node">
<title>v_1_1547</title>
<path fill="#85cbd0" stroke="#000000" d="M1332.5,-184C1332.5,-184 1271.5,-184 1271.5,-184 1265.5,-184 1259.5,-178 1259.5,-172 1259.5,-172 1259.5,-160 1259.5,-160 1259.5,-154 1265.5,-148 1271.5,-148 1271.5,-148 1332.5,-148 1332.5,-148 1338.5,-148 1344.5,-154 1344.5,-160 1344.5,-160 1344.5,-172 1344.5,-172 1344.5,-178 1338.5,-184 1332.5,-184"/>
<text text-anchor="middle" x="1302" y="-161" font-family="Times,serif" font-size="20.00" fill="#000000">194 delp</text>
</g>
<!-- v_1_1547&#45;&gt;v_1_1543 -->
<g id="edge54" class="edge">
<title>v_1_1547&#45;&gt;v_1_1543</title>
<path fill="none" stroke="#000000" d="M1259.3874,-168.1839C1210.0244,-171.287 1126.4516,-178.3138 1056,-193 1000.6784,-204.5322 939.3767,-224.2426 895.8197,-239.4827"/>
<polygon fill="#000000" stroke="#000000" points="894.5176,-236.2306 886.2518,-242.8584 896.8466,-242.8318 894.5176,-236.2306"/>
</g>
<!-- a_7 -->
<g id="node42" class="node">
<title>a_7</title>
<path fill="#ffffff" stroke="#000000" d="M1478.5,-1116C1478.5,-1116 1125.5,-1116 1125.5,-1116 1119.5,-1116 1113.5,-1110 1113.5,-1104 1113.5,-1104 1113.5,-1092 1113.5,-1092 1113.5,-1086 1119.5,-1080 1125.5,-1080 1125.5,-1080 1478.5,-1080 1478.5,-1080 1484.5,-1080 1490.5,-1086 1490.5,-1092 1490.5,-1092 1490.5,-1104 1490.5,-1104 1490.5,-1110 1484.5,-1116 1478.5,-1116"/>
<text text-anchor="middle" x="1302" y="-1093" font-family="Times,serif" font-size="20.00" fill="#000000">R_modular_pypofacets_20180324011646.dat</text>
</g>
<!-- v_1_1596 -->
<g id="node44" class="node">
<title>v_1_1596</title>
<polygon fill="#3a85b9" stroke="#000000" points="922.5,-1035 752.5,-1035 752.5,-999 922.5,-999 922.5,-1035"/>
<text text-anchor="middle" x="837.5" y="-1012" font-family="Times,serif" font-size="20.00" fill="#ffffff">196 prepare_output</text>
</g>
<!-- a_7&#45;&gt;v_1_1596 -->
<g id="edge51" class="edge">
<title>a_7&#45;&gt;v_1_1596</title>
<path fill="none" stroke="#000000" stroke-dasharray="5,2" d="M1113.9298,-1079.9661C1094.3165,-1077.3075 1074.7189,-1074.3251 1056,-1071 1007.2039,-1062.3321 953.1259,-1048.9982 910.9772,-1037.7494"/>
<polygon fill="#000000" stroke="#000000" points="911.645,-1034.3047 901.0791,-1035.0877 909.8271,-1041.0646 911.645,-1034.3047"/>
</g>
<!-- a_8 -->
<g id="node43" class="node">
<title>a_8</title>
<path fill="#ffffff" stroke="#000000" d="M1482.5,-1062C1482.5,-1062 1121.5,-1062 1121.5,-1062 1115.5,-1062 1109.5,-1056 1109.5,-1050 1109.5,-1050 1109.5,-1038 1109.5,-1038 1109.5,-1032 1115.5,-1026 1121.5,-1026 1121.5,-1026 1482.5,-1026 1482.5,-1026 1488.5,-1026 1494.5,-1032 1494.5,-1038 1494.5,-1038 1494.5,-1050 1494.5,-1050 1494.5,-1056 1488.5,-1062 1482.5,-1062"/>
<text text-anchor="middle" x="1302" y="-1039" font-family="Times,serif" font-size="20.00" fill="#000000">E0_modular_pypofacets_20180324011646.dat</text>
</g>
<!-- a_8&#45;&gt;v_1_1596 -->
<g id="edge23" class="edge">
<title>a_8&#45;&gt;v_1_1596</title>
<path fill="none" stroke="#000000" stroke-dasharray="5,2" d="M1109.3814,-1032.8037C1048.3509,-1029.2561 983.5581,-1025.4899 932.538,-1022.5243"/>
<polygon fill="#000000" stroke="#000000" points="932.7091,-1019.0284 922.5228,-1021.9421 932.3028,-1026.0166 932.7091,-1019.0284"/>
</g>
<!-- v_1_1597 -->
<g id="node45" class="node">
<title>v_1_1597</title>
<path fill="#85cbd0" stroke="#000000" d="M1335.5,-1008C1335.5,-1008 1268.5,-1008 1268.5,-1008 1262.5,-1008 1256.5,-1002 1256.5,-996 1256.5,-996 1256.5,-984 1256.5,-984 1256.5,-978 1262.5,-972 1268.5,-972 1268.5,-972 1335.5,-972 1335.5,-972 1341.5,-972 1347.5,-978 1347.5,-984 1347.5,-984 1347.5,-996 1347.5,-996 1347.5,-1002 1341.5,-1008 1335.5,-1008"/>
<text text-anchor="middle" x="1302" y="-985" font-family="Times,serif" font-size="20.00" fill="#000000">196 fileR</text>
</g>
<!-- v_1_1597&#45;&gt;v_1_1596 -->
<g id="edge36" class="edge">
<title>v_1_1597&#45;&gt;v_1_1596</title>
<path fill="none" stroke="#000000" d="M1256.1907,-992.6628C1181.4736,-997.0058 1031.8268,-1005.7044 933.1738,-1011.4388"/>
<polygon fill="#000000" stroke="#000000" points="932.6772,-1007.9616 922.8972,-1012.0361 933.0835,-1014.9498 932.6772,-1007.9616"/>
</g>
<!-- v_1_1598 -->
<g id="node46" class="node">
<title>v_1_1598</title>
<path fill="#85cbd0" stroke="#000000" d="M1339.5,-954C1339.5,-954 1264.5,-954 1264.5,-954 1258.5,-954 1252.5,-948 1252.5,-942 1252.5,-942 1252.5,-930 1252.5,-930 1252.5,-924 1258.5,-918 1264.5,-918 1264.5,-918 1339.5,-918 1339.5,-918 1345.5,-918 1351.5,-924 1351.5,-930 1351.5,-930 1351.5,-942 1351.5,-942 1351.5,-948 1345.5,-954 1339.5,-954"/>
<text text-anchor="middle" x="1302" y="-931" font-family="Times,serif" font-size="20.00" fill="#000000">196 fileE0</text>
</g>
<!-- v_1_1598&#45;&gt;v_1_1596 -->
<g id="edge1" class="edge">
<title>v_1_1598&#45;&gt;v_1_1596</title>
<path fill="none" stroke="#000000" d="M1252.25,-939.508C1202.3621,-943.483 1123.4726,-951.0145 1056,-963 1007.2039,-971.6679 953.1259,-985.0018 910.9772,-996.2506"/>
<polygon fill="#000000" stroke="#000000" points="909.8271,-992.9354 901.0791,-998.9123 911.645,-999.6953 909.8271,-992.9354"/>
</g>
<!-- v_1_1872 -->
<g id="node47" class="node">
<title>v_1_1872</title>
<polygon fill="#3a85b9" stroke="#000000" points="1020,-1278 655,-1278 655,-1242 1020,-1242 1020,-1278"/>
<text text-anchor="middle" x="837.5" y="-1255" font-family="Times,serif" font-size="20.00" fill="#ffffff">202 calculate_global_angles_and_directions</text>
</g>
<!-- v_1_1599 -->
<g id="node48" class="node">
<title>v_1_1599</title>
<path fill="#85cbd0" stroke="#000000" d="M595.5,-1305C595.5,-1305 543.5,-1305 543.5,-1305 537.5,-1305 531.5,-1299 531.5,-1293 531.5,-1293 531.5,-1281 531.5,-1281 531.5,-1275 537.5,-1269 543.5,-1269 543.5,-1269 595.5,-1269 595.5,-1269 601.5,-1269 607.5,-1275 607.5,-1281 607.5,-1281 607.5,-1293 607.5,-1293 607.5,-1299 601.5,-1305 595.5,-1305"/>
<text text-anchor="middle" x="569.5" y="-1282" font-family="Times,serif" font-size="20.00" fill="#000000">198 phi</text>
</g>
<!-- v_1_1872&#45;&gt;v_1_1599 -->
<g id="edge2" class="edge">
<title>v_1_1872&#45;&gt;v_1_1599</title>
<path fill="none" stroke="#000000" stroke-dasharray="5,2" d="M658.7401,-1278.0094C643.8876,-1279.5057 629.8639,-1280.9186 617.524,-1282.1618"/>
<polygon fill="#000000" stroke="#000000" points="617.1721,-1278.6794 607.5733,-1283.1643 617.8738,-1285.6442 617.1721,-1278.6794"/>
</g>
<!-- v_1_1600 -->
<g id="node49" class="node">
<title>v_1_1600</title>
<path fill="#85cbd0" stroke="#000000" d="M602,-1251C602,-1251 537,-1251 537,-1251 531,-1251 525,-1245 525,-1239 525,-1239 525,-1227 525,-1227 525,-1221 531,-1215 537,-1215 537,-1215 602,-1215 602,-1215 608,-1215 614,-1221 614,-1227 614,-1227 614,-1239 614,-1239 614,-1245 608,-1251 602,-1251"/>
<text text-anchor="middle" x="569.5" y="-1228" font-family="Times,serif" font-size="20.00" fill="#000000">200 theta</text>
</g>
<!-- v_1_1872&#45;&gt;v_1_1600 -->
<g id="edge26" class="edge">
<title>v_1_1872&#45;&gt;v_1_1600</title>
<path fill="none" stroke="#000000" stroke-dasharray="5,2" d="M658.7401,-1241.9906C646.6421,-1240.7718 635.094,-1239.6083 624.5578,-1238.5469"/>
<polygon fill="#000000" stroke="#000000" points="624.6765,-1235.0412 614.376,-1237.5211 623.9748,-1242.0059 624.6765,-1235.0412"/>
</g>
<!-- v_1_1873 -->
<g id="node50" class="node">
<title>v_1_1873</title>
<path fill="#85cbd0" stroke="#000000" d="M1328,-1386C1328,-1386 1276,-1386 1276,-1386 1270,-1386 1264,-1380 1264,-1374 1264,-1374 1264,-1362 1264,-1362 1264,-1356 1270,-1350 1276,-1350 1276,-1350 1328,-1350 1328,-1350 1334,-1350 1340,-1356 1340,-1362 1340,-1362 1340,-1374 1340,-1374 1340,-1380 1334,-1386 1328,-1386"/>
<text text-anchor="middle" x="1302" y="-1363" font-family="Times,serif" font-size="20.00" fill="#000000">202 phi</text>
</g>
<!-- v_1_1873&#45;&gt;v_1_1872 -->
<g id="edge41" class="edge">
<title>v_1_1873&#45;&gt;v_1_1872</title>
<path fill="none" stroke="#000000" d="M1263.5784,-1366.6989C1214.7458,-1364.3832 1128.1259,-1358.0523 1056,-1341 996.0284,-1326.8213 930.0667,-1300.8383 886.4757,-1282.1183"/>
<polygon fill="#000000" stroke="#000000" points="887.82,-1278.8864 877.2527,-1278.1224 885.0371,-1285.3095 887.82,-1278.8864"/>
</g>
<!-- v_1_1874 -->
<g id="node51" class="node">
<title>v_1_1874</title>
<path fill="#85cbd0" stroke="#000000" d="M1321.5,-1332C1321.5,-1332 1282.5,-1332 1282.5,-1332 1276.5,-1332 1270.5,-1326 1270.5,-1320 1270.5,-1320 1270.5,-1308 1270.5,-1308 1270.5,-1302 1276.5,-1296 1282.5,-1296 1282.5,-1296 1321.5,-1296 1321.5,-1296 1327.5,-1296 1333.5,-1302 1333.5,-1308 1333.5,-1308 1333.5,-1320 1333.5,-1320 1333.5,-1326 1327.5,-1332 1321.5,-1332"/>
<text text-anchor="middle" x="1302" y="-1309" font-family="Times,serif" font-size="20.00" fill="#000000">202 E</text>
</g>
<!-- v_1_1874&#45;&gt;v_1_1872 -->
<g id="edge49" class="edge">
<title>v_1_1874&#45;&gt;v_1_1872</title>
<path fill="none" stroke="#000000" d="M1270.1401,-1310.6434C1223.228,-1305.6691 1132.8157,-1295.9611 1056,-1287 1035.0117,-1284.5516 1012.8986,-1281.9015 991.1253,-1279.251"/>
<polygon fill="#000000" stroke="#000000" points="991.5009,-1275.771 981.1506,-1278.0339 990.653,-1282.7194 991.5009,-1275.771"/>
</g>
<!-- v_1_1875 -->
<g id="node52" class="node">
<title>v_1_1875</title>
<path fill="#85cbd0" stroke="#000000" d="M1327,-1278C1327,-1278 1277,-1278 1277,-1278 1271,-1278 1265,-1272 1265,-1266 1265,-1266 1265,-1254 1265,-1254 1265,-1248 1271,-1242 1277,-1242 1277,-1242 1327,-1242 1327,-1242 1333,-1242 1339,-1248 1339,-1254 1339,-1254 1339,-1266 1339,-1266 1339,-1272 1333,-1278 1327,-1278"/>
<text text-anchor="middle" x="1302" y="-1255" font-family="Times,serif" font-size="20.00" fill="#000000">202 i2s</text>
</g>
<!-- v_1_1875&#45;&gt;v_1_1872 -->
<g id="edge32" class="edge">
<title>v_1_1875&#45;&gt;v_1_1872</title>
<path fill="none" stroke="#000000" d="M1264.7732,-1260C1213.6756,-1260 1118.1301,-1260 1030.3282,-1260"/>
<polygon fill="#000000" stroke="#000000" points="1030.2142,-1256.5001 1020.2141,-1260 1030.2141,-1263.5001 1030.2142,-1256.5001"/>
</g>
<!-- v_1_1876 -->
<g id="node53" class="node">
<title>v_1_1876</title>
<path fill="#85cbd0" stroke="#000000" d="M1334.5,-1224C1334.5,-1224 1269.5,-1224 1269.5,-1224 1263.5,-1224 1257.5,-1218 1257.5,-1212 1257.5,-1212 1257.5,-1200 1257.5,-1200 1257.5,-1194 1263.5,-1188 1269.5,-1188 1269.5,-1188 1334.5,-1188 1334.5,-1188 1340.5,-1188 1346.5,-1194 1346.5,-1200 1346.5,-1200 1346.5,-1212 1346.5,-1212 1346.5,-1218 1340.5,-1224 1334.5,-1224"/>
<text text-anchor="middle" x="1302" y="-1201" font-family="Times,serif" font-size="20.00" fill="#000000">202 theta</text>
</g>
<!-- v_1_1876&#45;&gt;v_1_1872 -->
<g id="edge52" class="edge">
<title>v_1_1876&#45;&gt;v_1_1872</title>
<path fill="none" stroke="#000000" d="M1257.0899,-1210.7435C1207.7578,-1215.9973 1126.201,-1224.8105 1056,-1233 1035.0117,-1235.4484 1012.8986,-1238.0985 991.1253,-1240.749"/>
<polygon fill="#000000" stroke="#000000" points="990.653,-1237.2806 981.1506,-1241.9661 991.5009,-1244.229 990.653,-1237.2806"/>
</g>
<!-- v_1_1877 -->
<g id="node54" class="node">
<title>v_1_1877</title>
<path fill="#85cbd0" stroke="#000000" d="M1327.5,-1170C1327.5,-1170 1276.5,-1170 1276.5,-1170 1270.5,-1170 1264.5,-1164 1264.5,-1158 1264.5,-1158 1264.5,-1146 1264.5,-1146 1264.5,-1140 1270.5,-1134 1276.5,-1134 1276.5,-1134 1327.5,-1134 1327.5,-1134 1333.5,-1134 1339.5,-1140 1339.5,-1146 1339.5,-1146 1339.5,-1158 1339.5,-1158 1339.5,-1164 1333.5,-1170 1327.5,-1170"/>
<text text-anchor="middle" x="1302" y="-1147" font-family="Times,serif" font-size="20.00" fill="#000000">202 D0</text>
</g>
<!-- v_1_1877&#45;&gt;v_1_1872 -->
<g id="edge5" class="edge">
<title>v_1_1877&#45;&gt;v_1_1872</title>
<path fill="none" stroke="#000000" d="M1264.4238,-1153.2612C1215.7506,-1155.5438 1128.544,-1161.8488 1056,-1179 996.0284,-1193.1787 930.0667,-1219.1617 886.4757,-1237.8817"/>
<polygon fill="#000000" stroke="#000000" points="885.0371,-1234.6905 877.2527,-1241.8776 887.82,-1241.1136 885.0371,-1234.6905"/>
</g>
<!-- v_1_2008 -->
<g id="node55" class="node">
<title>v_1_2008</title>
<polygon fill="#3a85b9" stroke="#000000" points="1548,-1440 1056,-1440 1056,-1404 1548,-1404 1548,-1440"/>
<text text-anchor="middle" x="1302" y="-1417" font-family="Times,serif" font-size="20.00" fill="#ffffff">204 calculate_spherical_coord ... system_radial_unit_vector</text>
</g>
<!-- v_1_2170 -->
<g id="node56" class="node">
<title>v_1_2170</title>
<polygon fill="#3a85b9" stroke="#000000" points="1542.5,-1494 1061.5,-1494 1061.5,-1458 1542.5,-1458 1542.5,-1494"/>
<text text-anchor="middle" x="1302" y="-1471" font-family="Times,serif" font-size="20.00" fill="#ffffff">206 calculate_incident_field_ ... bal_cartesian_coordinates</text>
</g>
</g>
</svg>
