<?xml version="1.0" encoding="UTF-8" standalone="no"?>
<!DOCTYPE svg PUBLIC "-//W3C//DTD SVG 1.1//EN"
 "http://www.w3.org/Graphics/SVG/1.1/DTD/svg11.dtd">
<!-- Generated by graphviz version 2.40.1 (20161225.0304)
 -->
<!-- Title: dependency Pages: 1 -->
<svg width="3216pt" height="1268pt"
 viewBox="0.00 0.00 3216.00 1268.00" xmlns="http://www.w3.org/2000/svg" xmlns:xlink="http://www.w3.org/1999/xlink">
<g id="graph0" class="graph" transform="scale(1 1) rotate(0) translate(4 1264)">
<title>dependency</title>
<polygon fill="#ffffff" stroke="transparent" points="-4,4 -4,-1264 3212,-1264 3212,4 -4,4"/>
<g id="clust1" class="cluster">
<title>cluster_5</title>
<polygon fill="none" stroke="#3a85b9" points="8.5,-113 8.5,-1252 2652.5,-1252 2652.5,-113 8.5,-113"/>
<text text-anchor="middle" x="1330.5" y="-1224" font-family="Times,serif" font-size="30.00" fill="#000000">main</text>
</g>
<!-- v_1_40 -->
<g id="node1" class="node">
<title>v_1_40</title>
<polygon fill="#3a85b9" stroke="#000000" points="2596,-36 2510,-36 2510,0 2596,0 2596,-36"/>
<text text-anchor="middle" x="2553" y="-13" font-family="Times,serif" font-size="20.00" fill="#ffffff">411 time</text>
</g>
<!-- v_1_41 -->
<g id="node2" class="node">
<title>v_1_41</title>
<path fill="#85cbd0" stroke="#000000" d="M2975.5,-36C2975.5,-36 2914.5,-36 2914.5,-36 2908.5,-36 2902.5,-30 2902.5,-24 2902.5,-24 2902.5,-12 2902.5,-12 2902.5,-6 2908.5,0 2914.5,0 2914.5,0 2975.5,0 2975.5,0 2981.5,0 2987.5,-6 2987.5,-12 2987.5,-12 2987.5,-24 2987.5,-24 2987.5,-30 2981.5,-36 2975.5,-36"/>
<text text-anchor="middle" x="2945" y="-13" font-family="Times,serif" font-size="20.00" fill="#000000">411 start</text>
</g>
<!-- v_1_41&#45;&gt;v_1_40 -->
<g id="edge18" class="edge">
<title>v_1_41&#45;&gt;v_1_40</title>
<path fill="none" stroke="#000000" d="M2902.3029,-18C2830.3282,-18 2685.0268,-18 2606.4138,-18"/>
<polygon fill="#000000" stroke="#000000" points="2606.2412,-14.5001 2596.2411,-18 2606.2411,-21.5001 2606.2412,-14.5001"/>
</g>
<!-- v_1_45 -->
<g id="node3" class="node">
<title>v_1_45</title>
<polygon fill="#3a85b9" stroke="#000000" points="2307,-90 2183,-90 2183,-54 2307,-54 2307,-90"/>
<text text-anchor="middle" x="2245" y="-67" font-family="Times,serif" font-size="20.00" fill="#ffffff">412 type.now</text>
</g>
<!-- v_1_48 -->
<g id="node4" class="node">
<title>v_1_48</title>
<polygon fill="#3a85b9" stroke="#000000" points="2646,-90 2460,-90 2460,-54 2646,-54 2646,-90"/>
<text text-anchor="middle" x="2553" y="-67" font-family="Times,serif" font-size="20.00" fill="#ffffff">412 datetime.strftime</text>
</g>
<!-- v_1_48&#45;&gt;v_1_45 -->
<g id="edge35" class="edge">
<title>v_1_48&#45;&gt;v_1_45</title>
<path fill="none" stroke="#000000" stroke-dasharray="5,2" d="M2459.754,-72C2414.1183,-72 2360.0057,-72 2317.5163,-72"/>
<polygon fill="#000000" stroke="#000000" points="2317.2546,-68.5001 2307.2545,-72 2317.2545,-75.5001 2317.2546,-68.5001"/>
</g>
<!-- v_1_49 -->
<g id="node5" class="node">
<title>v_1_49</title>
<path fill="#85cbd0" stroke="#000000" d="M2975.5,-90C2975.5,-90 2914.5,-90 2914.5,-90 2908.5,-90 2902.5,-84 2902.5,-78 2902.5,-78 2902.5,-66 2902.5,-66 2902.5,-60 2908.5,-54 2914.5,-54 2914.5,-54 2975.5,-54 2975.5,-54 2981.5,-54 2987.5,-60 2987.5,-66 2987.5,-66 2987.5,-78 2987.5,-78 2987.5,-84 2981.5,-90 2975.5,-90"/>
<text text-anchor="middle" x="2945" y="-67" font-family="Times,serif" font-size="20.00" fill="#000000">412 now</text>
</g>
<!-- v_1_49&#45;&gt;v_1_48 -->
<g id="edge9" class="edge">
<title>v_1_49&#45;&gt;v_1_48</title>
<path fill="none" stroke="#000000" d="M2902.3029,-72C2843.6923,-72 2736.4569,-72 2656.2047,-72"/>
<polygon fill="#000000" stroke="#000000" points="2656.0616,-68.5001 2646.0616,-72 2656.0615,-75.5001 2656.0616,-68.5001"/>
</g>
<!-- v_5_52 -->
<g id="node6" class="node">
<title>v_5_52</title>
<path fill="#85cbd0" stroke="#000000" d="M839,-157C839,-157 768,-157 768,-157 762,-157 756,-151 756,-145 756,-145 756,-133 756,-133 756,-127 762,-121 768,-121 768,-121 839,-121 839,-121 845,-121 851,-127 851,-133 851,-133 851,-145 851,-145 851,-151 845,-157 839,-157"/>
<text text-anchor="middle" x="803.5" y="-134" font-family="Times,serif" font-size="20.00" fill="#000000">292 name</text>
</g>
<!-- v_1_51 -->
<g id="node105" class="node">
<title>v_1_51</title>
<path fill="#85cbd0" stroke="#000000" d="M617.5,-103C617.5,-103 546.5,-103 546.5,-103 540.5,-103 534.5,-97 534.5,-91 534.5,-91 534.5,-79 534.5,-79 534.5,-73 540.5,-67 546.5,-67 546.5,-67 617.5,-67 617.5,-67 623.5,-67 629.5,-73 629.5,-79 629.5,-79 629.5,-91 629.5,-91 629.5,-97 623.5,-103 617.5,-103"/>
<text text-anchor="middle" x="582" y="-80" font-family="Times,serif" font-size="20.00" fill="#000000">420 name</text>
</g>
<!-- v_5_52&#45;&gt;v_1_51 -->
<g id="edge23" class="edge">
<title>v_5_52&#45;&gt;v_1_51</title>
<path fill="none" stroke="#000000" d="M755.9827,-127.4156C721.9381,-119.1158 675.905,-107.8933 639.7407,-99.0767"/>
<polygon fill="#000000" stroke="#000000" points="640.3648,-95.6265 629.8204,-96.6582 638.7068,-102.4273 640.3648,-95.6265"/>
</g>
<!-- v_5_57 -->
<g id="node7" class="node">
<title>v_5_57</title>
<polygon fill="#3a85b9" stroke="#000000" points="328,-428 239,-428 239,-392 328,-392 328,-428"/>
<text text-anchor="middle" x="283.5" y="-405" font-family="Times,serif" font-size="20.00" fill="#ffffff">297 open</text>
</g>
<!-- v_5_54 -->
<g id="node8" class="node">
<title>v_5_54</title>
<path fill="#85cbd0" stroke="#000000" d="M174.5,-428C174.5,-428 28.5,-428 28.5,-428 22.5,-428 16.5,-422 16.5,-416 16.5,-416 16.5,-404 16.5,-404 16.5,-398 22.5,-392 28.5,-392 28.5,-392 174.5,-392 174.5,-392 180.5,-392 186.5,-398 186.5,-404 186.5,-404 186.5,-416 186.5,-416 186.5,-422 180.5,-428 174.5,-428"/>
<text text-anchor="middle" x="101.5" y="-405" font-family="Times,serif" font-size="20.00" fill="#000000">294 input_data_file</text>
</g>
<!-- v_5_57&#45;&gt;v_5_54 -->
<g id="edge21" class="edge">
<title>v_5_57&#45;&gt;v_5_54</title>
<path fill="none" stroke="#000000" stroke-dasharray="5,2" d="M238.9778,-410C226.1522,-410 211.6427,-410 196.9779,-410"/>
<polygon fill="#000000" stroke="#000000" points="196.8193,-406.5001 186.8193,-410 196.8192,-413.5001 196.8193,-406.5001"/>
</g>
<!-- a_1 -->
<g id="node100" class="node">
<title>a_1</title>
<path fill="#ffffff" stroke="#000000" d="M191,-105C191,-105 12,-105 12,-105 6,-105 0,-99 0,-93 0,-93 0,-81 0,-81 0,-75 6,-69 12,-69 12,-69 191,-69 191,-69 197,-69 203,-75 203,-81 203,-81 203,-93 203,-93 203,-99 197,-105 191,-105"/>
<text text-anchor="middle" x="101.5" y="-82" font-family="Times,serif" font-size="20.00" fill="#000000">input_data_file_002.dat</text>
</g>
<!-- v_5_57&#45;&gt;a_1 -->
<g id="edge73" class="edge">
<title>v_5_57&#45;&gt;a_1</title>
<path fill="none" stroke="#000000" stroke-dasharray="5,2" d="M281.1501,-391.9901C273.5381,-336.2789 247.7991,-167.4203 205.4486,-112.8615"/>
<polygon fill="#000000" stroke="#000000" points="207.7907,-110.2307 198.5092,-105.1214 202.5786,-114.9036 207.7907,-110.2307"/>
</g>
<!-- v_5_58 -->
<g id="node9" class="node">
<title>v_5_58</title>
<path fill="#85cbd0" stroke="#000000" d="M461,-670C461,-670 376,-670 376,-670 370,-670 364,-664 364,-658 364,-658 364,-646 364,-646 364,-640 370,-634 376,-634 376,-634 461,-634 461,-634 467,-634 473,-640 473,-646 473,-646 473,-658 473,-658 473,-664 467,-670 461,-670"/>
<text text-anchor="middle" x="418.5" y="-647" font-family="Times,serif" font-size="20.00" fill="#000000">297 params</text>
</g>
<!-- v_5_58&#45;&gt;v_5_57 -->
<g id="edge90" class="edge">
<title>v_5_58&#45;&gt;v_5_57</title>
<path fill="none" stroke="#000000" d="M408.3531,-633.8107C384.7917,-591.5748 326.2778,-486.6832 298.542,-436.9643"/>
<polygon fill="#000000" stroke="#000000" points="301.5089,-435.0982 293.5805,-428.0703 295.3958,-438.5085 301.5089,-435.0982"/>
</g>
<!-- v_5_63 -->
<g id="node10" class="node">
<title>v_5_63</title>
<polygon fill="#3a85b9" stroke="#000000" points="655,-1203 509,-1203 509,-1167 655,-1167 655,-1203"/>
<text text-anchor="middle" x="582" y="-1180" font-family="Times,serif" font-size="20.00" fill="#ffffff">299 file.readline</text>
</g>
<!-- v_5_63&#45;&gt;v_5_58 -->
<g id="edge14" class="edge">
<title>v_5_63&#45;&gt;v_5_58</title>
<path fill="none" stroke="#000000" stroke-dasharray="5,2" d="M518.5103,-1166.7771C514.9967,-1164.2253 511.7749,-1161.3162 509,-1158 447.2386,-1084.1902 425.3069,-775.5673 419.9311,-680.1994"/>
<polygon fill="#000000" stroke="#000000" points="423.4224,-679.9432 419.382,-670.149 416.4329,-680.3251 423.4224,-679.9432"/>
</g>
<!-- v_5_67 -->
<g id="node11" class="node">
<title>v_5_67</title>
<polygon fill="#3a85b9" stroke="#000000" points="655,-967 509,-967 509,-931 655,-931 655,-967"/>
<text text-anchor="middle" x="582" y="-944" font-family="Times,serif" font-size="20.00" fill="#ffffff">300 file.readline</text>
</g>
<!-- v_5_67&#45;&gt;v_5_58 -->
<g id="edge74" class="edge">
<title>v_5_67&#45;&gt;v_5_58</title>
<path fill="none" stroke="#000000" stroke-dasharray="5,2" d="M520.0811,-930.9674C516.0488,-928.367 512.2923,-925.3954 509,-922 442.5139,-853.431 424.8358,-734.5891 420.1634,-680.401"/>
<polygon fill="#000000" stroke="#000000" points="423.6321,-679.8598 419.3712,-670.1595 416.653,-680.3997 423.6321,-679.8598"/>
</g>
<!-- v_5_69 -->
<g id="node12" class="node">
<title>v_5_69</title>
<polygon fill="#3a85b9" stroke="#000000" points="916,-967 691,-967 691,-931 916,-931 916,-967"/>
<text text-anchor="middle" x="803.5" y="-944" font-family="Times,serif" font-size="20.00" fill="#ffffff">300 int(params.readline())</text>
</g>
<!-- v_5_69&#45;&gt;v_5_67 -->
<g id="edge12" class="edge">
<title>v_5_69&#45;&gt;v_5_67</title>
<path fill="none" stroke="#000000" stroke-dasharray="5,2" d="M690.8033,-949C682.2176,-949 673.6476,-949 665.2996,-949"/>
<polygon fill="#000000" stroke="#000000" points="665.2409,-945.5001 655.2409,-949 665.2408,-952.5001 665.2409,-945.5001"/>
</g>
<!-- v_5_68 -->
<g id="node13" class="node">
<title>v_5_68</title>
<path fill="#85cbd0" stroke="#000000" d="M1104,-967C1104,-967 1045,-967 1045,-967 1039,-967 1033,-961 1033,-955 1033,-955 1033,-943 1033,-943 1033,-937 1039,-931 1045,-931 1045,-931 1104,-931 1104,-931 1110,-931 1116,-937 1116,-943 1116,-943 1116,-955 1116,-955 1116,-961 1110,-967 1104,-967"/>
<text text-anchor="middle" x="1074.5" y="-944" font-family="Times,serif" font-size="20.00" fill="#000000">300 freq</text>
</g>
<!-- v_5_68&#45;&gt;v_5_69 -->
<g id="edge3" class="edge">
<title>v_5_68&#45;&gt;v_5_69</title>
<path fill="none" stroke="#000000" d="M1032.7502,-949C1004.1287,-949 964.5612,-949 926.3477,-949"/>
<polygon fill="#000000" stroke="#000000" points="926.1445,-945.5001 916.1445,-949 926.1445,-952.5001 926.1445,-945.5001"/>
</g>
<!-- v_5_77 -->
<g id="node14" class="node">
<title>v_5_77</title>
<polygon fill="#3a85b9" stroke="#000000" points="1519,-967 1297,-967 1297,-931 1519,-931 1519,-967"/>
<text text-anchor="middle" x="1408" y="-944" font-family="Times,serif" font-size="20.00" fill="#ffffff">304 calculate_wavelength</text>
</g>
<!-- v_5_77&#45;&gt;v_5_68 -->
<g id="edge27" class="edge">
<title>v_5_77&#45;&gt;v_5_68</title>
<path fill="none" stroke="#000000" stroke-dasharray="5,2" d="M1296.9493,-949C1239.466,-949 1172.0055,-949 1126.5723,-949"/>
<polygon fill="#000000" stroke="#000000" points="1126.3714,-945.5001 1116.3713,-949 1126.3713,-952.5001 1126.3714,-945.5001"/>
</g>
<!-- v_5_78 -->
<g id="node15" class="node">
<title>v_5_78</title>
<path fill="#85cbd0" stroke="#000000" d="M1797.5,-967C1797.5,-967 1716.5,-967 1716.5,-967 1710.5,-967 1704.5,-961 1704.5,-955 1704.5,-955 1704.5,-943 1704.5,-943 1704.5,-937 1710.5,-931 1716.5,-931 1716.5,-931 1797.5,-931 1797.5,-931 1803.5,-931 1809.5,-937 1809.5,-943 1809.5,-943 1809.5,-955 1809.5,-955 1809.5,-961 1803.5,-967 1797.5,-967"/>
<text text-anchor="middle" x="1757" y="-944" font-family="Times,serif" font-size="20.00" fill="#000000">304 waveL</text>
</g>
<!-- v_5_78&#45;&gt;v_5_77 -->
<g id="edge67" class="edge">
<title>v_5_78&#45;&gt;v_5_77</title>
<path fill="none" stroke="#000000" d="M1704.3733,-949C1658.201,-949 1589.2914,-949 1529.5357,-949"/>
<polygon fill="#000000" stroke="#000000" points="1529.263,-945.5001 1519.2629,-949 1529.2629,-952.5001 1529.263,-945.5001"/>
</g>
<!-- v_5_82 -->
<g id="node16" class="node">
<title>v_5_82</title>
<polygon fill="#3a85b9" stroke="#000000" points="655,-1149 509,-1149 509,-1113 655,-1113 655,-1149"/>
<text text-anchor="middle" x="582" y="-1126" font-family="Times,serif" font-size="20.00" fill="#ffffff">308 file.readline</text>
</g>
<!-- v_5_82&#45;&gt;v_5_58 -->
<g id="edge68" class="edge">
<title>v_5_82&#45;&gt;v_5_58</title>
<path fill="none" stroke="#000000" stroke-dasharray="5,2" d="M518.9205,-1112.9477C515.2597,-1110.355 511.8967,-1107.3902 509,-1104 453.6037,-1039.1674 427.722,-769.0407 420.6047,-680.3497"/>
<polygon fill="#000000" stroke="#000000" points="424.0821,-679.9229 419.8113,-670.227 417.1035,-680.47 424.0821,-679.9229"/>
</g>
<!-- v_5_86 -->
<g id="node17" class="node">
<title>v_5_86</title>
<polygon fill="#3a85b9" stroke="#000000" points="655,-1095 509,-1095 509,-1059 655,-1059 655,-1095"/>
<text text-anchor="middle" x="582" y="-1072" font-family="Times,serif" font-size="20.00" fill="#ffffff">309 file.readline</text>
</g>
<!-- v_5_86&#45;&gt;v_5_58 -->
<g id="edge93" class="edge">
<title>v_5_86&#45;&gt;v_5_58</title>
<path fill="none" stroke="#000000" stroke-dasharray="5,2" d="M519.0202,-1058.8614C515.336,-1056.2889 511.9405,-1053.3523 509,-1050 459.9197,-994.0474 430.4497,-761.9283 421.4547,-680.4357"/>
<polygon fill="#000000" stroke="#000000" points="424.9242,-679.9643 420.367,-670.3996 417.9649,-680.7185 424.9242,-679.9643"/>
</g>
<!-- v_5_87 -->
<g id="node18" class="node">
<title>v_5_87</title>
<polygon fill="#3a85b9" stroke="#000000" points="916,-1095 691,-1095 691,-1059 916,-1059 916,-1095"/>
<text text-anchor="middle" x="803.5" y="-1072" font-family="Times,serif" font-size="20.00" fill="#ffffff">309 int(params.readline())</text>
</g>
<!-- v_5_87&#45;&gt;v_5_86 -->
<g id="edge28" class="edge">
<title>v_5_87&#45;&gt;v_5_86</title>
<path fill="none" stroke="#000000" stroke-dasharray="5,2" d="M690.8033,-1077C682.2176,-1077 673.6476,-1077 665.2996,-1077"/>
<polygon fill="#000000" stroke="#000000" points="665.2409,-1073.5001 655.2409,-1077 665.2408,-1080.5001 665.2409,-1073.5001"/>
</g>
<!-- v_5_89 -->
<g id="node19" class="node">
<title>v_5_89</title>
<path fill="#85cbd0" stroke="#000000" d="M1104,-1095C1104,-1095 1045,-1095 1045,-1095 1039,-1095 1033,-1089 1033,-1083 1033,-1083 1033,-1071 1033,-1071 1033,-1065 1039,-1059 1045,-1059 1045,-1059 1104,-1059 1104,-1059 1110,-1059 1116,-1065 1116,-1071 1116,-1071 1116,-1083 1116,-1083 1116,-1089 1110,-1095 1104,-1095"/>
<text text-anchor="middle" x="1074.5" y="-1072" font-family="Times,serif" font-size="20.00" fill="#000000">309 corr</text>
</g>
<!-- v_5_89&#45;&gt;v_5_87 -->
<g id="edge55" class="edge">
<title>v_5_89&#45;&gt;v_5_87</title>
<path fill="none" stroke="#000000" d="M1032.7502,-1077C1004.1287,-1077 964.5612,-1077 926.3477,-1077"/>
<polygon fill="#000000" stroke="#000000" points="926.1445,-1073.5001 916.1445,-1077 926.1445,-1080.5001 926.1445,-1073.5001"/>
</g>
<!-- v_5_94 -->
<g id="node20" class="node">
<title>v_5_94</title>
<polygon fill="#3a85b9" stroke="#000000" points="655,-1041 509,-1041 509,-1005 655,-1005 655,-1041"/>
<text text-anchor="middle" x="582" y="-1018" font-family="Times,serif" font-size="20.00" fill="#ffffff">313 file.readline</text>
</g>
<!-- v_5_94&#45;&gt;v_5_58 -->
<g id="edge40" class="edge">
<title>v_5_94&#45;&gt;v_5_58</title>
<path fill="none" stroke="#000000" stroke-dasharray="5,2" d="M525.74,-1004.8266C519.4809,-1001.0227 513.6864,-996.4603 509,-991 468.1509,-943.405 434.4604,-753.0237 422.844,-680.3707"/>
<polygon fill="#000000" stroke="#000000" points="426.2469,-679.4804 421.2315,-670.1478 419.3324,-680.571 426.2469,-679.4804"/>
</g>
<!-- v_5_98 -->
<g id="node21" class="node">
<title>v_5_98</title>
<polygon fill="#3a85b9" stroke="#000000" points="876.5,-1021 730.5,-1021 730.5,-985 876.5,-985 876.5,-1021"/>
<text text-anchor="middle" x="803.5" y="-998" font-family="Times,serif" font-size="20.00" fill="#ffffff">314 file.readline</text>
</g>
<!-- v_5_98&#45;&gt;v_5_58 -->
<g id="edge80" class="edge">
<title>v_5_98&#45;&gt;v_5_58</title>
<path fill="none" stroke="#000000" stroke-dasharray="5,2" d="M730.4469,-998.371C645.9984,-992.7135 517.4296,-983.0273 509,-976 462.9172,-937.5834 432.512,-752.1447 422.3017,-680.4131"/>
<polygon fill="#000000" stroke="#000000" points="425.7389,-679.7202 420.8895,-670.3004 418.8062,-680.6884 425.7389,-679.7202"/>
</g>
<!-- v_5_100 -->
<g id="node22" class="node">
<title>v_5_100</title>
<polygon fill="#3a85b9" stroke="#000000" points="1520.5,-1021 1295.5,-1021 1295.5,-985 1520.5,-985 1520.5,-1021"/>
<text text-anchor="middle" x="1408" y="-998" font-family="Times,serif" font-size="20.00" fill="#ffffff">314 int(params.readline())</text>
</g>
<!-- v_5_100&#45;&gt;v_5_98 -->
<g id="edge43" class="edge">
<title>v_5_100&#45;&gt;v_5_98</title>
<path fill="none" stroke="#000000" stroke-dasharray="5,2" d="M1295.3613,-1003C1176.7303,-1003 992.7271,-1003 886.6208,-1003"/>
<polygon fill="#000000" stroke="#000000" points="886.6005,-999.5001 876.6005,-1003 886.6004,-1006.5001 886.6005,-999.5001"/>
</g>
<!-- v_5_99 -->
<g id="node23" class="node">
<title>v_5_99</title>
<path fill="#85cbd0" stroke="#000000" d="M1794,-1021C1794,-1021 1720,-1021 1720,-1021 1714,-1021 1708,-1015 1708,-1009 1708,-1009 1708,-997 1708,-997 1708,-991 1714,-985 1720,-985 1720,-985 1794,-985 1794,-985 1800,-985 1806,-991 1806,-997 1806,-997 1806,-1009 1806,-1009 1806,-1015 1800,-1021 1794,-1021"/>
<text text-anchor="middle" x="1757" y="-998" font-family="Times,serif" font-size="20.00" fill="#000000">314 delstd</text>
</g>
<!-- v_5_99&#45;&gt;v_5_100 -->
<g id="edge7" class="edge">
<title>v_5_99&#45;&gt;v_5_100</title>
<path fill="none" stroke="#000000" d="M1707.737,-1003C1661.9056,-1003 1591.7134,-1003 1530.7739,-1003"/>
<polygon fill="#000000" stroke="#000000" points="1530.6882,-999.5001 1520.6882,-1003 1530.6881,-1006.5001 1530.6882,-999.5001"/>
</g>
<!-- v_5_106 -->
<g id="node24" class="node">
<title>v_5_106</title>
<polygon fill="#3a85b9" stroke="#000000" points="2285,-967 2205,-967 2205,-931 2285,-931 2285,-967"/>
<text text-anchor="middle" x="2245" y="-944" font-family="Times,serif" font-size="20.00" fill="#ffffff">318 exp</text>
</g>
<!-- v_5_103 -->
<g id="node25" class="node">
<title>v_5_103</title>
<path fill="#85cbd0" stroke="#000000" d="M2004,-967C2004,-967 1957,-967 1957,-967 1951,-967 1945,-961 1945,-955 1945,-955 1945,-943 1945,-943 1945,-937 1951,-931 1957,-931 1957,-931 2004,-931 2004,-931 2010,-931 2016,-937 2016,-943 2016,-943 2016,-955 2016,-955 2016,-961 2010,-967 2004,-967"/>
<text text-anchor="middle" x="1980.5" y="-944" font-family="Times,serif" font-size="20.00" fill="#000000">317 bk</text>
</g>
<!-- v_5_106&#45;&gt;v_5_103 -->
<g id="edge79" class="edge">
<title>v_5_106&#45;&gt;v_5_103</title>
<path fill="none" stroke="#000000" stroke-dasharray="5,2" d="M2204.8281,-949C2156.9313,-949 2077.0457,-949 2026.6547,-949"/>
<polygon fill="#000000" stroke="#000000" points="2026.3716,-945.5001 2016.3716,-949 2026.3715,-952.5001 2026.3716,-945.5001"/>
</g>
<!-- v_5_102 -->
<g id="node26" class="node">
<title>v_5_102</title>
<path fill="#85cbd0" stroke="#000000" d="M2014.5,-1021C2014.5,-1021 1946.5,-1021 1946.5,-1021 1940.5,-1021 1934.5,-1015 1934.5,-1009 1934.5,-1009 1934.5,-997 1934.5,-997 1934.5,-991 1940.5,-985 1946.5,-985 1946.5,-985 2014.5,-985 2014.5,-985 2020.5,-985 2026.5,-991 2026.5,-997 2026.5,-997 2026.5,-1009 2026.5,-1009 2026.5,-1015 2020.5,-1021 2014.5,-1021"/>
<text text-anchor="middle" x="1980.5" y="-998" font-family="Times,serif" font-size="20.00" fill="#000000">316 delsq</text>
</g>
<!-- v_5_106&#45;&gt;v_5_102 -->
<g id="edge87" class="edge">
<title>v_5_106&#45;&gt;v_5_102</title>
<path fill="none" stroke="#000000" stroke-dasharray="5,2" d="M2204.8281,-957.2014C2160.0759,-966.338 2087.3976,-981.1759 2036.9439,-991.4765"/>
<polygon fill="#000000" stroke="#000000" points="2035.9468,-988.1078 2026.849,-993.5374 2037.3471,-994.9663 2035.9468,-988.1078"/>
</g>
<!-- v_5_103&#45;&gt;v_5_78 -->
<g id="edge33" class="edge">
<title>v_5_103&#45;&gt;v_5_78</title>
<path fill="none" stroke="#000000" d="M1944.5909,-949C1911.1043,-949 1860.4148,-949 1820.1663,-949"/>
<polygon fill="#000000" stroke="#000000" points="1819.9111,-945.5001 1809.9111,-949 1819.911,-952.5001 1819.9111,-945.5001"/>
</g>
<!-- v_5_102&#45;&gt;v_5_99 -->
<g id="edge72" class="edge">
<title>v_5_102&#45;&gt;v_5_99</title>
<path fill="none" stroke="#000000" d="M1934.4617,-1003C1900.2378,-1003 1853.2611,-1003 1816.2375,-1003"/>
<polygon fill="#000000" stroke="#000000" points="1816.0778,-999.5001 1806.0777,-1003 1816.0777,-1006.5001 1816.0778,-999.5001"/>
</g>
<!-- v_5_107 -->
<g id="node27" class="node">
<title>v_5_107</title>
<path fill="#85cbd0" stroke="#000000" d="M2591,-967C2591,-967 2515,-967 2515,-967 2509,-967 2503,-961 2503,-955 2503,-955 2503,-943 2503,-943 2503,-937 2509,-931 2515,-931 2515,-931 2591,-931 2591,-931 2597,-931 2603,-937 2603,-943 2603,-943 2603,-955 2603,-955 2603,-961 2597,-967 2591,-967"/>
<text text-anchor="middle" x="2553" y="-944" font-family="Times,serif" font-size="20.00" fill="#000000">318 cfact1</text>
</g>
<!-- v_5_107&#45;&gt;v_5_106 -->
<g id="edge26" class="edge">
<title>v_5_107&#45;&gt;v_5_106</title>
<path fill="none" stroke="#000000" d="M2502.829,-949C2445.701,-949 2352.8913,-949 2295.5896,-949"/>
<polygon fill="#000000" stroke="#000000" points="2295.32,-945.5001 2285.32,-949 2295.32,-952.5001 2295.32,-945.5001"/>
</g>
<!-- v_5_115 -->
<g id="node28" class="node">
<title>v_5_115</title>
<polygon fill="#3a85b9" stroke="#000000" points="655,-913 509,-913 509,-877 655,-877 655,-913"/>
<text text-anchor="middle" x="582" y="-890" font-family="Times,serif" font-size="20.00" fill="#ffffff">324 file.readline</text>
</g>
<!-- v_5_115&#45;&gt;v_5_58 -->
<g id="edge63" class="edge">
<title>v_5_115&#45;&gt;v_5_58</title>
<path fill="none" stroke="#000000" stroke-dasharray="5,2" d="M520.7061,-876.909C516.48,-874.3191 512.5121,-871.3659 509,-868 454.5128,-815.7808 431.4613,-725.7288 422.9048,-680.1606"/>
<polygon fill="#000000" stroke="#000000" points="426.313,-679.3349 421.1176,-670.1013 419.4209,-680.5594 426.313,-679.3349"/>
</g>
<!-- v_5_119 -->
<g id="node29" class="node">
<title>v_5_119</title>
<polygon fill="#3a85b9" stroke="#000000" points="655,-859 509,-859 509,-823 655,-823 655,-859"/>
<text text-anchor="middle" x="582" y="-836" font-family="Times,serif" font-size="20.00" fill="#ffffff">325 file.readline</text>
</g>
<!-- v_5_119&#45;&gt;v_5_58 -->
<g id="edge29" class="edge">
<title>v_5_119&#45;&gt;v_5_58</title>
<path fill="none" stroke="#000000" stroke-dasharray="5,2" d="M521.8353,-822.8709C517.253,-820.2808 512.9014,-817.3385 509,-814 466.3368,-777.4926 439.8166,-715.6027 427.234,-679.8158"/>
<polygon fill="#000000" stroke="#000000" points="430.4413,-678.3753 423.9132,-670.0306 423.8126,-680.6249 430.4413,-678.3753"/>
</g>
<!-- v_5_120 -->
<g id="node30" class="node">
<title>v_5_120</title>
<polygon fill="#3a85b9" stroke="#000000" points="916,-859 691,-859 691,-823 916,-823 916,-859"/>
<text text-anchor="middle" x="803.5" y="-836" font-family="Times,serif" font-size="20.00" fill="#ffffff">325 int(params.readline())</text>
</g>
<!-- v_5_120&#45;&gt;v_5_119 -->
<g id="edge34" class="edge">
<title>v_5_120&#45;&gt;v_5_119</title>
<path fill="none" stroke="#000000" stroke-dasharray="5,2" d="M690.8033,-841C682.2176,-841 673.6476,-841 665.2996,-841"/>
<polygon fill="#000000" stroke="#000000" points="665.2409,-837.5001 655.2409,-841 665.2408,-844.5001 665.2409,-837.5001"/>
</g>
<!-- v_5_122 -->
<g id="node31" class="node">
<title>v_5_122</title>
<path fill="#85cbd0" stroke="#000000" d="M1103,-859C1103,-859 1046,-859 1046,-859 1040,-859 1034,-853 1034,-847 1034,-847 1034,-835 1034,-835 1034,-829 1040,-823 1046,-823 1046,-823 1103,-823 1103,-823 1109,-823 1115,-829 1115,-835 1115,-835 1115,-847 1115,-847 1115,-853 1109,-859 1103,-859"/>
<text text-anchor="middle" x="1074.5" y="-836" font-family="Times,serif" font-size="20.00" fill="#000000">325 ipol</text>
</g>
<!-- v_5_122&#45;&gt;v_5_120 -->
<g id="edge60" class="edge">
<title>v_5_122&#45;&gt;v_5_120</title>
<path fill="none" stroke="#000000" d="M1033.9286,-841C1005.2611,-841 965.2011,-841 926.5108,-841"/>
<polygon fill="#000000" stroke="#000000" points="926.1805,-837.5001 916.1805,-841 926.1804,-844.5001 926.1805,-837.5001"/>
</g>
<!-- v_5_128 -->
<g id="node32" class="node">
<title>v_5_128</title>
<polygon fill="#3a85b9" stroke="#000000" points="1583,-859 1233,-859 1233,-823 1583,-823 1583,-859"/>
<text text-anchor="middle" x="1408" y="-836" font-family="Times,serif" font-size="20.00" fill="#ffffff">329 calculate_incident_wave_polarization</text>
</g>
<!-- v_5_128&#45;&gt;v_5_122 -->
<g id="edge11" class="edge">
<title>v_5_128&#45;&gt;v_5_122</title>
<path fill="none" stroke="#000000" stroke-dasharray="5,2" d="M1232.9481,-841C1193.591,-841 1154.8521,-841 1125.5305,-841"/>
<polygon fill="#000000" stroke="#000000" points="1125.1702,-837.5001 1115.1702,-841 1125.1701,-844.5001 1125.1702,-837.5001"/>
</g>
<!-- v_5_129 -->
<g id="node33" class="node">
<title>v_5_129</title>
<path fill="#85cbd0" stroke="#000000" d="M1779,-832C1779,-832 1735,-832 1735,-832 1729,-832 1723,-826 1723,-820 1723,-820 1723,-808 1723,-808 1723,-802 1729,-796 1735,-796 1735,-796 1779,-796 1779,-796 1785,-796 1791,-802 1791,-808 1791,-808 1791,-820 1791,-820 1791,-826 1785,-832 1779,-832"/>
<text text-anchor="middle" x="1757" y="-809" font-family="Times,serif" font-size="20.00" fill="#000000">329 Et</text>
</g>
<!-- v_5_129&#45;&gt;v_5_128 -->
<g id="edge53" class="edge">
<title>v_5_129&#45;&gt;v_5_128</title>
<path fill="none" stroke="#000000" d="M1722.901,-816.638C1691.706,-819.0514 1642.9379,-822.8243 1593.0177,-826.6863"/>
<polygon fill="#000000" stroke="#000000" points="1592.7234,-823.1985 1583.0232,-827.4595 1593.2634,-830.1777 1592.7234,-823.1985"/>
</g>
<!-- v_5_130 -->
<g id="node34" class="node">
<title>v_5_130</title>
<path fill="#85cbd0" stroke="#000000" d="M1781.5,-886C1781.5,-886 1732.5,-886 1732.5,-886 1726.5,-886 1720.5,-880 1720.5,-874 1720.5,-874 1720.5,-862 1720.5,-862 1720.5,-856 1726.5,-850 1732.5,-850 1732.5,-850 1781.5,-850 1781.5,-850 1787.5,-850 1793.5,-856 1793.5,-862 1793.5,-862 1793.5,-874 1793.5,-874 1793.5,-880 1787.5,-886 1781.5,-886"/>
<text text-anchor="middle" x="1757" y="-863" font-family="Times,serif" font-size="20.00" fill="#000000">329 Ep</text>
</g>
<!-- v_5_130&#45;&gt;v_5_128 -->
<g id="edge10" class="edge">
<title>v_5_130&#45;&gt;v_5_128</title>
<path fill="none" stroke="#000000" d="M1720.3105,-865.1616C1689.1202,-862.7486 1641.8024,-859.0879 1593.3641,-855.3405"/>
<polygon fill="#000000" stroke="#000000" points="1593.5819,-851.847 1583.3417,-854.5651 1593.0419,-858.8261 1593.5819,-851.847"/>
</g>
<!-- v_5_152 -->
<g id="node35" class="node">
<title>v_5_152</title>
<polygon fill="#3a85b9" stroke="#000000" points="1197,-157 952,-157 952,-121 1197,-121 1197,-157"/>
<text text-anchor="middle" x="1074.5" y="-134" font-family="Times,serif" font-size="20.00" fill="#ffffff">335 read_model_coordinates</text>
</g>
<!-- v_5_152&#45;&gt;v_5_52 -->
<g id="edge46" class="edge">
<title>v_5_152&#45;&gt;v_5_52</title>
<path fill="none" stroke="#000000" stroke-dasharray="5,2" d="M951.6866,-139C920.16,-139 887.7093,-139 861.2418,-139"/>
<polygon fill="#000000" stroke="#000000" points="861.0341,-135.5001 851.0341,-139 861.0341,-142.5001 861.0341,-135.5001"/>
</g>
<!-- v_5_153 -->
<g id="node36" class="node">
<title>v_5_153</title>
<path fill="#85cbd0" stroke="#000000" d="M1437.5,-157C1437.5,-157 1378.5,-157 1378.5,-157 1372.5,-157 1366.5,-151 1366.5,-145 1366.5,-145 1366.5,-133 1366.5,-133 1366.5,-127 1372.5,-121 1378.5,-121 1378.5,-121 1437.5,-121 1437.5,-121 1443.5,-121 1449.5,-127 1449.5,-133 1449.5,-133 1449.5,-145 1449.5,-145 1449.5,-151 1443.5,-157 1437.5,-157"/>
<text text-anchor="middle" x="1408" y="-134" font-family="Times,serif" font-size="20.00" fill="#000000">335 ypts</text>
</g>
<!-- v_5_153&#45;&gt;v_5_152 -->
<g id="edge24" class="edge">
<title>v_5_153&#45;&gt;v_5_152</title>
<path fill="none" stroke="#000000" d="M1366.4363,-139C1326.574,-139 1264.2189,-139 1207.3545,-139"/>
<polygon fill="#000000" stroke="#000000" points="1207.1773,-135.5001 1197.1773,-139 1207.1773,-142.5001 1207.1773,-135.5001"/>
</g>
<!-- v_5_154 -->
<g id="node37" class="node">
<title>v_5_154</title>
<path fill="#85cbd0" stroke="#000000" d="M1437.5,-265C1437.5,-265 1378.5,-265 1378.5,-265 1372.5,-265 1366.5,-259 1366.5,-253 1366.5,-253 1366.5,-241 1366.5,-241 1366.5,-235 1372.5,-229 1378.5,-229 1378.5,-229 1437.5,-229 1437.5,-229 1443.5,-229 1449.5,-235 1449.5,-241 1449.5,-241 1449.5,-253 1449.5,-253 1449.5,-259 1443.5,-265 1437.5,-265"/>
<text text-anchor="middle" x="1408" y="-242" font-family="Times,serif" font-size="20.00" fill="#000000">335 xpts</text>
</g>
<!-- v_5_154&#45;&gt;v_5_152 -->
<g id="edge70" class="edge">
<title>v_5_154&#45;&gt;v_5_152</title>
<path fill="none" stroke="#000000" d="M1366.1672,-249.6807C1328.4904,-250.0926 1273.0393,-245.5475 1233,-220 1208.6838,-204.4848 1220.8085,-182.2836 1197,-166 1194.8373,-164.5208 1192.6073,-163.1211 1190.3212,-161.7965"/>
<polygon fill="#000000" stroke="#000000" points="1191.7314,-158.5843 1181.248,-157.0515 1188.4874,-164.7873 1191.7314,-158.5843"/>
</g>
<!-- v_5_155 -->
<g id="node38" class="node">
<title>v_5_155</title>
<path fill="#85cbd0" stroke="#000000" d="M1437.5,-211C1437.5,-211 1378.5,-211 1378.5,-211 1372.5,-211 1366.5,-205 1366.5,-199 1366.5,-199 1366.5,-187 1366.5,-187 1366.5,-181 1372.5,-175 1378.5,-175 1378.5,-175 1437.5,-175 1437.5,-175 1443.5,-175 1449.5,-181 1449.5,-187 1449.5,-187 1449.5,-199 1449.5,-199 1449.5,-205 1443.5,-211 1437.5,-211"/>
<text text-anchor="middle" x="1408" y="-188" font-family="Times,serif" font-size="20.00" fill="#000000">335 zpts</text>
</g>
<!-- v_5_155&#45;&gt;v_5_152 -->
<g id="edge13" class="edge">
<title>v_5_155&#45;&gt;v_5_152</title>
<path fill="none" stroke="#000000" d="M1366.2476,-186.746C1330.7748,-181.3876 1278.5165,-173.3876 1233,-166 1218.7843,-163.6927 1203.8607,-161.2187 1189.0919,-158.739"/>
<polygon fill="#000000" stroke="#000000" points="1189.3452,-155.2325 1178.9028,-157.0233 1188.1828,-162.1353 1189.3452,-155.2325"/>
</g>
<!-- v_5_158 -->
<g id="node39" class="node">
<title>v_5_158</title>
<polygon fill="#3a85b9" stroke="#000000" points="2614,-913 2492,-913 2492,-877 2614,-877 2614,-913"/>
<text text-anchor="middle" x="2553" y="-890" font-family="Times,serif" font-size="20.00" fill="#ffffff">336 array_str</text>
</g>
<!-- v_5_161 -->
<g id="node40" class="node">
<title>v_5_161</title>
<polygon fill="#3a85b9" stroke="#000000" points="2614,-859 2492,-859 2492,-823 2614,-823 2614,-859"/>
<text text-anchor="middle" x="2553" y="-836" font-family="Times,serif" font-size="20.00" fill="#ffffff">337 array_str</text>
</g>
<!-- v_5_164 -->
<g id="node41" class="node">
<title>v_5_164</title>
<polygon fill="#3a85b9" stroke="#000000" points="2614,-805 2492,-805 2492,-769 2614,-769 2614,-805"/>
<text text-anchor="middle" x="2553" y="-782" font-family="Times,serif" font-size="20.00" fill="#ffffff">338 array_str</text>
</g>
<!-- v_5_168 -->
<g id="node42" class="node">
<title>v_5_168</title>
<polygon fill="#3a85b9" stroke="#000000" points="1794.5,-258 1719.5,-258 1719.5,-222 1794.5,-222 1794.5,-258"/>
<text text-anchor="middle" x="1757" y="-235" font-family="Times,serif" font-size="20.00" fill="#ffffff">339 len</text>
</g>
<!-- v_5_168&#45;&gt;v_5_154 -->
<g id="edge92" class="edge">
<title>v_5_168&#45;&gt;v_5_154</title>
<path fill="none" stroke="#000000" stroke-dasharray="5,2" d="M1719.3193,-240.7558C1656.5731,-242.0143 1530.5777,-244.5414 1459.6211,-245.9646"/>
<polygon fill="#000000" stroke="#000000" points="1459.4933,-242.4664 1449.5655,-246.1663 1459.6337,-249.465 1459.4933,-242.4664"/>
</g>
<!-- v_5_169 -->
<g id="node43" class="node">
<title>v_5_169</title>
<path fill="#85cbd0" stroke="#000000" d="M2018,-245C2018,-245 1943,-245 1943,-245 1937,-245 1931,-239 1931,-233 1931,-233 1931,-221 1931,-221 1931,-215 1937,-209 1943,-209 1943,-209 2018,-209 2018,-209 2024,-209 2030,-215 2030,-221 2030,-221 2030,-233 2030,-233 2030,-239 2024,-245 2018,-245"/>
<text text-anchor="middle" x="1980.5" y="-222" font-family="Times,serif" font-size="20.00" fill="#000000">339 nverts</text>
</g>
<!-- v_5_169&#45;&gt;v_5_168 -->
<g id="edge75" class="edge">
<title>v_5_169&#45;&gt;v_5_168</title>
<path fill="none" stroke="#000000" d="M1930.8981,-229.8851C1893.2816,-232.0731 1841.8896,-235.0624 1804.7386,-237.2233"/>
<polygon fill="#000000" stroke="#000000" points="1804.4409,-233.7346 1794.661,-237.8094 1804.8474,-240.7228 1804.4409,-233.7346"/>
</g>
<!-- v_5_185 -->
<g id="node44" class="node">
<title>v_5_185</title>
<polygon fill="#3a85b9" stroke="#000000" points="1175,-211 974,-211 974,-175 1175,-175 1175,-211"/>
<text text-anchor="middle" x="1074.5" y="-188" font-family="Times,serif" font-size="20.00" fill="#ffffff">343 read_facets_model</text>
</g>
<!-- v_5_185&#45;&gt;v_5_52 -->
<g id="edge49" class="edge">
<title>v_5_185&#45;&gt;v_5_52</title>
<path fill="none" stroke="#000000" stroke-dasharray="5,2" d="M983.8842,-174.9437C943.4108,-166.8789 896.9144,-157.6139 861.2656,-150.5105"/>
<polygon fill="#000000" stroke="#000000" points="861.5332,-146.9951 851.042,-148.4733 860.1652,-153.8601 861.5332,-146.9951"/>
</g>
<!-- v_5_186 -->
<g id="node45" class="node">
<title>v_5_186</title>
<path fill="#85cbd0" stroke="#000000" d="M1445,-346C1445,-346 1371,-346 1371,-346 1365,-346 1359,-340 1359,-334 1359,-334 1359,-322 1359,-322 1359,-316 1365,-310 1371,-310 1371,-310 1445,-310 1445,-310 1451,-310 1457,-316 1457,-322 1457,-322 1457,-334 1457,-334 1457,-340 1451,-346 1445,-346"/>
<text text-anchor="middle" x="1408" y="-323" font-family="Times,serif" font-size="20.00" fill="#000000">343 facets</text>
</g>
<!-- v_5_186&#45;&gt;v_5_185 -->
<g id="edge91" class="edge">
<title>v_5_186&#45;&gt;v_5_185</title>
<path fill="none" stroke="#000000" d="M1358.6696,-321.8979C1321.1858,-315.2337 1269.9505,-301.5715 1233,-274 1209.8821,-256.75 1220.8085,-236.2836 1197,-220 1192.9976,-217.2626 1188.7648,-214.7971 1184.3718,-212.577"/>
<polygon fill="#000000" stroke="#000000" points="1185.7018,-209.3366 1175.1525,-208.3559 1182.7877,-215.7012 1185.7018,-209.3366"/>
</g>
<!-- v_5_189 -->
<g id="node46" class="node">
<title>v_5_189</title>
<polygon fill="#3a85b9" stroke="#000000" points="2620,-751 2486,-751 2486,-715 2620,-715 2620,-751"/>
<text text-anchor="middle" x="2553" y="-728" font-family="Times,serif" font-size="20.00" fill="#ffffff">344 array_repr</text>
</g>
<!-- v_5_203 -->
<g id="node47" class="node">
<title>v_5_203</title>
<polygon fill="#3a85b9" stroke="#000000" points="1889,-353 1625,-353 1625,-317 1889,-317 1889,-353"/>
<text text-anchor="middle" x="1757" y="-330" font-family="Times,serif" font-size="20.00" fill="#ffffff">347 generate_transpose_matrix</text>
</g>
<!-- v_5_203&#45;&gt;v_5_186 -->
<g id="edge62" class="edge">
<title>v_5_203&#45;&gt;v_5_186</title>
<path fill="none" stroke="#000000" stroke-dasharray="5,2" d="M1624.5604,-332.3436C1570.2906,-331.2551 1510.2492,-330.0508 1467.1789,-329.187"/>
<polygon fill="#000000" stroke="#000000" points="1467.2274,-325.6873 1457.1592,-328.986 1467.087,-332.6859 1467.2274,-325.6873"/>
</g>
<!-- v_5_204 -->
<g id="node48" class="node">
<title>v_5_204</title>
<path fill="#85cbd0" stroke="#000000" d="M2004.5,-353C2004.5,-353 1956.5,-353 1956.5,-353 1950.5,-353 1944.5,-347 1944.5,-341 1944.5,-341 1944.5,-329 1944.5,-329 1944.5,-323 1950.5,-317 1956.5,-317 1956.5,-317 2004.5,-317 2004.5,-317 2010.5,-317 2016.5,-323 2016.5,-329 2016.5,-329 2016.5,-341 2016.5,-341 2016.5,-347 2010.5,-353 2004.5,-353"/>
<text text-anchor="middle" x="1980.5" y="-330" font-family="Times,serif" font-size="20.00" fill="#000000">347 Rs</text>
</g>
<!-- v_5_204&#45;&gt;v_5_203 -->
<g id="edge88" class="edge">
<title>v_5_204&#45;&gt;v_5_203</title>
<path fill="none" stroke="#000000" d="M1944.0934,-335C1931.1867,-335 1915.7702,-335 1899.4028,-335"/>
<polygon fill="#000000" stroke="#000000" points="1899.1029,-331.5001 1889.1028,-335 1899.1028,-338.5001 1899.1029,-331.5001"/>
</g>
<!-- v_5_205 -->
<g id="node49" class="node">
<title>v_5_205</title>
<path fill="#85cbd0" stroke="#000000" d="M2011.5,-299C2011.5,-299 1949.5,-299 1949.5,-299 1943.5,-299 1937.5,-293 1937.5,-287 1937.5,-287 1937.5,-275 1937.5,-275 1937.5,-269 1943.5,-263 1949.5,-263 1949.5,-263 2011.5,-263 2011.5,-263 2017.5,-263 2023.5,-269 2023.5,-275 2023.5,-275 2023.5,-287 2023.5,-287 2023.5,-293 2017.5,-299 2011.5,-299"/>
<text text-anchor="middle" x="1980.5" y="-276" font-family="Times,serif" font-size="20.00" fill="#000000">347 nfcv</text>
</g>
<!-- v_5_205&#45;&gt;v_5_203 -->
<g id="edge6" class="edge">
<title>v_5_205&#45;&gt;v_5_203</title>
<path fill="none" stroke="#000000" d="M1937.407,-291.4117C1910.2772,-297.9666 1874.3331,-306.6511 1841.6725,-314.5422"/>
<polygon fill="#000000" stroke="#000000" points="1840.5536,-311.2118 1831.6553,-316.9625 1842.1976,-318.016 1840.5536,-311.2118"/>
</g>
<!-- v_5_206 -->
<g id="node50" class="node">
<title>v_5_206</title>
<path fill="#85cbd0" stroke="#000000" d="M2018,-569C2018,-569 1943,-569 1943,-569 1937,-569 1931,-563 1931,-557 1931,-557 1931,-545 1931,-545 1931,-539 1937,-533 1943,-533 1943,-533 2018,-533 2018,-533 2024,-533 2030,-539 2030,-545 2030,-545 2030,-557 2030,-557 2030,-563 2024,-569 2018,-569"/>
<text text-anchor="middle" x="1980.5" y="-546" font-family="Times,serif" font-size="20.00" fill="#000000">347 node1</text>
</g>
<!-- v_5_206&#45;&gt;v_5_203 -->
<g id="edge78" class="edge">
<title>v_5_206&#45;&gt;v_5_203</title>
<path fill="none" stroke="#000000" d="M1939.7421,-532.8289C1936.4652,-530.2193 1933.472,-527.2853 1931,-524 1886.6543,-465.0639 1947.8132,-413.4856 1895,-362 1894.0413,-361.0654 1893.0603,-360.1584 1892.0585,-359.2784"/>
<polygon fill="#000000" stroke="#000000" points="1894.0453,-356.3905 1883.9923,-353.0457 1889.7653,-361.9296 1894.0453,-356.3905"/>
</g>
<!-- v_5_207 -->
<g id="node51" class="node">
<title>v_5_207</title>
<path fill="#85cbd0" stroke="#000000" d="M2012,-515C2012,-515 1949,-515 1949,-515 1943,-515 1937,-509 1937,-503 1937,-503 1937,-491 1937,-491 1937,-485 1943,-479 1949,-479 1949,-479 2012,-479 2012,-479 2018,-479 2024,-485 2024,-491 2024,-491 2024,-503 2024,-503 2024,-509 2018,-515 2012,-515"/>
<text text-anchor="middle" x="1980.5" y="-492" font-family="Times,serif" font-size="20.00" fill="#000000">347 ilum</text>
</g>
<!-- v_5_207&#45;&gt;v_5_203 -->
<g id="edge47" class="edge">
<title>v_5_207&#45;&gt;v_5_203</title>
<path fill="none" stroke="#000000" d="M1940.5698,-478.9156C1937.0394,-476.2694 1933.7635,-473.3037 1931,-470 1898.5366,-431.1911 1933.001,-395.4054 1895,-362 1893.8254,-360.9674 1892.6232,-359.9697 1891.3954,-359.0055"/>
<polygon fill="#000000" stroke="#000000" points="1893.1506,-355.9628 1882.9444,-353.1197 1889.15,-361.707 1893.1506,-355.9628"/>
</g>
<!-- v_5_208 -->
<g id="node52" class="node">
<title>v_5_208</title>
<path fill="#85cbd0" stroke="#000000" d="M2018,-407C2018,-407 1943,-407 1943,-407 1937,-407 1931,-401 1931,-395 1931,-395 1931,-383 1931,-383 1931,-377 1937,-371 1943,-371 1943,-371 2018,-371 2018,-371 2024,-371 2030,-377 2030,-383 2030,-383 2030,-395 2030,-395 2030,-401 2024,-407 2018,-407"/>
<text text-anchor="middle" x="1980.5" y="-384" font-family="Times,serif" font-size="20.00" fill="#000000">347 node3</text>
</g>
<!-- v_5_208&#45;&gt;v_5_203 -->
<g id="edge20" class="edge">
<title>v_5_208&#45;&gt;v_5_203</title>
<path fill="none" stroke="#000000" d="M1930.5879,-372.2003C1918.9777,-368.5822 1906.6148,-364.9601 1895,-362 1885.6853,-359.6261 1875.9713,-357.3437 1866.2011,-355.1808"/>
<polygon fill="#000000" stroke="#000000" points="1866.9399,-351.7597 1856.425,-353.0588 1865.455,-358.6004 1866.9399,-351.7597"/>
</g>
<!-- v_5_209 -->
<g id="node53" class="node">
<title>v_5_209</title>
<path fill="#85cbd0" stroke="#000000" d="M2018,-461C2018,-461 1943,-461 1943,-461 1937,-461 1931,-455 1931,-449 1931,-449 1931,-437 1931,-437 1931,-431 1937,-425 1943,-425 1943,-425 2018,-425 2018,-425 2024,-425 2030,-431 2030,-437 2030,-437 2030,-449 2030,-449 2030,-455 2024,-461 2018,-461"/>
<text text-anchor="middle" x="1980.5" y="-438" font-family="Times,serif" font-size="20.00" fill="#000000">347 node2</text>
</g>
<!-- v_5_209&#45;&gt;v_5_203 -->
<g id="edge45" class="edge">
<title>v_5_209&#45;&gt;v_5_203</title>
<path fill="none" stroke="#000000" d="M1942.6873,-424.9403C1938.5362,-422.2258 1934.5387,-419.2381 1931,-416 1909.7201,-396.5278 1919,-378 1895,-362 1892.699,-360.466 1890.3314,-359.0149 1887.9076,-357.6423"/>
<polygon fill="#000000" stroke="#000000" points="1889.3978,-354.4729 1878.9046,-353.0084 1886.1942,-360.6969 1889.3978,-354.4729"/>
</g>
<!-- v_5_212 -->
<g id="node54" class="node">
<title>v_5_212</title>
<polygon fill="#3a85b9" stroke="#000000" points="2620,-697 2486,-697 2486,-661 2620,-661 2620,-697"/>
<text text-anchor="middle" x="2553" y="-674" font-family="Times,serif" font-size="20.00" fill="#ffffff">348 array_repr</text>
</g>
<!-- v_5_215 -->
<g id="node55" class="node">
<title>v_5_215</title>
<polygon fill="#3a85b9" stroke="#000000" points="2620,-643 2486,-643 2486,-607 2620,-607 2620,-643"/>
<text text-anchor="middle" x="2553" y="-620" font-family="Times,serif" font-size="20.00" fill="#ffffff">349 array_repr</text>
</g>
<!-- v_5_218 -->
<g id="node56" class="node">
<title>v_5_218</title>
<polygon fill="#3a85b9" stroke="#000000" points="2620,-589 2486,-589 2486,-553 2620,-553 2620,-589"/>
<text text-anchor="middle" x="2553" y="-566" font-family="Times,serif" font-size="20.00" fill="#ffffff">350 array_repr</text>
</g>
<!-- v_5_221 -->
<g id="node57" class="node">
<title>v_5_221</title>
<polygon fill="#3a85b9" stroke="#000000" points="2620,-535 2486,-535 2486,-499 2620,-499 2620,-535"/>
<text text-anchor="middle" x="2553" y="-512" font-family="Times,serif" font-size="20.00" fill="#ffffff">351 array_repr</text>
</g>
<!-- v_5_225 -->
<g id="node58" class="node">
<title>v_5_225</title>
<polygon fill="#3a85b9" stroke="#000000" points="2282.5,-454 2207.5,-454 2207.5,-418 2282.5,-418 2282.5,-454"/>
<text text-anchor="middle" x="2245" y="-431" font-family="Times,serif" font-size="20.00" fill="#ffffff">352 len</text>
</g>
<!-- v_5_225&#45;&gt;v_5_208 -->
<g id="edge52" class="edge">
<title>v_5_225&#45;&gt;v_5_208</title>
<path fill="none" stroke="#000000" stroke-dasharray="5,2" d="M2207.3845,-429.316C2163.7949,-421.5704 2091.4016,-408.7065 2040.1236,-399.5947"/>
<polygon fill="#000000" stroke="#000000" points="2040.6224,-396.1286 2030.1643,-397.825 2039.3977,-403.0207 2040.6224,-396.1286"/>
</g>
<!-- v_5_226 -->
<g id="node59" class="node">
<title>v_5_226</title>
<path fill="#85cbd0" stroke="#000000" d="M2584.5,-481C2584.5,-481 2521.5,-481 2521.5,-481 2515.5,-481 2509.5,-475 2509.5,-469 2509.5,-469 2509.5,-457 2509.5,-457 2509.5,-451 2515.5,-445 2521.5,-445 2521.5,-445 2584.5,-445 2584.5,-445 2590.5,-445 2596.5,-451 2596.5,-457 2596.5,-457 2596.5,-469 2596.5,-469 2596.5,-475 2590.5,-481 2584.5,-481"/>
<text text-anchor="middle" x="2553" y="-458" font-family="Times,serif" font-size="20.00" fill="#000000">352 ntria</text>
</g>
<!-- v_5_226&#45;&gt;v_5_225 -->
<g id="edge65" class="edge">
<title>v_5_226&#45;&gt;v_5_225</title>
<path fill="none" stroke="#000000" d="M2509.1982,-459.1602C2452.0123,-454.1472 2352.2532,-445.4021 2293.0465,-440.2119"/>
<polygon fill="#000000" stroke="#000000" points="2293.106,-436.7038 2282.8386,-439.317 2292.4947,-443.677 2293.106,-436.7038"/>
</g>
<!-- v_5_246 -->
<g id="node60" class="node">
<title>v_5_246</title>
<polygon fill="#3a85b9" stroke="#000000" points="1895,-198 1619,-198 1619,-162 1895,-162 1895,-198"/>
<text text-anchor="middle" x="1757" y="-175" font-family="Times,serif" font-size="20.00" fill="#ffffff">356 generate_coordinates_points</text>
</g>
<!-- v_5_246&#45;&gt;v_5_153 -->
<g id="edge17" class="edge">
<title>v_5_246&#45;&gt;v_5_153</title>
<path fill="none" stroke="#000000" stroke-dasharray="5,2" d="M1618.8154,-163.7663C1562.8742,-157.1944 1501.723,-150.0104 1459.758,-145.0805"/>
<polygon fill="#000000" stroke="#000000" points="1460.1228,-141.5993 1449.7827,-143.9086 1459.306,-148.5515 1460.1228,-141.5993"/>
</g>
<!-- v_5_246&#45;&gt;v_5_154 -->
<g id="edge66" class="edge">
<title>v_5_246&#45;&gt;v_5_154</title>
<path fill="none" stroke="#000000" stroke-dasharray="5,2" d="M1684.0187,-198.0239C1652.9854,-205.3636 1616.3332,-213.606 1583,-220 1541.6448,-227.9328 1494.4427,-235.1065 1459.4909,-240.0623"/>
<polygon fill="#000000" stroke="#000000" points="1458.9317,-236.6064 1449.5158,-241.4637 1459.9056,-243.5383 1458.9317,-236.6064"/>
</g>
<!-- v_5_246&#45;&gt;v_5_155 -->
<g id="edge95" class="edge">
<title>v_5_246&#45;&gt;v_5_155</title>
<path fill="none" stroke="#000000" stroke-dasharray="5,2" d="M1618.8154,-185.1473C1562.9925,-187.2266 1501.9815,-189.4993 1460.0245,-191.0621"/>
<polygon fill="#000000" stroke="#000000" points="1459.6454,-187.5737 1449.7827,-191.4436 1459.9061,-194.5689 1459.6454,-187.5737"/>
</g>
<!-- v_5_247 -->
<g id="node61" class="node">
<title>v_5_247</title>
<path fill="#85cbd0" stroke="#000000" d="M1997.5,-191C1997.5,-191 1963.5,-191 1963.5,-191 1957.5,-191 1951.5,-185 1951.5,-179 1951.5,-179 1951.5,-167 1951.5,-167 1951.5,-161 1957.5,-155 1963.5,-155 1963.5,-155 1997.5,-155 1997.5,-155 2003.5,-155 2009.5,-161 2009.5,-167 2009.5,-167 2009.5,-179 2009.5,-179 2009.5,-185 2003.5,-191 1997.5,-191"/>
<text text-anchor="middle" x="1980.5" y="-168" font-family="Times,serif" font-size="20.00" fill="#000000">356 r</text>
</g>
<!-- v_5_247&#45;&gt;v_5_246 -->
<g id="edge32" class="edge">
<title>v_5_247&#45;&gt;v_5_246</title>
<path fill="none" stroke="#000000" d="M1951.2813,-173.9151C1938.6205,-174.3117 1922.7664,-174.8082 1905.6067,-175.3457"/>
<polygon fill="#000000" stroke="#000000" points="1905.2522,-171.8549 1895.3667,-175.6664 1905.4714,-178.8515 1905.2522,-171.8549"/>
</g>
<!-- v_5_251 -->
<g id="node62" class="node">
<title>v_5_251</title>
<polygon fill="#3a85b9" stroke="#000000" points="655,-805 509,-805 509,-769 655,-769 655,-805"/>
<text text-anchor="middle" x="582" y="-782" font-family="Times,serif" font-size="20.00" fill="#ffffff">364 file.readline</text>
</g>
<!-- v_5_251&#45;&gt;v_5_58 -->
<g id="edge51" class="edge">
<title>v_5_251&#45;&gt;v_5_58</title>
<path fill="none" stroke="#000000" stroke-dasharray="5,2" d="M524.3515,-768.9799C518.9637,-766.3308 513.7499,-763.3467 509,-760 477.8321,-738.0396 451.0703,-702.7871 434.9025,-678.5677"/>
<polygon fill="#000000" stroke="#000000" points="437.8318,-676.6521 429.4367,-670.1889 431.969,-680.4767 437.8318,-676.6521"/>
</g>
<!-- v_5_255 -->
<g id="node63" class="node">
<title>v_5_255</title>
<polygon fill="#3a85b9" stroke="#000000" points="655,-157 509,-157 509,-121 655,-121 655,-157"/>
<text text-anchor="middle" x="582" y="-134" font-family="Times,serif" font-size="20.00" fill="#ffffff">365 file.readline</text>
</g>
<!-- v_5_255&#45;&gt;v_5_58 -->
<g id="edge83" class="edge">
<title>v_5_255&#45;&gt;v_5_58</title>
<path fill="none" stroke="#000000" stroke-dasharray="5,2" d="M518.8683,-157.0079C515.2197,-159.6111 511.8738,-162.5903 509,-166 449.6102,-236.4641 426.1764,-530.6984 420.1661,-623.6964"/>
<polygon fill="#000000" stroke="#000000" points="416.6673,-623.5702 419.533,-633.7701 423.6535,-624.0093 416.6673,-623.5702"/>
</g>
<!-- v_5_257 -->
<g id="node64" class="node">
<title>v_5_257</title>
<polygon fill="#3a85b9" stroke="#000000" points="916,-238 691,-238 691,-202 916,-202 916,-238"/>
<text text-anchor="middle" x="803.5" y="-215" font-family="Times,serif" font-size="20.00" fill="#ffffff">365 int(params.readline())</text>
</g>
<!-- v_5_257&#45;&gt;v_5_255 -->
<g id="edge31" class="edge">
<title>v_5_257&#45;&gt;v_5_255</title>
<path fill="none" stroke="#000000" stroke-dasharray="5,2" d="M754.0668,-201.9228C720.6184,-189.6911 676.2739,-173.4749 640.9802,-160.5684"/>
<polygon fill="#000000" stroke="#000000" points="641.8759,-157.1693 631.2821,-157.0219 639.4718,-163.7435 641.8759,-157.1693"/>
</g>
<!-- v_5_256 -->
<g id="node65" class="node">
<title>v_5_256</title>
<path fill="#85cbd0" stroke="#000000" d="M1110,-265C1110,-265 1039,-265 1039,-265 1033,-265 1027,-259 1027,-253 1027,-253 1027,-241 1027,-241 1027,-235 1033,-229 1039,-229 1039,-229 1110,-229 1110,-229 1116,-229 1122,-235 1122,-241 1122,-241 1122,-253 1122,-253 1122,-259 1116,-265 1110,-265"/>
<text text-anchor="middle" x="1074.5" y="-242" font-family="Times,serif" font-size="20.00" fill="#000000">365 pstart</text>
</g>
<!-- v_5_256&#45;&gt;v_5_257 -->
<g id="edge41" class="edge">
<title>v_5_256&#45;&gt;v_5_257</title>
<path fill="none" stroke="#000000" d="M1026.9853,-242.2661C998.8875,-239.4666 961.8968,-235.7812 926.1155,-232.2163"/>
<polygon fill="#000000" stroke="#000000" points="926.3615,-228.7236 916.0637,-231.2148 925.6675,-235.6891 926.3615,-228.7236"/>
</g>
<!-- v_5_262 -->
<g id="node66" class="node">
<title>v_5_262</title>
<polygon fill="#3a85b9" stroke="#000000" points="655,-751 509,-751 509,-715 655,-715 655,-751"/>
<text text-anchor="middle" x="582" y="-728" font-family="Times,serif" font-size="20.00" fill="#ffffff">369 file.readline</text>
</g>
<!-- v_5_262&#45;&gt;v_5_58 -->
<g id="edge64" class="edge">
<title>v_5_262&#45;&gt;v_5_58</title>
<path fill="none" stroke="#000000" stroke-dasharray="5,2" d="M529.6696,-714.9779C522.6364,-712.1699 515.5827,-709.1484 509,-706 490.4777,-697.1412 470.8041,-685.6726 454.5476,-675.5846"/>
<polygon fill="#000000" stroke="#000000" points="456.226,-672.5055 445.8969,-670.1475 452.501,-678.4322 456.226,-672.5055"/>
</g>
<!-- v_5_266 -->
<g id="node67" class="node">
<title>v_5_266</title>
<polygon fill="#3a85b9" stroke="#000000" points="655,-211 509,-211 509,-175 655,-175 655,-211"/>
<text text-anchor="middle" x="582" y="-188" font-family="Times,serif" font-size="20.00" fill="#ffffff">370 file.readline</text>
</g>
<!-- v_5_266&#45;&gt;v_5_58 -->
<g id="edge84" class="edge">
<title>v_5_266&#45;&gt;v_5_58</title>
<path fill="none" stroke="#000000" stroke-dasharray="5,2" d="M518.9548,-211.0817C515.2859,-213.6675 511.9118,-216.6227 509,-220 455.9768,-281.4992 428.7202,-537.2529 420.908,-623.475"/>
<polygon fill="#000000" stroke="#000000" points="417.4091,-623.3091 420.0118,-633.5793 424.3817,-623.9276 417.4091,-623.3091"/>
</g>
<!-- v_5_268 -->
<g id="node68" class="node">
<title>v_5_268</title>
<polygon fill="#3a85b9" stroke="#000000" points="916,-319 691,-319 691,-283 916,-283 916,-319"/>
<text text-anchor="middle" x="803.5" y="-296" font-family="Times,serif" font-size="20.00" fill="#ffffff">370 int(params.readline())</text>
</g>
<!-- v_5_268&#45;&gt;v_5_266 -->
<g id="edge82" class="edge">
<title>v_5_268&#45;&gt;v_5_266</title>
<path fill="none" stroke="#000000" stroke-dasharray="5,2" d="M760.8004,-282.8929C739.3327,-273.1973 713.2244,-260.489 691,-247 673.9027,-236.6229 672.5624,-229.5689 655,-220 651.9409,-218.3332 648.7575,-216.7283 645.506,-215.1898"/>
<polygon fill="#000000" stroke="#000000" points="646.7663,-211.9194 636.2086,-211.033 643.9092,-218.3098 646.7663,-211.9194"/>
</g>
<!-- v_5_267 -->
<g id="node69" class="node">
<title>v_5_267</title>
<path fill="#85cbd0" stroke="#000000" d="M1109,-319C1109,-319 1040,-319 1040,-319 1034,-319 1028,-313 1028,-307 1028,-307 1028,-295 1028,-295 1028,-289 1034,-283 1040,-283 1040,-283 1109,-283 1109,-283 1115,-283 1121,-289 1121,-295 1121,-295 1121,-307 1121,-307 1121,-313 1115,-319 1109,-319"/>
<text text-anchor="middle" x="1074.5" y="-296" font-family="Times,serif" font-size="20.00" fill="#000000">370 pstop</text>
</g>
<!-- v_5_267&#45;&gt;v_5_268 -->
<g id="edge37" class="edge">
<title>v_5_267&#45;&gt;v_5_268</title>
<path fill="none" stroke="#000000" d="M1027.9134,-301C999.7636,-301 962.4473,-301 926.3406,-301"/>
<polygon fill="#000000" stroke="#000000" points="926.1973,-297.5001 916.1973,-301 926.1973,-304.5001 926.1973,-297.5001"/>
</g>
<!-- v_5_273 -->
<g id="node70" class="node">
<title>v_5_273</title>
<polygon fill="#3a85b9" stroke="#000000" points="655,-697 509,-697 509,-661 655,-661 655,-697"/>
<text text-anchor="middle" x="582" y="-674" font-family="Times,serif" font-size="20.00" fill="#ffffff">374 file.readline</text>
</g>
<!-- v_5_273&#45;&gt;v_5_58 -->
<g id="edge44" class="edge">
<title>v_5_273&#45;&gt;v_5_58</title>
<path fill="none" stroke="#000000" stroke-dasharray="5,2" d="M508.8579,-666.9215C500.3952,-665.524 491.8082,-664.1059 483.4649,-662.7281"/>
<polygon fill="#000000" stroke="#000000" points="483.8702,-659.2478 473.4335,-661.0716 482.7296,-666.1542 483.8702,-659.2478"/>
</g>
<!-- v_5_277 -->
<g id="node71" class="node">
<title>v_5_277</title>
<polygon fill="#3a85b9" stroke="#000000" points="655,-265 509,-265 509,-229 655,-229 655,-265"/>
<text text-anchor="middle" x="582" y="-242" font-family="Times,serif" font-size="20.00" fill="#ffffff">375 file.readline</text>
</g>
<!-- v_5_277&#45;&gt;v_5_58 -->
<g id="edge16" class="edge">
<title>v_5_277&#45;&gt;v_5_58</title>
<path fill="none" stroke="#000000" stroke-dasharray="5,2" d="M519.0636,-265.1769C515.3692,-267.7404 511.9596,-270.6646 509,-274 462.2684,-326.6659 431.5875,-544.6524 421.8427,-623.4324"/>
<polygon fill="#000000" stroke="#000000" points="418.3399,-623.2436 420.6071,-633.593 425.2887,-624.0887 418.3399,-623.2436"/>
</g>
<!-- v_5_279 -->
<g id="node72" class="node">
<title>v_5_279</title>
<polygon fill="#3a85b9" stroke="#000000" points="916,-373 691,-373 691,-337 916,-337 916,-373"/>
<text text-anchor="middle" x="803.5" y="-350" font-family="Times,serif" font-size="20.00" fill="#ffffff">375 int(params.readline())</text>
</g>
<!-- v_5_279&#45;&gt;v_5_277 -->
<g id="edge15" class="edge">
<title>v_5_279&#45;&gt;v_5_277</title>
<path fill="none" stroke="#000000" stroke-dasharray="5,2" d="M706.5496,-336.9551C701.0929,-334.3579 695.8595,-331.3904 691,-328 667.344,-311.4956 677.6352,-291.8786 655,-274 653.4094,-272.7437 651.7546,-271.5419 650.0485,-270.3925"/>
<polygon fill="#000000" stroke="#000000" points="651.5304,-267.2007 641.1514,-265.0732 647.9384,-273.2088 651.5304,-267.2007"/>
</g>
<!-- v_5_278 -->
<g id="node73" class="node">
<title>v_5_278</title>
<path fill="#85cbd0" stroke="#000000" d="M1105,-373C1105,-373 1044,-373 1044,-373 1038,-373 1032,-367 1032,-361 1032,-361 1032,-349 1032,-349 1032,-343 1038,-337 1044,-337 1044,-337 1105,-337 1105,-337 1111,-337 1117,-343 1117,-349 1117,-349 1117,-361 1117,-361 1117,-367 1111,-373 1105,-373"/>
<text text-anchor="middle" x="1074.5" y="-350" font-family="Times,serif" font-size="20.00" fill="#000000">375 delp</text>
</g>
<!-- v_5_278&#45;&gt;v_5_279 -->
<g id="edge8" class="edge">
<title>v_5_278&#45;&gt;v_5_279</title>
<path fill="none" stroke="#000000" d="M1031.8581,-355C1003.2607,-355 964.0306,-355 926.1519,-355"/>
<polygon fill="#000000" stroke="#000000" points="926.0381,-351.5001 916.0381,-355 926.0381,-358.5001 926.0381,-351.5001"/>
</g>
<!-- v_5_284 -->
<g id="node74" class="node">
<title>v_5_284</title>
<polygon fill="#3a85b9" stroke="#000000" points="655,-643 509,-643 509,-607 655,-607 655,-643"/>
<text text-anchor="middle" x="582" y="-620" font-family="Times,serif" font-size="20.00" fill="#ffffff">379 file.readline</text>
</g>
<!-- v_5_284&#45;&gt;v_5_58 -->
<g id="edge39" class="edge">
<title>v_5_284&#45;&gt;v_5_58</title>
<path fill="none" stroke="#000000" stroke-dasharray="5,2" d="M508.8579,-637.0785C500.3952,-638.476 491.8082,-639.8941 483.4649,-641.2719"/>
<polygon fill="#000000" stroke="#000000" points="482.7296,-637.8458 473.4335,-642.9284 483.8702,-644.7522 482.7296,-637.8458"/>
</g>
<!-- v_5_288 -->
<g id="node75" class="node">
<title>v_5_288</title>
<polygon fill="#3a85b9" stroke="#000000" points="655,-319 509,-319 509,-283 655,-283 655,-319"/>
<text text-anchor="middle" x="582" y="-296" font-family="Times,serif" font-size="20.00" fill="#ffffff">380 file.readline</text>
</g>
<!-- v_5_288&#45;&gt;v_5_58 -->
<g id="edge38" class="edge">
<title>v_5_288&#45;&gt;v_5_58</title>
<path fill="none" stroke="#000000" stroke-dasharray="5,2" d="M519.544,-319.0748C515.6867,-321.6634 512.113,-324.6211 509,-328 468.4427,-372.0219 434.8129,-553.2674 423.0186,-623.7655"/>
<polygon fill="#000000" stroke="#000000" points="419.552,-623.2769 421.3769,-633.7134 426.4586,-624.4168 419.552,-623.2769"/>
</g>
<!-- v_5_289 -->
<g id="node76" class="node">
<title>v_5_289</title>
<polygon fill="#3a85b9" stroke="#000000" points="916,-427 691,-427 691,-391 916,-391 916,-427"/>
<text text-anchor="middle" x="803.5" y="-404" font-family="Times,serif" font-size="20.00" fill="#ffffff">380 int(params.readline())</text>
</g>
<!-- v_5_289&#45;&gt;v_5_288 -->
<g id="edge56" class="edge">
<title>v_5_289&#45;&gt;v_5_288</title>
<path fill="none" stroke="#000000" stroke-dasharray="5,2" d="M706.5496,-390.9551C701.0929,-388.3579 695.8595,-385.3904 691,-382 667.344,-365.4956 677.6352,-345.8786 655,-328 653.4094,-326.7437 651.7546,-325.5419 650.0485,-324.3925"/>
<polygon fill="#000000" stroke="#000000" points="651.5304,-321.2007 641.1514,-319.0732 647.9384,-327.2088 651.5304,-321.2007"/>
</g>
<!-- v_5_291 -->
<g id="node77" class="node">
<title>v_5_291</title>
<path fill="#85cbd0" stroke="#000000" d="M1107.5,-427C1107.5,-427 1041.5,-427 1041.5,-427 1035.5,-427 1029.5,-421 1029.5,-415 1029.5,-415 1029.5,-403 1029.5,-403 1029.5,-397 1035.5,-391 1041.5,-391 1041.5,-391 1107.5,-391 1107.5,-391 1113.5,-391 1119.5,-397 1119.5,-403 1119.5,-403 1119.5,-415 1119.5,-415 1119.5,-421 1113.5,-427 1107.5,-427"/>
<text text-anchor="middle" x="1074.5" y="-404" font-family="Times,serif" font-size="20.00" fill="#000000">380 tstart</text>
</g>
<!-- v_5_291&#45;&gt;v_5_289 -->
<g id="edge85" class="edge">
<title>v_5_291&#45;&gt;v_5_289</title>
<path fill="none" stroke="#000000" d="M1029.4457,-409C1001.1743,-409 963.2354,-409 926.5278,-409"/>
<polygon fill="#000000" stroke="#000000" points="926.2161,-405.5001 916.2161,-409 926.216,-412.5001 926.2161,-405.5001"/>
</g>
<!-- v_5_295 -->
<g id="node78" class="node">
<title>v_5_295</title>
<polygon fill="#3a85b9" stroke="#000000" points="655,-589 509,-589 509,-553 655,-553 655,-589"/>
<text text-anchor="middle" x="582" y="-566" font-family="Times,serif" font-size="20.00" fill="#ffffff">384 file.readline</text>
</g>
<!-- v_5_295&#45;&gt;v_5_58 -->
<g id="edge69" class="edge">
<title>v_5_295&#45;&gt;v_5_58</title>
<path fill="none" stroke="#000000" stroke-dasharray="5,2" d="M529.6696,-589.0221C522.6364,-591.8301 515.5827,-594.8516 509,-598 490.4777,-606.8588 470.8041,-618.3274 454.5476,-628.4154"/>
<polygon fill="#000000" stroke="#000000" points="452.501,-625.5678 445.8969,-633.8525 456.226,-631.4945 452.501,-625.5678"/>
</g>
<!-- v_5_299 -->
<g id="node79" class="node">
<title>v_5_299</title>
<polygon fill="#3a85b9" stroke="#000000" points="655,-373 509,-373 509,-337 655,-337 655,-373"/>
<text text-anchor="middle" x="582" y="-350" font-family="Times,serif" font-size="20.00" fill="#ffffff">385 file.readline</text>
</g>
<!-- v_5_299&#45;&gt;v_5_58 -->
<g id="edge58" class="edge">
<title>v_5_299&#45;&gt;v_5_58</title>
<path fill="none" stroke="#000000" stroke-dasharray="5,2" d="M520.0811,-373.0326C516.0488,-375.633 512.2923,-378.6046 509,-382 442.5139,-450.569 424.8358,-569.4109 420.1634,-623.599"/>
<polygon fill="#000000" stroke="#000000" points="416.653,-623.6003 419.3712,-633.8405 423.6321,-624.1402 416.653,-623.6003"/>
</g>
<!-- v_5_300 -->
<g id="node80" class="node">
<title>v_5_300</title>
<polygon fill="#3a85b9" stroke="#000000" points="916,-481 691,-481 691,-445 916,-445 916,-481"/>
<text text-anchor="middle" x="803.5" y="-458" font-family="Times,serif" font-size="20.00" fill="#ffffff">385 int(params.readline())</text>
</g>
<!-- v_5_300&#45;&gt;v_5_299 -->
<g id="edge61" class="edge">
<title>v_5_300&#45;&gt;v_5_299</title>
<path fill="none" stroke="#000000" stroke-dasharray="5,2" d="M706.5496,-444.9551C701.0929,-442.3579 695.8595,-439.3904 691,-436 667.344,-419.4956 677.6352,-399.8786 655,-382 653.4094,-380.7437 651.7546,-379.5419 650.0485,-378.3925"/>
<polygon fill="#000000" stroke="#000000" points="651.5304,-375.2007 641.1514,-373.0732 647.9384,-381.2088 651.5304,-375.2007"/>
</g>
<!-- v_5_302 -->
<g id="node81" class="node">
<title>v_5_302</title>
<path fill="#85cbd0" stroke="#000000" d="M1107,-481C1107,-481 1042,-481 1042,-481 1036,-481 1030,-475 1030,-469 1030,-469 1030,-457 1030,-457 1030,-451 1036,-445 1042,-445 1042,-445 1107,-445 1107,-445 1113,-445 1119,-451 1119,-457 1119,-457 1119,-469 1119,-469 1119,-475 1113,-481 1107,-481"/>
<text text-anchor="middle" x="1074.5" y="-458" font-family="Times,serif" font-size="20.00" fill="#000000">385 tstop</text>
</g>
<!-- v_5_302&#45;&gt;v_5_300 -->
<g id="edge25" class="edge">
<title>v_5_302&#45;&gt;v_5_300</title>
<path fill="none" stroke="#000000" d="M1029.7499,-463C1001.4422,-463 963.3549,-463 926.5099,-463"/>
<polygon fill="#000000" stroke="#000000" points="926.1598,-459.5001 916.1598,-463 926.1598,-466.5001 926.1598,-459.5001"/>
</g>
<!-- v_5_306 -->
<g id="node82" class="node">
<title>v_5_306</title>
<polygon fill="#3a85b9" stroke="#000000" points="655,-535 509,-535 509,-499 655,-499 655,-535"/>
<text text-anchor="middle" x="582" y="-512" font-family="Times,serif" font-size="20.00" fill="#ffffff">389 file.readline</text>
</g>
<!-- v_5_306&#45;&gt;v_5_58 -->
<g id="edge2" class="edge">
<title>v_5_306&#45;&gt;v_5_58</title>
<path fill="none" stroke="#000000" stroke-dasharray="5,2" d="M524.3515,-535.0201C518.9637,-537.6692 513.7499,-540.6533 509,-544 477.8321,-565.9604 451.0703,-601.2129 434.9025,-625.4323"/>
<polygon fill="#000000" stroke="#000000" points="431.969,-623.5233 429.4367,-633.8111 437.8318,-627.3479 431.969,-623.5233"/>
</g>
<!-- v_5_310 -->
<g id="node83" class="node">
<title>v_5_310</title>
<polygon fill="#3a85b9" stroke="#000000" points="655,-427 509,-427 509,-391 655,-391 655,-427"/>
<text text-anchor="middle" x="582" y="-404" font-family="Times,serif" font-size="20.00" fill="#ffffff">390 file.readline</text>
</g>
<!-- v_5_310&#45;&gt;v_5_58 -->
<g id="edge81" class="edge">
<title>v_5_310&#45;&gt;v_5_58</title>
<path fill="none" stroke="#000000" stroke-dasharray="5,2" d="M520.7061,-427.091C516.48,-429.6809 512.5121,-432.6341 509,-436 454.5128,-488.2192 431.4613,-578.2712 422.9048,-623.8394"/>
<polygon fill="#000000" stroke="#000000" points="419.4209,-623.4406 421.1176,-633.8987 426.313,-624.6651 419.4209,-623.4406"/>
</g>
<!-- v_5_311 -->
<g id="node84" class="node">
<title>v_5_311</title>
<polygon fill="#3a85b9" stroke="#000000" points="916,-535 691,-535 691,-499 916,-499 916,-535"/>
<text text-anchor="middle" x="803.5" y="-512" font-family="Times,serif" font-size="20.00" fill="#ffffff">390 int(params.readline())</text>
</g>
<!-- v_5_311&#45;&gt;v_5_310 -->
<g id="edge59" class="edge">
<title>v_5_311&#45;&gt;v_5_310</title>
<path fill="none" stroke="#000000" stroke-dasharray="5,2" d="M706.5496,-498.9551C701.0929,-496.3579 695.8595,-493.3904 691,-490 667.344,-473.4956 677.6352,-453.8786 655,-436 653.4094,-434.7437 651.7546,-433.5419 650.0485,-432.3925"/>
<polygon fill="#000000" stroke="#000000" points="651.5304,-429.2007 641.1514,-427.0732 647.9384,-435.2088 651.5304,-429.2007"/>
</g>
<!-- v_5_313 -->
<g id="node85" class="node">
<title>v_5_313</title>
<path fill="#85cbd0" stroke="#000000" d="M1102.5,-535C1102.5,-535 1046.5,-535 1046.5,-535 1040.5,-535 1034.5,-529 1034.5,-523 1034.5,-523 1034.5,-511 1034.5,-511 1034.5,-505 1040.5,-499 1046.5,-499 1046.5,-499 1102.5,-499 1102.5,-499 1108.5,-499 1114.5,-505 1114.5,-511 1114.5,-511 1114.5,-523 1114.5,-523 1114.5,-529 1108.5,-535 1102.5,-535"/>
<text text-anchor="middle" x="1074.5" y="-512" font-family="Times,serif" font-size="20.00" fill="#000000">390 delt</text>
</g>
<!-- v_5_313&#45;&gt;v_5_311 -->
<g id="edge1" class="edge">
<title>v_5_313&#45;&gt;v_5_311</title>
<path fill="none" stroke="#000000" d="M1034.2212,-517C1005.5269,-517 965.3127,-517 926.4816,-517"/>
<polygon fill="#000000" stroke="#000000" points="926.1139,-513.5001 916.1139,-517 926.1138,-520.5001 926.1139,-513.5001"/>
</g>
<!-- v_5_317 -->
<g id="node86" class="node">
<title>v_5_317</title>
<polygon fill="#3a85b9" stroke="#000000" points="643.5,-481 520.5,-481 520.5,-445 643.5,-445 643.5,-481"/>
<text text-anchor="middle" x="582" y="-458" font-family="Times,serif" font-size="20.00" fill="#ffffff">393 file.close</text>
</g>
<!-- v_5_317&#45;&gt;v_5_58 -->
<g id="edge71" class="edge">
<title>v_5_317&#45;&gt;v_5_58</title>
<path fill="none" stroke="#000000" stroke-dasharray="5,2" d="M521.8353,-481.1291C517.253,-483.7192 512.9014,-486.6615 509,-490 466.3368,-526.5074 439.8166,-588.3973 427.234,-624.1842"/>
<polygon fill="#000000" stroke="#000000" points="423.8126,-623.3751 423.9132,-633.9694 430.4413,-625.6247 423.8126,-623.3751"/>
</g>
<!-- v_5_337 -->
<g id="node87" class="node">
<title>v_5_337</title>
<polygon fill="#3a85b9" stroke="#000000" points="1560.5,-454 1255.5,-454 1255.5,-418 1560.5,-418 1560.5,-454"/>
<text text-anchor="middle" x="1408" y="-431" font-family="Times,serif" font-size="20.00" fill="#ffffff">396 calculate_refs_geometry_model</text>
</g>
<!-- v_5_337&#45;&gt;v_5_256 -->
<g id="edge19" class="edge">
<title>v_5_337&#45;&gt;v_5_256</title>
<path fill="none" stroke="#000000" stroke-dasharray="5,2" d="M1341.775,-417.9522C1305.7956,-405.3058 1262.7168,-385.174 1233,-355 1205.3567,-326.9314 1227.5147,-298.917 1197,-274 1178.9342,-259.2482 1154.5445,-252.1138 1132.2839,-248.8051"/>
<polygon fill="#000000" stroke="#000000" points="1132.5951,-245.3168 1122.2363,-247.5405 1131.7209,-252.262 1132.5951,-245.3168"/>
</g>
<!-- v_5_337&#45;&gt;v_5_267 -->
<g id="edge94" class="edge">
<title>v_5_337&#45;&gt;v_5_267</title>
<path fill="none" stroke="#000000" stroke-dasharray="5,2" d="M1362.0776,-417.8713C1325.9805,-402.888 1274.9614,-380.0673 1233,-355 1215.8304,-344.7431 1215.1775,-336.3414 1197,-328 1176.41,-318.5515 1152.3262,-312.3235 1130.988,-308.2589"/>
<polygon fill="#000000" stroke="#000000" points="1131.5414,-304.8024 1121.0813,-306.4864 1130.3085,-311.693 1131.5414,-304.8024"/>
</g>
<!-- v_5_337&#45;&gt;v_5_278 -->
<g id="edge89" class="edge">
<title>v_5_337&#45;&gt;v_5_278</title>
<path fill="none" stroke="#000000" stroke-dasharray="5,2" d="M1339.7251,-417.9072C1298.4837,-407.1329 1244.8196,-393.3856 1197,-382 1174.1386,-376.5568 1148.7843,-370.9051 1127.1009,-366.1877"/>
<polygon fill="#000000" stroke="#000000" points="1127.6138,-362.7177 1117.0995,-364.0213 1126.1319,-369.5591 1127.6138,-362.7177"/>
</g>
<!-- v_5_337&#45;&gt;v_5_291 -->
<g id="edge36" class="edge">
<title>v_5_337&#45;&gt;v_5_291</title>
<path fill="none" stroke="#000000" stroke-dasharray="5,2" d="M1255.4021,-423.6457C1210.6371,-420.0216 1164.502,-416.2865 1130.0264,-413.4954"/>
<polygon fill="#000000" stroke="#000000" points="1129.9657,-409.9791 1119.7158,-412.6606 1129.4007,-416.9563 1129.9657,-409.9791"/>
</g>
<!-- v_5_337&#45;&gt;v_5_302 -->
<g id="edge5" class="edge">
<title>v_5_337&#45;&gt;v_5_302</title>
<path fill="none" stroke="#000000" stroke-dasharray="5,2" d="M1255.4021,-448.3543C1210.4817,-451.991 1164.1817,-455.7394 1129.6677,-458.5336"/>
<polygon fill="#000000" stroke="#000000" points="1129.0344,-455.0734 1119.3494,-459.369 1129.5993,-462.0506 1129.0344,-455.0734"/>
</g>
<!-- v_5_337&#45;&gt;v_5_313 -->
<g id="edge30" class="edge">
<title>v_5_337&#45;&gt;v_5_313</title>
<path fill="none" stroke="#000000" stroke-dasharray="5,2" d="M1339.7251,-454.0928C1298.4837,-464.8671 1244.8196,-478.6144 1197,-490 1173.2084,-495.6647 1146.717,-501.5552 1124.4728,-506.3834"/>
<polygon fill="#000000" stroke="#000000" points="1123.6112,-502.9887 1114.5763,-508.5223 1125.09,-509.8307 1123.6112,-502.9887"/>
</g>
<!-- v_5_109 -->
<g id="node88" class="node">
<title>v_5_109</title>
<path fill="#85cbd0" stroke="#000000" d="M2579.5,-427C2579.5,-427 2526.5,-427 2526.5,-427 2520.5,-427 2514.5,-421 2514.5,-415 2514.5,-415 2514.5,-403 2514.5,-403 2514.5,-397 2520.5,-391 2526.5,-391 2526.5,-391 2579.5,-391 2579.5,-391 2585.5,-391 2591.5,-397 2591.5,-403 2591.5,-403 2591.5,-415 2591.5,-415 2591.5,-421 2585.5,-427 2579.5,-427"/>
<text text-anchor="middle" x="2553" y="-404" font-family="Times,serif" font-size="20.00" fill="#000000">320 rad</text>
</g>
<!-- v_5_338 -->
<g id="node89" class="node">
<title>v_5_338</title>
<path fill="#85cbd0" stroke="#000000" d="M1778,-407C1778,-407 1736,-407 1736,-407 1730,-407 1724,-401 1724,-395 1724,-395 1724,-383 1724,-383 1724,-377 1730,-371 1736,-371 1736,-371 1778,-371 1778,-371 1784,-371 1790,-377 1790,-383 1790,-383 1790,-395 1790,-395 1790,-401 1784,-407 1778,-407"/>
<text text-anchor="middle" x="1757" y="-384" font-family="Times,serif" font-size="20.00" fill="#000000">396 ip</text>
</g>
<!-- v_5_338&#45;&gt;v_5_337 -->
<g id="edge48" class="edge">
<title>v_5_338&#45;&gt;v_5_337</title>
<path fill="none" stroke="#000000" d="M1723.8523,-393.464C1684.2019,-398.8038 1615.2143,-408.0943 1551.8085,-416.6332"/>
<polygon fill="#000000" stroke="#000000" points="1551.1289,-413.1931 1541.6855,-417.9965 1552.0632,-420.1304 1551.1289,-413.1931"/>
</g>
<!-- v_5_339 -->
<g id="node90" class="node">
<title>v_5_339</title>
<path fill="#85cbd0" stroke="#000000" d="M1776,-569C1776,-569 1738,-569 1738,-569 1732,-569 1726,-563 1726,-557 1726,-557 1726,-545 1726,-545 1726,-539 1732,-533 1738,-533 1738,-533 1776,-533 1776,-533 1782,-533 1788,-539 1788,-545 1788,-545 1788,-557 1788,-557 1788,-563 1782,-569 1776,-569"/>
<text text-anchor="middle" x="1757" y="-546" font-family="Times,serif" font-size="20.00" fill="#000000">396 it</text>
</g>
<!-- v_5_339&#45;&gt;v_5_337 -->
<g id="edge42" class="edge">
<title>v_5_339&#45;&gt;v_5_337</title>
<path fill="none" stroke="#000000" d="M1725.8702,-546.7482C1697.611,-542.4571 1654.9804,-534.9006 1619,-524 1560.5547,-506.2935 1496.1434,-478.0825 1454.05,-458.3902"/>
<polygon fill="#000000" stroke="#000000" points="1455.4326,-455.1727 1444.8946,-454.0767 1452.4491,-461.505 1455.4326,-455.1727"/>
</g>
<!-- v_5_340 -->
<g id="node91" class="node">
<title>v_5_340</title>
<path fill="#85cbd0" stroke="#000000" d="M1785,-515C1785,-515 1729,-515 1729,-515 1723,-515 1717,-509 1717,-503 1717,-503 1717,-491 1717,-491 1717,-485 1723,-479 1729,-479 1729,-479 1785,-479 1785,-479 1791,-479 1797,-485 1797,-491 1797,-491 1797,-503 1797,-503 1797,-509 1791,-515 1785,-515"/>
<text text-anchor="middle" x="1757" y="-492" font-family="Times,serif" font-size="20.00" fill="#000000">396 delt</text>
</g>
<!-- v_5_340&#45;&gt;v_5_337 -->
<g id="edge4" class="edge">
<title>v_5_340&#45;&gt;v_5_337</title>
<path fill="none" stroke="#000000" d="M1716.9653,-490.0025C1669.536,-481.7126 1588.479,-467.545 1521.2874,-455.801"/>
<polygon fill="#000000" stroke="#000000" points="1521.509,-452.2867 1511.0557,-454.0126 1520.3037,-459.1822 1521.509,-452.2867"/>
</g>
<!-- v_5_341 -->
<g id="node92" class="node">
<title>v_5_341</title>
<path fill="#85cbd0" stroke="#000000" d="M1787.5,-461C1787.5,-461 1726.5,-461 1726.5,-461 1720.5,-461 1714.5,-455 1714.5,-449 1714.5,-449 1714.5,-437 1714.5,-437 1714.5,-431 1720.5,-425 1726.5,-425 1726.5,-425 1787.5,-425 1787.5,-425 1793.5,-425 1799.5,-431 1799.5,-437 1799.5,-437 1799.5,-449 1799.5,-449 1799.5,-455 1793.5,-461 1787.5,-461"/>
<text text-anchor="middle" x="1757" y="-438" font-family="Times,serif" font-size="20.00" fill="#000000">396 delp</text>
</g>
<!-- v_5_341&#45;&gt;v_5_337 -->
<g id="edge77" class="edge">
<title>v_5_341&#45;&gt;v_5_337</title>
<path fill="none" stroke="#000000" d="M1714.2057,-442.1417C1678.0399,-441.4163 1623.8289,-440.3289 1571.0252,-439.2698"/>
<polygon fill="#000000" stroke="#000000" points="1570.9067,-435.7669 1560.8385,-439.0655 1570.7662,-442.7655 1570.9067,-435.7669"/>
</g>
<!-- v_5_1202 -->
<g id="node93" class="node">
<title>v_5_1202</title>
<polygon fill="#3a85b9" stroke="#000000" points="2424,-319 2066,-319 2066,-283 2424,-283 2424,-319"/>
<text text-anchor="middle" x="2245" y="-296" font-family="Times,serif" font-size="20.00" fill="#ffffff">402 calculate_edges_and_normal_triangles</text>
</g>
<!-- v_5_1203 -->
<g id="node94" class="node">
<title>v_5_1203</title>
<path fill="#85cbd0" stroke="#000000" d="M2588,-319C2588,-319 2518,-319 2518,-319 2512,-319 2506,-313 2506,-307 2506,-307 2506,-295 2506,-295 2506,-289 2512,-283 2518,-283 2518,-283 2588,-283 2588,-283 2594,-283 2600,-289 2600,-295 2600,-295 2600,-307 2600,-307 2600,-313 2594,-319 2588,-319"/>
<text text-anchor="middle" x="2553" y="-296" font-family="Times,serif" font-size="20.00" fill="#000000">402 alpha</text>
</g>
<!-- v_5_1203&#45;&gt;v_5_1202 -->
<g id="edge76" class="edge">
<title>v_5_1203&#45;&gt;v_5_1202</title>
<path fill="none" stroke="#000000" d="M2505.8862,-301C2485.7137,-301 2460.7129,-301 2434.2443,-301"/>
<polygon fill="#000000" stroke="#000000" points="2434.0352,-297.5001 2424.0351,-301 2434.0351,-304.5001 2434.0352,-297.5001"/>
</g>
<!-- v_5_1204 -->
<g id="node95" class="node">
<title>v_5_1204</title>
<path fill="#85cbd0" stroke="#000000" d="M2583,-265C2583,-265 2523,-265 2523,-265 2517,-265 2511,-259 2511,-253 2511,-253 2511,-241 2511,-241 2511,-235 2517,-229 2523,-229 2523,-229 2583,-229 2583,-229 2589,-229 2595,-235 2595,-241 2595,-241 2595,-253 2595,-253 2595,-259 2589,-265 2583,-265"/>
<text text-anchor="middle" x="2553" y="-242" font-family="Times,serif" font-size="20.00" fill="#000000">402 beta</text>
</g>
<!-- v_5_1204&#45;&gt;v_5_1202 -->
<g id="edge57" class="edge">
<title>v_5_1204&#45;&gt;v_5_1202</title>
<path fill="none" stroke="#000000" d="M2510.8197,-254.3952C2471.502,-261.2886 2411.0861,-271.881 2357.7819,-281.2265"/>
<polygon fill="#000000" stroke="#000000" points="2357.1636,-277.7815 2347.9183,-282.9559 2358.3725,-284.6763 2357.1636,-277.7815"/>
</g>
<!-- v_5_1205 -->
<g id="node96" class="node">
<title>v_5_1205</title>
<path fill="#85cbd0" stroke="#000000" d="M2586,-373C2586,-373 2520,-373 2520,-373 2514,-373 2508,-367 2508,-361 2508,-361 2508,-349 2508,-349 2508,-343 2514,-337 2520,-337 2520,-337 2586,-337 2586,-337 2592,-337 2598,-343 2598,-349 2598,-349 2598,-361 2598,-361 2598,-367 2592,-373 2586,-373"/>
<text text-anchor="middle" x="2553" y="-350" font-family="Times,serif" font-size="20.00" fill="#000000">402 areai</text>
</g>
<!-- v_5_1205&#45;&gt;v_5_1202 -->
<g id="edge86" class="edge">
<title>v_5_1205&#45;&gt;v_5_1202</title>
<path fill="none" stroke="#000000" d="M2507.8843,-347.0901C2468.5626,-340.196 2409.8501,-329.9023 2357.8794,-320.7906"/>
<polygon fill="#000000" stroke="#000000" points="2358.3763,-317.3244 2347.9221,-319.0448 2357.1674,-324.2192 2358.3763,-317.3244"/>
</g>
<!-- v_5_2047 -->
<g id="node97" class="node">
<title>v_5_2047</title>
<polygon fill="#3a85b9" stroke="#000000" points="2644.5,-211 2461.5,-211 2461.5,-175 2644.5,-175 2644.5,-211"/>
<text text-anchor="middle" x="2553" y="-188" font-family="Times,serif" font-size="20.00" fill="#ffffff">404 main_all_in_one</text>
</g>
<!-- v_5_2050 -->
<g id="node98" class="node">
<title>v_5_2050</title>
<polygon fill="#3a85b9" stroke="#000000" points="2288,-157 2202,-157 2202,-121 2288,-121 2288,-157"/>
<text text-anchor="middle" x="2245" y="-134" font-family="Times,serif" font-size="20.00" fill="#ffffff">406 time</text>
</g>
<!-- v_5_2051 -->
<g id="node99" class="node">
<title>v_5_2051</title>
<path fill="#85cbd0" stroke="#000000" d="M2581,-157C2581,-157 2525,-157 2525,-157 2519,-157 2513,-151 2513,-145 2513,-145 2513,-133 2513,-133 2513,-127 2519,-121 2525,-121 2525,-121 2581,-121 2581,-121 2587,-121 2593,-127 2593,-133 2593,-133 2593,-145 2593,-145 2593,-151 2587,-157 2581,-157"/>
<text text-anchor="middle" x="2553" y="-134" font-family="Times,serif" font-size="20.00" fill="#000000">406 end</text>
</g>
<!-- v_5_2051&#45;&gt;v_5_2050 -->
<g id="edge54" class="edge">
<title>v_5_2051&#45;&gt;v_5_2050</title>
<path fill="none" stroke="#000000" d="M2512.7344,-139C2457.8594,-139 2359.4532,-139 2298.4484,-139"/>
<polygon fill="#000000" stroke="#000000" points="2298.252,-135.5001 2288.2519,-139 2298.2519,-142.5001 2298.252,-135.5001"/>
</g>
<!-- a_2 -->
<g id="node101" class="node">
<title>a_2</title>
<path fill="#ffffff" stroke="#000000" d="M3021,-279C3021,-279 2869,-279 2869,-279 2863,-279 2857,-273 2857,-267 2857,-267 2857,-255 2857,-255 2857,-249 2863,-243 2869,-243 2869,-243 3021,-243 3021,-243 3027,-243 3033,-249 3033,-255 3033,-255 3033,-267 3033,-267 3033,-273 3027,-279 3021,-279"/>
<text text-anchor="middle" x="2945" y="-256" font-family="Times,serif" font-size="20.00" fill="#000000">BOX/coordinates.m</text>
</g>
<!-- a_4 -->
<g id="node102" class="node">
<title>a_4</title>
<path fill="#ffffff" stroke="#000000" d="M2998.5,-333C2998.5,-333 2891.5,-333 2891.5,-333 2885.5,-333 2879.5,-327 2879.5,-321 2879.5,-321 2879.5,-309 2879.5,-309 2879.5,-303 2885.5,-297 2891.5,-297 2891.5,-297 2998.5,-297 2998.5,-297 3004.5,-297 3010.5,-303 3010.5,-309 3010.5,-309 3010.5,-321 3010.5,-321 3010.5,-327 3004.5,-333 2998.5,-333"/>
<text text-anchor="middle" x="2945" y="-310" font-family="Times,serif" font-size="20.00" fill="#000000">BOX/facets.m</text>
</g>
<!-- a_5 -->
<g id="node103" class="node">
<title>a_5</title>
<path fill="#ffffff" stroke="#000000" d="M3194.5,-225C3194.5,-225 2695.5,-225 2695.5,-225 2689.5,-225 2683.5,-219 2683.5,-213 2683.5,-213 2683.5,-201 2683.5,-201 2683.5,-195 2689.5,-189 2695.5,-189 2695.5,-189 3194.5,-189 3194.5,-189 3200.5,-189 3206.5,-195 3206.5,-201 3206.5,-201 3206.5,-213 3206.5,-213 3206.5,-219 3200.5,-225 3194.5,-225"/>
<text text-anchor="middle" x="2945" y="-202" font-family="Times,serif" font-size="20.00" fill="#000000">R_PyPOFacetsModular_BOX_i ... 02.dat_20180310215022.dat</text>
</g>
<!-- a_5&#45;&gt;v_5_2047 -->
<g id="edge50" class="edge">
<title>a_5&#45;&gt;v_5_2047</title>
<path fill="none" stroke="#000000" stroke-dasharray="5,2" d="M2683.258,-197.6521C2673.4791,-197.3028 2663.9472,-196.9624 2654.7764,-196.6349"/>
<polygon fill="#000000" stroke="#000000" points="2654.7004,-193.13 2644.5818,-196.2708 2654.4505,-200.1256 2654.7004,-193.13"/>
</g>
<!-- a_6 -->
<g id="node104" class="node">
<title>a_6</title>
<path fill="#ffffff" stroke="#000000" d="M3196,-171C3196,-171 2694,-171 2694,-171 2688,-171 2682,-165 2682,-159 2682,-159 2682,-147 2682,-147 2682,-141 2688,-135 2694,-135 2694,-135 3196,-135 3196,-135 3202,-135 3208,-141 3208,-147 3208,-147 3208,-159 3208,-159 3208,-165 3202,-171 3196,-171"/>
<text text-anchor="middle" x="2945" y="-148" font-family="Times,serif" font-size="20.00" fill="#000000">E0_PyPOFacetsModular_BOX_ ... 02.dat_20180310215022.dat</text>
</g>
<!-- a_6&#45;&gt;v_5_2047 -->
<g id="edge22" class="edge">
<title>a_6&#45;&gt;v_5_2047</title>
<path fill="none" stroke="#000000" stroke-dasharray="5,2" d="M2768.4947,-171.0107C2729.5609,-174.9836 2689.5907,-179.0622 2654.8115,-182.6111"/>
<polygon fill="#000000" stroke="#000000" points="2654.2628,-179.1488 2644.6697,-183.6459 2654.9734,-186.1126 2654.2628,-179.1488"/>
</g>
</g>
</svg>
