<?xml version="1.0" encoding="UTF-8" standalone="no"?>
<!DOCTYPE svg PUBLIC "-//W3C//DTD SVG 1.1//EN"
 "http://www.w3.org/Graphics/SVG/1.1/DTD/svg11.dtd">
<!-- Generated by graphviz version 2.40.1 (20161225.0304)
 -->
<!-- Title: dependency Pages: 1 -->
<svg width="2516pt" height="1113pt"
 viewBox="0.00 0.00 2516.00 1113.09" xmlns="http://www.w3.org/2000/svg" xmlns:xlink="http://www.w3.org/1999/xlink">
<g id="graph0" class="graph" transform="scale(1 1) rotate(0) translate(4 1109.0901)">
<title>dependency</title>
<polygon fill="#ffffff" stroke="transparent" points="-4,4 -4,-1109.0901 2512,-1109.0901 2512,4 -4,4"/>
<!-- a_26 -->
<g id="node1" class="node">
<title>a_26</title>
<path fill="#ffffff" stroke="#000000" d="M191,-327.0901C191,-327.0901 12,-327.0901 12,-327.0901 6,-327.0901 0,-321.0901 0,-315.0901 0,-315.0901 0,-303.0901 0,-303.0901 0,-297.0901 6,-291.0901 12,-291.0901 12,-291.0901 191,-291.0901 191,-291.0901 197,-291.0901 203,-297.0901 203,-303.0901 203,-303.0901 203,-315.0901 203,-315.0901 203,-321.0901 197,-327.0901 191,-327.0901"/>
<text text-anchor="middle" x="101.5" y="-304.0901" font-family="Times,serif" font-size="20.00" fill="#000000">input_data_file_002.dat</text>
</g>
<!-- v_1_202 -->
<g id="node2" class="node">
<title>v_1_202</title>
<polygon fill="#3a85b9" stroke="#000000" points="434,-327.0901 239,-327.0901 239,-291.0901 434,-291.0901 434,-327.0901"/>
<text text-anchor="middle" x="336.5" y="-304.0901" font-family="Times,serif" font-size="20.00" fill="#ffffff">171 read_param_input</text>
</g>
<!-- v_1_202&#45;&gt;a_26 -->
<g id="edge35" class="edge">
<title>v_1_202&#45;&gt;a_26</title>
<path fill="none" stroke="#000000" stroke-dasharray="5,2" d="M238.8804,-309.0901C230.5427,-309.0901 222.0674,-309.0901 213.6291,-309.0901"/>
<polygon fill="#000000" stroke="#000000" points="213.3664,-305.5902 203.3664,-309.0901 213.3663,-312.5902 213.3664,-305.5902"/>
</g>
<!-- v_1_27 -->
<g id="node3" class="node">
<title>v_1_27</title>
<path fill="#85cbd0" stroke="#000000" d="M2496,-731.0901C2496,-731.0901 2350,-731.0901 2350,-731.0901 2344,-731.0901 2338,-725.0901 2338,-719.0901 2338,-719.0901 2338,-707.0901 2338,-707.0901 2338,-701.0901 2344,-695.0901 2350,-695.0901 2350,-695.0901 2496,-695.0901 2496,-695.0901 2502,-695.0901 2508,-701.0901 2508,-707.0901 2508,-707.0901 2508,-719.0901 2508,-719.0901 2508,-725.0901 2502,-731.0901 2496,-731.0901"/>
<text text-anchor="middle" x="2423" y="-708.0901" font-family="Times,serif" font-size="20.00" fill="#000000">169 input_data_file</text>
</g>
<!-- v_1_203 -->
<g id="node4" class="node">
<title>v_1_203</title>
<path fill="#85cbd0" stroke="#000000" d="M1267,-631.0901C1267,-631.0901 1193,-631.0901 1193,-631.0901 1187,-631.0901 1181,-625.0901 1181,-619.0901 1181,-619.0901 1181,-607.0901 1181,-607.0901 1181,-601.0901 1187,-595.0901 1193,-595.0901 1193,-595.0901 1267,-595.0901 1267,-595.0901 1273,-595.0901 1279,-601.0901 1279,-607.0901 1279,-607.0901 1279,-619.0901 1279,-619.0901 1279,-625.0901 1273,-631.0901 1267,-631.0901"/>
<text text-anchor="middle" x="1230" y="-608.0901" font-family="Times,serif" font-size="20.00" fill="#000000">171 delstd</text>
</g>
<!-- v_1_203&#45;&gt;v_1_202 -->
<g id="edge58" class="edge">
<title>v_1_203&#45;&gt;v_1_202</title>
<path fill="none" stroke="#000000" d="M1180.8737,-614.4335C1031.4654,-617.6011 585.6724,-619.995 470,-540.0901 397.4166,-489.9505 358.9425,-386.5621 343.9989,-336.9056"/>
<polygon fill="#000000" stroke="#000000" points="347.3187,-335.7869 341.1635,-327.1634 340.5975,-337.7431 347.3187,-335.7869"/>
</g>
<!-- v_1_204 -->
<g id="node5" class="node">
<title>v_1_204</title>
<path fill="#85cbd0" stroke="#000000" d="M1258.5,-75.0901C1258.5,-75.0901 1201.5,-75.0901 1201.5,-75.0901 1195.5,-75.0901 1189.5,-69.0901 1189.5,-63.0901 1189.5,-63.0901 1189.5,-51.0901 1189.5,-51.0901 1189.5,-45.0901 1195.5,-39.0901 1201.5,-39.0901 1201.5,-39.0901 1258.5,-39.0901 1258.5,-39.0901 1264.5,-39.0901 1270.5,-45.0901 1270.5,-51.0901 1270.5,-51.0901 1270.5,-63.0901 1270.5,-63.0901 1270.5,-69.0901 1264.5,-75.0901 1258.5,-75.0901"/>
<text text-anchor="middle" x="1230" y="-52.0901" font-family="Times,serif" font-size="20.00" fill="#000000">171 ipol</text>
</g>
<!-- v_1_204&#45;&gt;v_1_202 -->
<g id="edge36" class="edge">
<title>v_1_204&#45;&gt;v_1_202</title>
<path fill="none" stroke="#000000" d="M1189.0947,-45.9572C1068.5649,-15.6369 708.314,56.9483 470,-86.0901 396.3161,-130.3159 358.379,-232.1619 343.7825,-281.4163"/>
<polygon fill="#000000" stroke="#000000" points="340.4009,-280.5119 341.0176,-291.0888 347.1313,-282.4359 340.4009,-280.5119"/>
</g>
<!-- v_1_205 -->
<g id="node6" class="node">
<title>v_1_205</title>
<path fill="#85cbd0" stroke="#000000" d="M625.5,-408.0901C625.5,-408.0901 559.5,-408.0901 559.5,-408.0901 553.5,-408.0901 547.5,-402.0901 547.5,-396.0901 547.5,-396.0901 547.5,-384.0901 547.5,-384.0901 547.5,-378.0901 553.5,-372.0901 559.5,-372.0901 559.5,-372.0901 625.5,-372.0901 625.5,-372.0901 631.5,-372.0901 637.5,-378.0901 637.5,-384.0901 637.5,-384.0901 637.5,-396.0901 637.5,-396.0901 637.5,-402.0901 631.5,-408.0901 625.5,-408.0901"/>
<text text-anchor="middle" x="592.5" y="-385.0901" font-family="Times,serif" font-size="20.00" fill="#000000">171 tstart</text>
</g>
<!-- v_1_205&#45;&gt;v_1_202 -->
<g id="edge48" class="edge">
<title>v_1_205&#45;&gt;v_1_202</title>
<path fill="none" stroke="#000000" d="M547.2285,-381.9943C523.9125,-377.3526 495.1691,-370.8939 470,-363.0901 441.4141,-354.2268 410.3717,-341.8452 385.4205,-331.1737"/>
<polygon fill="#000000" stroke="#000000" points="386.7417,-327.9319 376.1737,-327.1783 383.9652,-334.3577 386.7417,-327.9319"/>
</g>
<!-- v_1_206 -->
<g id="node7" class="node">
<title>v_1_206</title>
<path fill="#85cbd0" stroke="#000000" d="M628,-246.0901C628,-246.0901 557,-246.0901 557,-246.0901 551,-246.0901 545,-240.0901 545,-234.0901 545,-234.0901 545,-222.0901 545,-222.0901 545,-216.0901 551,-210.0901 557,-210.0901 557,-210.0901 628,-210.0901 628,-210.0901 634,-210.0901 640,-216.0901 640,-222.0901 640,-222.0901 640,-234.0901 640,-234.0901 640,-240.0901 634,-246.0901 628,-246.0901"/>
<text text-anchor="middle" x="592.5" y="-223.0901" font-family="Times,serif" font-size="20.00" fill="#000000">171 pstart</text>
</g>
<!-- v_1_206&#45;&gt;v_1_202 -->
<g id="edge53" class="edge">
<title>v_1_206&#45;&gt;v_1_202</title>
<path fill="none" stroke="#000000" d="M544.8987,-236.6521C522.016,-241.256 494.3371,-247.5442 470,-255.0901 441.4141,-263.9533 410.3717,-276.3349 385.4205,-287.0065"/>
<polygon fill="#000000" stroke="#000000" points="383.9652,-283.8225 376.1737,-291.0018 386.7417,-290.2483 383.9652,-283.8225"/>
</g>
<!-- v_1_207 -->
<g id="node8" class="node">
<title>v_1_207</title>
<path fill="#85cbd0" stroke="#000000" d="M623,-300.0901C623,-300.0901 562,-300.0901 562,-300.0901 556,-300.0901 550,-294.0901 550,-288.0901 550,-288.0901 550,-276.0901 550,-276.0901 550,-270.0901 556,-264.0901 562,-264.0901 562,-264.0901 623,-264.0901 623,-264.0901 629,-264.0901 635,-270.0901 635,-276.0901 635,-276.0901 635,-288.0901 635,-288.0901 635,-294.0901 629,-300.0901 623,-300.0901"/>
<text text-anchor="middle" x="592.5" y="-277.0901" font-family="Times,serif" font-size="20.00" fill="#000000">171 delp</text>
</g>
<!-- v_1_207&#45;&gt;v_1_202 -->
<g id="edge65" class="edge">
<title>v_1_207&#45;&gt;v_1_202</title>
<path fill="none" stroke="#000000" d="M549.9394,-286.5789C521.1536,-289.6149 481.7579,-293.7699 444.6447,-297.6842"/>
<polygon fill="#000000" stroke="#000000" points="443.8258,-294.2511 434.2481,-298.7807 444.5601,-301.2124 443.8258,-294.2511"/>
</g>
<!-- v_1_208 -->
<g id="node9" class="node">
<title>v_1_208</title>
<path fill="#85cbd0" stroke="#000000" d="M620.5,-354.0901C620.5,-354.0901 564.5,-354.0901 564.5,-354.0901 558.5,-354.0901 552.5,-348.0901 552.5,-342.0901 552.5,-342.0901 552.5,-330.0901 552.5,-330.0901 552.5,-324.0901 558.5,-318.0901 564.5,-318.0901 564.5,-318.0901 620.5,-318.0901 620.5,-318.0901 626.5,-318.0901 632.5,-324.0901 632.5,-330.0901 632.5,-330.0901 632.5,-342.0901 632.5,-342.0901 632.5,-348.0901 626.5,-354.0901 620.5,-354.0901"/>
<text text-anchor="middle" x="592.5" y="-331.0901" font-family="Times,serif" font-size="20.00" fill="#000000">171 delt</text>
</g>
<!-- v_1_208&#45;&gt;v_1_202 -->
<g id="edge43" class="edge">
<title>v_1_208&#45;&gt;v_1_202</title>
<path fill="none" stroke="#000000" d="M552.5,-331.8713C523.4549,-328.808 482.6929,-324.5089 444.3939,-320.4695"/>
<polygon fill="#000000" stroke="#000000" points="444.5076,-316.9622 434.1956,-319.3939 443.7733,-323.9236 444.5076,-316.9622"/>
</g>
<!-- v_1_209 -->
<g id="node10" class="node">
<title>v_1_209</title>
<path fill="#85cbd0" stroke="#000000" d="M933,-117.0901C933,-117.0901 874,-117.0901 874,-117.0901 868,-117.0901 862,-111.0901 862,-105.0901 862,-105.0901 862,-93.0901 862,-93.0901 862,-87.0901 868,-81.0901 874,-81.0901 874,-81.0901 933,-81.0901 933,-81.0901 939,-81.0901 945,-87.0901 945,-93.0901 945,-93.0901 945,-105.0901 945,-105.0901 945,-111.0901 939,-117.0901 933,-117.0901"/>
<text text-anchor="middle" x="903.5" y="-94.0901" font-family="Times,serif" font-size="20.00" fill="#000000">171 corr</text>
</g>
<!-- v_1_209&#45;&gt;v_1_202 -->
<g id="edge47" class="edge">
<title>v_1_209&#45;&gt;v_1_202</title>
<path fill="none" stroke="#000000" d="M861.9578,-93.8412C781.0624,-85.6457 599.035,-77.2813 470,-147.0901 412.821,-178.0243 370.5078,-244.5058 350.106,-281.9755"/>
<polygon fill="#000000" stroke="#000000" points="346.9986,-280.3644 345.3954,-290.8373 353.1796,-283.65 346.9986,-280.3644"/>
</g>
<!-- v_1_210 -->
<g id="node11" class="node">
<title>v_1_210</title>
<path fill="#85cbd0" stroke="#000000" d="M625,-192.0901C625,-192.0901 560,-192.0901 560,-192.0901 554,-192.0901 548,-186.0901 548,-180.0901 548,-180.0901 548,-168.0901 548,-168.0901 548,-162.0901 554,-156.0901 560,-156.0901 560,-156.0901 625,-156.0901 625,-156.0901 631,-156.0901 637,-162.0901 637,-168.0901 637,-168.0901 637,-180.0901 637,-180.0901 637,-186.0901 631,-192.0901 625,-192.0901"/>
<text text-anchor="middle" x="592.5" y="-169.0901" font-family="Times,serif" font-size="20.00" fill="#000000">171 tstop</text>
</g>
<!-- v_1_210&#45;&gt;v_1_202 -->
<g id="edge33" class="edge">
<title>v_1_210&#45;&gt;v_1_202</title>
<path fill="none" stroke="#000000" d="M547.7879,-178.8817C523.8342,-182.6782 494.3329,-189.3789 470,-201.0901 427.1544,-221.7113 385.8754,-258.5608 360.843,-283.4117"/>
<polygon fill="#000000" stroke="#000000" points="358.1656,-281.1411 353.6122,-290.7076 363.1375,-286.0687 358.1656,-281.1411"/>
</g>
<!-- v_1_211 -->
<g id="node12" class="node">
<title>v_1_211</title>
<path fill="#85cbd0" stroke="#000000" d="M622,-531.0901C622,-531.0901 563,-531.0901 563,-531.0901 557,-531.0901 551,-525.0901 551,-519.0901 551,-519.0901 551,-507.0901 551,-507.0901 551,-501.0901 557,-495.0901 563,-495.0901 563,-495.0901 622,-495.0901 622,-495.0901 628,-495.0901 634,-501.0901 634,-507.0901 634,-507.0901 634,-519.0901 634,-519.0901 634,-525.0901 628,-531.0901 622,-531.0901"/>
<text text-anchor="middle" x="592.5" y="-508.0901" font-family="Times,serif" font-size="20.00" fill="#000000">171 freq</text>
</g>
<!-- v_1_211&#45;&gt;v_1_202 -->
<g id="edge18" class="edge">
<title>v_1_211&#45;&gt;v_1_202</title>
<path fill="none" stroke="#000000" d="M550.7186,-504.8257C525.7191,-498.4686 494.2091,-487.8637 470,-471.0901 417.3393,-434.6032 374.0512,-371.8376 352.0951,-336.0885"/>
<polygon fill="#000000" stroke="#000000" points="354.89,-333.9457 346.7285,-327.1899 348.8957,-337.5607 354.89,-333.9457"/>
</g>
<!-- v_1_212 -->
<g id="node13" class="node">
<title>v_1_212</title>
<path fill="#85cbd0" stroke="#000000" d="M627,-462.0901C627,-462.0901 558,-462.0901 558,-462.0901 552,-462.0901 546,-456.0901 546,-450.0901 546,-450.0901 546,-438.0901 546,-438.0901 546,-432.0901 552,-426.0901 558,-426.0901 558,-426.0901 627,-426.0901 627,-426.0901 633,-426.0901 639,-432.0901 639,-438.0901 639,-438.0901 639,-450.0901 639,-450.0901 639,-456.0901 633,-462.0901 627,-462.0901"/>
<text text-anchor="middle" x="592.5" y="-439.0901" font-family="Times,serif" font-size="20.00" fill="#000000">171 pstop</text>
</g>
<!-- v_1_212&#45;&gt;v_1_202 -->
<g id="edge11" class="edge">
<title>v_1_212&#45;&gt;v_1_202</title>
<path fill="none" stroke="#000000" d="M545.7466,-438.97C522.1729,-435.1197 493.6461,-428.4707 470,-417.0901 427.1544,-396.4689 385.8754,-359.6194 360.843,-334.7685"/>
<polygon fill="#000000" stroke="#000000" points="363.1375,-332.1115 353.6122,-327.4726 358.1656,-337.039 363.1375,-332.1115"/>
</g>
<!-- v_1_218 -->
<g id="node14" class="node">
<title>v_1_218</title>
<polygon fill="#3a85b9" stroke="#000000" points="1014.5,-577.0901 792.5,-577.0901 792.5,-541.0901 1014.5,-541.0901 1014.5,-577.0901"/>
<text text-anchor="middle" x="903.5" y="-554.0901" font-family="Times,serif" font-size="20.00" fill="#ffffff">173 calculate_wavelength</text>
</g>
<!-- v_1_218&#45;&gt;v_1_211 -->
<g id="edge4" class="edge">
<title>v_1_218&#45;&gt;v_1_211</title>
<path fill="none" stroke="#000000" stroke-dasharray="5,2" d="M792.1003,-542.613C741.5944,-535.1426 684.3221,-526.6715 644.1205,-520.7253"/>
<polygon fill="#000000" stroke="#000000" points="644.4303,-517.2331 634.0258,-519.2322 643.406,-524.1578 644.4303,-517.2331"/>
</g>
<!-- v_1_219 -->
<g id="node15" class="node">
<title>v_1_219</title>
<path fill="#85cbd0" stroke="#000000" d="M1270.5,-577.0901C1270.5,-577.0901 1189.5,-577.0901 1189.5,-577.0901 1183.5,-577.0901 1177.5,-571.0901 1177.5,-565.0901 1177.5,-565.0901 1177.5,-553.0901 1177.5,-553.0901 1177.5,-547.0901 1183.5,-541.0901 1189.5,-541.0901 1189.5,-541.0901 1270.5,-541.0901 1270.5,-541.0901 1276.5,-541.0901 1282.5,-547.0901 1282.5,-553.0901 1282.5,-553.0901 1282.5,-565.0901 1282.5,-565.0901 1282.5,-571.0901 1276.5,-577.0901 1270.5,-577.0901"/>
<text text-anchor="middle" x="1230" y="-554.0901" font-family="Times,serif" font-size="20.00" fill="#000000">173 waveL</text>
</g>
<!-- v_1_219&#45;&gt;v_1_218 -->
<g id="edge25" class="edge">
<title>v_1_219&#45;&gt;v_1_218</title>
<path fill="none" stroke="#000000" d="M1177.1793,-559.0901C1136.0624,-559.0901 1077.3513,-559.0901 1024.8439,-559.0901"/>
<polygon fill="#000000" stroke="#000000" points="1024.7755,-555.5902 1014.7754,-559.0901 1024.7754,-562.5902 1024.7755,-555.5902"/>
</g>
<!-- v_1_226 -->
<g id="node16" class="node">
<title>v_1_226</title>
<polygon fill="#3a85b9" stroke="#000000" points="2086,-604.0901 2006,-604.0901 2006,-568.0901 2086,-568.0901 2086,-604.0901"/>
<text text-anchor="middle" x="2046" y="-581.0901" font-family="Times,serif" font-size="20.00" fill="#ffffff">178 exp</text>
</g>
<!-- v_1_222 -->
<g id="node17" class="node">
<title>v_1_222</title>
<path fill="#85cbd0" stroke="#000000" d="M1602.5,-577.0901C1602.5,-577.0901 1555.5,-577.0901 1555.5,-577.0901 1549.5,-577.0901 1543.5,-571.0901 1543.5,-565.0901 1543.5,-565.0901 1543.5,-553.0901 1543.5,-553.0901 1543.5,-547.0901 1549.5,-541.0901 1555.5,-541.0901 1555.5,-541.0901 1602.5,-541.0901 1602.5,-541.0901 1608.5,-541.0901 1614.5,-547.0901 1614.5,-553.0901 1614.5,-553.0901 1614.5,-565.0901 1614.5,-565.0901 1614.5,-571.0901 1608.5,-577.0901 1602.5,-577.0901"/>
<text text-anchor="middle" x="1579" y="-554.0901" font-family="Times,serif" font-size="20.00" fill="#000000">177 bk</text>
</g>
<!-- v_1_226&#45;&gt;v_1_222 -->
<g id="edge63" class="edge">
<title>v_1_226&#45;&gt;v_1_222</title>
<path fill="none" stroke="#000000" stroke-dasharray="5,2" d="M2005.7797,-583.7647C1919.2877,-578.7641 1716.0651,-567.0146 1624.794,-561.7377"/>
<polygon fill="#000000" stroke="#000000" points="1624.9386,-558.2403 1614.7533,-561.1572 1624.5345,-565.2286 1624.9386,-558.2403"/>
</g>
<!-- v_1_221 -->
<g id="node18" class="node">
<title>v_1_221</title>
<path fill="#85cbd0" stroke="#000000" d="M1613,-631.0901C1613,-631.0901 1545,-631.0901 1545,-631.0901 1539,-631.0901 1533,-625.0901 1533,-619.0901 1533,-619.0901 1533,-607.0901 1533,-607.0901 1533,-601.0901 1539,-595.0901 1545,-595.0901 1545,-595.0901 1613,-595.0901 1613,-595.0901 1619,-595.0901 1625,-601.0901 1625,-607.0901 1625,-607.0901 1625,-619.0901 1625,-619.0901 1625,-625.0901 1619,-631.0901 1613,-631.0901"/>
<text text-anchor="middle" x="1579" y="-608.0901" font-family="Times,serif" font-size="20.00" fill="#000000">176 delsq</text>
</g>
<!-- v_1_226&#45;&gt;v_1_221 -->
<g id="edge44" class="edge">
<title>v_1_226&#45;&gt;v_1_221</title>
<path fill="none" stroke="#000000" stroke-dasharray="5,2" d="M2005.7797,-588.4155C1922.421,-593.2349 1730.636,-604.3231 1635.1431,-609.8441"/>
<polygon fill="#000000" stroke="#000000" points="1634.8794,-606.3534 1625.0981,-610.4249 1635.2835,-613.3418 1634.8794,-606.3534"/>
</g>
<!-- v_1_222&#45;&gt;v_1_219 -->
<g id="edge69" class="edge">
<title>v_1_222&#45;&gt;v_1_219</title>
<path fill="none" stroke="#000000" d="M1543.291,-559.0901C1484.3053,-559.0901 1365.7785,-559.0901 1292.619,-559.0901"/>
<polygon fill="#000000" stroke="#000000" points="1292.6079,-555.5902 1282.6079,-559.0901 1292.6078,-562.5902 1292.6079,-555.5902"/>
</g>
<!-- v_1_221&#45;&gt;v_1_203 -->
<g id="edge12" class="edge">
<title>v_1_221&#45;&gt;v_1_203</title>
<path fill="none" stroke="#000000" d="M1532.6555,-613.0901C1469.9574,-613.0901 1358.0654,-613.0901 1289.3051,-613.0901"/>
<polygon fill="#000000" stroke="#000000" points="1289.0692,-609.5902 1279.0692,-613.0901 1289.0692,-616.5902 1289.0692,-609.5902"/>
</g>
<!-- v_1_227 -->
<g id="node19" class="node">
<title>v_1_227</title>
<path fill="#85cbd0" stroke="#000000" d="M2461,-604.0901C2461,-604.0901 2385,-604.0901 2385,-604.0901 2379,-604.0901 2373,-598.0901 2373,-592.0901 2373,-592.0901 2373,-580.0901 2373,-580.0901 2373,-574.0901 2379,-568.0901 2385,-568.0901 2385,-568.0901 2461,-568.0901 2461,-568.0901 2467,-568.0901 2473,-574.0901 2473,-580.0901 2473,-580.0901 2473,-592.0901 2473,-592.0901 2473,-598.0901 2467,-604.0901 2461,-604.0901"/>
<text text-anchor="middle" x="2423" y="-581.0901" font-family="Times,serif" font-size="20.00" fill="#000000">178 cfact1</text>
</g>
<!-- v_1_227&#45;&gt;v_1_226 -->
<g id="edge52" class="edge">
<title>v_1_227&#45;&gt;v_1_226</title>
<path fill="none" stroke="#000000" d="M2372.9373,-586.0901C2300.87,-586.0901 2168.6349,-586.0901 2096.3873,-586.0901"/>
<polygon fill="#000000" stroke="#000000" points="2096.1775,-582.5902 2086.1774,-586.0901 2096.1774,-589.5902 2096.1775,-582.5902"/>
</g>
<!-- v_1_237 -->
<g id="node20" class="node">
<title>v_1_237</title>
<polygon fill="#3a85b9" stroke="#000000" points="1754,-75.0901 1404,-75.0901 1404,-39.0901 1754,-39.0901 1754,-75.0901"/>
<text text-anchor="middle" x="1579" y="-52.0901" font-family="Times,serif" font-size="20.00" fill="#ffffff">184 calculate_incident_wave_polarization</text>
</g>
<!-- v_1_237&#45;&gt;v_1_204 -->
<g id="edge59" class="edge">
<title>v_1_237&#45;&gt;v_1_204</title>
<path fill="none" stroke="#000000" stroke-dasharray="5,2" d="M1403.9888,-57.0901C1358.8693,-57.0901 1313.7954,-57.0901 1280.8331,-57.0901"/>
<polygon fill="#000000" stroke="#000000" points="1280.572,-53.5902 1270.572,-57.0901 1280.5719,-60.5902 1280.572,-53.5902"/>
</g>
<!-- v_1_238 -->
<g id="node21" class="node">
<title>v_1_238</title>
<path fill="#85cbd0" stroke="#000000" d="M2068,-102.0901C2068,-102.0901 2024,-102.0901 2024,-102.0901 2018,-102.0901 2012,-96.0901 2012,-90.0901 2012,-90.0901 2012,-78.0901 2012,-78.0901 2012,-72.0901 2018,-66.0901 2024,-66.0901 2024,-66.0901 2068,-66.0901 2068,-66.0901 2074,-66.0901 2080,-72.0901 2080,-78.0901 2080,-78.0901 2080,-90.0901 2080,-90.0901 2080,-96.0901 2074,-102.0901 2068,-102.0901"/>
<text text-anchor="middle" x="2046" y="-79.0901" font-family="Times,serif" font-size="20.00" fill="#000000">184 Et</text>
</g>
<!-- v_1_238&#45;&gt;v_1_237 -->
<g id="edge22" class="edge">
<title>v_1_238&#45;&gt;v_1_237</title>
<path fill="none" stroke="#000000" d="M2011.6604,-82.1047C1959.4798,-79.0878 1856.5085,-73.1345 1764.1105,-67.7924"/>
<polygon fill="#000000" stroke="#000000" points="1764.2408,-64.2942 1754.0554,-67.2111 1763.8367,-71.2825 1764.2408,-64.2942"/>
</g>
<!-- v_1_239 -->
<g id="node22" class="node">
<title>v_1_239</title>
<path fill="#85cbd0" stroke="#000000" d="M2070.5,-48.0901C2070.5,-48.0901 2021.5,-48.0901 2021.5,-48.0901 2015.5,-48.0901 2009.5,-42.0901 2009.5,-36.0901 2009.5,-36.0901 2009.5,-24.0901 2009.5,-24.0901 2009.5,-18.0901 2015.5,-12.0901 2021.5,-12.0901 2021.5,-12.0901 2070.5,-12.0901 2070.5,-12.0901 2076.5,-12.0901 2082.5,-18.0901 2082.5,-24.0901 2082.5,-24.0901 2082.5,-36.0901 2082.5,-36.0901 2082.5,-42.0901 2076.5,-48.0901 2070.5,-48.0901"/>
<text text-anchor="middle" x="2046" y="-25.0901" font-family="Times,serif" font-size="20.00" fill="#000000">184 Ep</text>
</g>
<!-- v_1_239&#45;&gt;v_1_237 -->
<g id="edge23" class="edge">
<title>v_1_239&#45;&gt;v_1_237</title>
<path fill="none" stroke="#000000" d="M2009.3553,-32.2087C1956.5579,-35.2613 1855.4211,-41.1086 1764.4534,-46.3679"/>
<polygon fill="#000000" stroke="#000000" points="1764.0502,-42.8853 1754.269,-46.9568 1764.4543,-49.8736 1764.0502,-42.8853"/>
</g>
<!-- a_27 -->
<g id="node23" class="node">
<title>a_27</title>
<path fill="#ffffff" stroke="#000000" d="M412.5,-734.0901C412.5,-734.0901 260.5,-734.0901 260.5,-734.0901 254.5,-734.0901 248.5,-728.0901 248.5,-722.0901 248.5,-722.0901 248.5,-710.0901 248.5,-710.0901 248.5,-704.0901 254.5,-698.0901 260.5,-698.0901 260.5,-698.0901 412.5,-698.0901 412.5,-698.0901 418.5,-698.0901 424.5,-704.0901 424.5,-710.0901 424.5,-710.0901 424.5,-722.0901 424.5,-722.0901 424.5,-728.0901 418.5,-734.0901 412.5,-734.0901"/>
<text text-anchor="middle" x="336.5" y="-711.0901" font-family="Times,serif" font-size="20.00" fill="#000000">BOX/coordinates.m</text>
</g>
<!-- v_1_258 -->
<g id="node24" class="node">
<title>v_1_258</title>
<polygon fill="#3a85b9" stroke="#000000" points="715,-734.0901 470,-734.0901 470,-698.0901 715,-698.0901 715,-734.0901"/>
<text text-anchor="middle" x="592.5" y="-711.0901" font-family="Times,serif" font-size="20.00" fill="#ffffff">187 read_model_coordinates</text>
</g>
<!-- v_1_258&#45;&gt;a_27 -->
<g id="edge60" class="edge">
<title>v_1_258&#45;&gt;a_27</title>
<path fill="none" stroke="#000000" stroke-dasharray="5,2" d="M469.7487,-716.0901C457.9381,-716.0901 446.0677,-716.0901 434.5409,-716.0901"/>
<polygon fill="#000000" stroke="#000000" points="434.5097,-712.5902 424.5097,-716.0901 434.5097,-719.5902 434.5097,-712.5902"/>
</g>
<!-- v_1_26 -->
<g id="node25" class="node">
<title>v_1_26</title>
<path fill="#85cbd0" stroke="#000000" d="M399.5,-842.0901C399.5,-842.0901 273.5,-842.0901 273.5,-842.0901 267.5,-842.0901 261.5,-836.0901 261.5,-830.0901 261.5,-830.0901 261.5,-818.0901 261.5,-818.0901 261.5,-812.0901 267.5,-806.0901 273.5,-806.0901 273.5,-806.0901 399.5,-806.0901 399.5,-806.0901 405.5,-806.0901 411.5,-812.0901 411.5,-818.0901 411.5,-818.0901 411.5,-830.0901 411.5,-830.0901 411.5,-836.0901 405.5,-842.0901 399.5,-842.0901"/>
<text text-anchor="middle" x="336.5" y="-819.0901" font-family="Times,serif" font-size="20.00" fill="#000000">168 input_model</text>
</g>
<!-- v_1_258&#45;&gt;v_1_26 -->
<g id="edge30" class="edge">
<title>v_1_258&#45;&gt;v_1_26</title>
<path fill="none" stroke="#000000" stroke-dasharray="5,2" d="M549.6514,-734.1669C505.441,-752.8181 436.4273,-781.9332 388.974,-801.9526"/>
<polygon fill="#000000" stroke="#000000" points="387.3416,-798.8425 379.4884,-805.9543 390.0626,-805.292 387.3416,-798.8425"/>
</g>
<!-- v_1_259 -->
<g id="node26" class="node">
<title>v_1_259</title>
<path fill="#85cbd0" stroke="#000000" d="M933,-727.0901C933,-727.0901 874,-727.0901 874,-727.0901 868,-727.0901 862,-721.0901 862,-715.0901 862,-715.0901 862,-703.0901 862,-703.0901 862,-697.0901 868,-691.0901 874,-691.0901 874,-691.0901 933,-691.0901 933,-691.0901 939,-691.0901 945,-697.0901 945,-703.0901 945,-703.0901 945,-715.0901 945,-715.0901 945,-721.0901 939,-727.0901 933,-727.0901"/>
<text text-anchor="middle" x="903.5" y="-704.0901" font-family="Times,serif" font-size="20.00" fill="#000000">187 ypts</text>
</g>
<!-- v_1_259&#45;&gt;v_1_258 -->
<g id="edge19" class="edge">
<title>v_1_259&#45;&gt;v_1_258</title>
<path fill="none" stroke="#000000" d="M861.8799,-710.0269C826.7292,-710.818 774.3928,-711.996 725.1749,-713.1038"/>
<polygon fill="#000000" stroke="#000000" points="724.9722,-709.6074 715.0536,-713.3316 725.1298,-716.6056 724.9722,-709.6074"/>
</g>
<!-- v_1_260 -->
<g id="node27" class="node">
<title>v_1_260</title>
<path fill="#85cbd0" stroke="#000000" d="M933,-781.0901C933,-781.0901 874,-781.0901 874,-781.0901 868,-781.0901 862,-775.0901 862,-769.0901 862,-769.0901 862,-757.0901 862,-757.0901 862,-751.0901 868,-745.0901 874,-745.0901 874,-745.0901 933,-745.0901 933,-745.0901 939,-745.0901 945,-751.0901 945,-757.0901 945,-757.0901 945,-769.0901 945,-769.0901 945,-775.0901 939,-781.0901 933,-781.0901"/>
<text text-anchor="middle" x="903.5" y="-758.0901" font-family="Times,serif" font-size="20.00" fill="#000000">187 xpts</text>
</g>
<!-- v_1_260&#45;&gt;v_1_258 -->
<g id="edge40" class="edge">
<title>v_1_260&#45;&gt;v_1_258</title>
<path fill="none" stroke="#000000" d="M861.8799,-756.8002C825.8799,-751.3597 771.8538,-743.195 721.6133,-735.6024"/>
<polygon fill="#000000" stroke="#000000" points="722.0329,-732.1261 711.6222,-734.0925 720.9868,-739.0475 722.0329,-732.1261"/>
</g>
<!-- v_1_261 -->
<g id="node28" class="node">
<title>v_1_261</title>
<path fill="#85cbd0" stroke="#000000" d="M933,-673.0901C933,-673.0901 874,-673.0901 874,-673.0901 868,-673.0901 862,-667.0901 862,-661.0901 862,-661.0901 862,-649.0901 862,-649.0901 862,-643.0901 868,-637.0901 874,-637.0901 874,-637.0901 933,-637.0901 933,-637.0901 939,-637.0901 945,-643.0901 945,-649.0901 945,-649.0901 945,-661.0901 945,-661.0901 945,-667.0901 939,-673.0901 933,-673.0901"/>
<text text-anchor="middle" x="903.5" y="-650.0901" font-family="Times,serif" font-size="20.00" fill="#000000">187 zpts</text>
</g>
<!-- v_1_261&#45;&gt;v_1_258 -->
<g id="edge20" class="edge">
<title>v_1_261&#45;&gt;v_1_258</title>
<path fill="none" stroke="#000000" d="M861.6759,-662.0768C830.9905,-667.3044 788.3374,-674.7826 751,-682.0901 729.2044,-686.3558 705.7851,-691.2224 683.814,-695.9141"/>
<polygon fill="#000000" stroke="#000000" points="682.876,-692.5356 673.8322,-698.0546 684.3438,-699.38 682.876,-692.5356"/>
</g>
<!-- v_1_265 -->
<g id="node29" class="node">
<title>v_1_265</title>
<polygon fill="#3a85b9" stroke="#000000" points="1267.5,-781.0901 1192.5,-781.0901 1192.5,-745.0901 1267.5,-745.0901 1267.5,-781.0901"/>
<text text-anchor="middle" x="1230" y="-758.0901" font-family="Times,serif" font-size="20.00" fill="#ffffff">188 len</text>
</g>
<!-- v_1_265&#45;&gt;v_1_260 -->
<g id="edge70" class="edge">
<title>v_1_265&#45;&gt;v_1_260</title>
<path fill="none" stroke="#000000" stroke-dasharray="5,2" d="M1192.2273,-763.0901C1133.7507,-763.0901 1021.1852,-763.0901 955.2059,-763.0901"/>
<polygon fill="#000000" stroke="#000000" points="955.0321,-759.5902 945.032,-763.0901 955.032,-766.5902 955.0321,-759.5902"/>
</g>
<!-- v_1_266 -->
<g id="node30" class="node">
<title>v_1_266</title>
<path fill="#85cbd0" stroke="#000000" d="M1616.5,-781.0901C1616.5,-781.0901 1541.5,-781.0901 1541.5,-781.0901 1535.5,-781.0901 1529.5,-775.0901 1529.5,-769.0901 1529.5,-769.0901 1529.5,-757.0901 1529.5,-757.0901 1529.5,-751.0901 1535.5,-745.0901 1541.5,-745.0901 1541.5,-745.0901 1616.5,-745.0901 1616.5,-745.0901 1622.5,-745.0901 1628.5,-751.0901 1628.5,-757.0901 1628.5,-757.0901 1628.5,-769.0901 1628.5,-769.0901 1628.5,-775.0901 1622.5,-781.0901 1616.5,-781.0901"/>
<text text-anchor="middle" x="1579" y="-758.0901" font-family="Times,serif" font-size="20.00" fill="#000000">188 nverts</text>
</g>
<!-- v_1_266&#45;&gt;v_1_265 -->
<g id="edge37" class="edge">
<title>v_1_266&#45;&gt;v_1_265</title>
<path fill="none" stroke="#000000" d="M1529.3674,-763.0901C1462.3803,-763.0901 1343.8388,-763.0901 1277.8048,-763.0901"/>
<polygon fill="#000000" stroke="#000000" points="1277.6736,-759.5902 1267.6736,-763.0901 1277.6735,-766.5902 1277.6736,-759.5902"/>
</g>
<!-- a_29 -->
<g id="node31" class="node">
<title>a_29</title>
<path fill="#ffffff" stroke="#000000" d="M390,-909.0901C390,-909.0901 283,-909.0901 283,-909.0901 277,-909.0901 271,-903.0901 271,-897.0901 271,-897.0901 271,-885.0901 271,-885.0901 271,-879.0901 277,-873.0901 283,-873.0901 283,-873.0901 390,-873.0901 390,-873.0901 396,-873.0901 402,-879.0901 402,-885.0901 402,-885.0901 402,-897.0901 402,-897.0901 402,-903.0901 396,-909.0901 390,-909.0901"/>
<text text-anchor="middle" x="336.5" y="-886.0901" font-family="Times,serif" font-size="20.00" fill="#000000">BOX/facets.m</text>
</g>
<!-- v_1_282 -->
<g id="node32" class="node">
<title>v_1_282</title>
<polygon fill="#3a85b9" stroke="#000000" points="693,-909.0901 492,-909.0901 492,-873.0901 693,-873.0901 693,-909.0901"/>
<text text-anchor="middle" x="592.5" y="-886.0901" font-family="Times,serif" font-size="20.00" fill="#ffffff">190 read_facets_model</text>
</g>
<!-- v_1_282&#45;&gt;v_1_26 -->
<g id="edge2" class="edge">
<title>v_1_282&#45;&gt;v_1_26</title>
<path fill="none" stroke="#000000" stroke-dasharray="5,2" d="M523.5599,-873.0472C490.2675,-864.3339 450.1477,-853.8338 415.6145,-844.7958"/>
<polygon fill="#000000" stroke="#000000" points="416.1235,-841.3112 405.5632,-842.1652 414.3511,-848.0831 416.1235,-841.3112"/>
</g>
<!-- v_1_282&#45;&gt;a_29 -->
<g id="edge24" class="edge">
<title>v_1_282&#45;&gt;a_29</title>
<path fill="none" stroke="#000000" stroke-dasharray="5,2" d="M491.6895,-891.0901C465.2497,-891.0901 437.1873,-891.0901 412.3015,-891.0901"/>
<polygon fill="#000000" stroke="#000000" points="412.2088,-887.5902 402.2088,-891.0901 412.2088,-894.5902 412.2088,-887.5902"/>
</g>
<!-- v_1_283 -->
<g id="node33" class="node">
<title>v_1_283</title>
<path fill="#85cbd0" stroke="#000000" d="M940.5,-936.0901C940.5,-936.0901 866.5,-936.0901 866.5,-936.0901 860.5,-936.0901 854.5,-930.0901 854.5,-924.0901 854.5,-924.0901 854.5,-912.0901 854.5,-912.0901 854.5,-906.0901 860.5,-900.0901 866.5,-900.0901 866.5,-900.0901 940.5,-900.0901 940.5,-900.0901 946.5,-900.0901 952.5,-906.0901 952.5,-912.0901 952.5,-912.0901 952.5,-924.0901 952.5,-924.0901 952.5,-930.0901 946.5,-936.0901 940.5,-936.0901"/>
<text text-anchor="middle" x="903.5" y="-913.0901" font-family="Times,serif" font-size="20.00" fill="#000000">190 facets</text>
</g>
<!-- v_1_283&#45;&gt;v_1_282 -->
<g id="edge15" class="edge">
<title>v_1_283&#45;&gt;v_1_282</title>
<path fill="none" stroke="#000000" d="M854.2211,-913.8118C813.7571,-910.2989 754.9113,-905.1901 703.2628,-900.7061"/>
<polygon fill="#000000" stroke="#000000" points="703.3019,-897.1965 693.0366,-899.8183 702.6964,-904.1702 703.3019,-897.1965"/>
</g>
<!-- v_1_297 -->
<g id="node34" class="node">
<title>v_1_297</title>
<polygon fill="#3a85b9" stroke="#000000" points="1362,-943.0901 1098,-943.0901 1098,-907.0901 1362,-907.0901 1362,-943.0901"/>
<text text-anchor="middle" x="1230" y="-920.0901" font-family="Times,serif" font-size="20.00" fill="#ffffff">192 generate_transpose_matrix</text>
</g>
<!-- v_1_297&#45;&gt;v_1_283 -->
<g id="edge7" class="edge">
<title>v_1_297&#45;&gt;v_1_283</title>
<path fill="none" stroke="#000000" stroke-dasharray="5,2" d="M1097.6706,-922.253C1050.975,-921.2519 1000.776,-920.1756 963.1191,-919.3683"/>
<polygon fill="#000000" stroke="#000000" points="962.9166,-915.8632 952.8438,-919.148 962.7665,-922.8616 962.9166,-915.8632"/>
</g>
<!-- v_1_298 -->
<g id="node35" class="node">
<title>v_1_298</title>
<path fill="#85cbd0" stroke="#000000" d="M1603,-1105.0901C1603,-1105.0901 1555,-1105.0901 1555,-1105.0901 1549,-1105.0901 1543,-1099.0901 1543,-1093.0901 1543,-1093.0901 1543,-1081.0901 1543,-1081.0901 1543,-1075.0901 1549,-1069.0901 1555,-1069.0901 1555,-1069.0901 1603,-1069.0901 1603,-1069.0901 1609,-1069.0901 1615,-1075.0901 1615,-1081.0901 1615,-1081.0901 1615,-1093.0901 1615,-1093.0901 1615,-1099.0901 1609,-1105.0901 1603,-1105.0901"/>
<text text-anchor="middle" x="1579" y="-1082.0901" font-family="Times,serif" font-size="20.00" fill="#000000">192 Rs</text>
</g>
<!-- v_1_298&#45;&gt;v_1_297 -->
<g id="edge14" class="edge">
<title>v_1_298&#45;&gt;v_1_297</title>
<path fill="none" stroke="#000000" d="M1542.6887,-1086.7511C1506.2435,-1085.2218 1449.1788,-1079.5365 1404,-1060.0901 1343.7817,-1034.1701 1286.1699,-982.4072 1254.6887,-951.0491"/>
<polygon fill="#000000" stroke="#000000" points="1256.7841,-948.1907 1247.2624,-943.5445 1251.8085,-953.1144 1256.7841,-948.1907"/>
</g>
<!-- v_1_299 -->
<g id="node36" class="node">
<title>v_1_299</title>
<path fill="#85cbd0" stroke="#000000" d="M1610,-1051.0901C1610,-1051.0901 1548,-1051.0901 1548,-1051.0901 1542,-1051.0901 1536,-1045.0901 1536,-1039.0901 1536,-1039.0901 1536,-1027.0901 1536,-1027.0901 1536,-1021.0901 1542,-1015.0901 1548,-1015.0901 1548,-1015.0901 1610,-1015.0901 1610,-1015.0901 1616,-1015.0901 1622,-1021.0901 1622,-1027.0901 1622,-1027.0901 1622,-1039.0901 1622,-1039.0901 1622,-1045.0901 1616,-1051.0901 1610,-1051.0901"/>
<text text-anchor="middle" x="1579" y="-1028.0901" font-family="Times,serif" font-size="20.00" fill="#000000">192 nfcv</text>
</g>
<!-- v_1_299&#45;&gt;v_1_297 -->
<g id="edge42" class="edge">
<title>v_1_299&#45;&gt;v_1_297</title>
<path fill="none" stroke="#000000" d="M1535.8133,-1029.8478C1499.9258,-1026.3463 1447.8343,-1019.3802 1404,-1006.0901 1356.2868,-991.6239 1304.9062,-966.3966 1270.4454,-947.9297"/>
<polygon fill="#000000" stroke="#000000" points="1272.087,-944.8385 1261.627,-943.1535 1268.7532,-950.9937 1272.087,-944.8385"/>
</g>
<!-- v_1_300 -->
<g id="node37" class="node">
<title>v_1_300</title>
<path fill="#85cbd0" stroke="#000000" d="M1616.5,-997.0901C1616.5,-997.0901 1541.5,-997.0901 1541.5,-997.0901 1535.5,-997.0901 1529.5,-991.0901 1529.5,-985.0901 1529.5,-985.0901 1529.5,-973.0901 1529.5,-973.0901 1529.5,-967.0901 1535.5,-961.0901 1541.5,-961.0901 1541.5,-961.0901 1616.5,-961.0901 1616.5,-961.0901 1622.5,-961.0901 1628.5,-967.0901 1628.5,-973.0901 1628.5,-973.0901 1628.5,-985.0901 1628.5,-985.0901 1628.5,-991.0901 1622.5,-997.0901 1616.5,-997.0901"/>
<text text-anchor="middle" x="1579" y="-974.0901" font-family="Times,serif" font-size="20.00" fill="#000000">192 node1</text>
</g>
<!-- v_1_300&#45;&gt;v_1_297 -->
<g id="edge32" class="edge">
<title>v_1_300&#45;&gt;v_1_297</title>
<path fill="none" stroke="#000000" d="M1529.213,-971.4204C1494.1917,-966.0225 1446.2281,-958.624 1404,-952.0901 1388.4889,-949.6901 1372.2005,-947.1667 1356.0705,-944.6659"/>
<polygon fill="#000000" stroke="#000000" points="1356.4744,-941.1868 1346.0562,-943.1131 1355.4018,-948.1041 1356.4744,-941.1868"/>
</g>
<!-- v_1_301 -->
<g id="node38" class="node">
<title>v_1_301</title>
<path fill="#85cbd0" stroke="#000000" d="M1610.5,-943.0901C1610.5,-943.0901 1547.5,-943.0901 1547.5,-943.0901 1541.5,-943.0901 1535.5,-937.0901 1535.5,-931.0901 1535.5,-931.0901 1535.5,-919.0901 1535.5,-919.0901 1535.5,-913.0901 1541.5,-907.0901 1547.5,-907.0901 1547.5,-907.0901 1610.5,-907.0901 1610.5,-907.0901 1616.5,-907.0901 1622.5,-913.0901 1622.5,-919.0901 1622.5,-919.0901 1622.5,-931.0901 1622.5,-931.0901 1622.5,-937.0901 1616.5,-943.0901 1610.5,-943.0901"/>
<text text-anchor="middle" x="1579" y="-920.0901" font-family="Times,serif" font-size="20.00" fill="#000000">192 ilum</text>
</g>
<!-- v_1_301&#45;&gt;v_1_297 -->
<g id="edge57" class="edge">
<title>v_1_301&#45;&gt;v_1_297</title>
<path fill="none" stroke="#000000" d="M1535.1523,-925.0901C1494.223,-925.0901 1430.8553,-925.0901 1372.4487,-925.0901"/>
<polygon fill="#000000" stroke="#000000" points="1372.3672,-921.5902 1362.3671,-925.0901 1372.3671,-928.5902 1372.3672,-921.5902"/>
</g>
<!-- v_1_302 -->
<g id="node39" class="node">
<title>v_1_302</title>
<path fill="#85cbd0" stroke="#000000" d="M1616.5,-889.0901C1616.5,-889.0901 1541.5,-889.0901 1541.5,-889.0901 1535.5,-889.0901 1529.5,-883.0901 1529.5,-877.0901 1529.5,-877.0901 1529.5,-865.0901 1529.5,-865.0901 1529.5,-859.0901 1535.5,-853.0901 1541.5,-853.0901 1541.5,-853.0901 1616.5,-853.0901 1616.5,-853.0901 1622.5,-853.0901 1628.5,-859.0901 1628.5,-865.0901 1628.5,-865.0901 1628.5,-877.0901 1628.5,-877.0901 1628.5,-883.0901 1622.5,-889.0901 1616.5,-889.0901"/>
<text text-anchor="middle" x="1579" y="-866.0901" font-family="Times,serif" font-size="20.00" fill="#000000">192 node3</text>
</g>
<!-- v_1_302&#45;&gt;v_1_297 -->
<g id="edge54" class="edge">
<title>v_1_302&#45;&gt;v_1_297</title>
<path fill="none" stroke="#000000" d="M1529.213,-878.7598C1494.1917,-884.1577 1446.2281,-891.5562 1404,-898.0901 1388.4889,-900.4901 1372.2005,-903.0135 1356.0705,-905.5142"/>
<polygon fill="#000000" stroke="#000000" points="1355.4018,-902.076 1346.0562,-907.0671 1356.4744,-908.9933 1355.4018,-902.076"/>
</g>
<!-- v_1_303 -->
<g id="node40" class="node">
<title>v_1_303</title>
<path fill="#85cbd0" stroke="#000000" d="M1616.5,-835.0901C1616.5,-835.0901 1541.5,-835.0901 1541.5,-835.0901 1535.5,-835.0901 1529.5,-829.0901 1529.5,-823.0901 1529.5,-823.0901 1529.5,-811.0901 1529.5,-811.0901 1529.5,-805.0901 1535.5,-799.0901 1541.5,-799.0901 1541.5,-799.0901 1616.5,-799.0901 1616.5,-799.0901 1622.5,-799.0901 1628.5,-805.0901 1628.5,-811.0901 1628.5,-811.0901 1628.5,-823.0901 1628.5,-823.0901 1628.5,-829.0901 1622.5,-835.0901 1616.5,-835.0901"/>
<text text-anchor="middle" x="1579" y="-812.0901" font-family="Times,serif" font-size="20.00" fill="#000000">192 node2</text>
</g>
<!-- v_1_303&#45;&gt;v_1_297 -->
<g id="edge29" class="edge">
<title>v_1_303&#45;&gt;v_1_297</title>
<path fill="none" stroke="#000000" d="M1529.1382,-821.0054C1493.663,-824.6985 1445.1866,-831.6027 1404,-844.0901 1356.2868,-858.5563 1304.9062,-883.7835 1270.4454,-902.2504"/>
<polygon fill="#000000" stroke="#000000" points="1268.7532,-899.1865 1261.627,-907.0267 1272.087,-905.3417 1268.7532,-899.1865"/>
</g>
<!-- v_1_307 -->
<g id="node41" class="node">
<title>v_1_307</title>
<polygon fill="#3a85b9" stroke="#000000" points="2083.5,-889.0901 2008.5,-889.0901 2008.5,-853.0901 2083.5,-853.0901 2083.5,-889.0901"/>
<text text-anchor="middle" x="2046" y="-866.0901" font-family="Times,serif" font-size="20.00" fill="#ffffff">193 len</text>
</g>
<!-- v_1_307&#45;&gt;v_1_302 -->
<g id="edge17" class="edge">
<title>v_1_307&#45;&gt;v_1_302</title>
<path fill="none" stroke="#000000" stroke-dasharray="5,2" d="M2008.179,-871.0901C1927.2042,-871.0901 1736.5114,-871.0901 1638.8814,-871.0901"/>
<polygon fill="#000000" stroke="#000000" points="1638.5898,-867.5902 1628.5898,-871.0901 1638.5898,-874.5902 1638.5898,-867.5902"/>
</g>
<!-- v_1_308 -->
<g id="node42" class="node">
<title>v_1_308</title>
<path fill="#85cbd0" stroke="#000000" d="M2454.5,-889.0901C2454.5,-889.0901 2391.5,-889.0901 2391.5,-889.0901 2385.5,-889.0901 2379.5,-883.0901 2379.5,-877.0901 2379.5,-877.0901 2379.5,-865.0901 2379.5,-865.0901 2379.5,-859.0901 2385.5,-853.0901 2391.5,-853.0901 2391.5,-853.0901 2454.5,-853.0901 2454.5,-853.0901 2460.5,-853.0901 2466.5,-859.0901 2466.5,-865.0901 2466.5,-865.0901 2466.5,-877.0901 2466.5,-877.0901 2466.5,-883.0901 2460.5,-889.0901 2454.5,-889.0901"/>
<text text-anchor="middle" x="2423" y="-866.0901" font-family="Times,serif" font-size="20.00" fill="#000000">193 ntria</text>
</g>
<!-- v_1_308&#45;&gt;v_1_307 -->
<g id="edge49" class="edge">
<title>v_1_308&#45;&gt;v_1_307</title>
<path fill="none" stroke="#000000" d="M2379.385,-871.0901C2308.2606,-871.0901 2167.8379,-871.0901 2093.9841,-871.0901"/>
<polygon fill="#000000" stroke="#000000" points="2093.5869,-867.5902 2083.5869,-871.0901 2093.5868,-874.5902 2093.5869,-867.5902"/>
</g>
<!-- v_1_328 -->
<g id="node43" class="node">
<title>v_1_328</title>
<polygon fill="#3a85b9" stroke="#000000" points="1368,-727.0901 1092,-727.0901 1092,-691.0901 1368,-691.0901 1368,-727.0901"/>
<text text-anchor="middle" x="1230" y="-704.0901" font-family="Times,serif" font-size="20.00" fill="#ffffff">195 generate_coordinates_points</text>
</g>
<!-- v_1_328&#45;&gt;v_1_259 -->
<g id="edge56" class="edge">
<title>v_1_328&#45;&gt;v_1_259</title>
<path fill="none" stroke="#000000" stroke-dasharray="5,2" d="M1091.5346,-709.0901C1043.4453,-709.0901 992.4182,-709.0901 955.6724,-709.0901"/>
<polygon fill="#000000" stroke="#000000" points="955.2246,-705.5902 945.2246,-709.0901 955.2246,-712.5902 955.2246,-705.5902"/>
</g>
<!-- v_1_328&#45;&gt;v_1_260 -->
<g id="edge50" class="edge">
<title>v_1_328&#45;&gt;v_1_260</title>
<path fill="none" stroke="#000000" stroke-dasharray="5,2" d="M1120.8263,-727.1464C1064.9309,-736.3909 999.5005,-747.2125 955.1497,-754.5477"/>
<polygon fill="#000000" stroke="#000000" points="954.4786,-751.1111 945.1837,-756.196 955.6208,-758.0173 954.4786,-751.1111"/>
</g>
<!-- v_1_328&#45;&gt;v_1_261 -->
<g id="edge3" class="edge">
<title>v_1_328&#45;&gt;v_1_261</title>
<path fill="none" stroke="#000000" stroke-dasharray="5,2" d="M1120.8263,-691.0338C1064.9309,-681.7892 999.5005,-670.9677 955.1497,-663.6324"/>
<polygon fill="#000000" stroke="#000000" points="955.6208,-660.1629 945.1837,-661.9842 954.4786,-667.0691 955.6208,-660.1629"/>
</g>
<!-- v_1_329 -->
<g id="node44" class="node">
<title>v_1_329</title>
<path fill="#85cbd0" stroke="#000000" d="M1596,-727.0901C1596,-727.0901 1562,-727.0901 1562,-727.0901 1556,-727.0901 1550,-721.0901 1550,-715.0901 1550,-715.0901 1550,-703.0901 1550,-703.0901 1550,-697.0901 1556,-691.0901 1562,-691.0901 1562,-691.0901 1596,-691.0901 1596,-691.0901 1602,-691.0901 1608,-697.0901 1608,-703.0901 1608,-703.0901 1608,-715.0901 1608,-715.0901 1608,-721.0901 1602,-727.0901 1596,-727.0901"/>
<text text-anchor="middle" x="1579" y="-704.0901" font-family="Times,serif" font-size="20.00" fill="#000000">195 r</text>
</g>
<!-- v_1_329&#45;&gt;v_1_328 -->
<g id="edge61" class="edge">
<title>v_1_329&#45;&gt;v_1_328</title>
<path fill="none" stroke="#000000" d="M1549.8447,-709.0901C1511.9012,-709.0901 1442.8359,-709.0901 1378.5697,-709.0901"/>
<polygon fill="#000000" stroke="#000000" points="1378.3022,-705.5902 1368.3021,-709.0901 1378.3021,-712.5902 1378.3022,-705.5902"/>
</g>
<!-- v_1_349 -->
<g id="node45" class="node">
<title>v_1_349</title>
<polygon fill="#3a85b9" stroke="#000000" points="1056,-340.0901 751,-340.0901 751,-304.0901 1056,-304.0901 1056,-340.0901"/>
<text text-anchor="middle" x="903.5" y="-317.0901" font-family="Times,serif" font-size="20.00" fill="#ffffff">197 calculate_refs_geometry_model</text>
</g>
<!-- v_1_349&#45;&gt;v_1_205 -->
<g id="edge5" class="edge">
<title>v_1_349&#45;&gt;v_1_205</title>
<path fill="none" stroke="#000000" stroke-dasharray="5,2" d="M820.9742,-340.1343C766.2056,-352.1094 695.8175,-367.4998 647.7322,-378.0136"/>
<polygon fill="#000000" stroke="#000000" points="646.845,-374.6248 637.8235,-380.1801 648.3403,-381.4632 646.845,-374.6248"/>
</g>
<!-- v_1_349&#45;&gt;v_1_206 -->
<g id="edge26" class="edge">
<title>v_1_349&#45;&gt;v_1_206</title>
<path fill="none" stroke="#000000" stroke-dasharray="5,2" d="M857.9257,-304.0889C820.0668,-289.5733 764.5786,-269.305 715,-255.0901 694.0411,-249.0808 670.7397,-243.6423 650.1336,-239.2471"/>
<polygon fill="#000000" stroke="#000000" points="650.762,-235.8028 640.2564,-237.1754 649.3249,-242.6538 650.762,-235.8028"/>
</g>
<!-- v_1_349&#45;&gt;v_1_207 -->
<g id="edge51" class="edge">
<title>v_1_349&#45;&gt;v_1_207</title>
<path fill="none" stroke="#000000" stroke-dasharray="5,2" d="M763.4665,-304.0793C721.4225,-298.6718 677.8554,-293.0683 645.2236,-288.8713"/>
<polygon fill="#000000" stroke="#000000" points="645.3937,-285.3644 635.0289,-287.56 644.5007,-292.3072 645.3937,-285.3644"/>
</g>
<!-- v_1_349&#45;&gt;v_1_208 -->
<g id="edge55" class="edge">
<title>v_1_349&#45;&gt;v_1_208</title>
<path fill="none" stroke="#000000" stroke-dasharray="5,2" d="M750.7333,-328.967C711.7081,-330.7238 672.4534,-332.4909 642.8049,-333.8256"/>
<polygon fill="#000000" stroke="#000000" points="642.567,-330.3326 632.7346,-334.2789 642.8819,-337.3255 642.567,-330.3326"/>
</g>
<!-- v_1_349&#45;&gt;v_1_210 -->
<g id="edge41" class="edge">
<title>v_1_349&#45;&gt;v_1_210</title>
<path fill="none" stroke="#000000" stroke-dasharray="5,2" d="M881.1795,-303.9731C847.3154,-277.402 779.9993,-228.0978 715,-201.0901 693.5588,-192.1811 668.7297,-186.0097 647.0536,-181.8409"/>
<polygon fill="#000000" stroke="#000000" points="647.4843,-178.3617 637.0182,-180.008 646.2266,-185.2478 647.4843,-178.3617"/>
</g>
<!-- v_1_349&#45;&gt;v_1_212 -->
<g id="edge45" class="edge">
<title>v_1_349&#45;&gt;v_1_212</title>
<path fill="none" stroke="#000000" stroke-dasharray="5,2" d="M873.5245,-340.1661C837.184,-361.3698 773.5214,-396.2648 715,-417.0901 694.0177,-424.5568 670.2506,-430.3666 649.272,-434.6518"/>
<polygon fill="#000000" stroke="#000000" points="648.3558,-431.265 639.2219,-436.6336 649.7101,-438.1327 648.3558,-431.265"/>
</g>
<!-- v_1_229 -->
<g id="node46" class="node">
<title>v_1_229</title>
<path fill="#85cbd0" stroke="#000000" d="M2449.5,-943.0901C2449.5,-943.0901 2396.5,-943.0901 2396.5,-943.0901 2390.5,-943.0901 2384.5,-937.0901 2384.5,-931.0901 2384.5,-931.0901 2384.5,-919.0901 2384.5,-919.0901 2384.5,-913.0901 2390.5,-907.0901 2396.5,-907.0901 2396.5,-907.0901 2449.5,-907.0901 2449.5,-907.0901 2455.5,-907.0901 2461.5,-913.0901 2461.5,-919.0901 2461.5,-919.0901 2461.5,-931.0901 2461.5,-931.0901 2461.5,-937.0901 2455.5,-943.0901 2449.5,-943.0901"/>
<text text-anchor="middle" x="2423" y="-920.0901" font-family="Times,serif" font-size="20.00" fill="#000000">180 rad</text>
</g>
<!-- v_1_350 -->
<g id="node47" class="node">
<title>v_1_350</title>
<path fill="#85cbd0" stroke="#000000" d="M1251,-301.0901C1251,-301.0901 1209,-301.0901 1209,-301.0901 1203,-301.0901 1197,-295.0901 1197,-289.0901 1197,-289.0901 1197,-277.0901 1197,-277.0901 1197,-271.0901 1203,-265.0901 1209,-265.0901 1209,-265.0901 1251,-265.0901 1251,-265.0901 1257,-265.0901 1263,-271.0901 1263,-277.0901 1263,-277.0901 1263,-289.0901 1263,-289.0901 1263,-295.0901 1257,-301.0901 1251,-301.0901"/>
<text text-anchor="middle" x="1230" y="-278.0901" font-family="Times,serif" font-size="20.00" fill="#000000">197 ip</text>
</g>
<!-- v_1_350&#45;&gt;v_1_349 -->
<g id="edge8" class="edge">
<title>v_1_350&#45;&gt;v_1_349</title>
<path fill="none" stroke="#000000" d="M1196.8967,-287.0442C1165.1311,-290.8386 1114.7098,-296.8613 1064.5636,-302.8512"/>
<polygon fill="#000000" stroke="#000000" points="1064.0579,-299.3867 1054.5437,-304.0481 1064.8882,-306.3373 1064.0579,-299.3867"/>
</g>
<!-- v_1_351 -->
<g id="node48" class="node">
<title>v_1_351</title>
<path fill="#85cbd0" stroke="#000000" d="M1249,-247.0901C1249,-247.0901 1211,-247.0901 1211,-247.0901 1205,-247.0901 1199,-241.0901 1199,-235.0901 1199,-235.0901 1199,-223.0901 1199,-223.0901 1199,-217.0901 1205,-211.0901 1211,-211.0901 1211,-211.0901 1249,-211.0901 1249,-211.0901 1255,-211.0901 1261,-217.0901 1261,-223.0901 1261,-223.0901 1261,-235.0901 1261,-235.0901 1261,-241.0901 1255,-247.0901 1249,-247.0901"/>
<text text-anchor="middle" x="1230" y="-224.0901" font-family="Times,serif" font-size="20.00" fill="#000000">197 it</text>
</g>
<!-- v_1_351&#45;&gt;v_1_349 -->
<g id="edge9" class="edge">
<title>v_1_351&#45;&gt;v_1_349</title>
<path fill="none" stroke="#000000" d="M1198.7396,-233.889C1170.5757,-238.5233 1128.1652,-246.2754 1092,-256.0901 1046.3834,-268.4697 995.8988,-286.3795 958.6652,-300.4196"/>
<polygon fill="#000000" stroke="#000000" points="957.1202,-297.2623 949.0138,-304.0841 959.605,-303.8065 957.1202,-297.2623"/>
</g>
<!-- v_1_352 -->
<g id="node49" class="node">
<title>v_1_352</title>
<path fill="#85cbd0" stroke="#000000" d="M1258,-355.0901C1258,-355.0901 1202,-355.0901 1202,-355.0901 1196,-355.0901 1190,-349.0901 1190,-343.0901 1190,-343.0901 1190,-331.0901 1190,-331.0901 1190,-325.0901 1196,-319.0901 1202,-319.0901 1202,-319.0901 1258,-319.0901 1258,-319.0901 1264,-319.0901 1270,-325.0901 1270,-331.0901 1270,-331.0901 1270,-343.0901 1270,-343.0901 1270,-349.0901 1264,-355.0901 1258,-355.0901"/>
<text text-anchor="middle" x="1230" y="-332.0901" font-family="Times,serif" font-size="20.00" fill="#000000">197 delt</text>
</g>
<!-- v_1_352&#45;&gt;v_1_349 -->
<g id="edge46" class="edge">
<title>v_1_352&#45;&gt;v_1_349</title>
<path fill="none" stroke="#000000" d="M1189.9647,-335.2508C1158.4741,-333.8041 1112.3597,-331.6855 1066.2937,-329.5691"/>
<polygon fill="#000000" stroke="#000000" points="1066.31,-326.0663 1056.1599,-329.1036 1065.9887,-333.0589 1066.31,-326.0663"/>
</g>
<!-- v_1_353 -->
<g id="node50" class="node">
<title>v_1_353</title>
<path fill="#85cbd0" stroke="#000000" d="M1260.5,-409.0901C1260.5,-409.0901 1199.5,-409.0901 1199.5,-409.0901 1193.5,-409.0901 1187.5,-403.0901 1187.5,-397.0901 1187.5,-397.0901 1187.5,-385.0901 1187.5,-385.0901 1187.5,-379.0901 1193.5,-373.0901 1199.5,-373.0901 1199.5,-373.0901 1260.5,-373.0901 1260.5,-373.0901 1266.5,-373.0901 1272.5,-379.0901 1272.5,-385.0901 1272.5,-385.0901 1272.5,-397.0901 1272.5,-397.0901 1272.5,-403.0901 1266.5,-409.0901 1260.5,-409.0901"/>
<text text-anchor="middle" x="1230" y="-386.0901" font-family="Times,serif" font-size="20.00" fill="#000000">197 delp</text>
</g>
<!-- v_1_353&#45;&gt;v_1_349 -->
<g id="edge62" class="edge">
<title>v_1_353&#45;&gt;v_1_349</title>
<path fill="none" stroke="#000000" d="M1187.3578,-383.0438C1160.0581,-377.8192 1123.9003,-370.7635 1092,-364.0901 1059.4258,-357.2757 1023.7738,-349.4316 992.3277,-342.3808"/>
<polygon fill="#000000" stroke="#000000" points="992.7991,-338.8995 982.275,-340.1217 991.2642,-345.7292 992.7991,-338.8995"/>
</g>
<!-- v_1_1214 -->
<g id="node51" class="node">
<title>v_1_1214</title>
<polygon fill="#3a85b9" stroke="#000000" points="2225,-1051.0901 1867,-1051.0901 1867,-1015.0901 2225,-1015.0901 2225,-1051.0901"/>
<text text-anchor="middle" x="2046" y="-1028.0901" font-family="Times,serif" font-size="20.00" fill="#ffffff">199 calculate_edges_and_normal_triangles</text>
</g>
<!-- v_1_1215 -->
<g id="node52" class="node">
<title>v_1_1215</title>
<path fill="#85cbd0" stroke="#000000" d="M2458,-1105.0901C2458,-1105.0901 2388,-1105.0901 2388,-1105.0901 2382,-1105.0901 2376,-1099.0901 2376,-1093.0901 2376,-1093.0901 2376,-1081.0901 2376,-1081.0901 2376,-1075.0901 2382,-1069.0901 2388,-1069.0901 2388,-1069.0901 2458,-1069.0901 2458,-1069.0901 2464,-1069.0901 2470,-1075.0901 2470,-1081.0901 2470,-1081.0901 2470,-1093.0901 2470,-1093.0901 2470,-1099.0901 2464,-1105.0901 2458,-1105.0901"/>
<text text-anchor="middle" x="2423" y="-1082.0901" font-family="Times,serif" font-size="20.00" fill="#000000">199 alpha</text>
</g>
<!-- v_1_1215&#45;&gt;v_1_1214 -->
<g id="edge67" class="edge">
<title>v_1_1215&#45;&gt;v_1_1214</title>
<path fill="none" stroke="#000000" d="M2375.6344,-1080.3056C2327.1919,-1073.3669 2249.6516,-1062.2603 2181.9437,-1052.5621"/>
<polygon fill="#000000" stroke="#000000" points="2182.4252,-1049.0955 2172.03,-1051.1421 2181.4327,-1056.0247 2182.4252,-1049.0955"/>
</g>
<!-- v_1_1216 -->
<g id="node53" class="node">
<title>v_1_1216</title>
<path fill="#85cbd0" stroke="#000000" d="M2453,-1051.0901C2453,-1051.0901 2393,-1051.0901 2393,-1051.0901 2387,-1051.0901 2381,-1045.0901 2381,-1039.0901 2381,-1039.0901 2381,-1027.0901 2381,-1027.0901 2381,-1021.0901 2387,-1015.0901 2393,-1015.0901 2393,-1015.0901 2453,-1015.0901 2453,-1015.0901 2459,-1015.0901 2465,-1021.0901 2465,-1027.0901 2465,-1027.0901 2465,-1039.0901 2465,-1039.0901 2465,-1045.0901 2459,-1051.0901 2453,-1051.0901"/>
<text text-anchor="middle" x="2423" y="-1028.0901" font-family="Times,serif" font-size="20.00" fill="#000000">199 beta</text>
</g>
<!-- v_1_1216&#45;&gt;v_1_1214 -->
<g id="edge27" class="edge">
<title>v_1_1216&#45;&gt;v_1_1214</title>
<path fill="none" stroke="#000000" d="M2380.8507,-1033.0901C2344.7643,-1033.0901 2290.0964,-1033.0901 2235.3345,-1033.0901"/>
<polygon fill="#000000" stroke="#000000" points="2235.1126,-1029.5902 2225.1126,-1033.0901 2235.1125,-1036.5902 2235.1126,-1029.5902"/>
</g>
<!-- v_1_1217 -->
<g id="node54" class="node">
<title>v_1_1217</title>
<path fill="#85cbd0" stroke="#000000" d="M2456,-997.0901C2456,-997.0901 2390,-997.0901 2390,-997.0901 2384,-997.0901 2378,-991.0901 2378,-985.0901 2378,-985.0901 2378,-973.0901 2378,-973.0901 2378,-967.0901 2384,-961.0901 2390,-961.0901 2390,-961.0901 2456,-961.0901 2456,-961.0901 2462,-961.0901 2468,-967.0901 2468,-973.0901 2468,-973.0901 2468,-985.0901 2468,-985.0901 2468,-991.0901 2462,-997.0901 2456,-997.0901"/>
<text text-anchor="middle" x="2423" y="-974.0901" font-family="Times,serif" font-size="20.00" fill="#000000">199 areai</text>
</g>
<!-- v_1_1217&#45;&gt;v_1_1214 -->
<g id="edge39" class="edge">
<title>v_1_1217&#45;&gt;v_1_1214</title>
<path fill="none" stroke="#000000" d="M2377.8995,-985.5501C2329.652,-992.4609 2250.774,-1003.7591 2182.0182,-1013.6074"/>
<polygon fill="#000000" stroke="#000000" points="2181.3548,-1010.1666 2171.9522,-1015.0492 2182.3474,-1017.0959 2181.3548,-1010.1666"/>
</g>
<!-- a_30 -->
<g id="node55" class="node">
<title>a_30</title>
<path fill="#ffffff" stroke="#000000" d="M2288.5,-436.0901C2288.5,-436.0901 1803.5,-436.0901 1803.5,-436.0901 1797.5,-436.0901 1791.5,-430.0901 1791.5,-424.0901 1791.5,-424.0901 1791.5,-412.0901 1791.5,-412.0901 1791.5,-406.0901 1797.5,-400.0901 1803.5,-400.0901 1803.5,-400.0901 2288.5,-400.0901 2288.5,-400.0901 2294.5,-400.0901 2300.5,-406.0901 2300.5,-412.0901 2300.5,-412.0901 2300.5,-424.0901 2300.5,-424.0901 2300.5,-430.0901 2294.5,-436.0901 2288.5,-436.0901"/>
<text text-anchor="middle" x="2046" y="-413.0901" font-family="Times,serif" font-size="20.00" fill="#000000">R_PyPOFacetsModularExperi ... 02.dat_20180322110406.dat</text>
</g>
<!-- v_1_2077 -->
<g id="node57" class="node">
<title>v_1_2077</title>
<polygon fill="#3a85b9" stroke="#000000" points="1727,-382.0901 1431,-382.0901 1431,-346.0901 1727,-346.0901 1727,-382.0901"/>
<text text-anchor="middle" x="1579" y="-359.0901" font-family="Times,serif" font-size="20.00" fill="#ffffff">201 assemble_generate_output_file</text>
</g>
<!-- a_30&#45;&gt;v_1_2077 -->
<g id="edge6" class="edge">
<title>a_30&#45;&gt;v_1_2077</title>
<path fill="none" stroke="#000000" stroke-dasharray="5,2" d="M1870.3623,-400.0866C1843.4359,-397.1759 1815.968,-394.1206 1790,-391.0901 1769.4167,-388.688 1747.7192,-386.0417 1726.385,-383.3737"/>
<polygon fill="#000000" stroke="#000000" points="1726.6401,-379.8784 1716.282,-382.1054 1725.7681,-386.8238 1726.6401,-379.8784"/>
</g>
<!-- a_31 -->
<g id="node56" class="node">
<title>a_31</title>
<path fill="#ffffff" stroke="#000000" d="M2290,-382.0901C2290,-382.0901 1802,-382.0901 1802,-382.0901 1796,-382.0901 1790,-376.0901 1790,-370.0901 1790,-370.0901 1790,-358.0901 1790,-358.0901 1790,-352.0901 1796,-346.0901 1802,-346.0901 1802,-346.0901 2290,-346.0901 2290,-346.0901 2296,-346.0901 2302,-352.0901 2302,-358.0901 2302,-358.0901 2302,-370.0901 2302,-370.0901 2302,-376.0901 2296,-382.0901 2290,-382.0901"/>
<text text-anchor="middle" x="2046" y="-359.0901" font-family="Times,serif" font-size="20.00" fill="#000000">E0_PyPOFacetsModularExper ... 02.dat_20180322110406.dat</text>
</g>
<!-- a_31&#45;&gt;v_1_2077 -->
<g id="edge31" class="edge">
<title>a_31&#45;&gt;v_1_2077</title>
<path fill="none" stroke="#000000" stroke-dasharray="5,2" d="M1789.9566,-364.0901C1772.02,-364.0901 1754.2625,-364.0901 1737.1128,-364.0901"/>
<polygon fill="#000000" stroke="#000000" points="1737.0888,-360.5902 1727.0887,-364.0901 1737.0887,-367.5902 1737.0888,-360.5902"/>
</g>
<!-- v_1_2077&#45;&gt;v_1_203 -->
<g id="edge64" class="edge">
<title>v_1_2077&#45;&gt;v_1_203</title>
<path fill="none" stroke="#000000" stroke-dasharray="5,2" d="M1557.3434,-382.1407C1522.7566,-411.5443 1453.874,-472.504 1404,-532.0901 1385.4863,-554.2089 1392,-570.0901 1368,-586.0901 1344.9572,-601.4519 1315.238,-608.501 1289.2843,-611.5881"/>
<polygon fill="#000000" stroke="#000000" points="1288.766,-608.1227 1279.1722,-612.6182 1289.4754,-615.0867 1288.766,-608.1227"/>
</g>
<!-- v_1_2077&#45;&gt;v_1_204 -->
<g id="edge28" class="edge">
<title>v_1_2077&#45;&gt;v_1_204</title>
<path fill="none" stroke="#000000" stroke-dasharray="5,2" d="M1570.54,-346.0669C1546.4475,-296.8083 1472.4121,-159.0782 1368,-91.0901 1342.0558,-74.1964 1308.3931,-65.6952 1280.8101,-61.418"/>
<polygon fill="#000000" stroke="#000000" points="1280.9552,-57.904 1270.5652,-59.9768 1279.9801,-64.8358 1280.9552,-57.904"/>
</g>
<!-- v_1_2077&#45;&gt;v_1_205 -->
<g id="edge16" class="edge">
<title>v_1_2077&#45;&gt;v_1_205</title>
<path fill="none" stroke="#000000" stroke-dasharray="5,2" d="M1524.1995,-382.1474C1482.0322,-395.0512 1422.0234,-411.2868 1368,-418.0901 1099.5801,-451.8929 775.0909,-415.4356 647.6593,-398.1458"/>
<polygon fill="#000000" stroke="#000000" points="648.128,-394.6773 637.7449,-396.785 647.1761,-401.6123 648.128,-394.6773"/>
</g>
<!-- v_1_2077&#45;&gt;v_1_206 -->
<g id="edge1" class="edge">
<title>v_1_2077&#45;&gt;v_1_206</title>
<path fill="none" stroke="#000000" stroke-dasharray="5,2" d="M1563.541,-346.0878C1531.4629,-310.2909 1453.493,-231.1244 1368,-202.0901 1235.438,-157.0706 806.9238,-202.294 650.416,-220.8986"/>
<polygon fill="#000000" stroke="#000000" points="649.5786,-217.4738 640.0654,-222.1375 650.4105,-224.4242 649.5786,-217.4738"/>
</g>
<!-- v_1_2077&#45;&gt;v_1_209 -->
<g id="edge21" class="edge">
<title>v_1_2077&#45;&gt;v_1_209</title>
<path fill="none" stroke="#000000" stroke-dasharray="5,2" d="M1569.1975,-345.8486C1543.4055,-299.9641 1468.6473,-179.9375 1368,-131.0901 1296.4786,-96.3784 1060.6359,-96.1168 955.2119,-97.8581"/>
<polygon fill="#000000" stroke="#000000" points="955.061,-94.3601 945.1249,-98.0375 955.1856,-101.359 955.061,-94.3601"/>
</g>
<!-- v_1_2077&#45;&gt;v_1_210 -->
<g id="edge66" class="edge">
<title>v_1_2077&#45;&gt;v_1_210</title>
<path fill="none" stroke="#000000" stroke-dasharray="5,2" d="M1565.9799,-346.0788C1536.2448,-306.6804 1458.8545,-213.6142 1368,-179.0901 1236.28,-129.0373 801.5112,-157.492 647.3218,-169.5347"/>
<polygon fill="#000000" stroke="#000000" points="646.8385,-166.0618 637.1448,-170.3376 647.3891,-173.0401 646.8385,-166.0618"/>
</g>
<!-- v_1_2077&#45;&gt;v_1_211 -->
<g id="edge34" class="edge">
<title>v_1_2077&#45;&gt;v_1_211</title>
<path fill="none" stroke="#000000" stroke-dasharray="5,2" d="M1551.0584,-382.2292C1511.939,-406.5463 1437.7875,-448.7726 1368,-467.0901 1103.1252,-536.6133 770.5764,-524.791 644.3246,-516.9245"/>
<polygon fill="#000000" stroke="#000000" points="644.3759,-513.4207 634.1721,-516.2723 643.9271,-520.4063 644.3759,-513.4207"/>
</g>
<!-- v_1_2077&#45;&gt;v_1_212 -->
<g id="edge13" class="edge">
<title>v_1_2077&#45;&gt;v_1_212</title>
<path fill="none" stroke="#000000" stroke-dasharray="5,2" d="M1540.4037,-382.2494C1498.8888,-400.714 1430.4132,-428.1202 1368,-439.0901 1102.6808,-485.7231 778.3782,-462.5165 649.3614,-450.1535"/>
<polygon fill="#000000" stroke="#000000" points="649.6066,-446.6609 639.3143,-449.1746 648.9277,-453.6279 649.6066,-446.6609"/>
</g>
<!-- v_1_2077&#45;&gt;v_1_352 -->
<g id="edge68" class="edge">
<title>v_1_2077&#45;&gt;v_1_352</title>
<path fill="none" stroke="#000000" stroke-dasharray="5,2" d="M1430.9926,-352.6396C1377.1015,-348.4704 1319.759,-344.0342 1280.1743,-340.9718"/>
<polygon fill="#000000" stroke="#000000" points="1280.243,-337.4667 1270.0028,-340.1849 1279.703,-344.4459 1280.243,-337.4667"/>
</g>
<!-- v_1_2077&#45;&gt;v_1_353 -->
<g id="edge10" class="edge">
<title>v_1_2077&#45;&gt;v_1_353</title>
<path fill="none" stroke="#000000" stroke-dasharray="5,2" d="M1430.9926,-375.5405C1378.2953,-379.6174 1322.2978,-383.9496 1282.8309,-387.0029"/>
<polygon fill="#000000" stroke="#000000" points="1282.3608,-383.5287 1272.6605,-387.7897 1282.9008,-390.5078 1282.3608,-383.5287"/>
</g>
<!-- v_1_2078 -->
<g id="node58" class="node">
<title>v_1_2078</title>
<path fill="#85cbd0" stroke="#000000" d="M2081.5,-328.0901C2081.5,-328.0901 2010.5,-328.0901 2010.5,-328.0901 2004.5,-328.0901 1998.5,-322.0901 1998.5,-316.0901 1998.5,-316.0901 1998.5,-304.0901 1998.5,-304.0901 1998.5,-298.0901 2004.5,-292.0901 2010.5,-292.0901 2010.5,-292.0901 2081.5,-292.0901 2081.5,-292.0901 2087.5,-292.0901 2093.5,-298.0901 2093.5,-304.0901 2093.5,-304.0901 2093.5,-316.0901 2093.5,-316.0901 2093.5,-322.0901 2087.5,-328.0901 2081.5,-328.0901"/>
<text text-anchor="middle" x="2046" y="-305.0901" font-family="Times,serif" font-size="20.00" fill="#000000">201 result</text>
</g>
<!-- v_1_2078&#45;&gt;v_1_2077 -->
<g id="edge38" class="edge">
<title>v_1_2078&#45;&gt;v_1_2077</title>
<path fill="none" stroke="#000000" d="M1998.3113,-314.8005C1946.8712,-319.956 1862.5772,-328.6203 1790,-337.0901 1769.4167,-339.4922 1747.7192,-342.1384 1726.385,-344.8064"/>
<polygon fill="#000000" stroke="#000000" points="1725.7681,-341.3563 1716.282,-346.0748 1726.6401,-348.3018 1725.7681,-341.3563"/>
</g>
</g>
</svg>
