<?xml version="1.0" encoding="UTF-8" standalone="no"?>
<!DOCTYPE svg PUBLIC "-//W3C//DTD SVG 1.1//EN"
 "http://www.w3.org/Graphics/SVG/1.1/DTD/svg11.dtd">
<!-- Generated by graphviz version 2.40.1 (20161225.0304)
 -->
<!-- Title: dependency Pages: 1 -->
<svg width="2446pt" height="1076pt"
 viewBox="0.00 0.00 2446.00 1076.00" xmlns="http://www.w3.org/2000/svg" xmlns:xlink="http://www.w3.org/1999/xlink">
<g id="graph0" class="graph" transform="scale(1 1) rotate(0) translate(4 1072)">
<title>dependency</title>
<polygon fill="#ffffff" stroke="transparent" points="-4,4 -4,-1072 2442,-1072 2442,4 -4,4"/>
<!-- a_26 -->
<g id="node1" class="node">
<title>a_26</title>
<path fill="#ffffff" stroke="#000000" d="M191,-336C191,-336 12,-336 12,-336 6,-336 0,-330 0,-324 0,-324 0,-312 0,-312 0,-306 6,-300 12,-300 12,-300 191,-300 191,-300 197,-300 203,-306 203,-312 203,-312 203,-324 203,-324 203,-330 197,-336 191,-336"/>
<text text-anchor="middle" x="101.5" y="-313" font-family="Times,serif" font-size="20.00" fill="#000000">input_data_file_002.dat</text>
</g>
<!-- v_1_30 -->
<g id="node2" class="node">
<title>v_1_30</title>
<polygon fill="#3a85b9" stroke="#000000" points="434,-309 239,-309 239,-273 434,-273 434,-309"/>
<text text-anchor="middle" x="336.5" y="-286" font-family="Times,serif" font-size="20.00" fill="#ffffff">171 read_param_input</text>
</g>
<!-- v_1_30&#45;&gt;a_26 -->
<g id="edge17" class="edge">
<title>v_1_30&#45;&gt;a_26</title>
<path fill="none" stroke="#000000" stroke-dasharray="5,2" d="M238.8804,-302.2159C230.4511,-303.1843 221.8811,-304.169 213.351,-305.149"/>
<polygon fill="#000000" stroke="#000000" points="212.9015,-301.6776 203.3664,-306.2962 213.7006,-308.6318 212.9015,-301.6776"/>
</g>
<!-- v_1_27 -->
<g id="node3" class="node">
<title>v_1_27</title>
<path fill="#85cbd0" stroke="#000000" d="M174.5,-282C174.5,-282 28.5,-282 28.5,-282 22.5,-282 16.5,-276 16.5,-270 16.5,-270 16.5,-258 16.5,-258 16.5,-252 22.5,-246 28.5,-246 28.5,-246 174.5,-246 174.5,-246 180.5,-246 186.5,-252 186.5,-258 186.5,-258 186.5,-270 186.5,-270 186.5,-276 180.5,-282 174.5,-282"/>
<text text-anchor="middle" x="101.5" y="-259" font-family="Times,serif" font-size="20.00" fill="#000000">169 input_data_file</text>
</g>
<!-- v_1_30&#45;&gt;v_1_27 -->
<g id="edge32" class="edge">
<title>v_1_30&#45;&gt;v_1_27</title>
<path fill="none" stroke="#000000" stroke-dasharray="5,2" d="M238.8804,-279.7841C224.9783,-278.1869 210.6937,-276.5457 196.836,-274.9535"/>
<polygon fill="#000000" stroke="#000000" points="197.1666,-271.4685 186.8324,-273.8041 196.3675,-278.4228 197.1666,-271.4685"/>
</g>
<!-- v_1_31 -->
<g id="node4" class="node">
<title>v_1_31</title>
<path fill="#85cbd0" stroke="#000000" d="M1267,-128C1267,-128 1193,-128 1193,-128 1187,-128 1181,-122 1181,-116 1181,-116 1181,-104 1181,-104 1181,-98 1187,-92 1193,-92 1193,-92 1267,-92 1267,-92 1273,-92 1279,-98 1279,-104 1279,-104 1279,-116 1279,-116 1279,-122 1273,-128 1267,-128"/>
<text text-anchor="middle" x="1230" y="-105" font-family="Times,serif" font-size="20.00" fill="#000000">171 delstd</text>
</g>
<!-- v_1_31&#45;&gt;v_1_30 -->
<g id="edge22" class="edge">
<title>v_1_31&#45;&gt;v_1_30</title>
<path fill="none" stroke="#000000" d="M1180.9893,-106.0218C1033.4029,-94.846 595.6288,-67.8067 470,-129 411.2522,-157.6158 369.3079,-225.6188 349.4486,-263.7967"/>
<polygon fill="#000000" stroke="#000000" points="346.2753,-262.3158 344.8786,-272.8182 352.5198,-265.479 346.2753,-262.3158"/>
</g>
<!-- v_1_32 -->
<g id="node5" class="node">
<title>v_1_32</title>
<path fill="#85cbd0" stroke="#000000" d="M1258.5,-590C1258.5,-590 1201.5,-590 1201.5,-590 1195.5,-590 1189.5,-584 1189.5,-578 1189.5,-578 1189.5,-566 1189.5,-566 1189.5,-560 1195.5,-554 1201.5,-554 1201.5,-554 1258.5,-554 1258.5,-554 1264.5,-554 1270.5,-560 1270.5,-566 1270.5,-566 1270.5,-578 1270.5,-578 1270.5,-584 1264.5,-590 1258.5,-590"/>
<text text-anchor="middle" x="1230" y="-567" font-family="Times,serif" font-size="20.00" fill="#000000">171 ipol</text>
</g>
<!-- v_1_32&#45;&gt;v_1_30 -->
<g id="edge28" class="edge">
<title>v_1_32&#45;&gt;v_1_30</title>
<path fill="none" stroke="#000000" d="M1189.2744,-572.9128C1040.3722,-575.9311 530.9883,-583.3385 470,-545 388.1522,-493.5487 353.6792,-374.1423 341.7892,-319.375"/>
<polygon fill="#000000" stroke="#000000" points="345.1624,-318.4038 339.705,-309.3226 338.3082,-319.825 345.1624,-318.4038"/>
</g>
<!-- v_1_33 -->
<g id="node6" class="node">
<title>v_1_33</title>
<path fill="#85cbd0" stroke="#000000" d="M625.5,-228C625.5,-228 559.5,-228 559.5,-228 553.5,-228 547.5,-222 547.5,-216 547.5,-216 547.5,-204 547.5,-204 547.5,-198 553.5,-192 559.5,-192 559.5,-192 625.5,-192 625.5,-192 631.5,-192 637.5,-198 637.5,-204 637.5,-204 637.5,-216 637.5,-216 637.5,-222 631.5,-228 625.5,-228"/>
<text text-anchor="middle" x="592.5" y="-205" font-family="Times,serif" font-size="20.00" fill="#000000">171 tstart</text>
</g>
<!-- v_1_33&#45;&gt;v_1_30 -->
<g id="edge51" class="edge">
<title>v_1_33&#45;&gt;v_1_30</title>
<path fill="none" stroke="#000000" d="M547.2285,-218.0958C523.9125,-222.7375 495.1691,-229.1962 470,-237 441.4141,-245.8632 410.3717,-258.2448 385.4205,-268.9164"/>
<polygon fill="#000000" stroke="#000000" points="383.9652,-265.7324 376.1737,-272.9118 386.7417,-272.1582 383.9652,-265.7324"/>
</g>
<!-- v_1_34 -->
<g id="node7" class="node">
<title>v_1_34</title>
<path fill="#85cbd0" stroke="#000000" d="M628,-174C628,-174 557,-174 557,-174 551,-174 545,-168 545,-162 545,-162 545,-150 545,-150 545,-144 551,-138 557,-138 557,-138 628,-138 628,-138 634,-138 640,-144 640,-150 640,-150 640,-162 640,-162 640,-168 634,-174 628,-174"/>
<text text-anchor="middle" x="592.5" y="-151" font-family="Times,serif" font-size="20.00" fill="#000000">171 pstart</text>
</g>
<!-- v_1_34&#45;&gt;v_1_30 -->
<g id="edge42" class="edge">
<title>v_1_34&#45;&gt;v_1_30</title>
<path fill="none" stroke="#000000" d="M544.864,-161.2652C521.4634,-165.1366 493.3517,-171.761 470,-183 427.1544,-203.6212 385.8754,-240.4707 360.843,-265.3216"/>
<polygon fill="#000000" stroke="#000000" points="358.1656,-263.051 353.6122,-272.6175 363.1375,-267.9786 358.1656,-263.051"/>
</g>
<!-- v_1_35 -->
<g id="node8" class="node">
<title>v_1_35</title>
<path fill="#85cbd0" stroke="#000000" d="M623,-336C623,-336 562,-336 562,-336 556,-336 550,-330 550,-324 550,-324 550,-312 550,-312 550,-306 556,-300 562,-300 562,-300 623,-300 623,-300 629,-300 635,-306 635,-312 635,-312 635,-324 635,-324 635,-330 629,-336 623,-336"/>
<text text-anchor="middle" x="592.5" y="-313" font-family="Times,serif" font-size="20.00" fill="#000000">171 delp</text>
</g>
<!-- v_1_35&#45;&gt;v_1_30 -->
<g id="edge49" class="edge">
<title>v_1_35&#45;&gt;v_1_30</title>
<path fill="none" stroke="#000000" d="M549.9394,-313.5112C521.1536,-310.4752 481.7579,-306.3202 444.6447,-302.4059"/>
<polygon fill="#000000" stroke="#000000" points="444.5601,-298.8776 434.2481,-301.3094 443.8258,-305.839 444.5601,-298.8776"/>
</g>
<!-- v_1_36 -->
<g id="node9" class="node">
<title>v_1_36</title>
<path fill="#85cbd0" stroke="#000000" d="M620.5,-444C620.5,-444 564.5,-444 564.5,-444 558.5,-444 552.5,-438 552.5,-432 552.5,-432 552.5,-420 552.5,-420 552.5,-414 558.5,-408 564.5,-408 564.5,-408 620.5,-408 620.5,-408 626.5,-408 632.5,-414 632.5,-420 632.5,-420 632.5,-432 632.5,-432 632.5,-438 626.5,-444 620.5,-444"/>
<text text-anchor="middle" x="592.5" y="-421" font-family="Times,serif" font-size="20.00" fill="#000000">171 delt</text>
</g>
<!-- v_1_36&#45;&gt;v_1_30 -->
<g id="edge34" class="edge">
<title>v_1_36&#45;&gt;v_1_30</title>
<path fill="none" stroke="#000000" d="M552.352,-421.9074C527.6623,-418.2557 495.9028,-411.4668 470,-399 427.1544,-378.3788 385.8754,-341.5293 360.843,-316.6784"/>
<polygon fill="#000000" stroke="#000000" points="363.1375,-314.0214 353.6122,-309.3825 358.1656,-318.949 363.1375,-314.0214"/>
</g>
<!-- v_1_37 -->
<g id="node10" class="node">
<title>v_1_37</title>
<path fill="#85cbd0" stroke="#000000" d="M933,-544C933,-544 874,-544 874,-544 868,-544 862,-538 862,-532 862,-532 862,-520 862,-520 862,-514 868,-508 874,-508 874,-508 933,-508 933,-508 939,-508 945,-514 945,-520 945,-520 945,-532 945,-532 945,-538 939,-544 933,-544"/>
<text text-anchor="middle" x="903.5" y="-521" font-family="Times,serif" font-size="20.00" fill="#000000">171 corr</text>
</g>
<!-- v_1_37&#45;&gt;v_1_30 -->
<g id="edge26" class="edge">
<title>v_1_37&#45;&gt;v_1_30</title>
<path fill="none" stroke="#000000" d="M861.7173,-536.2081C780.0096,-553.7284 596.058,-580.9449 470,-507 398.0859,-464.8156 359.5664,-367.0735 344.3487,-318.8845"/>
<polygon fill="#000000" stroke="#000000" points="347.6355,-317.6633 341.3713,-309.1187 340.9398,-319.7048 347.6355,-317.6633"/>
</g>
<!-- v_1_38 -->
<g id="node11" class="node">
<title>v_1_38</title>
<path fill="#85cbd0" stroke="#000000" d="M625,-498C625,-498 560,-498 560,-498 554,-498 548,-492 548,-486 548,-486 548,-474 548,-474 548,-468 554,-462 560,-462 560,-462 625,-462 625,-462 631,-462 637,-468 637,-474 637,-474 637,-486 637,-486 637,-492 631,-498 625,-498"/>
<text text-anchor="middle" x="592.5" y="-475" font-family="Times,serif" font-size="20.00" fill="#000000">171 tstop</text>
</g>
<!-- v_1_38&#45;&gt;v_1_30 -->
<g id="edge50" class="edge">
<title>v_1_38&#45;&gt;v_1_30</title>
<path fill="none" stroke="#000000" d="M547.9205,-477.2656C523.4453,-474.0894 493.4042,-467.3249 470,-453 415.0716,-419.3802 372.365,-354.9854 351.1793,-318.3206"/>
<polygon fill="#000000" stroke="#000000" points="353.99,-316.1803 346.022,-309.1973 347.8963,-319.6251 353.99,-316.1803"/>
</g>
<!-- v_1_39 -->
<g id="node12" class="node">
<title>v_1_39</title>
<path fill="#85cbd0" stroke="#000000" d="M622,-82C622,-82 563,-82 563,-82 557,-82 551,-76 551,-70 551,-70 551,-58 551,-58 551,-52 557,-46 563,-46 563,-46 622,-46 622,-46 628,-46 634,-52 634,-58 634,-58 634,-70 634,-70 634,-76 628,-82 622,-82"/>
<text text-anchor="middle" x="592.5" y="-59" font-family="Times,serif" font-size="20.00" fill="#000000">171 freq</text>
</g>
<!-- v_1_39&#45;&gt;v_1_30 -->
<g id="edge27" class="edge">
<title>v_1_39&#45;&gt;v_1_30</title>
<path fill="none" stroke="#000000" d="M550.8242,-67.5009C525.5595,-71.321 493.7322,-79.3072 470,-96 408.3315,-139.3766 366.4073,-220.961 347.6584,-263.5471"/>
<polygon fill="#000000" stroke="#000000" points="344.3299,-262.4281 343.5978,-272.9976 350.7613,-265.1916 344.3299,-262.4281"/>
</g>
<!-- v_1_40 -->
<g id="node13" class="node">
<title>v_1_40</title>
<path fill="#85cbd0" stroke="#000000" d="M627,-282C627,-282 558,-282 558,-282 552,-282 546,-276 546,-270 546,-270 546,-258 546,-258 546,-252 552,-246 558,-246 558,-246 627,-246 627,-246 633,-246 639,-252 639,-258 639,-258 639,-270 639,-270 639,-276 633,-282 627,-282"/>
<text text-anchor="middle" x="592.5" y="-259" font-family="Times,serif" font-size="20.00" fill="#000000">171 pstop</text>
</g>
<!-- v_1_40&#45;&gt;v_1_30 -->
<g id="edge8" class="edge">
<title>v_1_40&#45;&gt;v_1_30</title>
<path fill="none" stroke="#000000" d="M545.8433,-268.9208C517.3035,-271.9309 479.5515,-275.9125 443.9721,-279.665"/>
<polygon fill="#000000" stroke="#000000" points="443.5817,-276.1867 434.004,-280.7164 444.316,-283.1481 443.5817,-276.1867"/>
</g>
<!-- v_1_43 -->
<g id="node14" class="node">
<title>v_1_43</title>
<polygon fill="#3a85b9" stroke="#000000" points="1014.5,-36 792.5,-36 792.5,0 1014.5,0 1014.5,-36"/>
<text text-anchor="middle" x="903.5" y="-13" font-family="Times,serif" font-size="20.00" fill="#ffffff">173 calculate_wavelength</text>
</g>
<!-- v_1_43&#45;&gt;v_1_39 -->
<g id="edge75" class="edge">
<title>v_1_43&#45;&gt;v_1_39</title>
<path fill="none" stroke="#000000" stroke-dasharray="5,2" d="M792.1003,-34.4771C741.5944,-41.9475 684.3221,-50.4186 644.1205,-56.3648"/>
<polygon fill="#000000" stroke="#000000" points="643.406,-52.9323 634.0258,-57.8579 644.4303,-59.857 643.406,-52.9323"/>
</g>
<!-- v_1_44 -->
<g id="node15" class="node">
<title>v_1_44</title>
<path fill="#85cbd0" stroke="#000000" d="M1270.5,-36C1270.5,-36 1189.5,-36 1189.5,-36 1183.5,-36 1177.5,-30 1177.5,-24 1177.5,-24 1177.5,-12 1177.5,-12 1177.5,-6 1183.5,0 1189.5,0 1189.5,0 1270.5,0 1270.5,0 1276.5,0 1282.5,-6 1282.5,-12 1282.5,-12 1282.5,-24 1282.5,-24 1282.5,-30 1276.5,-36 1270.5,-36"/>
<text text-anchor="middle" x="1230" y="-13" font-family="Times,serif" font-size="20.00" fill="#000000">173 waveL</text>
</g>
<!-- v_1_44&#45;&gt;v_1_43 -->
<g id="edge59" class="edge">
<title>v_1_44&#45;&gt;v_1_43</title>
<path fill="none" stroke="#000000" d="M1177.1793,-18C1136.0624,-18 1077.3513,-18 1024.8439,-18"/>
<polygon fill="#000000" stroke="#000000" points="1024.7755,-14.5001 1014.7754,-18 1024.7754,-21.5001 1024.7755,-14.5001"/>
</g>
<!-- v_1_51 -->
<g id="node16" class="node">
<title>v_1_51</title>
<polygon fill="#3a85b9" stroke="#000000" points="2086,-83 2006,-83 2006,-47 2086,-47 2086,-83"/>
<text text-anchor="middle" x="2046" y="-60" font-family="Times,serif" font-size="20.00" fill="#ffffff">178 exp</text>
</g>
<!-- v_1_47 -->
<g id="node17" class="node">
<title>v_1_47</title>
<path fill="#85cbd0" stroke="#000000" d="M1602.5,-46C1602.5,-46 1555.5,-46 1555.5,-46 1549.5,-46 1543.5,-40 1543.5,-34 1543.5,-34 1543.5,-22 1543.5,-22 1543.5,-16 1549.5,-10 1555.5,-10 1555.5,-10 1602.5,-10 1602.5,-10 1608.5,-10 1614.5,-16 1614.5,-22 1614.5,-22 1614.5,-34 1614.5,-34 1614.5,-40 1608.5,-46 1602.5,-46"/>
<text text-anchor="middle" x="1579" y="-23" font-family="Times,serif" font-size="20.00" fill="#000000">177 bk</text>
</g>
<!-- v_1_51&#45;&gt;v_1_47 -->
<g id="edge31" class="edge">
<title>v_1_51&#45;&gt;v_1_47</title>
<path fill="none" stroke="#000000" stroke-dasharray="5,2" d="M2005.7797,-61.8134C1919.2877,-54.9607 1716.0651,-38.8596 1624.794,-31.6282"/>
<polygon fill="#000000" stroke="#000000" points="1624.9985,-28.1335 1614.7533,-30.8327 1624.4456,-35.1117 1624.9985,-28.1335"/>
</g>
<!-- v_1_46 -->
<g id="node18" class="node">
<title>v_1_46</title>
<path fill="#85cbd0" stroke="#000000" d="M1613,-119C1613,-119 1545,-119 1545,-119 1539,-119 1533,-113 1533,-107 1533,-107 1533,-95 1533,-95 1533,-89 1539,-83 1545,-83 1545,-83 1613,-83 1613,-83 1619,-83 1625,-89 1625,-95 1625,-95 1625,-107 1625,-107 1625,-113 1619,-119 1613,-119"/>
<text text-anchor="middle" x="1579" y="-96" font-family="Times,serif" font-size="20.00" fill="#000000">176 delsq</text>
</g>
<!-- v_1_51&#45;&gt;v_1_46 -->
<g id="edge13" class="edge">
<title>v_1_51&#45;&gt;v_1_46</title>
<path fill="none" stroke="#000000" stroke-dasharray="5,2" d="M2005.7797,-68.1005C1922.421,-74.5264 1730.636,-89.3107 1635.1431,-96.672"/>
<polygon fill="#000000" stroke="#000000" points="1634.7995,-93.1881 1625.0981,-97.4464 1635.3376,-100.1674 1634.7995,-93.1881"/>
</g>
<!-- v_1_47&#45;&gt;v_1_44 -->
<g id="edge45" class="edge">
<title>v_1_47&#45;&gt;v_1_44</title>
<path fill="none" stroke="#000000" d="M1543.291,-26.9768C1484.3053,-25.2867 1365.7785,-21.8905 1292.619,-19.7942"/>
<polygon fill="#000000" stroke="#000000" points="1292.704,-16.2953 1282.6079,-19.5074 1292.5035,-23.2925 1292.704,-16.2953"/>
</g>
<!-- v_1_46&#45;&gt;v_1_31 -->
<g id="edge67" class="edge">
<title>v_1_46&#45;&gt;v_1_31</title>
<path fill="none" stroke="#000000" d="M1532.6555,-102.1951C1469.9574,-103.812 1358.0654,-106.6975 1289.3051,-108.4706"/>
<polygon fill="#000000" stroke="#000000" points="1288.9756,-104.9779 1279.0692,-108.7346 1289.1561,-111.9756 1288.9756,-104.9779"/>
</g>
<!-- v_1_52 -->
<g id="node19" class="node">
<title>v_1_52</title>
<path fill="#85cbd0" stroke="#000000" d="M2426,-83C2426,-83 2350,-83 2350,-83 2344,-83 2338,-77 2338,-71 2338,-71 2338,-59 2338,-59 2338,-53 2344,-47 2350,-47 2350,-47 2426,-47 2426,-47 2432,-47 2438,-53 2438,-59 2438,-59 2438,-71 2438,-71 2438,-77 2432,-83 2426,-83"/>
<text text-anchor="middle" x="2388" y="-60" font-family="Times,serif" font-size="20.00" fill="#000000">178 cfact1</text>
</g>
<!-- v_1_52&#45;&gt;v_1_51 -->
<g id="edge53" class="edge">
<title>v_1_52&#45;&gt;v_1_51</title>
<path fill="none" stroke="#000000" d="M2337.904,-65C2273.2277,-65 2161.3078,-65 2096.4566,-65"/>
<polygon fill="#000000" stroke="#000000" points="2096.0797,-61.5001 2086.0796,-65 2096.0796,-68.5001 2096.0797,-61.5001"/>
</g>
<!-- v_1_59 -->
<g id="node20" class="node">
<title>v_1_59</title>
<polygon fill="#3a85b9" stroke="#000000" points="1754,-590 1404,-590 1404,-554 1754,-554 1754,-590"/>
<text text-anchor="middle" x="1579" y="-567" font-family="Times,serif" font-size="20.00" fill="#ffffff">184 calculate_incident_wave_polarization</text>
</g>
<!-- v_1_59&#45;&gt;v_1_32 -->
<g id="edge5" class="edge">
<title>v_1_59&#45;&gt;v_1_32</title>
<path fill="none" stroke="#000000" stroke-dasharray="5,2" d="M1403.9888,-572C1358.8693,-572 1313.7954,-572 1280.8331,-572"/>
<polygon fill="#000000" stroke="#000000" points="1280.572,-568.5001 1270.572,-572 1280.5719,-575.5001 1280.572,-568.5001"/>
</g>
<!-- v_1_60 -->
<g id="node21" class="node">
<title>v_1_60</title>
<path fill="#85cbd0" stroke="#000000" d="M2068,-617C2068,-617 2024,-617 2024,-617 2018,-617 2012,-611 2012,-605 2012,-605 2012,-593 2012,-593 2012,-587 2018,-581 2024,-581 2024,-581 2068,-581 2068,-581 2074,-581 2080,-587 2080,-593 2080,-593 2080,-605 2080,-605 2080,-611 2074,-617 2068,-617"/>
<text text-anchor="middle" x="2046" y="-594" font-family="Times,serif" font-size="20.00" fill="#000000">184 Et</text>
</g>
<!-- v_1_60&#45;&gt;v_1_59 -->
<g id="edge40" class="edge">
<title>v_1_60&#45;&gt;v_1_59</title>
<path fill="none" stroke="#000000" d="M2011.6604,-597.0146C1959.4798,-593.9978 1856.5085,-588.0444 1764.1105,-582.7023"/>
<polygon fill="#000000" stroke="#000000" points="1764.2408,-579.2041 1754.0554,-582.121 1763.8367,-586.1924 1764.2408,-579.2041"/>
</g>
<!-- v_1_61 -->
<g id="node22" class="node">
<title>v_1_61</title>
<path fill="#85cbd0" stroke="#000000" d="M2070.5,-563C2070.5,-563 2021.5,-563 2021.5,-563 2015.5,-563 2009.5,-557 2009.5,-551 2009.5,-551 2009.5,-539 2009.5,-539 2009.5,-533 2015.5,-527 2021.5,-527 2021.5,-527 2070.5,-527 2070.5,-527 2076.5,-527 2082.5,-533 2082.5,-539 2082.5,-539 2082.5,-551 2082.5,-551 2082.5,-557 2076.5,-563 2070.5,-563"/>
<text text-anchor="middle" x="2046" y="-540" font-family="Times,serif" font-size="20.00" fill="#000000">184 Ep</text>
</g>
<!-- v_1_61&#45;&gt;v_1_59 -->
<g id="edge63" class="edge">
<title>v_1_61&#45;&gt;v_1_59</title>
<path fill="none" stroke="#000000" d="M2009.3553,-547.1186C1956.5579,-550.1712 1855.4211,-556.0185 1764.4534,-561.2779"/>
<polygon fill="#000000" stroke="#000000" points="1764.0502,-557.7952 1754.269,-561.8667 1764.4543,-564.7836 1764.0502,-557.7952"/>
</g>
<!-- a_27 -->
<g id="node23" class="node">
<title>a_27</title>
<path fill="#ffffff" stroke="#000000" d="M412.5,-697C412.5,-697 260.5,-697 260.5,-697 254.5,-697 248.5,-691 248.5,-685 248.5,-685 248.5,-673 248.5,-673 248.5,-667 254.5,-661 260.5,-661 260.5,-661 412.5,-661 412.5,-661 418.5,-661 424.5,-667 424.5,-673 424.5,-673 424.5,-685 424.5,-685 424.5,-691 418.5,-697 412.5,-697"/>
<text text-anchor="middle" x="336.5" y="-674" font-family="Times,serif" font-size="20.00" fill="#000000">BOX/coordinates.m</text>
</g>
<!-- v_1_65 -->
<g id="node24" class="node">
<title>v_1_65</title>
<polygon fill="#3a85b9" stroke="#000000" points="715,-697 470,-697 470,-661 715,-661 715,-697"/>
<text text-anchor="middle" x="592.5" y="-674" font-family="Times,serif" font-size="20.00" fill="#ffffff">187 read_model_coordinates</text>
</g>
<!-- v_1_65&#45;&gt;a_27 -->
<g id="edge39" class="edge">
<title>v_1_65&#45;&gt;a_27</title>
<path fill="none" stroke="#000000" stroke-dasharray="5,2" d="M469.7487,-679C457.9381,-679 446.0677,-679 434.5409,-679"/>
<polygon fill="#000000" stroke="#000000" points="434.5097,-675.5001 424.5097,-679 434.5097,-682.5001 434.5097,-675.5001"/>
</g>
<!-- v_1_26 -->
<g id="node25" class="node">
<title>v_1_26</title>
<path fill="#85cbd0" stroke="#000000" d="M399.5,-805C399.5,-805 273.5,-805 273.5,-805 267.5,-805 261.5,-799 261.5,-793 261.5,-793 261.5,-781 261.5,-781 261.5,-775 267.5,-769 273.5,-769 273.5,-769 399.5,-769 399.5,-769 405.5,-769 411.5,-775 411.5,-781 411.5,-781 411.5,-793 411.5,-793 411.5,-799 405.5,-805 399.5,-805"/>
<text text-anchor="middle" x="336.5" y="-782" font-family="Times,serif" font-size="20.00" fill="#000000">168 input_model</text>
</g>
<!-- v_1_65&#45;&gt;v_1_26 -->
<g id="edge24" class="edge">
<title>v_1_65&#45;&gt;v_1_26</title>
<path fill="none" stroke="#000000" stroke-dasharray="5,2" d="M549.6514,-697.0768C505.441,-715.728 436.4273,-744.8432 388.974,-764.8625"/>
<polygon fill="#000000" stroke="#000000" points="387.3416,-761.7524 379.4884,-768.8643 390.0626,-768.202 387.3416,-761.7524"/>
</g>
<!-- v_1_66 -->
<g id="node26" class="node">
<title>v_1_66</title>
<path fill="#85cbd0" stroke="#000000" d="M933,-690C933,-690 874,-690 874,-690 868,-690 862,-684 862,-678 862,-678 862,-666 862,-666 862,-660 868,-654 874,-654 874,-654 933,-654 933,-654 939,-654 945,-660 945,-666 945,-666 945,-678 945,-678 945,-684 939,-690 933,-690"/>
<text text-anchor="middle" x="903.5" y="-667" font-family="Times,serif" font-size="20.00" fill="#000000">187 ypts</text>
</g>
<!-- v_1_66&#45;&gt;v_1_65 -->
<g id="edge4" class="edge">
<title>v_1_66&#45;&gt;v_1_65</title>
<path fill="none" stroke="#000000" d="M861.8799,-672.9368C826.7292,-673.728 774.3928,-674.906 725.1749,-676.0137"/>
<polygon fill="#000000" stroke="#000000" points="724.9722,-672.5173 715.0536,-676.2416 725.1298,-679.5156 724.9722,-672.5173"/>
</g>
<!-- v_1_67 -->
<g id="node27" class="node">
<title>v_1_67</title>
<path fill="#85cbd0" stroke="#000000" d="M933,-744C933,-744 874,-744 874,-744 868,-744 862,-738 862,-732 862,-732 862,-720 862,-720 862,-714 868,-708 874,-708 874,-708 933,-708 933,-708 939,-708 945,-714 945,-720 945,-720 945,-732 945,-732 945,-738 939,-744 933,-744"/>
<text text-anchor="middle" x="903.5" y="-721" font-family="Times,serif" font-size="20.00" fill="#000000">187 xpts</text>
</g>
<!-- v_1_67&#45;&gt;v_1_65 -->
<g id="edge66" class="edge">
<title>v_1_67&#45;&gt;v_1_65</title>
<path fill="none" stroke="#000000" d="M861.8799,-719.7101C825.8799,-714.2696 771.8538,-706.1049 721.6133,-698.5123"/>
<polygon fill="#000000" stroke="#000000" points="722.0329,-695.036 711.6222,-697.0024 720.9868,-701.9575 722.0329,-695.036"/>
</g>
<!-- v_1_68 -->
<g id="node28" class="node">
<title>v_1_68</title>
<path fill="#85cbd0" stroke="#000000" d="M933,-636C933,-636 874,-636 874,-636 868,-636 862,-630 862,-624 862,-624 862,-612 862,-612 862,-606 868,-600 874,-600 874,-600 933,-600 933,-600 939,-600 945,-606 945,-612 945,-612 945,-624 945,-624 945,-630 939,-636 933,-636"/>
<text text-anchor="middle" x="903.5" y="-613" font-family="Times,serif" font-size="20.00" fill="#000000">187 zpts</text>
</g>
<!-- v_1_68&#45;&gt;v_1_65 -->
<g id="edge68" class="edge">
<title>v_1_68&#45;&gt;v_1_65</title>
<path fill="none" stroke="#000000" d="M861.6759,-624.9867C830.9905,-630.2143 788.3374,-637.6926 751,-645 729.2044,-649.2657 705.7851,-654.1323 683.814,-658.824"/>
<polygon fill="#000000" stroke="#000000" points="682.876,-655.4455 673.8322,-660.9646 684.3438,-662.2899 682.876,-655.4455"/>
</g>
<!-- v_1_72 -->
<g id="node29" class="node">
<title>v_1_72</title>
<polygon fill="#3a85b9" stroke="#000000" points="1267.5,-744 1192.5,-744 1192.5,-708 1267.5,-708 1267.5,-744"/>
<text text-anchor="middle" x="1230" y="-721" font-family="Times,serif" font-size="20.00" fill="#ffffff">188 len</text>
</g>
<!-- v_1_72&#45;&gt;v_1_67 -->
<g id="edge15" class="edge">
<title>v_1_72&#45;&gt;v_1_67</title>
<path fill="none" stroke="#000000" stroke-dasharray="5,2" d="M1192.2273,-726C1133.7507,-726 1021.1852,-726 955.2059,-726"/>
<polygon fill="#000000" stroke="#000000" points="955.0321,-722.5001 945.032,-726 955.032,-729.5001 955.0321,-722.5001"/>
</g>
<!-- v_1_73 -->
<g id="node30" class="node">
<title>v_1_73</title>
<path fill="#85cbd0" stroke="#000000" d="M1616.5,-744C1616.5,-744 1541.5,-744 1541.5,-744 1535.5,-744 1529.5,-738 1529.5,-732 1529.5,-732 1529.5,-720 1529.5,-720 1529.5,-714 1535.5,-708 1541.5,-708 1541.5,-708 1616.5,-708 1616.5,-708 1622.5,-708 1628.5,-714 1628.5,-720 1628.5,-720 1628.5,-732 1628.5,-732 1628.5,-738 1622.5,-744 1616.5,-744"/>
<text text-anchor="middle" x="1579" y="-721" font-family="Times,serif" font-size="20.00" fill="#000000">188 nverts</text>
</g>
<!-- v_1_73&#45;&gt;v_1_72 -->
<g id="edge41" class="edge">
<title>v_1_73&#45;&gt;v_1_72</title>
<path fill="none" stroke="#000000" d="M1529.3674,-726C1462.3803,-726 1343.8388,-726 1277.8048,-726"/>
<polygon fill="#000000" stroke="#000000" points="1277.6736,-722.5001 1267.6736,-726 1277.6735,-729.5001 1277.6736,-722.5001"/>
</g>
<!-- a_29 -->
<g id="node31" class="node">
<title>a_29</title>
<path fill="#ffffff" stroke="#000000" d="M390,-872C390,-872 283,-872 283,-872 277,-872 271,-866 271,-860 271,-860 271,-848 271,-848 271,-842 277,-836 283,-836 283,-836 390,-836 390,-836 396,-836 402,-842 402,-848 402,-848 402,-860 402,-860 402,-866 396,-872 390,-872"/>
<text text-anchor="middle" x="336.5" y="-849" font-family="Times,serif" font-size="20.00" fill="#000000">BOX/facets.m</text>
</g>
<!-- v_1_77 -->
<g id="node32" class="node">
<title>v_1_77</title>
<polygon fill="#3a85b9" stroke="#000000" points="693,-872 492,-872 492,-836 693,-836 693,-872"/>
<text text-anchor="middle" x="592.5" y="-849" font-family="Times,serif" font-size="20.00" fill="#ffffff">190 read_facets_model</text>
</g>
<!-- v_1_77&#45;&gt;v_1_26 -->
<g id="edge58" class="edge">
<title>v_1_77&#45;&gt;v_1_26</title>
<path fill="none" stroke="#000000" stroke-dasharray="5,2" d="M523.5599,-835.9571C490.2675,-827.2438 450.1477,-816.7437 415.6145,-807.7057"/>
<polygon fill="#000000" stroke="#000000" points="416.1235,-804.2212 405.5632,-805.0751 414.3511,-810.9931 416.1235,-804.2212"/>
</g>
<!-- v_1_77&#45;&gt;a_29 -->
<g id="edge30" class="edge">
<title>v_1_77&#45;&gt;a_29</title>
<path fill="none" stroke="#000000" stroke-dasharray="5,2" d="M491.6895,-854C465.2497,-854 437.1873,-854 412.3015,-854"/>
<polygon fill="#000000" stroke="#000000" points="412.2088,-850.5001 402.2088,-854 412.2088,-857.5001 412.2088,-850.5001"/>
</g>
<!-- v_1_78 -->
<g id="node33" class="node">
<title>v_1_78</title>
<path fill="#85cbd0" stroke="#000000" d="M940.5,-899C940.5,-899 866.5,-899 866.5,-899 860.5,-899 854.5,-893 854.5,-887 854.5,-887 854.5,-875 854.5,-875 854.5,-869 860.5,-863 866.5,-863 866.5,-863 940.5,-863 940.5,-863 946.5,-863 952.5,-869 952.5,-875 952.5,-875 952.5,-887 952.5,-887 952.5,-893 946.5,-899 940.5,-899"/>
<text text-anchor="middle" x="903.5" y="-876" font-family="Times,serif" font-size="20.00" fill="#000000">190 facets</text>
</g>
<!-- v_1_78&#45;&gt;v_1_77 -->
<g id="edge33" class="edge">
<title>v_1_78&#45;&gt;v_1_77</title>
<path fill="none" stroke="#000000" d="M854.2211,-876.7218C813.7571,-873.2088 754.9113,-868.1 703.2628,-863.6161"/>
<polygon fill="#000000" stroke="#000000" points="703.3019,-860.1064 693.0366,-862.7283 702.6964,-867.0801 703.3019,-860.1064"/>
</g>
<!-- v_1_82 -->
<g id="node34" class="node">
<title>v_1_82</title>
<polygon fill="#3a85b9" stroke="#000000" points="1362,-906 1098,-906 1098,-870 1362,-870 1362,-906"/>
<text text-anchor="middle" x="1230" y="-883" font-family="Times,serif" font-size="20.00" fill="#ffffff">192 generate_transpose_matrix</text>
</g>
<!-- v_1_82&#45;&gt;v_1_78 -->
<g id="edge56" class="edge">
<title>v_1_82&#45;&gt;v_1_78</title>
<path fill="none" stroke="#000000" stroke-dasharray="5,2" d="M1097.6706,-885.1629C1050.975,-884.1618 1000.776,-883.0855 963.1191,-882.2782"/>
<polygon fill="#000000" stroke="#000000" points="962.9166,-878.7732 952.8438,-882.0579 962.7665,-885.7715 962.9166,-878.7732"/>
</g>
<!-- v_1_83 -->
<g id="node35" class="node">
<title>v_1_83</title>
<path fill="#85cbd0" stroke="#000000" d="M1603,-1068C1603,-1068 1555,-1068 1555,-1068 1549,-1068 1543,-1062 1543,-1056 1543,-1056 1543,-1044 1543,-1044 1543,-1038 1549,-1032 1555,-1032 1555,-1032 1603,-1032 1603,-1032 1609,-1032 1615,-1038 1615,-1044 1615,-1044 1615,-1056 1615,-1056 1615,-1062 1609,-1068 1603,-1068"/>
<text text-anchor="middle" x="1579" y="-1045" font-family="Times,serif" font-size="20.00" fill="#000000">192 Rs</text>
</g>
<!-- v_1_83&#45;&gt;v_1_82 -->
<g id="edge10" class="edge">
<title>v_1_83&#45;&gt;v_1_82</title>
<path fill="none" stroke="#000000" d="M1542.6887,-1049.661C1506.2435,-1048.1317 1449.1788,-1042.4465 1404,-1023 1343.7817,-997.08 1286.1699,-945.3172 1254.6887,-913.959"/>
<polygon fill="#000000" stroke="#000000" points="1256.7841,-911.1006 1247.2624,-906.4544 1251.8085,-916.0244 1256.7841,-911.1006"/>
</g>
<!-- v_1_84 -->
<g id="node36" class="node">
<title>v_1_84</title>
<path fill="#85cbd0" stroke="#000000" d="M1610,-1014C1610,-1014 1548,-1014 1548,-1014 1542,-1014 1536,-1008 1536,-1002 1536,-1002 1536,-990 1536,-990 1536,-984 1542,-978 1548,-978 1548,-978 1610,-978 1610,-978 1616,-978 1622,-984 1622,-990 1622,-990 1622,-1002 1622,-1002 1622,-1008 1616,-1014 1610,-1014"/>
<text text-anchor="middle" x="1579" y="-991" font-family="Times,serif" font-size="20.00" fill="#000000">192 nfcv</text>
</g>
<!-- v_1_84&#45;&gt;v_1_82 -->
<g id="edge46" class="edge">
<title>v_1_84&#45;&gt;v_1_82</title>
<path fill="none" stroke="#000000" d="M1535.8133,-992.7577C1499.9258,-989.2562 1447.8343,-982.2901 1404,-969 1356.2868,-954.5338 1304.9062,-929.3065 1270.4454,-910.8397"/>
<polygon fill="#000000" stroke="#000000" points="1272.087,-907.7484 1261.627,-906.0634 1268.7532,-913.9036 1272.087,-907.7484"/>
</g>
<!-- v_1_85 -->
<g id="node37" class="node">
<title>v_1_85</title>
<path fill="#85cbd0" stroke="#000000" d="M1616.5,-906C1616.5,-906 1541.5,-906 1541.5,-906 1535.5,-906 1529.5,-900 1529.5,-894 1529.5,-894 1529.5,-882 1529.5,-882 1529.5,-876 1535.5,-870 1541.5,-870 1541.5,-870 1616.5,-870 1616.5,-870 1622.5,-870 1628.5,-876 1628.5,-882 1628.5,-882 1628.5,-894 1628.5,-894 1628.5,-900 1622.5,-906 1616.5,-906"/>
<text text-anchor="middle" x="1579" y="-883" font-family="Times,serif" font-size="20.00" fill="#000000">192 node1</text>
</g>
<!-- v_1_85&#45;&gt;v_1_82 -->
<g id="edge57" class="edge">
<title>v_1_85&#45;&gt;v_1_82</title>
<path fill="none" stroke="#000000" d="M1529.3674,-888C1488.443,-888 1428.2766,-888 1372.5966,-888"/>
<polygon fill="#000000" stroke="#000000" points="1372.2578,-884.5001 1362.2578,-888 1372.2577,-891.5001 1372.2578,-884.5001"/>
</g>
<!-- v_1_86 -->
<g id="node38" class="node">
<title>v_1_86</title>
<path fill="#85cbd0" stroke="#000000" d="M1610.5,-798C1610.5,-798 1547.5,-798 1547.5,-798 1541.5,-798 1535.5,-792 1535.5,-786 1535.5,-786 1535.5,-774 1535.5,-774 1535.5,-768 1541.5,-762 1547.5,-762 1547.5,-762 1610.5,-762 1610.5,-762 1616.5,-762 1622.5,-768 1622.5,-774 1622.5,-774 1622.5,-786 1622.5,-786 1622.5,-792 1616.5,-798 1610.5,-798"/>
<text text-anchor="middle" x="1579" y="-775" font-family="Times,serif" font-size="20.00" fill="#000000">192 ilum</text>
</g>
<!-- v_1_86&#45;&gt;v_1_82 -->
<g id="edge70" class="edge">
<title>v_1_86&#45;&gt;v_1_82</title>
<path fill="none" stroke="#000000" d="M1535.4514,-783.2776C1499.5763,-786.7906 1447.6872,-793.7545 1404,-807 1356.2868,-821.4662 1304.9062,-846.6935 1270.4454,-865.1603"/>
<polygon fill="#000000" stroke="#000000" points="1268.7532,-862.0964 1261.627,-869.9366 1272.087,-868.2516 1268.7532,-862.0964"/>
</g>
<!-- v_1_87 -->
<g id="node39" class="node">
<title>v_1_87</title>
<path fill="#85cbd0" stroke="#000000" d="M1616.5,-960C1616.5,-960 1541.5,-960 1541.5,-960 1535.5,-960 1529.5,-954 1529.5,-948 1529.5,-948 1529.5,-936 1529.5,-936 1529.5,-930 1535.5,-924 1541.5,-924 1541.5,-924 1616.5,-924 1616.5,-924 1622.5,-924 1628.5,-930 1628.5,-936 1628.5,-936 1628.5,-948 1628.5,-948 1628.5,-954 1622.5,-960 1616.5,-960"/>
<text text-anchor="middle" x="1579" y="-937" font-family="Times,serif" font-size="20.00" fill="#000000">192 node3</text>
</g>
<!-- v_1_87&#45;&gt;v_1_82 -->
<g id="edge19" class="edge">
<title>v_1_87&#45;&gt;v_1_82</title>
<path fill="none" stroke="#000000" d="M1529.213,-934.3303C1494.1917,-928.9324 1446.2281,-921.5339 1404,-915 1388.4889,-912.6 1372.2005,-910.0766 1356.0705,-907.5759"/>
<polygon fill="#000000" stroke="#000000" points="1356.4744,-904.0967 1346.0562,-906.023 1355.4018,-911.0141 1356.4744,-904.0967"/>
</g>
<!-- v_1_88 -->
<g id="node40" class="node">
<title>v_1_88</title>
<path fill="#85cbd0" stroke="#000000" d="M1616.5,-852C1616.5,-852 1541.5,-852 1541.5,-852 1535.5,-852 1529.5,-846 1529.5,-840 1529.5,-840 1529.5,-828 1529.5,-828 1529.5,-822 1535.5,-816 1541.5,-816 1541.5,-816 1616.5,-816 1616.5,-816 1622.5,-816 1628.5,-822 1628.5,-828 1628.5,-828 1628.5,-840 1628.5,-840 1628.5,-846 1622.5,-852 1616.5,-852"/>
<text text-anchor="middle" x="1579" y="-829" font-family="Times,serif" font-size="20.00" fill="#000000">192 node2</text>
</g>
<!-- v_1_88&#45;&gt;v_1_82 -->
<g id="edge11" class="edge">
<title>v_1_88&#45;&gt;v_1_82</title>
<path fill="none" stroke="#000000" d="M1529.213,-841.6697C1494.1917,-847.0676 1446.2281,-854.4661 1404,-861 1388.4889,-863.4 1372.2005,-865.9234 1356.0705,-868.4241"/>
<polygon fill="#000000" stroke="#000000" points="1355.4018,-864.9859 1346.0562,-869.977 1356.4744,-871.9033 1355.4018,-864.9859"/>
</g>
<!-- v_1_92 -->
<g id="node41" class="node">
<title>v_1_92</title>
<polygon fill="#3a85b9" stroke="#000000" points="2083.5,-960 2008.5,-960 2008.5,-924 2083.5,-924 2083.5,-960"/>
<text text-anchor="middle" x="2046" y="-937" font-family="Times,serif" font-size="20.00" fill="#ffffff">193 len</text>
</g>
<!-- v_1_92&#45;&gt;v_1_87 -->
<g id="edge25" class="edge">
<title>v_1_92&#45;&gt;v_1_87</title>
<path fill="none" stroke="#000000" stroke-dasharray="5,2" d="M2008.179,-942C1927.2042,-942 1736.5114,-942 1638.8814,-942"/>
<polygon fill="#000000" stroke="#000000" points="1638.5898,-938.5001 1628.5898,-942 1638.5898,-945.5001 1638.5898,-938.5001"/>
</g>
<!-- v_1_93 -->
<g id="node42" class="node">
<title>v_1_93</title>
<path fill="#85cbd0" stroke="#000000" d="M2419.5,-960C2419.5,-960 2356.5,-960 2356.5,-960 2350.5,-960 2344.5,-954 2344.5,-948 2344.5,-948 2344.5,-936 2344.5,-936 2344.5,-930 2350.5,-924 2356.5,-924 2356.5,-924 2419.5,-924 2419.5,-924 2425.5,-924 2431.5,-930 2431.5,-936 2431.5,-936 2431.5,-948 2431.5,-948 2431.5,-954 2425.5,-960 2419.5,-960"/>
<text text-anchor="middle" x="2388" y="-937" font-family="Times,serif" font-size="20.00" fill="#000000">193 ntria</text>
</g>
<!-- v_1_93&#45;&gt;v_1_92 -->
<g id="edge18" class="edge">
<title>v_1_93&#45;&gt;v_1_92</title>
<path fill="none" stroke="#000000" d="M2344.3381,-942C2280.0678,-942 2160.4313,-942 2093.8486,-942"/>
<polygon fill="#000000" stroke="#000000" points="2093.6347,-938.5001 2083.6347,-942 2093.6346,-945.5001 2093.6347,-938.5001"/>
</g>
<!-- v_1_99 -->
<g id="node43" class="node">
<title>v_1_99</title>
<polygon fill="#3a85b9" stroke="#000000" points="1368,-690 1092,-690 1092,-654 1368,-654 1368,-690"/>
<text text-anchor="middle" x="1230" y="-667" font-family="Times,serif" font-size="20.00" fill="#ffffff">195 generate_coordinates_points</text>
</g>
<!-- v_1_99&#45;&gt;v_1_66 -->
<g id="edge76" class="edge">
<title>v_1_99&#45;&gt;v_1_66</title>
<path fill="none" stroke="#000000" stroke-dasharray="5,2" d="M1091.5346,-672C1043.4453,-672 992.4182,-672 955.6724,-672"/>
<polygon fill="#000000" stroke="#000000" points="955.2246,-668.5001 945.2246,-672 955.2246,-675.5001 955.2246,-668.5001"/>
</g>
<!-- v_1_99&#45;&gt;v_1_67 -->
<g id="edge37" class="edge">
<title>v_1_99&#45;&gt;v_1_67</title>
<path fill="none" stroke="#000000" stroke-dasharray="5,2" d="M1120.8263,-690.0563C1064.9309,-699.3009 999.5005,-710.1224 955.1497,-717.4576"/>
<polygon fill="#000000" stroke="#000000" points="954.4786,-714.021 945.1837,-719.1059 955.6208,-720.9272 954.4786,-714.021"/>
</g>
<!-- v_1_99&#45;&gt;v_1_68 -->
<g id="edge9" class="edge">
<title>v_1_99&#45;&gt;v_1_68</title>
<path fill="none" stroke="#000000" stroke-dasharray="5,2" d="M1120.8263,-653.9437C1064.9309,-644.6991 999.5005,-633.8776 955.1497,-626.5424"/>
<polygon fill="#000000" stroke="#000000" points="955.6208,-623.0728 945.1837,-624.8941 954.4786,-629.979 955.6208,-623.0728"/>
</g>
<!-- v_1_100 -->
<g id="node44" class="node">
<title>v_1_100</title>
<path fill="#85cbd0" stroke="#000000" d="M1596,-690C1596,-690 1562,-690 1562,-690 1556,-690 1550,-684 1550,-678 1550,-678 1550,-666 1550,-666 1550,-660 1556,-654 1562,-654 1562,-654 1596,-654 1596,-654 1602,-654 1608,-660 1608,-666 1608,-666 1608,-678 1608,-678 1608,-684 1602,-690 1596,-690"/>
<text text-anchor="middle" x="1579" y="-667" font-family="Times,serif" font-size="20.00" fill="#000000">195 r</text>
</g>
<!-- v_1_100&#45;&gt;v_1_99 -->
<g id="edge44" class="edge">
<title>v_1_100&#45;&gt;v_1_99</title>
<path fill="none" stroke="#000000" d="M1549.8447,-672C1511.9012,-672 1442.8359,-672 1378.5697,-672"/>
<polygon fill="#000000" stroke="#000000" points="1378.3022,-668.5001 1368.3021,-672 1378.3021,-675.5001 1378.3022,-668.5001"/>
</g>
<!-- v_1_103 -->
<g id="node45" class="node">
<title>v_1_103</title>
<polygon fill="#3a85b9" stroke="#000000" points="1056,-350 751,-350 751,-314 1056,-314 1056,-350"/>
<text text-anchor="middle" x="903.5" y="-327" font-family="Times,serif" font-size="20.00" fill="#ffffff">197 calculate_refs_geometry_model</text>
</g>
<!-- v_1_103&#45;&gt;v_1_33 -->
<g id="edge3" class="edge">
<title>v_1_103&#45;&gt;v_1_33</title>
<path fill="none" stroke="#000000" stroke-dasharray="5,2" d="M873.5245,-313.924C837.184,-292.7202 773.5214,-257.8252 715,-237 693.4795,-229.3418 669.0296,-223.4265 647.6634,-219.1115"/>
<polygon fill="#000000" stroke="#000000" points="648.2531,-215.6607 637.7679,-217.1813 646.9128,-222.5312 648.2531,-215.6607"/>
</g>
<!-- v_1_103&#45;&gt;v_1_34 -->
<g id="edge35" class="edge">
<title>v_1_103&#45;&gt;v_1_34</title>
<path fill="none" stroke="#000000" stroke-dasharray="5,2" d="M886.4076,-313.919C855.3939,-282.2451 786.4218,-216.8787 715,-183 694.8778,-173.4551 671.2837,-167.2274 650.2026,-163.1899"/>
<polygon fill="#000000" stroke="#000000" points="650.542,-159.6951 640.0818,-161.3788 649.3089,-166.5856 650.542,-159.6951"/>
</g>
<!-- v_1_103&#45;&gt;v_1_35 -->
<g id="edge55" class="edge">
<title>v_1_103&#45;&gt;v_1_35</title>
<path fill="none" stroke="#000000" stroke-dasharray="5,2" d="M750.7333,-325.123C712.67,-323.4096 674.3883,-321.6863 645.0146,-320.364"/>
<polygon fill="#000000" stroke="#000000" points="645.1585,-316.867 635.0112,-319.9137 644.8436,-323.8599 645.1585,-316.867"/>
</g>
<!-- v_1_103&#45;&gt;v_1_36 -->
<g id="edge38" class="edge">
<title>v_1_103&#45;&gt;v_1_36</title>
<path fill="none" stroke="#000000" stroke-dasharray="5,2" d="M857.9257,-350.0012C820.0668,-364.5168 764.5786,-384.785 715,-399 691.3998,-405.7665 664.8294,-411.8095 642.4815,-416.454"/>
<polygon fill="#000000" stroke="#000000" points="641.6328,-413.055 632.5364,-418.4871 643.0349,-419.9132 641.6328,-413.055"/>
</g>
<!-- v_1_103&#45;&gt;v_1_38 -->
<g id="edge6" class="edge">
<title>v_1_103&#45;&gt;v_1_38</title>
<path fill="none" stroke="#000000" stroke-dasharray="5,2" d="M881.1795,-350.117C847.3154,-376.6881 779.9993,-425.9923 715,-453 693.5588,-461.909 668.7297,-468.0804 647.0536,-472.2492"/>
<polygon fill="#000000" stroke="#000000" points="646.2266,-468.8423 637.0182,-474.0821 647.4843,-475.7284 646.2266,-468.8423"/>
</g>
<!-- v_1_103&#45;&gt;v_1_40 -->
<g id="edge16" class="edge">
<title>v_1_103&#45;&gt;v_1_40</title>
<path fill="none" stroke="#000000" stroke-dasharray="5,2" d="M820.9742,-313.9558C766.7096,-302.0909 697.1116,-286.8733 649.0653,-276.368"/>
<polygon fill="#000000" stroke="#000000" points="649.67,-272.9176 639.1531,-274.2007 648.1747,-279.756 649.67,-272.9176"/>
</g>
<!-- v_1_54 -->
<g id="node46" class="node">
<title>v_1_54</title>
<path fill="#85cbd0" stroke="#000000" d="M619,-390C619,-390 566,-390 566,-390 560,-390 554,-384 554,-378 554,-378 554,-366 554,-366 554,-360 560,-354 566,-354 566,-354 619,-354 619,-354 625,-354 631,-360 631,-366 631,-366 631,-378 631,-378 631,-384 625,-390 619,-390"/>
<text text-anchor="middle" x="592.5" y="-367" font-family="Times,serif" font-size="20.00" fill="#000000">180 rad</text>
</g>
<!-- v_1_103&#45;&gt;v_1_54 -->
<g id="edge60" class="edge">
<title>v_1_103&#45;&gt;v_1_54</title>
<path fill="none" stroke="#000000" stroke-dasharray="5,2" d="M763.4665,-350.0107C719.8222,-355.6241 674.5366,-361.4487 641.5457,-365.6919"/>
<polygon fill="#000000" stroke="#000000" points="640.7558,-362.2645 631.284,-367.0117 641.6488,-369.2074 640.7558,-362.2645"/>
</g>
<!-- v_1_104 -->
<g id="node47" class="node">
<title>v_1_104</title>
<path fill="#85cbd0" stroke="#000000" d="M1251,-350C1251,-350 1209,-350 1209,-350 1203,-350 1197,-344 1197,-338 1197,-338 1197,-326 1197,-326 1197,-320 1203,-314 1209,-314 1209,-314 1251,-314 1251,-314 1257,-314 1263,-320 1263,-326 1263,-326 1263,-338 1263,-338 1263,-344 1257,-350 1251,-350"/>
<text text-anchor="middle" x="1230" y="-327" font-family="Times,serif" font-size="20.00" fill="#000000">197 ip</text>
</g>
<!-- v_1_104&#45;&gt;v_1_103 -->
<g id="edge36" class="edge">
<title>v_1_104&#45;&gt;v_1_103</title>
<path fill="none" stroke="#000000" d="M1196.8967,-332C1165.5007,-332 1115.8804,-332 1066.3137,-332"/>
<polygon fill="#000000" stroke="#000000" points="1066.076,-328.5001 1056.076,-332 1066.076,-335.5001 1066.076,-328.5001"/>
</g>
<!-- v_1_105 -->
<g id="node48" class="node">
<title>v_1_105</title>
<path fill="#85cbd0" stroke="#000000" d="M1249,-296C1249,-296 1211,-296 1211,-296 1205,-296 1199,-290 1199,-284 1199,-284 1199,-272 1199,-272 1199,-266 1205,-260 1211,-260 1211,-260 1249,-260 1249,-260 1255,-260 1261,-266 1261,-272 1261,-272 1261,-284 1261,-284 1261,-290 1255,-296 1249,-296"/>
<text text-anchor="middle" x="1230" y="-273" font-family="Times,serif" font-size="20.00" fill="#000000">197 it</text>
</g>
<!-- v_1_105&#45;&gt;v_1_103 -->
<g id="edge73" class="edge">
<title>v_1_105&#45;&gt;v_1_103</title>
<path fill="none" stroke="#000000" d="M1198.9893,-283.1289C1158.6467,-289.8012 1085.8404,-301.8426 1022.5947,-312.3029"/>
<polygon fill="#000000" stroke="#000000" points="1021.8275,-308.8821 1012.5327,-313.967 1022.9698,-315.7883 1021.8275,-308.8821"/>
</g>
<!-- v_1_106 -->
<g id="node49" class="node">
<title>v_1_106</title>
<path fill="#85cbd0" stroke="#000000" d="M1258,-458C1258,-458 1202,-458 1202,-458 1196,-458 1190,-452 1190,-446 1190,-446 1190,-434 1190,-434 1190,-428 1196,-422 1202,-422 1202,-422 1258,-422 1258,-422 1264,-422 1270,-428 1270,-434 1270,-434 1270,-446 1270,-446 1270,-452 1264,-458 1258,-458"/>
<text text-anchor="middle" x="1230" y="-435" font-family="Times,serif" font-size="20.00" fill="#000000">197 delt</text>
</g>
<!-- v_1_106&#45;&gt;v_1_103 -->
<g id="edge61" class="edge">
<title>v_1_106&#45;&gt;v_1_103</title>
<path fill="none" stroke="#000000" d="M1189.8886,-434.4628C1162.0482,-430.0613 1124.306,-422.9768 1092,-413 1041.3304,-397.3521 985.8411,-372.5085 948.2759,-354.4578"/>
<polygon fill="#000000" stroke="#000000" points="949.651,-351.2349 939.1255,-350.0247 946.599,-357.5345 949.651,-351.2349"/>
</g>
<!-- v_1_107 -->
<g id="node50" class="node">
<title>v_1_107</title>
<path fill="#85cbd0" stroke="#000000" d="M1260.5,-404C1260.5,-404 1199.5,-404 1199.5,-404 1193.5,-404 1187.5,-398 1187.5,-392 1187.5,-392 1187.5,-380 1187.5,-380 1187.5,-374 1193.5,-368 1199.5,-368 1199.5,-368 1260.5,-368 1260.5,-368 1266.5,-368 1272.5,-374 1272.5,-380 1272.5,-380 1272.5,-392 1272.5,-392 1272.5,-398 1266.5,-404 1260.5,-404"/>
<text text-anchor="middle" x="1230" y="-381" font-family="Times,serif" font-size="20.00" fill="#000000">197 delp</text>
</g>
<!-- v_1_107&#45;&gt;v_1_103 -->
<g id="edge52" class="edge">
<title>v_1_107&#45;&gt;v_1_103</title>
<path fill="none" stroke="#000000" d="M1187.3158,-378.9404C1145.5666,-372.0355 1080.0483,-361.1994 1022.4767,-351.6776"/>
<polygon fill="#000000" stroke="#000000" points="1023.0079,-348.218 1012.5708,-350.0393 1021.8657,-355.1242 1023.0079,-348.218"/>
</g>
<!-- v_1_114 -->
<g id="node51" class="node">
<title>v_1_114</title>
<polygon fill="#3a85b9" stroke="#000000" points="2225,-852 1867,-852 1867,-816 2225,-816 2225,-852"/>
<text text-anchor="middle" x="2046" y="-829" font-family="Times,serif" font-size="20.00" fill="#ffffff">199 calculate_edges_and_normal_triangles</text>
</g>
<!-- v_1_114&#45;&gt;v_1_85 -->
<g id="edge47" class="edge">
<title>v_1_114&#45;&gt;v_1_85</title>
<path fill="none" stroke="#000000" stroke-dasharray="5,2" d="M1890.1712,-852.0187C1803.9898,-861.984 1701.8772,-873.7915 1638.7591,-881.0899"/>
<polygon fill="#000000" stroke="#000000" points="1638.1216,-877.6403 1628.5898,-882.2658 1638.9257,-884.5939 1638.1216,-877.6403"/>
</g>
<!-- v_1_114&#45;&gt;v_1_87 -->
<g id="edge21" class="edge">
<title>v_1_114&#45;&gt;v_1_87</title>
<path fill="none" stroke="#000000" stroke-dasharray="5,2" d="M1988.6007,-852.0786C1930.074,-870.0008 1836.421,-897.2743 1754,-915 1716.0049,-923.1713 1672.8586,-929.8567 1638.9148,-934.5309"/>
<polygon fill="#000000" stroke="#000000" points="1638.1311,-931.105 1628.6918,-935.9164 1639.0713,-938.0416 1638.1311,-931.105"/>
</g>
<!-- v_1_114&#45;&gt;v_1_88 -->
<g id="edge64" class="edge">
<title>v_1_114&#45;&gt;v_1_88</title>
<path fill="none" stroke="#000000" stroke-dasharray="5,2" d="M1866.7812,-834C1786.1458,-834 1696.3676,-834 1638.8718,-834"/>
<polygon fill="#000000" stroke="#000000" points="1638.5213,-830.5001 1628.5213,-834 1638.5212,-837.5001 1638.5213,-830.5001"/>
</g>
<!-- v_1_114&#45;&gt;v_1_100 -->
<g id="edge14" class="edge">
<title>v_1_114&#45;&gt;v_1_100</title>
<path fill="none" stroke="#000000" stroke-dasharray="5,2" d="M2014.7502,-815.9704C1962.5326,-786.6775 1853.452,-729.0105 1754,-699 1708.4629,-685.2588 1654.0436,-678.2649 1618.1136,-674.8818"/>
<polygon fill="#000000" stroke="#000000" points="1618.3119,-671.3857 1608.0402,-673.9825 1617.6893,-678.3579 1618.3119,-671.3857"/>
</g>
<!-- v_1_115 -->
<g id="node52" class="node">
<title>v_1_115</title>
<path fill="#85cbd0" stroke="#000000" d="M2423,-906C2423,-906 2353,-906 2353,-906 2347,-906 2341,-900 2341,-894 2341,-894 2341,-882 2341,-882 2341,-876 2347,-870 2353,-870 2353,-870 2423,-870 2423,-870 2429,-870 2435,-876 2435,-882 2435,-882 2435,-894 2435,-894 2435,-900 2429,-906 2423,-906"/>
<text text-anchor="middle" x="2388" y="-883" font-family="Times,serif" font-size="20.00" fill="#000000">199 alpha</text>
</g>
<!-- v_1_115&#45;&gt;v_1_114 -->
<g id="edge48" class="edge">
<title>v_1_115&#45;&gt;v_1_114</title>
<path fill="none" stroke="#000000" d="M2340.8054,-880.5482C2296.8941,-873.6149 2229.5067,-862.9747 2170.238,-853.6165"/>
<polygon fill="#000000" stroke="#000000" points="2170.4629,-850.1087 2160.0393,-852.0062 2169.3711,-857.0231 2170.4629,-850.1087"/>
</g>
<!-- v_1_116 -->
<g id="node53" class="node">
<title>v_1_116</title>
<path fill="#85cbd0" stroke="#000000" d="M2418,-852C2418,-852 2358,-852 2358,-852 2352,-852 2346,-846 2346,-840 2346,-840 2346,-828 2346,-828 2346,-822 2352,-816 2358,-816 2358,-816 2418,-816 2418,-816 2424,-816 2430,-822 2430,-828 2430,-828 2430,-840 2430,-840 2430,-846 2424,-852 2418,-852"/>
<text text-anchor="middle" x="2388" y="-829" font-family="Times,serif" font-size="20.00" fill="#000000">199 beta</text>
</g>
<!-- v_1_116&#45;&gt;v_1_114 -->
<g id="edge2" class="edge">
<title>v_1_116&#45;&gt;v_1_114</title>
<path fill="none" stroke="#000000" d="M2345.7211,-834C2317.0152,-834 2276.8224,-834 2235.175,-834"/>
<polygon fill="#000000" stroke="#000000" points="2235.1357,-830.5001 2225.1357,-834 2235.1357,-837.5001 2235.1357,-830.5001"/>
</g>
<!-- v_1_117 -->
<g id="node54" class="node">
<title>v_1_117</title>
<path fill="#85cbd0" stroke="#000000" d="M2421,-798C2421,-798 2355,-798 2355,-798 2349,-798 2343,-792 2343,-786 2343,-786 2343,-774 2343,-774 2343,-768 2349,-762 2355,-762 2355,-762 2421,-762 2421,-762 2427,-762 2433,-768 2433,-774 2433,-774 2433,-786 2433,-786 2433,-792 2427,-798 2421,-798"/>
<text text-anchor="middle" x="2388" y="-775" font-family="Times,serif" font-size="20.00" fill="#000000">199 areai</text>
</g>
<!-- v_1_117&#45;&gt;v_1_114 -->
<g id="edge62" class="edge">
<title>v_1_117&#45;&gt;v_1_114</title>
<path fill="none" stroke="#000000" d="M2342.9378,-787.1151C2299.0385,-794.0466 2230.2907,-804.9015 2169.996,-814.4217"/>
<polygon fill="#000000" stroke="#000000" points="2169.3423,-810.9815 2160.0106,-815.9983 2170.4341,-817.8958 2169.3423,-810.9815"/>
</g>
<!-- a_30 -->
<g id="node55" class="node">
<title>a_30</title>
<path fill="#ffffff" stroke="#000000" d="M2288.5,-327C2288.5,-327 1803.5,-327 1803.5,-327 1797.5,-327 1791.5,-321 1791.5,-315 1791.5,-315 1791.5,-303 1791.5,-303 1791.5,-297 1797.5,-291 1803.5,-291 1803.5,-291 2288.5,-291 2288.5,-291 2294.5,-291 2300.5,-297 2300.5,-303 2300.5,-303 2300.5,-315 2300.5,-315 2300.5,-321 2294.5,-327 2288.5,-327"/>
<text text-anchor="middle" x="2046" y="-304" font-family="Times,serif" font-size="20.00" fill="#000000">R_PyPOFacetsModularExperi ... 02.dat_20180322110454.dat</text>
</g>
<!-- v_1_120 -->
<g id="node57" class="node">
<title>v_1_120</title>
<polygon fill="#3a85b9" stroke="#000000" points="1727,-327 1431,-327 1431,-291 1727,-291 1727,-327"/>
<text text-anchor="middle" x="1579" y="-304" font-family="Times,serif" font-size="20.00" fill="#ffffff">201 assemble_generate_output_file</text>
</g>
<!-- a_30&#45;&gt;v_1_120 -->
<g id="edge65" class="edge">
<title>a_30&#45;&gt;v_1_120</title>
<path fill="none" stroke="#000000" stroke-dasharray="5,2" d="M1791.3194,-309C1773.0314,-309 1754.9182,-309 1737.4334,-309"/>
<polygon fill="#000000" stroke="#000000" points="1737.2147,-305.5001 1727.2147,-309 1737.2147,-312.5001 1737.2147,-305.5001"/>
</g>
<!-- a_31 -->
<g id="node56" class="node">
<title>a_31</title>
<path fill="#ffffff" stroke="#000000" d="M2290,-273C2290,-273 1802,-273 1802,-273 1796,-273 1790,-267 1790,-261 1790,-261 1790,-249 1790,-249 1790,-243 1796,-237 1802,-237 1802,-237 2290,-237 2290,-237 2296,-237 2302,-243 2302,-249 2302,-249 2302,-261 2302,-261 2302,-267 2296,-273 2290,-273"/>
<text text-anchor="middle" x="2046" y="-250" font-family="Times,serif" font-size="20.00" fill="#000000">E0_PyPOFacetsModularExper ... 02.dat_20180322110454.dat</text>
</g>
<!-- a_31&#45;&gt;v_1_120 -->
<g id="edge29" class="edge">
<title>a_31&#45;&gt;v_1_120</title>
<path fill="none" stroke="#000000" stroke-dasharray="5,2" d="M1870.3623,-273.0035C1843.4359,-275.9141 1815.968,-278.9695 1790,-282 1769.4167,-284.4021 1747.7192,-287.0484 1726.385,-289.7164"/>
<polygon fill="#000000" stroke="#000000" points="1725.7681,-286.2662 1716.282,-290.9847 1726.6401,-293.2117 1725.7681,-286.2662"/>
</g>
<!-- v_1_120&#45;&gt;v_1_31 -->
<g id="edge54" class="edge">
<title>v_1_120&#45;&gt;v_1_31</title>
<path fill="none" stroke="#000000" stroke-dasharray="5,2" d="M1561.7138,-290.7424C1527.9121,-256.1689 1449.2395,-181.1117 1368,-142 1343.4599,-130.1855 1314.3272,-122.6044 1289.1674,-117.8049"/>
<polygon fill="#000000" stroke="#000000" points="1289.4789,-114.3048 1279.0167,-115.9757 1288.2374,-121.1938 1289.4789,-114.3048"/>
</g>
<!-- v_1_120&#45;&gt;v_1_32 -->
<g id="edge12" class="edge">
<title>v_1_120&#45;&gt;v_1_32</title>
<path fill="none" stroke="#000000" stroke-dasharray="5,2" d="M1567.8059,-327.3228C1539.9389,-371.2879 1462.8219,-483.2397 1368,-539 1341.5453,-554.5568 1308.1562,-562.7875 1280.8473,-567.1383"/>
<polygon fill="#000000" stroke="#000000" points="1280.0933,-563.7113 1270.7058,-568.623 1281.1074,-570.6374 1280.0933,-563.7113"/>
</g>
<!-- v_1_120&#45;&gt;v_1_33 -->
<g id="edge72" class="edge">
<title>v_1_120&#45;&gt;v_1_33</title>
<path fill="none" stroke="#000000" stroke-dasharray="5,2" d="M1542.3606,-290.9936C1501.1148,-271.7522 1431.5461,-242.3542 1368,-230 1102.4618,-178.3759 776.2215,-195.4473 647.9888,-205.1977"/>
<polygon fill="#000000" stroke="#000000" points="647.348,-201.7368 637.6492,-206.001 647.8903,-208.7158 647.348,-201.7368"/>
</g>
<!-- v_1_120&#45;&gt;v_1_34 -->
<g id="edge20" class="edge">
<title>v_1_120&#45;&gt;v_1_34</title>
<path fill="none" stroke="#000000" stroke-dasharray="5,2" d="M1554.282,-290.8284C1516.4189,-264.1538 1440.7759,-215.3609 1368,-195 1108.5692,-122.4176 781.6092,-139.3882 650.6367,-150.3276"/>
<polygon fill="#000000" stroke="#000000" points="650.0975,-146.8609 640.4325,-151.2012 650.6946,-153.8354 650.0975,-146.8609"/>
</g>
<!-- v_1_120&#45;&gt;v_1_37 -->
<g id="edge7" class="edge">
<title>v_1_120&#45;&gt;v_1_37</title>
<path fill="none" stroke="#000000" stroke-dasharray="5,2" d="M1565.9944,-327.2504C1536.2888,-367.2291 1458.9543,-461.9945 1368,-500 1228.2126,-558.4107 1043.8999,-545.1838 955.3565,-533.9398"/>
<polygon fill="#000000" stroke="#000000" points="955.669,-530.4508 945.2982,-532.6181 954.757,-537.3912 955.669,-530.4508"/>
</g>
<!-- v_1_120&#45;&gt;v_1_38 -->
<g id="edge1" class="edge">
<title>v_1_120&#45;&gt;v_1_38</title>
<path fill="none" stroke="#000000" stroke-dasharray="5,2" d="M1562.647,-327.2548C1529.8599,-362.3388 1451.9986,-438.2516 1368,-467 1234.6665,-512.6331 800.9227,-492.3343 647.1608,-483.4134"/>
<polygon fill="#000000" stroke="#000000" points="647.2003,-479.9098 637.0123,-482.8174 646.7899,-486.8977 647.2003,-479.9098"/>
</g>
<!-- v_1_120&#45;&gt;v_1_39 -->
<g id="edge69" class="edge">
<title>v_1_120&#45;&gt;v_1_39</title>
<path fill="none" stroke="#000000" stroke-dasharray="5,2" d="M1560.2688,-290.7857C1527.5846,-258.7525 1458.4298,-189.8535 1404,-128 1387.0799,-108.7722 1390.947,-94.3769 1368,-83 1303.6161,-51.079 807.5178,-59.1785 644.3398,-62.7539"/>
<polygon fill="#000000" stroke="#000000" points="644.0007,-59.2605 634.0811,-62.9824 644.1566,-66.2588 644.0007,-59.2605"/>
</g>
<!-- v_1_120&#45;&gt;v_1_40 -->
<g id="edge43" class="edge">
<title>v_1_120&#45;&gt;v_1_40</title>
<path fill="none" stroke="#000000" stroke-dasharray="5,2" d="M1528.2043,-290.8982C1485.9547,-276.8525 1423.9095,-258.5443 1368,-251 1101.0014,-214.9717 777.6445,-243.2016 649.121,-257.2532"/>
<polygon fill="#000000" stroke="#000000" points="648.6667,-253.782 639.1129,-258.3621 649.4376,-260.7395 648.6667,-253.782"/>
</g>
<!-- v_1_120&#45;&gt;v_1_106 -->
<g id="edge71" class="edge">
<title>v_1_120&#45;&gt;v_1_106</title>
<path fill="none" stroke="#000000" stroke-dasharray="5,2" d="M1548.6465,-327.1794C1508.609,-350.3935 1435.3284,-390.2705 1368,-413 1339.7189,-422.5474 1306.9727,-429.134 1280.478,-433.4101"/>
<polygon fill="#000000" stroke="#000000" points="1279.6275,-430.0001 1270.2826,-434.9924 1280.7011,-436.9173 1279.6275,-430.0001"/>
</g>
<!-- v_1_120&#45;&gt;v_1_107 -->
<g id="edge74" class="edge">
<title>v_1_120&#45;&gt;v_1_107</title>
<path fill="none" stroke="#000000" stroke-dasharray="5,2" d="M1505.924,-327.0662C1465.3794,-336.9009 1413.9951,-349.0549 1368,-359 1339.8783,-365.0805 1308.4014,-371.2849 1282.6187,-376.2104"/>
<polygon fill="#000000" stroke="#000000" points="1281.8439,-372.7949 1272.6735,-378.1009 1283.1512,-379.6717 1281.8439,-372.7949"/>
</g>
<!-- v_1_121 -->
<g id="node58" class="node">
<title>v_1_121</title>
<path fill="#85cbd0" stroke="#000000" d="M2081.5,-381C2081.5,-381 2010.5,-381 2010.5,-381 2004.5,-381 1998.5,-375 1998.5,-369 1998.5,-369 1998.5,-357 1998.5,-357 1998.5,-351 2004.5,-345 2010.5,-345 2010.5,-345 2081.5,-345 2081.5,-345 2087.5,-345 2093.5,-351 2093.5,-357 2093.5,-357 2093.5,-369 2093.5,-369 2093.5,-375 2087.5,-381 2081.5,-381"/>
<text text-anchor="middle" x="2046" y="-358" font-family="Times,serif" font-size="20.00" fill="#000000">201 result</text>
</g>
<!-- v_1_121&#45;&gt;v_1_120 -->
<g id="edge23" class="edge">
<title>v_1_121&#45;&gt;v_1_120</title>
<path fill="none" stroke="#000000" d="M1998.3113,-358.2896C1946.8712,-353.1341 1862.5772,-344.4698 1790,-336 1769.4167,-333.5979 1747.7192,-330.9516 1726.385,-328.2836"/>
<polygon fill="#000000" stroke="#000000" points="1726.6401,-324.7883 1716.282,-327.0153 1725.7681,-331.7338 1726.6401,-324.7883"/>
</g>
</g>
</svg>
