<?xml version="1.0" encoding="UTF-8" standalone="no"?>
<!DOCTYPE svg PUBLIC "-//W3C//DTD SVG 1.1//EN"
 "http://www.w3.org/Graphics/SVG/1.1/DTD/svg11.dtd">
<!-- Generated by graphviz version 2.40.1 (20161225.0304)
 -->
<!-- Title: dependency Pages: 1 -->
<svg width="2726pt" height="1101pt"
 viewBox="0.00 0.00 2726.00 1100.50" xmlns="http://www.w3.org/2000/svg" xmlns:xlink="http://www.w3.org/1999/xlink">
<g id="graph0" class="graph" transform="scale(1 1) rotate(0) translate(4 1096.504)">
<title>dependency</title>
<polygon fill="#ffffff" stroke="transparent" points="-4,4 -4,-1096.504 2722,-1096.504 2722,4 -4,4"/>
<!-- a_1 -->
<g id="node1" class="node">
<title>a_1</title>
<path fill="#ffffff" stroke="#000000" d="M191,-544.504C191,-544.504 12,-544.504 12,-544.504 6,-544.504 0,-538.504 0,-532.504 0,-532.504 0,-520.504 0,-520.504 0,-514.504 6,-508.504 12,-508.504 12,-508.504 191,-508.504 191,-508.504 197,-508.504 203,-514.504 203,-520.504 203,-520.504 203,-532.504 203,-532.504 203,-538.504 197,-544.504 191,-544.504"/>
<text text-anchor="middle" x="101.5" y="-521.504" font-family="Times,serif" font-size="20.00" fill="#000000">input_data_file_002.dat</text>
</g>
<!-- v_1_36 -->
<g id="node2" class="node">
<title>v_1_36</title>
<polygon fill="#3a85b9" stroke="#000000" points="434,-517.504 239,-517.504 239,-481.504 434,-481.504 434,-517.504"/>
<text text-anchor="middle" x="336.5" y="-494.504" font-family="Times,serif" font-size="20.00" fill="#ffffff">176 read_param_input</text>
</g>
<!-- v_1_36&#45;&gt;a_1 -->
<g id="edge75" class="edge">
<title>v_1_36&#45;&gt;a_1</title>
<path fill="none" stroke="#000000" stroke-dasharray="5,2" d="M238.8804,-510.7199C230.4511,-511.6883 221.8811,-512.673 213.351,-513.653"/>
<polygon fill="#000000" stroke="#000000" points="212.9015,-510.1816 203.3664,-514.8002 213.7006,-517.1358 212.9015,-510.1816"/>
</g>
<!-- v_1_33 -->
<g id="node3" class="node">
<title>v_1_33</title>
<path fill="#85cbd0" stroke="#000000" d="M174.5,-490.504C174.5,-490.504 28.5,-490.504 28.5,-490.504 22.5,-490.504 16.5,-484.504 16.5,-478.504 16.5,-478.504 16.5,-466.504 16.5,-466.504 16.5,-460.504 22.5,-454.504 28.5,-454.504 28.5,-454.504 174.5,-454.504 174.5,-454.504 180.5,-454.504 186.5,-460.504 186.5,-466.504 186.5,-466.504 186.5,-478.504 186.5,-478.504 186.5,-484.504 180.5,-490.504 174.5,-490.504"/>
<text text-anchor="middle" x="101.5" y="-467.504" font-family="Times,serif" font-size="20.00" fill="#000000">174 input_data_file</text>
</g>
<!-- v_1_36&#45;&gt;v_1_33 -->
<g id="edge28" class="edge">
<title>v_1_36&#45;&gt;v_1_33</title>
<path fill="none" stroke="#000000" stroke-dasharray="5,2" d="M238.8804,-488.2881C224.9783,-486.6909 210.6937,-485.0497 196.836,-483.4575"/>
<polygon fill="#000000" stroke="#000000" points="197.1666,-479.9725 186.8324,-482.3081 196.3675,-486.9268 197.1666,-479.9725"/>
</g>
<!-- v_1_37 -->
<g id="node4" class="node">
<title>v_1_37</title>
<path fill="#85cbd0" stroke="#000000" d="M940.5,-638.504C940.5,-638.504 866.5,-638.504 866.5,-638.504 860.5,-638.504 854.5,-632.504 854.5,-626.504 854.5,-626.504 854.5,-614.504 854.5,-614.504 854.5,-608.504 860.5,-602.504 866.5,-602.504 866.5,-602.504 940.5,-602.504 940.5,-602.504 946.5,-602.504 952.5,-608.504 952.5,-614.504 952.5,-614.504 952.5,-626.504 952.5,-626.504 952.5,-632.504 946.5,-638.504 940.5,-638.504"/>
<text text-anchor="middle" x="903.5" y="-615.504" font-family="Times,serif" font-size="20.00" fill="#000000">176 delstd</text>
</g>
<!-- v_1_37&#45;&gt;v_1_36 -->
<g id="edge23" class="edge">
<title>v_1_37&#45;&gt;v_1_36</title>
<path fill="none" stroke="#000000" d="M854.3091,-622.58C772.4111,-624.5444 603.8794,-622.1969 470,-578.504 432.5068,-566.2677 394.2227,-542.1788 368.322,-523.8021"/>
<polygon fill="#000000" stroke="#000000" points="370.188,-520.8324 360.0321,-517.8144 366.0893,-526.507 370.188,-520.8324"/>
</g>
<!-- v_1_38 -->
<g id="node5" class="node">
<title>v_1_38</title>
<path fill="#85cbd0" stroke="#000000" d="M1258.5,-730.504C1258.5,-730.504 1201.5,-730.504 1201.5,-730.504 1195.5,-730.504 1189.5,-724.504 1189.5,-718.504 1189.5,-718.504 1189.5,-706.504 1189.5,-706.504 1189.5,-700.504 1195.5,-694.504 1201.5,-694.504 1201.5,-694.504 1258.5,-694.504 1258.5,-694.504 1264.5,-694.504 1270.5,-700.504 1270.5,-706.504 1270.5,-706.504 1270.5,-718.504 1270.5,-718.504 1270.5,-724.504 1264.5,-730.504 1258.5,-730.504"/>
<text text-anchor="middle" x="1230" y="-707.504" font-family="Times,serif" font-size="20.00" fill="#000000">176 ipol</text>
</g>
<!-- v_1_38&#45;&gt;v_1_36 -->
<g id="edge15" class="edge">
<title>v_1_38&#45;&gt;v_1_36</title>
<path fill="none" stroke="#000000" d="M1189.4243,-720.6131C1154.2912,-727.1985 1102.0238,-735.9544 1056,-739.504 795.5279,-759.5928 690.6218,-833.4158 470,-693.504 406.2564,-653.0797 365.0213,-570.0646 346.9819,-526.913"/>
<polygon fill="#000000" stroke="#000000" points="350.2006,-525.5365 343.189,-517.5937 343.717,-528.1754 350.2006,-525.5365"/>
</g>
<!-- v_1_39 -->
<g id="node6" class="node">
<title>v_1_39</title>
<path fill="#85cbd0" stroke="#000000" d="M625.5,-436.504C625.5,-436.504 559.5,-436.504 559.5,-436.504 553.5,-436.504 547.5,-430.504 547.5,-424.504 547.5,-424.504 547.5,-412.504 547.5,-412.504 547.5,-406.504 553.5,-400.504 559.5,-400.504 559.5,-400.504 625.5,-400.504 625.5,-400.504 631.5,-400.504 637.5,-406.504 637.5,-412.504 637.5,-412.504 637.5,-424.504 637.5,-424.504 637.5,-430.504 631.5,-436.504 625.5,-436.504"/>
<text text-anchor="middle" x="592.5" y="-413.504" font-family="Times,serif" font-size="20.00" fill="#000000">176 tstart</text>
</g>
<!-- v_1_39&#45;&gt;v_1_36 -->
<g id="edge67" class="edge">
<title>v_1_39&#45;&gt;v_1_36</title>
<path fill="none" stroke="#000000" d="M547.2285,-426.5998C523.9125,-431.2415 495.1691,-437.7002 470,-445.504 441.4141,-454.3672 410.3717,-466.7488 385.4205,-477.4204"/>
<polygon fill="#000000" stroke="#000000" points="383.9652,-474.2364 376.1737,-481.4158 386.7417,-480.6622 383.9652,-474.2364"/>
</g>
<!-- v_1_40 -->
<g id="node7" class="node">
<title>v_1_40</title>
<path fill="#85cbd0" stroke="#000000" d="M628,-274.504C628,-274.504 557,-274.504 557,-274.504 551,-274.504 545,-268.504 545,-262.504 545,-262.504 545,-250.504 545,-250.504 545,-244.504 551,-238.504 557,-238.504 557,-238.504 628,-238.504 628,-238.504 634,-238.504 640,-244.504 640,-250.504 640,-250.504 640,-262.504 640,-262.504 640,-268.504 634,-274.504 628,-274.504"/>
<text text-anchor="middle" x="592.5" y="-251.504" font-family="Times,serif" font-size="20.00" fill="#000000">176 pstart</text>
</g>
<!-- v_1_40&#45;&gt;v_1_36 -->
<g id="edge64" class="edge">
<title>v_1_40&#45;&gt;v_1_36</title>
<path fill="none" stroke="#000000" d="M544.7576,-258.3156C520.5059,-261.2772 491.669,-268.1299 470,-283.504 402.505,-331.3917 362.2112,-425.1974 345.5194,-471.8267"/>
<polygon fill="#000000" stroke="#000000" points="342.2066,-470.6974 342.2249,-481.2922 348.8176,-472.9984 342.2066,-470.6974"/>
</g>
<!-- v_1_41 -->
<g id="node8" class="node">
<title>v_1_41</title>
<path fill="#85cbd0" stroke="#000000" d="M623,-328.504C623,-328.504 562,-328.504 562,-328.504 556,-328.504 550,-322.504 550,-316.504 550,-316.504 550,-304.504 550,-304.504 550,-298.504 556,-292.504 562,-292.504 562,-292.504 623,-292.504 623,-292.504 629,-292.504 635,-298.504 635,-304.504 635,-304.504 635,-316.504 635,-316.504 635,-322.504 629,-328.504 623,-328.504"/>
<text text-anchor="middle" x="592.5" y="-305.504" font-family="Times,serif" font-size="20.00" fill="#000000">176 delp</text>
</g>
<!-- v_1_41&#45;&gt;v_1_36 -->
<g id="edge32" class="edge">
<title>v_1_41&#45;&gt;v_1_36</title>
<path fill="none" stroke="#000000" d="M549.947,-312.9819C525.1194,-316.0446 494.0543,-322.7812 470,-337.504 415.0716,-371.1238 372.365,-435.5186 351.1793,-472.1834"/>
<polygon fill="#000000" stroke="#000000" points="347.8963,-470.8789 346.022,-481.3067 353.99,-474.3237 347.8963,-470.8789"/>
</g>
<!-- v_1_42 -->
<g id="node9" class="node">
<title>v_1_42</title>
<path fill="#85cbd0" stroke="#000000" d="M620.5,-382.504C620.5,-382.504 564.5,-382.504 564.5,-382.504 558.5,-382.504 552.5,-376.504 552.5,-370.504 552.5,-370.504 552.5,-358.504 552.5,-358.504 552.5,-352.504 558.5,-346.504 564.5,-346.504 564.5,-346.504 620.5,-346.504 620.5,-346.504 626.5,-346.504 632.5,-352.504 632.5,-358.504 632.5,-358.504 632.5,-370.504 632.5,-370.504 632.5,-376.504 626.5,-382.504 620.5,-382.504"/>
<text text-anchor="middle" x="592.5" y="-359.504" font-family="Times,serif" font-size="20.00" fill="#000000">176 delt</text>
</g>
<!-- v_1_42&#45;&gt;v_1_36 -->
<g id="edge66" class="edge">
<title>v_1_42&#45;&gt;v_1_36</title>
<path fill="none" stroke="#000000" d="M552.352,-368.5966C527.6623,-372.2484 495.9028,-379.0372 470,-391.504 427.1544,-412.1252 385.8754,-448.9747 360.843,-473.8256"/>
<polygon fill="#000000" stroke="#000000" points="358.1656,-471.555 353.6122,-481.1215 363.1375,-476.4826 358.1656,-471.555"/>
</g>
<!-- v_1_43 -->
<g id="node10" class="node">
<title>v_1_43</title>
<path fill="#85cbd0" stroke="#000000" d="M933,-584.504C933,-584.504 874,-584.504 874,-584.504 868,-584.504 862,-578.504 862,-572.504 862,-572.504 862,-560.504 862,-560.504 862,-554.504 868,-548.504 874,-548.504 874,-548.504 933,-548.504 933,-548.504 939,-548.504 945,-554.504 945,-560.504 945,-560.504 945,-572.504 945,-572.504 945,-578.504 939,-584.504 933,-584.504"/>
<text text-anchor="middle" x="903.5" y="-561.504" font-family="Times,serif" font-size="20.00" fill="#000000">176 corr</text>
</g>
<!-- v_1_43&#45;&gt;v_1_36 -->
<g id="edge49" class="edge">
<title>v_1_43&#45;&gt;v_1_36</title>
<path fill="none" stroke="#000000" d="M861.9879,-570.0704C784.1298,-575.7045 611.2893,-583.202 470,-553.504 439.0845,-547.0058 406.1638,-533.7666 380.7493,-522.0241"/>
<polygon fill="#000000" stroke="#000000" points="381.9339,-518.7132 371.3962,-517.6142 378.9485,-525.0447 381.9339,-518.7132"/>
</g>
<!-- v_1_44 -->
<g id="node11" class="node">
<title>v_1_44</title>
<path fill="#85cbd0" stroke="#000000" d="M625,-544.504C625,-544.504 560,-544.504 560,-544.504 554,-544.504 548,-538.504 548,-532.504 548,-532.504 548,-520.504 548,-520.504 548,-514.504 554,-508.504 560,-508.504 560,-508.504 625,-508.504 625,-508.504 631,-508.504 637,-514.504 637,-520.504 637,-520.504 637,-532.504 637,-532.504 637,-538.504 631,-544.504 625,-544.504"/>
<text text-anchor="middle" x="592.5" y="-521.504" font-family="Times,serif" font-size="20.00" fill="#000000">176 tstop</text>
</g>
<!-- v_1_44&#45;&gt;v_1_36 -->
<g id="edge19" class="edge">
<title>v_1_44&#45;&gt;v_1_36</title>
<path fill="none" stroke="#000000" d="M547.9082,-521.801C519.2318,-518.7765 480.6626,-514.7087 444.3199,-510.8756"/>
<polygon fill="#000000" stroke="#000000" points="444.4505,-507.3701 434.1385,-509.8018 443.7162,-514.3315 444.4505,-507.3701"/>
</g>
<!-- v_1_45 -->
<g id="node12" class="node">
<title>v_1_45</title>
<path fill="#85cbd0" stroke="#000000" d="M622,-684.504C622,-684.504 563,-684.504 563,-684.504 557,-684.504 551,-678.504 551,-672.504 551,-672.504 551,-660.504 551,-660.504 551,-654.504 557,-648.504 563,-648.504 563,-648.504 622,-648.504 622,-648.504 628,-648.504 634,-654.504 634,-660.504 634,-660.504 634,-672.504 634,-672.504 634,-678.504 628,-684.504 622,-684.504"/>
<text text-anchor="middle" x="592.5" y="-661.504" font-family="Times,serif" font-size="20.00" fill="#000000">176 freq</text>
</g>
<!-- v_1_45&#45;&gt;v_1_36 -->
<g id="edge11" class="edge">
<title>v_1_45&#45;&gt;v_1_36</title>
<path fill="none" stroke="#000000" d="M550.8115,-658.2352C526.1412,-652.1547 494.9414,-642.3293 470,-627.504 424.2788,-600.3271 381.8313,-554.728 357.564,-525.9262"/>
<polygon fill="#000000" stroke="#000000" points="360.0021,-523.3833 350.9234,-517.9218 354.6147,-527.8528 360.0021,-523.3833"/>
</g>
<!-- v_1_46 -->
<g id="node13" class="node">
<title>v_1_46</title>
<path fill="#85cbd0" stroke="#000000" d="M627,-490.504C627,-490.504 558,-490.504 558,-490.504 552,-490.504 546,-484.504 546,-478.504 546,-478.504 546,-466.504 546,-466.504 546,-460.504 552,-454.504 558,-454.504 558,-454.504 627,-454.504 627,-454.504 633,-454.504 639,-460.504 639,-466.504 639,-466.504 639,-478.504 639,-478.504 639,-484.504 633,-490.504 627,-490.504"/>
<text text-anchor="middle" x="592.5" y="-467.504" font-family="Times,serif" font-size="20.00" fill="#000000">176 pstop</text>
</g>
<!-- v_1_46&#45;&gt;v_1_36 -->
<g id="edge41" class="edge">
<title>v_1_46&#45;&gt;v_1_36</title>
<path fill="none" stroke="#000000" d="M545.8433,-477.4248C517.3035,-480.4349 479.5515,-484.4165 443.9721,-488.1691"/>
<polygon fill="#000000" stroke="#000000" points="443.5817,-484.6907 434.004,-489.2204 444.316,-491.6521 443.5817,-484.6907"/>
</g>
<!-- v_1_49 -->
<g id="node14" class="node">
<title>v_1_49</title>
<polygon fill="#3a85b9" stroke="#000000" points="1014.5,-730.504 792.5,-730.504 792.5,-694.504 1014.5,-694.504 1014.5,-730.504"/>
<text text-anchor="middle" x="903.5" y="-707.504" font-family="Times,serif" font-size="20.00" fill="#ffffff">178 calculate_wavelength</text>
</g>
<!-- v_1_49&#45;&gt;v_1_45 -->
<g id="edge29" class="edge">
<title>v_1_49&#45;&gt;v_1_45</title>
<path fill="none" stroke="#000000" stroke-dasharray="5,2" d="M792.1003,-696.0269C741.5944,-688.5565 684.3221,-680.0854 644.1205,-674.1392"/>
<polygon fill="#000000" stroke="#000000" points="644.4303,-670.647 634.0258,-672.6461 643.406,-677.5717 644.4303,-670.647"/>
</g>
<!-- v_1_50 -->
<g id="node15" class="node">
<title>v_1_50</title>
<path fill="#85cbd0" stroke="#000000" d="M1270.5,-784.504C1270.5,-784.504 1189.5,-784.504 1189.5,-784.504 1183.5,-784.504 1177.5,-778.504 1177.5,-772.504 1177.5,-772.504 1177.5,-760.504 1177.5,-760.504 1177.5,-754.504 1183.5,-748.504 1189.5,-748.504 1189.5,-748.504 1270.5,-748.504 1270.5,-748.504 1276.5,-748.504 1282.5,-754.504 1282.5,-760.504 1282.5,-760.504 1282.5,-772.504 1282.5,-772.504 1282.5,-778.504 1276.5,-784.504 1270.5,-784.504"/>
<text text-anchor="middle" x="1230" y="-761.504" font-family="Times,serif" font-size="20.00" fill="#000000">178 waveL</text>
</g>
<!-- v_1_50&#45;&gt;v_1_49 -->
<g id="edge26" class="edge">
<title>v_1_50&#45;&gt;v_1_49</title>
<path fill="none" stroke="#000000" d="M1177.1793,-757.768C1135.469,-750.8695 1075.6529,-740.9765 1022.5743,-732.1978"/>
<polygon fill="#000000" stroke="#000000" points="1022.8395,-728.6941 1012.4024,-730.5154 1021.6972,-735.6003 1022.8395,-728.6941"/>
</g>
<!-- v_1_53 -->
<g id="node16" class="node">
<title>v_1_53</title>
<polygon fill="#3a85b9" stroke="#000000" points="1761.5,-730.504 1411.5,-730.504 1411.5,-694.504 1761.5,-694.504 1761.5,-730.504"/>
<text text-anchor="middle" x="1586.5" y="-707.504" font-family="Times,serif" font-size="20.00" fill="#ffffff">180 calculate_incident_wave_polarization</text>
</g>
<!-- v_1_53&#45;&gt;v_1_38 -->
<g id="edge44" class="edge">
<title>v_1_53&#45;&gt;v_1_38</title>
<path fill="none" stroke="#000000" stroke-dasharray="5,2" d="M1411.3832,-712.504C1363.6688,-712.504 1315.655,-712.504 1281.0231,-712.504"/>
<polygon fill="#000000" stroke="#000000" points="1280.7201,-709.0041 1270.72,-712.504 1280.72,-716.0041 1280.7201,-709.0041"/>
</g>
<!-- v_1_53&#45;&gt;v_1_50 -->
<g id="edge7" class="edge">
<title>v_1_53&#45;&gt;v_1_50</title>
<path fill="none" stroke="#000000" stroke-dasharray="5,2" d="M1467.295,-730.5603C1408.9019,-739.4053 1340.9783,-749.6938 1292.8015,-756.9913"/>
<polygon fill="#000000" stroke="#000000" points="1292.1944,-753.5432 1282.8314,-758.5015 1293.2428,-760.4643 1292.1944,-753.5432"/>
</g>
<!-- v_1_54 -->
<g id="node17" class="node">
<title>v_1_54</title>
<path fill="#85cbd0" stroke="#000000" d="M2018,-729.504C2018,-729.504 1977,-729.504 1977,-729.504 1971,-729.504 1965,-723.504 1965,-717.504 1965,-717.504 1965,-705.504 1965,-705.504 1965,-699.504 1971,-693.504 1977,-693.504 1977,-693.504 2018,-693.504 2018,-693.504 2024,-693.504 2030,-699.504 2030,-705.504 2030,-705.504 2030,-717.504 2030,-717.504 2030,-723.504 2024,-729.504 2018,-729.504"/>
<text text-anchor="middle" x="1997.5" y="-706.504" font-family="Times,serif" font-size="20.00" fill="#000000">180 et</text>
</g>
<!-- v_1_54&#45;&gt;v_1_53 -->
<g id="edge80" class="edge">
<title>v_1_54&#45;&gt;v_1_53</title>
<path fill="none" stroke="#000000" d="M1964.906,-711.5833C1922.655,-711.6861 1845.6477,-711.8735 1772.0783,-712.0525"/>
<polygon fill="#000000" stroke="#000000" points="1771.7156,-708.5532 1761.7241,-712.0777 1771.7327,-715.5532 1771.7156,-708.5532"/>
</g>
<!-- v_1_55 -->
<g id="node18" class="node">
<title>v_1_55</title>
<path fill="#85cbd0" stroke="#000000" d="M2020.5,-673.504C2020.5,-673.504 1974.5,-673.504 1974.5,-673.504 1968.5,-673.504 1962.5,-667.504 1962.5,-661.504 1962.5,-661.504 1962.5,-649.504 1962.5,-649.504 1962.5,-643.504 1968.5,-637.504 1974.5,-637.504 1974.5,-637.504 2020.5,-637.504 2020.5,-637.504 2026.5,-637.504 2032.5,-643.504 2032.5,-649.504 2032.5,-649.504 2032.5,-661.504 2032.5,-661.504 2032.5,-667.504 2026.5,-673.504 2020.5,-673.504"/>
<text text-anchor="middle" x="1997.5" y="-650.504" font-family="Times,serif" font-size="20.00" fill="#000000">180 ep</text>
</g>
<!-- v_1_55&#45;&gt;v_1_53 -->
<g id="edge63" class="edge">
<title>v_1_55&#45;&gt;v_1_53</title>
<path fill="none" stroke="#000000" d="M1962.4584,-660.3638C1910.6001,-667.5558 1810.5088,-681.4371 1726.634,-693.0694"/>
<polygon fill="#000000" stroke="#000000" points="1725.9144,-689.6356 1716.4901,-694.4762 1726.8761,-696.5692 1725.9144,-689.6356"/>
</g>
<!-- a_2 -->
<g id="node19" class="node">
<title>a_2</title>
<path fill="#ffffff" stroke="#000000" d="M412.5,-930.504C412.5,-930.504 260.5,-930.504 260.5,-930.504 254.5,-930.504 248.5,-924.504 248.5,-918.504 248.5,-918.504 248.5,-906.504 248.5,-906.504 248.5,-900.504 254.5,-894.504 260.5,-894.504 260.5,-894.504 412.5,-894.504 412.5,-894.504 418.5,-894.504 424.5,-900.504 424.5,-906.504 424.5,-906.504 424.5,-918.504 424.5,-918.504 424.5,-924.504 418.5,-930.504 412.5,-930.504"/>
<text text-anchor="middle" x="336.5" y="-907.504" font-family="Times,serif" font-size="20.00" fill="#000000">BOX/coordinates.m</text>
</g>
<!-- v_1_59 -->
<g id="node20" class="node">
<title>v_1_59</title>
<polygon fill="#3a85b9" stroke="#000000" points="715,-930.504 470,-930.504 470,-894.504 715,-894.504 715,-930.504"/>
<text text-anchor="middle" x="592.5" y="-907.504" font-family="Times,serif" font-size="20.00" fill="#ffffff">184 read_model_coordinates</text>
</g>
<!-- v_1_59&#45;&gt;a_2 -->
<g id="edge37" class="edge">
<title>v_1_59&#45;&gt;a_2</title>
<path fill="none" stroke="#000000" stroke-dasharray="5,2" d="M469.7487,-912.504C457.9381,-912.504 446.0677,-912.504 434.5409,-912.504"/>
<polygon fill="#000000" stroke="#000000" points="434.5097,-909.0041 424.5097,-912.504 434.5097,-916.0041 434.5097,-909.0041"/>
</g>
<!-- v_1_56 -->
<g id="node21" class="node">
<title>v_1_56</title>
<path fill="#85cbd0" stroke="#000000" d="M399.5,-984.504C399.5,-984.504 273.5,-984.504 273.5,-984.504 267.5,-984.504 261.5,-978.504 261.5,-972.504 261.5,-972.504 261.5,-960.504 261.5,-960.504 261.5,-954.504 267.5,-948.504 273.5,-948.504 273.5,-948.504 399.5,-948.504 399.5,-948.504 405.5,-948.504 411.5,-954.504 411.5,-960.504 411.5,-960.504 411.5,-972.504 411.5,-972.504 411.5,-978.504 405.5,-984.504 399.5,-984.504"/>
<text text-anchor="middle" x="336.5" y="-961.504" font-family="Times,serif" font-size="20.00" fill="#000000">182 input_model</text>
</g>
<!-- v_1_59&#45;&gt;v_1_56 -->
<g id="edge61" class="edge">
<title>v_1_59&#45;&gt;v_1_56</title>
<path fill="none" stroke="#000000" stroke-dasharray="5,2" d="M506.8998,-930.5603C479.4552,-936.3494 449.0789,-942.7569 421.6655,-948.5394"/>
<polygon fill="#000000" stroke="#000000" points="420.773,-945.1506 411.7108,-950.6392 422.2179,-951.9998 420.773,-945.1506"/>
</g>
<!-- v_1_60 -->
<g id="node22" class="node">
<title>v_1_60</title>
<path fill="#85cbd0" stroke="#000000" d="M933,-984.504C933,-984.504 874,-984.504 874,-984.504 868,-984.504 862,-978.504 862,-972.504 862,-972.504 862,-960.504 862,-960.504 862,-954.504 868,-948.504 874,-948.504 874,-948.504 933,-948.504 933,-948.504 939,-948.504 945,-954.504 945,-960.504 945,-960.504 945,-972.504 945,-972.504 945,-978.504 939,-984.504 933,-984.504"/>
<text text-anchor="middle" x="903.5" y="-961.504" font-family="Times,serif" font-size="20.00" fill="#000000">184 ypts</text>
</g>
<!-- v_1_60&#45;&gt;v_1_59 -->
<g id="edge43" class="edge">
<title>v_1_60&#45;&gt;v_1_59</title>
<path fill="none" stroke="#000000" d="M861.8799,-959.2774C822.224,-952.3918 760.6949,-941.7083 706.447,-932.289"/>
<polygon fill="#000000" stroke="#000000" points="706.8607,-928.8086 696.4094,-930.5461 705.6632,-935.7054 706.8607,-928.8086"/>
</g>
<!-- v_1_61 -->
<g id="node23" class="node">
<title>v_1_61</title>
<path fill="#85cbd0" stroke="#000000" d="M941,-930.504C941,-930.504 866,-930.504 866,-930.504 860,-930.504 854,-924.504 854,-918.504 854,-918.504 854,-906.504 854,-906.504 854,-900.504 860,-894.504 866,-894.504 866,-894.504 941,-894.504 941,-894.504 947,-894.504 953,-900.504 953,-906.504 953,-906.504 953,-918.504 953,-918.504 953,-924.504 947,-930.504 941,-930.504"/>
<text text-anchor="middle" x="903.5" y="-907.504" font-family="Times,serif" font-size="20.00" fill="#000000">184 nverts</text>
</g>
<!-- v_1_61&#45;&gt;v_1_59 -->
<g id="edge59" class="edge">
<title>v_1_61&#45;&gt;v_1_59</title>
<path fill="none" stroke="#000000" d="M853.8772,-912.504C819.1207,-912.504 770.9247,-912.504 725.3752,-912.504"/>
<polygon fill="#000000" stroke="#000000" points="725.0928,-909.0041 715.0928,-912.504 725.0928,-916.0041 725.0928,-909.0041"/>
</g>
<!-- v_1_62 -->
<g id="node24" class="node">
<title>v_1_62</title>
<path fill="#85cbd0" stroke="#000000" d="M933,-876.504C933,-876.504 874,-876.504 874,-876.504 868,-876.504 862,-870.504 862,-864.504 862,-864.504 862,-852.504 862,-852.504 862,-846.504 868,-840.504 874,-840.504 874,-840.504 933,-840.504 933,-840.504 939,-840.504 945,-846.504 945,-852.504 945,-852.504 945,-864.504 945,-864.504 945,-870.504 939,-876.504 933,-876.504"/>
<text text-anchor="middle" x="903.5" y="-853.504" font-family="Times,serif" font-size="20.00" fill="#000000">184 xpts</text>
</g>
<!-- v_1_62&#45;&gt;v_1_59 -->
<g id="edge21" class="edge">
<title>v_1_62&#45;&gt;v_1_59</title>
<path fill="none" stroke="#000000" d="M861.8799,-865.7307C822.224,-872.6162 760.6949,-883.2997 706.447,-892.719"/>
<polygon fill="#000000" stroke="#000000" points="705.6632,-889.3026 696.4094,-894.4619 706.8607,-896.1994 705.6632,-889.3026"/>
</g>
<!-- v_1_63 -->
<g id="node25" class="node">
<title>v_1_63</title>
<path fill="#85cbd0" stroke="#000000" d="M933,-822.504C933,-822.504 874,-822.504 874,-822.504 868,-822.504 862,-816.504 862,-810.504 862,-810.504 862,-798.504 862,-798.504 862,-792.504 868,-786.504 874,-786.504 874,-786.504 933,-786.504 933,-786.504 939,-786.504 945,-792.504 945,-798.504 945,-798.504 945,-810.504 945,-810.504 945,-816.504 939,-822.504 933,-822.504"/>
<text text-anchor="middle" x="903.5" y="-799.504" font-family="Times,serif" font-size="20.00" fill="#000000">184 zpts</text>
</g>
<!-- v_1_63&#45;&gt;v_1_59 -->
<g id="edge10" class="edge">
<title>v_1_63&#45;&gt;v_1_59</title>
<path fill="none" stroke="#000000" d="M861.898,-808.4904C830.7631,-812.2783 787.4505,-819.2693 751,-831.504 707.6709,-846.0476 661.5034,-870.8225 630.2396,-889.1525"/>
<polygon fill="#000000" stroke="#000000" points="628.2487,-886.2639 621.4339,-894.3762 631.8202,-892.2843 628.2487,-886.2639"/>
</g>
<!-- a_3 -->
<g id="node26" class="node">
<title>a_3</title>
<path fill="#ffffff" stroke="#000000" d="M390,-1038.504C390,-1038.504 283,-1038.504 283,-1038.504 277,-1038.504 271,-1032.504 271,-1026.504 271,-1026.504 271,-1014.504 271,-1014.504 271,-1008.504 277,-1002.504 283,-1002.504 283,-1002.504 390,-1002.504 390,-1002.504 396,-1002.504 402,-1008.504 402,-1014.504 402,-1014.504 402,-1026.504 402,-1026.504 402,-1032.504 396,-1038.504 390,-1038.504"/>
<text text-anchor="middle" x="336.5" y="-1015.504" font-family="Times,serif" font-size="20.00" fill="#000000">BOX/facets.m</text>
</g>
<!-- v_1_66 -->
<g id="node27" class="node">
<title>v_1_66</title>
<polygon fill="#3a85b9" stroke="#000000" points="693,-1038.504 492,-1038.504 492,-1002.504 693,-1002.504 693,-1038.504"/>
<text text-anchor="middle" x="592.5" y="-1015.504" font-family="Times,serif" font-size="20.00" fill="#ffffff">186 read_facets_model</text>
</g>
<!-- v_1_66&#45;&gt;v_1_56 -->
<g id="edge46" class="edge">
<title>v_1_66&#45;&gt;v_1_56</title>
<path fill="none" stroke="#000000" stroke-dasharray="5,2" d="M506.8998,-1002.4477C479.4552,-996.6586 449.0789,-990.2511 421.6655,-984.4686"/>
<polygon fill="#000000" stroke="#000000" points="422.2179,-981.0082 411.7108,-982.3688 420.773,-987.8575 422.2179,-981.0082"/>
</g>
<!-- v_1_66&#45;&gt;a_3 -->
<g id="edge83" class="edge">
<title>v_1_66&#45;&gt;a_3</title>
<path fill="none" stroke="#000000" stroke-dasharray="5,2" d="M491.6895,-1020.504C465.2497,-1020.504 437.1873,-1020.504 412.3015,-1020.504"/>
<polygon fill="#000000" stroke="#000000" points="412.2088,-1017.0041 402.2088,-1020.504 412.2088,-1024.0041 412.2088,-1017.0041"/>
</g>
<!-- v_1_67 -->
<g id="node28" class="node">
<title>v_1_67</title>
<path fill="#85cbd0" stroke="#000000" d="M940.5,-1038.504C940.5,-1038.504 866.5,-1038.504 866.5,-1038.504 860.5,-1038.504 854.5,-1032.504 854.5,-1026.504 854.5,-1026.504 854.5,-1014.504 854.5,-1014.504 854.5,-1008.504 860.5,-1002.504 866.5,-1002.504 866.5,-1002.504 940.5,-1002.504 940.5,-1002.504 946.5,-1002.504 952.5,-1008.504 952.5,-1014.504 952.5,-1014.504 952.5,-1026.504 952.5,-1026.504 952.5,-1032.504 946.5,-1038.504 940.5,-1038.504"/>
<text text-anchor="middle" x="903.5" y="-1015.504" font-family="Times,serif" font-size="20.00" fill="#000000">186 facets</text>
</g>
<!-- v_1_67&#45;&gt;v_1_66 -->
<g id="edge55" class="edge">
<title>v_1_67&#45;&gt;v_1_66</title>
<path fill="none" stroke="#000000" d="M854.2211,-1020.504C813.7571,-1020.504 754.9113,-1020.504 703.2628,-1020.504"/>
<polygon fill="#000000" stroke="#000000" points="703.0366,-1017.0041 693.0366,-1020.504 703.0366,-1024.0041 703.0366,-1017.0041"/>
</g>
<!-- v_1_71 -->
<g id="node29" class="node">
<title>v_1_71</title>
<polygon fill="#3a85b9" stroke="#000000" points="1362,-1038.504 1098,-1038.504 1098,-1002.504 1362,-1002.504 1362,-1038.504"/>
<text text-anchor="middle" x="1230" y="-1015.504" font-family="Times,serif" font-size="20.00" fill="#ffffff">188 generate_transpose_matrix</text>
</g>
<!-- v_1_71&#45;&gt;v_1_67 -->
<g id="edge62" class="edge">
<title>v_1_71&#45;&gt;v_1_67</title>
<path fill="none" stroke="#000000" stroke-dasharray="5,2" d="M1097.6706,-1020.504C1050.975,-1020.504 1000.776,-1020.504 963.1191,-1020.504"/>
<polygon fill="#000000" stroke="#000000" points="962.8439,-1017.0041 952.8438,-1020.504 962.8438,-1024.0041 962.8439,-1017.0041"/>
</g>
<!-- v_1_72 -->
<g id="node30" class="node">
<title>v_1_72</title>
<path fill="#85cbd0" stroke="#000000" d="M1624,-1092.504C1624,-1092.504 1549,-1092.504 1549,-1092.504 1543,-1092.504 1537,-1086.504 1537,-1080.504 1537,-1080.504 1537,-1068.504 1537,-1068.504 1537,-1062.504 1543,-1056.504 1549,-1056.504 1549,-1056.504 1624,-1056.504 1624,-1056.504 1630,-1056.504 1636,-1062.504 1636,-1068.504 1636,-1068.504 1636,-1080.504 1636,-1080.504 1636,-1086.504 1630,-1092.504 1624,-1092.504"/>
<text text-anchor="middle" x="1586.5" y="-1069.504" font-family="Times,serif" font-size="20.00" fill="#000000">188 node1</text>
</g>
<!-- v_1_72&#45;&gt;v_1_71 -->
<g id="edge1" class="edge">
<title>v_1_72&#45;&gt;v_1_71</title>
<path fill="none" stroke="#000000" d="M1536.9126,-1067.2644C1500.2005,-1061.881 1448.9675,-1054.3191 1404,-1047.504 1388.3564,-1045.1331 1371.9259,-1042.6172 1355.6661,-1040.1119"/>
<polygon fill="#000000" stroke="#000000" points="1355.9896,-1036.6205 1345.5728,-1038.5548 1354.9222,-1043.5386 1355.9896,-1036.6205"/>
</g>
<!-- v_1_73 -->
<g id="node31" class="node">
<title>v_1_73</title>
<path fill="#85cbd0" stroke="#000000" d="M1624,-1038.504C1624,-1038.504 1549,-1038.504 1549,-1038.504 1543,-1038.504 1537,-1032.504 1537,-1026.504 1537,-1026.504 1537,-1014.504 1537,-1014.504 1537,-1008.504 1543,-1002.504 1549,-1002.504 1549,-1002.504 1624,-1002.504 1624,-1002.504 1630,-1002.504 1636,-1008.504 1636,-1014.504 1636,-1014.504 1636,-1026.504 1636,-1026.504 1636,-1032.504 1630,-1038.504 1624,-1038.504"/>
<text text-anchor="middle" x="1586.5" y="-1015.504" font-family="Times,serif" font-size="20.00" fill="#000000">188 node3</text>
</g>
<!-- v_1_73&#45;&gt;v_1_71 -->
<g id="edge73" class="edge">
<title>v_1_73&#45;&gt;v_1_71</title>
<path fill="none" stroke="#000000" d="M1536.9302,-1020.504C1494.2476,-1020.504 1430.4873,-1020.504 1372.1213,-1020.504"/>
<polygon fill="#000000" stroke="#000000" points="1372.051,-1017.0041 1362.0509,-1020.504 1372.0509,-1024.0041 1372.051,-1017.0041"/>
</g>
<!-- v_1_74 -->
<g id="node32" class="node">
<title>v_1_74</title>
<path fill="#85cbd0" stroke="#000000" d="M1624,-984.504C1624,-984.504 1549,-984.504 1549,-984.504 1543,-984.504 1537,-978.504 1537,-972.504 1537,-972.504 1537,-960.504 1537,-960.504 1537,-954.504 1543,-948.504 1549,-948.504 1549,-948.504 1624,-948.504 1624,-948.504 1630,-948.504 1636,-954.504 1636,-960.504 1636,-960.504 1636,-972.504 1636,-972.504 1636,-978.504 1630,-984.504 1624,-984.504"/>
<text text-anchor="middle" x="1586.5" y="-961.504" font-family="Times,serif" font-size="20.00" fill="#000000">188 node2</text>
</g>
<!-- v_1_74&#45;&gt;v_1_71 -->
<g id="edge53" class="edge">
<title>v_1_74&#45;&gt;v_1_71</title>
<path fill="none" stroke="#000000" d="M1536.9126,-973.7436C1500.2005,-979.127 1448.9675,-986.6889 1404,-993.504 1388.3564,-995.8749 1371.9259,-998.3908 1355.6661,-1000.8961"/>
<polygon fill="#000000" stroke="#000000" points="1354.9222,-997.4694 1345.5728,-1002.4532 1355.9896,-1004.3875 1354.9222,-997.4694"/>
</g>
<!-- v_1_80 -->
<g id="node33" class="node">
<title>v_1_80</title>
<polygon fill="#3a85b9" stroke="#000000" points="1368,-930.504 1092,-930.504 1092,-894.504 1368,-894.504 1368,-930.504"/>
<text text-anchor="middle" x="1230" y="-907.504" font-family="Times,serif" font-size="20.00" fill="#ffffff">190 generate_coordinates_points</text>
</g>
<!-- v_1_80&#45;&gt;v_1_60 -->
<g id="edge6" class="edge">
<title>v_1_80&#45;&gt;v_1_60</title>
<path fill="none" stroke="#000000" stroke-dasharray="5,2" d="M1120.8263,-930.5603C1064.9309,-939.8049 999.5005,-950.6264 955.1497,-957.9616"/>
<polygon fill="#000000" stroke="#000000" points="954.4786,-954.525 945.1837,-959.6099 955.6208,-961.4312 954.4786,-954.525"/>
</g>
<!-- v_1_80&#45;&gt;v_1_61 -->
<g id="edge24" class="edge">
<title>v_1_80&#45;&gt;v_1_61</title>
<path fill="none" stroke="#000000" stroke-dasharray="5,2" d="M1091.5346,-912.504C1046.7672,-912.504 999.4539,-912.504 963.4862,-912.504"/>
<polygon fill="#000000" stroke="#000000" points="963.1799,-909.0041 953.1799,-912.504 963.1798,-916.0041 963.1799,-909.0041"/>
</g>
<!-- v_1_80&#45;&gt;v_1_62 -->
<g id="edge76" class="edge">
<title>v_1_80&#45;&gt;v_1_62</title>
<path fill="none" stroke="#000000" stroke-dasharray="5,2" d="M1120.8263,-894.4477C1064.9309,-885.2031 999.5005,-874.3816 955.1497,-867.0464"/>
<polygon fill="#000000" stroke="#000000" points="955.6208,-863.5768 945.1837,-865.3981 954.4786,-870.483 955.6208,-863.5768"/>
</g>
<!-- v_1_80&#45;&gt;v_1_63 -->
<g id="edge34" class="edge">
<title>v_1_80&#45;&gt;v_1_63</title>
<path fill="none" stroke="#000000" stroke-dasharray="5,2" d="M1197.9879,-894.498C1163.831,-876.0358 1107.6403,-847.7876 1056,-831.504 1023.3129,-821.1969 985.3674,-814.46 955.5045,-810.2933"/>
<polygon fill="#000000" stroke="#000000" points="955.677,-806.7852 945.3006,-808.9251 954.7467,-813.7231 955.677,-806.7852"/>
</g>
<!-- v_1_81 -->
<g id="node34" class="node">
<title>v_1_81</title>
<path fill="#85cbd0" stroke="#000000" d="M1623.5,-930.504C1623.5,-930.504 1549.5,-930.504 1549.5,-930.504 1543.5,-930.504 1537.5,-924.504 1537.5,-918.504 1537.5,-918.504 1537.5,-906.504 1537.5,-906.504 1537.5,-900.504 1543.5,-894.504 1549.5,-894.504 1549.5,-894.504 1623.5,-894.504 1623.5,-894.504 1629.5,-894.504 1635.5,-900.504 1635.5,-906.504 1635.5,-906.504 1635.5,-918.504 1635.5,-918.504 1635.5,-924.504 1629.5,-930.504 1623.5,-930.504"/>
<text text-anchor="middle" x="1586.5" y="-907.504" font-family="Times,serif" font-size="20.00" fill="#000000">190 points</text>
</g>
<!-- v_1_81&#45;&gt;v_1_80 -->
<g id="edge3" class="edge">
<title>v_1_81&#45;&gt;v_1_80</title>
<path fill="none" stroke="#000000" d="M1537.3045,-912.504C1496.1308,-912.504 1435.1564,-912.504 1378.3521,-912.504"/>
<polygon fill="#000000" stroke="#000000" points="1378.1705,-909.0041 1368.1705,-912.504 1378.1705,-916.0041 1378.1705,-909.0041"/>
</g>
<!-- a_6 -->
<g id="node35" class="node">
<title>a_6</title>
<path fill="#ffffff" stroke="#000000" d="M2659,-1011.504C2659,-1011.504 2285,-1011.504 2285,-1011.504 2279,-1011.504 2273,-1005.504 2273,-999.504 2273,-999.504 2273,-987.504 2273,-987.504 2273,-981.504 2279,-975.504 2285,-975.504 2285,-975.504 2659,-975.504 2659,-975.504 2665,-975.504 2671,-981.504 2671,-987.504 2671,-987.504 2671,-999.504 2671,-999.504 2671,-1005.504 2665,-1011.504 2659,-1011.504"/>
<text text-anchor="middle" x="2472" y="-988.504" font-family="Times,serif" font-size="20.00" fill="#000000">plot_modular_pypofacets_20180324011446.png</text>
</g>
<!-- v_1_87 -->
<g id="node36" class="node">
<title>v_1_87</title>
<polygon fill="#3a85b9" stroke="#000000" points="2067.5,-1011.504 1927.5,-1011.504 1927.5,-975.504 2067.5,-975.504 2067.5,-1011.504"/>
<text text-anchor="middle" x="1997.5" y="-988.504" font-family="Times,serif" font-size="20.00" fill="#ffffff">192 plot_model</text>
</g>
<!-- a_6&#45;&gt;v_1_87 -->
<g id="edge5" class="edge">
<title>a_6&#45;&gt;v_1_87</title>
<path fill="none" stroke="#000000" stroke-dasharray="5,2" d="M2272.8317,-993.504C2204.2124,-993.504 2131.2291,-993.504 2077.656,-993.504"/>
<polygon fill="#000000" stroke="#000000" points="2077.546,-990.0041 2067.546,-993.504 2077.546,-997.0041 2077.546,-990.0041"/>
</g>
<!-- v_1_87&#45;&gt;v_1_72 -->
<g id="edge14" class="edge">
<title>v_1_87&#45;&gt;v_1_72</title>
<path fill="none" stroke="#000000" stroke-dasharray="5,2" d="M1928.0796,-1011.5344C1882.9603,-1022.8499 1822.7448,-1037.1972 1769,-1047.504 1728.346,-1055.3004 1682.2257,-1062.1063 1646.5201,-1066.9348"/>
<polygon fill="#000000" stroke="#000000" points="1645.714,-1063.5114 1636.2661,-1068.306 1646.6418,-1070.4496 1645.714,-1063.5114"/>
</g>
<!-- v_1_87&#45;&gt;v_1_73 -->
<g id="edge31" class="edge">
<title>v_1_87&#45;&gt;v_1_73</title>
<path fill="none" stroke="#000000" stroke-dasharray="5,2" d="M1927.3136,-998.1148C1848.1555,-1003.315 1720.7774,-1011.6829 1646.2081,-1016.5816"/>
<polygon fill="#000000" stroke="#000000" points="1645.7961,-1013.101 1636.0471,-1017.2491 1646.255,-1020.0859 1645.7961,-1013.101"/>
</g>
<!-- v_1_87&#45;&gt;v_1_74 -->
<g id="edge16" class="edge">
<title>v_1_87&#45;&gt;v_1_74</title>
<path fill="none" stroke="#000000" stroke-dasharray="5,2" d="M1927.3136,-988.8932C1848.1555,-983.693 1720.7774,-975.3251 1646.2081,-970.4264"/>
<polygon fill="#000000" stroke="#000000" points="1646.255,-966.9221 1636.0471,-969.7589 1645.7961,-973.907 1646.255,-966.9221"/>
</g>
<!-- v_1_87&#45;&gt;v_1_81 -->
<g id="edge58" class="edge">
<title>v_1_87&#45;&gt;v_1_81</title>
<path fill="none" stroke="#000000" stroke-dasharray="5,2" d="M1928.0796,-975.4736C1882.9603,-964.1581 1822.7448,-949.8108 1769,-939.504 1728.2028,-931.6802 1681.9008,-924.8537 1646.1433,-920.0222"/>
<polygon fill="#000000" stroke="#000000" points="1646.2534,-916.5059 1635.8779,-918.6507 1645.3263,-923.4443 1646.2534,-916.5059"/>
</g>
<!-- v_1_90 -->
<g id="node37" class="node">
<title>v_1_90</title>
<polygon fill="#3a85b9" stroke="#000000" points="1056,-373.504 751,-373.504 751,-337.504 1056,-337.504 1056,-373.504"/>
<text text-anchor="middle" x="903.5" y="-350.504" font-family="Times,serif" font-size="20.00" fill="#ffffff">194 calculate_refs_geometry_model</text>
</g>
<!-- v_1_90&#45;&gt;v_1_39 -->
<g id="edge20" class="edge">
<title>v_1_90&#45;&gt;v_1_39</title>
<path fill="none" stroke="#000000" stroke-dasharray="5,2" d="M814.3799,-373.5573C760.5344,-384.4649 693.6162,-398.0207 647.4291,-407.3769"/>
<polygon fill="#000000" stroke="#000000" points="646.7164,-403.9501 637.6104,-409.3659 648.1062,-410.8107 646.7164,-403.9501"/>
</g>
<!-- v_1_90&#45;&gt;v_1_40 -->
<g id="edge50" class="edge">
<title>v_1_90&#45;&gt;v_1_40</title>
<path fill="none" stroke="#000000" stroke-dasharray="5,2" d="M861.4473,-337.3825C823.6489,-321.5922 766.3466,-298.8769 715,-283.504 694.0231,-277.2236 670.627,-271.7116 649.9479,-267.3331"/>
<polygon fill="#000000" stroke="#000000" points="650.5398,-263.8815 640.0372,-265.2764 649.1173,-270.7354 650.5398,-263.8815"/>
</g>
<!-- v_1_90&#45;&gt;v_1_41 -->
<g id="edge68" class="edge">
<title>v_1_90&#45;&gt;v_1_41</title>
<path fill="none" stroke="#000000" stroke-dasharray="5,2" d="M778.7964,-337.4601C732.1474,-330.7102 681.6464,-323.403 645.0074,-318.1015"/>
<polygon fill="#000000" stroke="#000000" points="645.4537,-314.6298 635.0556,-316.6616 644.4513,-321.5576 645.4537,-314.6298"/>
</g>
<!-- v_1_90&#45;&gt;v_1_42 -->
<g id="edge48" class="edge">
<title>v_1_90&#45;&gt;v_1_42</title>
<path fill="none" stroke="#000000" stroke-dasharray="5,2" d="M750.7333,-359.9249C711.7081,-361.0542 672.4534,-362.1902 642.8049,-363.0482"/>
<polygon fill="#000000" stroke="#000000" points="642.6291,-359.5518 632.7346,-363.3397 642.8317,-366.5488 642.6291,-359.5518"/>
</g>
<!-- v_1_90&#45;&gt;v_1_44 -->
<g id="edge40" class="edge">
<title>v_1_90&#45;&gt;v_1_44</title>
<path fill="none" stroke="#000000" stroke-dasharray="5,2" d="M885.53,-373.6861C853.9656,-404.5241 785.2236,-466.9022 715,-499.504 693.8551,-509.3207 668.9746,-515.6486 647.1797,-519.689"/>
<polygon fill="#000000" stroke="#000000" points="646.338,-516.2826 637.0839,-521.4412 647.5352,-523.1795 646.338,-516.2826"/>
</g>
<!-- v_1_90&#45;&gt;v_1_46 -->
<g id="edge39" class="edge">
<title>v_1_90&#45;&gt;v_1_46</title>
<path fill="none" stroke="#000000" stroke-dasharray="5,2" d="M871.4277,-373.6141C834.6617,-393.7048 772.099,-425.87 715,-445.504 693.9391,-452.746 670.1562,-458.5107 649.187,-462.8226"/>
<polygon fill="#000000" stroke="#000000" points="648.2671,-459.437 639.1433,-464.8228 649.6343,-466.3022 648.2671,-459.437"/>
</g>
<!-- v_1_91 -->
<g id="node38" class="node">
<title>v_1_91</title>
<path fill="#85cbd0" stroke="#000000" d="M1251,-216.504C1251,-216.504 1209,-216.504 1209,-216.504 1203,-216.504 1197,-210.504 1197,-204.504 1197,-204.504 1197,-192.504 1197,-192.504 1197,-186.504 1203,-180.504 1209,-180.504 1209,-180.504 1251,-180.504 1251,-180.504 1257,-180.504 1263,-186.504 1263,-192.504 1263,-192.504 1263,-204.504 1263,-204.504 1263,-210.504 1257,-216.504 1251,-216.504"/>
<text text-anchor="middle" x="1230" y="-193.504" font-family="Times,serif" font-size="20.00" fill="#000000">194 ip</text>
</g>
<!-- v_1_91&#45;&gt;v_1_90 -->
<g id="edge45" class="edge">
<title>v_1_91&#45;&gt;v_1_90</title>
<path fill="none" stroke="#000000" d="M1196.7487,-196.577C1166.2322,-196.5886 1121.424,-201.3257 1092,-225.504 1059.3513,-252.332 1087.6124,-285.4623 1056,-313.504 1046.9319,-321.5479 1036.457,-328.0665 1025.3302,-333.3467"/>
<polygon fill="#000000" stroke="#000000" points="1023.6046,-330.2813 1015.8468,-337.497 1026.4112,-336.694 1023.6046,-330.2813"/>
</g>
<!-- v_1_92 -->
<g id="node39" class="node">
<title>v_1_92</title>
<path fill="#85cbd0" stroke="#000000" d="M1249,-270.504C1249,-270.504 1211,-270.504 1211,-270.504 1205,-270.504 1199,-264.504 1199,-258.504 1199,-258.504 1199,-246.504 1199,-246.504 1199,-240.504 1205,-234.504 1211,-234.504 1211,-234.504 1249,-234.504 1249,-234.504 1255,-234.504 1261,-240.504 1261,-246.504 1261,-246.504 1261,-258.504 1261,-258.504 1261,-264.504 1255,-270.504 1249,-270.504"/>
<text text-anchor="middle" x="1230" y="-247.504" font-family="Times,serif" font-size="20.00" fill="#000000">194 it</text>
</g>
<!-- v_1_92&#45;&gt;v_1_90 -->
<g id="edge56" class="edge">
<title>v_1_92&#45;&gt;v_1_90</title>
<path fill="none" stroke="#000000" d="M1198.7826,-253.6717C1169.7033,-255.8702 1125.8671,-262.0861 1092,-279.504 1072.4288,-289.5695 1075.1772,-302.7067 1056,-313.504 1040.8974,-322.0072 1023.9725,-328.8704 1007.0418,-334.3856"/>
<polygon fill="#000000" stroke="#000000" points="1005.5972,-331.1693 997.0863,-337.4792 1007.6745,-337.854 1005.5972,-331.1693"/>
</g>
<!-- v_1_93 -->
<g id="node40" class="node">
<title>v_1_93</title>
<path fill="#85cbd0" stroke="#000000" d="M1258,-378.504C1258,-378.504 1202,-378.504 1202,-378.504 1196,-378.504 1190,-372.504 1190,-366.504 1190,-366.504 1190,-354.504 1190,-354.504 1190,-348.504 1196,-342.504 1202,-342.504 1202,-342.504 1258,-342.504 1258,-342.504 1264,-342.504 1270,-348.504 1270,-354.504 1270,-354.504 1270,-366.504 1270,-366.504 1270,-372.504 1264,-378.504 1258,-378.504"/>
<text text-anchor="middle" x="1230" y="-355.504" font-family="Times,serif" font-size="20.00" fill="#000000">194 delt</text>
</g>
<!-- v_1_93&#45;&gt;v_1_90 -->
<g id="edge79" class="edge">
<title>v_1_93&#45;&gt;v_1_90</title>
<path fill="none" stroke="#000000" d="M1189.9647,-359.8909C1158.4741,-359.4087 1112.3597,-358.7025 1066.2937,-357.997"/>
<polygon fill="#000000" stroke="#000000" points="1066.2124,-354.4955 1056.1599,-357.8418 1066.1051,-361.4946 1066.2124,-354.4955"/>
</g>
<!-- v_1_94 -->
<g id="node41" class="node">
<title>v_1_94</title>
<path fill="#85cbd0" stroke="#000000" d="M1260.5,-324.504C1260.5,-324.504 1199.5,-324.504 1199.5,-324.504 1193.5,-324.504 1187.5,-318.504 1187.5,-312.504 1187.5,-312.504 1187.5,-300.504 1187.5,-300.504 1187.5,-294.504 1193.5,-288.504 1199.5,-288.504 1199.5,-288.504 1260.5,-288.504 1260.5,-288.504 1266.5,-288.504 1272.5,-294.504 1272.5,-300.504 1272.5,-300.504 1272.5,-312.504 1272.5,-312.504 1272.5,-318.504 1266.5,-324.504 1260.5,-324.504"/>
<text text-anchor="middle" x="1230" y="-301.504" font-family="Times,serif" font-size="20.00" fill="#000000">194 delp</text>
</g>
<!-- v_1_94&#45;&gt;v_1_90 -->
<g id="edge69" class="edge">
<title>v_1_94&#45;&gt;v_1_90</title>
<path fill="none" stroke="#000000" d="M1187.3158,-312.9099C1148.2614,-318.771 1088.4073,-327.7538 1033.7157,-335.9617"/>
<polygon fill="#000000" stroke="#000000" points="1032.9396,-332.5389 1023.5698,-337.4843 1033.9785,-339.4613 1032.9396,-332.5389"/>
</g>
<!-- a_7 -->
<g id="node42" class="node">
<title>a_7</title>
<path fill="#ffffff" stroke="#000000" d="M2174,-562.504C2174,-562.504 1821,-562.504 1821,-562.504 1815,-562.504 1809,-556.504 1809,-550.504 1809,-550.504 1809,-538.504 1809,-538.504 1809,-532.504 1815,-526.504 1821,-526.504 1821,-526.504 2174,-526.504 2174,-526.504 2180,-526.504 2186,-532.504 2186,-538.504 2186,-538.504 2186,-550.504 2186,-550.504 2186,-556.504 2180,-562.504 2174,-562.504"/>
<text text-anchor="middle" x="1997.5" y="-539.504" font-family="Times,serif" font-size="20.00" fill="#000000">R_modular_pypofacets_20180324011447.dat</text>
</g>
<!-- v_1_97 -->
<g id="node44" class="node">
<title>v_1_97</title>
<polygon fill="#3a85b9" stroke="#000000" points="1671.5,-523.504 1501.5,-523.504 1501.5,-487.504 1671.5,-487.504 1671.5,-523.504"/>
<text text-anchor="middle" x="1586.5" y="-500.504" font-family="Times,serif" font-size="20.00" fill="#ffffff">196 prepare_output</text>
</g>
<!-- a_7&#45;&gt;v_1_97 -->
<g id="edge13" class="edge">
<title>a_7&#45;&gt;v_1_97</title>
<path fill="none" stroke="#000000" stroke-dasharray="5,2" d="M1808.8406,-526.602C1764.7705,-522.4202 1719.6605,-518.1397 1681.6909,-514.5367"/>
<polygon fill="#000000" stroke="#000000" points="1681.9746,-511.048 1671.6887,-513.5876 1681.3133,-518.0167 1681.9746,-511.048"/>
</g>
<!-- a_8 -->
<g id="node43" class="node">
<title>a_8</title>
<path fill="#ffffff" stroke="#000000" d="M2178,-508.504C2178,-508.504 1817,-508.504 1817,-508.504 1811,-508.504 1805,-502.504 1805,-496.504 1805,-496.504 1805,-484.504 1805,-484.504 1805,-478.504 1811,-472.504 1817,-472.504 1817,-472.504 2178,-472.504 2178,-472.504 2184,-472.504 2190,-478.504 2190,-484.504 2190,-484.504 2190,-496.504 2190,-496.504 2190,-502.504 2184,-508.504 2178,-508.504"/>
<text text-anchor="middle" x="1997.5" y="-485.504" font-family="Times,serif" font-size="20.00" fill="#000000">E0_modular_pypofacets_20180324011447.dat</text>
</g>
<!-- a_8&#45;&gt;v_1_97 -->
<g id="edge12" class="edge">
<title>a_8&#45;&gt;v_1_97</title>
<path fill="none" stroke="#000000" stroke-dasharray="5,2" d="M1804.9365,-497.5319C1762.1966,-499.0917 1718.7075,-500.6789 1681.9034,-502.0221"/>
<polygon fill="#000000" stroke="#000000" points="1681.5719,-498.5318 1671.7062,-502.3943 1681.8273,-505.5271 1681.5719,-498.5318"/>
</g>
<!-- v_1_97&#45;&gt;v_1_37 -->
<g id="edge38" class="edge">
<title>v_1_97&#45;&gt;v_1_37</title>
<path fill="none" stroke="#000000" stroke-dasharray="5,2" d="M1521.4243,-523.6105C1478.1949,-535.1368 1420.0296,-549.6901 1368,-559.504 1223.463,-586.7667 1051.3399,-605.9519 962.7298,-614.8673"/>
<polygon fill="#000000" stroke="#000000" points="962.2072,-611.4019 952.6043,-615.8778 962.9024,-618.3673 962.2072,-611.4019"/>
</g>
<!-- v_1_97&#45;&gt;v_1_38 -->
<g id="edge72" class="edge">
<title>v_1_97&#45;&gt;v_1_38</title>
<path fill="none" stroke="#000000" stroke-dasharray="5,2" d="M1569.719,-523.5327C1535.4145,-559.2571 1453.2719,-639.1469 1368,-680.504 1340.6274,-693.7798 1307.4877,-701.6973 1280.545,-706.335"/>
<polygon fill="#000000" stroke="#000000" points="1279.8581,-702.9006 1270.5473,-707.9563 1280.9786,-709.8104 1279.8581,-702.9006"/>
</g>
<!-- v_1_97&#45;&gt;v_1_39 -->
<g id="edge52" class="edge">
<title>v_1_97&#45;&gt;v_1_39</title>
<path fill="none" stroke="#000000" stroke-dasharray="5,2" d="M1501.3224,-498.0488C1302.6743,-480.6621 813.0687,-437.8093 647.9221,-423.3548"/>
<polygon fill="#000000" stroke="#000000" points="647.787,-419.8297 637.5199,-422.4444 647.1766,-426.8031 647.787,-419.8297"/>
</g>
<!-- v_1_97&#45;&gt;v_1_40 -->
<g id="edge17" class="edge">
<title>v_1_97&#45;&gt;v_1_40</title>
<path fill="none" stroke="#000000" stroke-dasharray="5,2" d="M1503.6438,-487.4718C1367.2557,-457.5443 1108.7657,-399.6919 1092,-387.504 1067.1534,-369.4416 1081.5502,-345.5566 1056,-328.504 930.4872,-244.7349 743.8279,-244.5128 650.3048,-250.7786"/>
<polygon fill="#000000" stroke="#000000" points="649.9108,-247.2978 640.1878,-251.5066 650.4133,-254.2797 649.9108,-247.2978"/>
</g>
<!-- v_1_97&#45;&gt;v_1_43 -->
<g id="edge71" class="edge">
<title>v_1_97&#45;&gt;v_1_43</title>
<path fill="none" stroke="#000000" stroke-dasharray="5,2" d="M1501.2969,-518.083C1460.9582,-523.7124 1412.0708,-530.0658 1368,-534.504 1218.4535,-549.5642 1041.0964,-559.6289 955.2231,-564.0097"/>
<polygon fill="#000000" stroke="#000000" points="955.0228,-560.5153 945.2123,-564.5157 955.3763,-567.5063 955.0228,-560.5153"/>
</g>
<!-- v_1_97&#45;&gt;v_1_44 -->
<g id="edge25" class="edge">
<title>v_1_97&#45;&gt;v_1_44</title>
<path fill="none" stroke="#000000" stroke-dasharray="5,2" d="M1501.3224,-507.3035C1302.5593,-511.5027 812.5016,-521.8561 647.6355,-525.3392"/>
<polygon fill="#000000" stroke="#000000" points="647.1767,-521.848 637.2529,-525.5585 647.3246,-528.8464 647.1767,-521.848"/>
</g>
<!-- v_1_97&#45;&gt;v_1_45 -->
<g id="edge27" class="edge">
<title>v_1_97&#45;&gt;v_1_45</title>
<path fill="none" stroke="#000000" stroke-dasharray="5,2" d="M1549.1043,-523.6807C1506.2883,-543.7911 1433.589,-575.8186 1368,-594.504 1103.9635,-669.7245 770.9233,-670.9176 644.4323,-668.1922"/>
<polygon fill="#000000" stroke="#000000" points="644.3392,-664.6892 634.2602,-667.9547 644.1757,-671.6873 644.3392,-664.6892"/>
</g>
<!-- v_1_97&#45;&gt;v_1_46 -->
<g id="edge2" class="edge">
<title>v_1_97&#45;&gt;v_1_46</title>
<path fill="none" stroke="#000000" stroke-dasharray="5,2" d="M1501.3224,-502.6762C1303.1669,-496.0976 815.4951,-479.9073 649.1566,-474.385"/>
<polygon fill="#000000" stroke="#000000" points="649.2475,-470.8861 639.1368,-474.0523 649.0151,-477.8823 649.2475,-470.8861"/>
</g>
<!-- v_1_97&#45;&gt;v_1_93 -->
<g id="edge82" class="edge">
<title>v_1_97&#45;&gt;v_1_93</title>
<path fill="none" stroke="#000000" stroke-dasharray="5,2" d="M1557.1861,-487.3197C1516.2362,-462.6328 1438.9411,-418.6063 1368,-392.504 1339.5515,-382.0366 1306.5077,-374.2307 1279.8879,-368.9499"/>
<polygon fill="#000000" stroke="#000000" points="1280.5048,-365.5045 1270.0232,-367.0494 1279.1804,-372.3781 1280.5048,-365.5045"/>
</g>
<!-- v_1_97&#45;&gt;v_1_94 -->
<g id="edge70" class="edge">
<title>v_1_97&#45;&gt;v_1_94</title>
<path fill="none" stroke="#000000" stroke-dasharray="5,2" d="M1569.5054,-487.2716C1535.1354,-451.5991 1453.3491,-372.6515 1368,-333.504 1341.3584,-321.2842 1309.3525,-314.5876 1282.8738,-310.9214"/>
<polygon fill="#000000" stroke="#000000" points="1283.0097,-307.4104 1272.6469,-309.6157 1282.1231,-314.354 1283.0097,-307.4104"/>
</g>
<!-- v_1_98 -->
<g id="node45" class="node">
<title>v_1_98</title>
<path fill="#85cbd0" stroke="#000000" d="M2031,-454.504C2031,-454.504 1964,-454.504 1964,-454.504 1958,-454.504 1952,-448.504 1952,-442.504 1952,-442.504 1952,-430.504 1952,-430.504 1952,-424.504 1958,-418.504 1964,-418.504 1964,-418.504 2031,-418.504 2031,-418.504 2037,-418.504 2043,-424.504 2043,-430.504 2043,-430.504 2043,-442.504 2043,-442.504 2043,-448.504 2037,-454.504 2031,-454.504"/>
<text text-anchor="middle" x="1997.5" y="-431.504" font-family="Times,serif" font-size="20.00" fill="#000000">196 fileR</text>
</g>
<!-- v_1_98&#45;&gt;v_1_97 -->
<g id="edge77" class="edge">
<title>v_1_98&#45;&gt;v_1_97</title>
<path fill="none" stroke="#000000" d="M1951.8946,-442.2402C1912.8267,-447.3119 1855.1029,-455.1804 1805,-463.504 1764.5103,-470.2306 1719.9901,-478.6088 1681.7604,-486.1088"/>
<polygon fill="#000000" stroke="#000000" points="1680.8046,-482.7297 1671.6696,-488.0966 1682.1576,-489.5977 1680.8046,-482.7297"/>
</g>
<!-- v_1_99 -->
<g id="node46" class="node">
<title>v_1_99</title>
<path fill="#85cbd0" stroke="#000000" d="M2035,-616.504C2035,-616.504 1960,-616.504 1960,-616.504 1954,-616.504 1948,-610.504 1948,-604.504 1948,-604.504 1948,-592.504 1948,-592.504 1948,-586.504 1954,-580.504 1960,-580.504 1960,-580.504 2035,-580.504 2035,-580.504 2041,-580.504 2047,-586.504 2047,-592.504 2047,-592.504 2047,-604.504 2047,-604.504 2047,-610.504 2041,-616.504 2035,-616.504"/>
<text text-anchor="middle" x="1997.5" y="-593.504" font-family="Times,serif" font-size="20.00" fill="#000000">196 fileE0</text>
</g>
<!-- v_1_99&#45;&gt;v_1_97 -->
<g id="edge47" class="edge">
<title>v_1_99&#45;&gt;v_1_97</title>
<path fill="none" stroke="#000000" d="M1947.6712,-593.6468C1908.5846,-589.3253 1852.9576,-582.0445 1805,-571.504 1751.0274,-559.6415 1691.019,-541.1181 1647.5665,-526.7107"/>
<polygon fill="#000000" stroke="#000000" points="1648.5951,-523.3643 1638.0014,-523.5171 1646.3782,-530.004 1648.5951,-523.3643"/>
</g>
<!-- v_1_106 -->
<g id="node47" class="node">
<title>v_1_106</title>
<polygon fill="#3a85b9" stroke="#000000" points="1769,-217.504 1404,-217.504 1404,-181.504 1769,-181.504 1769,-217.504"/>
<text text-anchor="middle" x="1586.5" y="-194.504" font-family="Times,serif" font-size="20.00" fill="#ffffff">202 calculate_global_angles_and_directions</text>
</g>
<!-- v_1_106&#45;&gt;v_1_39 -->
<g id="edge65" class="edge">
<title>v_1_106&#45;&gt;v_1_39</title>
<path fill="none" stroke="#000000" stroke-dasharray="5,2" d="M1504.4828,-181.4702C1405.4985,-162.7603 1234.5813,-140.2574 1092,-171.504 929.0205,-207.2209 874.0354,-215.8083 751,-328.504 727.2191,-350.2864 740.9763,-372.3929 715,-391.504 695.7568,-405.6615 670.5117,-412.6435 647.9419,-415.9999"/>
<polygon fill="#000000" stroke="#000000" points="647.2659,-412.5578 637.7915,-417.2997 648.1551,-419.5011 647.2659,-412.5578"/>
</g>
<!-- v_1_106&#45;&gt;v_1_40 -->
<g id="edge18" class="edge">
<title>v_1_106&#45;&gt;v_1_40</title>
<path fill="none" stroke="#000000" stroke-dasharray="5,2" d="M1571.6483,-181.3486C1539.3685,-143.5091 1458.4094,-57.1044 1368,-25.504 1252.2029,14.9701 1211.8008,.8565 1092,-25.504 906.9126,-66.2299 708.7688,-182.5269 628.9196,-232.8361"/>
<polygon fill="#000000" stroke="#000000" points="626.7935,-230.0399 620.2222,-238.3506 630.5419,-235.9517 626.7935,-230.0399"/>
</g>
<!-- v_1_106&#45;&gt;v_1_91 -->
<g id="edge22" class="edge">
<title>v_1_106&#45;&gt;v_1_91</title>
<path fill="none" stroke="#000000" stroke-dasharray="5,2" d="M1403.8116,-198.9916C1355.014,-198.8547 1306.6602,-198.719 1273.3906,-198.6257"/>
<polygon fill="#000000" stroke="#000000" points="1273.1473,-195.1251 1263.1374,-198.597 1273.1275,-202.1251 1273.1473,-195.1251"/>
</g>
<!-- v_1_106&#45;&gt;v_1_92 -->
<g id="edge30" class="edge">
<title>v_1_106&#45;&gt;v_1_92</title>
<path fill="none" stroke="#000000" stroke-dasharray="5,2" d="M1465.3079,-217.5213C1397.9371,-227.5372 1318.4098,-239.3603 1271.2031,-246.3784"/>
<polygon fill="#000000" stroke="#000000" points="1270.4428,-242.9529 1261.0662,-247.8855 1271.4722,-249.8768 1270.4428,-242.9529"/>
</g>
<!-- v_1_106&#45;&gt;v_1_93 -->
<g id="edge36" class="edge">
<title>v_1_106&#45;&gt;v_1_93</title>
<path fill="none" stroke="#000000" stroke-dasharray="5,2" d="M1563.4126,-217.5737C1525.0862,-246.6347 1444.9104,-303.5257 1368,-333.504 1339.8641,-344.4709 1306.6988,-351.1433 1279.9334,-355.111"/>
<polygon fill="#000000" stroke="#000000" points="1279.4294,-351.6473 1270.0125,-356.5025 1280.4017,-358.5795 1279.4294,-351.6473"/>
</g>
<!-- v_1_106&#45;&gt;v_1_94 -->
<g id="edge60" class="edge">
<title>v_1_106&#45;&gt;v_1_94</title>
<path fill="none" stroke="#000000" stroke-dasharray="5,2" d="M1543.2204,-217.6549C1499.6081,-235.3943 1430.0623,-262.1879 1368,-279.504 1340.1831,-287.2653 1308.6068,-293.619 1282.6853,-298.2088"/>
<polygon fill="#000000" stroke="#000000" points="1281.9388,-294.7859 1272.6835,-299.9425 1283.1344,-301.6831 1281.9388,-294.7859"/>
</g>
<!-- v_1_100 -->
<g id="node48" class="node">
<title>v_1_100</title>
<path fill="#85cbd0" stroke="#000000" d="M1256,-124.504C1256,-124.504 1204,-124.504 1204,-124.504 1198,-124.504 1192,-118.504 1192,-112.504 1192,-112.504 1192,-100.504 1192,-100.504 1192,-94.504 1198,-88.504 1204,-88.504 1204,-88.504 1256,-88.504 1256,-88.504 1262,-88.504 1268,-94.504 1268,-100.504 1268,-100.504 1268,-112.504 1268,-112.504 1268,-118.504 1262,-124.504 1256,-124.504"/>
<text text-anchor="middle" x="1230" y="-101.504" font-family="Times,serif" font-size="20.00" fill="#000000">198 phi</text>
</g>
<!-- v_1_106&#45;&gt;v_1_100 -->
<g id="edge78" class="edge">
<title>v_1_106&#45;&gt;v_1_100</title>
<path fill="none" stroke="#000000" stroke-dasharray="5,2" d="M1524.5362,-181.4148C1480.9008,-168.8703 1421.042,-152.0507 1368,-138.504 1338.2071,-130.895 1304.599,-123.0856 1278.0086,-117.0864"/>
<polygon fill="#000000" stroke="#000000" points="1278.7077,-113.6563 1268.1838,-114.88 1277.1738,-120.4862 1278.7077,-113.6563"/>
</g>
<!-- v_1_101 -->
<g id="node49" class="node">
<title>v_1_101</title>
<path fill="#85cbd0" stroke="#000000" d="M1262.5,-70.504C1262.5,-70.504 1197.5,-70.504 1197.5,-70.504 1191.5,-70.504 1185.5,-64.504 1185.5,-58.504 1185.5,-58.504 1185.5,-46.504 1185.5,-46.504 1185.5,-40.504 1191.5,-34.504 1197.5,-34.504 1197.5,-34.504 1262.5,-34.504 1262.5,-34.504 1268.5,-34.504 1274.5,-40.504 1274.5,-46.504 1274.5,-46.504 1274.5,-58.504 1274.5,-58.504 1274.5,-64.504 1268.5,-70.504 1262.5,-70.504"/>
<text text-anchor="middle" x="1230" y="-47.504" font-family="Times,serif" font-size="20.00" fill="#000000">200 theta</text>
</g>
<!-- v_1_106&#45;&gt;v_1_101 -->
<g id="edge84" class="edge">
<title>v_1_106&#45;&gt;v_1_101</title>
<path fill="none" stroke="#000000" stroke-dasharray="5,2" d="M1559.859,-181.2939C1519.9435,-154.8612 1441.4423,-106.1229 1368,-79.504 1341.3556,-69.8468 1310.498,-63.396 1284.7275,-59.2293"/>
<polygon fill="#000000" stroke="#000000" points="1285.1728,-55.7567 1274.7556,-57.6886 1284.1039,-62.6746 1285.1728,-55.7567"/>
</g>
<!-- v_1_107 -->
<g id="node50" class="node">
<title>v_1_107</title>
<path fill="#85cbd0" stroke="#000000" d="M2023.5,-163.504C2023.5,-163.504 1971.5,-163.504 1971.5,-163.504 1965.5,-163.504 1959.5,-157.504 1959.5,-151.504 1959.5,-151.504 1959.5,-139.504 1959.5,-139.504 1959.5,-133.504 1965.5,-127.504 1971.5,-127.504 1971.5,-127.504 2023.5,-127.504 2023.5,-127.504 2029.5,-127.504 2035.5,-133.504 2035.5,-139.504 2035.5,-139.504 2035.5,-151.504 2035.5,-151.504 2035.5,-157.504 2029.5,-163.504 2023.5,-163.504"/>
<text text-anchor="middle" x="1997.5" y="-140.504" font-family="Times,serif" font-size="20.00" fill="#000000">202 phi</text>
</g>
<!-- v_1_107&#45;&gt;v_1_106 -->
<g id="edge4" class="edge">
<title>v_1_107&#45;&gt;v_1_106</title>
<path fill="none" stroke="#000000" d="M1959.2032,-150.5357C1908.0825,-157.2523 1814.6272,-169.5311 1734.0923,-180.1123"/>
<polygon fill="#000000" stroke="#000000" points="1733.2929,-176.6872 1723.8341,-181.4601 1734.2049,-183.6275 1733.2929,-176.6872"/>
</g>
<!-- v_1_108 -->
<g id="node51" class="node">
<title>v_1_108</title>
<path fill="#85cbd0" stroke="#000000" d="M2017,-393.504C2017,-393.504 1978,-393.504 1978,-393.504 1972,-393.504 1966,-387.504 1966,-381.504 1966,-381.504 1966,-369.504 1966,-369.504 1966,-363.504 1972,-357.504 1978,-357.504 1978,-357.504 2017,-357.504 2017,-357.504 2023,-357.504 2029,-363.504 2029,-369.504 2029,-369.504 2029,-381.504 2029,-381.504 2029,-387.504 2023,-393.504 2017,-393.504"/>
<text text-anchor="middle" x="1997.5" y="-370.504" font-family="Times,serif" font-size="20.00" fill="#000000">202 E</text>
</g>
<!-- v_1_108&#45;&gt;v_1_106 -->
<g id="edge42" class="edge">
<title>v_1_108&#45;&gt;v_1_106</title>
<path fill="none" stroke="#000000" d="M1965.861,-372.143C1926.8998,-367.249 1859.2264,-356.2663 1805,-334.504 1733.3335,-305.7426 1658.6362,-254.1135 1617.8061,-223.7186"/>
<polygon fill="#000000" stroke="#000000" points="1619.7186,-220.7778 1609.6207,-217.5708 1615.5147,-226.3749 1619.7186,-220.7778"/>
</g>
<!-- v_1_109 -->
<g id="node52" class="node">
<title>v_1_109</title>
<path fill="#85cbd0" stroke="#000000" d="M2022.5,-325.504C2022.5,-325.504 1972.5,-325.504 1972.5,-325.504 1966.5,-325.504 1960.5,-319.504 1960.5,-313.504 1960.5,-313.504 1960.5,-301.504 1960.5,-301.504 1960.5,-295.504 1966.5,-289.504 1972.5,-289.504 1972.5,-289.504 2022.5,-289.504 2022.5,-289.504 2028.5,-289.504 2034.5,-295.504 2034.5,-301.504 2034.5,-301.504 2034.5,-313.504 2034.5,-313.504 2034.5,-319.504 2028.5,-325.504 2022.5,-325.504"/>
<text text-anchor="middle" x="1997.5" y="-302.504" font-family="Times,serif" font-size="20.00" fill="#000000">202 i2s</text>
</g>
<!-- v_1_109&#45;&gt;v_1_106 -->
<g id="edge57" class="edge">
<title>v_1_109&#45;&gt;v_1_106</title>
<path fill="none" stroke="#000000" d="M1960.1387,-304.6668C1921.0154,-301.1393 1858.009,-293.8801 1805,-280.504 1745.6135,-265.5186 1680.0518,-239.9296 1636.3874,-221.5191"/>
<polygon fill="#000000" stroke="#000000" points="1637.7129,-218.2795 1627.1405,-217.5895 1634.975,-224.7219 1637.7129,-218.2795"/>
</g>
<!-- v_1_110 -->
<g id="node53" class="node">
<title>v_1_110</title>
<path fill="#85cbd0" stroke="#000000" d="M2030,-271.504C2030,-271.504 1965,-271.504 1965,-271.504 1959,-271.504 1953,-265.504 1953,-259.504 1953,-259.504 1953,-247.504 1953,-247.504 1953,-241.504 1959,-235.504 1965,-235.504 1965,-235.504 2030,-235.504 2030,-235.504 2036,-235.504 2042,-241.504 2042,-247.504 2042,-247.504 2042,-259.504 2042,-259.504 2042,-265.504 2036,-271.504 2030,-271.504"/>
<text text-anchor="middle" x="1997.5" y="-248.504" font-family="Times,serif" font-size="20.00" fill="#000000">202 theta</text>
</g>
<!-- v_1_110&#45;&gt;v_1_106 -->
<g id="edge74" class="edge">
<title>v_1_110&#45;&gt;v_1_106</title>
<path fill="none" stroke="#000000" d="M1952.7334,-247.6223C1900.4667,-240.7551 1811.3192,-229.0423 1734.0667,-218.8923"/>
<polygon fill="#000000" stroke="#000000" points="1734.1083,-215.3678 1723.7376,-217.5352 1733.1964,-222.3081 1734.1083,-215.3678"/>
</g>
<!-- v_1_111 -->
<g id="node54" class="node">
<title>v_1_111</title>
<path fill="#85cbd0" stroke="#000000" d="M2023,-217.504C2023,-217.504 1972,-217.504 1972,-217.504 1966,-217.504 1960,-211.504 1960,-205.504 1960,-205.504 1960,-193.504 1960,-193.504 1960,-187.504 1966,-181.504 1972,-181.504 1972,-181.504 2023,-181.504 2023,-181.504 2029,-181.504 2035,-187.504 2035,-193.504 2035,-193.504 2035,-205.504 2035,-205.504 2035,-211.504 2029,-217.504 2023,-217.504"/>
<text text-anchor="middle" x="1997.5" y="-194.504" font-family="Times,serif" font-size="20.00" fill="#000000">202 D0</text>
</g>
<!-- v_1_111&#45;&gt;v_1_106 -->
<g id="edge54" class="edge">
<title>v_1_111&#45;&gt;v_1_106</title>
<path fill="none" stroke="#000000" d="M1959.9369,-199.504C1918.2899,-199.504 1847.9124,-199.504 1779.4079,-199.504"/>
<polygon fill="#000000" stroke="#000000" points="1779.3179,-196.0041 1769.3179,-199.504 1779.3178,-203.0041 1779.3179,-196.0041"/>
</g>
<!-- v_1_116 -->
<g id="node55" class="node">
<title>v_1_116</title>
<polygon fill="#3a85b9" stroke="#000000" points="2718,-271.504 2226,-271.504 2226,-235.504 2718,-235.504 2718,-271.504"/>
<text text-anchor="middle" x="2472" y="-248.504" font-family="Times,serif" font-size="20.00" fill="#ffffff">204 calculate_spherical_coord ... system_radial_unit_vector</text>
</g>
<!-- v_1_116&#45;&gt;v_1_109 -->
<g id="edge33" class="edge">
<title>v_1_116&#45;&gt;v_1_109</title>
<path fill="none" stroke="#000000" stroke-dasharray="5,2" d="M2313.6686,-271.5227C2219.9145,-282.1923 2107.6045,-294.9737 2045.2349,-302.0716"/>
<polygon fill="#000000" stroke="#000000" points="2044.4652,-298.6365 2034.9251,-303.2449 2045.2568,-305.5916 2044.4652,-298.6365"/>
</g>
<!-- v_1_116&#45;&gt;v_1_111 -->
<g id="edge9" class="edge">
<title>v_1_116&#45;&gt;v_1_111</title>
<path fill="none" stroke="#000000" stroke-dasharray="5,2" d="M2313.6686,-235.4853C2219.9761,-224.8227 2107.752,-212.0511 2045.3579,-204.9504"/>
<polygon fill="#000000" stroke="#000000" points="2045.7442,-201.4719 2035.4125,-203.8186 2044.9526,-208.427 2045.7442,-201.4719"/>
</g>
<!-- v_1_121 -->
<g id="node56" class="node">
<title>v_1_121</title>
<polygon fill="#3a85b9" stroke="#000000" points="2712.5,-528.504 2231.5,-528.504 2231.5,-492.504 2712.5,-492.504 2712.5,-528.504"/>
<text text-anchor="middle" x="2472" y="-505.504" font-family="Times,serif" font-size="20.00" fill="#ffffff">206 calculate_incident_field_ ... bal_cartesian_coordinates</text>
</g>
<!-- v_1_121&#45;&gt;v_1_54 -->
<g id="edge35" class="edge">
<title>v_1_121&#45;&gt;v_1_54</title>
<path fill="none" stroke="#000000" stroke-dasharray="5,2" d="M2449.4982,-528.6409C2403.707,-564.5031 2295.099,-644.3057 2190,-682.504 2140.5761,-700.4671 2080.1189,-707.3075 2040.2984,-709.91"/>
<polygon fill="#000000" stroke="#000000" points="2039.9159,-706.4264 2030.1401,-710.511 2040.3294,-713.4142 2039.9159,-706.4264"/>
</g>
<!-- v_1_121&#45;&gt;v_1_55 -->
<g id="edge8" class="edge">
<title>v_1_121&#45;&gt;v_1_55</title>
<path fill="none" stroke="#000000" stroke-dasharray="5,2" d="M2435.56,-528.5834C2382.7285,-554.0441 2281.1905,-600.1772 2190,-625.504 2140.6377,-639.2136 2082.3,-647.2022 2042.8875,-651.4404"/>
<polygon fill="#000000" stroke="#000000" points="2042.38,-647.9742 2032.7949,-652.4881 2043.1028,-654.9368 2042.38,-647.9742"/>
</g>
<!-- v_1_121&#45;&gt;v_1_108 -->
<g id="edge51" class="edge">
<title>v_1_121&#45;&gt;v_1_108</title>
<path fill="none" stroke="#000000" stroke-dasharray="5,2" d="M2428.7641,-492.4272C2374.0351,-470.1518 2276.4545,-432.4446 2190,-409.504 2138.8105,-395.921 2078.4974,-386.2637 2039.2059,-380.7935"/>
<polygon fill="#000000" stroke="#000000" points="2039.5791,-377.312 2029.1976,-379.4275 2038.6324,-384.2477 2039.5791,-377.312"/>
</g>
<!-- v_1_121&#45;&gt;v_1_109 -->
<g id="edge81" class="edge">
<title>v_1_121&#45;&gt;v_1_109</title>
<path fill="none" stroke="#000000" stroke-dasharray="5,2" d="M2446.9201,-492.4591C2399.2452,-459.0094 2291.2403,-387.2648 2190,-348.504 2142.1504,-330.1844 2084.3117,-319.2592 2044.602,-313.3512"/>
<polygon fill="#000000" stroke="#000000" points="2045.0593,-309.881 2034.6626,-311.9209 2044.0621,-316.8097 2045.0593,-309.881"/>
</g>
</g>
</svg>
