<?xml version="1.0" encoding="UTF-8" standalone="no"?>
<!DOCTYPE svg PUBLIC "-//W3C//DTD SVG 1.1//EN"
 "http://www.w3.org/Graphics/SVG/1.1/DTD/svg11.dtd">
<!-- Generated by graphviz version 2.40.1 (20161225.0304)
 -->
<!-- Title: Workflow Pages: 1 -->
<svg width="1757pt" height="797pt"
 viewBox="0.00 0.00 1757.00 797.00" xmlns="http://www.w3.org/2000/svg" xmlns:xlink="http://www.w3.org/1999/xlink">
<g id="graph0" class="graph" transform="scale(1 1) rotate(0) translate(4 793)">
<title>Workflow</title>
<polygon fill="#ffffff" stroke="transparent" points="-4,4 -4,-793 1753,-793 1753,4 -4,4"/>
<text text-anchor="middle" x="874.5" y="-770.6" font-family="Helvetica,sans-Serif" font-size="18.00" fill="#000000">yw_monolithic_pypofacets</text>
<g id="clust1" class="cluster">
<title>cluster_workflow_box_outer</title>
<polygon fill="none" stroke="#000000" stroke-width="2" points="8,-34 8,-727 1695,-727 1695,-34 8,-34"/>
</g>
<g id="clust2" class="cluster">
<title>cluster_workflow_box_inner</title>
<polygon fill="none" stroke="#000000" stroke-width="0" points="16,-42 16,-719 1687,-719 1687,-42 16,-42"/>
</g>
<!-- ReadParamInput -->
<g id="node1" class="node">
<title>ReadParamInput</title>
<polygon fill="#ccffcc" stroke="#000000" points="531.5,-628 412.5,-628 412.5,-592 531.5,-592 531.5,-628"/>
<text text-anchor="middle" x="472" y="-606.3" font-family="Helvetica,sans-Serif" font-size="14.00" fill="#000000">ReadParamInput</text>
</g>
<!-- Freq -->
<g id="node19" class="node">
<title>Freq</title>
<path fill="#ffffcc" stroke="#000000" d="M233,-556C233,-556 203,-556 203,-556 197,-556 191,-550 191,-544 191,-544 191,-532 191,-532 191,-526 197,-520 203,-520 203,-520 233,-520 233,-520 239,-520 245,-526 245,-532 245,-532 245,-544 245,-544 245,-550 239,-556 233,-556"/>
<text text-anchor="middle" x="218" y="-534.3" font-family="Helvetica,sans-Serif" font-size="14.00" fill="#000000">Freq</text>
</g>
<!-- ReadParamInput&#45;&gt;Freq -->
<g id="edge1" class="edge">
<title>ReadParamInput&#45;&gt;Freq</title>
<path fill="none" stroke="#000000" d="M412.0563,-598.6065C367.9158,-589.3736 306.8172,-574.8171 255,-556 254.8993,-555.9634 254.7985,-555.9267 254.6976,-555.8897"/>
<polygon fill="#000000" stroke="#000000" points="255.784,-552.5531 245.2026,-552.021 253.1427,-559.0356 255.784,-552.5531"/>
</g>
<!-- InputPolarization -->
<g id="node20" class="node">
<title>InputPolarization</title>
<path fill="#ffffcc" stroke="#000000" d="M160.5,-556C160.5,-556 67.5,-556 67.5,-556 61.5,-556 55.5,-550 55.5,-544 55.5,-544 55.5,-532 55.5,-532 55.5,-526 61.5,-520 67.5,-520 67.5,-520 160.5,-520 160.5,-520 166.5,-520 172.5,-526 172.5,-532 172.5,-532 172.5,-544 172.5,-544 172.5,-550 166.5,-556 160.5,-556"/>
<text text-anchor="middle" x="114" y="-534.3" font-family="Helvetica,sans-Serif" font-size="14.00" fill="#000000">InputPolarization</text>
</g>
<!-- ReadParamInput&#45;&gt;InputPolarization -->
<g id="edge4" class="edge">
<title>ReadParamInput&#45;&gt;InputPolarization</title>
<path fill="none" stroke="#000000" d="M412.3058,-600.2257C355.6704,-590.6489 267.9942,-575.0399 182.4198,-556.0076"/>
<polygon fill="#000000" stroke="#000000" points="183.0606,-552.5644 172.5371,-553.792 181.5292,-559.3949 183.0606,-552.5644"/>
</g>
<!-- PStart -->
<g id="node34" class="node">
<title>PStart</title>
<path fill="#ffffcc" stroke="#000000" d="M451,-556C451,-556 421,-556 421,-556 415,-556 409,-550 409,-544 409,-544 409,-532 409,-532 409,-526 415,-520 421,-520 421,-520 451,-520 451,-520 457,-520 463,-526 463,-532 463,-532 463,-544 463,-544 463,-550 457,-556 451,-556"/>
<text text-anchor="middle" x="436" y="-534.3" font-family="Helvetica,sans-Serif" font-size="14.00" fill="#000000">PStart</text>
</g>
<!-- ReadParamInput&#45;&gt;PStart -->
<g id="edge5" class="edge">
<title>ReadParamInput&#45;&gt;PStart</title>
<path fill="none" stroke="#000000" d="M462.9157,-591.8314C458.9385,-583.8771 454.1845,-574.369 449.7861,-565.5723"/>
<polygon fill="#000000" stroke="#000000" points="452.8093,-563.7923 445.2066,-556.4133 446.5483,-566.9228 452.8093,-563.7923"/>
</g>
<!-- PStop -->
<g id="node35" class="node">
<title>PStop</title>
<path fill="#ffffcc" stroke="#000000" d="M595,-556C595,-556 565,-556 565,-556 559,-556 553,-550 553,-544 553,-544 553,-532 553,-532 553,-526 559,-520 565,-520 565,-520 595,-520 595,-520 601,-520 607,-526 607,-532 607,-532 607,-544 607,-544 607,-550 601,-556 595,-556"/>
<text text-anchor="middle" x="580" y="-534.3" font-family="Helvetica,sans-Serif" font-size="14.00" fill="#000000">PStop</text>
</g>
<!-- ReadParamInput&#45;&gt;PStop -->
<g id="edge6" class="edge">
<title>ReadParamInput&#45;&gt;PStop</title>
<path fill="none" stroke="#000000" d="M499.253,-591.8314C512.9389,-582.7074 529.6915,-571.539 544.3827,-561.7449"/>
<polygon fill="#000000" stroke="#000000" points="546.3767,-564.6221 552.7558,-556.1628 542.4938,-558.7977 546.3767,-564.6221"/>
</g>
<!-- InputDelP -->
<g id="node36" class="node">
<title>InputDelP</title>
<path fill="#ffffcc" stroke="#000000" d="M783,-556C783,-556 731,-556 731,-556 725,-556 719,-550 719,-544 719,-544 719,-532 719,-532 719,-526 725,-520 731,-520 731,-520 783,-520 783,-520 789,-520 795,-526 795,-532 795,-532 795,-544 795,-544 795,-550 789,-556 783,-556"/>
<text text-anchor="middle" x="757" y="-534.3" font-family="Helvetica,sans-Serif" font-size="14.00" fill="#000000">InputDelP</text>
</g>
<!-- ReadParamInput&#45;&gt;InputDelP -->
<g id="edge7" class="edge">
<title>ReadParamInput&#45;&gt;InputDelP</title>
<path fill="none" stroke="#000000" d="M531.7882,-598.8954C578.0216,-589.7493 643.6881,-575.5452 709.266,-556.0182"/>
<polygon fill="#000000" stroke="#000000" points="710.3766,-559.339 718.9385,-553.0985 708.3537,-552.6376 710.3766,-559.339"/>
</g>
<!-- TStart -->
<g id="node37" class="node">
<title>TStart</title>
<path fill="#ffffcc" stroke="#000000" d="M855,-556C855,-556 825,-556 825,-556 819,-556 813,-550 813,-544 813,-544 813,-532 813,-532 813,-526 819,-520 825,-520 825,-520 855,-520 855,-520 861,-520 867,-526 867,-532 867,-532 867,-544 867,-544 867,-550 861,-556 855,-556"/>
<text text-anchor="middle" x="840" y="-534.3" font-family="Helvetica,sans-Serif" font-size="14.00" fill="#000000">TStart</text>
</g>
<!-- ReadParamInput&#45;&gt;TStart -->
<g id="edge8" class="edge">
<title>ReadParamInput&#45;&gt;TStart</title>
<path fill="none" stroke="#000000" d="M531.7419,-605.746C597.0318,-599.8932 704.4178,-586.727 803.0246,-555.793"/>
<polygon fill="#000000" stroke="#000000" points="804.3911,-559.0303 812.8442,-552.6432 802.253,-552.3649 804.3911,-559.0303"/>
</g>
<!-- TStop -->
<g id="node38" class="node">
<title>TStop</title>
<path fill="#ffffcc" stroke="#000000" d="M523,-556C523,-556 493,-556 493,-556 487,-556 481,-550 481,-544 481,-544 481,-532 481,-532 481,-526 487,-520 493,-520 493,-520 523,-520 523,-520 529,-520 535,-526 535,-532 535,-532 535,-544 535,-544 535,-550 529,-556 523,-556"/>
<text text-anchor="middle" x="508" y="-534.3" font-family="Helvetica,sans-Serif" font-size="14.00" fill="#000000">TStop</text>
</g>
<!-- ReadParamInput&#45;&gt;TStop -->
<g id="edge9" class="edge">
<title>ReadParamInput&#45;&gt;TStop</title>
<path fill="none" stroke="#000000" d="M481.0843,-591.8314C485.0615,-583.8771 489.8155,-574.369 494.2139,-565.5723"/>
<polygon fill="#000000" stroke="#000000" points="497.4517,-566.9228 498.7934,-556.4133 491.1907,-563.7923 497.4517,-566.9228"/>
</g>
<!-- InputDelT -->
<g id="node39" class="node">
<title>InputDelT</title>
<path fill="#ffffcc" stroke="#000000" d="M688.5,-556C688.5,-556 637.5,-556 637.5,-556 631.5,-556 625.5,-550 625.5,-544 625.5,-544 625.5,-532 625.5,-532 625.5,-526 631.5,-520 637.5,-520 637.5,-520 688.5,-520 688.5,-520 694.5,-520 700.5,-526 700.5,-532 700.5,-532 700.5,-544 700.5,-544 700.5,-550 694.5,-556 688.5,-556"/>
<text text-anchor="middle" x="663" y="-534.3" font-family="Helvetica,sans-Serif" font-size="14.00" fill="#000000">InputDelT</text>
</g>
<!-- ReadParamInput&#45;&gt;InputDelT -->
<g id="edge10" class="edge">
<title>ReadParamInput&#45;&gt;InputDelT</title>
<path fill="none" stroke="#000000" d="M520.3602,-591.9608C546.1386,-582.3229 578.6144,-570.1463 615.7566,-556.0814"/>
<polygon fill="#000000" stroke="#000000" points="617.188,-559.2819 625.2988,-552.4653 614.7074,-552.7361 617.188,-559.2819"/>
</g>
<!-- Corr -->
<g id="node40" class="node">
<title>Corr</title>
<path fill="#ffffcc" stroke="#000000" d="M379,-556C379,-556 349,-556 349,-556 343,-556 337,-550 337,-544 337,-544 337,-532 337,-532 337,-526 343,-520 349,-520 349,-520 379,-520 379,-520 385,-520 391,-526 391,-532 391,-532 391,-544 391,-544 391,-550 385,-556 379,-556"/>
<text text-anchor="middle" x="364" y="-534.3" font-family="Helvetica,sans-Serif" font-size="14.00" fill="#000000">Corr</text>
</g>
<!-- ReadParamInput&#45;&gt;Corr -->
<g id="edge2" class="edge">
<title>ReadParamInput&#45;&gt;Corr</title>
<path fill="none" stroke="#000000" d="M444.747,-591.8314C431.0611,-582.7074 414.3085,-571.539 399.6173,-561.7449"/>
<polygon fill="#000000" stroke="#000000" points="401.5062,-558.7977 391.2442,-556.1628 397.6233,-564.6221 401.5062,-558.7977"/>
</g>
<!-- Delstd -->
<g id="node41" class="node">
<title>Delstd</title>
<path fill="#ffffcc" stroke="#000000" d="M306.5,-556C306.5,-556 275.5,-556 275.5,-556 269.5,-556 263.5,-550 263.5,-544 263.5,-544 263.5,-532 263.5,-532 263.5,-526 269.5,-520 275.5,-520 275.5,-520 306.5,-520 306.5,-520 312.5,-520 318.5,-526 318.5,-532 318.5,-532 318.5,-544 318.5,-544 318.5,-550 312.5,-556 306.5,-556"/>
<text text-anchor="middle" x="291" y="-534.3" font-family="Helvetica,sans-Serif" font-size="14.00" fill="#000000">Delstd</text>
</g>
<!-- ReadParamInput&#45;&gt;Delstd -->
<g id="edge3" class="edge">
<title>ReadParamInput&#45;&gt;Delstd</title>
<path fill="none" stroke="#000000" d="M420.2166,-591.9157C392.5953,-581.9356 358.1742,-568.9634 328,-556 327.9057,-555.9595 327.8112,-555.9188 327.7166,-555.8781"/>
<polygon fill="#000000" stroke="#000000" points="329.3064,-552.7554 318.7505,-551.8469 326.4359,-559.1398 329.3064,-552.7554"/>
</g>
<!-- CalculateWaveLength -->
<g id="node2" class="node">
<title>CalculateWaveLength</title>
<polygon fill="#ccffcc" stroke="#000000" points="289.5,-484 140.5,-484 140.5,-448 289.5,-448 289.5,-484"/>
<text text-anchor="middle" x="215" y="-462.3" font-family="Helvetica,sans-Serif" font-size="14.00" fill="#000000">CalculateWaveLength</text>
</g>
<!-- WaveLength -->
<g id="node21" class="node">
<title>WaveLength</title>
<path fill="#ffffcc" stroke="#000000" d="M233.5,-412C233.5,-412 164.5,-412 164.5,-412 158.5,-412 152.5,-406 152.5,-400 152.5,-400 152.5,-388 152.5,-388 152.5,-382 158.5,-376 164.5,-376 164.5,-376 233.5,-376 233.5,-376 239.5,-376 245.5,-382 245.5,-388 245.5,-388 245.5,-400 245.5,-400 245.5,-406 239.5,-412 233.5,-412"/>
<text text-anchor="middle" x="199" y="-390.3" font-family="Helvetica,sans-Serif" font-size="14.00" fill="#000000">WaveLength</text>
</g>
<!-- CalculateWaveLength&#45;&gt;WaveLength -->
<g id="edge13" class="edge">
<title>CalculateWaveLength&#45;&gt;WaveLength</title>
<path fill="none" stroke="#000000" d="M210.9625,-447.8314C209.2513,-440.131 207.2165,-430.9743 205.3148,-422.4166"/>
<polygon fill="#000000" stroke="#000000" points="208.6779,-421.4159 203.0918,-412.4133 201.8446,-422.9344 208.6779,-421.4159"/>
</g>
<!-- CalculateIncidentWavePolarization -->
<g id="node3" class="node">
<title>CalculateIncidentWavePolarization</title>
<polygon fill="#ccffcc" stroke="#000000" points="270,-336 44,-336 44,-300 270,-300 270,-336"/>
<text text-anchor="middle" x="157" y="-314.3" font-family="Helvetica,sans-Serif" font-size="14.00" fill="#000000">CalculateIncidentWavePolarization</text>
</g>
<!-- Et -->
<g id="node54" class="node">
<title>Et</title>
<path fill="#ffffcc" stroke="#000000" d="M86,-254.5C86,-254.5 56,-254.5 56,-254.5 50,-254.5 44,-248.5 44,-242.5 44,-242.5 44,-230.5 44,-230.5 44,-224.5 50,-218.5 56,-218.5 56,-218.5 86,-218.5 86,-218.5 92,-218.5 98,-224.5 98,-230.5 98,-230.5 98,-242.5 98,-242.5 98,-248.5 92,-254.5 86,-254.5"/>
<text text-anchor="middle" x="71" y="-232.8" font-family="Helvetica,sans-Serif" font-size="14.00" fill="#000000">Et</text>
</g>
<!-- CalculateIncidentWavePolarization&#45;&gt;Et -->
<g id="edge15" class="edge">
<title>CalculateIncidentWavePolarization&#45;&gt;Et</title>
<path fill="none" stroke="#000000" d="M137.9138,-299.9125C126.0003,-288.6224 110.4958,-273.9292 97.4116,-261.5296"/>
<polygon fill="#000000" stroke="#000000" points="99.6988,-258.8751 90.0328,-254.5369 94.8838,-263.956 99.6988,-258.8751"/>
</g>
<!-- Ep -->
<g id="node55" class="node">
<title>Ep</title>
<path fill="#ffffcc" stroke="#000000" d="M158,-254.5C158,-254.5 128,-254.5 128,-254.5 122,-254.5 116,-248.5 116,-242.5 116,-242.5 116,-230.5 116,-230.5 116,-224.5 122,-218.5 128,-218.5 128,-218.5 158,-218.5 158,-218.5 164,-218.5 170,-224.5 170,-230.5 170,-230.5 170,-242.5 170,-242.5 170,-248.5 164,-254.5 158,-254.5"/>
<text text-anchor="middle" x="143" y="-232.8" font-family="Helvetica,sans-Serif" font-size="14.00" fill="#000000">Ep</text>
</g>
<!-- CalculateIncidentWavePolarization&#45;&gt;Ep -->
<g id="edge16" class="edge">
<title>CalculateIncidentWavePolarization&#45;&gt;Ep</title>
<path fill="none" stroke="#000000" d="M153.8929,-299.9125C152.1167,-289.572 149.85,-276.3769 147.8448,-264.7037"/>
<polygon fill="#000000" stroke="#000000" points="151.2409,-263.8 146.0984,-254.5369 144.342,-264.9852 151.2409,-263.8"/>
</g>
<!-- ReadModelCoordinates -->
<g id="node4" class="node">
<title>ReadModelCoordinates</title>
<polygon fill="#ccffcc" stroke="#000000" points="1437.5,-628 1278.5,-628 1278.5,-592 1437.5,-592 1437.5,-628"/>
<text text-anchor="middle" x="1358" y="-606.3" font-family="Helvetica,sans-Serif" font-size="14.00" fill="#000000">ReadModelCoordinates</text>
</g>
<!-- XPoints -->
<g id="node26" class="node">
<title>XPoints</title>
<path fill="#ffffcc" stroke="#000000" d="M1476.5,-556C1476.5,-556 1437.5,-556 1437.5,-556 1431.5,-556 1425.5,-550 1425.5,-544 1425.5,-544 1425.5,-532 1425.5,-532 1425.5,-526 1431.5,-520 1437.5,-520 1437.5,-520 1476.5,-520 1476.5,-520 1482.5,-520 1488.5,-526 1488.5,-532 1488.5,-532 1488.5,-544 1488.5,-544 1488.5,-550 1482.5,-556 1476.5,-556"/>
<text text-anchor="middle" x="1457" y="-534.3" font-family="Helvetica,sans-Serif" font-size="14.00" fill="#000000">XPoints</text>
</g>
<!-- ReadModelCoordinates&#45;&gt;XPoints -->
<g id="edge19" class="edge">
<title>ReadModelCoordinates&#45;&gt;XPoints</title>
<path fill="none" stroke="#000000" d="M1382.9819,-591.8314C1395.2928,-582.8779 1410.3107,-571.9558 1423.5937,-562.2955"/>
<polygon fill="#000000" stroke="#000000" points="1425.9973,-564.8752 1432.0261,-556.1628 1421.8801,-559.214 1425.9973,-564.8752"/>
</g>
<!-- YPoints -->
<g id="node27" class="node">
<title>YPoints</title>
<path fill="#ffffcc" stroke="#000000" d="M1240.5,-556C1240.5,-556 1201.5,-556 1201.5,-556 1195.5,-556 1189.5,-550 1189.5,-544 1189.5,-544 1189.5,-532 1189.5,-532 1189.5,-526 1195.5,-520 1201.5,-520 1201.5,-520 1240.5,-520 1240.5,-520 1246.5,-520 1252.5,-526 1252.5,-532 1252.5,-532 1252.5,-544 1252.5,-544 1252.5,-550 1246.5,-556 1240.5,-556"/>
<text text-anchor="middle" x="1221" y="-534.3" font-family="Helvetica,sans-Serif" font-size="14.00" fill="#000000">YPoints</text>
</g>
<!-- ReadModelCoordinates&#45;&gt;YPoints -->
<g id="edge20" class="edge">
<title>ReadModelCoordinates&#45;&gt;YPoints</title>
<path fill="none" stroke="#000000" d="M1323.4291,-591.8314C1304.6792,-581.9774 1281.3919,-569.7388 1261.7615,-559.4221"/>
<polygon fill="#000000" stroke="#000000" points="1263.2228,-556.2362 1252.7426,-554.6822 1259.9663,-562.4326 1263.2228,-556.2362"/>
</g>
<!-- ZPoints -->
<g id="node28" class="node">
<title>ZPoints</title>
<path fill="#ffffcc" stroke="#000000" d="M1321,-556C1321,-556 1283,-556 1283,-556 1277,-556 1271,-550 1271,-544 1271,-544 1271,-532 1271,-532 1271,-526 1277,-520 1283,-520 1283,-520 1321,-520 1321,-520 1327,-520 1333,-526 1333,-532 1333,-532 1333,-544 1333,-544 1333,-550 1327,-556 1321,-556"/>
<text text-anchor="middle" x="1302" y="-534.3" font-family="Helvetica,sans-Serif" font-size="14.00" fill="#000000">ZPoints</text>
</g>
<!-- ReadModelCoordinates&#45;&gt;ZPoints -->
<g id="edge21" class="edge">
<title>ReadModelCoordinates&#45;&gt;ZPoints</title>
<path fill="none" stroke="#000000" d="M1343.8688,-591.8314C1337.4189,-583.5386 1329.6555,-573.557 1322.5748,-564.4533"/>
<polygon fill="#000000" stroke="#000000" points="1325.2236,-562.158 1316.3214,-556.4133 1319.6981,-566.4556 1325.2236,-562.158"/>
</g>
<!-- Nverts -->
<g id="node29" class="node">
<title>Nverts</title>
<path fill="#ffffcc" stroke="#000000" d="M1395,-556C1395,-556 1363,-556 1363,-556 1357,-556 1351,-550 1351,-544 1351,-544 1351,-532 1351,-532 1351,-526 1357,-520 1363,-520 1363,-520 1395,-520 1395,-520 1401,-520 1407,-526 1407,-532 1407,-532 1407,-544 1407,-544 1407,-550 1401,-556 1395,-556"/>
<text text-anchor="middle" x="1379" y="-534.3" font-family="Helvetica,sans-Serif" font-size="14.00" fill="#000000">Nverts</text>
</g>
<!-- ReadModelCoordinates&#45;&gt;Nverts -->
<g id="edge22" class="edge">
<title>ReadModelCoordinates&#45;&gt;Nverts</title>
<path fill="none" stroke="#000000" d="M1363.2992,-591.8314C1365.5698,-584.0463 1368.2746,-574.7729 1370.794,-566.1347"/>
<polygon fill="#000000" stroke="#000000" points="1374.1894,-566.9933 1373.6295,-556.4133 1367.4694,-565.0332 1374.1894,-566.9933"/>
</g>
<!-- ReadFacetsModel -->
<g id="node5" class="node">
<title>ReadFacetsModel</title>
<polygon fill="#ccffcc" stroke="#000000" points="1618.5,-628 1491.5,-628 1491.5,-592 1618.5,-592 1618.5,-628"/>
<text text-anchor="middle" x="1555" y="-606.3" font-family="Helvetica,sans-Serif" font-size="14.00" fill="#000000">ReadFacetsModel</text>
</g>
<!-- Facets -->
<g id="node25" class="node">
<title>Facets</title>
<path fill="#ffffcc" stroke="#000000" d="M1571.5,-556C1571.5,-556 1538.5,-556 1538.5,-556 1532.5,-556 1526.5,-550 1526.5,-544 1526.5,-544 1526.5,-532 1526.5,-532 1526.5,-526 1532.5,-520 1538.5,-520 1538.5,-520 1571.5,-520 1571.5,-520 1577.5,-520 1583.5,-526 1583.5,-532 1583.5,-532 1583.5,-544 1583.5,-544 1583.5,-550 1577.5,-556 1571.5,-556"/>
<text text-anchor="middle" x="1555" y="-534.3" font-family="Helvetica,sans-Serif" font-size="14.00" fill="#000000">Facets</text>
</g>
<!-- ReadFacetsModel&#45;&gt;Facets -->
<g id="edge25" class="edge">
<title>ReadFacetsModel&#45;&gt;Facets</title>
<path fill="none" stroke="#000000" d="M1555,-591.8314C1555,-584.131 1555,-574.9743 1555,-566.4166"/>
<polygon fill="#000000" stroke="#000000" points="1558.5001,-566.4132 1555,-556.4133 1551.5001,-566.4133 1558.5001,-566.4132"/>
</g>
<!-- GenerateTransposeMatrix -->
<g id="node6" class="node">
<title>GenerateTransposeMatrix</title>
<polygon fill="#ccffcc" stroke="#000000" points="1642.5,-484 1467.5,-484 1467.5,-448 1642.5,-448 1642.5,-484"/>
<text text-anchor="middle" x="1555" y="-462.3" font-family="Helvetica,sans-Serif" font-size="14.00" fill="#000000">GenerateTransposeMatrix</text>
</g>
<!-- Node1 -->
<g id="node30" class="node">
<title>Node1</title>
<path fill="#ffffcc" stroke="#000000" d="M1558,-412C1558,-412 1526,-412 1526,-412 1520,-412 1514,-406 1514,-400 1514,-400 1514,-388 1514,-388 1514,-382 1520,-376 1526,-376 1526,-376 1558,-376 1558,-376 1564,-376 1570,-382 1570,-388 1570,-388 1570,-400 1570,-400 1570,-406 1564,-412 1558,-412"/>
<text text-anchor="middle" x="1542" y="-390.3" font-family="Helvetica,sans-Serif" font-size="14.00" fill="#000000">Node1</text>
</g>
<!-- GenerateTransposeMatrix&#45;&gt;Node1 -->
<g id="edge28" class="edge">
<title>GenerateTransposeMatrix&#45;&gt;Node1</title>
<path fill="none" stroke="#000000" d="M1551.7196,-447.8314C1550.3292,-440.131 1548.6759,-430.9743 1547.1308,-422.4166"/>
<polygon fill="#000000" stroke="#000000" points="1550.5458,-421.6322 1545.3246,-412.4133 1543.6572,-422.8761 1550.5458,-421.6322"/>
</g>
<!-- Node2 -->
<g id="node31" class="node">
<title>Node2</title>
<path fill="#ffffcc" stroke="#000000" d="M1632,-412C1632,-412 1600,-412 1600,-412 1594,-412 1588,-406 1588,-400 1588,-400 1588,-388 1588,-388 1588,-382 1594,-376 1600,-376 1600,-376 1632,-376 1632,-376 1638,-376 1644,-382 1644,-388 1644,-388 1644,-400 1644,-400 1644,-406 1638,-412 1632,-412"/>
<text text-anchor="middle" x="1616" y="-390.3" font-family="Helvetica,sans-Serif" font-size="14.00" fill="#000000">Node2</text>
</g>
<!-- GenerateTransposeMatrix&#45;&gt;Node2 -->
<g id="edge29" class="edge">
<title>GenerateTransposeMatrix&#45;&gt;Node2</title>
<path fill="none" stroke="#000000" d="M1570.3929,-447.8314C1577.4904,-439.454 1586.048,-429.3531 1593.824,-420.1749"/>
<polygon fill="#000000" stroke="#000000" points="1596.6061,-422.3056 1600.3999,-412.4133 1591.2652,-417.7807 1596.6061,-422.3056"/>
</g>
<!-- Node3 -->
<g id="node32" class="node">
<title>Node3</title>
<path fill="#ffffcc" stroke="#000000" d="M1484,-412C1484,-412 1452,-412 1452,-412 1446,-412 1440,-406 1440,-400 1440,-400 1440,-388 1440,-388 1440,-382 1446,-376 1452,-376 1452,-376 1484,-376 1484,-376 1490,-376 1496,-382 1496,-388 1496,-388 1496,-400 1496,-400 1496,-406 1490,-412 1484,-412"/>
<text text-anchor="middle" x="1468" y="-390.3" font-family="Helvetica,sans-Serif" font-size="14.00" fill="#000000">Node3</text>
</g>
<!-- GenerateTransposeMatrix&#45;&gt;Node3 -->
<g id="edge30" class="edge">
<title>GenerateTransposeMatrix&#45;&gt;Node3</title>
<path fill="none" stroke="#000000" d="M1533.0462,-447.8314C1522.3305,-438.9632 1509.2811,-428.1637 1497.691,-418.5718"/>
<polygon fill="#000000" stroke="#000000" points="1499.8822,-415.8422 1489.9467,-412.1628 1495.4192,-421.2349 1499.8822,-415.8422"/>
</g>
<!-- GenerateCoordinatesPoints -->
<g id="node7" class="node">
<title>GenerateCoordinatesPoints</title>
<polygon fill="#ccffcc" stroke="#000000" points="1449,-484 1265,-484 1265,-448 1449,-448 1449,-484"/>
<text text-anchor="middle" x="1357" y="-462.3" font-family="Helvetica,sans-Serif" font-size="14.00" fill="#000000">GenerateCoordinatesPoints</text>
</g>
<!-- Points -->
<g id="node33" class="node">
<title>Points</title>
<path fill="#ffffcc" stroke="#000000" d="M1385,-412C1385,-412 1355,-412 1355,-412 1349,-412 1343,-406 1343,-400 1343,-400 1343,-388 1343,-388 1343,-382 1349,-376 1355,-376 1355,-376 1385,-376 1385,-376 1391,-376 1397,-382 1397,-388 1397,-388 1397,-400 1397,-400 1397,-406 1391,-412 1385,-412"/>
<text text-anchor="middle" x="1370" y="-390.3" font-family="Helvetica,sans-Serif" font-size="14.00" fill="#000000">Points</text>
</g>
<!-- GenerateCoordinatesPoints&#45;&gt;Points -->
<g id="edge32" class="edge">
<title>GenerateCoordinatesPoints&#45;&gt;Points</title>
<path fill="none" stroke="#000000" d="M1360.2804,-447.8314C1361.6708,-440.131 1363.3241,-430.9743 1364.8692,-422.4166"/>
<polygon fill="#000000" stroke="#000000" points="1368.3428,-422.8761 1366.6754,-412.4133 1361.4542,-421.6322 1368.3428,-422.8761"/>
</g>
<!-- PlotModel -->
<g id="node8" class="node">
<title>PlotModel</title>
<polygon fill="#ccffcc" stroke="#000000" points="1545.5,-336 1468.5,-336 1468.5,-300 1545.5,-300 1545.5,-336"/>
<text text-anchor="middle" x="1507" y="-314.3" font-family="Helvetica,sans-Serif" font-size="14.00" fill="#000000">PlotModel</text>
</g>
<!-- PlotOutput -->
<g id="node16" class="node">
<title>PlotOutput</title>
<path fill="#ffffcc" stroke="#000000" d="M1346.5,-213.5C1346.5,-213.5 1667.5,-213.5 1667.5,-213.5 1673.5,-213.5 1679.5,-219.5 1679.5,-225.5 1679.5,-225.5 1679.5,-247.5 1679.5,-247.5 1679.5,-253.5 1673.5,-259.5 1667.5,-259.5 1667.5,-259.5 1346.5,-259.5 1346.5,-259.5 1340.5,-259.5 1334.5,-253.5 1334.5,-247.5 1334.5,-247.5 1334.5,-225.5 1334.5,-225.5 1334.5,-219.5 1340.5,-213.5 1346.5,-213.5"/>
<text text-anchor="middle" x="1507" y="-244.3" font-family="Helvetica,sans-Serif" font-size="14.00" fill="#000000">PlotOutput</text>
<polyline fill="none" stroke="#000000" points="1334.5,-236.5 1679.5,-236.5 "/>
<text text-anchor="middle" x="1507" y="-221.3" font-family="Helvetica,sans-Serif" font-size="14.00" fill="#000000">file:{plot_yw_monolithic_pypofacets_{Timestamp}.png}</text>
</g>
<!-- PlotModel&#45;&gt;PlotOutput -->
<g id="edge37" class="edge">
<title>PlotModel&#45;&gt;PlotOutput</title>
<path fill="none" stroke="#000000" d="M1507,-299.9125C1507,-290.9789 1507,-279.9145 1507,-269.5418"/>
<polygon fill="#000000" stroke="#000000" points="1510.5001,-269.504 1507,-259.5041 1503.5001,-269.5041 1510.5001,-269.504"/>
</g>
<!-- CalculateRefsGeometryModel -->
<g id="node9" class="node">
<title>CalculateRefsGeometryModel</title>
<polygon fill="#ccffcc" stroke="#000000" points="770.5,-484 571.5,-484 571.5,-448 770.5,-448 770.5,-484"/>
<text text-anchor="middle" x="671" y="-462.3" font-family="Helvetica,sans-Serif" font-size="14.00" fill="#000000">CalculateRefsGeometryModel</text>
</g>
<!-- IP -->
<g id="node42" class="node">
<title>IP</title>
<path fill="#ffffcc" stroke="#000000" d="M612,-412C612,-412 582,-412 582,-412 576,-412 570,-406 570,-400 570,-400 570,-388 570,-388 570,-382 576,-376 582,-376 582,-376 612,-376 612,-376 618,-376 624,-382 624,-388 624,-388 624,-400 624,-400 624,-406 618,-412 612,-412"/>
<text text-anchor="middle" x="597" y="-390.3" font-family="Helvetica,sans-Serif" font-size="14.00" fill="#000000">IP</text>
</g>
<!-- CalculateRefsGeometryModel&#45;&gt;IP -->
<g id="edge43" class="edge">
<title>CalculateRefsGeometryModel&#45;&gt;IP</title>
<path fill="none" stroke="#000000" d="M652.3267,-447.8314C643.4751,-439.219 632.7514,-428.7851 623.1105,-419.4048"/>
<polygon fill="#000000" stroke="#000000" points="625.2754,-416.6279 615.6674,-412.1628 620.3939,-421.645 625.2754,-416.6279"/>
</g>
<!-- IT -->
<g id="node43" class="node">
<title>IT</title>
<path fill="#ffffcc" stroke="#000000" d="M860,-412C860,-412 830,-412 830,-412 824,-412 818,-406 818,-400 818,-400 818,-388 818,-388 818,-382 824,-376 830,-376 830,-376 860,-376 860,-376 866,-376 872,-382 872,-388 872,-388 872,-400 872,-400 872,-406 866,-412 860,-412"/>
<text text-anchor="middle" x="845" y="-390.3" font-family="Helvetica,sans-Serif" font-size="14.00" fill="#000000">IT</text>
</g>
<!-- CalculateRefsGeometryModel&#45;&gt;IT -->
<g id="edge42" class="edge">
<title>CalculateRefsGeometryModel&#45;&gt;IT</title>
<path fill="none" stroke="#000000" d="M714.9075,-447.8314C743.7795,-435.8843 781.1224,-420.4321 808.3886,-409.1495"/>
<polygon fill="#000000" stroke="#000000" points="810.0419,-412.2533 817.9438,-405.1957 807.3654,-405.7852 810.0419,-412.2533"/>
</g>
<!-- DelP -->
<g id="node44" class="node">
<title>DelP</title>
<path fill="#ffffcc" stroke="#000000" d="M684,-412C684,-412 654,-412 654,-412 648,-412 642,-406 642,-400 642,-400 642,-388 642,-388 642,-382 648,-376 654,-376 654,-376 684,-376 684,-376 690,-376 696,-382 696,-388 696,-388 696,-400 696,-400 696,-406 690,-412 684,-412"/>
<text text-anchor="middle" x="669" y="-390.3" font-family="Helvetica,sans-Serif" font-size="14.00" fill="#000000">DelP</text>
</g>
<!-- CalculateRefsGeometryModel&#45;&gt;DelP -->
<g id="edge44" class="edge">
<title>CalculateRefsGeometryModel&#45;&gt;DelP</title>
<path fill="none" stroke="#000000" d="M670.4953,-447.8314C670.2814,-440.131 670.0271,-430.9743 669.7894,-422.4166"/>
<polygon fill="#000000" stroke="#000000" points="673.2879,-422.3122 669.5115,-412.4133 666.2906,-422.5066 673.2879,-422.3122"/>
</g>
<!-- DelT -->
<g id="node45" class="node">
<title>DelT</title>
<path fill="#ffffcc" stroke="#000000" d="M756,-412C756,-412 726,-412 726,-412 720,-412 714,-406 714,-400 714,-400 714,-388 714,-388 714,-382 720,-376 726,-376 726,-376 756,-376 756,-376 762,-376 768,-382 768,-388 768,-388 768,-400 768,-400 768,-406 762,-412 756,-412"/>
<text text-anchor="middle" x="741" y="-390.3" font-family="Helvetica,sans-Serif" font-size="14.00" fill="#000000">DelT</text>
</g>
<!-- CalculateRefsGeometryModel&#45;&gt;DelT -->
<g id="edge45" class="edge">
<title>CalculateRefsGeometryModel&#45;&gt;DelT</title>
<path fill="none" stroke="#000000" d="M688.664,-447.8314C696.9732,-439.2848 707.0264,-428.9443 716.0918,-419.6198"/>
<polygon fill="#000000" stroke="#000000" points="718.6369,-422.023 723.0982,-412.4133 713.6179,-417.1435 718.6369,-422.023"/>
</g>
<!-- PrepareOutput -->
<g id="node10" class="node">
<title>PrepareOutput</title>
<polygon fill="#ccffcc" stroke="#000000" points="553,-484 447,-484 447,-448 553,-448 553,-484"/>
<text text-anchor="middle" x="500" y="-462.3" font-family="Helvetica,sans-Serif" font-size="14.00" fill="#000000">PrepareOutput</text>
</g>
<!-- R_Output -->
<g id="node14" class="node">
<title>R_Output</title>
<path fill="#ffffcc" stroke="#000000" d="M999.5,-213.5C999.5,-213.5 1304.5,-213.5 1304.5,-213.5 1310.5,-213.5 1316.5,-219.5 1316.5,-225.5 1316.5,-225.5 1316.5,-247.5 1316.5,-247.5 1316.5,-253.5 1310.5,-259.5 1304.5,-259.5 1304.5,-259.5 999.5,-259.5 999.5,-259.5 993.5,-259.5 987.5,-253.5 987.5,-247.5 987.5,-247.5 987.5,-225.5 987.5,-225.5 987.5,-219.5 993.5,-213.5 999.5,-213.5"/>
<text text-anchor="middle" x="1152" y="-244.3" font-family="Helvetica,sans-Serif" font-size="14.00" fill="#000000">R_Output</text>
<polyline fill="none" stroke="#000000" points="987.5,-236.5 1316.5,-236.5 "/>
<text text-anchor="middle" x="1152" y="-221.3" font-family="Helvetica,sans-Serif" font-size="14.00" fill="#000000">file:{R_yw_monolithic_pypofacets_{Timestamp}.dat}</text>
</g>
<!-- PrepareOutput&#45;&gt;R_Output -->
<g id="edge52" class="edge">
<title>PrepareOutput&#45;&gt;R_Output</title>
<path fill="none" stroke="#000000" d="M553.1248,-450.1523C556.4528,-449.3675 559.764,-448.6409 563,-448 702.5262,-420.3677 747.083,-459.9307 881,-412 974.9837,-378.3619 1069.3523,-306.5953 1118.0891,-266.0266"/>
<polygon fill="#000000" stroke="#000000" points="1120.39,-268.6648 1125.7964,-259.5532 1115.8879,-263.3046 1120.39,-268.6648"/>
</g>
<!-- E0_Output -->
<g id="node15" class="node">
<title>E0_Output</title>
<path fill="#ffffcc" stroke="#000000" d="M115,-50.5C115,-50.5 427,-50.5 427,-50.5 433,-50.5 439,-56.5 439,-62.5 439,-62.5 439,-84.5 439,-84.5 439,-90.5 433,-96.5 427,-96.5 427,-96.5 115,-96.5 115,-96.5 109,-96.5 103,-90.5 103,-84.5 103,-84.5 103,-62.5 103,-62.5 103,-56.5 109,-50.5 115,-50.5"/>
<text text-anchor="middle" x="271" y="-81.3" font-family="Helvetica,sans-Serif" font-size="14.00" fill="#000000">E0_Output</text>
<polyline fill="none" stroke="#000000" points="103,-73.5 439,-73.5 "/>
<text text-anchor="middle" x="271" y="-58.3" font-family="Helvetica,sans-Serif" font-size="14.00" fill="#000000">file:{E0_yw_monolithic_pypofacets_{Timestamp}.dat}</text>
</g>
<!-- PrepareOutput&#45;&gt;E0_Output -->
<g id="edge53" class="edge">
<title>PrepareOutput&#45;&gt;E0_Output</title>
<path fill="none" stroke="#000000" d="M446.8753,-460.7764C361.6045,-451.9186 198.2622,-432.8684 144,-412 81.0928,-387.8069 25,-385.3989 25,-318 25,-318 25,-318 25,-236.5 25,-201.7481 57.5551,-158.4493 92,-133 110.783,-119.1223 132.9915,-108.3592 155.2596,-100.0524"/>
<polygon fill="#000000" stroke="#000000" points="156.56,-103.3044 164.7969,-96.6407 154.2023,-96.7134 156.56,-103.3044"/>
</g>
<!-- CalculateGlobalAnglesAndDirections -->
<g id="node11" class="node">
<title>CalculateGlobalAnglesAndDirections</title>
<polygon fill="#ccffcc" stroke="#000000" points="787,-336 549,-336 549,-300 787,-300 787,-336"/>
<polygon fill="none" stroke="#000000" points="791,-340 545,-340 545,-296 791,-296 791,-340"/>
<text text-anchor="middle" x="668" y="-314.3" font-family="Helvetica,sans-Serif" font-size="14.00" fill="#000000">CalculateGlobalAnglesAndDirections</text>
</g>
<!-- Phi -->
<g id="node46" class="node">
<title>Phi</title>
<path fill="#ffffcc" stroke="#000000" d="M754,-254.5C754,-254.5 724,-254.5 724,-254.5 718,-254.5 712,-248.5 712,-242.5 712,-242.5 712,-230.5 712,-230.5 712,-224.5 718,-218.5 724,-218.5 724,-218.5 754,-218.5 754,-218.5 760,-218.5 766,-224.5 766,-230.5 766,-230.5 766,-242.5 766,-242.5 766,-248.5 760,-254.5 754,-254.5"/>
<text text-anchor="middle" x="739" y="-232.8" font-family="Helvetica,sans-Serif" font-size="14.00" fill="#000000">Phi</text>
</g>
<!-- CalculateGlobalAnglesAndDirections&#45;&gt;Phi -->
<g id="edge72" class="edge">
<title>CalculateGlobalAnglesAndDirections&#45;&gt;Phi</title>
<path fill="none" stroke="#000000" d="M681.3102,-295.7298C689.5681,-285.3383 700.3168,-272.9128 710.3512,-262.1321"/>
<polygon fill="#000000" stroke="#000000" points="713.1336,-264.2851 717.4858,-254.6254 708.0597,-259.4627 713.1336,-264.2851"/>
</g>
<!-- Theta -->
<g id="node47" class="node">
<title>Theta</title>
<path fill="#ffffcc" stroke="#000000" d="M826,-254.5C826,-254.5 796,-254.5 796,-254.5 790,-254.5 784,-248.5 784,-242.5 784,-242.5 784,-230.5 784,-230.5 784,-224.5 790,-218.5 796,-218.5 796,-218.5 826,-218.5 826,-218.5 832,-218.5 838,-224.5 838,-230.5 838,-230.5 838,-242.5 838,-242.5 838,-248.5 832,-254.5 826,-254.5"/>
<text text-anchor="middle" x="811" y="-232.8" font-family="Helvetica,sans-Serif" font-size="14.00" fill="#000000">Theta</text>
</g>
<!-- CalculateGlobalAnglesAndDirections&#45;&gt;Theta -->
<g id="edge73" class="edge">
<title>CalculateGlobalAnglesAndDirections&#45;&gt;Theta</title>
<path fill="none" stroke="#000000" d="M702.4424,-295.9201C721.4151,-285.4095 745.1273,-272.4416 766,-260 768.9752,-258.2266 772.0547,-256.3239 775.1566,-254.3971"/>
<polygon fill="#000000" stroke="#000000" points="777.2295,-257.2302 783.8894,-248.9902 773.5446,-251.2786 777.2295,-257.2302"/>
</g>
<!-- U -->
<g id="node48" class="node">
<title>U</title>
<path fill="#ffffcc" stroke="#000000" d="M610,-254.5C610,-254.5 580,-254.5 580,-254.5 574,-254.5 568,-248.5 568,-242.5 568,-242.5 568,-230.5 568,-230.5 568,-224.5 574,-218.5 580,-218.5 580,-218.5 610,-218.5 610,-218.5 616,-218.5 622,-224.5 622,-230.5 622,-230.5 622,-242.5 622,-242.5 622,-248.5 616,-254.5 610,-254.5"/>
<text text-anchor="middle" x="595" y="-232.8" font-family="Helvetica,sans-Serif" font-size="14.00" fill="#000000">U</text>
</g>
<!-- CalculateGlobalAnglesAndDirections&#45;&gt;U -->
<g id="edge64" class="edge">
<title>CalculateGlobalAnglesAndDirections&#45;&gt;U</title>
<path fill="none" stroke="#000000" d="M648.0524,-295.7298C638.7447,-285.3383 627.6151,-272.9128 617.9588,-262.1321"/>
<polygon fill="#000000" stroke="#000000" points="620.5141,-259.7391 611.2351,-254.6254 615.2999,-264.4095 620.5141,-259.7391"/>
</g>
<!-- V -->
<g id="node49" class="node">
<title>V</title>
<path fill="#ffffcc" stroke="#000000" d="M682,-254.5C682,-254.5 652,-254.5 652,-254.5 646,-254.5 640,-248.5 640,-242.5 640,-242.5 640,-230.5 640,-230.5 640,-224.5 646,-218.5 652,-218.5 652,-218.5 682,-218.5 682,-218.5 688,-218.5 694,-224.5 694,-230.5 694,-230.5 694,-242.5 694,-242.5 694,-248.5 688,-254.5 682,-254.5"/>
<text text-anchor="middle" x="667" y="-232.8" font-family="Helvetica,sans-Serif" font-size="14.00" fill="#000000">V</text>
</g>
<!-- CalculateGlobalAnglesAndDirections&#45;&gt;V -->
<g id="edge65" class="edge">
<title>CalculateGlobalAnglesAndDirections&#45;&gt;V</title>
<path fill="none" stroke="#000000" d="M667.7267,-295.7298C667.6091,-286.1454 667.4703,-274.8307 667.3457,-264.6722"/>
<polygon fill="#000000" stroke="#000000" points="670.8449,-264.5817 667.2224,-254.6254 663.8454,-264.6677 670.8449,-264.5817"/>
</g>
<!-- W -->
<g id="node50" class="node">
<title>W</title>
<path fill="#ffffcc" stroke="#000000" d="M918,-254.5C918,-254.5 888,-254.5 888,-254.5 882,-254.5 876,-248.5 876,-242.5 876,-242.5 876,-230.5 876,-230.5 876,-224.5 882,-218.5 888,-218.5 888,-218.5 918,-218.5 918,-218.5 924,-218.5 930,-224.5 930,-230.5 930,-230.5 930,-242.5 930,-242.5 930,-248.5 924,-254.5 918,-254.5"/>
<text text-anchor="middle" x="903" y="-232.8" font-family="Helvetica,sans-Serif" font-size="14.00" fill="#000000">W</text>
</g>
<!-- CalculateGlobalAnglesAndDirections&#45;&gt;W -->
<g id="edge66" class="edge">
<title>CalculateGlobalAnglesAndDirections&#45;&gt;W</title>
<path fill="none" stroke="#000000" d="M740.7648,-295.9473C773.4604,-285.6482 812.3923,-272.8425 847,-260 853.3758,-257.634 860.0936,-254.9685 866.5765,-252.3046"/>
<polygon fill="#000000" stroke="#000000" points="867.9594,-255.52 875.8393,-248.4378 865.2627,-249.0603 867.9594,-255.52"/>
</g>
<!-- UU -->
<g id="node51" class="node">
<title>UU</title>
<path fill="#ffffcc" stroke="#000000" d="M466,-254.5C466,-254.5 436,-254.5 436,-254.5 430,-254.5 424,-248.5 424,-242.5 424,-242.5 424,-230.5 424,-230.5 424,-224.5 430,-218.5 436,-218.5 436,-218.5 466,-218.5 466,-218.5 472,-218.5 478,-224.5 478,-230.5 478,-230.5 478,-242.5 478,-242.5 478,-248.5 472,-254.5 466,-254.5"/>
<text text-anchor="middle" x="451" y="-232.8" font-family="Helvetica,sans-Serif" font-size="14.00" fill="#000000">UU</text>
</g>
<!-- CalculateGlobalAnglesAndDirections&#45;&gt;UU -->
<g id="edge67" class="edge">
<title>CalculateGlobalAnglesAndDirections&#45;&gt;UU</title>
<path fill="none" stroke="#000000" d="M583.2984,-295.9885C552.2983,-286.61 517.391,-274.4643 487,-260 486.5788,-259.7995 486.1567,-259.5948 485.734,-259.3863"/>
<polygon fill="#000000" stroke="#000000" points="487.3247,-256.2671 476.8707,-254.5454 483.9693,-262.4105 487.3247,-256.2671"/>
</g>
<!-- VV -->
<g id="node52" class="node">
<title>VV</title>
<path fill="#ffffcc" stroke="#000000" d="M538,-254.5C538,-254.5 508,-254.5 508,-254.5 502,-254.5 496,-248.5 496,-242.5 496,-242.5 496,-230.5 496,-230.5 496,-224.5 502,-218.5 508,-218.5 508,-218.5 538,-218.5 538,-218.5 544,-218.5 550,-224.5 550,-230.5 550,-230.5 550,-242.5 550,-242.5 550,-248.5 544,-254.5 538,-254.5"/>
<text text-anchor="middle" x="523" y="-232.8" font-family="Helvetica,sans-Serif" font-size="14.00" fill="#000000">VV</text>
</g>
<!-- CalculateGlobalAnglesAndDirections&#45;&gt;VV -->
<g id="edge68" class="edge">
<title>CalculateGlobalAnglesAndDirections&#45;&gt;VV</title>
<path fill="none" stroke="#000000" d="M624.2776,-295.8725C604.1649,-285.4049 580.1312,-272.4854 559,-260 558.9116,-259.9478 558.8232,-259.8955 558.7347,-259.843"/>
<polygon fill="#000000" stroke="#000000" points="560.7151,-256.9516 550.3581,-254.719 557.0623,-262.923 560.7151,-256.9516"/>
</g>
<!-- WW -->
<g id="node53" class="node">
<title>WW</title>
<path fill="#ffffcc" stroke="#000000" d="M394,-254.5C394,-254.5 364,-254.5 364,-254.5 358,-254.5 352,-248.5 352,-242.5 352,-242.5 352,-230.5 352,-230.5 352,-224.5 358,-218.5 364,-218.5 364,-218.5 394,-218.5 394,-218.5 400,-218.5 406,-224.5 406,-230.5 406,-230.5 406,-242.5 406,-242.5 406,-248.5 400,-254.5 394,-254.5"/>
<text text-anchor="middle" x="379" y="-232.8" font-family="Helvetica,sans-Serif" font-size="14.00" fill="#000000">WW</text>
</g>
<!-- CalculateGlobalAnglesAndDirections&#45;&gt;WW -->
<g id="edge69" class="edge">
<title>CalculateGlobalAnglesAndDirections&#45;&gt;WW</title>
<path fill="none" stroke="#000000" d="M544.9312,-298.8655C502.7216,-289.948 455.8513,-277.3604 415,-260 414.4419,-259.7628 413.8829,-259.517 413.3237,-259.2634"/>
<polygon fill="#000000" stroke="#000000" points="414.8296,-256.1015 404.3426,-254.5933 411.6001,-262.3121 414.8296,-256.1015"/>
</g>
<!-- SP -->
<g id="node56" class="node">
<title>SP</title>
<path fill="#ffffcc" stroke="#000000" d="M250,-254.5C250,-254.5 220,-254.5 220,-254.5 214,-254.5 208,-248.5 208,-242.5 208,-242.5 208,-230.5 208,-230.5 208,-224.5 214,-218.5 220,-218.5 220,-218.5 250,-218.5 250,-218.5 256,-218.5 262,-224.5 262,-230.5 262,-230.5 262,-242.5 262,-242.5 262,-248.5 256,-254.5 250,-254.5"/>
<text text-anchor="middle" x="235" y="-232.8" font-family="Helvetica,sans-Serif" font-size="14.00" fill="#000000">SP</text>
</g>
<!-- CalculateGlobalAnglesAndDirections&#45;&gt;SP -->
<g id="edge70" class="edge">
<title>CalculateGlobalAnglesAndDirections&#45;&gt;SP</title>
<path fill="none" stroke="#000000" d="M544.8154,-305.8577C447.3363,-295.1659 319.7799,-278.4555 271,-260 270.2932,-259.7326 269.586,-259.4496 268.8795,-259.1526"/>
<polygon fill="#000000" stroke="#000000" points="270.3402,-255.97 259.8292,-254.6403 267.2168,-262.2346 270.3402,-255.97"/>
</g>
<!-- CP -->
<g id="node57" class="node">
<title>CP</title>
<path fill="#ffffcc" stroke="#000000" d="M322,-254.5C322,-254.5 292,-254.5 292,-254.5 286,-254.5 280,-248.5 280,-242.5 280,-242.5 280,-230.5 280,-230.5 280,-224.5 286,-218.5 292,-218.5 292,-218.5 322,-218.5 322,-218.5 328,-218.5 334,-224.5 334,-230.5 334,-230.5 334,-242.5 334,-242.5 334,-248.5 328,-254.5 322,-254.5"/>
<text text-anchor="middle" x="307" y="-232.8" font-family="Helvetica,sans-Serif" font-size="14.00" fill="#000000">CP</text>
</g>
<!-- CalculateGlobalAnglesAndDirections&#45;&gt;CP -->
<g id="edge71" class="edge">
<title>CalculateGlobalAnglesAndDirections&#45;&gt;CP</title>
<path fill="none" stroke="#000000" d="M544.8068,-307.7977C482.6577,-299.7373 407.0695,-285.4019 343,-260 342.2975,-259.7215 341.5942,-259.4282 340.8914,-259.1218"/>
<polygon fill="#000000" stroke="#000000" points="342.3715,-255.9479 331.872,-254.5296 339.1954,-262.1859 342.3715,-255.9479"/>
</g>
<!-- CalculateSphericalCoordinateSystemRadialUnitVector -->
<g id="node12" class="node">
<title>CalculateSphericalCoordinateSystemRadialUnitVector</title>
<polygon fill="#ccffcc" stroke="#000000" points="1120,-173 778,-173 778,-137 1120,-137 1120,-173"/>
<polygon fill="none" stroke="#000000" points="1124,-177 774,-177 774,-133 1124,-133 1124,-177"/>
<text text-anchor="middle" x="949" y="-151.3" font-family="Helvetica,sans-Serif" font-size="14.00" fill="#000000">CalculateSphericalCoordinateSystemRadialUnitVector</text>
</g>
<!-- CalculateSphericalCoordinateSystemRadialUnitVector&#45;&gt;R_Output -->
<g id="edge82" class="edge">
<title>CalculateSphericalCoordinateSystemRadialUnitVector&#45;&gt;R_Output</title>
<path fill="none" stroke="#000000" d="M1010.1977,-177.1285C1035.9661,-187.1628 1065.842,-199.1161 1091.5303,-209.6582"/>
<polygon fill="#000000" stroke="#000000" points="1090.2102,-212.8997 1100.7896,-213.4722 1092.8763,-206.4273 1090.2102,-212.8997"/>
</g>
<!-- CalculateIncidentFieldInGlobalCartesianCoordinates -->
<g id="node13" class="node">
<title>CalculateIncidentFieldInGlobalCartesianCoordinates</title>
<polygon fill="#ccffcc" stroke="#000000" points="436.5,-173 105.5,-173 105.5,-137 436.5,-137 436.5,-173"/>
<polygon fill="none" stroke="#000000" points="440.5,-177 101.5,-177 101.5,-133 440.5,-133 440.5,-177"/>
<text text-anchor="middle" x="271" y="-151.3" font-family="Helvetica,sans-Serif" font-size="14.00" fill="#000000">CalculateIncidentFieldInGlobalCartesianCoordinates</text>
</g>
<!-- CalculateIncidentFieldInGlobalCartesianCoordinates&#45;&gt;E0_Output -->
<g id="edge89" class="edge">
<title>CalculateIncidentFieldInGlobalCartesianCoordinates&#45;&gt;E0_Output</title>
<path fill="none" stroke="#000000" d="M264.9092,-132.7298C264.2925,-124.6676 264.1085,-115.381 264.3572,-106.5881"/>
<polygon fill="#000000" stroke="#000000" points="267.8531,-106.7555 264.8478,-96.5958 260.8615,-106.4121 267.8531,-106.7555"/>
</g>
<!-- R_Output&#45;&gt;CalculateSphericalCoordinateSystemRadialUnitVector -->
<g id="edge88" class="edge">
<title>R_Output&#45;&gt;CalculateSphericalCoordinateSystemRadialUnitVector</title>
<path fill="none" stroke="#000000" d="M1088.4951,-213.4722C1062.604,-203.3713 1032.8857,-191.4663 1007.5265,-181.0437"/>
<polygon fill="#000000" stroke="#000000" points="1008.6168,-177.7074 998.0378,-177.1285 1005.9468,-184.1782 1008.6168,-177.7074"/>
</g>
<!-- R_Output_output_port -->
<g id="node63" class="node">
<title>R_Output_output_port</title>
<ellipse fill="#ffffff" stroke="#000000" cx="1710" cy="-155" rx="7" ry="7"/>
</g>
<!-- R_Output&#45;&gt;R_Output_output_port -->
<g id="edge105" class="edge">
<title>R_Output&#45;&gt;R_Output_output_port</title>
<path fill="none" stroke="#000000" d="M1316.837,-214.0845C1319.9157,-213.7155 1322.9723,-213.3536 1326,-213 1406.9543,-203.5441 1618.6447,-214.5197 1691,-177 1694.5113,-175.1792 1697.6535,-172.4113 1700.3235,-169.4467"/>
<polygon fill="#000000" stroke="#000000" points="1703.3127,-171.2943 1706.5122,-161.1941 1697.7125,-167.0946 1703.3127,-171.2943"/>
</g>
<!-- E0_Output&#45;&gt;CalculateIncidentFieldInGlobalCartesianCoordinates -->
<g id="edge99" class="edge">
<title>E0_Output&#45;&gt;CalculateIncidentFieldInGlobalCartesianCoordinates</title>
<path fill="none" stroke="#000000" d="M277.1522,-96.5958C277.733,-104.6507 277.8906,-113.8464 277.6249,-122.5202"/>
<polygon fill="#000000" stroke="#000000" points="274.1181,-122.5605 277.0908,-132.7298 281.1085,-122.9263 274.1181,-122.5605"/>
</g>
<!-- E0_Output_output_port -->
<g id="node64" class="node">
<title>E0_Output_output_port</title>
<ellipse fill="#ffffff" stroke="#000000" cx="271" cy="-7" rx="7" ry="7"/>
</g>
<!-- E0_Output&#45;&gt;E0_Output_output_port -->
<g id="edge106" class="edge">
<title>E0_Output&#45;&gt;E0_Output_output_port</title>
<path fill="none" stroke="#000000" d="M271,-50.2415C271,-41.6855 271,-32.1565 271,-24.2258"/>
<polygon fill="#000000" stroke="#000000" points="274.5001,-24.0497 271,-14.0498 267.5001,-24.0498 274.5001,-24.0497"/>
</g>
<!-- PlotOutput_output_port -->
<g id="node65" class="node">
<title>PlotOutput_output_port</title>
<ellipse fill="#ffffff" stroke="#000000" cx="1742" cy="-155" rx="7" ry="7"/>
</g>
<!-- PlotOutput&#45;&gt;PlotOutput_output_port -->
<g id="edge107" class="edge">
<title>PlotOutput&#45;&gt;PlotOutput_output_port</title>
<path fill="none" stroke="#000000" d="M1647.5803,-213.4281C1675.1053,-204.854 1702.6459,-193.1026 1726,-177 1728.7873,-175.0782 1731.2682,-172.5075 1733.3957,-169.8021"/>
<polygon fill="#000000" stroke="#000000" points="1736.3947,-171.6109 1738.9322,-161.3244 1730.5338,-167.7833 1736.3947,-171.6109"/>
</g>
<!-- InputDataFileName -->
<g id="node17" class="node">
<title>InputDataFileName</title>
<path fill="#ffffcc" stroke="#000000" d="M444,-705.5C444,-705.5 334,-705.5 334,-705.5 328,-705.5 322,-699.5 322,-693.5 322,-693.5 322,-681.5 322,-681.5 322,-675.5 328,-669.5 334,-669.5 334,-669.5 444,-669.5 444,-669.5 450,-669.5 456,-675.5 456,-681.5 456,-681.5 456,-693.5 456,-693.5 456,-699.5 450,-705.5 444,-705.5"/>
<text text-anchor="middle" x="389" y="-683.8" font-family="Helvetica,sans-Serif" font-size="14.00" fill="#000000">InputDataFileName</text>
</g>
<!-- InputDataFileName&#45;&gt;ReadParamInput -->
<g id="edge11" class="edge">
<title>InputDataFileName&#45;&gt;ReadParamInput</title>
<path fill="none" stroke="#000000" d="M408.6698,-669.1336C419.5233,-658.9993 433.1616,-646.2648 444.9995,-635.2113"/>
<polygon fill="#000000" stroke="#000000" points="447.5509,-637.6176 452.4713,-628.2346 442.7736,-632.5012 447.5509,-637.6176"/>
</g>
<!-- InputDataFile -->
<g id="node18" class="node">
<title>InputDataFile</title>
<path fill="#ffffcc" stroke="#000000" d="M486,-664.5C486,-664.5 626,-664.5 626,-664.5 632,-664.5 638,-670.5 638,-676.5 638,-676.5 638,-698.5 638,-698.5 638,-704.5 632,-710.5 626,-710.5 626,-710.5 486,-710.5 486,-710.5 480,-710.5 474,-704.5 474,-698.5 474,-698.5 474,-676.5 474,-676.5 474,-670.5 480,-664.5 486,-664.5"/>
<text text-anchor="middle" x="556" y="-695.3" font-family="Helvetica,sans-Serif" font-size="14.00" fill="#000000">InputDataFile</text>
<polyline fill="none" stroke="#000000" points="474,-687.5 638,-687.5 "/>
<text text-anchor="middle" x="556" y="-672.3" font-family="Helvetica,sans-Serif" font-size="14.00" fill="#000000">file:{InputDataFileName}</text>
</g>
<!-- InputDataFile&#45;&gt;ReadParamInput -->
<g id="edge12" class="edge">
<title>InputDataFile&#45;&gt;ReadParamInput</title>
<path fill="none" stroke="#000000" d="M530.7972,-664.2474C520.7848,-655.0098 509.2475,-644.3652 499.059,-634.9651"/>
<polygon fill="#000000" stroke="#000000" points="501.3014,-632.2719 491.5783,-628.0633 496.5547,-637.4168 501.3014,-632.2719"/>
</g>
<!-- Freq&#45;&gt;CalculateWaveLength -->
<g id="edge14" class="edge">
<title>Freq&#45;&gt;CalculateWaveLength</title>
<path fill="none" stroke="#000000" d="M217.243,-519.8314C216.9221,-512.131 216.5406,-502.9743 216.184,-494.4166"/>
<polygon fill="#000000" stroke="#000000" points="219.6806,-494.2589 215.7672,-484.4133 212.6867,-494.5503 219.6806,-494.2589"/>
</g>
<!-- Freq&#45;&gt;PrepareOutput -->
<g id="edge54" class="edge">
<title>Freq&#45;&gt;PrepareOutput</title>
<path fill="none" stroke="#000000" d="M245.1719,-523.8928C248.4368,-522.4639 251.7616,-521.1268 255,-520 315.2291,-499.0425 386.7044,-484.3939 436.861,-475.693"/>
<polygon fill="#000000" stroke="#000000" points="437.6436,-479.1101 446.9132,-473.9792 436.4671,-472.2097 437.6436,-479.1101"/>
</g>
<!-- InputPolarization&#45;&gt;CalculateIncidentWavePolarization -->
<g id="edge17" class="edge">
<title>InputPolarization&#45;&gt;CalculateIncidentWavePolarization</title>
<path fill="none" stroke="#000000" d="M117.1106,-519.978C122.3316,-490.0231 133.3365,-428.1223 144,-376 146.005,-366.1997 148.3556,-355.5051 150.5025,-345.9987"/>
<polygon fill="#000000" stroke="#000000" points="153.915,-346.776 152.7263,-336.2481 147.0903,-345.2195 153.915,-346.776"/>
</g>
<!-- InputPolarization&#45;&gt;PrepareOutput -->
<g id="edge57" class="edge">
<title>InputPolarization&#45;&gt;PrepareOutput</title>
<path fill="none" stroke="#000000" d="M172.5239,-522.1483C175.7227,-521.3945 178.8969,-520.6727 182,-520 269.7925,-500.9672 372.4263,-484.5835 436.828,-475.0024"/>
<polygon fill="#000000" stroke="#000000" points="437.4472,-478.449 446.8276,-473.5237 436.4232,-471.5243 437.4472,-478.449"/>
</g>
<!-- WaveLength&#45;&gt;CalculateIncidentWavePolarization -->
<g id="edge18" class="edge">
<title>WaveLength&#45;&gt;CalculateIncidentWavePolarization</title>
<path fill="none" stroke="#000000" d="M189.0466,-375.9891C183.9578,-366.7807 177.6591,-355.3831 171.9963,-345.1362"/>
<polygon fill="#000000" stroke="#000000" points="174.9278,-343.2045 167.0275,-336.145 168.8011,-346.5904 174.9278,-343.2045"/>
</g>
<!-- InputModel -->
<g id="node22" class="node">
<title>InputModel</title>
<path fill="#ffffcc" stroke="#000000" d="M1459,-705.5C1459,-705.5 1399,-705.5 1399,-705.5 1393,-705.5 1387,-699.5 1387,-693.5 1387,-693.5 1387,-681.5 1387,-681.5 1387,-675.5 1393,-669.5 1399,-669.5 1399,-669.5 1459,-669.5 1459,-669.5 1465,-669.5 1471,-675.5 1471,-681.5 1471,-681.5 1471,-693.5 1471,-693.5 1471,-699.5 1465,-705.5 1459,-705.5"/>
<text text-anchor="middle" x="1429" y="-683.8" font-family="Helvetica,sans-Serif" font-size="14.00" fill="#000000">InputModel</text>
</g>
<!-- InputModel&#45;&gt;ReadModelCoordinates -->
<g id="edge23" class="edge">
<title>InputModel&#45;&gt;ReadModelCoordinates</title>
<path fill="none" stroke="#000000" d="M1412.174,-669.1336C1403.0666,-659.1924 1391.6668,-646.749 1381.6771,-635.8447"/>
<polygon fill="#000000" stroke="#000000" points="1384.0411,-633.2438 1374.7052,-628.2346 1378.8796,-637.9724 1384.0411,-633.2438"/>
</g>
<!-- InputModel&#45;&gt;ReadFacetsModel -->
<g id="edge26" class="edge">
<title>InputModel&#45;&gt;ReadFacetsModel</title>
<path fill="none" stroke="#000000" d="M1458.5414,-669.3297C1475.9979,-658.5925 1498.2826,-644.8857 1517.0338,-633.3522"/>
<polygon fill="#000000" stroke="#000000" points="1518.9596,-636.2768 1525.6437,-628.0565 1515.2922,-630.3144 1518.9596,-636.2768"/>
</g>
<!-- CoordinatesFile -->
<g id="node23" class="node">
<title>CoordinatesFile</title>
<path fill="#ffffcc" stroke="#000000" d="M1178.5,-664.5C1178.5,-664.5 1357.5,-664.5 1357.5,-664.5 1363.5,-664.5 1369.5,-670.5 1369.5,-676.5 1369.5,-676.5 1369.5,-698.5 1369.5,-698.5 1369.5,-704.5 1363.5,-710.5 1357.5,-710.5 1357.5,-710.5 1178.5,-710.5 1178.5,-710.5 1172.5,-710.5 1166.5,-704.5 1166.5,-698.5 1166.5,-698.5 1166.5,-676.5 1166.5,-676.5 1166.5,-670.5 1172.5,-664.5 1178.5,-664.5"/>
<text text-anchor="middle" x="1268" y="-695.3" font-family="Helvetica,sans-Serif" font-size="14.00" fill="#000000">CoordinatesFile</text>
<polyline fill="none" stroke="#000000" points="1166.5,-687.5 1369.5,-687.5 "/>
<text text-anchor="middle" x="1268" y="-672.3" font-family="Helvetica,sans-Serif" font-size="14.00" fill="#000000">file:{InputModel}/coordinates.m</text>
</g>
<!-- CoordinatesFile&#45;&gt;ReadModelCoordinates -->
<g id="edge24" class="edge">
<title>CoordinatesFile&#45;&gt;ReadModelCoordinates</title>
<path fill="none" stroke="#000000" d="M1295.003,-664.2474C1305.8358,-654.9192 1318.3345,-644.1564 1329.3289,-634.689"/>
<polygon fill="#000000" stroke="#000000" points="1331.7294,-637.2408 1337.0232,-628.0633 1327.1617,-631.9364 1331.7294,-637.2408"/>
</g>
<!-- FacetsFile -->
<g id="node24" class="node">
<title>FacetsFile</title>
<path fill="#ffffcc" stroke="#000000" d="M1501,-664.5C1501,-664.5 1647,-664.5 1647,-664.5 1653,-664.5 1659,-670.5 1659,-676.5 1659,-676.5 1659,-698.5 1659,-698.5 1659,-704.5 1653,-710.5 1647,-710.5 1647,-710.5 1501,-710.5 1501,-710.5 1495,-710.5 1489,-704.5 1489,-698.5 1489,-698.5 1489,-676.5 1489,-676.5 1489,-670.5 1495,-664.5 1501,-664.5"/>
<text text-anchor="middle" x="1574" y="-695.3" font-family="Helvetica,sans-Serif" font-size="14.00" fill="#000000">FacetsFile</text>
<polyline fill="none" stroke="#000000" points="1489,-687.5 1659,-687.5 "/>
<text text-anchor="middle" x="1574" y="-672.3" font-family="Helvetica,sans-Serif" font-size="14.00" fill="#000000">file:{InputModel}/facets.m</text>
</g>
<!-- FacetsFile&#45;&gt;ReadFacetsModel -->
<g id="edge27" class="edge">
<title>FacetsFile&#45;&gt;ReadFacetsModel</title>
<path fill="none" stroke="#000000" d="M1568.2994,-664.2474C1566.2789,-656.006 1563.9839,-646.6447 1561.8759,-638.0464"/>
<polygon fill="#000000" stroke="#000000" points="1565.2089,-636.9423 1559.4284,-628.0633 1558.4103,-638.6091 1565.2089,-636.9423"/>
</g>
<!-- Facets&#45;&gt;GenerateTransposeMatrix -->
<g id="edge31" class="edge">
<title>Facets&#45;&gt;GenerateTransposeMatrix</title>
<path fill="none" stroke="#000000" d="M1555,-519.8314C1555,-512.131 1555,-502.9743 1555,-494.4166"/>
<polygon fill="#000000" stroke="#000000" points="1558.5001,-494.4132 1555,-484.4133 1551.5001,-494.4133 1558.5001,-494.4132"/>
</g>
<!-- XPoints&#45;&gt;GenerateCoordinatesPoints -->
<g id="edge33" class="edge">
<title>XPoints&#45;&gt;GenerateCoordinatesPoints</title>
<path fill="none" stroke="#000000" d="M1431.7658,-519.8314C1419.212,-510.7927 1403.8717,-499.7476 1390.3609,-490.0198"/>
<polygon fill="#000000" stroke="#000000" points="1392.3866,-487.1655 1382.2261,-484.1628 1388.2964,-492.8463 1392.3866,-487.1655"/>
</g>
<!-- YPoints&#45;&gt;GenerateCoordinatesPoints -->
<g id="edge34" class="edge">
<title>YPoints&#45;&gt;GenerateCoordinatesPoints</title>
<path fill="none" stroke="#000000" d="M1252.543,-521.3008C1270.7795,-511.6461 1293.9828,-499.3621 1313.8863,-488.8249"/>
<polygon fill="#000000" stroke="#000000" points="1315.569,-491.8943 1322.7693,-484.1222 1312.2937,-485.7078 1315.569,-491.8943"/>
</g>
<!-- ZPoints&#45;&gt;GenerateCoordinatesPoints -->
<g id="edge35" class="edge">
<title>ZPoints&#45;&gt;GenerateCoordinatesPoints</title>
<path fill="none" stroke="#000000" d="M1315.8788,-519.8314C1322.2136,-511.5386 1329.8384,-501.557 1336.7926,-492.4533"/>
<polygon fill="#000000" stroke="#000000" points="1339.6452,-494.4847 1342.9343,-484.4133 1334.0825,-490.2353 1339.6452,-494.4847"/>
</g>
<!-- Nverts&#45;&gt;GenerateCoordinatesPoints -->
<g id="edge36" class="edge">
<title>Nverts&#45;&gt;GenerateCoordinatesPoints</title>
<path fill="none" stroke="#000000" d="M1373.4485,-519.8314C1371.0697,-512.0463 1368.2362,-502.7729 1365.5967,-494.1347"/>
<polygon fill="#000000" stroke="#000000" points="1368.8958,-492.954 1362.6263,-484.4133 1362.2013,-494.9996 1368.8958,-492.954"/>
</g>
<!-- Node1&#45;&gt;PlotModel -->
<g id="edge38" class="edge">
<title>Node1&#45;&gt;PlotModel</title>
<path fill="none" stroke="#000000" d="M1533.7055,-375.9891C1529.5081,-366.8747 1524.3229,-355.6155 1519.6416,-345.4502"/>
<polygon fill="#000000" stroke="#000000" points="1522.7184,-343.7641 1515.3563,-336.145 1516.3602,-346.6922 1522.7184,-343.7641"/>
</g>
<!-- Node2&#45;&gt;PlotModel -->
<g id="edge39" class="edge">
<title>Node2&#45;&gt;PlotModel</title>
<path fill="none" stroke="#000000" d="M1590.1685,-375.9891C1575.6142,-365.8411 1557.2466,-353.0343 1541.4768,-342.0389"/>
<polygon fill="#000000" stroke="#000000" points="1543.2286,-338.9935 1533.0238,-336.145 1539.2249,-344.7356 1543.2286,-338.9935"/>
</g>
<!-- Node3&#45;&gt;PlotModel -->
<g id="edge40" class="edge">
<title>Node3&#45;&gt;PlotModel</title>
<path fill="none" stroke="#000000" d="M1477.2425,-375.9891C1481.9678,-366.7807 1487.8165,-355.3831 1493.0748,-345.1362"/>
<polygon fill="#000000" stroke="#000000" points="1496.2371,-346.64 1497.6887,-336.145 1490.0092,-343.444 1496.2371,-346.64"/>
</g>
<!-- Points&#45;&gt;PlotModel -->
<g id="edge41" class="edge">
<title>Points&#45;&gt;PlotModel</title>
<path fill="none" stroke="#000000" d="M1397.0668,-378.9848C1416.5314,-368.1869 1443.1456,-353.4229 1465.312,-341.1262"/>
<polygon fill="#000000" stroke="#000000" points="1467.1438,-344.1125 1474.1905,-336.2009 1463.7481,-337.9913 1467.1438,-344.1125"/>
</g>
<!-- PStart&#45;&gt;CalculateRefsGeometryModel -->
<g id="edge46" class="edge">
<title>PStart&#45;&gt;CalculateRefsGeometryModel</title>
<path fill="none" stroke="#000000" d="M463.2647,-523.6663C466.1784,-522.3462 469.1272,-521.0955 472,-520 506.5533,-506.8237 545.6241,-495.4883 579.9401,-486.6537"/>
<polygon fill="#000000" stroke="#000000" points="581.1233,-489.9645 589.9545,-484.1112 579.4007,-483.1797 581.1233,-489.9645"/>
</g>
<!-- PStart&#45;&gt;PrepareOutput -->
<g id="edge58" class="edge">
<title>PStart&#45;&gt;PrepareOutput</title>
<path fill="none" stroke="#000000" d="M452.1499,-519.8314C459.6717,-511.3694 468.7565,-501.1489 476.9804,-491.8971"/>
<polygon fill="#000000" stroke="#000000" points="479.6049,-494.2127 483.6327,-484.4133 474.373,-489.5621 479.6049,-494.2127"/>
</g>
<!-- PStart&#45;&gt;CalculateGlobalAnglesAndDirections -->
<g id="edge76" class="edge">
<title>PStart&#45;&gt;CalculateGlobalAnglesAndDirections</title>
<path fill="none" stroke="#000000" d="M431.4863,-519.6906C427.8048,-500.4408 425.0839,-469.958 438,-448 468.4856,-396.1732 528.0599,-363.3361 578.9379,-343.6305"/>
<polygon fill="#000000" stroke="#000000" points="580.1979,-346.8961 588.3277,-340.1023 577.7356,-340.3434 580.1979,-346.8961"/>
</g>
<!-- PStop&#45;&gt;CalculateRefsGeometryModel -->
<g id="edge47" class="edge">
<title>PStop&#45;&gt;CalculateRefsGeometryModel</title>
<path fill="none" stroke="#000000" d="M602.9631,-519.8314C614.1715,-510.9632 627.8209,-500.1637 639.9439,-490.5718"/>
<polygon fill="#000000" stroke="#000000" points="642.3737,-493.1125 648.0442,-484.1628 638.0303,-487.6229 642.3737,-493.1125"/>
</g>
<!-- PStop&#45;&gt;PrepareOutput -->
<g id="edge59" class="edge">
<title>PStop&#45;&gt;PrepareOutput</title>
<path fill="none" stroke="#000000" d="M559.8126,-519.8314C550.1486,-511.1337 538.4204,-500.5783 527.9184,-491.1265"/>
<polygon fill="#000000" stroke="#000000" points="529.9553,-488.251 520.1809,-484.1628 525.2725,-493.454 529.9553,-488.251"/>
</g>
<!-- InputDelP&#45;&gt;CalculateRefsGeometryModel -->
<g id="edge48" class="edge">
<title>InputDelP&#45;&gt;CalculateRefsGeometryModel</title>
<path fill="none" stroke="#000000" d="M735.2986,-519.8314C724.8079,-511.0485 712.0545,-500.3712 700.6806,-490.8489"/>
<polygon fill="#000000" stroke="#000000" points="702.6089,-487.8986 692.6945,-484.1628 698.1153,-493.2659 702.6089,-487.8986"/>
</g>
<!-- InputDelP&#45;&gt;PrepareOutput -->
<g id="edge60" class="edge">
<title>InputDelP&#45;&gt;PrepareOutput</title>
<path fill="none" stroke="#000000" d="M718.9213,-522.9573C715.9182,-521.9118 712.9189,-520.9124 710,-520 645.7994,-499.9321 628.0165,-501.2426 563,-484 562.9004,-483.9736 562.8006,-483.9471 562.7008,-483.9206"/>
<polygon fill="#000000" stroke="#000000" points="563.8032,-480.593 553.2366,-481.3647 561.9782,-487.3509 563.8032,-480.593"/>
</g>
<!-- TStart&#45;&gt;CalculateRefsGeometryModel -->
<g id="edge49" class="edge">
<title>TStart&#45;&gt;CalculateRefsGeometryModel</title>
<path fill="none" stroke="#000000" d="M812.9819,-524.2082C809.9675,-522.754 806.9288,-521.3244 804,-520 779.2525,-508.8097 751.4714,-497.3605 727.7249,-487.9008"/>
<polygon fill="#000000" stroke="#000000" points="728.744,-484.5399 718.1578,-484.11 726.1653,-491.0477 728.744,-484.5399"/>
</g>
<!-- TStart&#45;&gt;PrepareOutput -->
<g id="edge61" class="edge">
<title>TStart&#45;&gt;PrepareOutput</title>
<path fill="none" stroke="#000000" d="M812.8567,-523.3178C809.9193,-522.0656 806.9318,-520.9261 804,-520 700.7302,-487.3788 668.8454,-506.9245 563,-484 562.8992,-483.9782 562.7984,-483.9563 562.6975,-483.9343"/>
<polygon fill="#000000" stroke="#000000" points="563.6861,-480.5709 553.1529,-481.7123 562.0988,-487.3886 563.6861,-480.5709"/>
</g>
<!-- TStart&#45;&gt;CalculateGlobalAnglesAndDirections -->
<g id="edge78" class="edge">
<title>TStart&#45;&gt;CalculateGlobalAnglesAndDirections</title>
<path fill="none" stroke="#000000" d="M837.1899,-519.7964C831.3376,-487.3387 815.0791,-418.865 777,-376 765.8589,-363.4587 751.3434,-353.1649 736.5577,-344.9166"/>
<polygon fill="#000000" stroke="#000000" points="737.8204,-341.6251 727.3443,-340.0433 734.5475,-347.8128 737.8204,-341.6251"/>
</g>
<!-- TStop&#45;&gt;CalculateRefsGeometryModel -->
<g id="edge50" class="edge">
<title>TStop&#45;&gt;CalculateRefsGeometryModel</title>
<path fill="none" stroke="#000000" d="M535.0402,-524.2565C538.0504,-522.7932 541.0821,-521.3483 544,-520 567.7884,-509.0082 594.4323,-497.5517 617.1493,-488.034"/>
<polygon fill="#000000" stroke="#000000" points="618.7437,-491.1613 626.625,-484.0807 616.0484,-484.701 618.7437,-491.1613"/>
</g>
<!-- TStop&#45;&gt;PrepareOutput -->
<g id="edge62" class="edge">
<title>TStop&#45;&gt;PrepareOutput</title>
<path fill="none" stroke="#000000" d="M505.9813,-519.8314C505.1257,-512.131 504.1083,-502.9743 503.1574,-494.4166"/>
<polygon fill="#000000" stroke="#000000" points="506.6289,-493.9656 502.0459,-484.4133 499.6717,-494.7386 506.6289,-493.9656"/>
</g>
<!-- InputDelT&#45;&gt;CalculateRefsGeometryModel -->
<g id="edge51" class="edge">
<title>InputDelT&#45;&gt;CalculateRefsGeometryModel</title>
<path fill="none" stroke="#000000" d="M665.0187,-519.8314C665.8743,-512.131 666.8917,-502.9743 667.8426,-494.4166"/>
<polygon fill="#000000" stroke="#000000" points="671.3283,-494.7386 668.9541,-484.4133 664.3711,-493.9656 671.3283,-494.7386"/>
</g>
<!-- InputDelT&#45;&gt;PrepareOutput -->
<g id="edge63" class="edge">
<title>InputDelT&#45;&gt;PrepareOutput</title>
<path fill="none" stroke="#000000" d="M625.1948,-521.3008C602.944,-511.4722 574.5239,-498.9185 550.3875,-488.2571"/>
<polygon fill="#000000" stroke="#000000" points="551.5881,-484.9612 541.0265,-484.1222 548.7597,-491.3643 551.5881,-484.9612"/>
</g>
<!-- Corr&#45;&gt;PrepareOutput -->
<g id="edge55" class="edge">
<title>Corr&#45;&gt;PrepareOutput</title>
<path fill="none" stroke="#000000" d="M391.1948,-523.6028C409.9827,-513.6562 435.3656,-500.2182 456.8891,-488.8234"/>
<polygon fill="#000000" stroke="#000000" points="458.6465,-491.8533 465.8467,-484.0811 455.3712,-485.6668 458.6465,-491.8533"/>
</g>
<!-- Delstd&#45;&gt;PrepareOutput -->
<g id="edge56" class="edge">
<title>Delstd&#45;&gt;PrepareOutput</title>
<path fill="none" stroke="#000000" d="M318.6814,-523.9859C321.7959,-522.5733 324.9466,-521.2142 328,-520 363.4494,-505.9029 404.1346,-492.988 437.0332,-483.3254"/>
<polygon fill="#000000" stroke="#000000" points="438.3537,-486.5865 446.9787,-480.4334 436.3991,-479.8649 438.3537,-486.5865"/>
</g>
<!-- IP&#45;&gt;CalculateGlobalAnglesAndDirections -->
<g id="edge74" class="edge">
<title>IP&#45;&gt;CalculateGlobalAnglesAndDirections</title>
<path fill="none" stroke="#000000" d="M613.826,-375.9891C621.7212,-367.5379 631.339,-357.2428 640.2675,-347.6855"/>
<polygon fill="#000000" stroke="#000000" points="642.9651,-349.9249 647.2342,-340.2282 637.8499,-345.1463 642.9651,-349.9249"/>
</g>
<!-- IP&#45;&gt;CalculateSphericalCoordinateSystemRadialUnitVector -->
<g id="edge83" class="edge">
<title>IP&#45;&gt;CalculateSphericalCoordinateSystemRadialUnitVector</title>
<path fill="none" stroke="#000000" d="M624.2074,-379.5099C627.1323,-378.2203 630.0994,-377.0195 633,-376 770.2156,-327.7728 860.299,-382.3116 939,-260 952.7095,-238.6937 954.5209,-209.7472 953.2908,-187.6426"/>
<polygon fill="#000000" stroke="#000000" points="956.7587,-187.0974 952.4814,-177.4044 949.7805,-187.6492 956.7587,-187.0974"/>
</g>
<!-- IP&#45;&gt;CalculateIncidentFieldInGlobalCartesianCoordinates -->
<g id="edge90" class="edge">
<title>IP&#45;&gt;CalculateIncidentFieldInGlobalCartesianCoordinates</title>
<path fill="none" stroke="#000000" d="M569.9127,-385.829C482.1183,-359.2234 210.4064,-275.8758 199,-260 186.8116,-243.0357 189.983,-231.8425 199,-213 204.4672,-201.5753 213.4045,-191.6832 223.1532,-183.4643"/>
<polygon fill="#000000" stroke="#000000" points="225.3871,-186.1603 231.0947,-177.2343 221.0665,-180.6528 225.3871,-186.1603"/>
</g>
<!-- IT&#45;&gt;CalculateGlobalAnglesAndDirections -->
<g id="edge75" class="edge">
<title>IT&#45;&gt;CalculateGlobalAnglesAndDirections</title>
<path fill="none" stroke="#000000" d="M817.7317,-382.2916C794.0916,-372.141 759.0184,-357.0813 728.7588,-344.0885"/>
<polygon fill="#000000" stroke="#000000" points="730.1101,-340.8598 719.5404,-340.1303 727.3482,-347.2919 730.1101,-340.8598"/>
</g>
<!-- IT&#45;&gt;CalculateSphericalCoordinateSystemRadialUnitVector -->
<g id="edge84" class="edge">
<title>IT&#45;&gt;CalculateSphericalCoordinateSystemRadialUnitVector</title>
<path fill="none" stroke="#000000" d="M872.4622,-388.9054C898.5348,-382.4521 936.2943,-368.5311 954,-340 983.0046,-293.2619 970.9791,-226.2984 959.8299,-187.0639"/>
<polygon fill="#000000" stroke="#000000" points="963.1115,-185.8214 956.8918,-177.2443 956.4052,-187.8279 963.1115,-185.8214"/>
</g>
<!-- IT&#45;&gt;CalculateIncidentFieldInGlobalCartesianCoordinates -->
<g id="edge91" class="edge">
<title>IT&#45;&gt;CalculateIncidentFieldInGlobalCartesianCoordinates</title>
<path fill="none" stroke="#000000" d="M848.1707,-375.7698C854.8696,-334.6463 868.1841,-236.4243 847,-213 820.5518,-183.7549 610.0825,-168.5696 451.1426,-161.1963"/>
<polygon fill="#000000" stroke="#000000" points="450.8998,-157.6816 440.7505,-160.7218 450.5804,-164.6743 450.8998,-157.6816"/>
</g>
<!-- DelP&#45;&gt;CalculateGlobalAnglesAndDirections -->
<g id="edge77" class="edge">
<title>DelP&#45;&gt;CalculateGlobalAnglesAndDirections</title>
<path fill="none" stroke="#000000" d="M668.763,-375.9891C668.6617,-368.291 668.5403,-359.0629 668.4244,-350.2561"/>
<polygon fill="#000000" stroke="#000000" points="671.9238,-350.1813 668.2925,-340.2282 664.9244,-350.2734 671.9238,-350.1813"/>
</g>
<!-- DelT&#45;&gt;CalculateGlobalAnglesAndDirections -->
<g id="edge79" class="edge">
<title>DelT&#45;&gt;CalculateGlobalAnglesAndDirections</title>
<path fill="none" stroke="#000000" d="M723.7,-375.9891C715.5825,-367.5379 705.6937,-357.2428 696.5137,-347.6855"/>
<polygon fill="#000000" stroke="#000000" points="698.8023,-345.0157 689.3508,-340.2282 693.7539,-349.8648 698.8023,-345.0157"/>
</g>
<!-- Phi&#45;&gt;CalculateGlobalAnglesAndDirections -->
<g id="edge80" class="edge">
<title>Phi&#45;&gt;CalculateGlobalAnglesAndDirections</title>
<path fill="none" stroke="#000000" d="M728.9336,-254.6254C721.345,-264.4857 710.7696,-276.9333 700.5066,-288.1811"/>
<polygon fill="#000000" stroke="#000000" points="697.7352,-286.0218 693.4919,-295.7298 702.863,-290.7869 697.7352,-286.0218"/>
</g>
<!-- Theta&#45;&gt;CalculateGlobalAnglesAndDirections -->
<g id="edge81" class="edge">
<title>Theta&#45;&gt;CalculateGlobalAnglesAndDirections</title>
<path fill="none" stroke="#000000" d="M792.5829,-254.6966C789.7356,-256.5208 786.8209,-258.3185 784,-260 766.144,-270.6434 746.21,-281.6719 727.9214,-291.2178"/>
<polygon fill="#000000" stroke="#000000" points="726.0916,-288.2234 718.8107,-295.9201 729.3021,-294.4438 726.0916,-288.2234"/>
</g>
<!-- U&#45;&gt;CalculateSphericalCoordinateSystemRadialUnitVector -->
<g id="edge85" class="edge">
<title>U&#45;&gt;CalculateSphericalCoordinateSystemRadialUnitVector</title>
<path fill="none" stroke="#000000" d="M619.8773,-218.4837C623.4899,-216.4011 627.2561,-214.4926 631,-213 672.6788,-196.3836 719.3419,-184.4889 763.8105,-175.9874"/>
<polygon fill="#000000" stroke="#000000" points="764.6691,-179.3878 773.8593,-174.1162 763.3875,-172.5061 764.6691,-179.3878"/>
</g>
<!-- V&#45;&gt;CalculateSphericalCoordinateSystemRadialUnitVector -->
<g id="edge86" class="edge">
<title>V&#45;&gt;CalculateSphericalCoordinateSystemRadialUnitVector</title>
<path fill="none" stroke="#000000" d="M692.3516,-218.4277C695.8293,-216.4065 699.4327,-214.529 703,-213 735.994,-198.858 773.0225,-187.8316 808.1375,-179.3736"/>
<polygon fill="#000000" stroke="#000000" points="809.0539,-182.7536 817.9861,-177.0557 807.4501,-175.9398 809.0539,-182.7536"/>
</g>
<!-- W&#45;&gt;CalculateSphericalCoordinateSystemRadialUnitVector -->
<g id="edge87" class="edge">
<title>W&#45;&gt;CalculateSphericalCoordinateSystemRadialUnitVector</title>
<path fill="none" stroke="#000000" d="M913.2089,-218.4125C918.5853,-208.8868 925.3291,-196.9387 931.509,-185.9894"/>
<polygon fill="#000000" stroke="#000000" points="934.6579,-187.5311 936.5252,-177.1021 928.5618,-184.0903 934.6579,-187.5311"/>
</g>
<!-- UU&#45;&gt;CalculateIncidentFieldInGlobalCartesianCoordinates -->
<g id="edge92" class="edge">
<title>UU&#45;&gt;CalculateIncidentFieldInGlobalCartesianCoordinates</title>
<path fill="none" stroke="#000000" d="M424.6137,-218.449C421.4278,-216.5177 418.1767,-214.6563 415,-213 392.2102,-201.1176 366.4176,-190.0397 343.0216,-180.8156"/>
<polygon fill="#000000" stroke="#000000" points="344.0904,-177.4759 333.5018,-177.1113 341.5519,-183.9995 344.0904,-177.4759"/>
</g>
<!-- VV&#45;&gt;CalculateIncidentFieldInGlobalCartesianCoordinates -->
<g id="edge93" class="edge">
<title>VV&#45;&gt;CalculateIncidentFieldInGlobalCartesianCoordinates</title>
<path fill="none" stroke="#000000" d="M497.2018,-218.2974C493.8565,-216.3473 490.407,-214.5228 487,-213 456.4007,-199.3231 421.8785,-188.2753 389.5579,-179.6385"/>
<polygon fill="#000000" stroke="#000000" points="390.1651,-176.1796 379.6048,-177.0352 388.3937,-182.9518 390.1651,-176.1796"/>
</g>
<!-- WW&#45;&gt;CalculateIncidentFieldInGlobalCartesianCoordinates -->
<g id="edge94" class="edge">
<title>WW&#45;&gt;CalculateIncidentFieldInGlobalCartesianCoordinates</title>
<path fill="none" stroke="#000000" d="M355.0313,-218.4125C341.3985,-208.1248 324.0213,-195.0114 308.6112,-183.3825"/>
<polygon fill="#000000" stroke="#000000" points="310.3792,-180.332 300.2887,-177.1021 306.1626,-185.9195 310.3792,-180.332"/>
</g>
<!-- Et&#45;&gt;CalculateIncidentFieldInGlobalCartesianCoordinates -->
<g id="edge95" class="edge">
<title>Et&#45;&gt;CalculateIncidentFieldInGlobalCartesianCoordinates</title>
<path fill="none" stroke="#000000" d="M97.3173,-218.3131C100.5155,-216.4062 103.7884,-214.5877 107,-213 132.3173,-200.4841 161.0223,-189.3726 187.2616,-180.3096"/>
<polygon fill="#000000" stroke="#000000" points="188.4652,-183.5973 196.8063,-177.0645 186.2119,-176.9698 188.4652,-183.5973"/>
</g>
<!-- Ep&#45;&gt;CalculateIncidentFieldInGlobalCartesianCoordinates -->
<g id="edge96" class="edge">
<title>Ep&#45;&gt;CalculateIncidentFieldInGlobalCartesianCoordinates</title>
<path fill="none" stroke="#000000" d="M170.1455,-219.2159C186.8189,-208.5997 208.5546,-194.7601 227.5765,-182.6485"/>
<polygon fill="#000000" stroke="#000000" points="229.542,-185.5464 236.0974,-177.2231 225.7823,-179.6417 229.542,-185.5464"/>
</g>
<!-- SP&#45;&gt;CalculateIncidentFieldInGlobalCartesianCoordinates -->
<g id="edge97" class="edge">
<title>SP&#45;&gt;CalculateIncidentFieldInGlobalCartesianCoordinates</title>
<path fill="none" stroke="#000000" d="M242.9896,-218.4125C247.1552,-208.9821 252.3695,-197.1774 257.1662,-186.3182"/>
<polygon fill="#000000" stroke="#000000" points="260.3981,-187.6637 261.2371,-177.1021 253.9949,-184.8352 260.3981,-187.6637"/>
</g>
<!-- CP&#45;&gt;CalculateIncidentFieldInGlobalCartesianCoordinates -->
<g id="edge98" class="edge">
<title>CP&#45;&gt;CalculateIncidentFieldInGlobalCartesianCoordinates</title>
<path fill="none" stroke="#000000" d="M299.0104,-218.4125C294.8448,-208.9821 289.6305,-197.1774 284.8338,-186.3182"/>
<polygon fill="#000000" stroke="#000000" points="288.0051,-184.8352 280.7629,-177.1021 281.6019,-187.6637 288.0051,-184.8352"/>
</g>
<!-- InputModel_input_port -->
<g id="node58" class="node">
<title>InputModel_input_port</title>
<ellipse fill="#ffffff" stroke="#000000" cx="1429" cy="-754" rx="7" ry="7"/>
</g>
<!-- InputModel_input_port&#45;&gt;InputModel -->
<g id="edge100" class="edge">
<title>InputModel_input_port&#45;&gt;InputModel</title>
<path fill="none" stroke="#000000" d="M1429,-746.8833C1429,-739.3926 1429,-727.1215 1429,-715.6728"/>
<polygon fill="#000000" stroke="#000000" points="1432.5001,-715.5506 1429,-705.5507 1425.5001,-715.5507 1432.5001,-715.5506"/>
</g>
<!-- InputDataFileName_input_port -->
<g id="node59" class="node">
<title>InputDataFileName_input_port</title>
<ellipse fill="#ffffff" stroke="#000000" cx="389" cy="-754" rx="7" ry="7"/>
</g>
<!-- InputDataFileName_input_port&#45;&gt;InputDataFileName -->
<g id="edge101" class="edge">
<title>InputDataFileName_input_port&#45;&gt;InputDataFileName</title>
<path fill="none" stroke="#000000" d="M389,-746.8833C389,-739.3926 389,-727.1215 389,-715.6728"/>
<polygon fill="#000000" stroke="#000000" points="392.5001,-715.5506 389,-705.5507 385.5001,-715.5507 392.5001,-715.5506"/>
</g>
<!-- CoordinatesFile_input_port -->
<g id="node60" class="node">
<title>CoordinatesFile_input_port</title>
<ellipse fill="#ffffff" stroke="#000000" cx="1268" cy="-754" rx="7" ry="7"/>
</g>
<!-- CoordinatesFile_input_port&#45;&gt;CoordinatesFile -->
<g id="edge102" class="edge">
<title>CoordinatesFile_input_port&#45;&gt;CoordinatesFile</title>
<path fill="none" stroke="#000000" d="M1268,-746.8833C1268,-740.5172 1268,-730.6982 1268,-720.8657"/>
<polygon fill="#000000" stroke="#000000" points="1271.5001,-720.7584 1268,-710.7585 1264.5001,-720.7585 1271.5001,-720.7584"/>
</g>
<!-- FacetsFile_input_port -->
<g id="node61" class="node">
<title>FacetsFile_input_port</title>
<ellipse fill="#ffffff" stroke="#000000" cx="1574" cy="-754" rx="7" ry="7"/>
</g>
<!-- FacetsFile_input_port&#45;&gt;FacetsFile -->
<g id="edge103" class="edge">
<title>FacetsFile_input_port&#45;&gt;FacetsFile</title>
<path fill="none" stroke="#000000" d="M1574,-746.8833C1574,-740.5172 1574,-730.6982 1574,-720.8657"/>
<polygon fill="#000000" stroke="#000000" points="1577.5001,-720.7584 1574,-710.7585 1570.5001,-720.7585 1577.5001,-720.7584"/>
</g>
<!-- InputDataFile_input_port -->
<g id="node62" class="node">
<title>InputDataFile_input_port</title>
<ellipse fill="#ffffff" stroke="#000000" cx="556" cy="-754" rx="7" ry="7"/>
</g>
<!-- InputDataFile_input_port&#45;&gt;InputDataFile -->
<g id="edge104" class="edge">
<title>InputDataFile_input_port&#45;&gt;InputDataFile</title>
<path fill="none" stroke="#000000" d="M556,-746.8833C556,-740.5172 556,-730.6982 556,-720.8657"/>
<polygon fill="#000000" stroke="#000000" points="559.5001,-720.7584 556,-710.7585 552.5001,-720.7585 559.5001,-720.7584"/>
</g>
</g>
</svg>
