<?xml version="1.0" encoding="UTF-8" standalone="no"?>
<!DOCTYPE svg PUBLIC "-//W3C//DTD SVG 1.1//EN"
 "http://www.w3.org/Graphics/SVG/1.1/DTD/svg11.dtd">
<!-- Generated by graphviz version 2.40.1 (20161225.0304)
 -->
<!-- Title: Workflow Pages: 1 -->
<svg width="1673pt" height="677pt"
 viewBox="0.00 0.00 1673.00 677.00" xmlns="http://www.w3.org/2000/svg" xmlns:xlink="http://www.w3.org/1999/xlink">
<g id="graph0" class="graph" transform="scale(1 1) rotate(0) translate(4 673)">
<title>Workflow</title>
<polygon fill="#ffffff" stroke="transparent" points="-4,4 -4,-673 1669,-673 1669,4 -4,4"/>
<text text-anchor="middle" x="832.5" y="-650.6" font-family="Helvetica,sans-Serif" font-size="18.00" fill="#000000">PyPOFacetsMonolithicExperimentModeYW</text>
<g id="clust1" class="cluster">
<title>cluster_workflow_box_outer</title>
<polygon fill="none" stroke="#000000" stroke-width="2" points="8,-8 8,-607 1611,-607 1611,-8 8,-8"/>
</g>
<g id="clust2" class="cluster">
<title>cluster_workflow_box_inner</title>
<polygon fill="none" stroke="#000000" stroke-width="0" points="16,-16 16,-599 1603,-599 1603,-16 16,-16"/>
</g>
<!-- ReadInputParameters -->
<g id="node1" class="node">
<title>ReadInputParameters</title>
<polygon fill="#ccffcc" stroke="#000000" points="710.5,-508 561.5,-508 561.5,-472 710.5,-472 710.5,-508"/>
<text text-anchor="middle" x="636" y="-486.3" font-family="Helvetica,sans-Serif" font-size="14.00" fill="#000000">ReadInputParameters</text>
</g>
<!-- Frequency -->
<g id="node17" class="node">
<title>Frequency</title>
<path fill="#ffffcc" stroke="#000000" d="M1059,-436C1059,-436 1003,-436 1003,-436 997,-436 991,-430 991,-424 991,-424 991,-412 991,-412 991,-406 997,-400 1003,-400 1003,-400 1059,-400 1059,-400 1065,-400 1071,-406 1071,-412 1071,-412 1071,-424 1071,-424 1071,-430 1065,-436 1059,-436"/>
<text text-anchor="middle" x="1031" y="-414.3" font-family="Helvetica,sans-Serif" font-size="14.00" fill="#000000">Frequency</text>
</g>
<!-- ReadInputParameters&#45;&gt;Frequency -->
<g id="edge1" class="edge">
<title>ReadInputParameters&#45;&gt;Frequency</title>
<path fill="none" stroke="#000000" d="M710.7609,-476.3727C789.9003,-461.9473 912.6015,-439.5815 980.8577,-427.1399"/>
<polygon fill="#000000" stroke="#000000" points="981.7155,-430.5413 990.9258,-425.3047 980.4602,-423.6547 981.7155,-430.5413"/>
</g>
<!-- StartPhiAngle -->
<g id="node25" class="node">
<title>StartPhiAngle</title>
<path fill="#ffffcc" stroke="#000000" d="M195.5,-436C195.5,-436 120.5,-436 120.5,-436 114.5,-436 108.5,-430 108.5,-424 108.5,-424 108.5,-412 108.5,-412 108.5,-406 114.5,-400 120.5,-400 120.5,-400 195.5,-400 195.5,-400 201.5,-400 207.5,-406 207.5,-412 207.5,-412 207.5,-424 207.5,-424 207.5,-430 201.5,-436 195.5,-436"/>
<text text-anchor="middle" x="158" y="-414.3" font-family="Helvetica,sans-Serif" font-size="14.00" fill="#000000">StartPhiAngle</text>
</g>
<!-- ReadInputParameters&#45;&gt;StartPhiAngle -->
<g id="edge5" class="edge">
<title>ReadInputParameters&#45;&gt;StartPhiAngle</title>
<path fill="none" stroke="#000000" d="M561.1844,-484.1756C479.0062,-476.9195 343.1384,-462.3972 217.5335,-435.9114"/>
<polygon fill="#000000" stroke="#000000" points="218.2496,-432.4855 207.7387,-433.8169 216.7858,-439.3307 218.2496,-432.4855"/>
</g>
<!-- StopPhiAngle -->
<g id="node26" class="node">
<title>StopPhiAngle</title>
<path fill="#ffffcc" stroke="#000000" d="M595,-436C595,-436 521,-436 521,-436 515,-436 509,-430 509,-424 509,-424 509,-412 509,-412 509,-406 515,-400 521,-400 521,-400 595,-400 595,-400 601,-400 607,-406 607,-412 607,-412 607,-424 607,-424 607,-430 601,-436 595,-436"/>
<text text-anchor="middle" x="558" y="-414.3" font-family="Helvetica,sans-Serif" font-size="14.00" fill="#000000">StopPhiAngle</text>
</g>
<!-- ReadInputParameters&#45;&gt;StopPhiAngle -->
<g id="edge6" class="edge">
<title>ReadInputParameters&#45;&gt;StopPhiAngle</title>
<path fill="none" stroke="#000000" d="M616.3173,-471.8314C606.8949,-463.1337 595.4599,-452.5783 585.2204,-443.1265"/>
<polygon fill="#000000" stroke="#000000" points="587.3984,-440.3738 577.6764,-436.1628 582.6505,-445.5175 587.3984,-440.3738"/>
</g>
<!-- PhiIncrement -->
<g id="node27" class="node">
<title>PhiIncrement</title>
<path fill="#ffffcc" stroke="#000000" d="M763.5,-284C763.5,-284 690.5,-284 690.5,-284 684.5,-284 678.5,-278 678.5,-272 678.5,-272 678.5,-260 678.5,-260 678.5,-254 684.5,-248 690.5,-248 690.5,-248 763.5,-248 763.5,-248 769.5,-248 775.5,-254 775.5,-260 775.5,-260 775.5,-272 775.5,-272 775.5,-278 769.5,-284 763.5,-284"/>
<text text-anchor="middle" x="727" y="-262.3" font-family="Helvetica,sans-Serif" font-size="14.00" fill="#000000">PhiIncrement</text>
</g>
<!-- ReadInputParameters&#45;&gt;PhiIncrement -->
<g id="edge7" class="edge">
<title>ReadInputParameters&#45;&gt;PhiIncrement</title>
<path fill="none" stroke="#000000" d="M564.502,-471.9489C542.0271,-463.7142 518.3217,-452.0964 500,-436 486.2495,-423.9196 494.1769,-411.577 480,-400 438.8457,-366.3929 397.4085,-406.8558 366,-364 354.4401,-348.2269 353.0278,-334.6336 366,-320 410.2479,-270.085 598.6162,-297.2037 664,-284 665.4634,-283.7045 666.9424,-283.3919 668.4315,-283.0649"/>
<polygon fill="#000000" stroke="#000000" points="669.4204,-286.4277 678.3482,-280.7229 667.8115,-279.6151 669.4204,-286.4277"/>
</g>
<!-- StartThetaAngle -->
<g id="node28" class="node">
<title>StartThetaAngle</title>
<path fill="#ffffcc" stroke="#000000" d="M459,-436C459,-436 369,-436 369,-436 363,-436 357,-430 357,-424 357,-424 357,-412 357,-412 357,-406 363,-400 369,-400 369,-400 459,-400 459,-400 465,-400 471,-406 471,-412 471,-412 471,-424 471,-424 471,-430 465,-436 459,-436"/>
<text text-anchor="middle" x="414" y="-414.3" font-family="Helvetica,sans-Serif" font-size="14.00" fill="#000000">StartThetaAngle</text>
</g>
<!-- ReadInputParameters&#45;&gt;StartThetaAngle -->
<g id="edge8" class="edge">
<title>ReadInputParameters&#45;&gt;StartThetaAngle</title>
<path fill="none" stroke="#000000" d="M580.2666,-471.9243C549.654,-461.9959 511.5119,-449.6255 479.4845,-439.2382"/>
<polygon fill="#000000" stroke="#000000" points="480.3484,-435.839 469.7564,-436.0831 478.1888,-442.4975 480.3484,-435.839"/>
</g>
<!-- ThetaIncrement -->
<g id="node29" class="node">
<title>ThetaIncrement</title>
<path fill="#ffffcc" stroke="#000000" d="M894,-284C894,-284 806,-284 806,-284 800,-284 794,-278 794,-272 794,-272 794,-260 794,-260 794,-254 800,-248 806,-248 806,-248 894,-248 894,-248 900,-248 906,-254 906,-260 906,-260 906,-272 906,-272 906,-278 900,-284 894,-284"/>
<text text-anchor="middle" x="850" y="-262.3" font-family="Helvetica,sans-Serif" font-size="14.00" fill="#000000">ThetaIncrement</text>
</g>
<!-- ReadInputParameters&#45;&gt;ThetaIncrement -->
<g id="edge10" class="edge">
<title>ReadInputParameters&#45;&gt;ThetaIncrement</title>
<path fill="none" stroke="#000000" d="M634.3541,-471.9671C631.8378,-448.6 626.2155,-409.6976 616,-400 546.0512,-333.5975 464.2855,-437.6386 402,-364 389.3711,-349.0691 388.835,-334.4604 402,-320 457.583,-258.9475 684.6392,-296.6735 783.7435,-283.7894"/>
<polygon fill="#000000" stroke="#000000" points="784.4303,-287.2247 793.7711,-282.2248 783.3511,-280.3084 784.4303,-287.2247"/>
</g>
<!-- CorrelationDistance -->
<g id="node34" class="node">
<title>CorrelationDistance</title>
<path fill="#ffffcc" stroke="#000000" d="M533.5,-360C533.5,-360 422.5,-360 422.5,-360 416.5,-360 410.5,-354 410.5,-348 410.5,-348 410.5,-336 410.5,-336 410.5,-330 416.5,-324 422.5,-324 422.5,-324 533.5,-324 533.5,-324 539.5,-324 545.5,-330 545.5,-336 545.5,-336 545.5,-348 545.5,-348 545.5,-354 539.5,-360 533.5,-360"/>
<text text-anchor="middle" x="478" y="-338.3" font-family="Helvetica,sans-Serif" font-size="14.00" fill="#000000">CorrelationDistance</text>
</g>
<!-- ReadInputParameters&#45;&gt;CorrelationDistance -->
<g id="edge2" class="edge">
<title>ReadInputParameters&#45;&gt;CorrelationDistance</title>
<path fill="none" stroke="#000000" d="M640.336,-471.8659C643.9214,-452.1995 646.2535,-420.834 631,-400 625.3147,-392.2348 582.7749,-376.4379 543.9922,-363.2887"/>
<polygon fill="#000000" stroke="#000000" points="544.8319,-359.8785 534.2378,-360.0092 542.6011,-366.5136 544.8319,-359.8785"/>
</g>
<!-- StandardDeviation -->
<g id="node35" class="node">
<title>StandardDeviation</title>
<path fill="#ffffcc" stroke="#000000" d="M680,-360C680,-360 576,-360 576,-360 570,-360 564,-354 564,-348 564,-348 564,-336 564,-336 564,-330 570,-324 576,-324 576,-324 680,-324 680,-324 686,-324 692,-330 692,-336 692,-336 692,-348 692,-348 692,-354 686,-360 680,-360"/>
<text text-anchor="middle" x="628" y="-338.3" font-family="Helvetica,sans-Serif" font-size="14.00" fill="#000000">StandardDeviation</text>
</g>
<!-- ReadInputParameters&#45;&gt;StandardDeviation -->
<g id="edge3" class="edge">
<title>ReadInputParameters&#45;&gt;StandardDeviation</title>
<path fill="none" stroke="#000000" d="M642.8643,-471.6834C648.7952,-453.4657 655.7261,-424.739 651,-400 649.0237,-389.6552 645.2311,-378.8022 641.2867,-369.319"/>
<polygon fill="#000000" stroke="#000000" points="644.4223,-367.7548 637.1912,-360.0113 638.0152,-370.574 644.4223,-367.7548"/>
</g>
<!-- IncidentWavePolarization -->
<g id="node36" class="node">
<title>IncidentWavePolarization</title>
<path fill="#ffffcc" stroke="#000000" d="M868,-360C868,-360 722,-360 722,-360 716,-360 710,-354 710,-348 710,-348 710,-336 710,-336 710,-330 716,-324 722,-324 722,-324 868,-324 868,-324 874,-324 880,-330 880,-336 880,-336 880,-348 880,-348 880,-354 874,-360 868,-360"/>
<text text-anchor="middle" x="795" y="-338.3" font-family="Helvetica,sans-Serif" font-size="14.00" fill="#000000">IncidentWavePolarization</text>
</g>
<!-- ReadInputParameters&#45;&gt;IncidentWavePolarization -->
<g id="edge4" class="edge">
<title>ReadInputParameters&#45;&gt;IncidentWavePolarization</title>
<path fill="none" stroke="#000000" d="M655.4965,-471.8523C683.6288,-445.6663 735.7273,-397.172 767.6811,-367.429"/>
<polygon fill="#000000" stroke="#000000" points="770.4089,-369.6714 775.344,-360.2961 765.6396,-364.5476 770.4089,-369.6714"/>
</g>
<!-- StopThetaAngle -->
<g id="node37" class="node">
<title>StopThetaAngle</title>
<path fill="#ffffcc" stroke="#000000" d="M999.5,-360C999.5,-360 910.5,-360 910.5,-360 904.5,-360 898.5,-354 898.5,-348 898.5,-348 898.5,-336 898.5,-336 898.5,-330 904.5,-324 910.5,-324 910.5,-324 999.5,-324 999.5,-324 1005.5,-324 1011.5,-330 1011.5,-336 1011.5,-336 1011.5,-348 1011.5,-348 1011.5,-354 1005.5,-360 999.5,-360"/>
<text text-anchor="middle" x="955" y="-338.3" font-family="Helvetica,sans-Serif" font-size="14.00" fill="#000000">StopThetaAngle</text>
</g>
<!-- ReadInputParameters&#45;&gt;StopThetaAngle -->
<g id="edge9" class="edge">
<title>ReadInputParameters&#45;&gt;StopThetaAngle</title>
<path fill="none" stroke="#000000" d="M675.1157,-471.8523C733.5091,-444.7607 843.369,-393.7912 906.6929,-364.4121"/>
<polygon fill="#000000" stroke="#000000" points="908.4656,-367.448 916.0639,-360.0644 905.5196,-361.0981 908.4656,-367.448"/>
</g>
<!-- CalculateWaveLength -->
<g id="node2" class="node">
<title>CalculateWaveLength</title>
<polygon fill="#ccffcc" stroke="#000000" points="1198.5,-360 1049.5,-360 1049.5,-324 1198.5,-324 1198.5,-360"/>
<text text-anchor="middle" x="1124" y="-338.3" font-family="Helvetica,sans-Serif" font-size="14.00" fill="#000000">CalculateWaveLength</text>
</g>
<!-- WaveLength -->
<g id="node50" class="node">
<title>WaveLength</title>
<path fill="#fcfcfc" stroke="#000000" d="M1165.5,-284C1165.5,-284 1096.5,-284 1096.5,-284 1090.5,-284 1084.5,-278 1084.5,-272 1084.5,-272 1084.5,-260 1084.5,-260 1084.5,-254 1090.5,-248 1096.5,-248 1096.5,-248 1165.5,-248 1165.5,-248 1171.5,-248 1177.5,-254 1177.5,-260 1177.5,-260 1177.5,-272 1177.5,-272 1177.5,-278 1171.5,-284 1165.5,-284"/>
<text text-anchor="middle" x="1131" y="-262.3" font-family="Helvetica,sans-Serif" font-size="14.00" fill="#000000">WaveLength</text>
</g>
<!-- CalculateWaveLength&#45;&gt;WaveLength -->
<g id="edge12" class="edge">
<title>CalculateWaveLength&#45;&gt;WaveLength</title>
<path fill="none" stroke="#000000" d="M1125.6589,-323.9891C1126.4724,-315.1566 1127.4715,-304.3099 1128.3845,-294.3965"/>
<polygon fill="#000000" stroke="#000000" points="1131.8967,-294.4239 1129.3287,-284.145 1124.9262,-293.7818 1131.8967,-294.4239"/>
</g>
<!-- CalculateIncidentWavePolarization -->
<g id="node3" class="node">
<title>CalculateIncidentWavePolarization</title>
<polygon fill="#ccffcc" stroke="#000000" points="277,-212 51,-212 51,-176 277,-176 277,-212"/>
<text text-anchor="middle" x="164" y="-190.3" font-family="Helvetica,sans-Serif" font-size="14.00" fill="#000000">CalculateIncidentWavePolarization</text>
</g>
<!-- Et -->
<g id="node46" class="node">
<title>Et</title>
<path fill="#ffffcc" stroke="#000000" d="M179,-140C179,-140 149,-140 149,-140 143,-140 137,-134 137,-128 137,-128 137,-116 137,-116 137,-110 143,-104 149,-104 149,-104 179,-104 179,-104 185,-104 191,-110 191,-116 191,-116 191,-128 191,-128 191,-134 185,-140 179,-140"/>
<text text-anchor="middle" x="164" y="-118.3" font-family="Helvetica,sans-Serif" font-size="14.00" fill="#000000">Et</text>
</g>
<!-- CalculateIncidentWavePolarization&#45;&gt;Et -->
<g id="edge14" class="edge">
<title>CalculateIncidentWavePolarization&#45;&gt;Et</title>
<path fill="none" stroke="#000000" d="M164,-175.8314C164,-168.131 164,-158.9743 164,-150.4166"/>
<polygon fill="#000000" stroke="#000000" points="167.5001,-150.4132 164,-140.4133 160.5001,-150.4133 167.5001,-150.4132"/>
</g>
<!-- Ep -->
<g id="node47" class="node">
<title>Ep</title>
<path fill="#ffffcc" stroke="#000000" d="M251,-140C251,-140 221,-140 221,-140 215,-140 209,-134 209,-128 209,-128 209,-116 209,-116 209,-110 215,-104 221,-104 221,-104 251,-104 251,-104 257,-104 263,-110 263,-116 263,-116 263,-128 263,-128 263,-134 257,-140 251,-140"/>
<text text-anchor="middle" x="236" y="-118.3" font-family="Helvetica,sans-Serif" font-size="14.00" fill="#000000">Ep</text>
</g>
<!-- CalculateIncidentWavePolarization&#45;&gt;Ep -->
<g id="edge15" class="edge">
<title>CalculateIncidentWavePolarization&#45;&gt;Ep</title>
<path fill="none" stroke="#000000" d="M182.1686,-175.8314C190.7152,-167.2848 201.0557,-156.9443 210.3802,-147.6198"/>
<polygon fill="#000000" stroke="#000000" points="212.9905,-149.9592 217.5867,-140.4133 208.0408,-145.0095 212.9905,-149.9592"/>
</g>
<!-- ReadModelCoordinates -->
<g id="node4" class="node">
<title>ReadModelCoordinates</title>
<polygon fill="#ccffcc" stroke="#000000" points="1375.5,-508 1216.5,-508 1216.5,-472 1375.5,-472 1375.5,-508"/>
<text text-anchor="middle" x="1296" y="-486.3" font-family="Helvetica,sans-Serif" font-size="14.00" fill="#000000">ReadModelCoordinates</text>
</g>
<!-- XPoints -->
<g id="node22" class="node">
<title>XPoints</title>
<path fill="#ffffcc" stroke="#000000" d="M1322.5,-436C1322.5,-436 1283.5,-436 1283.5,-436 1277.5,-436 1271.5,-430 1271.5,-424 1271.5,-424 1271.5,-412 1271.5,-412 1271.5,-406 1277.5,-400 1283.5,-400 1283.5,-400 1322.5,-400 1322.5,-400 1328.5,-400 1334.5,-406 1334.5,-412 1334.5,-412 1334.5,-424 1334.5,-424 1334.5,-430 1328.5,-436 1322.5,-436"/>
<text text-anchor="middle" x="1303" y="-414.3" font-family="Helvetica,sans-Serif" font-size="14.00" fill="#000000">XPoints</text>
</g>
<!-- ReadModelCoordinates&#45;&gt;XPoints -->
<g id="edge17" class="edge">
<title>ReadModelCoordinates&#45;&gt;XPoints</title>
<path fill="none" stroke="#000000" d="M1297.7664,-471.8314C1298.515,-464.131 1299.4053,-454.9743 1300.2373,-446.4166"/>
<polygon fill="#000000" stroke="#000000" points="1303.7256,-446.7051 1301.2098,-436.4133 1296.7585,-446.0276 1303.7256,-446.7051"/>
</g>
<!-- YPoints -->
<g id="node23" class="node">
<title>YPoints</title>
<path fill="#ffffcc" stroke="#000000" d="M1403.5,-436C1403.5,-436 1364.5,-436 1364.5,-436 1358.5,-436 1352.5,-430 1352.5,-424 1352.5,-424 1352.5,-412 1352.5,-412 1352.5,-406 1358.5,-400 1364.5,-400 1364.5,-400 1403.5,-400 1403.5,-400 1409.5,-400 1415.5,-406 1415.5,-412 1415.5,-412 1415.5,-424 1415.5,-424 1415.5,-430 1409.5,-436 1403.5,-436"/>
<text text-anchor="middle" x="1384" y="-414.3" font-family="Helvetica,sans-Serif" font-size="14.00" fill="#000000">YPoints</text>
</g>
<!-- ReadModelCoordinates&#45;&gt;YPoints -->
<g id="edge18" class="edge">
<title>ReadModelCoordinates&#45;&gt;YPoints</title>
<path fill="none" stroke="#000000" d="M1318.2061,-471.8314C1329.045,-462.9632 1342.2444,-452.1637 1353.9678,-442.5718"/>
<polygon fill="#000000" stroke="#000000" points="1356.2777,-445.2041 1361.801,-436.1628 1351.845,-439.7864 1356.2777,-445.2041"/>
</g>
<!-- ZPoints -->
<g id="node24" class="node">
<title>ZPoints</title>
<path fill="#ffffcc" stroke="#000000" d="M1241,-436C1241,-436 1203,-436 1203,-436 1197,-436 1191,-430 1191,-424 1191,-424 1191,-412 1191,-412 1191,-406 1197,-400 1203,-400 1203,-400 1241,-400 1241,-400 1247,-400 1253,-406 1253,-412 1253,-412 1253,-424 1253,-424 1253,-430 1247,-436 1241,-436"/>
<text text-anchor="middle" x="1222" y="-414.3" font-family="Helvetica,sans-Serif" font-size="14.00" fill="#000000">ZPoints</text>
</g>
<!-- ReadModelCoordinates&#45;&gt;ZPoints -->
<g id="edge19" class="edge">
<title>ReadModelCoordinates&#45;&gt;ZPoints</title>
<path fill="none" stroke="#000000" d="M1277.3267,-471.8314C1268.4751,-463.219 1257.7514,-452.7851 1248.1105,-443.4048"/>
<polygon fill="#000000" stroke="#000000" points="1250.2754,-440.6279 1240.6674,-436.1628 1245.3939,-445.645 1250.2754,-440.6279"/>
</g>
<!-- ReadFacetsModel -->
<g id="node5" class="node">
<title>ReadFacetsModel</title>
<polygon fill="#ccffcc" stroke="#000000" points="1570.5,-508 1443.5,-508 1443.5,-472 1570.5,-472 1570.5,-508"/>
<text text-anchor="middle" x="1507" y="-486.3" font-family="Helvetica,sans-Serif" font-size="14.00" fill="#000000">ReadFacetsModel</text>
</g>
<!-- Facets -->
<g id="node21" class="node">
<title>Facets</title>
<path fill="#ffffcc" stroke="#000000" d="M1523.5,-436C1523.5,-436 1490.5,-436 1490.5,-436 1484.5,-436 1478.5,-430 1478.5,-424 1478.5,-424 1478.5,-412 1478.5,-412 1478.5,-406 1484.5,-400 1490.5,-400 1490.5,-400 1523.5,-400 1523.5,-400 1529.5,-400 1535.5,-406 1535.5,-412 1535.5,-412 1535.5,-424 1535.5,-424 1535.5,-430 1529.5,-436 1523.5,-436"/>
<text text-anchor="middle" x="1507" y="-414.3" font-family="Helvetica,sans-Serif" font-size="14.00" fill="#000000">Facets</text>
</g>
<!-- ReadFacetsModel&#45;&gt;Facets -->
<g id="edge22" class="edge">
<title>ReadFacetsModel&#45;&gt;Facets</title>
<path fill="none" stroke="#000000" d="M1507,-471.8314C1507,-464.131 1507,-454.9743 1507,-446.4166"/>
<polygon fill="#000000" stroke="#000000" points="1510.5001,-446.4132 1507,-436.4133 1503.5001,-446.4133 1510.5001,-446.4132"/>
</g>
<!-- GenerateTransposeMatrix -->
<g id="node6" class="node">
<title>GenerateTransposeMatrix</title>
<polygon fill="#ccffcc" stroke="#000000" points="1594.5,-360 1419.5,-360 1419.5,-324 1594.5,-324 1594.5,-360"/>
<text text-anchor="middle" x="1507" y="-338.3" font-family="Helvetica,sans-Serif" font-size="14.00" fill="#000000">GenerateTransposeMatrix</text>
</g>
<!-- Node1 -->
<g id="node30" class="node">
<title>Node1</title>
<path fill="#ffffcc" stroke="#000000" d="M1363,-284C1363,-284 1331,-284 1331,-284 1325,-284 1319,-278 1319,-272 1319,-272 1319,-260 1319,-260 1319,-254 1325,-248 1331,-248 1331,-248 1363,-248 1363,-248 1369,-248 1375,-254 1375,-260 1375,-260 1375,-272 1375,-272 1375,-278 1369,-284 1363,-284"/>
<text text-anchor="middle" x="1347" y="-262.3" font-family="Helvetica,sans-Serif" font-size="14.00" fill="#000000">Node1</text>
</g>
<!-- GenerateTransposeMatrix&#45;&gt;Node1 -->
<g id="edge25" class="edge">
<title>GenerateTransposeMatrix&#45;&gt;Node1</title>
<path fill="none" stroke="#000000" d="M1468.4397,-323.9638C1446.2565,-313.5547 1417.6487,-300.0754 1384.678,-284.3029"/>
<polygon fill="#000000" stroke="#000000" points="1385.7954,-280.9574 1375.2647,-279.7941 1382.7715,-287.2705 1385.7954,-280.9574"/>
</g>
<!-- Node2 -->
<g id="node31" class="node">
<title>Node2</title>
<path fill="#ffffcc" stroke="#000000" d="M1437,-284C1437,-284 1405,-284 1405,-284 1399,-284 1393,-278 1393,-272 1393,-272 1393,-260 1393,-260 1393,-254 1399,-248 1405,-248 1405,-248 1437,-248 1437,-248 1443,-248 1449,-254 1449,-260 1449,-260 1449,-272 1449,-272 1449,-278 1443,-284 1437,-284"/>
<text text-anchor="middle" x="1421" y="-262.3" font-family="Helvetica,sans-Serif" font-size="14.00" fill="#000000">Node2</text>
</g>
<!-- GenerateTransposeMatrix&#45;&gt;Node2 -->
<g id="edge26" class="edge">
<title>GenerateTransposeMatrix&#45;&gt;Node2</title>
<path fill="none" stroke="#000000" d="M1486.6192,-323.9891C1475.4549,-314.123 1461.4469,-301.7438 1449.2434,-290.9593"/>
<polygon fill="#000000" stroke="#000000" points="1451.3436,-288.1444 1441.5325,-284.145 1446.7082,-293.3897 1451.3436,-288.1444"/>
</g>
<!-- Node3 -->
<g id="node32" class="node">
<title>Node3</title>
<path fill="#ffffcc" stroke="#000000" d="M1511,-284C1511,-284 1479,-284 1479,-284 1473,-284 1467,-278 1467,-272 1467,-272 1467,-260 1467,-260 1467,-254 1473,-248 1479,-248 1479,-248 1511,-248 1511,-248 1517,-248 1523,-254 1523,-260 1523,-260 1523,-272 1523,-272 1523,-278 1517,-284 1511,-284"/>
<text text-anchor="middle" x="1495" y="-262.3" font-family="Helvetica,sans-Serif" font-size="14.00" fill="#000000">Node3</text>
</g>
<!-- GenerateTransposeMatrix&#45;&gt;Node3 -->
<g id="edge27" class="edge">
<title>GenerateTransposeMatrix&#45;&gt;Node3</title>
<path fill="none" stroke="#000000" d="M1504.1562,-323.9891C1502.7467,-315.0626 1501.0125,-304.0789 1499.4337,-294.0804"/>
<polygon fill="#000000" stroke="#000000" points="1502.8819,-293.4768 1497.865,-284.145 1495.9675,-294.5686 1502.8819,-293.4768"/>
</g>
<!-- NTria -->
<g id="node52" class="node">
<title>NTria</title>
<path fill="#fcfcfc" stroke="#000000" d="M1583,-284C1583,-284 1553,-284 1553,-284 1547,-284 1541,-278 1541,-272 1541,-272 1541,-260 1541,-260 1541,-254 1547,-248 1553,-248 1553,-248 1583,-248 1583,-248 1589,-248 1595,-254 1595,-260 1595,-260 1595,-272 1595,-272 1595,-278 1589,-284 1583,-284"/>
<text text-anchor="middle" x="1568" y="-262.3" font-family="Helvetica,sans-Serif" font-size="14.00" fill="#000000">NTria</text>
</g>
<!-- GenerateTransposeMatrix&#45;&gt;NTria -->
<g id="edge28" class="edge">
<title>GenerateTransposeMatrix&#45;&gt;NTria</title>
<path fill="none" stroke="#000000" d="M1521.4561,-323.9891C1529.0733,-314.4988 1538.5568,-302.6833 1546.9723,-292.1985"/>
<polygon fill="#000000" stroke="#000000" points="1549.9063,-294.1345 1553.4362,-284.145 1544.4472,-289.7529 1549.9063,-294.1345"/>
</g>
<!-- GenerateCoordinatesPoints -->
<g id="node7" class="node">
<title>GenerateCoordinatesPoints</title>
<polygon fill="#ccffcc" stroke="#000000" points="1401,-360 1217,-360 1217,-324 1401,-324 1401,-360"/>
<text text-anchor="middle" x="1309" y="-338.3" font-family="Helvetica,sans-Serif" font-size="14.00" fill="#000000">GenerateCoordinatesPoints</text>
</g>
<!-- Points -->
<g id="node33" class="node">
<title>Points</title>
<path fill="#ffffcc" stroke="#000000" d="M1289,-284C1289,-284 1259,-284 1259,-284 1253,-284 1247,-278 1247,-272 1247,-272 1247,-260 1247,-260 1247,-254 1253,-248 1259,-248 1259,-248 1289,-248 1289,-248 1295,-248 1301,-254 1301,-260 1301,-260 1301,-272 1301,-272 1301,-278 1295,-284 1289,-284"/>
<text text-anchor="middle" x="1274" y="-262.3" font-family="Helvetica,sans-Serif" font-size="14.00" fill="#000000">Points</text>
</g>
<!-- GenerateCoordinatesPoints&#45;&gt;Points -->
<g id="edge30" class="edge">
<title>GenerateCoordinatesPoints&#45;&gt;Points</title>
<path fill="none" stroke="#000000" d="M1300.7055,-323.9891C1296.5081,-314.8747 1291.3229,-303.6155 1286.6416,-293.4502"/>
<polygon fill="#000000" stroke="#000000" points="1289.7184,-291.7641 1282.3563,-284.145 1283.3602,-294.6922 1289.7184,-291.7641"/>
</g>
<!-- CalculateEdgesAndNormalTriangles -->
<g id="node8" class="node">
<title>CalculateEdgesAndNormalTriangles</title>
<polygon fill="#ccffcc" stroke="#000000" points="1501.5,-212 1266.5,-212 1266.5,-176 1501.5,-176 1501.5,-212"/>
<text text-anchor="middle" x="1384" y="-190.3" font-family="Helvetica,sans-Serif" font-size="14.00" fill="#000000">CalculateEdgesAndNormalTriangles</text>
</g>
<!-- AreaI -->
<g id="node55" class="node">
<title>AreaI</title>
<path fill="#fcfcfc" stroke="#000000" d="M1327,-140C1327,-140 1297,-140 1297,-140 1291,-140 1285,-134 1285,-128 1285,-128 1285,-116 1285,-116 1285,-110 1291,-104 1297,-104 1297,-104 1327,-104 1327,-104 1333,-104 1339,-110 1339,-116 1339,-116 1339,-128 1339,-128 1339,-134 1333,-140 1327,-140"/>
<text text-anchor="middle" x="1312" y="-118.3" font-family="Helvetica,sans-Serif" font-size="14.00" fill="#000000">AreaI</text>
</g>
<!-- CalculateEdgesAndNormalTriangles&#45;&gt;AreaI -->
<g id="edge45" class="edge">
<title>CalculateEdgesAndNormalTriangles&#45;&gt;AreaI</title>
<path fill="none" stroke="#000000" d="M1365.8314,-175.8314C1357.2848,-167.2848 1346.9443,-156.9443 1337.6198,-147.6198"/>
<polygon fill="#000000" stroke="#000000" points="1339.9592,-145.0095 1330.4133,-140.4133 1335.0095,-149.9592 1339.9592,-145.0095"/>
</g>
<!-- Beta -->
<g id="node56" class="node">
<title>Beta</title>
<path fill="#fcfcfc" stroke="#000000" d="M1399,-140C1399,-140 1369,-140 1369,-140 1363,-140 1357,-134 1357,-128 1357,-128 1357,-116 1357,-116 1357,-110 1363,-104 1369,-104 1369,-104 1399,-104 1399,-104 1405,-104 1411,-110 1411,-116 1411,-116 1411,-128 1411,-128 1411,-134 1405,-140 1399,-140"/>
<text text-anchor="middle" x="1384" y="-118.3" font-family="Helvetica,sans-Serif" font-size="14.00" fill="#000000">Beta</text>
</g>
<!-- CalculateEdgesAndNormalTriangles&#45;&gt;Beta -->
<g id="edge46" class="edge">
<title>CalculateEdgesAndNormalTriangles&#45;&gt;Beta</title>
<path fill="none" stroke="#000000" d="M1384,-175.8314C1384,-168.131 1384,-158.9743 1384,-150.4166"/>
<polygon fill="#000000" stroke="#000000" points="1387.5001,-150.4132 1384,-140.4133 1380.5001,-150.4133 1387.5001,-150.4132"/>
</g>
<!-- Alpha -->
<g id="node57" class="node">
<title>Alpha</title>
<path fill="#fcfcfc" stroke="#000000" d="M1471,-140C1471,-140 1441,-140 1441,-140 1435,-140 1429,-134 1429,-128 1429,-128 1429,-116 1429,-116 1429,-110 1435,-104 1441,-104 1441,-104 1471,-104 1471,-104 1477,-104 1483,-110 1483,-116 1483,-116 1483,-128 1483,-128 1483,-134 1477,-140 1471,-140"/>
<text text-anchor="middle" x="1456" y="-118.3" font-family="Helvetica,sans-Serif" font-size="14.00" fill="#000000">Alpha</text>
</g>
<!-- CalculateEdgesAndNormalTriangles&#45;&gt;Alpha -->
<g id="edge47" class="edge">
<title>CalculateEdgesAndNormalTriangles&#45;&gt;Alpha</title>
<path fill="none" stroke="#000000" d="M1402.1686,-175.8314C1410.7152,-167.2848 1421.0557,-156.9443 1430.3802,-147.6198"/>
<polygon fill="#000000" stroke="#000000" points="1432.9905,-149.9592 1437.5867,-140.4133 1428.0408,-145.0095 1432.9905,-149.9592"/>
</g>
<!-- AssembleGenerateOutputFile -->
<g id="node9" class="node">
<title>AssembleGenerateOutputFile</title>
<polygon fill="#ccffcc" stroke="#000000" points="1073.5,-212 876.5,-212 876.5,-176 1073.5,-176 1073.5,-212"/>
<text text-anchor="middle" x="975" y="-190.3" font-family="Helvetica,sans-Serif" font-size="14.00" fill="#000000">AssembleGenerateOutputFile</text>
</g>
<!-- FileE0 -->
<g id="node14" class="node">
<title>FileE0</title>
<path fill="#ffffcc" stroke="#000000" d="M972.5,-140C972.5,-140 941.5,-140 941.5,-140 935.5,-140 929.5,-134 929.5,-128 929.5,-128 929.5,-116 929.5,-116 929.5,-110 935.5,-104 941.5,-104 941.5,-104 972.5,-104 972.5,-104 978.5,-104 984.5,-110 984.5,-116 984.5,-116 984.5,-128 984.5,-128 984.5,-134 978.5,-140 972.5,-140"/>
<text text-anchor="middle" x="957" y="-118.3" font-family="Helvetica,sans-Serif" font-size="14.00" fill="#000000">FileE0</text>
</g>
<!-- AssembleGenerateOutputFile&#45;&gt;FileE0 -->
<g id="edge53" class="edge">
<title>AssembleGenerateOutputFile&#45;&gt;FileE0</title>
<path fill="none" stroke="#000000" d="M970.4578,-175.8314C968.5116,-168.0463 966.1932,-158.7729 964.0337,-150.1347"/>
<polygon fill="#000000" stroke="#000000" points="967.4242,-149.2658 961.6033,-140.4133 960.6332,-150.9636 967.4242,-149.2658"/>
</g>
<!-- FileR -->
<g id="node15" class="node">
<title>FileR</title>
<path fill="#ffffcc" stroke="#000000" d="M1045,-140C1045,-140 1015,-140 1015,-140 1009,-140 1003,-134 1003,-128 1003,-128 1003,-116 1003,-116 1003,-110 1009,-104 1015,-104 1015,-104 1045,-104 1045,-104 1051,-104 1057,-110 1057,-116 1057,-116 1057,-128 1057,-128 1057,-134 1051,-140 1045,-140"/>
<text text-anchor="middle" x="1030" y="-118.3" font-family="Helvetica,sans-Serif" font-size="14.00" fill="#000000">FileR</text>
</g>
<!-- AssembleGenerateOutputFile&#45;&gt;FileR -->
<g id="edge52" class="edge">
<title>AssembleGenerateOutputFile&#45;&gt;FileR</title>
<path fill="none" stroke="#000000" d="M988.8788,-175.8314C995.2136,-167.5386 1002.8384,-157.557 1009.7926,-148.4533"/>
<polygon fill="#000000" stroke="#000000" points="1012.6452,-150.4847 1015.9343,-140.4133 1007.0825,-146.2353 1012.6452,-150.4847"/>
</g>
<!-- CalculateGlobalAnglesAndDirections -->
<g id="node10" class="node">
<title>CalculateGlobalAnglesAndDirections</title>
<polygon fill="#ccffcc" stroke="#000000" points="668,-212 430,-212 430,-176 668,-176 668,-212"/>
<text text-anchor="middle" x="549" y="-190.3" font-family="Helvetica,sans-Serif" font-size="14.00" fill="#000000">CalculateGlobalAnglesAndDirections</text>
</g>
<!-- U -->
<g id="node40" class="node">
<title>U</title>
<path fill="#ffffcc" stroke="#000000" d="M827,-140C827,-140 797,-140 797,-140 791,-140 785,-134 785,-128 785,-128 785,-116 785,-116 785,-110 791,-104 797,-104 797,-104 827,-104 827,-104 833,-104 839,-110 839,-116 839,-116 839,-128 839,-128 839,-134 833,-140 827,-140"/>
<text text-anchor="middle" x="812" y="-118.3" font-family="Helvetica,sans-Serif" font-size="14.00" fill="#000000">U</text>
</g>
<!-- CalculateGlobalAnglesAndDirections&#45;&gt;U -->
<g id="edge64" class="edge">
<title>CalculateGlobalAnglesAndDirections&#45;&gt;U</title>
<path fill="none" stroke="#000000" d="M646.5353,-175.9518C684.5675,-167.6808 728.4292,-156.6198 775.0877,-139.9525"/>
<polygon fill="#000000" stroke="#000000" points="776.5711,-143.1372 784.77,-136.4269 774.176,-136.5597 776.5711,-143.1372"/>
</g>
<!-- V -->
<g id="node41" class="node">
<title>V</title>
<path fill="#ffffcc" stroke="#000000" d="M683,-140C683,-140 653,-140 653,-140 647,-140 641,-134 641,-128 641,-128 641,-116 641,-116 641,-110 647,-104 653,-104 653,-104 683,-104 683,-104 689,-104 695,-110 695,-116 695,-116 695,-128 695,-128 695,-134 689,-140 683,-140"/>
<text text-anchor="middle" x="668" y="-118.3" font-family="Helvetica,sans-Serif" font-size="14.00" fill="#000000">V</text>
</g>
<!-- CalculateGlobalAnglesAndDirections&#45;&gt;V -->
<g id="edge65" class="edge">
<title>CalculateGlobalAnglesAndDirections&#45;&gt;V</title>
<path fill="none" stroke="#000000" d="M579.0287,-175.8314C595.2113,-166.0402 615.2851,-153.8947 632.2676,-143.6196"/>
<polygon fill="#000000" stroke="#000000" points="634.0855,-146.6105 640.8295,-138.4393 630.4618,-140.6214 634.0855,-146.6105"/>
</g>
<!-- W -->
<g id="node42" class="node">
<title>W</title>
<path fill="#ffffcc" stroke="#000000" d="M755,-140C755,-140 725,-140 725,-140 719,-140 713,-134 713,-128 713,-128 713,-116 713,-116 713,-110 719,-104 725,-104 725,-104 755,-104 755,-104 761,-104 767,-110 767,-116 767,-116 767,-128 767,-128 767,-134 761,-140 755,-140"/>
<text text-anchor="middle" x="740" y="-118.3" font-family="Helvetica,sans-Serif" font-size="14.00" fill="#000000">W</text>
</g>
<!-- CalculateGlobalAnglesAndDirections&#45;&gt;W -->
<g id="edge66" class="edge">
<title>CalculateGlobalAnglesAndDirections&#45;&gt;W</title>
<path fill="none" stroke="#000000" d="M606.3497,-175.9746C633.5631,-166.9698 666.5939,-155.3906 703.255,-140.0966"/>
<polygon fill="#000000" stroke="#000000" points="704.8022,-143.2425 712.6525,-136.1275 702.0786,-136.7941 704.8022,-143.2425"/>
</g>
<!-- UU -->
<g id="node43" class="node">
<title>UU</title>
<path fill="#ffffcc" stroke="#000000" d="M611,-140C611,-140 581,-140 581,-140 575,-140 569,-134 569,-128 569,-128 569,-116 569,-116 569,-110 575,-104 581,-104 581,-104 611,-104 611,-104 617,-104 623,-110 623,-116 623,-116 623,-128 623,-128 623,-134 617,-140 611,-140"/>
<text text-anchor="middle" x="596" y="-118.3" font-family="Helvetica,sans-Serif" font-size="14.00" fill="#000000">UU</text>
</g>
<!-- CalculateGlobalAnglesAndDirections&#45;&gt;UU -->
<g id="edge67" class="edge">
<title>CalculateGlobalAnglesAndDirections&#45;&gt;UU</title>
<path fill="none" stroke="#000000" d="M560.8601,-175.8314C566.1629,-167.7079 572.5237,-157.9637 578.3673,-149.0118"/>
<polygon fill="#000000" stroke="#000000" points="581.4448,-150.7003 583.9802,-140.4133 575.5831,-146.8739 581.4448,-150.7003"/>
</g>
<!-- VV -->
<g id="node44" class="node">
<title>VV</title>
<path fill="#ffffcc" stroke="#000000" d="M323,-140C323,-140 293,-140 293,-140 287,-140 281,-134 281,-128 281,-128 281,-116 281,-116 281,-110 287,-104 293,-104 293,-104 323,-104 323,-104 329,-104 335,-110 335,-116 335,-116 335,-128 335,-128 335,-134 329,-140 323,-140"/>
<text text-anchor="middle" x="308" y="-118.3" font-family="Helvetica,sans-Serif" font-size="14.00" fill="#000000">VV</text>
</g>
<!-- CalculateGlobalAnglesAndDirections&#45;&gt;VV -->
<g id="edge68" class="edge">
<title>CalculateGlobalAnglesAndDirections&#45;&gt;VV</title>
<path fill="none" stroke="#000000" d="M464.4924,-175.891C429.5109,-167.4101 388.5929,-156.2156 344.6729,-139.9129"/>
<polygon fill="#000000" stroke="#000000" points="345.8481,-136.6154 335.2564,-136.3556 343.3743,-143.1638 345.8481,-136.6154"/>
</g>
<!-- WW -->
<g id="node45" class="node">
<title>WW</title>
<path fill="#ffffcc" stroke="#000000" d="M395,-140C395,-140 365,-140 365,-140 359,-140 353,-134 353,-128 353,-128 353,-116 353,-116 353,-110 359,-104 365,-104 365,-104 395,-104 395,-104 401,-104 407,-110 407,-116 407,-116 407,-128 407,-128 407,-134 401,-140 395,-140"/>
<text text-anchor="middle" x="380" y="-118.3" font-family="Helvetica,sans-Serif" font-size="14.00" fill="#000000">WW</text>
</g>
<!-- CalculateGlobalAnglesAndDirections&#45;&gt;WW -->
<g id="edge69" class="edge">
<title>CalculateGlobalAnglesAndDirections&#45;&gt;WW</title>
<path fill="none" stroke="#000000" d="M501.8422,-175.89C478.4414,-166.6665 449.6237,-154.956 416.4801,-140.074"/>
<polygon fill="#000000" stroke="#000000" points="417.5717,-136.7263 407.0181,-135.7918 414.6855,-143.1036 417.5717,-136.7263"/>
</g>
<!-- SP -->
<g id="node48" class="node">
<title>SP</title>
<path fill="#ffffcc" stroke="#000000" d="M467,-140C467,-140 437,-140 437,-140 431,-140 425,-134 425,-128 425,-128 425,-116 425,-116 425,-110 431,-104 437,-104 437,-104 467,-104 467,-104 473,-104 479,-110 479,-116 479,-116 479,-128 479,-128 479,-134 473,-140 467,-140"/>
<text text-anchor="middle" x="452" y="-118.3" font-family="Helvetica,sans-Serif" font-size="14.00" fill="#000000">SP</text>
</g>
<!-- CalculateGlobalAnglesAndDirections&#45;&gt;SP -->
<g id="edge70" class="edge">
<title>CalculateGlobalAnglesAndDirections&#45;&gt;SP</title>
<path fill="none" stroke="#000000" d="M524.5228,-175.8314C512.4605,-166.8779 497.746,-155.9558 484.7314,-146.2955"/>
<polygon fill="#000000" stroke="#000000" points="486.5852,-143.3127 476.4694,-140.1628 482.413,-148.9335 486.5852,-143.3127"/>
</g>
<!-- CP -->
<g id="node49" class="node">
<title>CP</title>
<path fill="#ffffcc" stroke="#000000" d="M539,-140C539,-140 509,-140 509,-140 503,-140 497,-134 497,-128 497,-128 497,-116 497,-116 497,-110 503,-104 509,-104 509,-104 539,-104 539,-104 545,-104 551,-110 551,-116 551,-116 551,-128 551,-128 551,-134 545,-140 539,-140"/>
<text text-anchor="middle" x="524" y="-118.3" font-family="Helvetica,sans-Serif" font-size="14.00" fill="#000000">CP</text>
</g>
<!-- CalculateGlobalAnglesAndDirections&#45;&gt;CP -->
<g id="edge71" class="edge">
<title>CalculateGlobalAnglesAndDirections&#45;&gt;CP</title>
<path fill="none" stroke="#000000" d="M542.6914,-175.8314C539.9883,-168.0463 536.7684,-158.7729 533.769,-150.1347"/>
<polygon fill="#000000" stroke="#000000" points="536.98,-148.7119 530.3935,-140.4133 530.3673,-151.0081 536.98,-148.7119"/>
</g>
<!-- D0 -->
<g id="node58" class="node">
<title>D0</title>
<path fill="#fcfcfc" stroke="#000000" d="M899,-140C899,-140 869,-140 869,-140 863,-140 857,-134 857,-128 857,-128 857,-116 857,-116 857,-110 863,-104 869,-104 869,-104 899,-104 899,-104 905,-104 911,-110 911,-116 911,-116 911,-128 911,-128 911,-134 905,-140 899,-140"/>
<text text-anchor="middle" x="884" y="-118.3" font-family="Helvetica,sans-Serif" font-size="14.00" fill="#000000">D0</text>
</g>
<!-- CalculateGlobalAnglesAndDirections&#45;&gt;D0 -->
<g id="edge72" class="edge">
<title>CalculateGlobalAnglesAndDirections&#45;&gt;D0</title>
<path fill="none" stroke="#000000" d="M668.0901,-180.4366C720.9663,-172.5095 783.7205,-160.4784 847.0678,-139.8381"/>
<polygon fill="#000000" stroke="#000000" points="848.4436,-143.0691 856.827,-136.5908 846.2334,-136.4272 848.4436,-143.0691"/>
</g>
<!-- CalculateRefsGeometryModel -->
<g id="node11" class="node">
<title>CalculateRefsGeometryModel</title>
<polygon fill="#ccffcc" stroke="#000000" points="267.5,-360 68.5,-360 68.5,-324 267.5,-324 267.5,-360"/>
<polygon fill="none" stroke="#000000" points="271.5,-364 64.5,-364 64.5,-320 271.5,-320 271.5,-364"/>
<text text-anchor="middle" x="168" y="-338.3" font-family="Helvetica,sans-Serif" font-size="14.00" fill="#000000">CalculateRefsGeometryModel</text>
</g>
<!-- CalculateRefsGeometryModel&#45;&gt;PhiIncrement -->
<g id="edge36" class="edge">
<title>CalculateRefsGeometryModel&#45;&gt;PhiIncrement</title>
<path fill="none" stroke="#000000" d="M271.7015,-320.7721C273.4792,-320.5076 275.2464,-320.25 277,-320 437.5024,-297.1218 480.0196,-310.2814 640,-284 649.1604,-282.4951 658.8508,-280.5501 668.3309,-278.4971"/>
<polygon fill="#000000" stroke="#000000" points="669.0966,-281.9124 678.1029,-276.3324 667.5826,-275.0781 669.0966,-281.9124"/>
</g>
<!-- CalculateRefsGeometryModel&#45;&gt;ThetaIncrement -->
<g id="edge37" class="edge">
<title>CalculateRefsGeometryModel&#45;&gt;ThetaIncrement</title>
<path fill="none" stroke="#000000" d="M271.6925,-320.706C273.473,-320.462 275.2432,-320.2264 277,-320 497.5303,-291.5784 556.8921,-321.8565 776,-284 778.6142,-283.5483 781.2748,-283.0356 783.9593,-282.4762"/>
<polygon fill="#000000" stroke="#000000" points="784.7579,-285.8841 793.7443,-280.272 783.2195,-279.0552 784.7579,-285.8841"/>
</g>
<!-- IPVerticalRotations -->
<g id="node38" class="node">
<title>IPVerticalRotations</title>
<path fill="#ffffcc" stroke="#000000" d="M627.5,-284C627.5,-284 520.5,-284 520.5,-284 514.5,-284 508.5,-278 508.5,-272 508.5,-272 508.5,-260 508.5,-260 508.5,-254 514.5,-248 520.5,-248 520.5,-248 627.5,-248 627.5,-248 633.5,-248 639.5,-254 639.5,-260 639.5,-260 639.5,-272 639.5,-272 639.5,-278 633.5,-284 627.5,-284"/>
<text text-anchor="middle" x="574" y="-262.3" font-family="Helvetica,sans-Serif" font-size="14.00" fill="#000000">IPVerticalRotations</text>
</g>
<!-- CalculateRefsGeometryModel&#45;&gt;IPVerticalRotations -->
<g id="edge35" class="edge">
<title>CalculateRefsGeometryModel&#45;&gt;IPVerticalRotations</title>
<path fill="none" stroke="#000000" d="M271.5861,-322.585C276.4574,-321.7042 281.2809,-320.8386 286,-320 377.3895,-303.7588 403.2351,-303.2318 498.1748,-284.0972"/>
<polygon fill="#000000" stroke="#000000" points="499.1038,-287.48 508.2064,-282.0585 497.7097,-280.6202 499.1038,-287.48"/>
</g>
<!-- ITHorizontalRotations -->
<g id="node39" class="node">
<title>ITHorizontalRotations</title>
<path fill="#ffffcc" stroke="#000000" d="M478,-284C478,-284 356,-284 356,-284 350,-284 344,-278 344,-272 344,-272 344,-260 344,-260 344,-254 350,-248 356,-248 356,-248 478,-248 478,-248 484,-248 490,-254 490,-260 490,-260 490,-272 490,-272 490,-278 484,-284 478,-284"/>
<text text-anchor="middle" x="417" y="-262.3" font-family="Helvetica,sans-Serif" font-size="14.00" fill="#000000">ITHorizontalRotations</text>
</g>
<!-- CalculateRefsGeometryModel&#45;&gt;ITHorizontalRotations -->
<g id="edge34" class="edge">
<title>CalculateRefsGeometryModel&#45;&gt;ITHorizontalRotations</title>
<path fill="none" stroke="#000000" d="M240.3556,-319.9156C274.3347,-309.5444 314.6388,-297.2428 348.1627,-287.0106"/>
<polygon fill="#000000" stroke="#000000" points="349.3369,-290.3117 357.8795,-284.0448 347.2933,-283.6166 349.3369,-290.3117"/>
</g>
<!-- CalculateSphericalCoordinateSystemRadialUnitVector -->
<g id="node12" class="node">
<title>CalculateSphericalCoordinateSystemRadialUnitVector</title>
<polygon fill="#ccffcc" stroke="#000000" points="984,-64 642,-64 642,-28 984,-28 984,-64"/>
<polygon fill="none" stroke="#000000" points="988,-68 638,-68 638,-24 988,-24 988,-68"/>
<text text-anchor="middle" x="813" y="-42.3" font-family="Helvetica,sans-Serif" font-size="14.00" fill="#000000">CalculateSphericalCoordinateSystemRadialUnitVector</text>
</g>
<!-- CalculateSphericalCoordinateSystemRadialUnitVector&#45;&gt;FileR -->
<g id="edge82" class="edge">
<title>CalculateSphericalCoordinateSystemRadialUnitVector&#45;&gt;FileR</title>
<path fill="none" stroke="#000000" d="M899.0519,-68.0439C928.8461,-76.9793 962.4222,-88.0318 993.1157,-100.0528"/>
<polygon fill="#000000" stroke="#000000" points="991.9563,-103.3585 1002.5413,-103.8133 994.5502,-96.8568 991.9563,-103.3585"/>
</g>
<!-- CalculateIncidentFieldInGlobalCartesianCoordinates -->
<g id="node13" class="node">
<title>CalculateIncidentFieldInGlobalCartesianCoordinates</title>
<polygon fill="#ccffcc" stroke="#000000" points="615.5,-64 284.5,-64 284.5,-28 615.5,-28 615.5,-64"/>
<polygon fill="none" stroke="#000000" points="619.5,-68 280.5,-68 280.5,-24 619.5,-24 619.5,-68"/>
<text text-anchor="middle" x="450" y="-42.3" font-family="Helvetica,sans-Serif" font-size="14.00" fill="#000000">CalculateIncidentFieldInGlobalCartesianCoordinates</text>
</g>
<!-- CalculateIncidentFieldInGlobalCartesianCoordinates&#45;&gt;FileE0 -->
<g id="edge87" class="edge">
<title>CalculateIncidentFieldInGlobalCartesianCoordinates&#45;&gt;FileE0</title>
<path fill="none" stroke="#000000" d="M619.637,-65.99C737.7322,-80.3083 880.6209,-97.8803 919.338,-102.7962"/>
<polygon fill="#000000" stroke="#000000" points="919.0399,-106.2871 929.4113,-104.123 919.954,-99.347 919.0399,-106.2871"/>
</g>
<!-- FileE0&#45;&gt;CalculateIncidentFieldInGlobalCartesianCoordinates -->
<g id="edge95" class="edge">
<title>FileE0&#45;&gt;CalculateIncidentFieldInGlobalCartesianCoordinates</title>
<path fill="none" stroke="#000000" d="M929.2637,-111.2237C923.2834,-108.4687 917.0277,-105.7842 911,-104 910.1049,-103.735 758.7375,-85.0766 629.6882,-68.9951"/>
<polygon fill="#000000" stroke="#000000" points="630.0069,-65.5078 619.6507,-67.7438 629.1409,-72.454 630.0069,-65.5078"/>
</g>
<!-- FileE0_output_port -->
<g id="node65" class="node">
<title>FileE0_output_port</title>
<ellipse fill="#ffffff" stroke="#000000" cx="1626" cy="-46" rx="7" ry="7"/>
</g>
<!-- FileE0&#45;&gt;FileE0_output_port -->
<g id="edge100" class="edge">
<title>FileE0&#45;&gt;FileE0_output_port</title>
<path fill="none" stroke="#000000" d="M984.8404,-107.0481C987.8705,-105.8485 990.9591,-104.795 994,-104 1126.0196,-69.4844 1484.6397,-128.4024 1607,-68 1610.5467,-66.2492 1613.7026,-63.5083 1616.3746,-60.5478"/>
<polygon fill="#000000" stroke="#000000" points="1619.38,-62.372 1622.5462,-52.2613 1613.766,-58.1907 1619.38,-62.372"/>
</g>
<!-- FileR&#45;&gt;CalculateSphericalCoordinateSystemRadialUnitVector -->
<g id="edge86" class="edge">
<title>FileR&#45;&gt;CalculateSphericalCoordinateSystemRadialUnitVector</title>
<path fill="none" stroke="#000000" d="M1002.9576,-112.103C997.0026,-109.302 990.8241,-106.3728 985,-104 955.2112,-91.8638 921.8643,-80.5604 892.4852,-71.2152"/>
<polygon fill="#000000" stroke="#000000" points="893.2746,-67.7942 882.6848,-68.1227 891.168,-74.4698 893.2746,-67.7942"/>
</g>
<!-- FileR_output_port -->
<g id="node66" class="node">
<title>FileR_output_port</title>
<ellipse fill="#ffffff" stroke="#000000" cx="1658" cy="-46" rx="7" ry="7"/>
</g>
<!-- FileR&#45;&gt;FileR_output_port -->
<g id="edge101" class="edge">
<title>FileR&#45;&gt;FileR_output_port</title>
<path fill="none" stroke="#000000" d="M1057.2417,-119.9044C1174.2762,-110.8632 1629.0621,-75.3221 1642,-68 1644.9465,-66.3325 1647.4974,-63.8737 1649.6433,-61.1976"/>
<polygon fill="#000000" stroke="#000000" points="1652.6949,-62.9212 1655.1077,-52.6047 1646.7881,-59.1648 1652.6949,-62.9212"/>
</g>
<!-- InputDataFile -->
<g id="node16" class="node">
<title>InputDataFile</title>
<path fill="#ffffcc" stroke="#000000" d="M672.5,-585.5C672.5,-585.5 599.5,-585.5 599.5,-585.5 593.5,-585.5 587.5,-579.5 587.5,-573.5 587.5,-573.5 587.5,-561.5 587.5,-561.5 587.5,-555.5 593.5,-549.5 599.5,-549.5 599.5,-549.5 672.5,-549.5 672.5,-549.5 678.5,-549.5 684.5,-555.5 684.5,-561.5 684.5,-561.5 684.5,-573.5 684.5,-573.5 684.5,-579.5 678.5,-585.5 672.5,-585.5"/>
<text text-anchor="middle" x="636" y="-563.8" font-family="Helvetica,sans-Serif" font-size="14.00" fill="#000000">InputDataFile</text>
</g>
<!-- InputDataFile&#45;&gt;ReadInputParameters -->
<g id="edge11" class="edge">
<title>InputDataFile&#45;&gt;ReadInputParameters</title>
<path fill="none" stroke="#000000" d="M636,-549.1336C636,-539.9645 636,-528.6668 636,-518.4115"/>
<polygon fill="#000000" stroke="#000000" points="639.5001,-518.2345 636,-508.2346 632.5001,-518.2346 639.5001,-518.2345"/>
</g>
<!-- Frequency&#45;&gt;CalculateWaveLength -->
<g id="edge13" class="edge">
<title>Frequency&#45;&gt;CalculateWaveLength</title>
<path fill="none" stroke="#000000" d="M1053.0397,-399.9891C1065.2277,-390.029 1080.5498,-377.5077 1093.8343,-366.6516"/>
<polygon fill="#000000" stroke="#000000" points="1096.2677,-369.1831 1101.7962,-360.145 1091.8381,-363.7628 1096.2677,-369.1831"/>
</g>
<!-- Frequency&#45;&gt;AssembleGenerateOutputFile -->
<g id="edge54" class="edge">
<title>Frequency&#45;&gt;AssembleGenerateOutputFile</title>
<path fill="none" stroke="#000000" d="M1032.5631,-399.7015C1035.9427,-358.6036 1043.1476,-261.5067 1037,-248 1031.826,-236.6322 1022.9457,-226.7268 1013.4972,-218.6122"/>
<polygon fill="#000000" stroke="#000000" points="1015.4945,-215.7281 1005.4958,-212.2243 1011.1271,-221.1986 1015.4945,-215.7281"/>
</g>
<!-- InputModel -->
<g id="node18" class="node">
<title>InputModel</title>
<path fill="#ffffcc" stroke="#000000" d="M1161,-585.5C1161,-585.5 1101,-585.5 1101,-585.5 1095,-585.5 1089,-579.5 1089,-573.5 1089,-573.5 1089,-561.5 1089,-561.5 1089,-555.5 1095,-549.5 1101,-549.5 1101,-549.5 1161,-549.5 1161,-549.5 1167,-549.5 1173,-555.5 1173,-561.5 1173,-561.5 1173,-573.5 1173,-573.5 1173,-579.5 1167,-585.5 1161,-585.5"/>
<text text-anchor="middle" x="1131" y="-563.8" font-family="Helvetica,sans-Serif" font-size="14.00" fill="#000000">InputModel</text>
</g>
<!-- InputModel&#45;&gt;ReadModelCoordinates -->
<g id="edge20" class="edge">
<title>InputModel&#45;&gt;ReadModelCoordinates</title>
<path fill="none" stroke="#000000" d="M1169.6852,-549.3297C1193.1655,-538.301 1223.3165,-524.1392 1248.2719,-512.4177"/>
<polygon fill="#000000" stroke="#000000" points="1249.9939,-515.4758 1257.5572,-508.0565 1247.0179,-509.1399 1249.9939,-515.4758"/>
</g>
<!-- InputModel&#45;&gt;ReadFacetsModel -->
<g id="edge23" class="edge">
<title>InputModel&#45;&gt;ReadFacetsModel</title>
<path fill="none" stroke="#000000" d="M1167.0306,-549.4685C1171.9813,-547.4149 1177.0611,-545.5181 1182,-544 1205.591,-536.7485 1345.1037,-514.7288 1433.5031,-501.1509"/>
<polygon fill="#000000" stroke="#000000" points="1434.1325,-504.5954 1443.4864,-499.62 1433.0714,-497.6763 1434.1325,-504.5954"/>
</g>
<!-- CoordinatesFile -->
<g id="node19" class="node">
<title>CoordinatesFile</title>
<path fill="#ffffcc" stroke="#000000" d="M1203,-544.5C1203,-544.5 1389,-544.5 1389,-544.5 1395,-544.5 1401,-550.5 1401,-556.5 1401,-556.5 1401,-578.5 1401,-578.5 1401,-584.5 1395,-590.5 1389,-590.5 1389,-590.5 1203,-590.5 1203,-590.5 1197,-590.5 1191,-584.5 1191,-578.5 1191,-578.5 1191,-556.5 1191,-556.5 1191,-550.5 1197,-544.5 1203,-544.5"/>
<text text-anchor="middle" x="1296" y="-575.3" font-family="Helvetica,sans-Serif" font-size="14.00" fill="#000000">CoordinatesFile</text>
<polyline fill="none" stroke="#000000" points="1191,-567.5 1401,-567.5 "/>
<text text-anchor="middle" x="1296" y="-552.3" font-family="Helvetica,sans-Serif" font-size="14.00" fill="#000000">file:{input_model}/coordinates.m</text>
</g>
<!-- CoordinatesFile&#45;&gt;ReadModelCoordinates -->
<g id="edge21" class="edge">
<title>CoordinatesFile&#45;&gt;ReadModelCoordinates</title>
<path fill="none" stroke="#000000" d="M1296,-544.2474C1296,-536.0965 1296,-526.8503 1296,-518.3302"/>
<polygon fill="#000000" stroke="#000000" points="1299.5001,-518.0633 1296,-508.0633 1292.5001,-518.0634 1299.5001,-518.0633"/>
</g>
<!-- FacetsFile -->
<g id="node20" class="node">
<title>FacetsFile</title>
<path fill="#ffffcc" stroke="#000000" d="M1431,-544.5C1431,-544.5 1583,-544.5 1583,-544.5 1589,-544.5 1595,-550.5 1595,-556.5 1595,-556.5 1595,-578.5 1595,-578.5 1595,-584.5 1589,-590.5 1583,-590.5 1583,-590.5 1431,-590.5 1431,-590.5 1425,-590.5 1419,-584.5 1419,-578.5 1419,-578.5 1419,-556.5 1419,-556.5 1419,-550.5 1425,-544.5 1431,-544.5"/>
<text text-anchor="middle" x="1507" y="-575.3" font-family="Helvetica,sans-Serif" font-size="14.00" fill="#000000">FacetsFile</text>
<polyline fill="none" stroke="#000000" points="1419,-567.5 1595,-567.5 "/>
<text text-anchor="middle" x="1507" y="-552.3" font-family="Helvetica,sans-Serif" font-size="14.00" fill="#000000">file:{input_model}/facets.m</text>
</g>
<!-- FacetsFile&#45;&gt;ReadFacetsModel -->
<g id="edge24" class="edge">
<title>FacetsFile&#45;&gt;ReadFacetsModel</title>
<path fill="none" stroke="#000000" d="M1507,-544.2474C1507,-536.0965 1507,-526.8503 1507,-518.3302"/>
<polygon fill="#000000" stroke="#000000" points="1510.5001,-518.0633 1507,-508.0633 1503.5001,-518.0634 1510.5001,-518.0633"/>
</g>
<!-- Facets&#45;&gt;GenerateTransposeMatrix -->
<g id="edge29" class="edge">
<title>Facets&#45;&gt;GenerateTransposeMatrix</title>
<path fill="none" stroke="#000000" d="M1507,-399.9891C1507,-391.1566 1507,-380.3099 1507,-370.3965"/>
<polygon fill="#000000" stroke="#000000" points="1510.5001,-370.145 1507,-360.145 1503.5001,-370.1451 1510.5001,-370.145"/>
</g>
<!-- XPoints&#45;&gt;GenerateCoordinatesPoints -->
<g id="edge31" class="edge">
<title>XPoints&#45;&gt;GenerateCoordinatesPoints</title>
<path fill="none" stroke="#000000" d="M1304.4219,-399.9891C1305.1192,-391.1566 1305.9755,-380.3099 1306.7582,-370.3965"/>
<polygon fill="#000000" stroke="#000000" points="1310.2695,-370.3895 1307.5675,-360.145 1303.2912,-369.8385 1310.2695,-370.3895"/>
</g>
<!-- YPoints&#45;&gt;GenerateCoordinatesPoints -->
<g id="edge32" class="edge">
<title>YPoints&#45;&gt;GenerateCoordinatesPoints</title>
<path fill="none" stroke="#000000" d="M1366.226,-399.9891C1356.5825,-390.2169 1344.5059,-377.9793 1333.9353,-367.2678"/>
<polygon fill="#000000" stroke="#000000" points="1336.4216,-364.8044 1326.9063,-360.145 1331.4392,-369.7212 1336.4216,-364.8044"/>
</g>
<!-- ZPoints&#45;&gt;GenerateCoordinatesPoints -->
<g id="edge33" class="edge">
<title>ZPoints&#45;&gt;GenerateCoordinatesPoints</title>
<path fill="none" stroke="#000000" d="M1242.6178,-399.9891C1253.9119,-390.123 1268.0828,-377.7438 1280.4282,-366.9593"/>
<polygon fill="#000000" stroke="#000000" points="1283.0002,-369.3599 1288.2287,-360.145 1278.3949,-364.0881 1283.0002,-369.3599"/>
</g>
<!-- StartPhiAngle&#45;&gt;AssembleGenerateOutputFile -->
<g id="edge58" class="edge">
<title>StartPhiAngle&#45;&gt;AssembleGenerateOutputFile</title>
<path fill="none" stroke="#000000" d="M199.9742,-399.9213C223.8089,-389.5682 254.157,-376.2394 281,-364 322.6052,-345.0296 329.7432,-331.4978 374,-320 490.6168,-289.7032 817.0232,-354.1279 915,-284 929.0949,-273.9114 921.0176,-262.8243 930,-248 935.8468,-238.3506 943.3397,-228.6279 950.5271,-220.1433"/>
<polygon fill="#000000" stroke="#000000" points="953.3204,-222.2657 957.2608,-212.4309 948.0474,-217.6618 953.3204,-222.2657"/>
</g>
<!-- StartPhiAngle&#45;&gt;CalculateGlobalAnglesAndDirections -->
<g id="edge75" class="edge">
<title>StartPhiAngle&#45;&gt;CalculateGlobalAnglesAndDirections</title>
<path fill="none" stroke="#000000" d="M112.9243,-399.9185C88.4506,-389.0851 61.8181,-375.2728 55,-364 44.8794,-347.267 42.5401,-335.0722 55,-320 109.2049,-254.4305 174.0806,-333.8763 243,-284 257.8278,-273.2693 248.1583,-258.7116 263,-248 288.4261,-229.6494 356.4193,-216.3998 419.73,-207.6182"/>
<polygon fill="#000000" stroke="#000000" points="420.4044,-211.0589 429.8435,-206.2471 419.4639,-204.1224 420.4044,-211.0589"/>
</g>
<!-- StartPhiAngle&#45;&gt;CalculateRefsGeometryModel -->
<g id="edge38" class="edge">
<title>StartPhiAngle&#45;&gt;CalculateRefsGeometryModel</title>
<path fill="none" stroke="#000000" d="M160.3699,-399.9891C161.3828,-392.291 162.597,-383.0629 163.7558,-374.2561"/>
<polygon fill="#000000" stroke="#000000" points="167.2407,-374.5994 165.0752,-364.2282 160.3005,-373.6861 167.2407,-374.5994"/>
</g>
<!-- StopPhiAngle&#45;&gt;AssembleGenerateOutputFile -->
<g id="edge59" class="edge">
<title>StopPhiAngle&#45;&gt;AssembleGenerateOutputFile</title>
<path fill="none" stroke="#000000" d="M508.9817,-404.13C465.7204,-391.3974 408.5249,-373.1634 402,-364 390.657,-348.0703 388.633,-334.2739 402,-320 485.4191,-230.921 855.3142,-360.9963 950,-284 959.6015,-276.1923 966.6404,-245.7044 970.7596,-222.355"/>
<polygon fill="#000000" stroke="#000000" points="974.2543,-222.6755 972.4454,-212.2363 967.3495,-221.5251 974.2543,-222.6755"/>
</g>
<!-- StopPhiAngle&#45;&gt;CalculateRefsGeometryModel -->
<g id="edge39" class="edge">
<title>StopPhiAngle&#45;&gt;CalculateRefsGeometryModel</title>
<path fill="none" stroke="#000000" d="M508.9726,-406.3473C499.3817,-404.1636 489.3879,-401.9549 480,-400 414.4805,-386.3567 340.8917,-372.6021 281.6433,-361.9136"/>
<polygon fill="#000000" stroke="#000000" points="281.9706,-358.4164 271.5088,-360.09 280.7309,-365.3058 281.9706,-358.4164"/>
</g>
<!-- PhiIncrement&#45;&gt;AssembleGenerateOutputFile -->
<g id="edge60" class="edge">
<title>PhiIncrement&#45;&gt;AssembleGenerateOutputFile</title>
<path fill="none" stroke="#000000" d="M775.7084,-250.7906C778.8503,-249.8383 781.9681,-248.9012 785,-248 822.8584,-236.7473 865.1087,-224.6899 900.1367,-214.8294"/>
<polygon fill="#000000" stroke="#000000" points="901.1354,-218.1844 909.8152,-212.109 899.2412,-211.4456 901.1354,-218.1844"/>
</g>
<!-- PhiIncrement&#45;&gt;CalculateGlobalAnglesAndDirections -->
<g id="edge76" class="edge">
<title>PhiIncrement&#45;&gt;CalculateGlobalAnglesAndDirections</title>
<path fill="none" stroke="#000000" d="M682.0831,-247.8314C658.065,-238.1162 628.3166,-226.0831 603.0408,-215.8592"/>
<polygon fill="#000000" stroke="#000000" points="604.1767,-212.5432 593.5939,-212.038 601.5518,-219.0325 604.1767,-212.5432"/>
</g>
<!-- PhiIncrement&#45;&gt;CalculateRefsGeometryModel -->
<g id="edge40" class="edge">
<title>PhiIncrement&#45;&gt;CalculateRefsGeometryModel</title>
<path fill="none" stroke="#000000" d="M678.1755,-280.1972C671.4389,-281.6099 664.5826,-282.9186 658,-284 498.0196,-310.2814 455.5024,-297.1218 295,-320 290.587,-320.629 286.0876,-321.3066 281.5418,-322.02"/>
<polygon fill="#000000" stroke="#000000" points="280.8468,-318.5868 271.5317,-323.6347 281.9615,-325.4975 280.8468,-318.5868"/>
</g>
<!-- StartThetaAngle&#45;&gt;AssembleGenerateOutputFile -->
<g id="edge61" class="edge">
<title>StartThetaAngle&#45;&gt;AssembleGenerateOutputFile</title>
<path fill="none" stroke="#000000" d="M400.2464,-399.6491C385.728,-377.8961 367.5536,-341.8496 388,-320 470.4778,-231.8622 829.4786,-350.8305 930,-284 932.9185,-282.0596 949.8649,-247.1777 962.1028,-221.4214"/>
<polygon fill="#000000" stroke="#000000" points="965.4075,-222.6205 966.5235,-212.0846 959.0808,-219.625 965.4075,-222.6205"/>
</g>
<!-- StartThetaAngle&#45;&gt;CalculateGlobalAnglesAndDirections -->
<g id="edge78" class="edge">
<title>StartThetaAngle&#45;&gt;CalculateGlobalAnglesAndDirections</title>
<path fill="none" stroke="#000000" d="M366.008,-399.9585C350.4038,-391.5363 334.8413,-379.7985 326,-364 316.4499,-346.935 312.9605,-334.5736 326,-320 422.3148,-212.354 552.6852,-391.646 649,-284 659.6687,-272.0761 657.1964,-261.7411 649,-248 641.1232,-234.7947 628.7753,-224.6251 615.4084,-216.8667"/>
<polygon fill="#000000" stroke="#000000" points="616.9825,-213.7395 606.5139,-212.1088 613.6807,-219.9119 616.9825,-213.7395"/>
</g>
<!-- StartThetaAngle&#45;&gt;CalculateRefsGeometryModel -->
<g id="edge41" class="edge">
<title>StartThetaAngle&#45;&gt;CalculateRefsGeometryModel</title>
<path fill="none" stroke="#000000" d="M356.9443,-400.373C324.8991,-390.4729 284.3754,-377.9534 249.0818,-367.0497"/>
<polygon fill="#000000" stroke="#000000" points="249.8648,-363.6284 239.2773,-364.0206 247.7985,-370.3165 249.8648,-363.6284"/>
</g>
<!-- ThetaIncrement&#45;&gt;AssembleGenerateOutputFile -->
<g id="edge63" class="edge">
<title>ThetaIncrement&#45;&gt;AssembleGenerateOutputFile</title>
<path fill="none" stroke="#000000" d="M881.5428,-247.8314C897.6791,-238.5368 917.4986,-227.1208 934.7272,-217.1971"/>
<polygon fill="#000000" stroke="#000000" points="936.5489,-220.187 943.4673,-212.1628 933.055,-214.1212 936.5489,-220.187"/>
</g>
<!-- ThetaIncrement&#45;&gt;CalculateGlobalAnglesAndDirections -->
<g id="edge79" class="edge">
<title>ThetaIncrement&#45;&gt;CalculateGlobalAnglesAndDirections</title>
<path fill="none" stroke="#000000" d="M793.6712,-250.2335C790.7418,-249.4661 787.8381,-248.7173 785,-248 738.0273,-236.1285 685.5071,-223.9995 641.959,-214.2518"/>
<polygon fill="#000000" stroke="#000000" points="642.475,-210.7809 631.9527,-212.0185 640.9501,-217.6128 642.475,-210.7809"/>
</g>
<!-- ThetaIncrement&#45;&gt;CalculateRefsGeometryModel -->
<g id="edge43" class="edge">
<title>ThetaIncrement&#45;&gt;CalculateRefsGeometryModel</title>
<path fill="none" stroke="#000000" d="M794.3464,-283.9398C794.2309,-283.96 794.1154,-283.9801 794,-284 574.8921,-321.8565 515.5303,-291.5784 295,-320 290.5789,-320.5698 286.0729,-321.1979 281.5216,-321.8707"/>
<polygon fill="#000000" stroke="#000000" points="280.854,-318.4321 271.5012,-323.4096 281.9166,-325.351 280.854,-318.4321"/>
</g>
<!-- Node1&#45;&gt;CalculateEdgesAndNormalTriangles -->
<g id="edge48" class="edge">
<title>Node1&#45;&gt;CalculateEdgesAndNormalTriangles</title>
<path fill="none" stroke="#000000" d="M1356.3367,-247.8314C1360.4243,-239.8771 1365.3104,-230.369 1369.8309,-221.5723"/>
<polygon fill="#000000" stroke="#000000" points="1373.0799,-222.9074 1374.5376,-212.4133 1366.8539,-219.7078 1373.0799,-222.9074"/>
</g>
<!-- Node2&#45;&gt;CalculateEdgesAndNormalTriangles -->
<g id="edge49" class="edge">
<title>Node2&#45;&gt;CalculateEdgesAndNormalTriangles</title>
<path fill="none" stroke="#000000" d="M1411.6633,-247.8314C1407.5757,-239.8771 1402.6896,-230.369 1398.1691,-221.5723"/>
<polygon fill="#000000" stroke="#000000" points="1401.1461,-219.7078 1393.4624,-212.4133 1394.9201,-222.9074 1401.1461,-219.7078"/>
</g>
<!-- Node3&#45;&gt;CalculateEdgesAndNormalTriangles -->
<g id="edge50" class="edge">
<title>Node3&#45;&gt;CalculateEdgesAndNormalTriangles</title>
<path fill="none" stroke="#000000" d="M1466.99,-247.8314C1452.9239,-238.7074 1435.706,-227.539 1420.6067,-217.7449"/>
<polygon fill="#000000" stroke="#000000" points="1422.2953,-214.6684 1412.001,-212.1628 1418.486,-220.5412 1422.2953,-214.6684"/>
</g>
<!-- Points&#45;&gt;CalculateEdgesAndNormalTriangles -->
<g id="edge51" class="edge">
<title>Points&#45;&gt;CalculateEdgesAndNormalTriangles</title>
<path fill="none" stroke="#000000" d="M1301.191,-248.2022C1315.2315,-239.0121 1332.553,-227.6744 1347.7187,-217.7478"/>
<polygon fill="#000000" stroke="#000000" points="1349.9075,-220.4982 1356.3577,-212.0931 1346.0739,-214.6413 1349.9075,-220.4982"/>
</g>
<!-- CorrelationDistance&#45;&gt;AssembleGenerateOutputFile -->
<g id="edge55" class="edge">
<title>CorrelationDistance&#45;&gt;AssembleGenerateOutputFile</title>
<path fill="none" stroke="#000000" d="M537.0026,-323.9059C543.0444,-322.4254 549.1209,-321.0845 555,-320 600.5164,-311.6038 937.7838,-317.2318 970,-284 985.4194,-268.0946 985.3149,-242.2602 982.14,-222.341"/>
<polygon fill="#000000" stroke="#000000" points="985.5282,-221.4256 980.203,-212.2663 978.6541,-222.7473 985.5282,-221.4256"/>
</g>
<!-- StandardDeviation&#45;&gt;AssembleGenerateOutputFile -->
<g id="edge56" class="edge">
<title>StandardDeviation&#45;&gt;AssembleGenerateOutputFile</title>
<path fill="none" stroke="#000000" d="M684.3474,-323.9926C689.9414,-322.5145 695.5608,-321.1498 701,-320 764.3193,-306.6151 947.1588,-332.509 990,-284 1004.9587,-267.0623 998.588,-241.0541 990.0144,-221.3442"/>
<polygon fill="#000000" stroke="#000000" points="993.1498,-219.7872 985.7124,-212.2417 986.821,-222.7784 993.1498,-219.7872"/>
</g>
<!-- IncidentWavePolarization&#45;&gt;AssembleGenerateOutputFile -->
<g id="edge57" class="edge">
<title>IncidentWavePolarization&#45;&gt;AssembleGenerateOutputFile</title>
<path fill="none" stroke="#000000" d="M870.4084,-323.9479C930.5749,-309.1853 1005.5333,-289.8314 1010,-284 1024.5639,-264.9866 1011.9737,-239.1666 998.0004,-220.0578"/>
<polygon fill="#000000" stroke="#000000" points="1000.6872,-217.8112 991.7897,-212.0593 995.1583,-222.1044 1000.6872,-217.8112"/>
</g>
<!-- StopThetaAngle&#45;&gt;AssembleGenerateOutputFile -->
<g id="edge62" class="edge">
<title>StopThetaAngle&#45;&gt;AssembleGenerateOutputFile</title>
<path fill="none" stroke="#000000" d="M990.9965,-323.8097C1005.9554,-314.189 1021.7324,-300.845 1030,-284 1037.0496,-269.6367 1036.1907,-262.7538 1030,-248 1025.3948,-237.0247 1017.3503,-227.1573 1008.8123,-218.9529"/>
<polygon fill="#000000" stroke="#000000" points="1011.0403,-216.2497 1001.2563,-212.1849 1006.3699,-221.464 1011.0403,-216.2497"/>
</g>
<!-- IPVerticalRotations&#45;&gt;CalculateGlobalAnglesAndDirections -->
<g id="edge73" class="edge">
<title>IPVerticalRotations&#45;&gt;CalculateGlobalAnglesAndDirections</title>
<path fill="none" stroke="#000000" d="M567.6914,-247.8314C564.9883,-240.0463 561.7684,-230.7729 558.769,-222.1347"/>
<polygon fill="#000000" stroke="#000000" points="561.98,-220.7119 555.3935,-212.4133 555.3673,-223.0081 561.98,-220.7119"/>
</g>
<!-- ITHorizontalRotations&#45;&gt;CalculateGlobalAnglesAndDirections -->
<g id="edge74" class="edge">
<title>ITHorizontalRotations&#45;&gt;CalculateGlobalAnglesAndDirections</title>
<path fill="none" stroke="#000000" d="M450.3092,-247.8314C467.4273,-238.4942 488.4706,-227.016 506.7222,-217.0606"/>
<polygon fill="#000000" stroke="#000000" points="508.5985,-220.024 515.7015,-212.1628 505.2465,-213.8788 508.5985,-220.024"/>
</g>
<!-- U&#45;&gt;CalculateSphericalCoordinateSystemRadialUnitVector -->
<g id="edge83" class="edge">
<title>U&#45;&gt;CalculateSphericalCoordinateSystemRadialUnitVector</title>
<path fill="none" stroke="#000000" d="M812.237,-103.9891C812.3383,-96.291 812.4597,-87.0629 812.5756,-78.2561"/>
<polygon fill="#000000" stroke="#000000" points="816.0756,-78.2734 812.7075,-68.2282 809.0762,-78.1813 816.0756,-78.2734"/>
</g>
<!-- V&#45;&gt;CalculateSphericalCoordinateSystemRadialUnitVector -->
<g id="edge84" class="edge">
<title>V&#45;&gt;CalculateSphericalCoordinateSystemRadialUnitVector</title>
<path fill="none" stroke="#000000" d="M695.2734,-107.705C714.0201,-97.8791 739.4841,-84.5325 761.9348,-72.7652"/>
<polygon fill="#000000" stroke="#000000" points="763.7851,-75.7471 771.0174,-68.0047 760.5354,-69.5471 763.7851,-75.7471"/>
</g>
<!-- W&#45;&gt;CalculateSphericalCoordinateSystemRadialUnitVector -->
<g id="edge85" class="edge">
<title>W&#45;&gt;CalculateSphericalCoordinateSystemRadialUnitVector</title>
<path fill="none" stroke="#000000" d="M757.3,-103.9891C765.4175,-95.5379 775.3063,-85.2428 784.4863,-75.6855"/>
<polygon fill="#000000" stroke="#000000" points="787.2461,-77.8648 791.6492,-68.2282 782.1977,-73.0157 787.2461,-77.8648"/>
</g>
<!-- UU&#45;&gt;CalculateIncidentFieldInGlobalCartesianCoordinates -->
<g id="edge88" class="edge">
<title>UU&#45;&gt;CalculateIncidentFieldInGlobalCartesianCoordinates</title>
<path fill="none" stroke="#000000" d="M568.8807,-107.8831C549.9524,-98.03 524.1032,-84.5743 501.3425,-72.7262"/>
<polygon fill="#000000" stroke="#000000" points="502.9515,-69.618 492.4652,-68.1052 499.7193,-75.8272 502.9515,-69.618"/>
</g>
<!-- VV&#45;&gt;CalculateIncidentFieldInGlobalCartesianCoordinates -->
<g id="edge89" class="edge">
<title>VV&#45;&gt;CalculateIncidentFieldInGlobalCartesianCoordinates</title>
<path fill="none" stroke="#000000" d="M335.0434,-107.5261C353.361,-97.7223 378.1142,-84.4741 399.9595,-72.7823"/>
<polygon fill="#000000" stroke="#000000" points="401.6338,-75.856 408.7988,-68.0513 398.3306,-69.6843 401.6338,-75.856"/>
</g>
<!-- WW&#45;&gt;CalculateIncidentFieldInGlobalCartesianCoordinates -->
<g id="edge90" class="edge">
<title>WW&#45;&gt;CalculateIncidentFieldInGlobalCartesianCoordinates</title>
<path fill="none" stroke="#000000" d="M396.589,-103.9891C404.373,-95.5379 413.8554,-85.2428 422.6581,-75.6855"/>
<polygon fill="#000000" stroke="#000000" points="425.3263,-77.9549 429.5266,-68.2282 420.1774,-73.2125 425.3263,-77.9549"/>
</g>
<!-- Et&#45;&gt;CalculateIncidentFieldInGlobalCartesianCoordinates -->
<g id="edge91" class="edge">
<title>Et&#45;&gt;CalculateIncidentFieldInGlobalCartesianCoordinates</title>
<path fill="none" stroke="#000000" d="M191.224,-107.5565C194.1457,-106.2578 197.1074,-105.0422 200,-104 237.9668,-90.3211 280.3625,-79.0612 319.3005,-70.2209"/>
<polygon fill="#000000" stroke="#000000" points="320.1252,-73.623 329.1207,-68.0255 318.598,-66.7917 320.1252,-73.623"/>
</g>
<!-- Ep&#45;&gt;CalculateIncidentFieldInGlobalCartesianCoordinates -->
<g id="edge92" class="edge">
<title>Ep&#45;&gt;CalculateIncidentFieldInGlobalCartesianCoordinates</title>
<path fill="none" stroke="#000000" d="M263.3229,-107.8134C266.2253,-106.4646 269.1555,-105.167 272,-104 301.4472,-91.919 334.4127,-80.5934 363.8956,-71.2132"/>
<polygon fill="#000000" stroke="#000000" points="365.2644,-74.4516 373.7505,-68.1084 363.1609,-67.7751 365.2644,-74.4516"/>
</g>
<!-- SP&#45;&gt;CalculateIncidentFieldInGlobalCartesianCoordinates -->
<g id="edge93" class="edge">
<title>SP&#45;&gt;CalculateIncidentFieldInGlobalCartesianCoordinates</title>
<path fill="none" stroke="#000000" d="M451.526,-103.9891C451.3234,-96.291 451.0806,-87.0629 450.8488,-78.2561"/>
<polygon fill="#000000" stroke="#000000" points="454.3469,-78.1326 450.585,-68.2282 447.3493,-78.3169 454.3469,-78.1326"/>
</g>
<!-- CP&#45;&gt;CalculateIncidentFieldInGlobalCartesianCoordinates -->
<g id="edge94" class="edge">
<title>CP&#45;&gt;CalculateIncidentFieldInGlobalCartesianCoordinates</title>
<path fill="none" stroke="#000000" d="M506.463,-103.9891C498.1528,-95.4542 488.0114,-85.0387 478.6281,-75.4018"/>
<polygon fill="#000000" stroke="#000000" points="481.1271,-72.9513 471.6433,-68.2282 476.1118,-77.8346 481.1271,-72.9513"/>
</g>
<!-- InputPolarization -->
<g id="node51" class="node">
<title>InputPolarization</title>
<path fill="#fcfcfc" stroke="#000000" d="M129.5,-284C129.5,-284 36.5,-284 36.5,-284 30.5,-284 24.5,-278 24.5,-272 24.5,-272 24.5,-260 24.5,-260 24.5,-254 30.5,-248 36.5,-248 36.5,-248 129.5,-248 129.5,-248 135.5,-248 141.5,-254 141.5,-260 141.5,-260 141.5,-272 141.5,-272 141.5,-278 135.5,-284 129.5,-284"/>
<text text-anchor="middle" x="83" y="-262.3" font-family="Helvetica,sans-Serif" font-size="14.00" fill="#000000">InputPolarization</text>
</g>
<!-- InputPolarization&#45;&gt;CalculateIncidentWavePolarization -->
<g id="edge16" class="edge">
<title>InputPolarization&#45;&gt;CalculateIncidentWavePolarization</title>
<path fill="none" stroke="#000000" d="M103.4397,-247.8314C113.3205,-239.0485 125.3324,-228.3712 136.045,-218.8489"/>
<polygon fill="#000000" stroke="#000000" points="138.418,-221.4224 143.5668,-212.1628 133.7674,-216.1906 138.418,-221.4224"/>
</g>
<!-- StopTethaAngle -->
<g id="node53" class="node">
<title>StopTethaAngle</title>
<path fill="#fcfcfc" stroke="#000000" d="M326.5,-436C326.5,-436 237.5,-436 237.5,-436 231.5,-436 225.5,-430 225.5,-424 225.5,-424 225.5,-412 225.5,-412 225.5,-406 231.5,-400 237.5,-400 237.5,-400 326.5,-400 326.5,-400 332.5,-400 338.5,-406 338.5,-412 338.5,-412 338.5,-424 338.5,-424 338.5,-430 332.5,-436 326.5,-436"/>
<text text-anchor="middle" x="282" y="-414.3" font-family="Helvetica,sans-Serif" font-size="14.00" fill="#000000">StopTethaAngle</text>
</g>
<!-- StopTethaAngle&#45;&gt;CalculateRefsGeometryModel -->
<g id="edge42" class="edge">
<title>StopTethaAngle&#45;&gt;CalculateRefsGeometryModel</title>
<path fill="none" stroke="#000000" d="M254.9836,-399.9891C241.5538,-391.0359 225.0196,-380.0131 209.9858,-369.9905"/>
<polygon fill="#000000" stroke="#000000" points="211.6043,-366.8631 201.3423,-364.2282 207.7214,-372.6874 211.6043,-366.8631"/>
</g>
<!-- Radians -->
<g id="node54" class="node">
<title>Radians</title>
<path fill="#fcfcfc" stroke="#000000" d="M78,-436C78,-436 36,-436 36,-436 30,-436 24,-430 24,-424 24,-424 24,-412 24,-412 24,-406 30,-400 36,-400 36,-400 78,-400 78,-400 84,-400 90,-406 90,-412 90,-412 90,-424 90,-424 90,-430 84,-436 78,-436"/>
<text text-anchor="middle" x="57" y="-414.3" font-family="Helvetica,sans-Serif" font-size="14.00" fill="#000000">Radians</text>
</g>
<!-- Radians&#45;&gt;CalculateGlobalAnglesAndDirections -->
<g id="edge77" class="edge">
<title>Radians&#45;&gt;CalculateGlobalAnglesAndDirections</title>
<path fill="none" stroke="#000000" d="M47.3754,-399.9101C37.5805,-378.7405 26.0499,-343.5866 43,-320 72.2808,-279.2549 111.1003,-315.6914 150,-284 164.3607,-272.3004 155.6321,-258.3411 171,-248 210.8653,-221.1744 326.7953,-207.4141 419.8583,-200.5241"/>
<polygon fill="#000000" stroke="#000000" points="420.2128,-204.0077 429.9353,-199.798 419.7096,-197.0258 420.2128,-204.0077"/>
</g>
<!-- Radians&#45;&gt;CalculateRefsGeometryModel -->
<g id="edge44" class="edge">
<title>Radians&#45;&gt;CalculateRefsGeometryModel</title>
<path fill="none" stroke="#000000" d="M83.3055,-399.9891C96.3818,-391.0359 112.4809,-380.0131 127.1191,-369.9905"/>
<polygon fill="#000000" stroke="#000000" points="129.2612,-372.7657 135.5351,-364.2282 125.3065,-366.9898 129.2612,-372.7657"/>
</g>
<!-- Phi -->
<g id="node59" class="node">
<title>Phi</title>
<path fill="#fcfcfc" stroke="#000000" d="M314,-284C314,-284 284,-284 284,-284 278,-284 272,-278 272,-272 272,-272 272,-260 272,-260 272,-254 278,-248 284,-248 284,-248 314,-248 314,-248 320,-248 326,-254 326,-260 326,-260 326,-272 326,-272 326,-278 320,-284 314,-284"/>
<text text-anchor="middle" x="299" y="-262.3" font-family="Helvetica,sans-Serif" font-size="14.00" fill="#000000">Phi</text>
</g>
<!-- Phi&#45;&gt;CalculateGlobalAnglesAndDirections -->
<g id="edge80" class="edge">
<title>Phi&#45;&gt;CalculateGlobalAnglesAndDirections</title>
<path fill="none" stroke="#000000" d="M326.2449,-251.6136C329.1625,-250.3037 332.1176,-249.0699 335,-248 371.5295,-234.4412 412.8047,-223.1337 449.2914,-214.4283"/>
<polygon fill="#000000" stroke="#000000" points="450.5132,-217.7366 459.4477,-212.0422 448.9122,-210.9221 450.5132,-217.7366"/>
</g>
<!-- Theta -->
<g id="node60" class="node">
<title>Theta</title>
<path fill="#fcfcfc" stroke="#000000" d="M222,-284C222,-284 192,-284 192,-284 186,-284 180,-278 180,-272 180,-272 180,-260 180,-260 180,-254 186,-248 192,-248 192,-248 222,-248 222,-248 228,-248 234,-254 234,-260 234,-260 234,-272 234,-272 234,-278 228,-284 222,-284"/>
<text text-anchor="middle" x="207" y="-262.3" font-family="Helvetica,sans-Serif" font-size="14.00" fill="#000000">Theta</text>
</g>
<!-- Theta&#45;&gt;CalculateGlobalAnglesAndDirections -->
<g id="edge81" class="edge">
<title>Theta&#45;&gt;CalculateGlobalAnglesAndDirections</title>
<path fill="none" stroke="#000000" d="M234.0068,-253.075C238.607,-251.1838 243.3893,-249.4041 248,-248 303.3431,-231.1467 366.108,-218.857 419.9492,-210.2993"/>
<polygon fill="#000000" stroke="#000000" points="420.5554,-213.7471 429.8948,-208.7446 419.4742,-206.8311 420.5554,-213.7471"/>
</g>
<!-- InputModel_input_port -->
<g id="node61" class="node">
<title>InputModel_input_port</title>
<ellipse fill="#ffffff" stroke="#000000" cx="1131" cy="-634" rx="7" ry="7"/>
</g>
<!-- InputModel_input_port&#45;&gt;InputModel -->
<g id="edge96" class="edge">
<title>InputModel_input_port&#45;&gt;InputModel</title>
<path fill="none" stroke="#000000" d="M1131,-626.8833C1131,-619.3926 1131,-607.1215 1131,-595.6728"/>
<polygon fill="#000000" stroke="#000000" points="1134.5001,-595.5506 1131,-585.5507 1127.5001,-595.5507 1134.5001,-595.5506"/>
</g>
<!-- InputDataFile_input_port -->
<g id="node62" class="node">
<title>InputDataFile_input_port</title>
<ellipse fill="#ffffff" stroke="#000000" cx="636" cy="-634" rx="7" ry="7"/>
</g>
<!-- InputDataFile_input_port&#45;&gt;InputDataFile -->
<g id="edge97" class="edge">
<title>InputDataFile_input_port&#45;&gt;InputDataFile</title>
<path fill="none" stroke="#000000" d="M636,-626.8833C636,-619.3926 636,-607.1215 636,-595.6728"/>
<polygon fill="#000000" stroke="#000000" points="639.5001,-595.5506 636,-585.5507 632.5001,-595.5507 639.5001,-595.5506"/>
</g>
<!-- CoordinatesFile_input_port -->
<g id="node63" class="node">
<title>CoordinatesFile_input_port</title>
<ellipse fill="#ffffff" stroke="#000000" cx="1296" cy="-634" rx="7" ry="7"/>
</g>
<!-- CoordinatesFile_input_port&#45;&gt;CoordinatesFile -->
<g id="edge98" class="edge">
<title>CoordinatesFile_input_port&#45;&gt;CoordinatesFile</title>
<path fill="none" stroke="#000000" d="M1296,-626.8833C1296,-620.5172 1296,-610.6982 1296,-600.8657"/>
<polygon fill="#000000" stroke="#000000" points="1299.5001,-600.7584 1296,-590.7585 1292.5001,-600.7585 1299.5001,-600.7584"/>
</g>
<!-- FacetsFile_input_port -->
<g id="node64" class="node">
<title>FacetsFile_input_port</title>
<ellipse fill="#ffffff" stroke="#000000" cx="1507" cy="-634" rx="7" ry="7"/>
</g>
<!-- FacetsFile_input_port&#45;&gt;FacetsFile -->
<g id="edge99" class="edge">
<title>FacetsFile_input_port&#45;&gt;FacetsFile</title>
<path fill="none" stroke="#000000" d="M1507,-626.8833C1507,-620.5172 1507,-610.6982 1507,-600.8657"/>
<polygon fill="#000000" stroke="#000000" points="1510.5001,-600.7584 1507,-590.7585 1503.5001,-600.7585 1510.5001,-600.7584"/>
</g>
</g>
</svg>
