<svg xmlns="http://www.w3.org/2000/svg" xmlns:xlink="http://www.w3.org/1999/xlink" width="4592pt" height="1386pt" viewBox="0.00 0.00 4591.70 1386.00">
<g id="graph0" class="graph" transform="scale(1 1) rotate(0) translate(4 1382)">
<title>e_1</title>
<polygon fill="white" stroke="none" points="-4,4 -4,-1382 4587.7,-1382 4587.7,4 -4,4"/>
<!-- e_39 -->
<g id="node1" class="node">
<title>e_39</title>
<polygon fill="#3a85b9" stroke="black" points="348.65,-932 171.06,-932 171.06,-896 348.65,-896 348.65,-932"/>
<text text-anchor="middle" x="259.85" y="-908" font-family="Times,serif" font-size="20.00" fill="white">188 read_args(argv)</text>
</g>
<!-- e_18 -->
<g id="node2" class="node">
<title>e_18</title>
<path fill="#85cbd0" stroke="black" d="M106.73,-959C106.73,-959 12,-959 12,-959 6,-959 0,-953 0,-947 0,-947 0,-935 0,-935 0,-929 6,-923 12,-923 12,-923 106.73,-923 106.73,-923 112.73,-923 118.73,-929 118.73,-935 118.73,-935 118.73,-947 118.73,-947 118.73,-953 112.73,-959 106.73,-959"/>
<text text-anchor="middle" x="59.37" y="-935" font-family="Times,serif" font-size="20.00">14 read_args</text>
</g>
<!-- e_39&#45;&gt;e_18 -->
<g id="edge22" class="edge">
<title>e_39-&gt;e_18</title>
<path fill="none" stroke="black" d="M170.64,-926C157.11,-927.84 143.3,-929.72 130.23,-931.5"/>
<polygon fill="black" stroke="black" points="129.91,-928.01 120.47,-932.82 130.85,-934.94 129.91,-928.01"/>
</g>
<!-- e_36 -->
<g id="node3" class="node">
<title>e_36</title>
<path fill="#85cbd0" stroke="black" d="M90.64,-905C90.64,-905 28.1,-905 28.1,-905 22.1,-905 16.1,-899 16.1,-893 16.1,-893 16.1,-881 16.1,-881 16.1,-875 22.1,-869 28.1,-869 28.1,-869 90.64,-869 90.64,-869 96.64,-869 102.64,-875 102.64,-881 102.64,-881 102.64,-893 102.64,-893 102.64,-899 96.64,-905 90.64,-905"/>
<text text-anchor="middle" x="59.37" y="-881" font-family="Times,serif" font-size="20.00">186 argv</text>
</g>
<!-- e_39&#45;&gt;e_36 -->
<g id="edge23" class="edge">
<title>e_39-&gt;e_36</title>
<path fill="none" stroke="black" stroke-dasharray="5,2" d="M170.64,-902C151.36,-899.38 131.52,-896.68 114.07,-894.31"/>
<polygon fill="none" stroke="black" points="114.87,-890.88 104.48,-893 113.92,-897.82 114.87,-890.88"/>
<text text-anchor="middle" x="144.9" y="-903.08" font-family="Times,serif" font-size="14.00">[4]</text>
</g>
<!-- e_97 -->
<g id="node4" class="node">
<title>e_97</title>
<path fill="#85cbd0" stroke="black" d="M1130.13,-932C1130.13,-932 1067.58,-932 1067.58,-932 1061.58,-932 1055.58,-926 1055.58,-920 1055.58,-920 1055.58,-908 1055.58,-908 1055.58,-902 1061.58,-896 1067.58,-896 1067.58,-896 1130.13,-896 1130.13,-896 1136.13,-896 1142.13,-902 1142.13,-908 1142.13,-908 1142.13,-920 1142.13,-920 1142.13,-926 1136.13,-932 1130.13,-932"/>
<text text-anchor="middle" x="1098.86" y="-908" font-family="Times,serif" font-size="20.00">188 time</text>
</g>
<!-- e_97&#45;&gt;e_39 -->
<g id="edge24" class="edge">
<title>e_97-&gt;e_39</title>
<path fill="none" stroke="black" d="M1055.2,-914C927.19,-914 543.9,-914 360.61,-914"/>
<polygon fill="black" stroke="black" points="360.62,-910.5 350.62,-914 360.62,-917.5 360.62,-910.5"/>
</g>
<!-- e_98 -->
<g id="node5" class="node">
<title>e_98</title>
<path fill="#85cbd0" stroke="black" d="M1645.75,-854C1645.75,-854 1497.68,-854 1497.68,-854 1491.68,-854 1485.68,-848 1485.68,-842 1485.68,-842 1485.68,-830 1485.68,-830 1485.68,-824 1491.68,-818 1497.68,-818 1497.68,-818 1645.75,-818 1645.75,-818 1651.75,-818 1657.75,-824 1657.75,-830 1657.75,-830 1657.75,-842 1657.75,-842 1657.75,-848 1651.75,-854 1645.75,-854"/>
<text text-anchor="middle" x="1571.71" y="-830" font-family="Times,serif" font-size="20.00">188 program_name</text>
</g>
<!-- e_98&#45;&gt;e_39 -->
<g id="edge25" class="edge">
<title>e_98-&gt;e_39</title>
<path fill="none" stroke="black" d="M1485.31,-843.85C1391.04,-851.82 1234.75,-863 1099.86,-863 1099.86,-863 1099.86,-863 503.45,-863 442.76,-863 375.32,-878.47 326.98,-892.38"/>
<polygon fill="black" stroke="black" points="326.11,-888.99 317.5,-895.16 328.08,-895.7 326.11,-888.99"/>
</g>
<!-- e_99 -->
<g id="node6" class="node">
<title>e_99</title>
<path fill="#85cbd0" stroke="black" d="M578.48,-802C578.48,-802 430.41,-802 430.41,-802 424.41,-802 418.41,-796 418.41,-790 418.41,-790 418.41,-778 418.41,-778 418.41,-772 424.41,-766 430.41,-766 430.41,-766 578.48,-766 578.48,-766 584.48,-766 590.48,-772 590.48,-778 590.48,-778 590.48,-790 590.48,-790 590.48,-796 584.48,-802 578.48,-802"/>
<text text-anchor="middle" x="504.45" y="-778" font-family="Times,serif" font-size="20.00">188 input_data_file</text>
</g>
<!-- e_99&#45;&gt;e_39 -->
<g id="edge26" class="edge">
<title>e_99-&gt;e_39</title>
<path fill="none" stroke="black" d="M461.56,-802.49C434.18,-814.92 397.85,-832.07 366.65,-849 343.47,-861.58 318.29,-876.98 298.31,-889.63"/>
<polygon fill="black" stroke="black" points="296.49,-886.64 289.94,-894.97 300.25,-892.54 296.49,-886.64"/>
</g>
<!-- e_100 -->
<g id="node7" class="node">
<title>e_100</title>
<path fill="#85cbd0" stroke="black" d="M568.5,-1019C568.5,-1019 440.39,-1019 440.39,-1019 434.39,-1019 428.39,-1013 428.39,-1007 428.39,-1007 428.39,-995 428.39,-995 428.39,-989 434.39,-983 440.39,-983 440.39,-983 568.5,-983 568.5,-983 574.5,-983 580.5,-989 580.5,-995 580.5,-995 580.5,-1007 580.5,-1007 580.5,-1013 574.5,-1019 568.5,-1019"/>
<text text-anchor="middle" x="504.45" y="-995" font-family="Times,serif" font-size="20.00">188 input_model</text>
</g>
<!-- e_100&#45;&gt;e_39 -->
<g id="edge27" class="edge">
<title>e_100-&gt;e_39</title>
<path fill="none" stroke="black" d="M428,-985.41C407.8,-980.38 386.16,-974.21 366.65,-967 345.03,-959.01 322.03,-947.84 303.02,-937.81"/>
<polygon fill="black" stroke="black" points="304.71,-934.74 294.24,-933.1 301.4,-940.91 304.71,-934.74"/>
</g>
<!-- e_101 -->
<g id="node8" class="node">
<title>e_101</title>
<path fill="#85cbd0" stroke="black" d="M2522.03,-1016C2522.03,-1016 2411.7,-1016 2411.7,-1016 2405.7,-1016 2399.7,-1010 2399.7,-1004 2399.7,-1004 2399.7,-992 2399.7,-992 2399.7,-986 2405.7,-980 2411.7,-980 2411.7,-980 2522.03,-980 2522.03,-980 2528.03,-980 2534.03,-986 2534.03,-992 2534.03,-992 2534.03,-1004 2534.03,-1004 2534.03,-1010 2528.03,-1016 2522.03,-1016"/>
<text text-anchor="middle" x="2466.86" y="-992" font-family="Times,serif" font-size="20.00">188 output_dir</text>
</g>
<!-- e_101&#45;&gt;e_39 -->
<g id="edge28" class="edge">
<title>e_101-&gt;e_39</title>
<path fill="none" stroke="black" d="M2399.55,-998.17C2139.61,-998.34 1165.22,-994.24 366.65,-928 364.59,-927.83 362.52,-927.65 360.42,-927.45"/>
<polygon fill="black" stroke="black" points="360.91,-923.99 350.61,-926.48 360.22,-930.95 360.91,-923.99"/>
</g>
<!-- e_104 -->
<g id="node9" class="node">
<title>e_104</title>
<polygon fill="#3a85b9" stroke="black" points="1032.02,-537 681.13,-537 681.13,-501 1032.02,-501 1032.02,-537"/>
<text text-anchor="middle" x="856.57" y="-513" font-family="Times,serif" font-size="20.00" fill="white">190 read_data_file_input(input_data_file)</text>
</g>
<!-- e_104&#45;&gt;e_99 -->
<g id="edge3" class="edge">
<title>e_104-&gt;e_99</title>
<path fill="none" stroke="black" d="M831.23,-537.42C769.79,-583.93 608.35,-706.12 538.47,-759.01"/>
<polygon fill="black" stroke="black" points="536.7,-755.96 530.83,-764.78 540.92,-761.54 536.7,-755.96"/>
</g>
<!-- a_3 -->
<g id="node10" class="node">
<title>a_3</title>
<path fill="white" stroke="black" d="M595.7,-564C595.7,-564 413.19,-564 413.19,-564 407.19,-564 401.19,-558 401.19,-552 401.19,-552 401.19,-540 401.19,-540 401.19,-534 407.19,-528 413.19,-528 413.19,-528 595.7,-528 595.7,-528 601.7,-528 607.7,-534 607.7,-540 607.7,-540 607.7,-552 607.7,-552 607.7,-558 601.7,-564 595.7,-564"/>
<text text-anchor="middle" x="504.45" y="-540" font-family="Times,serif" font-size="20.00">input_data_file_002.dat</text>
</g>
<!-- e_104&#45;&gt;a_3 -->
<g id="edge1" class="edge">
<title>e_104-&gt;a_3</title>
<path fill="none" stroke="black" stroke-dasharray="5,2" d="M680.77,-532.48C659.88,-534.09 638.99,-535.7 619.28,-537.22"/>
<polygon fill="black" stroke="black" points="619.04,-533.73 609.34,-537.99 619.58,-540.71 619.04,-533.73"/>
</g>
<!-- e_20 -->
<g id="node11" class="node">
<title>e_20</title>
<path fill="#85cbd0" stroke="black" d="M595.69,-510C595.69,-510 413.2,-510 413.2,-510 407.2,-510 401.2,-504 401.2,-498 401.2,-498 401.2,-486 401.2,-486 401.2,-480 407.2,-474 413.2,-474 413.2,-474 595.69,-474 595.69,-474 601.69,-474 607.69,-480 607.69,-486 607.69,-486 607.69,-498 607.69,-498 607.69,-504 601.69,-510 595.69,-510"/>
<text text-anchor="middle" x="504.45" y="-486" font-family="Times,serif" font-size="20.00">28 read_data_file_input</text>
</g>
<!-- e_104&#45;&gt;e_20 -->
<g id="edge2" class="edge">
<title>e_104-&gt;e_20</title>
<path fill="none" stroke="black" d="M680.77,-505.52C659.88,-503.91 638.99,-502.3 619.28,-500.78"/>
<polygon fill="black" stroke="black" points="619.58,-497.29 609.34,-500.01 619.04,-504.27 619.58,-497.29"/>
</g>
<!-- e_301 -->
<g id="node12" class="node">
<title>e_301</title>
<path fill="#85cbd0" stroke="black" d="M1343.5,-321C1343.5,-321 1284.31,-321 1284.31,-321 1278.31,-321 1272.31,-315 1272.31,-309 1272.31,-309 1272.31,-297 1272.31,-297 1272.31,-291 1278.31,-285 1284.31,-285 1284.31,-285 1343.5,-285 1343.5,-285 1349.5,-285 1355.5,-291 1355.5,-297 1355.5,-297 1355.5,-309 1355.5,-309 1355.5,-315 1349.5,-321 1343.5,-321"/>
<text text-anchor="middle" x="1313.91" y="-297" font-family="Times,serif" font-size="20.00">190 freq</text>
</g>
<!-- e_301&#45;&gt;e_104 -->
<g id="edge29" class="edge">
<title>e_301-&gt;e_104</title>
<path fill="none" stroke="black" d="M1271.88,-305.96C1240.45,-309.24 1196.46,-316.05 1160.13,-330 1052.41,-371.37 941.23,-452.63 888.68,-493.81"/>
<polygon fill="black" stroke="black" points="886.73,-490.89 881.05,-499.83 891.07,-496.38 886.73,-490.89"/>
</g>
<!-- e_302 -->
<g id="node13" class="node">
<title>e_302</title>
<path fill="#85cbd0" stroke="black" d="M2243.63,-765C2243.63,-765 2184.44,-765 2184.44,-765 2178.44,-765 2172.44,-759 2172.44,-753 2172.44,-753 2172.44,-741 2172.44,-741 2172.44,-735 2178.44,-729 2184.44,-729 2184.44,-729 2243.63,-729 2243.63,-729 2249.63,-729 2255.63,-735 2255.63,-741 2255.63,-741 2255.63,-753 2255.63,-753 2255.63,-759 2249.63,-765 2243.63,-765"/>
<text text-anchor="middle" x="2214.04" y="-741" font-family="Times,serif" font-size="20.00">190 corr</text>
</g>
<!-- e_302&#45;&gt;e_104 -->
<g id="edge30" class="edge">
<title>e_302-&gt;e_104</title>
<path fill="none" stroke="black" d="M2172.41,-750.99C2030.15,-763.69 1542.39,-796.64 1160.13,-694 1050.94,-664.68 940.43,-585.35 888.35,-544.33"/>
<polygon fill="black" stroke="black" points="890.81,-541.8 880.8,-538.31 886.45,-547.28 890.81,-541.8"/>
</g>
<!-- e_303 -->
<g id="node14" class="node">
<title>e_303</title>
<path fill="#85cbd0" stroke="black" d="M2251.42,-724C2251.42,-724 2176.65,-724 2176.65,-724 2170.65,-724 2164.65,-718 2164.65,-712 2164.65,-712 2164.65,-700 2164.65,-700 2164.65,-694 2170.65,-688 2176.65,-688 2176.65,-688 2251.42,-688 2251.42,-688 2257.42,-688 2263.42,-694 2263.42,-700 2263.42,-700 2263.42,-712 2263.42,-712 2263.42,-718 2257.42,-724 2251.42,-724"/>
<text text-anchor="middle" x="2214.04" y="-700" font-family="Times,serif" font-size="20.00">190 delstd</text>
</g>
<!-- e_303&#45;&gt;e_104 -->
<g id="edge31" class="edge">
<title>e_303-&gt;e_104</title>
<path fill="none" stroke="black" d="M2164.22,-710.57C2012.36,-723.34 1535.95,-752.28 1160.13,-654 1062.43,-628.45 956.43,-574.45 899.47,-543.04"/>
<polygon fill="black" stroke="black" points="901.18,-539.98 890.74,-538.18 897.78,-546.1 901.18,-539.98"/>
</g>
<!-- e_304 -->
<g id="node15" class="node">
<title>e_304</title>
<path fill="#85cbd0" stroke="black" d="M2495.92,-90C2495.92,-90 2437.81,-90 2437.81,-90 2431.81,-90 2425.81,-84 2425.81,-78 2425.81,-78 2425.81,-66 2425.81,-66 2425.81,-60 2431.81,-54 2437.81,-54 2437.81,-54 2495.92,-54 2495.92,-54 2501.92,-54 2507.92,-60 2507.92,-66 2507.92,-66 2507.92,-78 2507.92,-78 2507.92,-84 2501.92,-90 2495.92,-90"/>
<text text-anchor="middle" x="2466.86" y="-66" font-family="Times,serif" font-size="20.00">190 ipol</text>
</g>
<!-- e_304&#45;&gt;e_104 -->
<g id="edge32" class="edge">
<title>e_304-&gt;e_104</title>
<path fill="none" stroke="black" d="M2425.57,-64.87C2259.31,-37.42 1613.97,49.33 1160.13,-168 1011.74,-239.06 907.36,-420.58 871.36,-490.73"/>
<polygon fill="black" stroke="black" points="868.43,-488.77 867.05,-499.27 874.68,-491.93 868.43,-488.77"/>
</g>
<!-- e_305 -->
<g id="node16" class="node">
<title>e_305</title>
<path fill="#85cbd0" stroke="black" d="M1349.62,-591C1349.62,-591 1278.19,-591 1278.19,-591 1272.19,-591 1266.19,-585 1266.19,-579 1266.19,-579 1266.19,-567 1266.19,-567 1266.19,-561 1272.19,-555 1278.19,-555 1278.19,-555 1349.62,-555 1349.62,-555 1355.62,-555 1361.62,-561 1361.62,-567 1361.62,-567 1361.62,-579 1361.62,-579 1361.62,-585 1355.62,-591 1349.62,-591"/>
<text text-anchor="middle" x="1313.91" y="-567" font-family="Times,serif" font-size="20.00">190 pstart</text>
</g>
<!-- e_305&#45;&gt;e_104 -->
<g id="edge33" class="edge">
<title>e_305-&gt;e_104</title>
<path fill="none" stroke="black" d="M1265.89,-567.42C1209.19,-560.7 1110.75,-549.03 1024.74,-538.82"/>
<polygon fill="black" stroke="black" points="1025.35,-535.37 1015.01,-537.67 1024.53,-542.32 1025.35,-535.37"/>
</g>
<!-- e_306 -->
<g id="node17" class="node">
<title>e_306</title>
<path fill="#85cbd0" stroke="black" d="M1349.08,-645C1349.08,-645 1278.74,-645 1278.74,-645 1272.74,-645 1266.74,-639 1266.74,-633 1266.74,-633 1266.74,-621 1266.74,-621 1266.74,-615 1272.74,-609 1278.74,-609 1278.74,-609 1349.08,-609 1349.08,-609 1355.08,-609 1361.08,-615 1361.08,-621 1361.08,-621 1361.08,-633 1361.08,-633 1361.08,-639 1355.08,-645 1349.08,-645"/>
<text text-anchor="middle" x="1313.91" y="-621" font-family="Times,serif" font-size="20.00">190 pstop</text>
</g>
<!-- e_306&#45;&gt;e_104 -->
<g id="edge34" class="edge">
<title>e_306-&gt;e_104</title>
<path fill="none" stroke="black" d="M1266.57,-619.88C1236.17,-614.95 1195.63,-607.87 1160.13,-600 1081.29,-582.51 992.11,-558.06 931.11,-540.6"/>
<polygon fill="black" stroke="black" points="932.09,-537.24 921.51,-537.85 930.16,-543.97 932.09,-537.24"/>
</g>
<!-- e_307 -->
<g id="node18" class="node">
<title>e_307</title>
<path fill="#85cbd0" stroke="black" d="M1344.62,-483C1344.62,-483 1283.19,-483 1283.19,-483 1277.19,-483 1271.19,-477 1271.19,-471 1271.19,-471 1271.19,-459 1271.19,-459 1271.19,-453 1277.19,-447 1283.19,-447 1283.19,-447 1344.62,-447 1344.62,-447 1350.62,-447 1356.62,-453 1356.62,-459 1356.62,-459 1356.62,-471 1356.62,-471 1356.62,-477 1350.62,-483 1344.62,-483"/>
<text text-anchor="middle" x="1313.91" y="-459" font-family="Times,serif" font-size="20.00">190 delp</text>
</g>
<!-- e_307&#45;&gt;e_104 -->
<g id="edge35" class="edge">
<title>e_307-&gt;e_104</title>
<path fill="none" stroke="black" d="M1270.88,-469.98C1215.09,-476.6 1113.28,-488.67 1024.67,-499.18"/>
<polygon fill="black" stroke="black" points="1024.4,-495.69 1014.88,-500.34 1025.22,-502.64 1024.4,-495.69"/>
</g>
<!-- e_308 -->
<g id="node19" class="node">
<title>e_308</title>
<path fill="#85cbd0" stroke="black" d="M1347.4,-267C1347.4,-267 1280.41,-267 1280.41,-267 1274.41,-267 1268.41,-261 1268.41,-255 1268.41,-255 1268.41,-243 1268.41,-243 1268.41,-237 1274.41,-231 1280.41,-231 1280.41,-231 1347.4,-231 1347.4,-231 1353.4,-231 1359.4,-237 1359.4,-243 1359.4,-243 1359.4,-255 1359.4,-255 1359.4,-261 1353.4,-267 1347.4,-267"/>
<text text-anchor="middle" x="1313.91" y="-243" font-family="Times,serif" font-size="20.00">190 tstart</text>
</g>
<!-- e_308&#45;&gt;e_104 -->
<g id="edge36" class="edge">
<title>e_308-&gt;e_104</title>
<path fill="none" stroke="black" d="M1268.03,-252.72C1237,-256.3 1195.15,-263.15 1160.13,-276 1036.66,-321.29 925.57,-438.8 879.77,-492.06"/>
<polygon fill="black" stroke="black" points="877.27,-489.59 873.47,-499.48 882.61,-494.12 877.27,-489.59"/>
</g>
<!-- e_309 -->
<g id="node20" class="node">
<title>e_309</title>
<path fill="#85cbd0" stroke="black" d="M1346.85,-537C1346.85,-537 1280.96,-537 1280.96,-537 1274.96,-537 1268.96,-531 1268.96,-525 1268.96,-525 1268.96,-513 1268.96,-513 1268.96,-507 1274.96,-501 1280.96,-501 1280.96,-501 1346.85,-501 1346.85,-501 1352.85,-501 1358.85,-507 1358.85,-513 1358.85,-513 1358.85,-525 1358.85,-525 1358.85,-531 1352.85,-537 1346.85,-537"/>
<text text-anchor="middle" x="1313.91" y="-513" font-family="Times,serif" font-size="20.00">190 tstop</text>
</g>
<!-- e_309&#45;&gt;e_104 -->
<g id="edge37" class="edge">
<title>e_309-&gt;e_104</title>
<path fill="none" stroke="black" d="M1268.83,-519C1216.66,-519 1126.41,-519 1043.71,-519"/>
<polygon fill="black" stroke="black" points="1043.88,-515.5 1033.88,-519 1043.88,-522.5 1043.88,-515.5"/>
</g>
<!-- e_310 -->
<g id="node21" class="node">
<title>e_310</title>
<path fill="#85cbd0" stroke="black" d="M1342.4,-429C1342.4,-429 1285.41,-429 1285.41,-429 1279.41,-429 1273.41,-423 1273.41,-417 1273.41,-417 1273.41,-405 1273.41,-405 1273.41,-399 1279.41,-393 1285.41,-393 1285.41,-393 1342.4,-393 1342.4,-393 1348.4,-393 1354.4,-399 1354.4,-405 1354.4,-405 1354.4,-417 1354.4,-417 1354.4,-423 1348.4,-429 1342.4,-429"/>
<text text-anchor="middle" x="1313.91" y="-405" font-family="Times,serif" font-size="20.00">190 delt</text>
</g>
<!-- e_310&#45;&gt;e_104 -->
<g id="edge38" class="edge">
<title>e_310-&gt;e_104</title>
<path fill="none" stroke="black" d="M1273.15,-417.06C1242.21,-422 1198.26,-429.54 1160.13,-438 1081.29,-455.49 992.11,-479.94 931.11,-497.4"/>
<polygon fill="black" stroke="black" points="930.16,-494.03 921.51,-500.15 932.09,-500.76 930.16,-494.03"/>
</g>
<!-- e_313 -->
<g id="node22" class="node">
<title>e_313</title>
<polygon fill="#3a85b9" stroke="black" points="2046.08,-236 1776.32,-236 1776.32,-200 2046.08,-200 2046.08,-236"/>
<text text-anchor="middle" x="1911.2" y="-212" font-family="Times,serif" font-size="20.00" fill="white">192 calculate_wavelength(freq)</text>
</g>
<!-- e_313&#45;&gt;e_301 -->
<g id="edge40" class="edge">
<title>e_313-&gt;e_301</title>
<path fill="none" stroke="black" stroke-dasharray="5,2" d="M1851.95,-236.43C1801.21,-251.65 1725.38,-272.42 1657.75,-283 1555.56,-298.98 1434.45,-302.49 1366.97,-303.09"/>
<polygon fill="none" stroke="black" points="1367.3,-299.58 1357.33,-303.15 1367.35,-306.58 1367.3,-299.58"/>
</g>
<!-- e_21 -->
<g id="node23" class="node">
<title>e_21</title>
<path fill="#85cbd0" stroke="black" d="M1409.03,-213C1409.03,-213 1218.78,-213 1218.78,-213 1212.78,-213 1206.78,-207 1206.78,-201 1206.78,-201 1206.78,-189 1206.78,-189 1206.78,-183 1212.78,-177 1218.78,-177 1218.78,-177 1409.03,-177 1409.03,-177 1415.03,-177 1421.03,-183 1421.03,-189 1421.03,-189 1421.03,-201 1421.03,-201 1421.03,-207 1415.03,-213 1409.03,-213"/>
<text text-anchor="middle" x="1313.91" y="-189" font-family="Times,serif" font-size="20.00">38 calculate_wavelength</text>
</g>
<!-- e_313&#45;&gt;e_21 -->
<g id="edge39" class="edge">
<title>e_313-&gt;e_21</title>
<path fill="none" stroke="black" d="M1775.86,-212.81C1672.67,-208.82 1531.56,-203.37 1432.74,-199.55"/>
<polygon fill="black" stroke="black" points="1433.15,-196.07 1423.02,-199.18 1432.88,-203.06 1433.15,-196.07"/>
</g>
<!-- e_322 -->
<g id="node24" class="node">
<title>e_322</title>
<path fill="#85cbd0" stroke="black" d="M2507.57,-144C2507.57,-144 2426.16,-144 2426.16,-144 2420.16,-144 2414.16,-138 2414.16,-132 2414.16,-132 2414.16,-120 2414.16,-120 2414.16,-114 2420.16,-108 2426.16,-108 2426.16,-108 2507.57,-108 2507.57,-108 2513.57,-108 2519.57,-114 2519.57,-120 2519.57,-120 2519.57,-132 2519.57,-132 2519.57,-138 2513.57,-144 2507.57,-144"/>
<text text-anchor="middle" x="2466.86" y="-120" font-family="Times,serif" font-size="20.00">192 waveL</text>
</g>
<!-- e_322&#45;&gt;e_313 -->
<g id="edge41" class="edge">
<title>e_322-&gt;e_313</title>
<path fill="none" stroke="black" d="M2413.73,-133.22C2376.76,-138.44 2325.99,-145.82 2281.42,-153 2194.63,-166.99 2096.64,-184.31 2023.43,-197.55"/>
<polygon fill="none" stroke="black" points="2023.06,-194.06 2013.85,-199.29 2024.31,-200.95 2023.06,-194.06"/>
</g>
<!-- e_326 -->
<g id="node25" class="node">
<title>e_326</title>
<polygon fill="#3a85b9" stroke="black" points="3173.29,-144 2710.25,-144 2710.25,-108 3173.29,-108 3173.29,-144"/>
<text text-anchor="middle" x="2941.77" y="-120" font-family="Times,serif" font-size="20.00" fill="white">194 calculate_incident_wave_polarization(ipol, waveL)</text>
</g>
<!-- e_326&#45;&gt;e_304 -->
<g id="edge43" class="edge">
<title>e_326-&gt;e_304</title>
<path fill="none" stroke="black" stroke-dasharray="5,2" d="M2779.01,-107.53C2688.55,-97.2 2581.84,-85.01 2519.81,-77.93"/>
<polygon fill="none" stroke="black" points="2520.23,-74.46 2509.89,-76.8 2519.43,-81.41 2520.23,-74.46"/>
<text text-anchor="middle" x="2678.47" y="-99.97" font-family="Times,serif" font-size="14.00">[0]</text>
</g>
<!-- e_326&#45;&gt;e_322 -->
<g id="edge44" class="edge">
<title>e_326-&gt;e_322</title>
<path fill="none" stroke="black" d="M2709.86,-126C2644.15,-126 2577.87,-126 2531.33,-126"/>
<polygon fill="black" stroke="black" points="2531.45,-122.5 2521.45,-126 2531.45,-129.5 2531.45,-122.5"/>
</g>
<!-- e_22 -->
<g id="node26" class="node">
<title>e_22</title>
<path fill="#85cbd0" stroke="black" d="M2626.96,-36C2626.96,-36 2306.77,-36 2306.77,-36 2300.77,-36 2294.77,-30 2294.77,-24 2294.77,-24 2294.77,-12 2294.77,-12 2294.77,-6 2300.77,0 2306.77,0 2306.77,0 2626.96,0 2626.96,0 2632.96,0 2638.96,-6 2638.96,-12 2638.96,-12 2638.96,-24 2638.96,-24 2638.96,-30 2632.96,-36 2626.96,-36"/>
<text text-anchor="middle" x="2466.86" y="-12" font-family="Times,serif" font-size="20.00">44 calculate_incident_wave_polarization</text>
</g>
<!-- e_326&#45;&gt;e_22 -->
<g id="edge42" class="edge">
<title>e_326-&gt;e_22</title>
<path fill="none" stroke="black" d="M2883.3,-107.51C2825.46,-89.45 2733.46,-62.26 2652.3,-45 2641.27,-42.65 2629.82,-40.44 2618.27,-38.38"/>
<polygon fill="black" stroke="black" points="2619.13,-34.98 2608.68,-36.71 2617.93,-41.87 2619.13,-34.98"/>
</g>
<!-- e_344 -->
<g id="node27" class="node">
<title>e_344</title>
<path fill="#85cbd0" stroke="black" d="M3485.1,-366C3485.1,-366 3443.67,-366 3443.67,-366 3437.67,-366 3431.67,-360 3431.67,-354 3431.67,-354 3431.67,-342 3431.67,-342 3431.67,-336 3437.67,-330 3443.67,-330 3443.67,-330 3485.1,-330 3485.1,-330 3491.1,-330 3497.1,-336 3497.1,-342 3497.1,-342 3497.1,-354 3497.1,-354 3497.1,-360 3491.1,-366 3485.1,-366"/>
<text text-anchor="middle" x="3464.38" y="-342" font-family="Times,serif" font-size="20.00">194 et</text>
</g>
<!-- e_344&#45;&gt;e_326 -->
<g id="edge45" class="edge">
<title>e_344-&gt;e_326</title>
<path fill="none" stroke="black" d="M3431.33,-349.57C3382.96,-350.84 3289.2,-348.95 3215.91,-321 3113.88,-282.09 3014.84,-195.63 2969.11,-152.11"/>
<polygon fill="black" stroke="black" points="2971.66,-149.71 2962.03,-145.3 2966.81,-154.76 2971.66,-149.71"/>
</g>
<!-- e_345 -->
<g id="node28" class="node">
<title>e_345</title>
<path fill="#85cbd0" stroke="black" d="M3487.32,-420C3487.32,-420 3441.45,-420 3441.45,-420 3435.45,-420 3429.45,-414 3429.45,-408 3429.45,-408 3429.45,-396 3429.45,-396 3429.45,-390 3435.45,-384 3441.45,-384 3441.45,-384 3487.32,-384 3487.32,-384 3493.32,-384 3499.32,-390 3499.32,-396 3499.32,-396 3499.32,-408 3499.32,-408 3499.32,-414 3493.32,-420 3487.32,-420"/>
<text text-anchor="middle" x="3464.38" y="-396" font-family="Times,serif" font-size="20.00">194 ep</text>
</g>
<!-- e_345&#45;&gt;e_326 -->
<g id="edge46" class="edge">
<title>e_345-&gt;e_326</title>
<path fill="none" stroke="black" d="M3429.24,-404.76C3379.84,-407.35 3286.62,-406.91 3215.91,-375 3101.98,-323.58 3003.28,-206.23 2962.6,-153.07"/>
<polygon fill="black" stroke="black" points="2965.64,-151.29 2956.82,-145.42 2960.06,-155.51 2965.64,-151.29"/>
</g>
<!-- e_348 -->
<g id="node29" class="node">
<title>e_348</title>
<polygon fill="#3a85b9" stroke="black" points="1037.58,-1108 675.57,-1108 675.57,-1072 1037.58,-1072 1037.58,-1108"/>
<text text-anchor="middle" x="856.57" y="-1084" font-family="Times,serif" font-size="20.00" fill="white">196 read_model_coordinates(input_model)</text>
</g>
<!-- e_348&#45;&gt;e_100 -->
<g id="edge6" class="edge">
<title>e_348-&gt;e_100</title>
<path fill="none" stroke="black" stroke-dasharray="5,2" d="M787.06,-1071.56C740.85,-1059.24 678.47,-1042.81 623.24,-1029 613.1,-1026.46 602.46,-1023.86 591.88,-1021.3"/>
<polygon fill="none" stroke="black" points="592.93,-1017.95 582.39,-1019.02 591.29,-1024.76 592.93,-1017.95"/>
<text text-anchor="middle" x="649.4" y="-1041.2" font-family="Times,serif" font-size="14.00">[1]</text>
</g>
<!-- a_4 -->
<g id="node30" class="node">
<title>a_4</title>
<path fill="white" stroke="black" d="M580.71,-1074C580.71,-1074 428.18,-1074 428.18,-1074 422.18,-1074 416.18,-1068 416.18,-1062 416.18,-1062 416.18,-1050 416.18,-1050 416.18,-1044 422.18,-1038 428.18,-1038 428.18,-1038 580.71,-1038 580.71,-1038 586.71,-1038 592.71,-1044 592.71,-1050 592.71,-1050 592.71,-1062 592.71,-1062 592.71,-1068 586.71,-1074 580.71,-1074"/>
<text text-anchor="middle" x="504.45" y="-1050" font-family="Times,serif" font-size="20.00">BOX/coordinates.m</text>
</g>
<!-- e_348&#45;&gt;a_4 -->
<g id="edge4" class="edge">
<title>e_348-&gt;a_4</title>
<path fill="none" stroke="black" stroke-dasharray="5,2" d="M675.13,-1072.48C650.75,-1070.11 626.52,-1067.76 604.31,-1065.6"/>
<polygon fill="black" stroke="black" points="604.7,-1062.12 594.4,-1064.64 604.02,-1069.09 604.7,-1062.12"/>
</g>
<!-- e_23 -->
<g id="node31" class="node">
<title>e_23</title>
<path fill="#85cbd0" stroke="black" d="M611.24,-1128C611.24,-1128 397.65,-1128 397.65,-1128 391.65,-1128 385.65,-1122 385.65,-1116 385.65,-1116 385.65,-1104 385.65,-1104 385.65,-1098 391.65,-1092 397.65,-1092 397.65,-1092 611.24,-1092 611.24,-1092 617.24,-1092 623.24,-1098 623.24,-1104 623.24,-1104 623.24,-1116 623.24,-1116 623.24,-1122 617.24,-1128 611.24,-1128"/>
<text text-anchor="middle" x="504.45" y="-1104" font-family="Times,serif" font-size="20.00">54 read_model_coordinates</text>
</g>
<!-- e_348&#45;&gt;e_23 -->
<g id="edge5" class="edge">
<title>e_348-&gt;e_23</title>
<path fill="none" stroke="black" d="M675.13,-1100.31C661.53,-1101.08 647.98,-1101.86 634.8,-1102.61"/>
<polygon fill="black" stroke="black" points="634.62,-1099.12 624.84,-1103.18 635.02,-1106.1 634.62,-1099.12"/>
</g>
<!-- e_395 -->
<g id="node32" class="node">
<title>e_395</title>
<path fill="#85cbd0" stroke="black" d="M1344.08,-1162C1344.08,-1162 1283.74,-1162 1283.74,-1162 1277.74,-1162 1271.74,-1156 1271.74,-1150 1271.74,-1150 1271.74,-1138 1271.74,-1138 1271.74,-1132 1277.74,-1126 1283.74,-1126 1283.74,-1126 1344.08,-1126 1344.08,-1126 1350.08,-1126 1356.08,-1132 1356.08,-1138 1356.08,-1138 1356.08,-1150 1356.08,-1150 1356.08,-1156 1350.08,-1162 1344.08,-1162"/>
<text text-anchor="middle" x="1313.91" y="-1138" font-family="Times,serif" font-size="20.00">196 xpts</text>
</g>
<!-- e_395&#45;&gt;e_348 -->
<g id="edge47" class="edge">
<title>e_395-&gt;e_348</title>
<path fill="none" stroke="black" d="M1271.29,-1139.06C1215.6,-1132.46 1113.55,-1120.36 1024.74,-1109.83"/>
<polygon fill="black" stroke="black" points="1025.27,-1106.36 1014.93,-1108.66 1024.45,-1113.32 1025.27,-1106.36"/>
</g>
<!-- e_396 -->
<g id="node33" class="node">
<title>e_396</title>
<path fill="#85cbd0" stroke="black" d="M1344.08,-1108C1344.08,-1108 1283.74,-1108 1283.74,-1108 1277.74,-1108 1271.74,-1102 1271.74,-1096 1271.74,-1096 1271.74,-1084 1271.74,-1084 1271.74,-1078 1277.74,-1072 1283.74,-1072 1283.74,-1072 1344.08,-1072 1344.08,-1072 1350.08,-1072 1356.08,-1078 1356.08,-1084 1356.08,-1084 1356.08,-1096 1356.08,-1096 1356.08,-1102 1350.08,-1108 1344.08,-1108"/>
<text text-anchor="middle" x="1313.91" y="-1084" font-family="Times,serif" font-size="20.00">196 ypts</text>
</g>
<!-- e_396&#45;&gt;e_348 -->
<g id="edge48" class="edge">
<title>e_396-&gt;e_348</title>
<path fill="none" stroke="black" d="M1271.29,-1090C1220.65,-1090 1131.68,-1090 1049.19,-1090"/>
<polygon fill="black" stroke="black" points="1049.37,-1086.5 1039.37,-1090 1049.37,-1093.5 1049.37,-1086.5"/>
</g>
<!-- e_397 -->
<g id="node34" class="node">
<title>e_397</title>
<path fill="#85cbd0" stroke="black" d="M1343.51,-1054C1343.51,-1054 1284.3,-1054 1284.3,-1054 1278.3,-1054 1272.3,-1048 1272.3,-1042 1272.3,-1042 1272.3,-1030 1272.3,-1030 1272.3,-1024 1278.3,-1018 1284.3,-1018 1284.3,-1018 1343.51,-1018 1343.51,-1018 1349.51,-1018 1355.51,-1024 1355.51,-1030 1355.51,-1030 1355.51,-1042 1355.51,-1042 1355.51,-1048 1349.51,-1054 1343.51,-1054"/>
<text text-anchor="middle" x="1313.91" y="-1030" font-family="Times,serif" font-size="20.00">196 zpts</text>
</g>
<!-- e_397&#45;&gt;e_348 -->
<g id="edge49" class="edge">
<title>e_397-&gt;e_348</title>
<path fill="none" stroke="black" d="M1272.1,-1040.84C1216.62,-1047.42 1114.1,-1059.58 1024.89,-1070.16"/>
<polygon fill="black" stroke="black" points="1024.54,-1066.67 1015.03,-1071.33 1025.37,-1073.62 1024.54,-1066.67"/>
</g>
<!-- e_398 -->
<g id="node35" class="node">
<title>e_398</title>
<path fill="#85cbd0" stroke="black" d="M1351.84,-1270C1351.84,-1270 1275.97,-1270 1275.97,-1270 1269.97,-1270 1263.97,-1264 1263.97,-1258 1263.97,-1258 1263.97,-1246 1263.97,-1246 1263.97,-1240 1269.97,-1234 1275.97,-1234 1275.97,-1234 1351.84,-1234 1351.84,-1234 1357.84,-1234 1363.84,-1240 1363.84,-1246 1363.84,-1246 1363.84,-1258 1363.84,-1258 1363.84,-1264 1357.84,-1270 1351.84,-1270"/>
<text text-anchor="middle" x="1313.91" y="-1246" font-family="Times,serif" font-size="20.00">196 nverts</text>
</g>
<!-- e_398&#45;&gt;e_348 -->
<g id="edge50" class="edge">
<title>e_398-&gt;e_348</title>
<path fill="none" stroke="black" d="M1263.52,-1246.92C1233.16,-1242.91 1193.77,-1236.09 1160.13,-1225 1102.35,-1205.95 1092.99,-1189.14 1037.58,-1164 997.29,-1145.72 951.12,-1126.78 915.62,-1112.63"/>
<polygon fill="black" stroke="black" points="916.96,-1109.4 906.37,-1108.96 914.38,-1115.91 916.96,-1109.4"/>
</g>
<!-- e_401 -->
<g id="node36" class="node">
<title>e_401</title>
<polygon fill="#3a85b9" stroke="black" points="1014.8,-1209 698.34,-1209 698.34,-1173 1014.8,-1173 1014.8,-1209"/>
<text text-anchor="middle" x="856.57" y="-1185" font-family="Times,serif" font-size="20.00" fill="white">198 read_facets_model(input_model)</text>
</g>
<!-- e_401&#45;&gt;e_100 -->
<g id="edge9" class="edge">
<title>e_401-&gt;e_100</title>
<path fill="none" stroke="black" stroke-dasharray="5,2" d="M781.8,-1172.53C746.69,-1160.96 705.87,-1143.17 675.57,-1117 671.26,-1113.28 627.83,-1032.37 623.24,-1029 613.81,-1022.07 602.9,-1016.82 591.61,-1012.86"/>
<polygon fill="none" stroke="black" points="592.74,-1009.55 582.15,-1009.9 590.65,-1016.23 592.74,-1009.55"/>
</g>
<!-- a_5 -->
<g id="node37" class="node">
<title>a_5</title>
<path fill="white" stroke="black" d="M557.93,-1236C557.93,-1236 450.96,-1236 450.96,-1236 444.96,-1236 438.96,-1230 438.96,-1224 438.96,-1224 438.96,-1212 438.96,-1212 438.96,-1206 444.96,-1200 450.96,-1200 450.96,-1200 557.93,-1200 557.93,-1200 563.93,-1200 569.93,-1206 569.93,-1212 569.93,-1212 569.93,-1224 569.93,-1224 569.93,-1230 563.93,-1236 557.93,-1236"/>
<text text-anchor="middle" x="504.45" y="-1212" font-family="Times,serif" font-size="20.00">BOX/facets.m</text>
</g>
<!-- e_401&#45;&gt;a_5 -->
<g id="edge7" class="edge">
<title>e_401-&gt;a_5</title>
<path fill="none" stroke="black" stroke-dasharray="5,2" d="M697.92,-1203.16C657.48,-1206.28 615.79,-1209.49 581.59,-1212.13"/>
<polygon fill="black" stroke="black" points="581.5,-1208.62 571.8,-1212.88 582.04,-1215.6 581.5,-1208.62"/>
</g>
<!-- e_24 -->
<g id="node38" class="node">
<title>e_24</title>
<path fill="#85cbd0" stroke="black" d="M588.46,-1182C588.46,-1182 420.43,-1182 420.43,-1182 414.43,-1182 408.43,-1176 408.43,-1170 408.43,-1170 408.43,-1158 408.43,-1158 408.43,-1152 414.43,-1146 420.43,-1146 420.43,-1146 588.46,-1146 588.46,-1146 594.46,-1146 600.46,-1152 600.46,-1158 600.46,-1158 600.46,-1170 600.46,-1170 600.46,-1176 594.46,-1182 588.46,-1182"/>
<text text-anchor="middle" x="504.45" y="-1158" font-family="Times,serif" font-size="20.00">64 read_facets_model</text>
</g>
<!-- e_401&#45;&gt;e_24 -->
<g id="edge8" class="edge">
<title>e_401-&gt;e_24</title>
<path fill="none" stroke="black" d="M697.92,-1178.84C668.86,-1176.6 639.15,-1174.31 612.04,-1172.22"/>
<polygon fill="black" stroke="black" points="612.34,-1168.73 602.1,-1171.45 611.8,-1175.71 612.34,-1168.73"/>
</g>
<!-- e_419 -->
<g id="node39" class="node">
<title>e_419</title>
<path fill="#85cbd0" stroke="black" d="M1350.72,-1378C1350.72,-1378 1277.09,-1378 1277.09,-1378 1271.09,-1378 1265.09,-1372 1265.09,-1366 1265.09,-1366 1265.09,-1354 1265.09,-1354 1265.09,-1348 1271.09,-1342 1277.09,-1342 1277.09,-1342 1350.72,-1342 1350.72,-1342 1356.72,-1342 1362.72,-1348 1362.72,-1354 1362.72,-1354 1362.72,-1366 1362.72,-1366 1362.72,-1372 1356.72,-1378 1350.72,-1378"/>
<text text-anchor="middle" x="1313.91" y="-1354" font-family="Times,serif" font-size="20.00">198 facets</text>
</g>
<!-- e_419&#45;&gt;e_401 -->
<g id="edge51" class="edge">
<title>e_419-&gt;e_401</title>
<path fill="none" stroke="black" d="M1264.64,-1354.78C1234.18,-1350.69 1194.28,-1343.82 1160.13,-1333 1062.81,-1302.16 956.36,-1246.64 899.29,-1214.93"/>
<polygon fill="none" stroke="black" points="901.31,-1212.05 890.88,-1210.23 897.89,-1218.16 901.31,-1212.05"/>
</g>
<!-- e_422 -->
<g id="node40" class="node">
<title>e_422</title>
<polygon fill="#3a85b9" stroke="black" points="2074.41,-1324 1747.99,-1324 1747.99,-1288 2074.41,-1288 2074.41,-1324"/>
<text text-anchor="middle" x="1911.2" y="-1300" font-family="Times,serif" font-size="20.00" fill="white">200 generate_transpose_matrix(facets)</text>
</g>
<!-- e_422&#45;&gt;e_419 -->
<g id="edge53" class="edge">
<title>e_422-&gt;e_419</title>
<path fill="none" stroke="black" stroke-dasharray="5,2" d="M1747.53,-1320.76C1623.95,-1331.97 1460.97,-1346.75 1374.61,-1354.58"/>
<polygon fill="none" stroke="black" points="1374.35,-1351.09 1364.7,-1355.48 1374.98,-1358.07 1374.35,-1351.09"/>
<text text-anchor="middle" x="1571.71" y="-1348.24" font-family="Times,serif" font-size="14.00">[0]</text>
</g>
<!-- e_25 -->
<g id="node41" class="node">
<title>e_25</title>
<path fill="#85cbd0" stroke="black" d="M1430.14,-1324C1430.14,-1324 1197.67,-1324 1197.67,-1324 1191.67,-1324 1185.67,-1318 1185.67,-1312 1185.67,-1312 1185.67,-1300 1185.67,-1300 1185.67,-1294 1191.67,-1288 1197.67,-1288 1197.67,-1288 1430.14,-1288 1430.14,-1288 1436.14,-1288 1442.14,-1294 1442.14,-1300 1442.14,-1300 1442.14,-1312 1442.14,-1312 1442.14,-1318 1436.14,-1324 1430.14,-1324"/>
<text text-anchor="middle" x="1313.91" y="-1300" font-family="Times,serif" font-size="20.00">70 generate_transpose_matrix</text>
</g>
<!-- e_422&#45;&gt;e_25 -->
<g id="edge52" class="edge">
<title>e_422-&gt;e_25</title>
<path fill="none" stroke="black" d="M1747.53,-1306C1655.52,-1306 1541.67,-1306 1453.87,-1306"/>
<polygon fill="black" stroke="black" points="1453.99,-1302.5 1443.99,-1306 1453.99,-1309.5 1453.99,-1302.5"/>
</g>
<!-- e_446 -->
<g id="node42" class="node">
<title>e_446</title>
<path fill="#85cbd0" stroke="black" d="M2504.8,-1343C2504.8,-1343 2428.92,-1343 2428.92,-1343 2422.92,-1343 2416.92,-1337 2416.92,-1331 2416.92,-1331 2416.92,-1319 2416.92,-1319 2416.92,-1313 2422.92,-1307 2428.92,-1307 2428.92,-1307 2504.8,-1307 2504.8,-1307 2510.8,-1307 2516.8,-1313 2516.8,-1319 2516.8,-1319 2516.8,-1331 2516.8,-1331 2516.8,-1337 2510.8,-1343 2504.8,-1343"/>
<text text-anchor="middle" x="2466.86" y="-1319" font-family="Times,serif" font-size="20.00">200 node1</text>
</g>
<!-- e_446&#45;&gt;e_422 -->
<g id="edge54" class="edge">
<title>e_446-&gt;e_422</title>
<path fill="none" stroke="black" d="M2416.73,-1323.31C2343.22,-1320.79 2200.99,-1315.91 2086.23,-1311.97"/>
<polygon fill="black" stroke="black" points="2086.49,-1308.48 2076.37,-1311.63 2086.25,-1315.47 2086.49,-1308.48"/>
</g>
<!-- e_447 -->
<g id="node43" class="node">
<title>e_447</title>
<path fill="#85cbd0" stroke="black" d="M2504.8,-1289C2504.8,-1289 2428.92,-1289 2428.92,-1289 2422.92,-1289 2416.92,-1283 2416.92,-1277 2416.92,-1277 2416.92,-1265 2416.92,-1265 2416.92,-1259 2422.92,-1253 2428.92,-1253 2428.92,-1253 2504.8,-1253 2504.8,-1253 2510.8,-1253 2516.8,-1259 2516.8,-1265 2516.8,-1265 2516.8,-1277 2516.8,-1277 2516.8,-1283 2510.8,-1289 2504.8,-1289"/>
<text text-anchor="middle" x="2466.86" y="-1265" font-family="Times,serif" font-size="20.00">200 node2</text>
</g>
<!-- e_447&#45;&gt;e_422 -->
<g id="edge55" class="edge">
<title>e_447-&gt;e_422</title>
<path fill="none" stroke="black" d="M2416.73,-1274.11C2343.22,-1278.75 2200.99,-1287.74 2086.23,-1295"/>
<polygon fill="black" stroke="black" points="2086.13,-1291.5 2076.37,-1295.62 2086.57,-1298.48 2086.13,-1291.5"/>
</g>
<!-- e_448 -->
<g id="node44" class="node">
<title>e_448</title>
<path fill="#85cbd0" stroke="black" d="M2504.8,-1235C2504.8,-1235 2428.92,-1235 2428.92,-1235 2422.92,-1235 2416.92,-1229 2416.92,-1223 2416.92,-1223 2416.92,-1211 2416.92,-1211 2416.92,-1205 2422.92,-1199 2428.92,-1199 2428.92,-1199 2504.8,-1199 2504.8,-1199 2510.8,-1199 2516.8,-1205 2516.8,-1211 2516.8,-1211 2516.8,-1223 2516.8,-1223 2516.8,-1229 2510.8,-1235 2504.8,-1235"/>
<text text-anchor="middle" x="2466.86" y="-1211" font-family="Times,serif" font-size="20.00">200 node3</text>
</g>
<!-- e_448&#45;&gt;e_422 -->
<g id="edge56" class="edge">
<title>e_448-&gt;e_422</title>
<path fill="none" stroke="black" d="M2416.5,-1223.94C2379.33,-1229.23 2327.14,-1236.82 2281.42,-1244 2197.14,-1257.24 2102.21,-1273.21 2029.72,-1285.62"/>
<polygon fill="black" stroke="black" points="2029.5,-1282.11 2020.23,-1287.24 2030.68,-1289 2029.5,-1282.11"/>
</g>
<!-- e_454 -->
<g id="node45" class="node">
<title>e_454</title>
<polygon fill="#3a85b9" stroke="black" points="2146.65,-1175 1675.75,-1175 1675.75,-1139 2146.65,-1139 2146.65,-1175"/>
<text text-anchor="middle" x="1911.2" y="-1151" font-family="Times,serif" font-size="20.00" fill="white">202 generate_coordinates_points(xpts, ypts, zpts, nverts)</text>
</g>
<!-- e_454&#45;&gt;e_395 -->
<g id="edge58" class="edge">
<title>e_454-&gt;e_395</title>
<path fill="none" stroke="black" stroke-dasharray="5,2" d="M1675.35,-1151.87C1562.54,-1149.41 1437.11,-1146.67 1367.97,-1145.16"/>
<polygon fill="none" stroke="black" points="1368.13,-1141.66 1358.06,-1144.94 1367.98,-1148.66 1368.13,-1141.66"/>
<text text-anchor="middle" x="1571.71" y="-1155.48" font-family="Times,serif" font-size="14.00">[7]</text>
</g>
<!-- e_454&#45;&gt;e_396 -->
<g id="edge59" class="edge">
<title>e_454-&gt;e_396</title>
<path fill="none" stroke="black" stroke-dasharray="5,2" d="M1755.69,-1138.53C1723.34,-1134.73 1689.43,-1130.79 1657.75,-1127.2 1554.97,-1115.56 1434.78,-1102.69 1367.48,-1095.55"/>
<polygon fill="none" stroke="black" points="1368.16,-1092.1 1357.85,-1094.53 1367.43,-1099.06 1368.16,-1092.1"/>
<text text-anchor="middle" x="1571.71" y="-1131.4" font-family="Times,serif" font-size="14.00">[7]</text>
</g>
<!-- e_454&#45;&gt;e_397 -->
<g id="edge60" class="edge">
<title>e_454-&gt;e_397</title>
<path fill="none" stroke="black" stroke-dasharray="5,2" d="M1850.23,-1138.56C1799.37,-1123.43 1724.3,-1102.29 1657.75,-1088.2 1555.57,-1066.57 1434.45,-1050.29 1366.97,-1042.04"/>
<polygon fill="none" stroke="black" points="1367.67,-1038.59 1357.32,-1040.87 1366.83,-1045.54 1367.67,-1038.59"/>
<text text-anchor="middle" x="1571.71" y="-1092.4" font-family="Times,serif" font-size="14.00">[7]</text>
</g>
<!-- e_454&#45;&gt;e_398 -->
<g id="edge61" class="edge">
<title>e_454-&gt;e_398</title>
<path fill="none" stroke="black" stroke-dasharray="5,2" d="M1794.36,-1175.49C1668.77,-1195.53 1473.19,-1226.74 1375.18,-1242.38"/>
<polygon fill="none" stroke="black" points="1374.82,-1238.89 1365.5,-1243.93 1375.92,-1245.81 1374.82,-1238.89"/>
<text text-anchor="middle" x="1571.71" y="-1228.13" font-family="Times,serif" font-size="14.00">[7]</text>
</g>
<!-- e_26 -->
<g id="node46" class="node">
<title>e_26</title>
<path fill="#85cbd0" stroke="black" d="M1436.81,-1216C1436.81,-1216 1191,-1216 1191,-1216 1185,-1216 1179,-1210 1179,-1204 1179,-1204 1179,-1192 1179,-1192 1179,-1186 1185,-1180 1191,-1180 1191,-1180 1436.81,-1180 1436.81,-1180 1442.81,-1180 1448.81,-1186 1448.81,-1192 1448.81,-1192 1448.81,-1204 1448.81,-1204 1448.81,-1210 1442.81,-1216 1436.81,-1216"/>
<text text-anchor="middle" x="1313.91" y="-1192" font-family="Times,serif" font-size="20.00">77 generate_coordinates_points</text>
</g>
<!-- e_454&#45;&gt;e_26 -->
<g id="edge57" class="edge">
<title>e_454-&gt;e_26</title>
<path fill="none" stroke="black" d="M1675.35,-1173.17C1602.8,-1178.17 1525.05,-1183.53 1460.39,-1187.98"/>
<polygon fill="black" stroke="black" points="1460.55,-1184.46 1450.81,-1188.64 1461.03,-1191.44 1460.55,-1184.46"/>
</g>
<!-- e_561 -->
<g id="node47" class="node">
<title>e_561</title>
<path fill="#85cbd0" stroke="black" d="M2504.81,-1181C2504.81,-1181 2428.92,-1181 2428.92,-1181 2422.92,-1181 2416.92,-1175 2416.92,-1169 2416.92,-1169 2416.92,-1157 2416.92,-1157 2416.92,-1151 2422.92,-1145 2428.92,-1145 2428.92,-1145 2504.81,-1145 2504.81,-1145 2510.81,-1145 2516.81,-1151 2516.81,-1157 2516.81,-1157 2516.81,-1169 2516.81,-1169 2516.81,-1175 2510.81,-1181 2504.81,-1181"/>
<text text-anchor="middle" x="2466.86" y="-1157" font-family="Times,serif" font-size="20.00">202 points</text>
</g>
<!-- e_561&#45;&gt;e_454 -->
<g id="edge62" class="edge">
<title>e_561-&gt;e_454</title>
<path fill="none" stroke="black" d="M2416.73,-1162.47C2358.05,-1161.83 2255.59,-1160.72 2158.26,-1159.67"/>
<polygon fill="none" stroke="black" points="2158.59,-1156.17 2148.55,-1159.56 2158.51,-1163.17 2158.59,-1156.17"/>
</g>
<!-- e_568 -->
<g id="node48" class="node">
<title>e_568</title>
<polygon fill="#3a85b9" stroke="black" points="3178.91,-1154 2704.63,-1154 2704.63,-1118 3178.91,-1118 3178.91,-1154"/>
<text text-anchor="middle" x="2941.77" y="-1130" font-family="Times,serif" font-size="20.00" fill="white">204 plot_model(node1, node2, node3, points, output_dir)</text>
</g>
<!-- e_568&#45;&gt;e_101 -->
<g id="edge16" class="edge">
<title>e_568-&gt;e_101</title>
<path fill="none" stroke="black" d="M2899.57,-1117.62C2844.34,-1093.68 2742.75,-1052.03 2652.3,-1028 2617.66,-1018.79 2578.55,-1011.94 2545.3,-1007.13"/>
<polygon fill="black" stroke="black" points="2546.15,-1003.72 2535.76,-1005.79 2545.17,-1010.65 2546.15,-1003.72"/>
</g>
<!-- e_568&#45;&gt;e_446 -->
<g id="edge12" class="edge">
<title>e_568-&gt;e_446</title>
<path fill="none" stroke="black" d="M2915.65,-1154.37C2867.33,-1188.7 2756.96,-1262.33 2652.3,-1298 2612.19,-1311.67 2564.85,-1318.42 2528.18,-1321.75"/>
<polygon fill="black" stroke="black" points="2528.34,-1318.23 2518.67,-1322.56 2528.93,-1325.2 2528.34,-1318.23"/>
</g>
<!-- e_568&#45;&gt;e_447 -->
<g id="edge13" class="edge">
<title>e_568-&gt;e_447</title>
<path fill="none" stroke="black" d="M2900.1,-1154.39C2845.04,-1178.54 2743.19,-1220.62 2652.3,-1244 2611.58,-1254.48 2564.68,-1261.27 2528.36,-1265.43"/>
<polygon fill="black" stroke="black" points="2528.03,-1261.94 2518.47,-1266.52 2528.79,-1268.9 2528.03,-1261.94"/>
</g>
<!-- e_568&#45;&gt;e_448 -->
<g id="edge14" class="edge">
<title>e_568-&gt;e_448</title>
<path fill="none" stroke="black" d="M2847.4,-1154.45C2791.01,-1165.35 2717.64,-1179.11 2652.3,-1190 2611.11,-1196.87 2564.59,-1203.67 2528.57,-1208.73"/>
<polygon fill="black" stroke="black" points="2528.18,-1205.25 2518.76,-1210.1 2529.15,-1212.18 2528.18,-1205.25"/>
</g>
<!-- e_568&#45;&gt;e_561 -->
<g id="edge15" class="edge">
<title>e_568-&gt;e_561</title>
<path fill="none" stroke="black" d="M2704.32,-1149.5C2639.1,-1153.22 2573.89,-1156.95 2528.52,-1159.54"/>
<polygon fill="black" stroke="black" points="2528.43,-1156.04 2518.65,-1160.1 2528.83,-1163.02 2528.43,-1156.04"/>
</g>
<!-- a_15 -->
<g id="node49" class="node">
<title>a_15</title>
<path fill="white" stroke="black" d="M2624.8,-1127C2624.8,-1127 2308.92,-1127 2308.92,-1127 2302.92,-1127 2296.92,-1121 2296.92,-1115 2296.92,-1115 2296.92,-1103 2296.92,-1103 2296.92,-1097 2302.92,-1091 2308.92,-1091 2308.92,-1091 2624.8,-1091 2624.8,-1091 2630.8,-1091 2636.8,-1097 2636.8,-1103 2636.8,-1103 2636.8,-1115 2636.8,-1115 2636.8,-1121 2630.8,-1127 2624.8,-1127"/>
<text text-anchor="middle" x="2466.86" y="-1103" font-family="Times,serif" font-size="20.00">outputmodular20260219122613plot.png</text>
</g>
<!-- e_568&#45;&gt;a_15 -->
<g id="edge10" class="edge">
<title>e_568-&gt;a_15</title>
<path fill="none" stroke="black" stroke-dasharray="5,2" d="M2734.38,-1117.52C2705.72,-1115.79 2676.47,-1114.16 2648.34,-1112.73"/>
<polygon fill="black" stroke="black" points="2648.87,-1109.25 2638.71,-1112.24 2648.52,-1116.24 2648.87,-1109.25"/>
</g>
<!-- e_27 -->
<g id="node50" class="node">
<title>e_27</title>
<path fill="#85cbd0" stroke="black" d="M2520.92,-1073C2520.92,-1073 2412.81,-1073 2412.81,-1073 2406.81,-1073 2400.81,-1067 2400.81,-1061 2400.81,-1061 2400.81,-1049 2400.81,-1049 2400.81,-1043 2406.81,-1037 2412.81,-1037 2412.81,-1037 2520.92,-1037 2520.92,-1037 2526.92,-1037 2532.92,-1043 2532.92,-1049 2532.92,-1049 2532.92,-1061 2532.92,-1061 2532.92,-1067 2526.92,-1073 2520.92,-1073"/>
<text text-anchor="middle" x="2466.86" y="-1049" font-family="Times,serif" font-size="20.00">87 plot_model</text>
</g>
<!-- e_568&#45;&gt;e_27 -->
<g id="edge11" class="edge">
<title>e_568-&gt;e_27</title>
<path fill="none" stroke="black" d="M2847.4,-1117.55C2791.01,-1106.65 2717.64,-1092.89 2652.3,-1082 2616.89,-1076.09 2577.52,-1070.24 2544.28,-1065.49"/>
<polygon fill="black" stroke="black" points="2545.15,-1062.08 2534.76,-1064.14 2544.17,-1069.01 2545.15,-1062.08"/>
</g>
<!-- a_15&#45;&gt;e_568 -->
<g id="edge17" class="edge">
<title>a_15-&gt;e_568</title>
<path fill="none" stroke="black" stroke-dasharray="5,2" d="M2637.26,-1125.17C2655.4,-1126.35 2674.11,-1127.5 2692.92,-1128.59"/>
<polygon fill="black" stroke="black" points="2692.62,-1132.08 2702.81,-1129.16 2693.02,-1125.09 2692.62,-1132.08"/>
</g>
<!-- e_3118 -->
<g id="node51" class="node">
<title>e_3118</title>
<polygon fill="#3a85b9" stroke="black" points="2145.24,-448 1677.15,-448 1677.15,-412 2145.24,-412 2145.24,-448"/>
<text text-anchor="middle" x="1911.2" y="-424" font-family="Times,serif" font-size="20.00" fill="white">206 calculate_refs_geometry_m ... elp, tstart, tstop, delt)</text>
</g>
<!-- e_3118&#45;&gt;e_305 -->
<g id="edge64" class="edge">
<title>e_3118-&gt;e_305</title>
<path fill="none" stroke="black" stroke-dasharray="5,2" d="M1835.63,-448.4C1716.06,-477.94 1493.94,-532.98 1485.68,-536.2 1477.2,-539.51 1476.28,-542.99 1467.68,-546 1437.38,-556.61 1402.18,-563.19 1373.21,-567.2"/>
<polygon fill="none" stroke="black" points="1372.99,-563.69 1363.53,-568.46 1373.9,-570.64 1372.99,-563.69"/>
<text text-anchor="middle" x="1571.71" y="-540.4" font-family="Times,serif" font-size="14.00">[1]</text>
</g>
<!-- e_3118&#45;&gt;e_306 -->
<g id="edge65" class="edge">
<title>e_3118-&gt;e_306</title>
<path fill="none" stroke="black" stroke-dasharray="5,2" d="M1878.08,-448.39C1831.03,-474.7 1740.02,-523.16 1657.75,-553 1575.94,-582.67 1552.81,-581.97 1467.68,-600 1436.39,-606.63 1401.26,-612.91 1372.59,-617.75"/>
<polygon fill="none" stroke="black" points="1372.31,-614.25 1363.02,-619.35 1373.46,-621.15 1372.31,-614.25"/>
<text text-anchor="middle" x="1571.71" y="-600.21" font-family="Times,serif" font-size="14.00">[1]</text>
</g>
<!-- e_3118&#45;&gt;e_307 -->
<g id="edge66" class="edge">
<title>e_3118-&gt;e_307</title>
<path fill="none" stroke="black" stroke-dasharray="5,2" d="M1676.92,-415.71C1614.39,-415.94 1547.11,-419.89 1485.68,-431.2 1477.27,-432.75 1475.93,-435.73 1467.68,-438 1435.12,-446.94 1397.82,-453.6 1368.22,-458.07"/>
<polygon fill="none" stroke="black" points="1367.75,-454.6 1358.37,-459.51 1368.77,-461.53 1367.75,-454.6"/>
<text text-anchor="middle" x="1571.71" y="-435.4" font-family="Times,serif" font-size="14.00">[1]</text>
</g>
<!-- e_3118&#45;&gt;e_308 -->
<g id="edge67" class="edge">
<title>e_3118-&gt;e_308</title>
<path fill="none" stroke="black" stroke-dasharray="5,2" d="M1865.07,-411.59C1785.85,-379.89 1616.06,-314.67 1467.68,-276 1436.04,-267.76 1400.06,-261.26 1370.96,-256.71"/>
<polygon fill="none" stroke="black" points="1371.68,-253.28 1361.26,-255.23 1370.62,-260.19 1371.68,-253.28"/>
<text text-anchor="middle" x="1571.71" y="-336.62" font-family="Times,serif" font-size="14.00">[0]</text>
</g>
<!-- e_3118&#45;&gt;e_309 -->
<g id="edge68" class="edge">
<title>e_3118-&gt;e_309</title>
<path fill="none" stroke="black" stroke-dasharray="5,2" d="M1683.39,-448.48C1587.5,-456.92 1495.45,-466.15 1485.68,-471.2 1474.82,-476.81 1478.31,-485.97 1467.68,-492 1438.19,-508.74 1400.75,-515.54 1370.31,-518.14"/>
<polygon fill="none" stroke="black" points="1370.26,-514.63 1360.53,-518.83 1370.75,-521.61 1370.26,-514.63"/>
<text text-anchor="middle" x="1571.71" y="-475.4" font-family="Times,serif" font-size="14.00">[0]</text>
</g>
<!-- e_3118&#45;&gt;e_310 -->
<g id="edge69" class="edge">
<title>e_3118-&gt;e_310</title>
<path fill="none" stroke="black" stroke-dasharray="5,2" d="M1813.19,-411.55C1766.41,-403.56 1709.37,-395.14 1657.75,-391.2 1581.5,-385.37 1562.03,-386.79 1485.68,-391.2 1445.26,-393.54 1399.72,-398.96 1365.84,-403.54"/>
<polygon fill="none" stroke="black" points="1365.75,-400.02 1356.32,-404.85 1366.7,-406.95 1365.75,-400.02"/>
<text text-anchor="middle" x="1571.71" y="-395.4" font-family="Times,serif" font-size="14.00">[0]</text>
</g>
<!-- e_28 -->
<g id="node52" class="node">
<title>e_28</title>
<path fill="#85cbd0" stroke="black" d="M1455.68,-375C1455.68,-375 1172.13,-375 1172.13,-375 1166.13,-375 1160.13,-369 1160.13,-363 1160.13,-363 1160.13,-351 1160.13,-351 1160.13,-345 1166.13,-339 1172.13,-339 1172.13,-339 1455.68,-339 1455.68,-339 1461.68,-339 1467.68,-345 1467.68,-351 1467.68,-351 1467.68,-363 1467.68,-363 1467.68,-369 1461.68,-375 1455.68,-375"/>
<text text-anchor="middle" x="1313.91" y="-351" font-family="Times,serif" font-size="20.00">109 calculate_refs_geometry_model</text>
</g>
<!-- e_3118&#45;&gt;e_28 -->
<g id="edge63" class="edge">
<title>e_3118-&gt;e_28</title>
<path fill="none" stroke="black" d="M1823.81,-411.52C1775.23,-401.73 1713.34,-390.26 1657.75,-383 1599.76,-375.43 1535.94,-369.84 1479.26,-365.83"/>
<polygon fill="black" stroke="black" points="1479.74,-362.36 1469.53,-365.16 1479.26,-369.34 1479.74,-362.36"/>
</g>
<!-- e_3170 -->
<g id="node53" class="node">
<title>e_3170</title>
<path fill="#85cbd0" stroke="black" d="M2485.92,-420C2485.92,-420 2447.81,-420 2447.81,-420 2441.81,-420 2435.81,-414 2435.81,-408 2435.81,-408 2435.81,-396 2435.81,-396 2435.81,-390 2441.81,-384 2447.81,-384 2447.81,-384 2485.92,-384 2485.92,-384 2491.92,-384 2497.92,-390 2497.92,-396 2497.92,-396 2497.92,-408 2497.92,-408 2497.92,-414 2491.92,-420 2485.92,-420"/>
<text text-anchor="middle" x="2466.86" y="-396" font-family="Times,serif" font-size="20.00">206 it</text>
</g>
<!-- e_3170&#45;&gt;e_3118 -->
<g id="edge70" class="edge">
<title>e_3170-&gt;e_3118</title>
<path fill="none" stroke="black" d="M2435.31,-403.55C2381.66,-406.26 2265.87,-412.11 2156.84,-417.63"/>
<polygon fill="black" stroke="black" points="2156.95,-414.12 2147.14,-418.12 2157.31,-421.11 2156.95,-414.12"/>
</g>
<!-- e_3171 -->
<g id="node54" class="node">
<title>e_3171</title>
<path fill="#85cbd0" stroke="black" d="M2488.14,-366C2488.14,-366 2445.58,-366 2445.58,-366 2439.58,-366 2433.58,-360 2433.58,-354 2433.58,-354 2433.58,-342 2433.58,-342 2433.58,-336 2439.58,-330 2445.58,-330 2445.58,-330 2488.14,-330 2488.14,-330 2494.14,-330 2500.14,-336 2500.14,-342 2500.14,-342 2500.14,-354 2500.14,-354 2500.14,-360 2494.14,-366 2488.14,-366"/>
<text text-anchor="middle" x="2466.86" y="-342" font-family="Times,serif" font-size="20.00">206 ip</text>
</g>
<!-- e_3171&#45;&gt;e_3118 -->
<g id="edge71" class="edge">
<title>e_3171-&gt;e_3118</title>
<path fill="none" stroke="black" d="M2433.21,-352.75C2396.34,-358.13 2334.57,-367.15 2281.42,-375 2203.68,-386.48 2116.74,-399.43 2046.76,-409.87"/>
<polygon fill="black" stroke="black" points="2046.55,-406.36 2037.18,-411.3 2047.59,-413.29 2046.55,-406.36"/>
</g>
<!-- e_3172 -->
<g id="node55" class="node">
<title>e_3172</title>
<path fill="#85cbd0" stroke="black" d="M2497.58,-528C2497.58,-528 2436.15,-528 2436.15,-528 2430.15,-528 2424.15,-522 2424.15,-516 2424.15,-516 2424.15,-504 2424.15,-504 2424.15,-498 2430.15,-492 2436.15,-492 2436.15,-492 2497.58,-492 2497.58,-492 2503.58,-492 2509.58,-498 2509.58,-504 2509.58,-504 2509.58,-516 2509.58,-516 2509.58,-522 2503.58,-528 2497.58,-528"/>
<text text-anchor="middle" x="2466.86" y="-504" font-family="Times,serif" font-size="20.00">206 delp</text>
</g>
<!-- e_3172&#45;&gt;e_3118 -->
<g id="edge72" class="edge">
<title>e_3172-&gt;e_3118</title>
<path fill="none" stroke="black" d="M2423.79,-503.92C2345.48,-492.61 2174.17,-467.85 2051.36,-450.11"/>
<polygon fill="black" stroke="black" points="2051.9,-446.65 2041.5,-448.68 2050.9,-453.58 2051.9,-446.65"/>
</g>
<!-- e_3173 -->
<g id="node56" class="node">
<title>e_3173</title>
<path fill="#85cbd0" stroke="black" d="M2495.36,-474C2495.36,-474 2438.37,-474 2438.37,-474 2432.37,-474 2426.37,-468 2426.37,-462 2426.37,-462 2426.37,-450 2426.37,-450 2426.37,-444 2432.37,-438 2438.37,-438 2438.37,-438 2495.36,-438 2495.36,-438 2501.36,-438 2507.36,-444 2507.36,-450 2507.36,-450 2507.36,-462 2507.36,-462 2507.36,-468 2501.36,-474 2495.36,-474"/>
<text text-anchor="middle" x="2466.86" y="-450" font-family="Times,serif" font-size="20.00">206 delt</text>
</g>
<!-- e_3173&#45;&gt;e_3118 -->
<g id="edge73" class="edge">
<title>e_3173-&gt;e_3118</title>
<path fill="none" stroke="black" d="M2426.04,-454.13C2369.11,-451.46 2259.88,-446.33 2156.72,-441.48"/>
<polygon fill="black" stroke="black" points="2157.14,-438 2146.98,-441.03 2156.81,-444.99 2157.14,-438"/>
</g>
<!-- e_3190 -->
<g id="node57" class="node">
<title>e_3190</title>
<polygon fill="#3a85b9" stroke="black" points="3170.29,-726 2713.25,-726 2713.25,-690 3170.29,-690 3170.29,-726"/>
<text text-anchor="middle" x="2941.77" y="-702" font-family="Times,serif" font-size="20.00" fill="white">208 prepare_output(time, prog ... rt, pstop, tstart, tstop)</text>
</g>
<!-- e_3190&#45;&gt;e_97 -->
<g id="edge75" class="edge">
<title>e_3190-&gt;e_97</title>
<path fill="none" stroke="black" d="M2712.99,-723.78C2710.11,-726.04 2707.32,-728.45 2704.63,-731 2665.22,-768.46 2708.33,-802.15 2686.63,-852 2676.87,-874.42 2674.27,-884.26 2652.3,-895 2515.62,-961.82 1412.48,-925.55 1153.93,-916.06"/>
<polygon fill="black" stroke="black" points="1154.25,-912.57 1144.13,-915.7 1154,-919.57 1154.25,-912.57"/>
</g>
<!-- e_3190&#45;&gt;e_98 -->
<g id="edge76" class="edge">
<title>e_3190-&gt;e_98</title>
<path fill="none" stroke="black" d="M2900.9,-726.44C2851.74,-748.16 2765.04,-783.15 2686.63,-798 2493.03,-834.68 1902.45,-837.05 1669.07,-836.48"/>
<polygon fill="black" stroke="black" points="1669.42,-832.98 1659.41,-836.46 1669.4,-839.98 1669.42,-832.98"/>
</g>
<!-- e_3190&#45;&gt;e_99 -->
<g id="edge77" class="edge">
<title>e_3190-&gt;e_99</title>
<path fill="none" stroke="black" d="M2728.35,-726.48C2720.32,-727.88 2712.39,-729.38 2704.63,-731 2692.66,-733.5 2664.14,-744.93 2652.3,-748 2571.45,-768.94 2551.38,-784 2467.86,-784 2467.86,-784 2467.86,-784 855.57,-784 769.92,-784 672.49,-784 602.19,-784"/>
<polygon fill="black" stroke="black" points="602.22,-780.5 592.22,-784 602.22,-787.5 602.22,-780.5"/>
</g>
<!-- e_3190&#45;&gt;e_100 -->
<g id="edge78" class="edge">
<title>e_3190-&gt;e_100</title>
<path fill="none" stroke="black" d="M2712.89,-723.68C2710.04,-725.97 2707.28,-728.41 2704.63,-731 2680.63,-754.47 2699.09,-849.83 2686.63,-881 2677.16,-904.69 2674.91,-915.17 2652.3,-927 2605.92,-951.27 988.46,-989.91 592.34,-999.03"/>
<polygon fill="black" stroke="black" points="592.41,-995.53 582.49,-999.25 592.57,-1002.52 592.41,-995.53"/>
</g>
<!-- e_3190&#45;&gt;e_101 -->
<g id="edge79" class="edge">
<title>e_3190-&gt;e_101</title>
<path fill="none" stroke="black" d="M2883.72,-726.47C2828.88,-747.29 2748.12,-786.63 2704.63,-849 2679.8,-884.61 2711.27,-909.26 2686.63,-945 2676.48,-959.72 2669.04,-959.69 2652.3,-966 2618.42,-978.77 2579.1,-986.48 2545.49,-991.13"/>
<polygon fill="black" stroke="black" points="2545.29,-987.62 2535.83,-992.39 2546.2,-994.56 2545.29,-987.62"/>
</g>
<!-- e_3190&#45;&gt;e_301 -->
<g id="edge84" class="edge">
<title>e_3190-&gt;e_301</title>
<path fill="none" stroke="black" d="M2913.96,-689.56C2865.3,-654.75 2762.17,-574.58 2704.63,-483 2664.38,-418.93 2713.18,-365.94 2652.3,-321 2650.66,-319.79 1614.82,-306.75 1367.48,-303.66"/>
<polygon fill="black" stroke="black" points="1367.53,-300.16 1357.49,-303.53 1367.44,-307.16 1367.53,-300.16"/>
</g>
<!-- e_3190&#45;&gt;e_302 -->
<g id="edge80" class="edge">
<title>e_3190-&gt;e_302</title>
<path fill="none" stroke="black" d="M2713.13,-720.23C2556.07,-728.67 2359.56,-739.23 2267.36,-744.19"/>
<polygon fill="black" stroke="black" points="2267.42,-740.68 2257.62,-744.71 2267.8,-747.67 2267.42,-740.68"/>
</g>
<!-- e_3190&#45;&gt;e_303 -->
<g id="edge82" class="edge">
<title>e_3190-&gt;e_303</title>
<path fill="none" stroke="black" d="M2713.13,-707.37C2560.3,-706.95 2370.11,-706.43 2275.03,-706.17"/>
<polygon fill="black" stroke="black" points="2275.16,-702.67 2265.15,-706.14 2275.14,-709.67 2275.16,-702.67"/>
</g>
<!-- e_3190&#45;&gt;e_304 -->
<g id="edge85" class="edge">
<title>e_3190-&gt;e_304</title>
<path fill="none" stroke="black" d="M2910.42,-689.57C2858.07,-655.9 2751.88,-579.03 2704.63,-483 2666.61,-405.72 2713.64,-159.46 2652.3,-99 2617.96,-65.15 2561.12,-61.56 2519.6,-64.47"/>
<polygon fill="black" stroke="black" points="2519.5,-60.96 2509.84,-65.31 2520.1,-67.94 2519.5,-60.96"/>
</g>
<!-- e_3190&#45;&gt;e_305 -->
<g id="edge86" class="edge">
<title>e_3190-&gt;e_305</title>
<path fill="none" stroke="black" d="M2752.31,-689.52C2719.01,-686.49 2684.65,-683.53 2652.3,-681 2587.56,-675.95 1548.75,-623.46 1485.68,-608 1477.18,-605.92 1476.05,-602.56 1467.68,-600 1437.1,-590.65 1402.02,-584.17 1373.19,-579.9"/>
<polygon fill="black" stroke="black" points="1373.96,-576.48 1363.57,-578.53 1372.97,-583.41 1373.96,-576.48"/>
</g>
<!-- e_3190&#45;&gt;e_306 -->
<g id="edge87" class="edge">
<title>e_3190-&gt;e_306</title>
<path fill="none" stroke="black" d="M2712.77,-700.19C2364.76,-687.94 1717.07,-663.78 1485.68,-646 1447.9,-643.1 1405.57,-638.4 1372.5,-634.4"/>
<polygon fill="black" stroke="black" points="1373.07,-630.94 1362.72,-633.2 1372.22,-637.89 1373.07,-630.94"/>
</g>
<!-- e_3190&#45;&gt;e_308 -->
<g id="edge88" class="edge">
<title>e_3190-&gt;e_308</title>
<path fill="none" stroke="black" d="M2911.03,-689.73C2859.14,-656.06 2752.98,-578.8 2704.63,-483 2668.63,-411.67 2726.69,-340.19 2652.3,-311 2531.88,-263.75 1609.56,-251.79 1371.06,-249.48"/>
<polygon fill="black" stroke="black" points="1371.12,-245.98 1361.08,-249.38 1371.05,-252.98 1371.12,-245.98"/>
</g>
<!-- e_3190&#45;&gt;e_309 -->
<g id="edge89" class="edge">
<title>e_3190-&gt;e_309</title>
<path fill="none" stroke="black" d="M2851.09,-689.55C2642.75,-647.79 2109.37,-547.26 1657.75,-516 1556.71,-509.01 1438.52,-512.64 1370.62,-515.86"/>
<polygon fill="black" stroke="black" points="1370.68,-512.35 1360.86,-516.33 1371.02,-519.34 1370.68,-512.35"/>
</g>
<!-- e_3190&#45;&gt;e_3172 -->
<g id="edge81" class="edge">
<title>e_3190-&gt;e_3172</title>
<path fill="none" stroke="black" d="M2916.01,-689.68C2867.88,-655.02 2757.18,-579.92 2652.3,-542 2609.65,-526.58 2558.69,-518.46 2521.15,-514.27"/>
<polygon fill="black" stroke="black" points="2521.77,-510.81 2511.46,-513.24 2521.04,-517.77 2521.77,-510.81"/>
</g>
<!-- e_3190&#45;&gt;e_3173 -->
<g id="edge83" class="edge">
<title>e_3190-&gt;e_3173</title>
<path fill="none" stroke="black" d="M2924.04,-689.58C2882.78,-645.46 2770.86,-533.67 2652.3,-483 2609.69,-464.79 2557.05,-458.5 2518.92,-456.5"/>
<polygon fill="black" stroke="black" points="2519.24,-453.01 2509.1,-456.07 2518.94,-460 2519.24,-453.01"/>
</g>
<!-- e_29 -->
<g id="node60" class="node">
<title>e_29</title>
<path fill="#85cbd0" stroke="black" d="M2540.9,-886C2540.9,-886 2392.83,-886 2392.83,-886 2386.83,-886 2380.83,-880 2380.83,-874 2380.83,-874 2380.83,-862 2380.83,-862 2380.83,-856 2386.83,-850 2392.83,-850 2392.83,-850 2540.9,-850 2540.9,-850 2546.9,-850 2552.9,-856 2552.9,-862 2552.9,-862 2552.9,-874 2552.9,-874 2552.9,-880 2546.9,-886 2540.9,-886"/>
<text text-anchor="middle" x="2466.86" y="-862" font-family="Times,serif" font-size="20.00">124 prepare_output</text>
</g>
<!-- e_3190&#45;&gt;e_29 -->
<g id="edge74" class="edge">
<title>e_3190-&gt;e_29</title>
<path fill="none" stroke="black" d="M2911.96,-726.41C2866.17,-754.77 2773.07,-808.7 2686.63,-836 2647.57,-848.34 2603.06,-855.95 2564.43,-860.63"/>
<polygon fill="black" stroke="black" points="2564.21,-857.13 2554.68,-861.76 2565.01,-864.09 2564.21,-857.13"/>
</g>
<!-- a_16 -->
<g id="node58" class="node">
<title>a_16</title>
<path fill="white" stroke="black" d="M4570.03,-660C4570.03,-660 4280.83,-660 4280.83,-660 4274.83,-660 4268.83,-654 4268.83,-648 4268.83,-648 4268.83,-636 4268.83,-636 4268.83,-630 4274.83,-624 4280.83,-624 4280.83,-624 4570.03,-624 4570.03,-624 4576.03,-624 4582.03,-630 4582.03,-636 4582.03,-636 4582.03,-648 4582.03,-648 4582.03,-654 4576.03,-660 4570.03,-660"/>
<text text-anchor="middle" x="4425.43" y="-636" font-family="Times,serif" font-size="20.00">outputmodular202602191226130.dat</text>
</g>
<!-- a_16&#45;&gt;e_3190 -->
<g id="edge18" class="edge">
<title>a_16-&gt;e_3190</title>
<path fill="none" stroke="black" stroke-dasharray="5,2" d="M4268.37,-654.17C4124.27,-664.96 3904.25,-680.32 3712.86,-689 3535.11,-697.06 3334.12,-701.87 3182.05,-704.64"/>
<polygon fill="black" stroke="black" points="3182.18,-701.14 3172.24,-704.82 3182.3,-708.13 3182.18,-701.14"/>
</g>
<!-- e_3926 -->
<g id="node68" class="node">
<title>e_3926</title>
<polygon fill="#3a85b9" stroke="black" points="4220.73,-474 3759.3,-474 3759.3,-438 4220.73,-438 4220.73,-474"/>
<text text-anchor="middle" x="3990.01" y="-450" font-family="Times,serif" font-size="20.00" fill="white">214 calculate_incident_field_ ... s, E, et, ep, output_dir)</text>
</g>
<!-- a_16&#45;&gt;e_3926 -->
<g id="edge19" class="edge">
<title>a_16-&gt;e_3926</title>
<path fill="none" stroke="black" stroke-dasharray="5,2" d="M4381.69,-623.66C4302.14,-589.52 4131.58,-516.32 4044.52,-478.96"/>
<polygon fill="black" stroke="black" points="4046.04,-475.81 4035.47,-475.08 4043.28,-482.24 4046.04,-475.81"/>
</g>
<!-- a_17 -->
<g id="node59" class="node">
<title>a_17</title>
<path fill="white" stroke="black" d="M4571.7,-788C4571.7,-788 4279.16,-788 4279.16,-788 4273.16,-788 4267.16,-782 4267.16,-776 4267.16,-776 4267.16,-764 4267.16,-764 4267.16,-758 4273.16,-752 4279.16,-752 4279.16,-752 4571.7,-752 4571.7,-752 4577.7,-752 4583.7,-758 4583.7,-764 4583.7,-764 4583.7,-776 4583.7,-776 4583.7,-782 4577.7,-788 4571.7,-788"/>
<text text-anchor="middle" x="4425.43" y="-764" font-family="Times,serif" font-size="20.00">outputmodular20260219122613R.dat</text>
</g>
<!-- a_17&#45;&gt;e_3190 -->
<g id="edge20" class="edge">
<title>a_17-&gt;e_3190</title>
<path fill="none" stroke="black" stroke-dasharray="5,2" d="M4266.96,-764.65C4033.34,-756.52 3581.18,-740.1 3196.91,-722 3191.93,-721.77 3186.9,-721.52 3181.83,-721.28"/>
<polygon fill="black" stroke="black" points="3182.34,-717.8 3172.19,-720.81 3182,-724.79 3182.34,-717.8"/>
</g>
<!-- e_3763 -->
<g id="node66" class="node">
<title>e_3763</title>
<polygon fill="#3a85b9" stroke="black" points="4230.16,-822 3749.86,-822 3749.86,-786 4230.16,-786 4230.16,-822"/>
<text text-anchor="middle" x="3990.01" y="-798" font-family="Times,serif" font-size="20.00" fill="white">212 calculate_spherical_coord ... ctor(i2s, D0, output_dir)</text>
</g>
<!-- a_17&#45;&gt;e_3763 -->
<g id="edge21" class="edge">
<title>a_17-&gt;e_3763</title>
<path fill="none" stroke="black" stroke-dasharray="5,2" d="M4266.73,-782.37C4257.34,-783.11 4247.78,-783.86 4238.15,-784.61"/>
<polygon fill="black" stroke="black" points="4238.01,-781.11 4228.31,-785.38 4238.55,-788.09 4238.01,-781.11"/>
</g>
<!-- e_3274 -->
<g id="node61" class="node">
<title>e_3274</title>
<polygon fill="#3a85b9" stroke="black" points="3169.14,-474 2714.4,-474 2714.4,-438 3169.14,-438 3169.14,-474"/>
<text text-anchor="middle" x="2941.77" y="-450" font-family="Times,serif" font-size="20.00" fill="white">210 calculate_global_angles_a ... tart, delp, tstart, delt)</text>
</g>
<!-- e_3274&#45;&gt;e_305 -->
<g id="edge93" class="edge">
<title>e_3274-&gt;e_305</title>
<path fill="none" stroke="black" d="M2888.38,-474.44C2831.17,-493.69 2736.45,-522.99 2652.3,-537 2215.59,-609.72 2100.3,-580.55 1657.75,-593 1581.3,-595.15 1562.02,-597.46 1485.68,-593 1448.09,-590.81 1406.09,-585.92 1373.15,-581.53"/>
<polygon fill="black" stroke="black" points="1373.77,-578.08 1363.39,-580.2 1372.83,-585.02 1373.77,-578.08"/>
</g>
<!-- e_3274&#45;&gt;e_308 -->
<g id="edge95" class="edge">
<title>e_3274-&gt;e_308</title>
<path fill="none" stroke="black" d="M2922.53,-437.72C2879.73,-396.1 2767.73,-294.47 2652.3,-250 2497.46,-190.34 2446.23,-226.34 2281.42,-207 2221.51,-199.97 2206.86,-194.56 2146.65,-191 1937.72,-178.64 1884.52,-176.25 1675.75,-191 1590.64,-197.01 1569.63,-202.73 1485.68,-218 1477.62,-219.47 1475.72,-220.4 1467.68,-222 1435.73,-228.37 1399.87,-234.75 1370.93,-239.7"/>
<polygon fill="black" stroke="black" points="1370.55,-236.22 1361.28,-241.34 1371.73,-243.12 1370.55,-236.22"/>
</g>
<!-- e_3274&#45;&gt;e_3170 -->
<g id="edge92" class="edge">
<title>e_3274-&gt;e_3170</title>
<path fill="none" stroke="black" d="M2779.01,-437.53C2683.22,-426.59 2569.21,-413.57 2509.33,-406.73"/>
<polygon fill="black" stroke="black" points="2509.93,-403.28 2499.6,-405.62 2509.14,-410.24 2509.93,-403.28"/>
</g>
<!-- e_3274&#45;&gt;e_3171 -->
<g id="edge91" class="edge">
<title>e_3274-&gt;e_3171</title>
<path fill="none" stroke="black" d="M2883.3,-437.51C2825.46,-419.45 2733.46,-392.26 2652.3,-375 2604.54,-364.84 2549.01,-357.28 2511.45,-352.78"/>
<polygon fill="black" stroke="black" points="2512.25,-349.35 2501.91,-351.66 2511.43,-356.3 2512.25,-349.35"/>
</g>
<!-- e_3274&#45;&gt;e_3172 -->
<g id="edge94" class="edge">
<title>e_3274-&gt;e_3172</title>
<path fill="none" stroke="black" d="M2779.01,-474.47C2689.12,-484.74 2583.17,-496.83 2520.98,-503.93"/>
<polygon fill="black" stroke="black" points="2520.93,-500.42 2511.4,-505.03 2521.73,-507.37 2520.93,-500.42"/>
</g>
<!-- e_3274&#45;&gt;e_3173 -->
<g id="edge96" class="edge">
<title>e_3274-&gt;e_3173</title>
<path fill="none" stroke="black" d="M2714.01,-456C2641.02,-456 2566.8,-456 2519.23,-456"/>
<polygon fill="black" stroke="black" points="2519.24,-452.5 2509.23,-456 2519.23,-459.5 2519.24,-452.5"/>
</g>
<!-- e_30 -->
<g id="node62" class="node">
<title>e_30</title>
<path fill="#85cbd0" stroke="black" d="M2640.3,-198C2640.3,-198 2293.42,-198 2293.42,-198 2287.42,-198 2281.42,-192 2281.42,-186 2281.42,-186 2281.42,-174 2281.42,-174 2281.42,-168 2287.42,-162 2293.42,-162 2293.42,-162 2640.3,-162 2640.3,-162 2646.3,-162 2652.3,-168 2652.3,-174 2652.3,-174 2652.3,-186 2652.3,-186 2652.3,-192 2646.3,-198 2640.3,-198"/>
<text text-anchor="middle" x="2466.86" y="-174" font-family="Times,serif" font-size="20.00">138 calculate_global_angles_and_directions</text>
</g>
<!-- e_3274&#45;&gt;e_30 -->
<g id="edge90" class="edge">
<title>e_3274-&gt;e_30</title>
<path fill="none" stroke="black" d="M2928.18,-437.71C2894.93,-391.03 2799.53,-267.25 2686.63,-212 2679.22,-208.37 2671.52,-205.13 2663.62,-202.24"/>
<polygon fill="black" stroke="black" points="2664.76,-198.93 2654.16,-198.99 2662.48,-205.55 2664.76,-198.93"/>
</g>
<!-- e_3756 -->
<g id="node63" class="node">
<title>e_3756</title>
<path fill="#85cbd0" stroke="black" d="M3489.55,-528C3489.55,-528 3439.21,-528 3439.21,-528 3433.21,-528 3427.21,-522 3427.21,-516 3427.21,-516 3427.21,-504 3427.21,-504 3427.21,-498 3433.21,-492 3439.21,-492 3439.21,-492 3489.55,-492 3489.55,-492 3495.55,-492 3501.55,-498 3501.55,-504 3501.55,-504 3501.55,-516 3501.55,-516 3501.55,-522 3495.55,-528 3489.55,-528"/>
<text text-anchor="middle" x="3464.38" y="-504" font-family="Times,serif" font-size="20.00">210 i2s</text>
</g>
<!-- e_3756&#45;&gt;e_3274 -->
<g id="edge97" class="edge">
<title>e_3756-&gt;e_3274</title>
<path fill="none" stroke="black" d="M3426.78,-506.2C3366.03,-499.9 3240.37,-486.87 3132.32,-475.66"/>
<polygon fill="black" stroke="black" points="3132.73,-472.19 3122.43,-474.63 3132.01,-479.15 3132.73,-472.19"/>
</g>
<!-- e_3757 -->
<g id="node64" class="node">
<title>e_3757</title>
<path fill="#85cbd0" stroke="black" d="M3490.11,-680C3490.11,-680 3438.66,-680 3438.66,-680 3432.66,-680 3426.66,-674 3426.66,-668 3426.66,-668 3426.66,-656 3426.66,-656 3426.66,-650 3432.66,-644 3438.66,-644 3438.66,-644 3490.11,-644 3490.11,-644 3496.11,-644 3502.11,-650 3502.11,-656 3502.11,-656 3502.11,-668 3502.11,-668 3502.11,-674 3496.11,-680 3490.11,-680"/>
<text text-anchor="middle" x="3464.38" y="-656" font-family="Times,serif" font-size="20.00">210 D0</text>
</g>
<!-- e_3757&#45;&gt;e_3274 -->
<g id="edge98" class="edge">
<title>e_3757-&gt;e_3274</title>
<path fill="none" stroke="black" d="M3426.36,-647.35C3336.75,-611.89 3107.66,-521.24 3000.13,-478.7"/>
<polygon fill="black" stroke="black" points="3001.49,-475.47 2990.9,-475.05 2998.91,-481.98 3001.49,-475.47"/>
</g>
<!-- e_3758 -->
<g id="node65" class="node">
<title>e_3758</title>
<path fill="#85cbd0" stroke="black" d="M3483.99,-474C3483.99,-474 3444.78,-474 3444.78,-474 3438.78,-474 3432.78,-468 3432.78,-462 3432.78,-462 3432.78,-450 3432.78,-450 3432.78,-444 3438.78,-438 3444.78,-438 3444.78,-438 3483.99,-438 3483.99,-438 3489.99,-438 3495.99,-444 3495.99,-450 3495.99,-450 3495.99,-462 3495.99,-462 3495.99,-468 3489.99,-474 3483.99,-474"/>
<text text-anchor="middle" x="3464.38" y="-450" font-family="Times,serif" font-size="20.00">210 E</text>
</g>
<!-- e_3758&#45;&gt;e_3274 -->
<g id="edge99" class="edge">
<title>e_3758-&gt;e_3274</title>
<path fill="none" stroke="black" d="M3432.38,-456C3382.37,-456 3279.52,-456 3180.93,-456"/>
<polygon fill="black" stroke="black" points="3181.07,-452.5 3171.07,-456 3181.07,-459.5 3181.07,-452.5"/>
</g>
<!-- e_3763&#45;&gt;e_101 -->
<g id="edge103" class="edge">
<title>e_3763-&gt;e_101</title>
<path fill="none" stroke="black" d="M3893.51,-822.43C3678.85,-862.87 3141.38,-958.7 2686.63,-995 2640.08,-998.72 2587.79,-999.55 2546,-999.42"/>
<polygon fill="black" stroke="black" points="2546.04,-995.92 2536.02,-999.37 2546,-1002.92 2546.04,-995.92"/>
</g>
<!-- e_3763&#45;&gt;e_3756 -->
<g id="edge101" class="edge">
<title>e_3763-&gt;e_3756</title>
<path fill="none" stroke="black" d="M3960.84,-785.71C3911.39,-753.83 3805.41,-686.58 3712.86,-635 3644.16,-596.72 3562.36,-556.39 3512.15,-532.21"/>
<polygon fill="black" stroke="black" points="3513.83,-529.14 3503.3,-527.96 3510.8,-535.45 3513.83,-529.14"/>
</g>
<!-- e_3763&#45;&gt;e_3757 -->
<g id="edge102" class="edge">
<title>e_3763-&gt;e_3757</title>
<path fill="none" stroke="black" d="M3920.82,-785.51C3813.28,-756.34 3606.9,-700.38 3513.46,-675.04"/>
<polygon fill="black" stroke="black" points="3514.4,-671.67 3503.83,-672.43 3512.56,-678.42 3514.4,-671.67"/>
</g>
<!-- e_31 -->
<g id="node67" class="node">
<title>e_31</title>
<path fill="#85cbd0" stroke="black" d="M3700.86,-822C3700.86,-822 3227.91,-822 3227.91,-822 3221.91,-822 3215.91,-816 3215.91,-810 3215.91,-810 3215.91,-798 3215.91,-798 3215.91,-792 3221.91,-786 3227.91,-786 3227.91,-786 3700.86,-786 3700.86,-786 3706.86,-786 3712.86,-792 3712.86,-798 3712.86,-798 3712.86,-810 3712.86,-810 3712.86,-816 3706.86,-822 3700.86,-822"/>
<text text-anchor="middle" x="3464.38" y="-798" font-family="Times,serif" font-size="20.00">163 calculate_spherical_coord ... system_radial_unit_vector</text>
</g>
<!-- e_3763&#45;&gt;e_31 -->
<g id="edge100" class="edge">
<title>e_3763-&gt;e_31</title>
<path fill="none" stroke="black" d="M3749.42,-804C3741.09,-804 3732.72,-804 3724.37,-804"/>
<polygon fill="black" stroke="black" points="3724.49,-800.5 3714.49,-804 3724.49,-807.5 3724.49,-800.5"/>
</g>
<!-- e_3926&#45;&gt;e_101 -->
<g id="edge109" class="edge">
<title>e_3926-&gt;e_101</title>
<path fill="none" stroke="black" d="M3931.77,-474.44C3876.21,-491.95 3789.29,-518.29 3712.86,-537 3494.19,-590.51 3387.28,-489.02 3215.91,-635 3179.84,-665.73 3211.63,-700.72 3178.91,-735 3020.83,-900.6 2877.41,-785.8 2704.63,-936 2692.89,-946.2 2699.57,-957.38 2686.63,-966 2645.49,-993.41 2590.38,-1001.34 2545.76,-1002.46"/>
<polygon fill="black" stroke="black" points="2545.83,-998.95 2535.88,-1002.58 2545.92,-1005.95 2545.83,-998.95"/>
</g>
<!-- e_3926&#45;&gt;e_344 -->
<g id="edge107" class="edge">
<title>e_3926-&gt;e_344</title>
<path fill="none" stroke="black" d="M3936.51,-437.58C3881.46,-418.98 3792.11,-390.82 3712.86,-375 3642.03,-360.86 3558.23,-353.68 3508.56,-350.39"/>
<polygon fill="black" stroke="black" points="3509.01,-346.91 3498.81,-349.77 3508.57,-353.9 3509.01,-346.91"/>
</g>
<!-- e_3926&#45;&gt;e_345 -->
<g id="edge108" class="edge">
<title>e_3926-&gt;e_345</title>
<path fill="none" stroke="black" d="M3809.91,-437.53C3703.46,-426.55 3576.68,-413.48 3510.58,-406.66"/>
<polygon fill="black" stroke="black" points="3511.16,-403.2 3500.85,-405.66 3510.44,-410.16 3511.16,-403.2"/>
</g>
<!-- e_3926&#45;&gt;e_3756 -->
<g id="edge105" class="edge">
<title>e_3926-&gt;e_3756</title>
<path fill="none" stroke="black" d="M3809.91,-474.47C3704.86,-485.3 3580.01,-498.18 3513.21,-505.07"/>
<polygon fill="black" stroke="black" points="3512.92,-501.58 3503.33,-506.09 3513.64,-508.54 3512.92,-501.58"/>
</g>
<!-- e_3926&#45;&gt;e_3758 -->
<g id="edge106" class="edge">
<title>e_3926-&gt;e_3758</title>
<path fill="none" stroke="black" d="M3758.96,-456C3663.8,-456 3562.95,-456 3507.72,-456"/>
<polygon fill="black" stroke="black" points="3507.83,-452.5 3497.83,-456 3507.83,-459.5 3507.83,-452.5"/>
</g>
<!-- e_32 -->
<g id="node69" class="node">
<title>e_32</title>
<path fill="#85cbd0" stroke="black" d="M3695.29,-312C3695.29,-312 3233.48,-312 3233.48,-312 3227.48,-312 3221.48,-306 3221.48,-300 3221.48,-300 3221.48,-288 3221.48,-288 3221.48,-282 3227.48,-276 3233.48,-276 3233.48,-276 3695.29,-276 3695.29,-276 3701.29,-276 3707.29,-282 3707.29,-288 3707.29,-288 3707.29,-300 3707.29,-300 3707.29,-306 3701.29,-312 3695.29,-312"/>
<text text-anchor="middle" x="3464.38" y="-288" font-family="Times,serif" font-size="20.00">174 calculate_incident_field_ ... bal_cartesian_coordinates</text>
</g>
<!-- e_3926&#45;&gt;e_32 -->
<g id="edge104" class="edge">
<title>e_3926-&gt;e_32</title>
<path fill="none" stroke="black" d="M3960.14,-437.67C3911.33,-407.67 3808.46,-348.67 3712.86,-321 3705.31,-318.82 3697.58,-316.81 3689.75,-314.96"/>
<polygon fill="black" stroke="black" points="3690.6,-311.56 3680.07,-312.78 3689.06,-318.39 3690.6,-311.56"/>
</g>
</g>
</svg>