<?xml version="1.0" encoding="UTF-8" standalone="no"?>
<!DOCTYPE svg PUBLIC "-//W3C//DTD SVG 1.1//EN"
 "http://www.w3.org/Graphics/SVG/1.1/DTD/svg11.dtd">
<!-- Generated by graphviz version 2.40.1 (20161225.0304)
 -->
<!-- Title: dependency Pages: 1 -->
<svg width="2259pt" height="1135pt"
 viewBox="0.00 0.00 2258.54 1135.00" xmlns="http://www.w3.org/2000/svg" xmlns:xlink="http://www.w3.org/1999/xlink">
<g id="graph0" class="graph" transform="scale(1 1) rotate(0) translate(4 1131)">
<title>dependency</title>
<polygon fill="#ffffff" stroke="transparent" points="-4,4 -4,-1131 2254.538,-1131 2254.538,4 -4,4"/>
<!-- v_1_38 -->
<g id="node1" class="node">
<title>v_1_38</title>
<polygon fill="#3a85b9" stroke="#000000" points="1141.5,-1018 980.5,-1018 980.5,-981 1141.5,-981 1141.5,-1018"/>
<text text-anchor="middle" x="1061" y="-993.2" font-family="Times,serif" font-size="26.00" fill="#ffffff">188 read_args</text>
</g>
<!-- v_1_34 -->
<g id="node2" class="node">
<title>v_1_34</title>
<path fill="#85cbd0" stroke="#000000" d="M1102.5,-1127C1102.5,-1127 1019.5,-1127 1019.5,-1127 1013.5,-1127 1007.5,-1121 1007.5,-1115 1007.5,-1115 1007.5,-1102 1007.5,-1102 1007.5,-1096 1013.5,-1090 1019.5,-1090 1019.5,-1090 1102.5,-1090 1102.5,-1090 1108.5,-1090 1114.5,-1096 1114.5,-1102 1114.5,-1102 1114.5,-1115 1114.5,-1115 1114.5,-1121 1108.5,-1127 1102.5,-1127"/>
<text text-anchor="middle" x="1061" y="-1102.2" font-family="Times,serif" font-size="26.00" fill="#000000">186 argv</text>
</g>
<!-- v_1_38&#45;&gt;v_1_34 -->
<g id="edge89" class="edge">
<title>v_1_38&#45;&gt;v_1_34</title>
<path fill="none" stroke="#000000" stroke-dasharray="5,2" d="M1061,-1018.4864C1061,-1035.3666 1061,-1060.2976 1061,-1079.6442"/>
<polygon fill="#000000" stroke="#000000" points="1057.5001,-1079.7312 1061,-1089.7312 1064.5001,-1079.7313 1057.5001,-1079.7312"/>
</g>
<!-- v_1_39 -->
<g id="node3" class="node">
<title>v_1_39</title>
<path fill="#85cbd0" stroke="#000000" d="M1737,-909C1737,-909 1543,-909 1543,-909 1537,-909 1531,-903 1531,-897 1531,-897 1531,-884 1531,-884 1531,-878 1537,-872 1543,-872 1543,-872 1737,-872 1737,-872 1743,-872 1749,-878 1749,-884 1749,-884 1749,-897 1749,-897 1749,-903 1743,-909 1737,-909"/>
<text text-anchor="middle" x="1640" y="-884.2" font-family="Times,serif" font-size="26.00" fill="#000000">188 input_data_file</text>
</g>
<!-- v_1_39&#45;&gt;v_1_38 -->
<g id="edge17" class="edge">
<title>v_1_39&#45;&gt;v_1_38</title>
<path fill="none" stroke="#000000" d="M1541.4526,-909.0521C1432.3113,-929.5986 1257.8102,-962.4494 1151.8594,-982.3952"/>
<polygon fill="#000000" stroke="#000000" points="1151.0044,-978.9946 1141.8246,-984.2843 1152.2995,-985.8738 1151.0044,-978.9946"/>
</g>
<!-- v_1_40 -->
<g id="node4" class="node">
<title>v_1_40</title>
<path fill="#85cbd0" stroke="#000000" d="M861,-473C861,-473 715,-473 715,-473 709,-473 703,-467 703,-461 703,-461 703,-448 703,-448 703,-442 709,-436 715,-436 715,-436 861,-436 861,-436 867,-436 873,-442 873,-448 873,-448 873,-461 873,-461 873,-467 867,-473 861,-473"/>
<text text-anchor="middle" x="788" y="-448.2" font-family="Times,serif" font-size="26.00" fill="#000000">188 output_dir</text>
</g>
<!-- v_1_40&#45;&gt;v_1_38 -->
<g id="edge7" class="edge">
<title>v_1_40&#45;&gt;v_1_38</title>
<path fill="none" stroke="#000000" d="M796.295,-473.0869C807.3797,-497.9173 827.6423,-543.2809 845,-582 888.4554,-678.9339 894.1059,-705.6925 943,-800 975.6978,-863.0678 1019.414,-934.0252 1043.4023,-971.9985"/>
<polygon fill="#000000" stroke="#000000" points="1040.7464,-974.346 1049.0573,-980.9172 1046.6582,-970.5975 1040.7464,-974.346"/>
</g>
<!-- v_1_41 -->
<g id="node5" class="node">
<title>v_1_41</title>
<path fill="#85cbd0" stroke="#000000" d="M1284,-800C1284,-800 1200,-800 1200,-800 1194,-800 1188,-794 1188,-788 1188,-788 1188,-775 1188,-775 1188,-769 1194,-763 1200,-763 1200,-763 1284,-763 1284,-763 1290,-763 1296,-769 1296,-775 1296,-775 1296,-788 1296,-788 1296,-794 1290,-800 1284,-800"/>
<text text-anchor="middle" x="1242" y="-775.2" font-family="Times,serif" font-size="26.00" fill="#000000">188 time</text>
</g>
<!-- v_1_41&#45;&gt;v_1_38 -->
<g id="edge56" class="edge">
<title>v_1_41&#45;&gt;v_1_38</title>
<path fill="none" stroke="#000000" d="M1226.568,-800.0866C1194.3757,-838.8596 1119.9773,-928.4666 1082.8692,-973.1602"/>
<polygon fill="#000000" stroke="#000000" points="1080.0881,-971.0309 1076.3929,-980.9605 1085.4737,-975.5025 1080.0881,-971.0309"/>
</g>
<!-- v_1_42 -->
<g id="node6" class="node">
<title>v_1_42</title>
<path fill="#85cbd0" stroke="#000000" d="M640,-909C640,-909 472,-909 472,-909 466,-909 460,-903 460,-897 460,-897 460,-884 460,-884 460,-878 466,-872 472,-872 472,-872 640,-872 640,-872 646,-872 652,-878 652,-884 652,-884 652,-897 652,-897 652,-903 646,-909 640,-909"/>
<text text-anchor="middle" x="556" y="-884.2" font-family="Times,serif" font-size="26.00" fill="#000000">188 input_model</text>
</g>
<!-- v_1_42&#45;&gt;v_1_38 -->
<g id="edge29" class="edge">
<title>v_1_42&#45;&gt;v_1_38</title>
<path fill="none" stroke="#000000" d="M641.9524,-909.0521C733.3652,-928.7828 877.3474,-959.8601 970.4704,-979.9599"/>
<polygon fill="#000000" stroke="#000000" points="969.9289,-983.4236 980.4422,-982.1123 971.4058,-976.5812 969.9289,-983.4236"/>
</g>
<!-- v_1_43 -->
<g id="node7" class="node">
<title>v_1_43</title>
<path fill="#85cbd0" stroke="#000000" d="M1158,-800C1158,-800 964,-800 964,-800 958,-800 952,-794 952,-788 952,-788 952,-775 952,-775 952,-769 958,-763 964,-763 964,-763 1158,-763 1158,-763 1164,-763 1170,-769 1170,-775 1170,-775 1170,-788 1170,-788 1170,-794 1164,-800 1158,-800"/>
<text text-anchor="middle" x="1061" y="-775.2" font-family="Times,serif" font-size="26.00" fill="#000000">188 program_name</text>
</g>
<!-- v_1_43&#45;&gt;v_1_38 -->
<g id="edge18" class="edge">
<title>v_1_43&#45;&gt;v_1_38</title>
<path fill="none" stroke="#000000" d="M1061,-800.0866C1061,-838.2161 1061,-925.5061 1061,-970.8982"/>
<polygon fill="#000000" stroke="#000000" points="1057.5001,-970.9605 1061,-980.9605 1064.5001,-970.9605 1057.5001,-970.9605"/>
</g>
<!-- a_1 -->
<g id="node8" class="node">
<title>a_1</title>
<path fill="#ffffff" stroke="#000000" d="M1500.5,-909C1500.5,-909 1261.5,-909 1261.5,-909 1255.5,-909 1249.5,-903 1249.5,-897 1249.5,-897 1249.5,-884 1249.5,-884 1249.5,-878 1255.5,-872 1261.5,-872 1261.5,-872 1500.5,-872 1500.5,-872 1506.5,-872 1512.5,-878 1512.5,-884 1512.5,-884 1512.5,-897 1512.5,-897 1512.5,-903 1506.5,-909 1500.5,-909"/>
<text text-anchor="middle" x="1381" y="-884.2" font-family="Times,serif" font-size="26.00" fill="#000000">input_data_file_002.dat</text>
</g>
<!-- v_1_46 -->
<g id="node9" class="node">
<title>v_1_46</title>
<polygon fill="#3a85b9" stroke="#000000" points="1741.5,-800 1466.5,-800 1466.5,-763 1741.5,-763 1741.5,-800"/>
<text text-anchor="middle" x="1604" y="-775.2" font-family="Times,serif" font-size="26.00" fill="#ffffff">190 read_data_file_input</text>
</g>
<!-- v_1_46&#45;&gt;v_1_39 -->
<g id="edge75" class="edge">
<title>v_1_46&#45;&gt;v_1_39</title>
<path fill="none" stroke="#000000" stroke-dasharray="5,2" d="M1610.2707,-800.4864C1615.8975,-817.5229 1624.2327,-842.76 1630.6467,-862.1802"/>
<polygon fill="#000000" stroke="#000000" points="1627.3415,-863.3334 1633.8011,-871.7312 1633.9884,-861.138 1627.3415,-863.3334"/>
</g>
<!-- v_1_46&#45;&gt;a_1 -->
<g id="edge46" class="edge">
<title>v_1_46&#45;&gt;a_1</title>
<path fill="none" stroke="#000000" stroke-dasharray="5,2" d="M1565.9183,-800.1139C1527.7536,-818.7684 1468.9304,-847.5205 1427.9097,-867.571"/>
<polygon fill="#000000" stroke="#000000" points="1426.3718,-864.4269 1418.9246,-871.9629 1429.4458,-870.7159 1426.3718,-864.4269"/>
</g>
<!-- v_1_47 -->
<g id="node10" class="node">
<title>v_1_47</title>
<path fill="#85cbd0" stroke="#000000" d="M1419.5,-582C1419.5,-582 1320.5,-582 1320.5,-582 1314.5,-582 1308.5,-576 1308.5,-570 1308.5,-570 1308.5,-557 1308.5,-557 1308.5,-551 1314.5,-545 1320.5,-545 1320.5,-545 1419.5,-545 1419.5,-545 1425.5,-545 1431.5,-551 1431.5,-557 1431.5,-557 1431.5,-570 1431.5,-570 1431.5,-576 1425.5,-582 1419.5,-582"/>
<text text-anchor="middle" x="1370" y="-557.2" font-family="Times,serif" font-size="26.00" fill="#000000">190 delstd</text>
</g>
<!-- v_1_47&#45;&gt;v_1_46 -->
<g id="edge76" class="edge">
<title>v_1_47&#45;&gt;v_1_46</title>
<path fill="none" stroke="#000000" d="M1377.9072,-582.3561C1389.8781,-609.1385 1414.7746,-658.5413 1448,-691 1477.456,-719.7763 1517.8195,-742.8711 1550.1089,-758.5271"/>
<polygon fill="#000000" stroke="#000000" points="1548.8819,-761.8189 1559.4168,-762.9443 1551.8831,-755.4948 1548.8819,-761.8189"/>
</g>
<!-- v_1_48 -->
<g id="node11" class="node">
<title>v_1_48</title>
<path fill="#85cbd0" stroke="#000000" d="M1226,-473C1226,-473 1148,-473 1148,-473 1142,-473 1136,-467 1136,-461 1136,-461 1136,-448 1136,-448 1136,-442 1142,-436 1148,-436 1148,-436 1226,-436 1226,-436 1232,-436 1238,-442 1238,-448 1238,-448 1238,-461 1238,-461 1238,-467 1232,-473 1226,-473"/>
<text text-anchor="middle" x="1187" y="-448.2" font-family="Times,serif" font-size="26.00" fill="#000000">190 ipol</text>
</g>
<!-- v_1_48&#45;&gt;v_1_46 -->
<g id="edge47" class="edge">
<title>v_1_48&#45;&gt;v_1_46</title>
<path fill="none" stroke="#000000" d="M1187.0928,-473.2832C1188.3735,-517.862 1198.0185,-630.8074 1261,-691 1292.2638,-720.8794 1392.4523,-745.2119 1476.5335,-761.0911"/>
<polygon fill="#000000" stroke="#000000" points="1475.9678,-764.5458 1486.4398,-762.9373 1477.2504,-757.6643 1475.9678,-764.5458"/>
</g>
<!-- v_1_49 -->
<g id="node12" class="node">
<title>v_1_49</title>
<path fill="#85cbd0" stroke="#000000" d="M1836,-691C1836,-691 1746,-691 1746,-691 1740,-691 1734,-685 1734,-679 1734,-679 1734,-666 1734,-666 1734,-660 1740,-654 1746,-654 1746,-654 1836,-654 1836,-654 1842,-654 1848,-660 1848,-666 1848,-666 1848,-679 1848,-679 1848,-685 1842,-691 1836,-691"/>
<text text-anchor="middle" x="1791" y="-666.2" font-family="Times,serif" font-size="26.00" fill="#000000">190 tstart</text>
</g>
<!-- v_1_49&#45;&gt;v_1_46 -->
<g id="edge1" class="edge">
<title>v_1_49&#45;&gt;v_1_46</title>
<path fill="none" stroke="#000000" d="M1758.8536,-691.2378C1727.3157,-709.6208 1679.104,-737.7228 1644.8624,-757.6818"/>
<polygon fill="#000000" stroke="#000000" points="1642.9162,-754.765 1636.0393,-762.8247 1646.4414,-760.8126 1642.9162,-754.765"/>
</g>
<!-- v_1_50 -->
<g id="node13" class="node">
<title>v_1_50</title>
<path fill="#85cbd0" stroke="#000000" d="M2217.5,-691C2217.5,-691 2122.5,-691 2122.5,-691 2116.5,-691 2110.5,-685 2110.5,-679 2110.5,-679 2110.5,-666 2110.5,-666 2110.5,-660 2116.5,-654 2122.5,-654 2122.5,-654 2217.5,-654 2217.5,-654 2223.5,-654 2229.5,-660 2229.5,-666 2229.5,-666 2229.5,-679 2229.5,-679 2229.5,-685 2223.5,-691 2217.5,-691"/>
<text text-anchor="middle" x="2170" y="-666.2" font-family="Times,serif" font-size="26.00" fill="#000000">190 pstart</text>
</g>
<!-- v_1_50&#45;&gt;v_1_46 -->
<g id="edge60" class="edge">
<title>v_1_50&#45;&gt;v_1_46</title>
<path fill="none" stroke="#000000" d="M2110.235,-688.8447C2107.1175,-689.5968 2104.0251,-690.3202 2101,-691 1975.9536,-719.099 1831.7202,-744.6079 1730.9517,-761.3276"/>
<polygon fill="#000000" stroke="#000000" points="1730.3266,-757.8833 1721.0319,-762.9684 1731.469,-764.7895 1730.3266,-757.8833"/>
</g>
<!-- v_1_51 -->
<g id="node14" class="node">
<title>v_1_51</title>
<path fill="#85cbd0" stroke="#000000" d="M2080,-691C2080,-691 1998,-691 1998,-691 1992,-691 1986,-685 1986,-679 1986,-679 1986,-666 1986,-666 1986,-660 1992,-654 1998,-654 1998,-654 2080,-654 2080,-654 2086,-654 2092,-660 2092,-666 2092,-666 2092,-679 2092,-679 2092,-685 2086,-691 2080,-691"/>
<text text-anchor="middle" x="2039" y="-666.2" font-family="Times,serif" font-size="26.00" fill="#000000">190 delp</text>
</g>
<!-- v_1_51&#45;&gt;v_1_46 -->
<g id="edge53" class="edge">
<title>v_1_51&#45;&gt;v_1_46</title>
<path fill="none" stroke="#000000" d="M1985.9519,-688.5262C1982.9277,-689.3783 1979.9278,-690.2086 1977,-691 1881.5774,-716.7938 1771.5001,-743.0818 1695.7911,-760.6306"/>
<polygon fill="#000000" stroke="#000000" points="1694.7596,-757.2767 1685.8058,-762.9406 1696.3374,-764.0966 1694.7596,-757.2767"/>
</g>
<!-- v_1_52 -->
<g id="node15" class="node">
<title>v_1_52</title>
<path fill="#85cbd0" stroke="#000000" d="M1955.5,-691C1955.5,-691 1878.5,-691 1878.5,-691 1872.5,-691 1866.5,-685 1866.5,-679 1866.5,-679 1866.5,-666 1866.5,-666 1866.5,-660 1872.5,-654 1878.5,-654 1878.5,-654 1955.5,-654 1955.5,-654 1961.5,-654 1967.5,-660 1967.5,-666 1967.5,-666 1967.5,-679 1967.5,-679 1967.5,-685 1961.5,-691 1955.5,-691"/>
<text text-anchor="middle" x="1917" y="-666.2" font-family="Times,serif" font-size="26.00" fill="#000000">190 delt</text>
</g>
<!-- v_1_52&#45;&gt;v_1_46 -->
<g id="edge24" class="edge">
<title>v_1_52&#45;&gt;v_1_46</title>
<path fill="none" stroke="#000000" d="M1866.3633,-690.1339C1811.9501,-709.0829 1725.3946,-739.2252 1666.713,-759.6607"/>
<polygon fill="#000000" stroke="#000000" points="1665.4747,-756.3856 1657.182,-762.9797 1667.7769,-762.9963 1665.4747,-756.3856"/>
</g>
<!-- v_1_53 -->
<g id="node16" class="node">
<title>v_1_53</title>
<path fill="#85cbd0" stroke="#000000" d="M1542,-582C1542,-582 1462,-582 1462,-582 1456,-582 1450,-576 1450,-570 1450,-570 1450,-557 1450,-557 1450,-551 1456,-545 1462,-545 1462,-545 1542,-545 1542,-545 1548,-545 1554,-551 1554,-557 1554,-557 1554,-570 1554,-570 1554,-576 1548,-582 1542,-582"/>
<text text-anchor="middle" x="1502" y="-557.2" font-family="Times,serif" font-size="26.00" fill="#000000">190 corr</text>
</g>
<!-- v_1_53&#45;&gt;v_1_46 -->
<g id="edge4" class="edge">
<title>v_1_53&#45;&gt;v_1_46</title>
<path fill="none" stroke="#000000" d="M1486.513,-582.1016C1467.1779,-607.7331 1438.9446,-654.8416 1459,-691 1476.4136,-722.3955 1509.7533,-744.3291 1540.0765,-758.7321"/>
<polygon fill="#000000" stroke="#000000" points="1538.8179,-762.0046 1549.3694,-762.9623 1541.7181,-755.6337 1538.8179,-762.0046"/>
</g>
<!-- v_1_54 -->
<g id="node17" class="node">
<title>v_1_54</title>
<path fill="#85cbd0" stroke="#000000" d="M1568,-691C1568,-691 1480,-691 1480,-691 1474,-691 1468,-685 1468,-679 1468,-679 1468,-666 1468,-666 1468,-660 1474,-654 1480,-654 1480,-654 1568,-654 1568,-654 1574,-654 1580,-660 1580,-666 1580,-666 1580,-679 1580,-679 1580,-685 1574,-691 1568,-691"/>
<text text-anchor="middle" x="1524" y="-666.2" font-family="Times,serif" font-size="26.00" fill="#000000">190 tstop</text>
</g>
<!-- v_1_54&#45;&gt;v_1_46 -->
<g id="edge70" class="edge">
<title>v_1_54&#45;&gt;v_1_46</title>
<path fill="none" stroke="#000000" d="M1537.9349,-691.4864C1550.7256,-708.9136 1569.8143,-734.922 1584.1887,-754.5071"/>
<polygon fill="#000000" stroke="#000000" points="1581.4863,-756.7404 1590.2248,-762.7312 1587.1295,-752.5986 1581.4863,-756.7404"/>
</g>
<!-- v_1_55 -->
<g id="node18" class="node">
<title>v_1_55</title>
<path fill="#85cbd0" stroke="#000000" d="M1362,-691C1362,-691 1282,-691 1282,-691 1276,-691 1270,-685 1270,-679 1270,-679 1270,-666 1270,-666 1270,-660 1276,-654 1282,-654 1282,-654 1362,-654 1362,-654 1368,-654 1374,-660 1374,-666 1374,-666 1374,-679 1374,-679 1374,-685 1368,-691 1362,-691"/>
<text text-anchor="middle" x="1322" y="-666.2" font-family="Times,serif" font-size="26.00" fill="#000000">190 freq</text>
</g>
<!-- v_1_55&#45;&gt;v_1_46 -->
<g id="edge62" class="edge">
<title>v_1_55&#45;&gt;v_1_46</title>
<path fill="none" stroke="#000000" d="M1370.1571,-691.1139C1419.0276,-710.0036 1494.6849,-739.247 1546.63,-759.3251"/>
<polygon fill="#000000" stroke="#000000" points="1545.4522,-762.6221 1556.0415,-762.9629 1547.9759,-756.0929 1545.4522,-762.6221"/>
</g>
<!-- v_1_56 -->
<g id="node19" class="node">
<title>v_1_56</title>
<path fill="#85cbd0" stroke="#000000" d="M1703.5,-691C1703.5,-691 1610.5,-691 1610.5,-691 1604.5,-691 1598.5,-685 1598.5,-679 1598.5,-679 1598.5,-666 1598.5,-666 1598.5,-660 1604.5,-654 1610.5,-654 1610.5,-654 1703.5,-654 1703.5,-654 1709.5,-654 1715.5,-660 1715.5,-666 1715.5,-666 1715.5,-679 1715.5,-679 1715.5,-685 1709.5,-691 1703.5,-691"/>
<text text-anchor="middle" x="1657" y="-666.2" font-family="Times,serif" font-size="26.00" fill="#000000">190 pstop</text>
</g>
<!-- v_1_56&#45;&gt;v_1_46 -->
<g id="edge42" class="edge">
<title>v_1_56&#45;&gt;v_1_46</title>
<path fill="none" stroke="#000000" d="M1647.7681,-691.4864C1639.4083,-708.6792 1626.9875,-734.2238 1617.511,-753.7132"/>
<polygon fill="#000000" stroke="#000000" points="1614.3514,-752.2075 1613.1261,-762.7312 1620.6466,-755.2685 1614.3514,-752.2075"/>
</g>
<!-- v_1_59 -->
<g id="node20" class="node">
<title>v_1_59</title>
<polygon fill="#3a85b9" stroke="#000000" points="1138,-582 854,-582 854,-545 1138,-545 1138,-582"/>
<text text-anchor="middle" x="996" y="-557.2" font-family="Times,serif" font-size="26.00" fill="#ffffff">192 calculate_wavelength</text>
</g>
<!-- v_1_59&#45;&gt;v_1_55 -->
<g id="edge88" class="edge">
<title>v_1_59&#45;&gt;v_1_55</title>
<path fill="none" stroke="#000000" stroke-dasharray="5,2" d="M1051.671,-582.1139C1109.5518,-601.4667 1199.9362,-631.6873 1260.0454,-651.7851"/>
<polygon fill="#000000" stroke="#000000" points="1259.1982,-655.1922 1269.792,-655.0439 1261.4179,-648.5535 1259.1982,-655.1922"/>
</g>
<!-- v_1_60 -->
<g id="node21" class="node">
<title>v_1_60</title>
<path fill="#85cbd0" stroke="#000000" d="M1058.5,-473C1058.5,-473 951.5,-473 951.5,-473 945.5,-473 939.5,-467 939.5,-461 939.5,-461 939.5,-448 939.5,-448 939.5,-442 945.5,-436 951.5,-436 951.5,-436 1058.5,-436 1058.5,-436 1064.5,-436 1070.5,-442 1070.5,-448 1070.5,-448 1070.5,-461 1070.5,-461 1070.5,-467 1064.5,-473 1058.5,-473"/>
<text text-anchor="middle" x="1005" y="-448.2" font-family="Times,serif" font-size="26.00" fill="#000000">192 waveL</text>
</g>
<!-- v_1_60&#45;&gt;v_1_59 -->
<g id="edge41" class="edge">
<title>v_1_60&#45;&gt;v_1_59</title>
<path fill="none" stroke="#000000" d="M1003.4323,-473.4864C1002.0385,-490.3666 999.98,-515.2976 998.3826,-534.6442"/>
<polygon fill="#000000" stroke="#000000" points="994.8846,-534.4771 997.5497,-544.7312 1001.8608,-535.0532 994.8846,-534.4771"/>
</g>
<!-- v_1_63 -->
<g id="node22" class="node">
<title>v_1_63</title>
<polygon fill="#3a85b9" stroke="#000000" points="1375,-364 923,-364 923,-327 1375,-327 1375,-364"/>
<text text-anchor="middle" x="1149" y="-339.2" font-family="Times,serif" font-size="26.00" fill="#ffffff">194 calculate_incident_wave_polarization</text>
</g>
<!-- v_1_63&#45;&gt;v_1_48 -->
<g id="edge82" class="edge">
<title>v_1_63&#45;&gt;v_1_48</title>
<path fill="none" stroke="#000000" stroke-dasharray="5,2" d="M1155.6191,-364.4864C1161.5584,-381.5229 1170.3567,-406.76 1177.127,-426.1802"/>
<polygon fill="#000000" stroke="#000000" points="1173.8598,-427.4408 1180.4568,-435.7312 1180.4697,-425.1364 1173.8598,-427.4408"/>
</g>
<!-- v_1_63&#45;&gt;v_1_60 -->
<g id="edge67" class="edge">
<title>v_1_63&#45;&gt;v_1_60</title>
<path fill="none" stroke="#000000" stroke-dasharray="5,2" d="M1124.2455,-364.2378C1100.4456,-382.253 1064.3146,-409.6021 1038.0618,-429.4741"/>
<polygon fill="#000000" stroke="#000000" points="1035.7743,-426.8159 1029.9134,-435.642 1039.9991,-432.3972 1035.7743,-426.8159"/>
</g>
<!-- v_1_64 -->
<g id="node23" class="node">
<title>v_1_64</title>
<path fill="#85cbd0" stroke="#000000" d="M1066,-255C1066,-255 1010,-255 1010,-255 1004,-255 998,-249 998,-243 998,-243 998,-230 998,-230 998,-224 1004,-218 1010,-218 1010,-218 1066,-218 1066,-218 1072,-218 1078,-224 1078,-230 1078,-230 1078,-243 1078,-243 1078,-249 1072,-255 1066,-255"/>
<text text-anchor="middle" x="1038" y="-230.2" font-family="Times,serif" font-size="26.00" fill="#000000">194 et</text>
</g>
<!-- v_1_64&#45;&gt;v_1_63 -->
<g id="edge5" class="edge">
<title>v_1_64&#45;&gt;v_1_63</title>
<path fill="none" stroke="#000000" d="M1057.0816,-255.2378C1075.1097,-272.941 1102.3166,-299.6578 1122.4569,-319.4351"/>
<polygon fill="#000000" stroke="#000000" points="1120.2086,-322.1327 1129.796,-326.642 1125.1132,-317.1382 1120.2086,-322.1327"/>
</g>
<!-- v_1_65 -->
<g id="node24" class="node">
<title>v_1_65</title>
<path fill="#85cbd0" stroke="#000000" d="M1175,-255C1175,-255 1113,-255 1113,-255 1107,-255 1101,-249 1101,-243 1101,-243 1101,-230 1101,-230 1101,-224 1107,-218 1113,-218 1113,-218 1175,-218 1175,-218 1181,-218 1187,-224 1187,-230 1187,-230 1187,-243 1187,-243 1187,-249 1181,-255 1175,-255"/>
<text text-anchor="middle" x="1144" y="-230.2" font-family="Times,serif" font-size="26.00" fill="#000000">194 ep</text>
</g>
<!-- v_1_65&#45;&gt;v_1_63 -->
<g id="edge73" class="edge">
<title>v_1_65&#45;&gt;v_1_63</title>
<path fill="none" stroke="#000000" d="M1144.8709,-255.4864C1145.6453,-272.3666 1146.7889,-297.2976 1147.6763,-316.6442"/>
<polygon fill="#000000" stroke="#000000" points="1144.1844,-316.9021 1148.139,-326.7312 1151.177,-316.5813 1144.1844,-316.9021"/>
</g>
<!-- a_2 -->
<g id="node25" class="node">
<title>a_2</title>
<path fill="#ffffff" stroke="#000000" d="M389,-909C389,-909 189,-909 189,-909 183,-909 177,-903 177,-897 177,-897 177,-884 177,-884 177,-878 183,-872 189,-872 189,-872 389,-872 389,-872 395,-872 401,-878 401,-884 401,-884 401,-897 401,-897 401,-903 395,-909 389,-909"/>
<text text-anchor="middle" x="289" y="-884.2" font-family="Times,serif" font-size="26.00" fill="#000000">BOX/coordinates.m</text>
</g>
<!-- v_1_68 -->
<g id="node26" class="node">
<title>v_1_68</title>
<polygon fill="#3a85b9" stroke="#000000" points="446,-800 132,-800 132,-763 446,-763 446,-800"/>
<text text-anchor="middle" x="289" y="-775.2" font-family="Times,serif" font-size="26.00" fill="#ffffff">196 read_model_coordinates</text>
</g>
<!-- v_1_68&#45;&gt;v_1_42 -->
<g id="edge2" class="edge">
<title>v_1_68&#45;&gt;v_1_42</title>
<path fill="none" stroke="#000000" stroke-dasharray="5,2" d="M334.5956,-800.1139C380.6745,-818.9252 451.9055,-848.0045 501.0682,-868.0747"/>
<polygon fill="#000000" stroke="#000000" points="500.0114,-871.4236 510.5925,-871.9629 502.6571,-864.9428 500.0114,-871.4236"/>
</g>
<!-- v_1_68&#45;&gt;a_2 -->
<g id="edge72" class="edge">
<title>v_1_68&#45;&gt;a_2</title>
<path fill="none" stroke="#000000" stroke-dasharray="5,2" d="M289,-800.4864C289,-817.3666 289,-842.2976 289,-861.6442"/>
<polygon fill="#000000" stroke="#000000" points="285.5001,-861.7312 289,-871.7312 292.5001,-861.7313 285.5001,-861.7312"/>
</g>
<!-- v_1_69 -->
<g id="node27" class="node">
<title>v_1_69</title>
<path fill="#85cbd0" stroke="#000000" d="M336,-691C336,-691 256,-691 256,-691 250,-691 244,-685 244,-679 244,-679 244,-666 244,-666 244,-660 250,-654 256,-654 256,-654 336,-654 336,-654 342,-654 348,-660 348,-666 348,-666 348,-679 348,-679 348,-685 342,-691 336,-691"/>
<text text-anchor="middle" x="296" y="-666.2" font-family="Times,serif" font-size="26.00" fill="#000000">196 ypts</text>
</g>
<!-- v_1_69&#45;&gt;v_1_68 -->
<g id="edge37" class="edge">
<title>v_1_69&#45;&gt;v_1_68</title>
<path fill="none" stroke="#000000" d="M294.7807,-691.4864C293.6966,-708.3666 292.0956,-733.2976 290.8531,-752.6442"/>
<polygon fill="#000000" stroke="#000000" points="287.3535,-752.5274 290.2053,-762.7312 294.3391,-752.9761 287.3535,-752.5274"/>
</g>
<!-- v_1_70 -->
<g id="node28" class="node">
<title>v_1_70</title>
<path fill="#85cbd0" stroke="#000000" d="M479.5,-691C479.5,-691 378.5,-691 378.5,-691 372.5,-691 366.5,-685 366.5,-679 366.5,-679 366.5,-666 366.5,-666 366.5,-660 372.5,-654 378.5,-654 378.5,-654 479.5,-654 479.5,-654 485.5,-654 491.5,-660 491.5,-666 491.5,-666 491.5,-679 491.5,-679 491.5,-685 485.5,-691 479.5,-691"/>
<text text-anchor="middle" x="429" y="-666.2" font-family="Times,serif" font-size="26.00" fill="#000000">196 nverts</text>
</g>
<!-- v_1_70&#45;&gt;v_1_68 -->
<g id="edge59" class="edge">
<title>v_1_70&#45;&gt;v_1_68</title>
<path fill="none" stroke="#000000" d="M404.9331,-691.2378C381.7944,-709.253 346.667,-736.6021 321.1434,-756.4741"/>
<polygon fill="#000000" stroke="#000000" points="318.9617,-753.7369 313.2213,-762.642 323.262,-759.2603 318.9617,-753.7369"/>
</g>
<!-- v_1_71 -->
<g id="node29" class="node">
<title>v_1_71</title>
<path fill="#85cbd0" stroke="#000000" d="M92,-691C92,-691 12,-691 12,-691 6,-691 0,-685 0,-679 0,-679 0,-666 0,-666 0,-660 6,-654 12,-654 12,-654 92,-654 92,-654 98,-654 104,-660 104,-666 104,-666 104,-679 104,-679 104,-685 98,-691 92,-691"/>
<text text-anchor="middle" x="52" y="-666.2" font-family="Times,serif" font-size="26.00" fill="#000000">196 xpts</text>
</g>
<!-- v_1_71&#45;&gt;v_1_68 -->
<g id="edge10" class="edge">
<title>v_1_71&#45;&gt;v_1_68</title>
<path fill="none" stroke="#000000" d="M92.4725,-691.1139C133.1184,-709.8076 195.812,-738.6414 239.4198,-758.6973"/>
<polygon fill="#000000" stroke="#000000" points="238.1468,-761.9642 248.6945,-762.9629 241.0717,-755.6046 238.1468,-761.9642"/>
</g>
<!-- v_1_72 -->
<g id="node30" class="node">
<title>v_1_72</title>
<path fill="#85cbd0" stroke="#000000" d="M213.5,-691C213.5,-691 134.5,-691 134.5,-691 128.5,-691 122.5,-685 122.5,-679 122.5,-679 122.5,-666 122.5,-666 122.5,-660 128.5,-654 134.5,-654 134.5,-654 213.5,-654 213.5,-654 219.5,-654 225.5,-660 225.5,-666 225.5,-666 225.5,-679 225.5,-679 225.5,-685 219.5,-691 213.5,-691"/>
<text text-anchor="middle" x="174" y="-666.2" font-family="Times,serif" font-size="26.00" fill="#000000">196 zpts</text>
</g>
<!-- v_1_72&#45;&gt;v_1_68 -->
<g id="edge92" class="edge">
<title>v_1_72&#45;&gt;v_1_68</title>
<path fill="none" stroke="#000000" d="M193.7692,-691.2378C212.5292,-709.019 240.8829,-735.8933 261.7757,-755.6961"/>
<polygon fill="#000000" stroke="#000000" points="259.4383,-758.303 269.1039,-762.642 264.2537,-753.2225 259.4383,-758.303"/>
</g>
<!-- a_3 -->
<g id="node31" class="node">
<title>a_3</title>
<path fill="#ffffff" stroke="#000000" d="M824,-909C824,-909 682,-909 682,-909 676,-909 670,-903 670,-897 670,-897 670,-884 670,-884 670,-878 676,-872 682,-872 682,-872 824,-872 824,-872 830,-872 836,-878 836,-884 836,-884 836,-897 836,-897 836,-903 830,-909 824,-909"/>
<text text-anchor="middle" x="753" y="-884.2" font-family="Times,serif" font-size="26.00" fill="#000000">BOX/facets.m</text>
</g>
<!-- v_1_75 -->
<g id="node32" class="node">
<title>v_1_75</title>
<polygon fill="#3a85b9" stroke="#000000" points="720,-800 464,-800 464,-763 720,-763 720,-800"/>
<text text-anchor="middle" x="592" y="-775.2" font-family="Times,serif" font-size="26.00" fill="#ffffff">198 read_facets_model</text>
</g>
<!-- v_1_75&#45;&gt;v_1_42 -->
<g id="edge3" class="edge">
<title>v_1_75&#45;&gt;v_1_42</title>
<path fill="none" stroke="#000000" stroke-dasharray="5,2" d="M585.7293,-800.4864C580.1025,-817.5229 571.7673,-842.76 565.3533,-862.1802"/>
<polygon fill="#000000" stroke="#000000" points="562.0116,-861.138 562.1989,-871.7312 568.6585,-863.3334 562.0116,-861.138"/>
</g>
<!-- v_1_75&#45;&gt;a_3 -->
<g id="edge16" class="edge">
<title>v_1_75&#45;&gt;a_3</title>
<path fill="none" stroke="#000000" stroke-dasharray="5,2" d="M619.6769,-800.2378C646.5987,-818.4643 687.6328,-846.2452 717.0637,-866.1705"/>
<polygon fill="#000000" stroke="#000000" points="715.1724,-869.1167 725.4153,-871.8247 719.0968,-863.3202 715.1724,-869.1167"/>
</g>
<!-- v_1_76 -->
<g id="node33" class="node">
<title>v_1_76</title>
<path fill="#85cbd0" stroke="#000000" d="M634,-691C634,-691 536,-691 536,-691 530,-691 524,-685 524,-679 524,-679 524,-666 524,-666 524,-660 530,-654 536,-654 536,-654 634,-654 634,-654 640,-654 646,-660 646,-666 646,-666 646,-679 646,-679 646,-685 640,-691 634,-691"/>
<text text-anchor="middle" x="585" y="-666.2" font-family="Times,serif" font-size="26.00" fill="#000000">198 facets</text>
</g>
<!-- v_1_76&#45;&gt;v_1_75 -->
<g id="edge55" class="edge">
<title>v_1_76&#45;&gt;v_1_75</title>
<path fill="none" stroke="#000000" d="M586.2193,-691.4864C587.3034,-708.3666 588.9044,-733.2976 590.1469,-752.6442"/>
<polygon fill="#000000" stroke="#000000" points="586.6609,-752.9761 590.7947,-762.7312 593.6465,-752.5274 586.6609,-752.9761"/>
</g>
<!-- v_1_80 -->
<g id="node34" class="node">
<title>v_1_80</title>
<polygon fill="#3a85b9" stroke="#000000" points="742.5,-582 403.5,-582 403.5,-545 742.5,-545 742.5,-582"/>
<text text-anchor="middle" x="573" y="-557.2" font-family="Times,serif" font-size="26.00" fill="#ffffff">200 generate_transpose_matrix</text>
</g>
<!-- v_1_80&#45;&gt;v_1_76 -->
<g id="edge25" class="edge">
<title>v_1_80&#45;&gt;v_1_76</title>
<path fill="none" stroke="#000000" stroke-dasharray="5,2" d="M575.0902,-582.4864C576.9486,-599.3666 579.6933,-624.2976 581.8232,-643.6442"/>
<polygon fill="#000000" stroke="#000000" points="578.3603,-644.1743 582.9337,-653.7312 585.3183,-643.4082 578.3603,-644.1743"/>
</g>
<!-- v_1_81 -->
<g id="node35" class="node">
<title>v_1_81</title>
<path fill="#85cbd0" stroke="#000000" d="M673,-473C673,-473 573,-473 573,-473 567,-473 561,-467 561,-461 561,-461 561,-448 561,-448 561,-442 567,-436 573,-436 573,-436 673,-436 673,-436 679,-436 685,-442 685,-448 685,-448 685,-461 685,-461 685,-467 679,-473 673,-473"/>
<text text-anchor="middle" x="623" y="-448.2" font-family="Times,serif" font-size="26.00" fill="#000000">200 node1</text>
</g>
<!-- v_1_81&#45;&gt;v_1_80 -->
<g id="edge54" class="edge">
<title>v_1_81&#45;&gt;v_1_80</title>
<path fill="none" stroke="#000000" d="M614.2907,-473.4864C606.4399,-490.601 594.7928,-515.9917 585.8683,-535.4471"/>
<polygon fill="#000000" stroke="#000000" points="582.5977,-534.1826 581.6095,-544.7312 588.9603,-537.1012 582.5977,-534.1826"/>
</g>
<!-- v_1_82 -->
<g id="node36" class="node">
<title>v_1_82</title>
<path fill="#85cbd0" stroke="#000000" d="M389,-473C389,-473 289,-473 289,-473 283,-473 277,-467 277,-461 277,-461 277,-448 277,-448 277,-442 283,-436 289,-436 289,-436 389,-436 389,-436 395,-436 401,-442 401,-448 401,-448 401,-461 401,-461 401,-467 395,-473 389,-473"/>
<text text-anchor="middle" x="339" y="-448.2" font-family="Times,serif" font-size="26.00" fill="#000000">200 node3</text>
</g>
<!-- v_1_82&#45;&gt;v_1_80 -->
<g id="edge13" class="edge">
<title>v_1_82&#45;&gt;v_1_80</title>
<path fill="none" stroke="#000000" d="M378.9602,-473.1139C419.0916,-491.8076 480.9916,-520.6414 524.0474,-540.6973"/>
<polygon fill="#000000" stroke="#000000" points="522.662,-543.913 533.2047,-544.9629 525.6177,-537.5676 522.662,-543.913"/>
</g>
<!-- v_1_83 -->
<g id="node37" class="node">
<title>v_1_83</title>
<path fill="#85cbd0" stroke="#000000" d="M531,-473C531,-473 431,-473 431,-473 425,-473 419,-467 419,-461 419,-461 419,-448 419,-448 419,-442 425,-436 431,-436 431,-436 531,-436 531,-436 537,-436 543,-442 543,-448 543,-448 543,-461 543,-461 543,-467 537,-473 531,-473"/>
<text text-anchor="middle" x="481" y="-448.2" font-family="Times,serif" font-size="26.00" fill="#000000">200 node2</text>
</g>
<!-- v_1_83&#45;&gt;v_1_80 -->
<g id="edge86" class="edge">
<title>v_1_83&#45;&gt;v_1_80</title>
<path fill="none" stroke="#000000" d="M497.0252,-473.4864C511.8664,-491.0699 534.0808,-517.3892 550.6605,-537.0325"/>
<polygon fill="#000000" stroke="#000000" points="548.0338,-539.3469 557.1585,-544.7312 553.3831,-534.8319 548.0338,-539.3469"/>
</g>
<!-- v_1_89 -->
<g id="node38" class="node">
<title>v_1_89</title>
<polygon fill="#3a85b9" stroke="#000000" points="374,-582 18,-582 18,-545 374,-545 374,-582"/>
<text text-anchor="middle" x="196" y="-557.2" font-family="Times,serif" font-size="26.00" fill="#ffffff">202 generate_coordinates_points</text>
</g>
<!-- v_1_89&#45;&gt;v_1_69 -->
<g id="edge28" class="edge">
<title>v_1_89&#45;&gt;v_1_69</title>
<path fill="none" stroke="#000000" stroke-dasharray="5,2" d="M213.4187,-582.4864C229.6221,-600.1481 253.9113,-626.6233 271.9578,-646.294"/>
<polygon fill="#000000" stroke="#000000" points="269.4415,-648.7286 278.7809,-653.7312 274.5997,-643.9963 269.4415,-648.7286"/>
</g>
<!-- v_1_89&#45;&gt;v_1_70 -->
<g id="edge23" class="edge">
<title>v_1_89&#45;&gt;v_1_70</title>
<path fill="none" stroke="#000000" stroke-dasharray="5,2" d="M235.7894,-582.1139C275.7493,-600.8076 337.3848,-629.6414 380.2566,-649.6973"/>
<polygon fill="#000000" stroke="#000000" points="378.8338,-652.8957 389.3747,-653.9629 381.8,-646.5552 378.8338,-652.8957"/>
</g>
<!-- v_1_89&#45;&gt;v_1_71 -->
<g id="edge51" class="edge">
<title>v_1_89&#45;&gt;v_1_71</title>
<path fill="none" stroke="#000000" stroke-dasharray="5,2" d="M171.2455,-582.2378C147.4456,-600.253 111.3146,-627.6021 85.0618,-647.4741"/>
<polygon fill="#000000" stroke="#000000" points="82.7743,-644.8159 76.9134,-653.642 86.9991,-650.3972 82.7743,-644.8159"/>
</g>
<!-- v_1_89&#45;&gt;v_1_72 -->
<g id="edge80" class="edge">
<title>v_1_89&#45;&gt;v_1_72</title>
<path fill="none" stroke="#000000" stroke-dasharray="5,2" d="M192.1679,-582.4864C188.7451,-599.4448 183.6823,-624.5287 179.7699,-643.9126"/>
<polygon fill="#000000" stroke="#000000" points="176.3359,-643.2364 177.7882,-653.7312 183.1975,-644.6214 176.3359,-643.2364"/>
</g>
<!-- v_1_90 -->
<g id="node39" class="node">
<title>v_1_90</title>
<path fill="#85cbd0" stroke="#000000" d="M246.5,-473C246.5,-473 145.5,-473 145.5,-473 139.5,-473 133.5,-467 133.5,-461 133.5,-461 133.5,-448 133.5,-448 133.5,-442 139.5,-436 145.5,-436 145.5,-436 246.5,-436 246.5,-436 252.5,-436 258.5,-442 258.5,-448 258.5,-448 258.5,-461 258.5,-461 258.5,-467 252.5,-473 246.5,-473"/>
<text text-anchor="middle" x="196" y="-448.2" font-family="Times,serif" font-size="26.00" fill="#000000">202 points</text>
</g>
<!-- v_1_90&#45;&gt;v_1_89 -->
<g id="edge48" class="edge">
<title>v_1_90&#45;&gt;v_1_89</title>
<path fill="none" stroke="#000000" d="M196,-473.4864C196,-490.3666 196,-515.2976 196,-534.6442"/>
<polygon fill="#000000" stroke="#000000" points="192.5001,-534.7312 196,-544.7312 199.5001,-534.7313 192.5001,-534.7312"/>
</g>
<!-- a_6 -->
<g id="node40" class="node">
<title>a_6</title>
<path fill="#ffffff" stroke="#000000" d="M696.5,-255C696.5,-255 265.5,-255 265.5,-255 259.5,-255 253.5,-249 253.5,-243 253.5,-243 253.5,-230 253.5,-230 253.5,-224 259.5,-218 265.5,-218 265.5,-218 696.5,-218 696.5,-218 702.5,-218 708.5,-224 708.5,-230 708.5,-230 708.5,-243 708.5,-243 708.5,-249 702.5,-255 696.5,-255"/>
<text text-anchor="middle" x="481" y="-230.2" font-family="Times,serif" font-size="26.00" fill="#000000">output/modular/20180324210456/plot.png</text>
</g>
<!-- v_1_96 -->
<g id="node41" class="node">
<title>v_1_96</title>
<polygon fill="#3a85b9" stroke="#000000" points="570.5,-364 391.5,-364 391.5,-327 570.5,-327 570.5,-364"/>
<text text-anchor="middle" x="481" y="-339.2" font-family="Times,serif" font-size="26.00" fill="#ffffff">204 plot_model</text>
</g>
<!-- a_6&#45;&gt;v_1_96 -->
<g id="edge79" class="edge">
<title>a_6&#45;&gt;v_1_96</title>
<path fill="none" stroke="#000000" stroke-dasharray="5,2" d="M481,-255.4864C481,-272.3666 481,-297.2976 481,-316.6442"/>
<polygon fill="#000000" stroke="#000000" points="477.5001,-316.7312 481,-326.7312 484.5001,-316.7313 477.5001,-316.7312"/>
</g>
<!-- v_1_96&#45;&gt;v_1_40 -->
<g id="edge12" class="edge">
<title>v_1_96&#45;&gt;v_1_40</title>
<path fill="none" stroke="#000000" stroke-dasharray="5,2" d="M533.4264,-364.1139C586.8501,-383.0819 669.6779,-412.4899 726.2466,-432.5745"/>
<polygon fill="#000000" stroke="#000000" points="725.1951,-435.9152 735.7899,-435.9629 727.5373,-429.3187 725.1951,-435.9152"/>
</g>
<!-- v_1_96&#45;&gt;v_1_81 -->
<g id="edge8" class="edge">
<title>v_1_96&#45;&gt;v_1_81</title>
<path fill="none" stroke="#000000" stroke-dasharray="5,2" d="M505.4107,-364.2378C528.88,-382.253 564.5092,-409.6021 590.3974,-429.4741"/>
<polygon fill="#000000" stroke="#000000" points="588.369,-432.3293 598.4327,-435.642 592.6313,-426.7766 588.369,-432.3293"/>
</g>
<!-- v_1_96&#45;&gt;v_1_82 -->
<g id="edge94" class="edge">
<title>v_1_96&#45;&gt;v_1_82</title>
<path fill="none" stroke="#000000" stroke-dasharray="5,2" d="M456.5893,-364.2378C433.12,-382.253 397.4908,-409.6021 371.6026,-429.4741"/>
<polygon fill="#000000" stroke="#000000" points="369.3687,-426.7766 363.5673,-435.642 373.631,-432.3293 369.3687,-426.7766"/>
</g>
<!-- v_1_96&#45;&gt;v_1_83 -->
<g id="edge68" class="edge">
<title>v_1_96&#45;&gt;v_1_83</title>
<path fill="none" stroke="#000000" stroke-dasharray="5,2" d="M481,-364.4864C481,-381.3666 481,-406.2976 481,-425.6442"/>
<polygon fill="#000000" stroke="#000000" points="477.5001,-425.7312 481,-435.7312 484.5001,-425.7313 477.5001,-425.7312"/>
</g>
<!-- v_1_96&#45;&gt;v_1_90 -->
<g id="edge11" class="edge">
<title>v_1_96&#45;&gt;v_1_90</title>
<path fill="none" stroke="#000000" stroke-dasharray="5,2" d="M432.3306,-364.1139C382.9402,-383.0036 306.478,-412.247 253.9803,-432.3251"/>
<polygon fill="#000000" stroke="#000000" points="252.5586,-429.1215 244.4687,-435.9629 255.0592,-435.6596 252.5586,-429.1215"/>
</g>
<!-- v_1_99 -->
<g id="node42" class="node">
<title>v_1_99</title>
<polygon fill="#3a85b9" stroke="#000000" points="2129,-582 1737,-582 1737,-545 2129,-545 2129,-582"/>
<text text-anchor="middle" x="1933" y="-557.2" font-family="Times,serif" font-size="26.00" fill="#ffffff">206 calculate_refs_geometry_model</text>
</g>
<!-- v_1_99&#45;&gt;v_1_49 -->
<g id="edge93" class="edge">
<title>v_1_99&#45;&gt;v_1_49</title>
<path fill="none" stroke="#000000" stroke-dasharray="5,2" d="M1908.5893,-582.2378C1885.12,-600.253 1849.4908,-627.6021 1823.6026,-647.4741"/>
<polygon fill="#000000" stroke="#000000" points="1821.3687,-644.7766 1815.5673,-653.642 1825.631,-650.3293 1821.3687,-644.7766"/>
</g>
<!-- v_1_99&#45;&gt;v_1_50 -->
<g id="edge78" class="edge">
<title>v_1_99&#45;&gt;v_1_50</title>
<path fill="none" stroke="#000000" stroke-dasharray="5,2" d="M1973.4725,-582.1139C2014.1184,-600.8076 2076.812,-629.6414 2120.4198,-649.6973"/>
<polygon fill="#000000" stroke="#000000" points="2119.1468,-652.9642 2129.6945,-653.9629 2122.0717,-646.6046 2119.1468,-652.9642"/>
</g>
<!-- v_1_99&#45;&gt;v_1_51 -->
<g id="edge49" class="edge">
<title>v_1_99&#45;&gt;v_1_51</title>
<path fill="none" stroke="#000000" stroke-dasharray="5,2" d="M1951.4638,-582.4864C1968.7154,-600.2262 1994.614,-626.8578 2013.7688,-646.5547"/>
<polygon fill="#000000" stroke="#000000" points="2011.2669,-649.0023 2020.7478,-653.7312 2016.2852,-644.122 2011.2669,-649.0023"/>
</g>
<!-- v_1_99&#45;&gt;v_1_52 -->
<g id="edge20" class="edge">
<title>v_1_99&#45;&gt;v_1_52</title>
<path fill="none" stroke="#000000" stroke-dasharray="5,2" d="M1930.213,-582.4864C1927.7352,-599.3666 1924.0756,-624.2976 1921.2357,-643.6442"/>
<polygon fill="#000000" stroke="#000000" points="1917.7446,-643.3289 1919.755,-653.7312 1924.6704,-644.3456 1917.7446,-643.3289"/>
</g>
<!-- v_1_99&#45;&gt;v_1_54 -->
<g id="edge57" class="edge">
<title>v_1_99&#45;&gt;v_1_54</title>
<path fill="none" stroke="#000000" stroke-dasharray="5,2" d="M1861.3079,-582.0746C1791.8557,-600.1494 1683.5968,-628.5362 1590,-654 1589.8995,-654.0273 1589.799,-654.0547 1589.6983,-654.0821"/>
<polygon fill="#000000" stroke="#000000" points="1588.8731,-650.6791 1580.1532,-656.697 1590.7226,-657.4304 1588.8731,-650.6791"/>
</g>
<!-- v_1_99&#45;&gt;v_1_56 -->
<g id="edge90" class="edge">
<title>v_1_99&#45;&gt;v_1_56</title>
<path fill="none" stroke="#000000" stroke-dasharray="5,2" d="M1885.8675,-582.1139C1838.1361,-600.9644 1764.2964,-630.1257 1713.4661,-650.2"/>
<polygon fill="#000000" stroke="#000000" points="1711.9534,-647.0343 1703.9381,-653.9629 1714.5247,-653.5449 1711.9534,-647.0343"/>
</g>
<!-- v_1_100 -->
<g id="node43" class="node">
<title>v_1_100</title>
<path fill="#85cbd0" stroke="#000000" d="M2076,-473C2076,-473 2018,-473 2018,-473 2012,-473 2006,-467 2006,-461 2006,-461 2006,-448 2006,-448 2006,-442 2012,-436 2018,-436 2018,-436 2076,-436 2076,-436 2082,-436 2088,-442 2088,-448 2088,-448 2088,-461 2088,-461 2088,-467 2082,-473 2076,-473"/>
<text text-anchor="middle" x="2047" y="-448.2" font-family="Times,serif" font-size="26.00" fill="#000000">206 ip</text>
</g>
<!-- v_1_100&#45;&gt;v_1_99 -->
<g id="edge26" class="edge">
<title>v_1_100&#45;&gt;v_1_99</title>
<path fill="none" stroke="#000000" d="M2027.4027,-473.2378C2008.8058,-491.019 1980.6987,-517.8933 1959.9876,-537.6961"/>
<polygon fill="#000000" stroke="#000000" points="1957.5321,-535.2014 1952.7231,-544.642 1962.3697,-540.2609 1957.5321,-535.2014"/>
</g>
<!-- v_1_101 -->
<g id="node44" class="node">
<title>v_1_101</title>
<path fill="#85cbd0" stroke="#000000" d="M2209.5,-473C2209.5,-473 2156.5,-473 2156.5,-473 2150.5,-473 2144.5,-467 2144.5,-461 2144.5,-461 2144.5,-448 2144.5,-448 2144.5,-442 2150.5,-436 2156.5,-436 2156.5,-436 2209.5,-436 2209.5,-436 2215.5,-436 2221.5,-442 2221.5,-448 2221.5,-448 2221.5,-461 2221.5,-461 2221.5,-467 2215.5,-473 2209.5,-473"/>
<text text-anchor="middle" x="2183" y="-448.2" font-family="Times,serif" font-size="26.00" fill="#000000">206 it</text>
</g>
<!-- v_1_101&#45;&gt;v_1_99 -->
<g id="edge33" class="edge">
<title>v_1_101&#45;&gt;v_1_99</title>
<path fill="none" stroke="#000000" d="M2144.4854,-471.2924C2101.7261,-489.9354 2032.484,-520.125 1984.9517,-540.849"/>
<polygon fill="#000000" stroke="#000000" points="1983.5168,-537.6564 1975.749,-544.8614 1986.3145,-544.073 1983.5168,-537.6564"/>
</g>
<!-- v_1_102 -->
<g id="node45" class="node">
<title>v_1_102</title>
<path fill="#85cbd0" stroke="#000000" d="M1775.5,-473C1775.5,-473 1698.5,-473 1698.5,-473 1692.5,-473 1686.5,-467 1686.5,-461 1686.5,-461 1686.5,-448 1686.5,-448 1686.5,-442 1692.5,-436 1698.5,-436 1698.5,-436 1775.5,-436 1775.5,-436 1781.5,-436 1787.5,-442 1787.5,-448 1787.5,-448 1787.5,-461 1787.5,-461 1787.5,-467 1781.5,-473 1775.5,-473"/>
<text text-anchor="middle" x="1737" y="-448.2" font-family="Times,serif" font-size="26.00" fill="#000000">206 delt</text>
</g>
<!-- v_1_102&#45;&gt;v_1_99 -->
<g id="edge81" class="edge">
<title>v_1_102&#45;&gt;v_1_99</title>
<path fill="none" stroke="#000000" d="M1770.6936,-473.2378C1803.89,-491.699 1854.7118,-519.9622 1890.6283,-539.9362"/>
<polygon fill="#000000" stroke="#000000" points="1888.9781,-543.0232 1899.4187,-544.8247 1892.3803,-536.9056 1888.9781,-543.0232"/>
</g>
<!-- v_1_103 -->
<g id="node46" class="node">
<title>v_1_103</title>
<path fill="#85cbd0" stroke="#000000" d="M1938,-473C1938,-473 1856,-473 1856,-473 1850,-473 1844,-467 1844,-461 1844,-461 1844,-448 1844,-448 1844,-442 1850,-436 1856,-436 1856,-436 1938,-436 1938,-436 1944,-436 1950,-442 1950,-448 1950,-448 1950,-461 1950,-461 1950,-467 1944,-473 1938,-473"/>
<text text-anchor="middle" x="1897" y="-448.2" font-family="Times,serif" font-size="26.00" fill="#000000">206 delp</text>
</g>
<!-- v_1_103&#45;&gt;v_1_99 -->
<g id="edge45" class="edge">
<title>v_1_103&#45;&gt;v_1_99</title>
<path fill="none" stroke="#000000" d="M1903.2707,-473.4864C1908.8975,-490.5229 1917.2327,-515.76 1923.6467,-535.1802"/>
<polygon fill="#000000" stroke="#000000" points="1920.3415,-536.3334 1926.8011,-544.7312 1926.9884,-534.138 1920.3415,-536.3334"/>
</g>
<!-- a_7 -->
<g id="node47" class="node">
<title>a_7</title>
<path fill="#ffffff" stroke="#000000" d="M1410.5,-37C1410.5,-37 997.5,-37 997.5,-37 991.5,-37 985.5,-31 985.5,-25 985.5,-25 985.5,-12 985.5,-12 985.5,-6 991.5,0 997.5,0 997.5,0 1410.5,0 1410.5,0 1416.5,0 1422.5,-6 1422.5,-12 1422.5,-12 1422.5,-25 1422.5,-25 1422.5,-31 1416.5,-37 1410.5,-37"/>
<text text-anchor="middle" x="1204" y="-12.2" font-family="Times,serif" font-size="26.00" fill="#000000">output/modular/20180324210456/E0.dat</text>
</g>
<!-- v_1_106 -->
<g id="node49" class="node">
<title>v_1_106</title>
<polygon fill="#3a85b9" stroke="#000000" points="1611,-364 1393,-364 1393,-327 1611,-327 1611,-364"/>
<text text-anchor="middle" x="1502" y="-339.2" font-family="Times,serif" font-size="26.00" fill="#ffffff">208 prepare_output</text>
</g>
<!-- a_7&#45;&gt;v_1_106 -->
<g id="edge91" class="edge">
<title>a_7&#45;&gt;v_1_106</title>
<path fill="none" stroke="#000000" stroke-dasharray="5,2" d="M1251.8721,-37.1031C1283.9262,-51.9372 1324.5754,-75.7616 1349,-109 1388.7039,-163.0315 1350.2915,-198.8904 1387,-255 1405.0863,-282.6452 1434.469,-305.5553 1459.0062,-321.4081"/>
<polygon fill="#000000" stroke="#000000" points="1457.4664,-324.5739 1467.7971,-326.925 1461.1874,-318.6448 1457.4664,-324.5739"/>
</g>
<!-- v_1_122 -->
<g id="node55" class="node">
<title>v_1_122</title>
<polygon fill="#3a85b9" stroke="#000000" points="1340.5,-146 717.5,-146 717.5,-109 1340.5,-109 1340.5,-146"/>
<text text-anchor="middle" x="1029" y="-121.2" font-family="Times,serif" font-size="26.00" fill="#ffffff">214 calculate_incident_field_ ... bal_cartesian_coordinates</text>
</g>
<!-- a_7&#45;&gt;v_1_122 -->
<g id="edge14" class="edge">
<title>a_7&#45;&gt;v_1_122</title>
<path fill="none" stroke="#000000" stroke-dasharray="5,2" d="M1173.9164,-37.2378C1144.528,-55.5426 1099.6681,-83.4838 1067.65,-103.4266"/>
<polygon fill="#000000" stroke="#000000" points="1065.621,-100.5669 1058.9833,-108.8247 1069.3219,-106.5086 1065.621,-100.5669"/>
</g>
<!-- a_8 -->
<g id="node48" class="node">
<title>a_8</title>
<path fill="#ffffff" stroke="#000000" d="M1865.5,-37C1865.5,-37 1464.5,-37 1464.5,-37 1458.5,-37 1452.5,-31 1452.5,-25 1452.5,-25 1452.5,-12 1452.5,-12 1452.5,-6 1458.5,0 1464.5,0 1464.5,0 1865.5,0 1865.5,0 1871.5,0 1877.5,-6 1877.5,-12 1877.5,-12 1877.5,-25 1877.5,-25 1877.5,-31 1871.5,-37 1865.5,-37"/>
<text text-anchor="middle" x="1665" y="-12.2" font-family="Times,serif" font-size="26.00" fill="#000000">output/modular/20180324210456/R.dat</text>
</g>
<!-- a_8&#45;&gt;v_1_106 -->
<g id="edge39" class="edge">
<title>a_8&#45;&gt;v_1_106</title>
<path fill="none" stroke="#000000" stroke-dasharray="5,2" d="M1613.106,-37.0356C1580.8666,-51.4362 1541.7394,-74.7855 1521,-109 1481.2829,-174.5227 1489.2519,-269.6883 1496.578,-316.8266"/>
<polygon fill="#000000" stroke="#000000" points="1493.1649,-317.6393 1498.2554,-326.9311 1500.0704,-316.4929 1493.1649,-317.6393"/>
</g>
<!-- v_1_117 -->
<g id="node54" class="node">
<title>v_1_117</title>
<polygon fill="#3a85b9" stroke="#000000" points="2168,-146 1530,-146 1530,-109 2168,-109 2168,-146"/>
<text text-anchor="middle" x="1849" y="-121.2" font-family="Times,serif" font-size="26.00" fill="#ffffff">212 calculate_spherical_coord ... system_radial_unit_vector</text>
</g>
<!-- a_8&#45;&gt;v_1_117 -->
<g id="edge6" class="edge">
<title>a_8&#45;&gt;v_1_117</title>
<path fill="none" stroke="#000000" stroke-dasharray="5,2" d="M1696.6307,-37.2378C1727.6626,-55.6208 1775.1009,-83.7228 1808.7931,-103.6818"/>
<polygon fill="#000000" stroke="#000000" points="1807.0871,-106.7392 1817.4747,-108.8247 1810.6549,-100.7166 1807.0871,-106.7392"/>
</g>
<!-- v_1_106&#45;&gt;v_1_39 -->
<g id="edge64" class="edge">
<title>v_1_106&#45;&gt;v_1_39</title>
<path fill="none" stroke="#000000" stroke-dasharray="5,2" d="M1611.2286,-360.964C1780.2241,-385.0494 2086.8363,-429.4538 2097,-436 2145.6061,-467.306 2222.5412,-598.5769 2239,-654 2243.6814,-669.764 2248.6169,-677.6608 2239,-691 2180.9807,-771.4762 1905.4958,-837.8948 1749.11,-869.896"/>
<polygon fill="#000000" stroke="#000000" points="1748.0874,-866.5322 1738.9849,-871.9539 1749.4817,-873.392 1748.0874,-866.5322"/>
</g>
<!-- v_1_106&#45;&gt;v_1_40 -->
<g id="edge43" class="edge">
<title>v_1_106&#45;&gt;v_1_40</title>
<path fill="none" stroke="#000000" stroke-dasharray="5,2" d="M1392.7158,-362.6794C1389.7802,-363.1261 1386.8706,-363.5671 1384,-364 1163.3012,-397.2856 1107.1889,-399.4932 887,-436 885.7144,-436.2132 884.4197,-436.4296 883.1176,-436.6489"/>
<polygon fill="#000000" stroke="#000000" points="882.2805,-433.2413 873.0159,-438.381 883.4636,-440.1406 882.2805,-433.2413"/>
</g>
<!-- v_1_106&#45;&gt;v_1_41 -->
<g id="edge69" class="edge">
<title>v_1_106&#45;&gt;v_1_41</title>
<path fill="none" stroke="#000000" stroke-dasharray="5,2" d="M1452.8001,-364.0281C1418.2219,-379.0843 1372.8138,-403.2079 1342,-436 1256.3042,-527.1974 1243.4967,-687.3434 1241.9755,-752.5982"/>
<polygon fill="#000000" stroke="#000000" points="1238.4706,-752.8851 1241.8129,-762.9389 1245.4698,-752.9953 1238.4706,-752.8851"/>
</g>
<!-- v_1_106&#45;&gt;v_1_42 -->
<g id="edge63" class="edge">
<title>v_1_106&#45;&gt;v_1_42</title>
<path fill="none" stroke="#000000" stroke-dasharray="5,2" d="M1392.6832,-362.669C1226.9985,-388.7084 931.2467,-435.265 930,-436 877.0791,-467.1995 876.8279,-492.4547 845,-545 780.4932,-651.4955 814.5846,-709.5694 729,-800 699.6982,-830.9609 657.4352,-853.343 622.017,-868.1031"/>
<polygon fill="#000000" stroke="#000000" points="620.6538,-864.879 612.7,-871.8782 623.2825,-871.3667 620.6538,-864.879"/>
</g>
<!-- v_1_106&#45;&gt;v_1_43 -->
<g id="edge9" class="edge">
<title>v_1_106&#45;&gt;v_1_43</title>
<path fill="none" stroke="#000000" stroke-dasharray="5,2" d="M1396.6543,-364.0735C1291.7483,-383.6364 1143.9092,-414.5245 1127,-436 1116.827,-448.9201 1124.779,-456.7062 1127,-473 1133.6521,-521.8019 1156.9542,-533.7632 1147,-582 1133.6135,-646.8698 1098.1216,-716.6228 1077.1528,-754.0313"/>
<polygon fill="#000000" stroke="#000000" points="1074.0548,-752.399 1072.157,-762.8224 1080.1408,-755.8575 1074.0548,-752.399"/>
</g>
<!-- v_1_106&#45;&gt;v_1_47 -->
<g id="edge35" class="edge">
<title>v_1_106&#45;&gt;v_1_47</title>
<path fill="none" stroke="#000000" stroke-dasharray="5,2" d="M1490.7458,-364.0866C1467.4146,-402.6183 1413.6853,-491.3531 1386.4573,-536.3205"/>
<polygon fill="#000000" stroke="#000000" points="1383.4114,-534.5935 1381.2258,-544.9605 1389.3993,-538.2192 1383.4114,-534.5935"/>
</g>
<!-- v_1_106&#45;&gt;v_1_48 -->
<g id="edge83" class="edge">
<title>v_1_106&#45;&gt;v_1_48</title>
<path fill="none" stroke="#000000" stroke-dasharray="5,2" d="M1448.2075,-364.1139C1392.6441,-383.3406 1306.082,-413.2938 1248.0033,-433.3909"/>
<polygon fill="#000000" stroke="#000000" points="1246.5267,-430.1982 1238.221,-436.7759 1248.8158,-436.8133 1246.5267,-430.1982"/>
</g>
<!-- v_1_106&#45;&gt;v_1_49 -->
<g id="edge19" class="edge">
<title>v_1_106&#45;&gt;v_1_49</title>
<path fill="none" stroke="#000000" stroke-dasharray="5,2" d="M1519.8148,-364.0048C1537.1766,-382.1469 1564.2145,-410.6876 1587,-436 1654.4803,-510.9637 1731.6009,-601.8513 1768.7254,-645.9442"/>
<polygon fill="#000000" stroke="#000000" points="1766.2762,-648.4697 1775.3917,-653.8695 1771.6331,-643.9638 1766.2762,-648.4697"/>
</g>
<!-- v_1_106&#45;&gt;v_1_50 -->
<g id="edge84" class="edge">
<title>v_1_106&#45;&gt;v_1_50</title>
<path fill="none" stroke="#000000" stroke-dasharray="5,2" d="M1611.2169,-363.77C1736.4639,-385.247 1928.5256,-419.9878 1959,-436 1979.8672,-446.9642 1977.8437,-459.2635 1997,-473 2054.1821,-514.0039 2094.1788,-489.9472 2138,-545 2160.5853,-573.3741 2167.4617,-615.6491 2169.4288,-643.6351"/>
<polygon fill="#000000" stroke="#000000" points="2165.9517,-644.1587 2169.978,-653.9586 2172.9418,-643.7868 2165.9517,-644.1587"/>
</g>
<!-- v_1_106&#45;&gt;v_1_53 -->
<g id="edge21" class="edge">
<title>v_1_106&#45;&gt;v_1_53</title>
<path fill="none" stroke="#000000" stroke-dasharray="5,2" d="M1502,-364.0866C1502,-402.2161 1502,-489.5061 1502,-534.8982"/>
<polygon fill="#000000" stroke="#000000" points="1498.5001,-534.9605 1502,-544.9605 1505.5001,-534.9605 1498.5001,-534.9605"/>
</g>
<!-- v_1_106&#45;&gt;v_1_54 -->
<g id="edge65" class="edge">
<title>v_1_106&#45;&gt;v_1_54</title>
<path fill="none" stroke="#000000" stroke-dasharray="5,2" d="M1512.751,-364.0565C1534.4266,-403.753 1579.9203,-499.9816 1563,-582 1558.4501,-604.0548 1548.2689,-627.3548 1539.45,-644.7892"/>
<polygon fill="#000000" stroke="#000000" points="1536.2576,-643.3414 1534.7351,-653.8263 1542.4638,-646.5793 1536.2576,-643.3414"/>
</g>
<!-- v_1_106&#45;&gt;v_1_55 -->
<g id="edge38" class="edge">
<title>v_1_106&#45;&gt;v_1_55</title>
<path fill="none" stroke="#000000" stroke-dasharray="5,2" d="M1471.2029,-364.0682C1423.6469,-394.7737 1334.1587,-461.1523 1299,-545 1285.4259,-577.3719 1296.9495,-617.6583 1308.0153,-644.1789"/>
<polygon fill="#000000" stroke="#000000" points="1304.9431,-645.8866 1312.1807,-653.624 1311.3479,-643.062 1304.9431,-645.8866"/>
</g>
<!-- v_1_106&#45;&gt;v_1_56 -->
<g id="edge31" class="edge">
<title>v_1_106&#45;&gt;v_1_56</title>
<path fill="none" stroke="#000000" stroke-dasharray="5,2" d="M1516.9004,-364.0741C1530.6343,-381.8028 1550.9566,-409.6434 1565,-436 1603.1513,-507.6022 1634.0214,-598.5719 1648.3436,-643.9926"/>
<polygon fill="#000000" stroke="#000000" points="1645.0669,-645.242 1651.3848,-653.7469 1651.7496,-643.1584 1645.0669,-645.242"/>
</g>
<!-- v_1_106&#45;&gt;v_1_102 -->
<g id="edge30" class="edge">
<title>v_1_106&#45;&gt;v_1_102</title>
<path fill="none" stroke="#000000" stroke-dasharray="5,2" d="M1542.1309,-364.1139C1582.4338,-382.8076 1644.5984,-411.6414 1687.8382,-431.6973"/>
<polygon fill="#000000" stroke="#000000" points="1686.4902,-434.9302 1697.0346,-435.9629 1689.4356,-428.58 1686.4902,-434.9302"/>
</g>
<!-- v_1_106&#45;&gt;v_1_103 -->
<g id="edge15" class="edge">
<title>v_1_106&#45;&gt;v_1_103</title>
<path fill="none" stroke="#000000" stroke-dasharray="5,2" d="M1569.4541,-364.1139C1643.5314,-384.5555 1761.5477,-417.122 1833.8629,-437.0773"/>
<polygon fill="#000000" stroke="#000000" points="1833.1834,-440.5206 1843.7542,-439.8069 1835.0455,-433.7728 1833.1834,-440.5206"/>
</g>
<!-- v_1_109 -->
<g id="node50" class="node">
<title>v_1_109</title>
<polygon fill="#3a85b9" stroke="#000000" points="2117.5,-364 1644.5,-364 1644.5,-327 2117.5,-327 2117.5,-364"/>
<text text-anchor="middle" x="1881" y="-339.2" font-family="Times,serif" font-size="26.00" fill="#ffffff">210 calculate_global_angles_and_directions</text>
</g>
<!-- v_1_109&#45;&gt;v_1_49 -->
<g id="edge44" class="edge">
<title>v_1_109&#45;&gt;v_1_49</title>
<path fill="none" stroke="#000000" stroke-dasharray="5,2" d="M1870.0409,-364.3867C1854.8862,-389.942 1826.093,-436.5291 1797,-473 1769.3608,-507.6485 1744.5248,-503.8737 1728,-545 1713.4843,-581.1262 1740.7541,-621.1227 1763.84,-646.5148"/>
<polygon fill="#000000" stroke="#000000" points="1761.4088,-649.0381 1770.8193,-653.9058 1766.4983,-644.2321 1761.4088,-649.0381"/>
</g>
<!-- v_1_109&#45;&gt;v_1_50 -->
<g id="edge71" class="edge">
<title>v_1_109&#45;&gt;v_1_50</title>
<path fill="none" stroke="#000000" stroke-dasharray="5,2" d="M2020.9806,-364.0295C2106.651,-378.5646 2204.7267,-402.0691 2231,-436 2280.1231,-499.4405 2223.3004,-598.3072 2190.3137,-645.5691"/>
<polygon fill="#000000" stroke="#000000" points="2187.4196,-643.5994 2184.4627,-653.7732 2193.1187,-647.6639 2187.4196,-643.5994"/>
</g>
<!-- v_1_109&#45;&gt;v_1_100 -->
<g id="edge58" class="edge">
<title>v_1_109&#45;&gt;v_1_100</title>
<path fill="none" stroke="#000000" stroke-dasharray="5,2" d="M1909.5364,-364.2378C1937.2943,-382.4643 1979.6028,-410.2452 2009.9477,-430.1705"/>
<polygon fill="#000000" stroke="#000000" points="2008.2785,-433.2615 2018.5587,-435.8247 2012.1207,-427.4102 2008.2785,-433.2615"/>
</g>
<!-- v_1_109&#45;&gt;v_1_101 -->
<g id="edge32" class="edge">
<title>v_1_109&#45;&gt;v_1_101</title>
<path fill="none" stroke="#000000" stroke-dasharray="5,2" d="M1932.5725,-364.1139C1989.1496,-384.5341 2079.2503,-417.0539 2134.5545,-437.0147"/>
<polygon fill="#000000" stroke="#000000" points="2133.5307,-440.3661 2144.125,-440.469 2135.9071,-433.7818 2133.5307,-440.3661"/>
</g>
<!-- v_1_109&#45;&gt;v_1_102 -->
<g id="edge22" class="edge">
<title>v_1_109&#45;&gt;v_1_102</title>
<path fill="none" stroke="#000000" stroke-dasharray="5,2" d="M1856.2455,-364.2378C1832.4456,-382.253 1796.3146,-409.6021 1770.0618,-429.4741"/>
<polygon fill="#000000" stroke="#000000" points="1767.7743,-426.8159 1761.9134,-435.642 1771.9991,-432.3972 1767.7743,-426.8159"/>
</g>
<!-- v_1_109&#45;&gt;v_1_103 -->
<g id="edge85" class="edge">
<title>v_1_109&#45;&gt;v_1_103</title>
<path fill="none" stroke="#000000" stroke-dasharray="5,2" d="M1883.787,-364.4864C1886.2648,-381.3666 1889.9244,-406.2976 1892.7643,-425.6442"/>
<polygon fill="#000000" stroke="#000000" points="1889.3296,-426.3456 1894.245,-435.7312 1896.2554,-425.3289 1889.3296,-426.3456"/>
</g>
<!-- v_1_110 -->
<g id="node51" class="node">
<title>v_1_110</title>
<path fill="#85cbd0" stroke="#000000" d="M1804,-255C1804,-255 1736,-255 1736,-255 1730,-255 1724,-249 1724,-243 1724,-243 1724,-230 1724,-230 1724,-224 1730,-218 1736,-218 1736,-218 1804,-218 1804,-218 1810,-218 1816,-224 1816,-230 1816,-230 1816,-243 1816,-243 1816,-249 1810,-255 1804,-255"/>
<text text-anchor="middle" x="1770" y="-230.2" font-family="Times,serif" font-size="26.00" fill="#000000">210 i2s</text>
</g>
<!-- v_1_110&#45;&gt;v_1_109 -->
<g id="edge74" class="edge">
<title>v_1_110&#45;&gt;v_1_109</title>
<path fill="none" stroke="#000000" d="M1789.0816,-255.2378C1807.1097,-272.941 1834.3166,-299.6578 1854.4569,-319.4351"/>
<polygon fill="#000000" stroke="#000000" points="1852.2086,-322.1327 1861.796,-326.642 1857.1132,-317.1382 1852.2086,-322.1327"/>
</g>
<!-- v_1_111 -->
<g id="node52" class="node">
<title>v_1_111</title>
<path fill="#85cbd0" stroke="#000000" d="M1461.5,-255C1461.5,-255 1408.5,-255 1408.5,-255 1402.5,-255 1396.5,-249 1396.5,-243 1396.5,-243 1396.5,-230 1396.5,-230 1396.5,-224 1402.5,-218 1408.5,-218 1408.5,-218 1461.5,-218 1461.5,-218 1467.5,-218 1473.5,-224 1473.5,-230 1473.5,-230 1473.5,-243 1473.5,-243 1473.5,-249 1467.5,-255 1461.5,-255"/>
<text text-anchor="middle" x="1435" y="-230.2" font-family="Times,serif" font-size="26.00" fill="#000000">210 E</text>
</g>
<!-- v_1_111&#45;&gt;v_1_109 -->
<g id="edge77" class="edge">
<title>v_1_111&#45;&gt;v_1_109</title>
<path fill="none" stroke="#000000" d="M1473.7994,-245.9824C1545.1028,-263.4085 1698.5283,-300.9049 1795.3585,-324.5697"/>
<polygon fill="#000000" stroke="#000000" points="1794.584,-327.9833 1805.129,-326.9575 1796.2459,-321.1835 1794.584,-327.9833"/>
</g>
<!-- v_1_112 -->
<g id="node53" class="node">
<title>v_1_112</title>
<path fill="#85cbd0" stroke="#000000" d="M1915.5,-255C1915.5,-255 1846.5,-255 1846.5,-255 1840.5,-255 1834.5,-249 1834.5,-243 1834.5,-243 1834.5,-230 1834.5,-230 1834.5,-224 1840.5,-218 1846.5,-218 1846.5,-218 1915.5,-218 1915.5,-218 1921.5,-218 1927.5,-224 1927.5,-230 1927.5,-230 1927.5,-243 1927.5,-243 1927.5,-249 1921.5,-255 1915.5,-255"/>
<text text-anchor="middle" x="1881" y="-230.2" font-family="Times,serif" font-size="26.00" fill="#000000">210 D0</text>
</g>
<!-- v_1_112&#45;&gt;v_1_109 -->
<g id="edge61" class="edge">
<title>v_1_112&#45;&gt;v_1_109</title>
<path fill="none" stroke="#000000" d="M1881,-255.4864C1881,-272.3666 1881,-297.2976 1881,-316.6442"/>
<polygon fill="#000000" stroke="#000000" points="1877.5001,-316.7312 1881,-326.7312 1884.5001,-316.7313 1877.5001,-316.7312"/>
</g>
<!-- v_1_117&#45;&gt;v_1_40 -->
<g id="edge52" class="edge">
<title>v_1_117&#45;&gt;v_1_40</title>
<path fill="none" stroke="#000000" stroke-dasharray="5,2" d="M1805.3782,-146.056C1737.6536,-174.0903 1602.5496,-226.94 1483,-255 1234.8386,-313.247 1139.6066,-208.3473 914,-327 894.4979,-337.2567 896.2387,-348.0842 881,-364 859.5964,-386.3546 834.3836,-410.7778 815.6131,-428.6123"/>
<polygon fill="#000000" stroke="#000000" points="812.8483,-426.4102 807.993,-435.8271 817.661,-431.4933 812.8483,-426.4102"/>
</g>
<!-- v_1_117&#45;&gt;v_1_110 -->
<g id="edge34" class="edge">
<title>v_1_117&#45;&gt;v_1_110</title>
<path fill="none" stroke="#000000" stroke-dasharray="5,2" d="M1835.2393,-146.4864C1822.6085,-163.9136 1803.7584,-189.922 1789.5637,-209.5071"/>
<polygon fill="#000000" stroke="#000000" points="1786.6376,-207.5802 1783.6031,-217.7312 1792.3055,-211.6882 1786.6376,-207.5802"/>
</g>
<!-- v_1_117&#45;&gt;v_1_112 -->
<g id="edge50" class="edge">
<title>v_1_117&#45;&gt;v_1_112</title>
<path fill="none" stroke="#000000" stroke-dasharray="5,2" d="M1854.574,-146.4864C1859.5526,-163.4448 1866.9167,-188.5287 1872.6074,-207.9126"/>
<polygon fill="#000000" stroke="#000000" points="1869.3147,-209.1221 1875.4899,-217.7312 1876.0312,-207.1502 1869.3147,-209.1221"/>
</g>
<!-- v_1_122&#45;&gt;v_1_40 -->
<g id="edge27" class="edge">
<title>v_1_122&#45;&gt;v_1_40</title>
<path fill="none" stroke="#000000" stroke-dasharray="5,2" d="M1015.0746,-146.1659C988.7822,-181.4319 930.0645,-260.3014 881,-327 855.4742,-361.7 826.2229,-401.8699 807.4507,-427.702"/>
<polygon fill="#000000" stroke="#000000" points="804.5524,-425.7365 801.5067,-435.8841 810.2158,-429.8507 804.5524,-425.7365"/>
</g>
<!-- v_1_122&#45;&gt;v_1_64 -->
<g id="edge40" class="edge">
<title>v_1_122&#45;&gt;v_1_64</title>
<path fill="none" stroke="#000000" stroke-dasharray="5,2" d="M1030.5677,-146.4864C1031.9615,-163.3666 1034.02,-188.2976 1035.6174,-207.6442"/>
<polygon fill="#000000" stroke="#000000" points="1032.1392,-208.0532 1036.4503,-217.7312 1039.1154,-207.4771 1032.1392,-208.0532"/>
</g>
<!-- v_1_122&#45;&gt;v_1_65 -->
<g id="edge66" class="edge">
<title>v_1_122&#45;&gt;v_1_65</title>
<path fill="none" stroke="#000000" stroke-dasharray="5,2" d="M1048.7692,-146.2378C1067.5292,-164.019 1095.8829,-190.8933 1116.7757,-210.6961"/>
<polygon fill="#000000" stroke="#000000" points="1114.4383,-213.303 1124.1039,-217.642 1119.2537,-208.2225 1114.4383,-213.303"/>
</g>
<!-- v_1_122&#45;&gt;v_1_110 -->
<g id="edge36" class="edge">
<title>v_1_122&#45;&gt;v_1_110</title>
<path fill="none" stroke="#000000" stroke-dasharray="5,2" d="M1155.1203,-146.0521C1318.3034,-170.0561 1595.6543,-210.854 1713.9025,-228.2481"/>
<polygon fill="#000000" stroke="#000000" points="1713.4266,-231.7157 1723.8296,-229.7084 1714.4454,-224.7903 1713.4266,-231.7157"/>
</g>
<!-- v_1_122&#45;&gt;v_1_111 -->
<g id="edge87" class="edge">
<title>v_1_122&#45;&gt;v_1_111</title>
<path fill="none" stroke="#000000" stroke-dasharray="5,2" d="M1098.3326,-146.1139C1180.4212,-168.1525 1315.0048,-204.2845 1386.6214,-223.5117"/>
<polygon fill="#000000" stroke="#000000" points="1385.7314,-226.8966 1396.2969,-226.1093 1387.5464,-220.136 1385.7314,-226.8966"/>
</g>
</g>
</svg>
