<?xml version="1.0" encoding="UTF-8" standalone="no"?>
<!DOCTYPE svg PUBLIC "-//W3C//DTD SVG 1.1//EN"
 "http://www.w3.org/Graphics/SVG/1.1/DTD/svg11.dtd">
<!-- Generated by graphviz version 2.40.1 (20161225.0304)
 -->
<!-- Title: Workflow Pages: 1 -->
<svg width="1433pt" height="925pt"
 viewBox="0.00 0.00 1433.00 925.00" xmlns="http://www.w3.org/2000/svg" xmlns:xlink="http://www.w3.org/1999/xlink">
<g id="graph0" class="graph" transform="scale(1 1) rotate(0) translate(4 921)">
<title>Workflow</title>
<polygon fill="#ffffff" stroke="transparent" points="-4,4 -4,-921 1429,-921 1429,4 -4,4"/>
<text text-anchor="middle" x="712.5" y="-898.6" font-family="Helvetica,sans-Serif" font-size="18.00" fill="#000000">yw_monolithic_pypofacets</text>
<g id="clust1" class="cluster">
<title>cluster_workflow_box_outer</title>
<polygon fill="none" stroke="#000000" stroke-width="2" points="8,-34 8,-855 1417,-855 1417,-34 8,-34"/>
</g>
<g id="clust2" class="cluster">
<title>cluster_workflow_box_inner</title>
<polygon fill="none" stroke="#000000" stroke-width="0" points="16,-42 16,-847 1409,-847 1409,-42 16,-42"/>
</g>
<!-- ReadArgs -->
<g id="node1" class="node">
<title>ReadArgs</title>
<polygon fill="#ccffcc" stroke="#000000" points="702.5,-767 625.5,-767 625.5,-731 702.5,-731 702.5,-767"/>
<text text-anchor="middle" x="664" y="-745.3" font-family="Helvetica,sans-Serif" font-size="14.00" fill="#000000">ReadArgs</text>
</g>
<!-- InputDataFileName -->
<g id="node19" class="node">
<title>InputDataFileName</title>
<path fill="#ffffcc" stroke="#000000" d="M592,-689.5C592,-689.5 482,-689.5 482,-689.5 476,-689.5 470,-683.5 470,-677.5 470,-677.5 470,-665.5 470,-665.5 470,-659.5 476,-653.5 482,-653.5 482,-653.5 592,-653.5 592,-653.5 598,-653.5 604,-659.5 604,-665.5 604,-665.5 604,-677.5 604,-677.5 604,-683.5 598,-689.5 592,-689.5"/>
<text text-anchor="middle" x="537" y="-667.8" font-family="Helvetica,sans-Serif" font-size="14.00" fill="#000000">InputDataFileName</text>
</g>
<!-- ReadArgs&#45;&gt;InputDataFileName -->
<g id="edge4" class="edge">
<title>ReadArgs&#45;&gt;InputDataFileName</title>
<path fill="none" stroke="#000000" d="M634.2241,-730.8297C616.6291,-720.0925 594.1675,-706.3857 575.2675,-694.8522"/>
<polygon fill="#000000" stroke="#000000" points="576.9486,-691.7779 566.5893,-689.5565 573.3023,-697.7532 576.9486,-691.7779"/>
</g>
<!-- InputModel -->
<g id="node24" class="node">
<title>InputModel</title>
<path fill="#ffffcc" stroke="#000000" d="M935,-689.5C935,-689.5 875,-689.5 875,-689.5 869,-689.5 863,-683.5 863,-677.5 863,-677.5 863,-665.5 863,-665.5 863,-659.5 869,-653.5 875,-653.5 875,-653.5 935,-653.5 935,-653.5 941,-653.5 947,-659.5 947,-665.5 947,-665.5 947,-677.5 947,-677.5 947,-683.5 941,-689.5 935,-689.5"/>
<text text-anchor="middle" x="905" y="-667.8" font-family="Helvetica,sans-Serif" font-size="14.00" fill="#000000">InputModel</text>
</g>
<!-- ReadArgs&#45;&gt;InputModel -->
<g id="edge3" class="edge">
<title>ReadArgs&#45;&gt;InputModel</title>
<path fill="none" stroke="#000000" d="M702.6705,-739.0835C740.3815,-729.0926 799.1738,-712.6626 849,-695 850.6056,-694.4309 852.2315,-693.84 853.8689,-693.2323"/>
<polygon fill="#000000" stroke="#000000" points="855.2304,-696.4587 863.309,-689.6039 852.719,-689.9247 855.2304,-696.4587"/>
</g>
<!-- OutputDir -->
<g id="node36" class="node">
<title>OutputDir</title>
<path fill="#ffffcc" stroke="#000000" d="M996.5,-540C996.5,-540 945.5,-540 945.5,-540 939.5,-540 933.5,-534 933.5,-528 933.5,-528 933.5,-516 933.5,-516 933.5,-510 939.5,-504 945.5,-504 945.5,-504 996.5,-504 996.5,-504 1002.5,-504 1008.5,-510 1008.5,-516 1008.5,-516 1008.5,-528 1008.5,-528 1008.5,-534 1002.5,-540 996.5,-540"/>
<text text-anchor="middle" x="971" y="-518.3" font-family="Helvetica,sans-Serif" font-size="14.00" fill="#000000">OutputDir</text>
</g>
<!-- ReadArgs&#45;&gt;OutputDir -->
<g id="edge5" class="edge">
<title>ReadArgs&#45;&gt;OutputDir</title>
<path fill="none" stroke="#000000" d="M702.7405,-740.806C746.9438,-730.7779 815.6272,-712.9125 835,-695 851.5432,-679.7038 841.9122,-667.0142 854,-648 878.8184,-608.9605 916.4633,-571.0138 942.3112,-547.1427"/>
<polygon fill="#000000" stroke="#000000" points="944.8944,-549.524 949.927,-540.2007 940.1787,-544.3507 944.8944,-549.524"/>
</g>
<!-- Time -->
<g id="node43" class="node">
<title>Time</title>
<path fill="#ffffcc" stroke="#000000" d="M92,-612C92,-612 62,-612 62,-612 56,-612 50,-606 50,-600 50,-600 50,-588 50,-588 50,-582 56,-576 62,-576 62,-576 92,-576 92,-576 98,-576 104,-582 104,-588 104,-588 104,-600 104,-600 104,-606 98,-612 92,-612"/>
<text text-anchor="middle" x="77" y="-590.3" font-family="Helvetica,sans-Serif" font-size="14.00" fill="#000000">Time</text>
</g>
<!-- ReadArgs&#45;&gt;Time -->
<g id="edge1" class="edge">
<title>ReadArgs&#45;&gt;Time</title>
<path fill="none" stroke="#000000" d="M625.3589,-745.6188C562.2336,-739.469 433.4559,-724.2946 328,-695 249.081,-673.0771 161.2176,-634.159 113.2108,-611.5699"/>
<polygon fill="#000000" stroke="#000000" points="114.6909,-608.3983 104.1553,-607.2797 111.6938,-614.7243 114.6909,-608.3983"/>
</g>
<!-- ProgramName -->
<g id="node44" class="node">
<title>ProgramName</title>
<path fill="#ffffcc" stroke="#000000" d="M242,-612C242,-612 160,-612 160,-612 154,-612 148,-606 148,-600 148,-600 148,-588 148,-588 148,-582 154,-576 160,-576 160,-576 242,-576 242,-576 248,-576 254,-582 254,-588 254,-588 254,-600 254,-600 254,-606 248,-612 242,-612"/>
<text text-anchor="middle" x="201" y="-590.3" font-family="Helvetica,sans-Serif" font-size="14.00" fill="#000000">ProgramName</text>
</g>
<!-- ReadArgs&#45;&gt;ProgramName -->
<g id="edge2" class="edge">
<title>ReadArgs&#45;&gt;ProgramName</title>
<path fill="none" stroke="#000000" d="M625.4685,-740.0955C584.3596,-730.2835 517.5144,-713.4311 461,-695 387.537,-671.0415 304.6398,-637.7098 252.6111,-615.9981"/>
<polygon fill="#000000" stroke="#000000" points="253.8406,-612.7185 243.2647,-612.0842 251.1367,-619.1752 253.8406,-612.7185"/>
</g>
<!-- ReadDataFileInput -->
<g id="node2" class="node">
<title>ReadDataFileInput</title>
<polygon fill="#ccffcc" stroke="#000000" points="622.5,-612 493.5,-612 493.5,-576 622.5,-576 622.5,-612"/>
<text text-anchor="middle" x="558" y="-590.3" font-family="Helvetica,sans-Serif" font-size="14.00" fill="#000000">ReadDataFileInput</text>
</g>
<!-- Freq -->
<g id="node21" class="node">
<title>Freq</title>
<path fill="#ffffcc" stroke="#000000" d="M86,-540C86,-540 56,-540 56,-540 50,-540 44,-534 44,-528 44,-528 44,-516 44,-516 44,-510 50,-504 56,-504 56,-504 86,-504 86,-504 92,-504 98,-510 98,-516 98,-516 98,-528 98,-528 98,-534 92,-540 86,-540"/>
<text text-anchor="middle" x="71" y="-518.3" font-family="Helvetica,sans-Serif" font-size="14.00" fill="#000000">Freq</text>
</g>
<!-- ReadDataFileInput&#45;&gt;Freq -->
<g id="edge7" class="edge">
<title>ReadDataFileInput&#45;&gt;Freq</title>
<path fill="none" stroke="#000000" d="M493.3591,-588.9065C386.7155,-580.0575 178.6747,-560.7907 108,-540 107.8972,-539.9698 107.7943,-539.9393 107.6914,-539.9085"/>
<polygon fill="#000000" stroke="#000000" points="108.665,-536.5386 98.0708,-536.4224 106.2802,-543.1199 108.665,-536.5386"/>
</g>
<!-- InputPolarization -->
<g id="node22" class="node">
<title>InputPolarization</title>
<path fill="#ffffcc" stroke="#000000" d="M221.5,-540C221.5,-540 128.5,-540 128.5,-540 122.5,-540 116.5,-534 116.5,-528 116.5,-528 116.5,-516 116.5,-516 116.5,-510 122.5,-504 128.5,-504 128.5,-504 221.5,-504 221.5,-504 227.5,-504 233.5,-510 233.5,-516 233.5,-516 233.5,-528 233.5,-528 233.5,-534 227.5,-540 221.5,-540"/>
<text text-anchor="middle" x="175" y="-518.3" font-family="Helvetica,sans-Serif" font-size="14.00" fill="#000000">InputPolarization</text>
</g>
<!-- ReadDataFileInput&#45;&gt;InputPolarization -->
<g id="edge10" class="edge">
<title>ReadDataFileInput&#45;&gt;InputPolarization</title>
<path fill="none" stroke="#000000" d="M493.4624,-581.8676C424.1731,-568.8419 314.5234,-548.2289 243.6758,-534.9103"/>
<polygon fill="#000000" stroke="#000000" points="243.9883,-531.4079 233.5138,-533 242.695,-538.2873 243.9883,-531.4079"/>
</g>
<!-- PStart -->
<g id="node37" class="node">
<title>PStart</title>
<path fill="#ffffcc" stroke="#000000" d="M903,-540C903,-540 873,-540 873,-540 867,-540 861,-534 861,-528 861,-528 861,-516 861,-516 861,-510 867,-504 873,-504 873,-504 903,-504 903,-504 909,-504 915,-510 915,-516 915,-516 915,-528 915,-528 915,-534 909,-540 903,-540"/>
<text text-anchor="middle" x="888" y="-518.3" font-family="Helvetica,sans-Serif" font-size="14.00" fill="#000000">PStart</text>
</g>
<!-- ReadDataFileInput&#45;&gt;PStart -->
<g id="edge11" class="edge">
<title>ReadDataFileInput&#45;&gt;PStart</title>
<path fill="none" stroke="#000000" d="M622.679,-587.4333C680.8951,-580.3341 768.5439,-566.69 851.2818,-539.7556"/>
<polygon fill="#000000" stroke="#000000" points="852.4397,-543.0591 860.824,-536.5819 850.2305,-536.4168 852.4397,-543.0591"/>
</g>
<!-- PStop -->
<g id="node38" class="node">
<title>PStop</title>
<path fill="#ffffcc" stroke="#000000" d="M593,-540C593,-540 563,-540 563,-540 557,-540 551,-534 551,-528 551,-528 551,-516 551,-516 551,-510 557,-504 563,-504 563,-504 593,-504 593,-504 599,-504 605,-510 605,-516 605,-516 605,-528 605,-528 605,-534 599,-540 593,-540"/>
<text text-anchor="middle" x="578" y="-518.3" font-family="Helvetica,sans-Serif" font-size="14.00" fill="#000000">PStop</text>
</g>
<!-- ReadDataFileInput&#45;&gt;PStop -->
<g id="edge12" class="edge">
<title>ReadDataFileInput&#45;&gt;PStop</title>
<path fill="none" stroke="#000000" d="M563.0468,-575.8314C565.2094,-568.0463 567.7853,-558.7729 570.1848,-550.1347"/>
<polygon fill="#000000" stroke="#000000" points="573.581,-550.9852 572.8852,-540.4133 566.8364,-549.1117 573.581,-550.9852"/>
</g>
<!-- InputDelP -->
<g id="node39" class="node">
<title>InputDelP</title>
<path fill="#ffffcc" stroke="#000000" d="M687,-540C687,-540 635,-540 635,-540 629,-540 623,-534 623,-528 623,-528 623,-516 623,-516 623,-510 629,-504 635,-504 635,-504 687,-504 687,-504 693,-504 699,-510 699,-516 699,-516 699,-528 699,-528 699,-534 693,-540 687,-540"/>
<text text-anchor="middle" x="661" y="-518.3" font-family="Helvetica,sans-Serif" font-size="14.00" fill="#000000">InputDelP</text>
</g>
<!-- ReadDataFileInput&#45;&gt;InputDelP -->
<g id="edge13" class="edge">
<title>ReadDataFileInput&#45;&gt;InputDelP</title>
<path fill="none" stroke="#000000" d="M583.9912,-575.8314C596.9216,-566.7927 612.7222,-555.7476 626.6383,-546.0198"/>
<polygon fill="#000000" stroke="#000000" points="628.8263,-548.7608 635.0171,-540.1628 624.8157,-543.0235 628.8263,-548.7608"/>
</g>
<!-- TStart -->
<g id="node40" class="node">
<title>TStart</title>
<path fill="#ffffcc" stroke="#000000" d="M831,-540C831,-540 801,-540 801,-540 795,-540 789,-534 789,-528 789,-528 789,-516 789,-516 789,-510 795,-504 801,-504 801,-504 831,-504 831,-504 837,-504 843,-510 843,-516 843,-516 843,-528 843,-528 843,-534 837,-540 831,-540"/>
<text text-anchor="middle" x="816" y="-518.3" font-family="Helvetica,sans-Serif" font-size="14.00" fill="#000000">TStart</text>
</g>
<!-- ReadDataFileInput&#45;&gt;TStart -->
<g id="edge14" class="edge">
<title>ReadDataFileInput&#45;&gt;TStart</title>
<path fill="none" stroke="#000000" d="M622.7709,-582.257C665.3003,-573.6317 722.0524,-560.3851 779.2161,-539.9007"/>
<polygon fill="#000000" stroke="#000000" points="780.573,-543.1313 788.7645,-536.4118 778.1706,-536.5564 780.573,-543.1313"/>
</g>
<!-- TStop -->
<g id="node41" class="node">
<title>TStop</title>
<path fill="#ffffcc" stroke="#000000" d="M759,-540C759,-540 729,-540 729,-540 723,-540 717,-534 717,-528 717,-528 717,-516 717,-516 717,-510 723,-504 729,-504 729,-504 759,-504 759,-504 765,-504 771,-510 771,-516 771,-516 771,-528 771,-528 771,-534 765,-540 759,-540"/>
<text text-anchor="middle" x="744" y="-518.3" font-family="Helvetica,sans-Serif" font-size="14.00" fill="#000000">TStop</text>
</g>
<!-- ReadDataFileInput&#45;&gt;TStop -->
<g id="edge15" class="edge">
<title>ReadDataFileInput&#45;&gt;TStop</title>
<path fill="none" stroke="#000000" d="M613.1085,-575.9075C639.4928,-566.8422 671.6031,-555.2252 707.4475,-540.0366"/>
<polygon fill="#000000" stroke="#000000" points="708.8267,-543.2534 716.6397,-536.0975 706.0695,-536.8193 708.8267,-543.2534"/>
</g>
<!-- InputDelT -->
<g id="node42" class="node">
<title>InputDelT</title>
<path fill="#ffffcc" stroke="#000000" d="M520.5,-540C520.5,-540 469.5,-540 469.5,-540 463.5,-540 457.5,-534 457.5,-528 457.5,-528 457.5,-516 457.5,-516 457.5,-510 463.5,-504 469.5,-504 469.5,-504 520.5,-504 520.5,-504 526.5,-504 532.5,-510 532.5,-516 532.5,-516 532.5,-528 532.5,-528 532.5,-534 526.5,-540 520.5,-540"/>
<text text-anchor="middle" x="495" y="-518.3" font-family="Helvetica,sans-Serif" font-size="14.00" fill="#000000">InputDelT</text>
</g>
<!-- ReadDataFileInput&#45;&gt;InputDelT -->
<g id="edge16" class="edge">
<title>ReadDataFileInput&#45;&gt;InputDelT</title>
<path fill="none" stroke="#000000" d="M542.1024,-575.8314C534.7722,-567.454 525.934,-557.3531 517.9031,-548.1749"/>
<polygon fill="#000000" stroke="#000000" points="520.3307,-545.6343 511.1116,-540.4133 515.0627,-550.2438 520.3307,-545.6343"/>
</g>
<!-- Corr -->
<g id="node45" class="node">
<title>Corr</title>
<path fill="#ffffcc" stroke="#000000" d="M354,-540C354,-540 324,-540 324,-540 318,-540 312,-534 312,-528 312,-528 312,-516 312,-516 312,-510 318,-504 324,-504 324,-504 354,-504 354,-504 360,-504 366,-510 366,-516 366,-516 366,-528 366,-528 366,-534 360,-540 354,-540"/>
<text text-anchor="middle" x="339" y="-518.3" font-family="Helvetica,sans-Serif" font-size="14.00" fill="#000000">Corr</text>
</g>
<!-- ReadDataFileInput&#45;&gt;Corr -->
<g id="edge8" class="edge">
<title>ReadDataFileInput&#45;&gt;Corr</title>
<path fill="none" stroke="#000000" d="M493.1199,-577.5408C457.9853,-567.9338 414.0941,-554.8018 376,-540 375.9001,-539.9612 375.8001,-539.9222 375.7001,-539.8831"/>
<polygon fill="#000000" stroke="#000000" points="376.8287,-536.5601 366.2558,-535.8794 374.0966,-543.0049 376.8287,-536.5601"/>
</g>
<!-- Delstd -->
<g id="node46" class="node">
<title>Delstd</title>
<path fill="#ffffcc" stroke="#000000" d="M427.5,-540C427.5,-540 396.5,-540 396.5,-540 390.5,-540 384.5,-534 384.5,-528 384.5,-528 384.5,-516 384.5,-516 384.5,-510 390.5,-504 396.5,-504 396.5,-504 427.5,-504 427.5,-504 433.5,-504 439.5,-510 439.5,-516 439.5,-516 439.5,-528 439.5,-528 439.5,-534 433.5,-540 427.5,-540"/>
<text text-anchor="middle" x="412" y="-518.3" font-family="Helvetica,sans-Serif" font-size="14.00" fill="#000000">Delstd</text>
</g>
<!-- ReadDataFileInput&#45;&gt;Delstd -->
<g id="edge9" class="edge">
<title>ReadDataFileInput&#45;&gt;Delstd</title>
<path fill="none" stroke="#000000" d="M521.158,-575.8314C498.9833,-564.8959 470.8534,-551.0236 448.7035,-540.1004"/>
<polygon fill="#000000" stroke="#000000" points="450.1284,-536.9006 439.6117,-535.6167 447.0323,-543.1787 450.1284,-536.9006"/>
</g>
<!-- CalculateWaveLength -->
<g id="node3" class="node">
<title>CalculateWaveLength</title>
<polygon fill="#ccffcc" stroke="#000000" points="183.5,-468 34.5,-468 34.5,-432 183.5,-432 183.5,-468"/>
<text text-anchor="middle" x="109" y="-446.3" font-family="Helvetica,sans-Serif" font-size="14.00" fill="#000000">CalculateWaveLength</text>
</g>
<!-- WaveLength -->
<g id="node23" class="node">
<title>WaveLength</title>
<path fill="#ffffcc" stroke="#000000" d="M159.5,-396C159.5,-396 90.5,-396 90.5,-396 84.5,-396 78.5,-390 78.5,-384 78.5,-384 78.5,-372 78.5,-372 78.5,-366 84.5,-360 90.5,-360 90.5,-360 159.5,-360 159.5,-360 165.5,-360 171.5,-366 171.5,-372 171.5,-372 171.5,-384 171.5,-384 171.5,-390 165.5,-396 159.5,-396"/>
<text text-anchor="middle" x="125" y="-374.3" font-family="Helvetica,sans-Serif" font-size="14.00" fill="#000000">WaveLength</text>
</g>
<!-- CalculateWaveLength&#45;&gt;WaveLength -->
<g id="edge19" class="edge">
<title>CalculateWaveLength&#45;&gt;WaveLength</title>
<path fill="none" stroke="#000000" d="M113.0375,-431.8314C114.7487,-424.131 116.7835,-414.9743 118.6852,-406.4166"/>
<polygon fill="#000000" stroke="#000000" points="122.1554,-406.9344 120.9082,-396.4133 115.3221,-405.4159 122.1554,-406.9344"/>
</g>
<!-- CalculateIncidentWavePolarization -->
<g id="node4" class="node">
<title>CalculateIncidentWavePolarization</title>
<polygon fill="#ccffcc" stroke="#000000" points="323,-324 97,-324 97,-288 323,-288 323,-324"/>
<text text-anchor="middle" x="210" y="-302.3" font-family="Helvetica,sans-Serif" font-size="14.00" fill="#000000">CalculateIncidentWavePolarization</text>
</g>
<!-- Et -->
<g id="node53" class="node">
<title>Et</title>
<path fill="#ffffcc" stroke="#000000" d="M456,-246.5C456,-246.5 426,-246.5 426,-246.5 420,-246.5 414,-240.5 414,-234.5 414,-234.5 414,-222.5 414,-222.5 414,-216.5 420,-210.5 426,-210.5 426,-210.5 456,-210.5 456,-210.5 462,-210.5 468,-216.5 468,-222.5 468,-222.5 468,-234.5 468,-234.5 468,-240.5 462,-246.5 456,-246.5"/>
<text text-anchor="middle" x="441" y="-224.8" font-family="Helvetica,sans-Serif" font-size="14.00" fill="#000000">Et</text>
</g>
<!-- CalculateIncidentWavePolarization&#45;&gt;Et -->
<g id="edge21" class="edge">
<title>CalculateIncidentWavePolarization&#45;&gt;Et</title>
<path fill="none" stroke="#000000" d="M263.8677,-287.9275C307.0684,-273.4338 366.5377,-253.4819 404.3785,-240.7864"/>
<polygon fill="#000000" stroke="#000000" points="405.6105,-244.0649 413.9779,-237.5659 403.384,-237.4284 405.6105,-244.0649"/>
</g>
<!-- Ep -->
<g id="node54" class="node">
<title>Ep</title>
<path fill="#ffffcc" stroke="#000000" d="M269,-246.5C269,-246.5 239,-246.5 239,-246.5 233,-246.5 227,-240.5 227,-234.5 227,-234.5 227,-222.5 227,-222.5 227,-216.5 233,-210.5 239,-210.5 239,-210.5 269,-210.5 269,-210.5 275,-210.5 281,-216.5 281,-222.5 281,-222.5 281,-234.5 281,-234.5 281,-240.5 275,-246.5 269,-246.5"/>
<text text-anchor="middle" x="254" y="-224.8" font-family="Helvetica,sans-Serif" font-size="14.00" fill="#000000">Ep</text>
</g>
<!-- CalculateIncidentWavePolarization&#45;&gt;Ep -->
<g id="edge22" class="edge">
<title>CalculateIncidentWavePolarization&#45;&gt;Ep</title>
<path fill="none" stroke="#000000" d="M220.4274,-287.6336C225.8522,-278.0784 232.5895,-266.2117 238.6018,-255.6219"/>
<polygon fill="#000000" stroke="#000000" points="241.7539,-257.1588 243.6475,-246.7346 235.6665,-253.7028 241.7539,-257.1588"/>
</g>
<!-- ReadModelCoordinates -->
<g id="node5" class="node">
<title>ReadModelCoordinates</title>
<polygon fill="#ccffcc" stroke="#000000" points="1158.5,-612 999.5,-612 999.5,-576 1158.5,-576 1158.5,-612"/>
<text text-anchor="middle" x="1079" y="-590.3" font-family="Helvetica,sans-Serif" font-size="14.00" fill="#000000">ReadModelCoordinates</text>
</g>
<!-- XPoints -->
<g id="node28" class="node">
<title>XPoints</title>
<path fill="#ffffcc" stroke="#000000" d="M1151.5,-540C1151.5,-540 1112.5,-540 1112.5,-540 1106.5,-540 1100.5,-534 1100.5,-528 1100.5,-528 1100.5,-516 1100.5,-516 1100.5,-510 1106.5,-504 1112.5,-504 1112.5,-504 1151.5,-504 1151.5,-504 1157.5,-504 1163.5,-510 1163.5,-516 1163.5,-516 1163.5,-528 1163.5,-528 1163.5,-534 1157.5,-540 1151.5,-540"/>
<text text-anchor="middle" x="1132" y="-518.3" font-family="Helvetica,sans-Serif" font-size="14.00" fill="#000000">XPoints</text>
</g>
<!-- ReadModelCoordinates&#45;&gt;XPoints -->
<g id="edge25" class="edge">
<title>ReadModelCoordinates&#45;&gt;XPoints</title>
<path fill="none" stroke="#000000" d="M1092.3741,-575.8314C1098.4162,-567.6232 1105.6763,-557.7606 1112.3221,-548.7323"/>
<polygon fill="#000000" stroke="#000000" points="1115.3363,-550.5415 1118.4458,-540.4133 1109.6989,-546.3918 1115.3363,-550.5415"/>
</g>
<!-- YPoints -->
<g id="node29" class="node">
<title>YPoints</title>
<path fill="#ffffcc" stroke="#000000" d="M1232.5,-540C1232.5,-540 1193.5,-540 1193.5,-540 1187.5,-540 1181.5,-534 1181.5,-528 1181.5,-528 1181.5,-516 1181.5,-516 1181.5,-510 1187.5,-504 1193.5,-504 1193.5,-504 1232.5,-504 1232.5,-504 1238.5,-504 1244.5,-510 1244.5,-516 1244.5,-516 1244.5,-528 1244.5,-528 1244.5,-534 1238.5,-540 1232.5,-540"/>
<text text-anchor="middle" x="1213" y="-518.3" font-family="Helvetica,sans-Serif" font-size="14.00" fill="#000000">YPoints</text>
</g>
<!-- ReadModelCoordinates&#45;&gt;YPoints -->
<g id="edge26" class="edge">
<title>ReadModelCoordinates&#45;&gt;YPoints</title>
<path fill="none" stroke="#000000" d="M1112.8139,-575.8314C1130.937,-566.0936 1153.3941,-554.0271 1172.4504,-543.7878"/>
<polygon fill="#000000" stroke="#000000" points="1174.346,-546.7426 1181.4983,-538.9263 1171.0327,-540.5764 1174.346,-546.7426"/>
</g>
<!-- ZPoints -->
<g id="node30" class="node">
<title>ZPoints</title>
<path fill="#ffffcc" stroke="#000000" d="M1313,-540C1313,-540 1275,-540 1275,-540 1269,-540 1263,-534 1263,-528 1263,-528 1263,-516 1263,-516 1263,-510 1269,-504 1275,-504 1275,-504 1313,-504 1313,-504 1319,-504 1325,-510 1325,-516 1325,-516 1325,-528 1325,-528 1325,-534 1319,-540 1313,-540"/>
<text text-anchor="middle" x="1294" y="-518.3" font-family="Helvetica,sans-Serif" font-size="14.00" fill="#000000">ZPoints</text>
</g>
<!-- ReadModelCoordinates&#45;&gt;ZPoints -->
<g id="edge27" class="edge">
<title>ReadModelCoordinates&#45;&gt;ZPoints</title>
<path fill="none" stroke="#000000" d="M1144.4708,-575.8847C1175.227,-566.8879 1212.4651,-555.3003 1253.1435,-540.1311"/>
<polygon fill="#000000" stroke="#000000" points="1254.5905,-543.3261 1262.7106,-536.5206 1252.1189,-536.7769 1254.5905,-543.3261"/>
</g>
<!-- Nverts -->
<g id="node31" class="node">
<title>Nverts</title>
<path fill="#ffffcc" stroke="#000000" d="M1070,-540C1070,-540 1038,-540 1038,-540 1032,-540 1026,-534 1026,-528 1026,-528 1026,-516 1026,-516 1026,-510 1032,-504 1038,-504 1038,-504 1070,-504 1070,-504 1076,-504 1082,-510 1082,-516 1082,-516 1082,-528 1082,-528 1082,-534 1076,-540 1070,-540"/>
<text text-anchor="middle" x="1054" y="-518.3" font-family="Helvetica,sans-Serif" font-size="14.00" fill="#000000">Nverts</text>
</g>
<!-- ReadModelCoordinates&#45;&gt;Nverts -->
<g id="edge28" class="edge">
<title>ReadModelCoordinates&#45;&gt;Nverts</title>
<path fill="none" stroke="#000000" d="M1072.6914,-575.8314C1069.9883,-568.0463 1066.7684,-558.7729 1063.769,-550.1347"/>
<polygon fill="#000000" stroke="#000000" points="1066.98,-548.7119 1060.3935,-540.4133 1060.3673,-551.0081 1066.98,-548.7119"/>
</g>
<!-- ReadFacetsModel -->
<g id="node6" class="node">
<title>ReadFacetsModel</title>
<polygon fill="#ccffcc" stroke="#000000" points="1353.5,-612 1226.5,-612 1226.5,-576 1353.5,-576 1353.5,-612"/>
<text text-anchor="middle" x="1290" y="-590.3" font-family="Helvetica,sans-Serif" font-size="14.00" fill="#000000">ReadFacetsModel</text>
</g>
<!-- Facets -->
<g id="node27" class="node">
<title>Facets</title>
<path fill="#ffffcc" stroke="#000000" d="M1388.5,-540C1388.5,-540 1355.5,-540 1355.5,-540 1349.5,-540 1343.5,-534 1343.5,-528 1343.5,-528 1343.5,-516 1343.5,-516 1343.5,-510 1349.5,-504 1355.5,-504 1355.5,-504 1388.5,-504 1388.5,-504 1394.5,-504 1400.5,-510 1400.5,-516 1400.5,-516 1400.5,-528 1400.5,-528 1400.5,-534 1394.5,-540 1388.5,-540"/>
<text text-anchor="middle" x="1372" y="-518.3" font-family="Helvetica,sans-Serif" font-size="14.00" fill="#000000">Facets</text>
</g>
<!-- ReadFacetsModel&#45;&gt;Facets -->
<g id="edge31" class="edge">
<title>ReadFacetsModel&#45;&gt;Facets</title>
<path fill="none" stroke="#000000" d="M1310.6921,-575.8314C1320.6948,-567.0485 1332.855,-556.3712 1343.6999,-546.8489"/>
<polygon fill="#000000" stroke="#000000" points="1346.1094,-549.3909 1351.3146,-540.1628 1341.4908,-544.1308 1346.1094,-549.3909"/>
</g>
<!-- GenerateTransposeMatrix -->
<g id="node7" class="node">
<title>GenerateTransposeMatrix</title>
<polygon fill="#ccffcc" stroke="#000000" points="1400.5,-468 1225.5,-468 1225.5,-432 1400.5,-432 1400.5,-468"/>
<text text-anchor="middle" x="1313" y="-446.3" font-family="Helvetica,sans-Serif" font-size="14.00" fill="#000000">GenerateTransposeMatrix</text>
</g>
<!-- Node1 -->
<g id="node32" class="node">
<title>Node1</title>
<path fill="#ffffcc" stroke="#000000" d="M1278,-396C1278,-396 1246,-396 1246,-396 1240,-396 1234,-390 1234,-384 1234,-384 1234,-372 1234,-372 1234,-366 1240,-360 1246,-360 1246,-360 1278,-360 1278,-360 1284,-360 1290,-366 1290,-372 1290,-372 1290,-384 1290,-384 1290,-390 1284,-396 1278,-396"/>
<text text-anchor="middle" x="1262" y="-374.3" font-family="Helvetica,sans-Serif" font-size="14.00" fill="#000000">Node1</text>
</g>
<!-- GenerateTransposeMatrix&#45;&gt;Node1 -->
<g id="edge34" class="edge">
<title>GenerateTransposeMatrix&#45;&gt;Node1</title>
<path fill="none" stroke="#000000" d="M1300.1305,-431.8314C1294.3165,-423.6232 1287.3304,-413.7606 1280.9354,-404.7323"/>
<polygon fill="#000000" stroke="#000000" points="1283.679,-402.5505 1275.0427,-396.4133 1277.9669,-406.5966 1283.679,-402.5505"/>
</g>
<!-- Node2 -->
<g id="node33" class="node">
<title>Node2</title>
<path fill="#ffffcc" stroke="#000000" d="M1352,-396C1352,-396 1320,-396 1320,-396 1314,-396 1308,-390 1308,-384 1308,-384 1308,-372 1308,-372 1308,-366 1314,-360 1320,-360 1320,-360 1352,-360 1352,-360 1358,-360 1364,-366 1364,-372 1364,-372 1364,-384 1364,-384 1364,-390 1358,-396 1352,-396"/>
<text text-anchor="middle" x="1336" y="-374.3" font-family="Helvetica,sans-Serif" font-size="14.00" fill="#000000">Node2</text>
</g>
<!-- GenerateTransposeMatrix&#45;&gt;Node2 -->
<g id="edge35" class="edge">
<title>GenerateTransposeMatrix&#45;&gt;Node2</title>
<path fill="none" stroke="#000000" d="M1318.8039,-431.8314C1321.2908,-424.0463 1324.2531,-414.7729 1327.0125,-406.1347"/>
<polygon fill="#000000" stroke="#000000" points="1330.409,-407.0041 1330.118,-396.4133 1323.7409,-404.874 1330.409,-407.0041"/>
</g>
<!-- Node3 -->
<g id="node34" class="node">
<title>Node3</title>
<path fill="#ffffcc" stroke="#000000" d="M1204,-396C1204,-396 1172,-396 1172,-396 1166,-396 1160,-390 1160,-384 1160,-384 1160,-372 1160,-372 1160,-366 1166,-360 1172,-360 1172,-360 1204,-360 1204,-360 1210,-360 1216,-366 1216,-372 1216,-372 1216,-384 1216,-384 1216,-390 1210,-396 1204,-396"/>
<text text-anchor="middle" x="1188" y="-374.3" font-family="Helvetica,sans-Serif" font-size="14.00" fill="#000000">Node3</text>
</g>
<!-- GenerateTransposeMatrix&#45;&gt;Node3 -->
<g id="edge36" class="edge">
<title>GenerateTransposeMatrix&#45;&gt;Node3</title>
<path fill="none" stroke="#000000" d="M1281.4572,-431.8314C1264.3355,-421.9692 1243.067,-409.7186 1225.1468,-399.3965"/>
<polygon fill="#000000" stroke="#000000" points="1226.5329,-396.1559 1216.1206,-394.1975 1223.039,-402.2216 1226.5329,-396.1559"/>
</g>
<!-- GenerateCoordinatesPoints -->
<g id="node8" class="node">
<title>GenerateCoordinatesPoints</title>
<polygon fill="#ccffcc" stroke="#000000" points="1207,-468 1023,-468 1023,-432 1207,-432 1207,-468"/>
<text text-anchor="middle" x="1115" y="-446.3" font-family="Helvetica,sans-Serif" font-size="14.00" fill="#000000">GenerateCoordinatesPoints</text>
</g>
<!-- Points -->
<g id="node35" class="node">
<title>Points</title>
<path fill="#ffffcc" stroke="#000000" d="M1130,-396C1130,-396 1100,-396 1100,-396 1094,-396 1088,-390 1088,-384 1088,-384 1088,-372 1088,-372 1088,-366 1094,-360 1100,-360 1100,-360 1130,-360 1130,-360 1136,-360 1142,-366 1142,-372 1142,-372 1142,-384 1142,-384 1142,-390 1136,-396 1130,-396"/>
<text text-anchor="middle" x="1115" y="-374.3" font-family="Helvetica,sans-Serif" font-size="14.00" fill="#000000">Points</text>
</g>
<!-- GenerateCoordinatesPoints&#45;&gt;Points -->
<g id="edge38" class="edge">
<title>GenerateCoordinatesPoints&#45;&gt;Points</title>
<path fill="none" stroke="#000000" d="M1115,-431.8314C1115,-424.131 1115,-414.9743 1115,-406.4166"/>
<polygon fill="#000000" stroke="#000000" points="1118.5001,-406.4132 1115,-396.4133 1111.5001,-406.4133 1118.5001,-406.4132"/>
</g>
<!-- PlotModel -->
<g id="node9" class="node">
<title>PlotModel</title>
<polygon fill="#ccffcc" stroke="#000000" points="1226.5,-324 1149.5,-324 1149.5,-288 1226.5,-288 1226.5,-324"/>
<text text-anchor="middle" x="1188" y="-302.3" font-family="Helvetica,sans-Serif" font-size="14.00" fill="#000000">PlotModel</text>
</g>
<!-- PlotOutput -->
<g id="node17" class="node">
<title>PlotOutput</title>
<path fill="#ffffcc" stroke="#000000" d="M1117,-205.5C1117,-205.5 1259,-205.5 1259,-205.5 1265,-205.5 1271,-211.5 1271,-217.5 1271,-217.5 1271,-239.5 1271,-239.5 1271,-245.5 1265,-251.5 1259,-251.5 1259,-251.5 1117,-251.5 1117,-251.5 1111,-251.5 1105,-245.5 1105,-239.5 1105,-239.5 1105,-217.5 1105,-217.5 1105,-211.5 1111,-205.5 1117,-205.5"/>
<text text-anchor="middle" x="1188" y="-236.3" font-family="Helvetica,sans-Serif" font-size="14.00" fill="#000000">PlotOutput</text>
<polyline fill="none" stroke="#000000" points="1105,-228.5 1271,-228.5 "/>
<text text-anchor="middle" x="1188" y="-213.3" font-family="Helvetica,sans-Serif" font-size="14.00" fill="#000000">file:{{OutputDir}/plot.png}</text>
</g>
<!-- PlotModel&#45;&gt;PlotOutput -->
<g id="edge43" class="edge">
<title>PlotModel&#45;&gt;PlotOutput</title>
<path fill="none" stroke="#000000" d="M1188,-287.6336C1188,-279.9123 1188,-270.6815 1188,-261.8348"/>
<polygon fill="#000000" stroke="#000000" points="1191.5001,-261.7394 1188,-251.7394 1184.5001,-261.7395 1191.5001,-261.7394"/>
</g>
<!-- CalculateRefsGeometryModel -->
<g id="node10" class="node">
<title>CalculateRefsGeometryModel</title>
<polygon fill="#ccffcc" stroke="#000000" points="805.5,-468 606.5,-468 606.5,-432 805.5,-432 805.5,-468"/>
<text text-anchor="middle" x="706" y="-446.3" font-family="Helvetica,sans-Serif" font-size="14.00" fill="#000000">CalculateRefsGeometryModel</text>
</g>
<!-- IP -->
<g id="node47" class="node">
<title>IP</title>
<path fill="#ffffcc" stroke="#000000" d="M930,-396C930,-396 900,-396 900,-396 894,-396 888,-390 888,-384 888,-384 888,-372 888,-372 888,-366 894,-360 900,-360 900,-360 930,-360 930,-360 936,-360 942,-366 942,-372 942,-372 942,-384 942,-384 942,-390 936,-396 930,-396"/>
<text text-anchor="middle" x="915" y="-374.3" font-family="Helvetica,sans-Serif" font-size="14.00" fill="#000000">IP</text>
</g>
<!-- CalculateRefsGeometryModel&#45;&gt;IP -->
<g id="edge50" class="edge">
<title>CalculateRefsGeometryModel&#45;&gt;IP</title>
<path fill="none" stroke="#000000" d="M758.4698,-431.9243C795.7275,-419.0891 844.8321,-402.1727 878.0308,-390.7358"/>
<polygon fill="#000000" stroke="#000000" points="879.4778,-393.9393 887.7925,-387.3729 877.1978,-387.321 879.4778,-393.9393"/>
</g>
<!-- IT -->
<g id="node48" class="node">
<title>IT</title>
<path fill="#ffffcc" stroke="#000000" d="M650,-396C650,-396 620,-396 620,-396 614,-396 608,-390 608,-384 608,-384 608,-372 608,-372 608,-366 614,-360 620,-360 620,-360 650,-360 650,-360 656,-360 662,-366 662,-372 662,-372 662,-384 662,-384 662,-390 656,-396 650,-396"/>
<text text-anchor="middle" x="635" y="-374.3" font-family="Helvetica,sans-Serif" font-size="14.00" fill="#000000">IT</text>
</g>
<!-- CalculateRefsGeometryModel&#45;&gt;IT -->
<g id="edge49" class="edge">
<title>CalculateRefsGeometryModel&#45;&gt;IT</title>
<path fill="none" stroke="#000000" d="M688.0837,-431.8314C679.6558,-423.2848 669.459,-412.9443 660.264,-403.6198"/>
<polygon fill="#000000" stroke="#000000" points="662.6711,-401.0761 653.1575,-396.4133 657.6869,-405.9912 662.6711,-401.0761"/>
</g>
<!-- DelP -->
<g id="node49" class="node">
<title>DelP</title>
<path fill="#ffffcc" stroke="#000000" d="M794,-396C794,-396 764,-396 764,-396 758,-396 752,-390 752,-384 752,-384 752,-372 752,-372 752,-366 758,-360 764,-360 764,-360 794,-360 794,-360 800,-360 806,-366 806,-372 806,-372 806,-384 806,-384 806,-390 800,-396 794,-396"/>
<text text-anchor="middle" x="779" y="-374.3" font-family="Helvetica,sans-Serif" font-size="14.00" fill="#000000">DelP</text>
</g>
<!-- CalculateRefsGeometryModel&#45;&gt;DelP -->
<g id="edge51" class="edge">
<title>CalculateRefsGeometryModel&#45;&gt;DelP</title>
<path fill="none" stroke="#000000" d="M724.421,-431.8314C733.1529,-423.219 743.7317,-412.7851 753.2423,-403.4048"/>
<polygon fill="#000000" stroke="#000000" points="755.923,-405.6769 760.5849,-396.1628 751.0075,-400.6931 755.923,-405.6769"/>
</g>
<!-- DelT -->
<g id="node50" class="node">
<title>DelT</title>
<path fill="#ffffcc" stroke="#000000" d="M722,-396C722,-396 692,-396 692,-396 686,-396 680,-390 680,-384 680,-384 680,-372 680,-372 680,-366 686,-360 692,-360 692,-360 722,-360 722,-360 728,-360 734,-366 734,-372 734,-372 734,-384 734,-384 734,-390 728,-396 722,-396"/>
<text text-anchor="middle" x="707" y="-374.3" font-family="Helvetica,sans-Serif" font-size="14.00" fill="#000000">DelT</text>
</g>
<!-- CalculateRefsGeometryModel&#45;&gt;DelT -->
<g id="edge52" class="edge">
<title>CalculateRefsGeometryModel&#45;&gt;DelT</title>
<path fill="none" stroke="#000000" d="M706.2523,-431.8314C706.3593,-424.131 706.4865,-414.9743 706.6053,-406.4166"/>
<polygon fill="#000000" stroke="#000000" points="710.1049,-406.4609 706.7443,-396.4133 703.1056,-406.3637 710.1049,-406.4609"/>
</g>
<!-- PrepareOutput -->
<g id="node11" class="node">
<title>PrepareOutput</title>
<polygon fill="#ccffcc" stroke="#000000" points="465,-468 359,-468 359,-432 465,-432 465,-468"/>
<text text-anchor="middle" x="412" y="-446.3" font-family="Helvetica,sans-Serif" font-size="14.00" fill="#000000">PrepareOutput</text>
</g>
<!-- R_Output -->
<g id="node15" class="node">
<title>R_Output</title>
<path fill="#ffffcc" stroke="#000000" d="M745,-50.5C745,-50.5 871,-50.5 871,-50.5 877,-50.5 883,-56.5 883,-62.5 883,-62.5 883,-84.5 883,-84.5 883,-90.5 877,-96.5 871,-96.5 871,-96.5 745,-96.5 745,-96.5 739,-96.5 733,-90.5 733,-84.5 733,-84.5 733,-62.5 733,-62.5 733,-56.5 739,-50.5 745,-50.5"/>
<text text-anchor="middle" x="808" y="-81.3" font-family="Helvetica,sans-Serif" font-size="14.00" fill="#000000">R_Output</text>
<polyline fill="none" stroke="#000000" points="733,-73.5 883,-73.5 "/>
<text text-anchor="middle" x="808" y="-58.3" font-family="Helvetica,sans-Serif" font-size="14.00" fill="#000000">file:{{OutputDir}/R.dat}</text>
</g>
<!-- PrepareOutput&#45;&gt;R_Output -->
<g id="edge60" class="edge">
<title>PrepareOutput&#45;&gt;R_Output</title>
<path fill="none" stroke="#000000" d="M425.2908,-431.8854C464.9067,-378.059 580.8686,-221.7746 604,-205 641.9016,-177.5142 667.3797,-199.3842 703,-169 716.9254,-157.1216 710.7452,-146.5953 723,-133 733.2891,-121.5854 746.1603,-111.1707 758.7499,-102.3573"/>
<polygon fill="#000000" stroke="#000000" points="761.0616,-105.0193 767.3857,-96.5189 757.141,-99.2202 761.0616,-105.0193"/>
</g>
<!-- E0_Output -->
<g id="node16" class="node">
<title>E0_Output</title>
<path fill="#ffffcc" stroke="#000000" d="M369.5,-50.5C369.5,-50.5 502.5,-50.5 502.5,-50.5 508.5,-50.5 514.5,-56.5 514.5,-62.5 514.5,-62.5 514.5,-84.5 514.5,-84.5 514.5,-90.5 508.5,-96.5 502.5,-96.5 502.5,-96.5 369.5,-96.5 369.5,-96.5 363.5,-96.5 357.5,-90.5 357.5,-84.5 357.5,-84.5 357.5,-62.5 357.5,-62.5 357.5,-56.5 363.5,-50.5 369.5,-50.5"/>
<text text-anchor="middle" x="436" y="-81.3" font-family="Helvetica,sans-Serif" font-size="14.00" fill="#000000">E0_Output</text>
<polyline fill="none" stroke="#000000" points="357.5,-73.5 514.5,-73.5 "/>
<text text-anchor="middle" x="436" y="-58.3" font-family="Helvetica,sans-Serif" font-size="14.00" fill="#000000">file:{{OutputDir}/E0.dat}</text>
</g>
<!-- PrepareOutput&#45;&gt;E0_Output -->
<g id="edge59" class="edge">
<title>PrepareOutput&#45;&gt;E0_Output</title>
<path fill="none" stroke="#000000" d="M396.6867,-431.7844C376.3587,-405.6877 343,-355.3449 343,-306 343,-306 343,-306 343,-228.5 343,-185.7749 332.4422,-169.8876 354,-133 360.9987,-121.0245 371.4666,-110.781 382.6024,-102.3387"/>
<polygon fill="#000000" stroke="#000000" points="384.6722,-105.1616 390.7889,-96.5108 380.6125,-99.459 384.6722,-105.1616"/>
</g>
<!-- CalculateGlobalAnglesAndDirections -->
<g id="node12" class="node">
<title>CalculateGlobalAnglesAndDirections</title>
<polygon fill="#ccffcc" stroke="#000000" points="897,-324 659,-324 659,-288 897,-288 897,-324"/>
<text text-anchor="middle" x="778" y="-302.3" font-family="Helvetica,sans-Serif" font-size="14.00" fill="#000000">CalculateGlobalAnglesAndDirections</text>
</g>
<!-- D0 -->
<g id="node51" class="node">
<title>D0</title>
<path fill="#ffffcc" stroke="#000000" d="M918,-246.5C918,-246.5 888,-246.5 888,-246.5 882,-246.5 876,-240.5 876,-234.5 876,-234.5 876,-222.5 876,-222.5 876,-216.5 882,-210.5 888,-210.5 888,-210.5 918,-210.5 918,-210.5 924,-210.5 930,-216.5 930,-222.5 930,-222.5 930,-234.5 930,-234.5 930,-240.5 924,-246.5 918,-246.5"/>
<text text-anchor="middle" x="903" y="-224.8" font-family="Helvetica,sans-Serif" font-size="14.00" fill="#000000">D0</text>
</g>
<!-- CalculateGlobalAnglesAndDirections&#45;&gt;D0 -->
<g id="edge76" class="edge">
<title>CalculateGlobalAnglesAndDirections&#45;&gt;D0</title>
<path fill="none" stroke="#000000" d="M807.3069,-287.8297C825.1233,-276.7836 848.0091,-262.5943 866.9322,-250.862"/>
<polygon fill="#000000" stroke="#000000" points="868.934,-253.7391 875.5888,-245.495 865.2454,-247.7898 868.934,-253.7391"/>
</g>
<!-- E -->
<g id="node52" class="node">
<title>E</title>
<path fill="#ffffcc" stroke="#000000" d="M655,-246.5C655,-246.5 625,-246.5 625,-246.5 619,-246.5 613,-240.5 613,-234.5 613,-234.5 613,-222.5 613,-222.5 613,-216.5 619,-210.5 625,-210.5 625,-210.5 655,-210.5 655,-210.5 661,-210.5 667,-216.5 667,-222.5 667,-222.5 667,-234.5 667,-234.5 667,-240.5 661,-246.5 655,-246.5"/>
<text text-anchor="middle" x="640" y="-224.8" font-family="Helvetica,sans-Serif" font-size="14.00" fill="#000000">E</text>
</g>
<!-- CalculateGlobalAnglesAndDirections&#45;&gt;E -->
<g id="edge77" class="edge">
<title>CalculateGlobalAnglesAndDirections&#45;&gt;E</title>
<path fill="none" stroke="#000000" d="M745.6451,-287.8297C724.733,-276.0856 697.4944,-260.7885 675.9134,-248.6688"/>
<polygon fill="#000000" stroke="#000000" points="677.4787,-245.5337 667.0458,-243.6887 674.0511,-251.6371 677.4787,-245.5337"/>
</g>
<!-- CalculateSphericalCoordinateSystemRadialUnitVector -->
<g id="node13" class="node">
<title>CalculateSphericalCoordinateSystemRadialUnitVector</title>
<polygon fill="#ccffcc" stroke="#000000" points="1074,-169 732,-169 732,-133 1074,-133 1074,-169"/>
<text text-anchor="middle" x="903" y="-147.3" font-family="Helvetica,sans-Serif" font-size="14.00" fill="#000000">CalculateSphericalCoordinateSystemRadialUnitVector</text>
</g>
<!-- CalculateSphericalCoordinateSystemRadialUnitVector&#45;&gt;R_Output -->
<g id="edge84" class="edge">
<title>CalculateSphericalCoordinateSystemRadialUnitVector&#45;&gt;R_Output</title>
<path fill="none" stroke="#000000" d="M880.4863,-132.6336C869.684,-123.8212 856.4716,-113.0426 844.2997,-103.1129"/>
<polygon fill="#000000" stroke="#000000" points="846.4482,-100.3487 836.487,-96.7394 842.0233,-105.7728 846.4482,-100.3487"/>
</g>
<!-- CalculateIncidentFieldInGlobalCartesianCoordinates -->
<g id="node14" class="node">
<title>CalculateIncidentFieldInGlobalCartesianCoordinates</title>
<polygon fill="#ccffcc" stroke="#000000" points="693.5,-169 362.5,-169 362.5,-133 693.5,-133 693.5,-169"/>
<text text-anchor="middle" x="528" y="-147.3" font-family="Helvetica,sans-Serif" font-size="14.00" fill="#000000">CalculateIncidentFieldInGlobalCartesianCoordinates</text>
</g>
<!-- CalculateIncidentFieldInGlobalCartesianCoordinates&#45;&gt;E0_Output -->
<g id="edge89" class="edge">
<title>CalculateIncidentFieldInGlobalCartesianCoordinates&#45;&gt;E0_Output</title>
<path fill="none" stroke="#000000" d="M506.1973,-132.6336C495.8358,-123.9051 483.1844,-113.2477 471.4904,-103.3968"/>
<polygon fill="#000000" stroke="#000000" points="473.4904,-100.5053 463.5874,-96.7394 468.9806,-105.8589 473.4904,-100.5053"/>
</g>
<!-- R_Output_output_port -->
<g id="node59" class="node">
<title>R_Output_output_port</title>
<ellipse fill="#ffffff" stroke="#000000" cx="808" cy="-7" rx="7" ry="7"/>
</g>
<!-- R_Output&#45;&gt;R_Output_output_port -->
<g id="edge100" class="edge">
<title>R_Output&#45;&gt;R_Output_output_port</title>
<path fill="none" stroke="#000000" d="M808,-50.2415C808,-41.6855 808,-32.1565 808,-24.2258"/>
<polygon fill="#000000" stroke="#000000" points="811.5001,-24.0497 808,-14.0498 804.5001,-24.0498 811.5001,-24.0497"/>
</g>
<!-- E0_Output_output_port -->
<g id="node60" class="node">
<title>E0_Output_output_port</title>
<ellipse fill="#ffffff" stroke="#000000" cx="436" cy="-7" rx="7" ry="7"/>
</g>
<!-- E0_Output&#45;&gt;E0_Output_output_port -->
<g id="edge101" class="edge">
<title>E0_Output&#45;&gt;E0_Output_output_port</title>
<path fill="none" stroke="#000000" d="M436,-50.2415C436,-41.6855 436,-32.1565 436,-24.2258"/>
<polygon fill="#000000" stroke="#000000" points="439.5001,-24.0497 436,-14.0498 432.5001,-24.0498 439.5001,-24.0497"/>
</g>
<!-- PlotOutput_output_port -->
<g id="node61" class="node">
<title>PlotOutput_output_port</title>
<ellipse fill="#ffffff" stroke="#000000" cx="1188" cy="-7" rx="7" ry="7"/>
</g>
<!-- PlotOutput&#45;&gt;PlotOutput_output_port -->
<g id="edge102" class="edge">
<title>PlotOutput&#45;&gt;PlotOutput_output_port</title>
<path fill="none" stroke="#000000" d="M1188,-205.2143C1188,-160.6268 1188,-64.1112 1188,-24.5028"/>
<polygon fill="#000000" stroke="#000000" points="1191.5001,-24.3489 1188,-14.349 1184.5001,-24.349 1191.5001,-24.3489"/>
</g>
<!-- Arguments -->
<g id="node18" class="node">
<title>Arguments</title>
<path fill="#ffffcc" stroke="#000000" d="M695.5,-839C695.5,-839 636.5,-839 636.5,-839 630.5,-839 624.5,-833 624.5,-827 624.5,-827 624.5,-815 624.5,-815 624.5,-809 630.5,-803 636.5,-803 636.5,-803 695.5,-803 695.5,-803 701.5,-803 707.5,-809 707.5,-815 707.5,-815 707.5,-827 707.5,-827 707.5,-833 701.5,-839 695.5,-839"/>
<text text-anchor="middle" x="666" y="-817.3" font-family="Helvetica,sans-Serif" font-size="14.00" fill="#000000">Arguments</text>
</g>
<!-- Arguments&#45;&gt;ReadArgs -->
<g id="edge6" class="edge">
<title>Arguments&#45;&gt;ReadArgs</title>
<path fill="none" stroke="#000000" d="M665.4953,-802.8314C665.2814,-795.131 665.0271,-785.9743 664.7894,-777.4166"/>
<polygon fill="#000000" stroke="#000000" points="668.2879,-777.3122 664.5115,-767.4133 661.2906,-777.5066 668.2879,-777.3122"/>
</g>
<!-- InputDataFileName&#45;&gt;ReadDataFileInput -->
<g id="edge17" class="edge">
<title>InputDataFileName&#45;&gt;ReadDataFileInput</title>
<path fill="none" stroke="#000000" d="M541.9767,-653.1336C544.4874,-643.868 547.587,-632.4288 550.3891,-622.088"/>
<polygon fill="#000000" stroke="#000000" points="553.8218,-622.8019 553.059,-612.2346 547.0654,-620.9711 553.8218,-622.8019"/>
</g>
<!-- InputDataFileName&#45;&gt;PrepareOutput -->
<g id="edge63" class="edge">
<title>InputDataFileName&#45;&gt;PrepareOutput</title>
<path fill="none" stroke="#000000" d="M469.9179,-659.8619C400.1225,-647.074 299.3926,-626.4356 288,-612 258.2635,-574.3206 261.6933,-544.1492 288,-504 301.8552,-482.8543 325.9893,-469.9436 349.3055,-462.0814"/>
<polygon fill="#000000" stroke="#000000" points="350.356,-465.4201 358.8673,-459.1108 348.2792,-458.7353 350.356,-465.4201"/>
</g>
<!-- InputDataFile -->
<g id="node20" class="node">
<title>InputDataFile</title>
<path fill="#ffffcc" stroke="#000000" d="M977,-648.5C977,-648.5 1117,-648.5 1117,-648.5 1123,-648.5 1129,-654.5 1129,-660.5 1129,-660.5 1129,-682.5 1129,-682.5 1129,-688.5 1123,-694.5 1117,-694.5 1117,-694.5 977,-694.5 977,-694.5 971,-694.5 965,-688.5 965,-682.5 965,-682.5 965,-660.5 965,-660.5 965,-654.5 971,-648.5 977,-648.5"/>
<text text-anchor="middle" x="1047" y="-679.3" font-family="Helvetica,sans-Serif" font-size="14.00" fill="#000000">InputDataFile</text>
<polyline fill="none" stroke="#000000" points="965,-671.5 1129,-671.5 "/>
<text text-anchor="middle" x="1047" y="-656.3" font-family="Helvetica,sans-Serif" font-size="14.00" fill="#000000">file:{InputDataFileName}</text>
</g>
<!-- InputDataFile&#45;&gt;ReadDataFileInput -->
<g id="edge18" class="edge">
<title>InputDataFile&#45;&gt;ReadDataFileInput</title>
<path fill="none" stroke="#000000" d="M964.7595,-649.7988C961.8087,-649.1679 958.8821,-648.5656 956,-648 844.2843,-626.0757 713.182,-610.1524 632.8604,-601.4932"/>
<polygon fill="#000000" stroke="#000000" points="633.1539,-598.0047 622.8386,-600.4221 632.41,-604.9651 633.1539,-598.0047"/>
</g>
<!-- Freq&#45;&gt;CalculateWaveLength -->
<g id="edge20" class="edge">
<title>Freq&#45;&gt;CalculateWaveLength</title>
<path fill="none" stroke="#000000" d="M80.589,-503.8314C84.8317,-495.7925 89.9121,-486.1666 94.596,-477.2918"/>
<polygon fill="#000000" stroke="#000000" points="97.7096,-478.8908 99.2819,-468.4133 91.5189,-475.6235 97.7096,-478.8908"/>
</g>
<!-- Freq&#45;&gt;PrepareOutput -->
<g id="edge70" class="edge">
<title>Freq&#45;&gt;PrepareOutput</title>
<path fill="none" stroke="#000000" d="M98.1274,-507.7604C101.4003,-506.3553 104.7391,-505.06 108,-504 188.8857,-477.7071 286.2862,-463.2628 348.6583,-456.0799"/>
<polygon fill="#000000" stroke="#000000" points="349.1939,-459.5419 358.7405,-454.9471 348.4122,-452.5857 349.1939,-459.5419"/>
</g>
<!-- InputPolarization&#45;&gt;CalculateIncidentWavePolarization -->
<g id="edge23" class="edge">
<title>InputPolarization&#45;&gt;CalculateIncidentWavePolarization</title>
<path fill="none" stroke="#000000" d="M182.1732,-503.782C185.9644,-493.4412 190.366,-480.1697 193,-468 202.997,-421.8119 207.1864,-366.8945 208.8904,-334.3255"/>
<polygon fill="#000000" stroke="#000000" points="212.3937,-334.3385 209.3778,-324.182 205.4018,-334.0024 212.3937,-334.3385"/>
</g>
<!-- InputPolarization&#45;&gt;PrepareOutput -->
<g id="edge71" class="edge">
<title>InputPolarization&#45;&gt;PrepareOutput</title>
<path fill="none" stroke="#000000" d="M233.5843,-504.2022C268.667,-493.5442 313.2577,-479.9977 349.0843,-469.1136"/>
<polygon fill="#000000" stroke="#000000" points="350.3909,-472.3747 358.9417,-466.119 348.3561,-465.677 350.3909,-472.3747"/>
</g>
<!-- WaveLength&#45;&gt;CalculateIncidentWavePolarization -->
<g id="edge24" class="edge">
<title>WaveLength&#45;&gt;CalculateIncidentWavePolarization</title>
<path fill="none" stroke="#000000" d="M146.4491,-359.8314C156.8178,-351.0485 169.4229,-340.3712 180.6646,-330.8489"/>
<polygon fill="#000000" stroke="#000000" points="183.1895,-333.297 188.5578,-324.1628 178.6651,-327.9556 183.1895,-333.297"/>
</g>
<!-- InputModel&#45;&gt;ReadModelCoordinates -->
<g id="edge29" class="edge">
<title>InputModel&#45;&gt;ReadModelCoordinates</title>
<path fill="none" stroke="#000000" d="M943.9498,-653.4646C948.0143,-651.6089 952.0881,-649.7598 956,-648 979.6346,-637.3677 1005.927,-625.791 1028.1165,-616.0931"/>
<polygon fill="#000000" stroke="#000000" points="1029.5907,-619.2685 1037.3553,-612.0601 1026.7902,-612.8531 1029.5907,-619.2685"/>
</g>
<!-- InputModel&#45;&gt;ReadFacetsModel -->
<g id="edge32" class="edge">
<title>InputModel&#45;&gt;ReadFacetsModel</title>
<path fill="none" stroke="#000000" d="M941.0243,-653.4482C945.9761,-651.3978 951.0578,-649.5074 956,-648 980.4031,-640.5571 1125.517,-618.3453 1216.2589,-604.8388"/>
<polygon fill="#000000" stroke="#000000" points="1216.8486,-608.2896 1226.2255,-603.3577 1215.8196,-601.3657 1216.8486,-608.2896"/>
</g>
<!-- InputModel&#45;&gt;PrepareOutput -->
<g id="edge64" class="edge">
<title>InputModel&#45;&gt;PrepareOutput</title>
<path fill="none" stroke="#000000" d="M862.851,-655.6782C853.7683,-652.7417 844.1462,-649.98 835,-648 717.0974,-622.476 370.8202,-639.7643 303,-540 294.0048,-526.768 294.5633,-517.5949 303,-504 313.5733,-486.9622 331.2978,-475.1345 349.4143,-466.9958"/>
<polygon fill="#000000" stroke="#000000" points="350.991,-470.1311 358.8881,-463.068 348.31,-463.6648 350.991,-470.1311"/>
</g>
<!-- CoordinatesFile -->
<g id="node25" class="node">
<title>CoordinatesFile</title>
<path fill="#ffffcc" stroke="#000000" d="M634.5,-648.5C634.5,-648.5 813.5,-648.5 813.5,-648.5 819.5,-648.5 825.5,-654.5 825.5,-660.5 825.5,-660.5 825.5,-682.5 825.5,-682.5 825.5,-688.5 819.5,-694.5 813.5,-694.5 813.5,-694.5 634.5,-694.5 634.5,-694.5 628.5,-694.5 622.5,-688.5 622.5,-682.5 622.5,-682.5 622.5,-660.5 622.5,-660.5 622.5,-654.5 628.5,-648.5 634.5,-648.5"/>
<text text-anchor="middle" x="724" y="-679.3" font-family="Helvetica,sans-Serif" font-size="14.00" fill="#000000">CoordinatesFile</text>
<polyline fill="none" stroke="#000000" points="622.5,-671.5 825.5,-671.5 "/>
<text text-anchor="middle" x="724" y="-656.3" font-family="Helvetica,sans-Serif" font-size="14.00" fill="#000000">file:{InputModel}/coordinates.m</text>
</g>
<!-- CoordinatesFile&#45;&gt;ReadModelCoordinates -->
<g id="edge30" class="edge">
<title>CoordinatesFile&#45;&gt;ReadModelCoordinates</title>
<path fill="none" stroke="#000000" d="M825.7288,-649.2916C877.3985,-638.0116 939.614,-624.4293 989.4509,-613.5495"/>
<polygon fill="#000000" stroke="#000000" points="990.223,-616.9634 999.2464,-611.411 988.73,-610.1245 990.223,-616.9634"/>
</g>
<!-- FacetsFile -->
<g id="node26" class="node">
<title>FacetsFile</title>
<path fill="#ffffcc" stroke="#000000" d="M1217,-648.5C1217,-648.5 1363,-648.5 1363,-648.5 1369,-648.5 1375,-654.5 1375,-660.5 1375,-660.5 1375,-682.5 1375,-682.5 1375,-688.5 1369,-694.5 1363,-694.5 1363,-694.5 1217,-694.5 1217,-694.5 1211,-694.5 1205,-688.5 1205,-682.5 1205,-682.5 1205,-660.5 1205,-660.5 1205,-654.5 1211,-648.5 1217,-648.5"/>
<text text-anchor="middle" x="1290" y="-679.3" font-family="Helvetica,sans-Serif" font-size="14.00" fill="#000000">FacetsFile</text>
<polyline fill="none" stroke="#000000" points="1205,-671.5 1375,-671.5 "/>
<text text-anchor="middle" x="1290" y="-656.3" font-family="Helvetica,sans-Serif" font-size="14.00" fill="#000000">file:{InputModel}/facets.m</text>
</g>
<!-- FacetsFile&#45;&gt;ReadFacetsModel -->
<g id="edge33" class="edge">
<title>FacetsFile&#45;&gt;ReadFacetsModel</title>
<path fill="none" stroke="#000000" d="M1290,-648.2474C1290,-640.0965 1290,-630.8503 1290,-622.3302"/>
<polygon fill="#000000" stroke="#000000" points="1293.5001,-622.0633 1290,-612.0633 1286.5001,-622.0634 1293.5001,-622.0633"/>
</g>
<!-- Facets&#45;&gt;GenerateTransposeMatrix -->
<g id="edge37" class="edge">
<title>Facets&#45;&gt;GenerateTransposeMatrix</title>
<path fill="none" stroke="#000000" d="M1357.1118,-503.8314C1350.247,-495.454 1341.9699,-485.3531 1334.4489,-476.1749"/>
<polygon fill="#000000" stroke="#000000" points="1337.1341,-473.9297 1328.0886,-468.4133 1331.7197,-478.3665 1337.1341,-473.9297"/>
</g>
<!-- XPoints&#45;&gt;GenerateCoordinatesPoints -->
<g id="edge39" class="edge">
<title>XPoints&#45;&gt;GenerateCoordinatesPoints</title>
<path fill="none" stroke="#000000" d="M1127.7102,-503.8314C1125.892,-496.131 1123.7301,-486.9743 1121.7095,-478.4166"/>
<polygon fill="#000000" stroke="#000000" points="1125.0519,-477.3414 1119.3476,-468.4133 1118.2392,-478.95 1125.0519,-477.3414"/>
</g>
<!-- YPoints&#45;&gt;GenerateCoordinatesPoints -->
<g id="edge40" class="edge">
<title>YPoints&#45;&gt;GenerateCoordinatesPoints</title>
<path fill="none" stroke="#000000" d="M1188.2705,-503.8314C1176.0838,-494.8779 1161.2177,-483.9558 1148.0688,-474.2955"/>
<polygon fill="#000000" stroke="#000000" points="1149.8527,-471.263 1139.7216,-468.1628 1145.7082,-476.9042 1149.8527,-471.263"/>
</g>
<!-- ZPoints&#45;&gt;GenerateCoordinatesPoints -->
<g id="edge41" class="edge">
<title>ZPoints&#45;&gt;GenerateCoordinatesPoints</title>
<path fill="none" stroke="#000000" d="M1262.6249,-507.6946C1259.7176,-506.4255 1256.8095,-505.1769 1254,-504 1227.4272,-492.8685 1197.6908,-481.2106 1172.5625,-471.5875"/>
<polygon fill="#000000" stroke="#000000" points="1173.7644,-468.3 1163.1737,-468.0043 1171.2684,-474.8399 1173.7644,-468.3"/>
</g>
<!-- Nverts&#45;&gt;GenerateCoordinatesPoints -->
<g id="edge42" class="edge">
<title>Nverts&#45;&gt;GenerateCoordinatesPoints</title>
<path fill="none" stroke="#000000" d="M1069.3929,-503.8314C1076.4904,-495.454 1085.048,-485.3531 1092.824,-476.1749"/>
<polygon fill="#000000" stroke="#000000" points="1095.6061,-478.3056 1099.3999,-468.4133 1090.2652,-473.7807 1095.6061,-478.3056"/>
</g>
<!-- Node1&#45;&gt;PlotModel -->
<g id="edge44" class="edge">
<title>Node1&#45;&gt;PlotModel</title>
<path fill="none" stroke="#000000" d="M1243.3267,-359.8314C1234.4751,-351.219 1223.7514,-340.7851 1214.1105,-331.4048"/>
<polygon fill="#000000" stroke="#000000" points="1216.2754,-328.6279 1206.6674,-324.1628 1211.3939,-333.645 1216.2754,-328.6279"/>
</g>
<!-- Node2&#45;&gt;PlotModel -->
<g id="edge45" class="edge">
<title>Node2&#45;&gt;PlotModel</title>
<path fill="none" stroke="#000000" d="M1307.814,-364.2879C1286.9909,-354.1577 1258.1886,-340.1458 1234.0423,-328.399"/>
<polygon fill="#000000" stroke="#000000" points="1235.5658,-325.248 1225.0423,-324.0206 1232.5035,-331.5426 1235.5658,-325.248"/>
</g>
<!-- Node3&#45;&gt;PlotModel -->
<g id="edge46" class="edge">
<title>Node3&#45;&gt;PlotModel</title>
<path fill="none" stroke="#000000" d="M1188,-359.8314C1188,-352.131 1188,-342.9743 1188,-334.4166"/>
<polygon fill="#000000" stroke="#000000" points="1191.5001,-334.4132 1188,-324.4133 1184.5001,-334.4133 1191.5001,-334.4132"/>
</g>
<!-- Points&#45;&gt;PlotModel -->
<g id="edge47" class="edge">
<title>Points&#45;&gt;PlotModel</title>
<path fill="none" stroke="#000000" d="M1133.421,-359.8314C1142.1529,-351.219 1152.7317,-340.7851 1162.2423,-331.4048"/>
<polygon fill="#000000" stroke="#000000" points="1164.923,-333.6769 1169.5849,-324.1628 1160.0075,-328.6931 1164.923,-333.6769"/>
</g>
<!-- OutputDir&#45;&gt;PlotModel -->
<g id="edge48" class="edge">
<title>OutputDir&#45;&gt;PlotModel</title>
<path fill="none" stroke="#000000" d="M977.8218,-503.9365C985.3182,-485.159 998.3916,-455.3101 1014,-432 1037.9864,-396.1779 1044.6333,-386.0288 1079,-360 1097.53,-345.9657 1120.2757,-334.0171 1140.1866,-324.9551"/>
<polygon fill="#000000" stroke="#000000" points="1141.6806,-328.1214 1149.4051,-320.87 1138.8446,-321.7216 1141.6806,-328.1214"/>
</g>
<!-- OutputDir&#45;&gt;PrepareOutput -->
<g id="edge65" class="edge">
<title>OutputDir&#45;&gt;PrepareOutput</title>
<path fill="none" stroke="#000000" d="M933.3039,-506.5933C930.1867,-505.617 927.0588,-504.7337 924,-504 902.4784,-498.8378 607.7053,-469.3322 475.4433,-456.2473"/>
<polygon fill="#000000" stroke="#000000" points="475.7407,-452.7597 465.4448,-455.2587 475.0519,-459.7257 475.7407,-452.7597"/>
</g>
<!-- OutputDir&#45;&gt;CalculateSphericalCoordinateSystemRadialUnitVector -->
<g id="edge88" class="edge">
<title>OutputDir&#45;&gt;CalculateSphericalCoordinateSystemRadialUnitVector</title>
<path fill="none" stroke="#000000" d="M970.7928,-503.8149C970.4999,-476.4989 970,-423.2511 970,-378 970,-378 970,-378 970,-306 970,-259.9619 967.1827,-246.3783 947,-205 942.1789,-195.1159 935.2309,-185.44 928.2753,-177.0716"/>
<polygon fill="#000000" stroke="#000000" points="930.8782,-174.731 921.6734,-169.4848 925.5975,-179.3261 930.8782,-174.731"/>
</g>
<!-- OutputDir&#45;&gt;CalculateIncidentFieldInGlobalCartesianCoordinates -->
<g id="edge95" class="edge">
<title>OutputDir&#45;&gt;CalculateIncidentFieldInGlobalCartesianCoordinates</title>
<path fill="none" stroke="#000000" d="M946.166,-503.8758C916.4869,-483.1445 864.595,-449.7791 815,-432 723.3847,-399.1573 671.7219,-460.6802 599,-396 535.6698,-339.673 527.3487,-230.6331 527.1826,-179.179"/>
<polygon fill="#000000" stroke="#000000" points="530.6829,-179.1376 527.2541,-169.1129 523.6831,-179.0878 530.6829,-179.1376"/>
</g>
<!-- PStart&#45;&gt;CalculateRefsGeometryModel -->
<g id="edge53" class="edge">
<title>PStart&#45;&gt;CalculateRefsGeometryModel</title>
<path fill="none" stroke="#000000" d="M860.6288,-507.9278C857.7358,-506.5567 854.8211,-505.2226 852,-504 825.1749,-492.3743 794.9497,-480.9313 768.9883,-471.5925"/>
<polygon fill="#000000" stroke="#000000" points="769.8576,-468.1866 759.263,-468.1204 767.5039,-474.7791 769.8576,-468.1866"/>
</g>
<!-- PStart&#45;&gt;PrepareOutput -->
<g id="edge72" class="edge">
<title>PStart&#45;&gt;PrepareOutput</title>
<path fill="none" stroke="#000000" d="M860.8811,-507.2387C857.9389,-506.0019 854.9437,-504.8877 852,-504 816.7643,-493.3745 588.54,-468.4802 475.3937,-456.5719"/>
<polygon fill="#000000" stroke="#000000" points="475.4536,-453.059 465.1428,-455.4954 474.7225,-460.0207 475.4536,-453.059"/>
</g>
<!-- PStart&#45;&gt;CalculateGlobalAnglesAndDirections -->
<g id="edge80" class="edge">
<title>PStart&#45;&gt;CalculateGlobalAnglesAndDirections</title>
<path fill="none" stroke="#000000" d="M882.7096,-503.6426C873.3406,-472.6712 852.046,-408.6595 823,-360 817.2171,-350.3122 809.742,-340.5788 802.5512,-332.0963"/>
<polygon fill="#000000" stroke="#000000" points="805.0272,-329.6109 795.8085,-324.3892 799.7588,-334.22 805.0272,-329.6109"/>
</g>
<!-- PStop&#45;&gt;CalculateRefsGeometryModel -->
<g id="edge54" class="edge">
<title>PStop&#45;&gt;CalculateRefsGeometryModel</title>
<path fill="none" stroke="#000000" d="M605.1455,-506.7307C622.5825,-496.9223 645.5563,-483.9996 665.1724,-472.9655"/>
<polygon fill="#000000" stroke="#000000" points="666.9172,-475.9999 673.917,-468.0467 663.4853,-469.8988 666.9172,-475.9999"/>
</g>
<!-- PStop&#45;&gt;PrepareOutput -->
<g id="edge73" class="edge">
<title>PStop&#45;&gt;PrepareOutput</title>
<path fill="none" stroke="#000000" d="M550.9711,-508.2319C547.9587,-506.7732 544.9235,-505.3361 542,-504 517.6775,-492.8842 490.3963,-481.4051 467.1296,-471.9041"/>
<polygon fill="#000000" stroke="#000000" points="468.3415,-468.6187 457.7596,-468.0959 465.7058,-475.1036 468.3415,-468.6187"/>
</g>
<!-- InputDelP&#45;&gt;CalculateRefsGeometryModel -->
<g id="edge55" class="edge">
<title>InputDelP&#45;&gt;CalculateRefsGeometryModel</title>
<path fill="none" stroke="#000000" d="M672.3554,-503.8314C677.4326,-495.7079 683.5227,-485.9637 689.1176,-477.0118"/>
<polygon fill="#000000" stroke="#000000" points="692.1597,-478.7483 694.4917,-468.4133 686.2237,-475.0383 692.1597,-478.7483"/>
</g>
<!-- InputDelP&#45;&gt;PrepareOutput -->
<g id="edge67" class="edge">
<title>InputDelP&#45;&gt;PrepareOutput</title>
<path fill="none" stroke="#000000" d="M622.8995,-507.0258C619.9013,-505.9647 616.9091,-504.9431 614,-504 567.9999,-489.088 515.1771,-475.0736 475.0875,-465.0602"/>
<polygon fill="#000000" stroke="#000000" points="475.7301,-461.6136 465.1815,-462.6026 474.0444,-468.4076 475.7301,-461.6136"/>
</g>
<!-- TStart&#45;&gt;CalculateRefsGeometryModel -->
<g id="edge56" class="edge">
<title>TStart&#45;&gt;CalculateRefsGeometryModel</title>
<path fill="none" stroke="#000000" d="M788.809,-504.2022C774.7685,-495.0121 757.447,-483.6744 742.2813,-473.7478"/>
<polygon fill="#000000" stroke="#000000" points="743.9261,-470.6413 733.6423,-468.0931 740.0925,-476.4982 743.9261,-470.6413"/>
</g>
<!-- TStart&#45;&gt;PrepareOutput -->
<g id="edge74" class="edge">
<title>TStart&#45;&gt;PrepareOutput</title>
<path fill="none" stroke="#000000" d="M788.8591,-507.31C785.9212,-506.0593 782.933,-504.9223 780,-504 724.5421,-486.5605 565.0421,-466.9388 475.2944,-456.8323"/>
<polygon fill="#000000" stroke="#000000" points="475.5659,-453.3409 465.2387,-455.7068 474.7873,-460.2975 475.5659,-453.3409"/>
</g>
<!-- TStart&#45;&gt;CalculateGlobalAnglesAndDirections -->
<g id="edge82" class="edge">
<title>TStart&#45;&gt;CalculateGlobalAnglesAndDirections</title>
<path fill="none" stroke="#000000" d="M819.2463,-503.9765C824.0053,-473.4973 830.7157,-410.1919 815,-360 811.9252,-350.1799 806.3967,-340.5509 800.5349,-332.2064"/>
<polygon fill="#000000" stroke="#000000" points="803.1953,-329.9203 794.3945,-324.0214 797.5958,-334.121 803.1953,-329.9203"/>
</g>
<!-- TStop&#45;&gt;CalculateRefsGeometryModel -->
<g id="edge57" class="edge">
<title>TStop&#45;&gt;CalculateRefsGeometryModel</title>
<path fill="none" stroke="#000000" d="M734.411,-503.8314C730.1683,-495.7925 725.0879,-486.1666 720.404,-477.2918"/>
<polygon fill="#000000" stroke="#000000" points="723.4811,-475.6235 715.7181,-468.4133 717.2904,-478.8908 723.4811,-475.6235"/>
</g>
<!-- TStop&#45;&gt;PrepareOutput -->
<g id="edge75" class="edge">
<title>TStop&#45;&gt;PrepareOutput</title>
<path fill="none" stroke="#000000" d="M716.8252,-507.4145C713.894,-506.1435 710.9165,-504.9731 708,-504 630.1258,-478.0162 536.3112,-463.5842 475.4765,-456.3132"/>
<polygon fill="#000000" stroke="#000000" points="475.5969,-452.8037 465.259,-455.1224 474.7865,-459.7566 475.5969,-452.8037"/>
</g>
<!-- InputDelT&#45;&gt;CalculateRefsGeometryModel -->
<g id="edge58" class="edge">
<title>InputDelT&#45;&gt;CalculateRefsGeometryModel</title>
<path fill="none" stroke="#000000" d="M532.6514,-507.3992C535.807,-506.2306 538.9542,-505.084 542,-504 573.7157,-492.7125 609.1663,-480.9362 638.9712,-471.2722"/>
<polygon fill="#000000" stroke="#000000" points="640.4101,-474.4855 648.849,-468.0796 638.2572,-467.8248 640.4101,-474.4855"/>
</g>
<!-- InputDelT&#45;&gt;PrepareOutput -->
<g id="edge69" class="edge">
<title>InputDelT&#45;&gt;PrepareOutput</title>
<path fill="none" stroke="#000000" d="M474.0556,-503.8314C463.9309,-495.0485 451.6223,-484.3712 440.6452,-474.8489"/>
<polygon fill="#000000" stroke="#000000" points="442.7851,-472.0718 432.9377,-468.1628 438.1981,-477.3595 442.7851,-472.0718"/>
</g>
<!-- Time&#45;&gt;PrepareOutput -->
<g id="edge61" class="edge">
<title>Time&#45;&gt;PrepareOutput</title>
<path fill="none" stroke="#000000" d="M57.4487,-575.7621C38.9228,-556.2929 16.4762,-525.3661 35,-504 55.2305,-480.6653 246.7351,-462.6285 348.7404,-454.5855"/>
<polygon fill="#000000" stroke="#000000" points="349.2248,-458.0584 358.9228,-453.7924 348.6812,-451.0796 349.2248,-458.0584"/>
</g>
<!-- ProgramName&#45;&gt;PrepareOutput -->
<g id="edge62" class="edge">
<title>ProgramName&#45;&gt;PrepareOutput</title>
<path fill="none" stroke="#000000" d="M215.6341,-575.6944C223.8221,-565.3263 234.1351,-552.0565 243,-540 254.5394,-524.3061 252.6266,-515.9631 268,-504 291.6464,-485.599 322.232,-472.954 349.1295,-464.5545"/>
<polygon fill="#000000" stroke="#000000" points="350.2731,-467.8657 358.8525,-461.6492 348.269,-461.1587 350.2731,-467.8657"/>
</g>
<!-- Corr&#45;&gt;PrepareOutput -->
<g id="edge66" class="edge">
<title>Corr&#45;&gt;PrepareOutput</title>
<path fill="none" stroke="#000000" d="M357.421,-503.8314C366.1529,-495.219 376.7317,-484.7851 386.2423,-475.4048"/>
<polygon fill="#000000" stroke="#000000" points="388.923,-477.6769 393.5849,-468.1628 384.0075,-472.6931 388.923,-477.6769"/>
</g>
<!-- Delstd&#45;&gt;PrepareOutput -->
<g id="edge68" class="edge">
<title>Delstd&#45;&gt;PrepareOutput</title>
<path fill="none" stroke="#000000" d="M412,-503.8314C412,-496.131 412,-486.9743 412,-478.4166"/>
<polygon fill="#000000" stroke="#000000" points="415.5001,-478.4132 412,-468.4133 408.5001,-478.4133 415.5001,-478.4132"/>
</g>
<!-- IP&#45;&gt;CalculateGlobalAnglesAndDirections -->
<g id="edge78" class="edge">
<title>IP&#45;&gt;CalculateGlobalAnglesAndDirections</title>
<path fill="none" stroke="#000000" d="M887.9332,-363.7751C868.9645,-353.8061 843.2059,-340.2688 821.3907,-328.8038"/>
<polygon fill="#000000" stroke="#000000" points="822.7943,-325.5876 812.314,-324.0336 819.5377,-331.784 822.7943,-325.5876"/>
</g>
<!-- IP&#45;&gt;CalculateSphericalCoordinateSystemRadialUnitVector -->
<g id="edge85" class="edge">
<title>IP&#45;&gt;CalculateSphericalCoordinateSystemRadialUnitVector</title>
<path fill="none" stroke="#000000" d="M922.4839,-359.9241C934.6115,-328.0059 955.6073,-259.8502 939,-205 936.0436,-195.2355 930.6748,-185.6229 924.97,-177.2762"/>
<polygon fill="#000000" stroke="#000000" points="927.7129,-175.0973 918.9905,-169.0831 922.0586,-179.2239 927.7129,-175.0973"/>
</g>
<!-- IP&#45;&gt;CalculateIncidentFieldInGlobalCartesianCoordinates -->
<g id="edge90" class="edge">
<title>IP&#45;&gt;CalculateIncidentFieldInGlobalCartesianCoordinates</title>
<path fill="none" stroke="#000000" d="M918.4294,-359.7191C921.0526,-339.9241 921.914,-308.4467 906,-288 869.747,-241.4212 716.4271,-196.5949 616.535,-171.5334"/>
<polygon fill="#000000" stroke="#000000" points="617.2891,-168.1144 606.7399,-169.0962 615.5989,-174.9073 617.2891,-168.1144"/>
</g>
<!-- IT&#45;&gt;CalculateGlobalAnglesAndDirections -->
<g id="edge79" class="edge">
<title>IT&#45;&gt;CalculateGlobalAnglesAndDirections</title>
<path fill="none" stroke="#000000" d="M662.2338,-364.2879C682.2647,-354.2024 709.9376,-340.2692 733.2046,-328.5543"/>
<polygon fill="#000000" stroke="#000000" points="734.8514,-331.6439 742.2091,-324.0206 731.7033,-325.3916 734.8514,-331.6439"/>
</g>
<!-- IT&#45;&gt;CalculateSphericalCoordinateSystemRadialUnitVector -->
<g id="edge86" class="edge">
<title>IT&#45;&gt;CalculateSphericalCoordinateSystemRadialUnitVector</title>
<path fill="none" stroke="#000000" d="M633.5725,-359.6768C632.9976,-340.1347 634.9093,-309.146 650,-288 692.3963,-228.5919 768.8163,-192.3691 826.6095,-172.2184"/>
<polygon fill="#000000" stroke="#000000" points="827.7367,-175.532 836.0793,-169.0012 825.4849,-168.904 827.7367,-175.532"/>
</g>
<!-- IT&#45;&gt;CalculateIncidentFieldInGlobalCartesianCoordinates -->
<g id="edge91" class="edge">
<title>IT&#45;&gt;CalculateIncidentFieldInGlobalCartesianCoordinates</title>
<path fill="none" stroke="#000000" d="M627.7478,-359.7735C614.9023,-327.9071 586.8693,-260.2015 559,-205 554.492,-196.0708 549.1928,-186.5417 544.2633,-178.0128"/>
<polygon fill="#000000" stroke="#000000" points="547.19,-176.0845 539.1143,-169.2264 541.1506,-179.6237 547.19,-176.0845"/>
</g>
<!-- DelP&#45;&gt;CalculateGlobalAnglesAndDirections -->
<g id="edge81" class="edge">
<title>DelP&#45;&gt;CalculateGlobalAnglesAndDirections</title>
<path fill="none" stroke="#000000" d="M778.7477,-359.8314C778.6407,-352.131 778.5135,-342.9743 778.3947,-334.4166"/>
<polygon fill="#000000" stroke="#000000" points="781.8944,-334.3637 778.2557,-324.4133 774.8951,-334.4609 781.8944,-334.3637"/>
</g>
<!-- DelT&#45;&gt;CalculateGlobalAnglesAndDirections -->
<g id="edge83" class="edge">
<title>DelT&#45;&gt;CalculateGlobalAnglesAndDirections</title>
<path fill="none" stroke="#000000" d="M724.9163,-359.8314C733.3442,-351.2848 743.541,-340.9443 752.736,-331.6198"/>
<polygon fill="#000000" stroke="#000000" points="755.3131,-333.9912 759.8425,-324.4133 750.3289,-329.0761 755.3131,-333.9912"/>
</g>
<!-- D0&#45;&gt;CalculateSphericalCoordinateSystemRadialUnitVector -->
<g id="edge87" class="edge">
<title>D0&#45;&gt;CalculateSphericalCoordinateSystemRadialUnitVector</title>
<path fill="none" stroke="#000000" d="M903,-210.1336C903,-200.9645 903,-189.6668 903,-179.4115"/>
<polygon fill="#000000" stroke="#000000" points="906.5001,-179.2345 903,-169.2346 899.5001,-179.2346 906.5001,-179.2345"/>
</g>
<!-- E&#45;&gt;CalculateIncidentFieldInGlobalCartesianCoordinates -->
<g id="edge92" class="edge">
<title>E&#45;&gt;CalculateIncidentFieldInGlobalCartesianCoordinates</title>
<path fill="none" stroke="#000000" d="M613.741,-210.3297C598.4347,-199.7383 578.9524,-186.2573 562.4282,-174.8231"/>
<polygon fill="#000000" stroke="#000000" points="564.3093,-171.8686 554.0945,-169.0565 560.3262,-177.6248 564.3093,-171.8686"/>
</g>
<!-- Et&#45;&gt;CalculateIncidentFieldInGlobalCartesianCoordinates -->
<g id="edge93" class="edge">
<title>Et&#45;&gt;CalculateIncidentFieldInGlobalCartesianCoordinates</title>
<path fill="none" stroke="#000000" d="M461.6178,-210.1336C473.1026,-199.9028 487.5624,-187.022 500.0523,-175.896"/>
<polygon fill="#000000" stroke="#000000" points="502.3913,-178.4997 507.5302,-169.2346 497.7351,-173.2728 502.3913,-178.4997"/>
</g>
<!-- Ep&#45;&gt;CalculateIncidentFieldInGlobalCartesianCoordinates -->
<g id="edge94" class="edge">
<title>Ep&#45;&gt;CalculateIncidentFieldInGlobalCartesianCoordinates</title>
<path fill="none" stroke="#000000" d="M281.2739,-220.7857C321.325,-209.4573 397.483,-187.9163 454.6402,-171.7496"/>
<polygon fill="#000000" stroke="#000000" points="455.6887,-175.0904 464.3586,-169.0008 453.7834,-168.3547 455.6887,-175.0904"/>
</g>
<!-- Arguments_input_port -->
<g id="node55" class="node">
<title>Arguments_input_port</title>
<ellipse fill="#ffffff" stroke="#000000" cx="666" cy="-882" rx="7" ry="7"/>
</g>
<!-- Arguments_input_port&#45;&gt;Arguments -->
<g id="edge96" class="edge">
<title>Arguments_input_port&#45;&gt;Arguments</title>
<path fill="none" stroke="#000000" d="M666,-874.5202C666,-868.1405 666,-858.5482 666,-849.2385"/>
<polygon fill="#000000" stroke="#000000" points="669.5001,-849.0338 666,-839.0338 662.5001,-849.0339 669.5001,-849.0338"/>
</g>
<!-- CoordinatesFile_input_port -->
<g id="node56" class="node">
<title>CoordinatesFile_input_port</title>
<ellipse fill="#ffffff" stroke="#000000" cx="596" cy="-882" rx="7" ry="7"/>
</g>
<!-- CoordinatesFile_input_port&#45;&gt;CoordinatesFile -->
<g id="edge97" class="edge">
<title>CoordinatesFile_input_port&#45;&gt;CoordinatesFile</title>
<path fill="none" stroke="#000000" d="M594.925,-874.9134C591.82,-851.8487 584.9835,-777.7237 617,-731 625.7717,-718.1989 638.2427,-707.86 651.5896,-699.6201"/>
<polygon fill="#000000" stroke="#000000" points="653.5446,-702.5329 660.4569,-694.5036 650.0461,-696.4699 653.5446,-702.5329"/>
</g>
<!-- FacetsFile_input_port -->
<g id="node57" class="node">
<title>FacetsFile_input_port</title>
<ellipse fill="#ffffff" stroke="#000000" cx="1290" cy="-882" rx="7" ry="7"/>
</g>
<!-- FacetsFile_input_port&#45;&gt;FacetsFile -->
<g id="edge98" class="edge">
<title>FacetsFile_input_port&#45;&gt;FacetsFile</title>
<path fill="none" stroke="#000000" d="M1290,-874.9963C1290,-848.8223 1290,-755.6609 1290,-704.9602"/>
<polygon fill="#000000" stroke="#000000" points="1293.5001,-704.8251 1290,-694.8251 1286.5001,-704.8252 1293.5001,-704.8251"/>
</g>
<!-- InputDataFile_input_port -->
<g id="node58" class="node">
<title>InputDataFile_input_port</title>
<ellipse fill="#ffffff" stroke="#000000" cx="1047" cy="-882" rx="7" ry="7"/>
</g>
<!-- InputDataFile_input_port&#45;&gt;InputDataFile -->
<g id="edge99" class="edge">
<title>InputDataFile_input_port&#45;&gt;InputDataFile</title>
<path fill="none" stroke="#000000" d="M1047,-874.9963C1047,-848.8223 1047,-755.6609 1047,-704.9602"/>
<polygon fill="#000000" stroke="#000000" points="1050.5001,-704.8251 1047,-694.8251 1043.5001,-704.8252 1050.5001,-704.8251"/>
</g>
</g>
</svg>
