<?xml version="1.0" encoding="UTF-8" standalone="no"?>
<!DOCTYPE svg PUBLIC "-//W3C//DTD SVG 1.1//EN"
 "http://www.w3.org/Graphics/SVG/1.1/DTD/svg11.dtd">
<!-- Generated by graphviz version 2.38.0 (20140413.2041)
 -->
<!-- Title: Workflow Pages: 1 -->
<svg width="1232pt" height="759pt"
 viewBox="0.00 0.00 1232.00 759.00" xmlns="http://www.w3.org/2000/svg" xmlns:xlink="http://www.w3.org/1999/xlink">
<g id="graph0" class="graph" transform="scale(1 1) rotate(0) translate(4 755)">
<title>Workflow</title>
<polygon fill="white" stroke="none" points="-4,4 -4,-755 1228,-755 1228,4 -4,4"/>
<text text-anchor="middle" x="612" y="-732.6" font-family="Courier,monospace" font-size="18.00">POFacets</text>
<g id="clust1" class="cluster"><title>cluster_workflow_box_outer</title>
<polygon fill="none" stroke="black" stroke-width="2" points="8,-34 8,-689 1202,-689 1202,-34 8,-34"/>
</g>
<g id="clust2" class="cluster"><title>cluster_workflow_box_inner</title>
<polygon fill="none" stroke="white" stroke-width="2" points="16,-42 16,-681 1194,-681 1194,-42 16,-42"/>
</g>
<!-- CalculateWaveLength -->
<g id="node1" class="node"><title>CalculateWaveLength</title>
<polygon fill="#ccffcc" stroke="black" points="1185.5,-667.5 1012.5,-667.5 1012.5,-631.5 1185.5,-631.5 1185.5,-667.5"/>
<text text-anchor="middle" x="1099" y="-645.8" font-family="Courier,monospace" font-size="14.00">CalculateWaveLength</text>
</g>
<!-- CalculateIncidentWavePolarization -->
<g id="node2" class="node"><title>CalculateIncidentWavePolarization</title>
<polygon fill="#ccffcc" stroke="black" points="312.5,-302 23.5,-302 23.5,-266 312.5,-266 312.5,-302"/>
<text text-anchor="middle" x="168" y="-280.3" font-family="Courier,monospace" font-size="14.00">CalculateIncidentWavePolarization</text>
</g>
<!-- Et -->
<g id="node39" class="node"><title>Et</title>
<path fill="#ffffcc" stroke="black" d="M66,-230C66,-230 36,-230 36,-230 30,-230 24,-224 24,-218 24,-218 24,-206 24,-206 24,-200 30,-194 36,-194 36,-194 66,-194 66,-194 72,-194 78,-200 78,-206 78,-206 78,-218 78,-218 78,-224 72,-230 66,-230"/>
<text text-anchor="middle" x="51" y="-208.3" font-family="Helvetica,sans-Serif" font-size="14.00">Et</text>
</g>
<!-- CalculateIncidentWavePolarization&#45;&gt;Et -->
<g id="edge1" class="edge"><title>CalculateIncidentWavePolarization&#45;&gt;Et</title>
<path fill="none" stroke="black" d="M139.379,-265.876C123.624,-256.45 103.918,-244.66 87.1137,-234.606"/>
<polygon fill="black" stroke="black" points="88.4985,-231.356 78.1201,-229.226 84.9046,-237.363 88.4985,-231.356"/>
</g>
<!-- Ep -->
<g id="node40" class="node"><title>Ep</title>
<path fill="#ffffcc" stroke="black" d="M138,-230C138,-230 108,-230 108,-230 102,-230 96,-224 96,-218 96,-218 96,-206 96,-206 96,-200 102,-194 108,-194 108,-194 138,-194 138,-194 144,-194 150,-200 150,-206 150,-206 150,-218 150,-218 150,-224 144,-230 138,-230"/>
<text text-anchor="middle" x="123" y="-208.3" font-family="Helvetica,sans-Serif" font-size="14.00">Ep</text>
</g>
<!-- CalculateIncidentWavePolarization&#45;&gt;Ep -->
<g id="edge2" class="edge"><title>CalculateIncidentWavePolarization&#45;&gt;Ep</title>
<path fill="none" stroke="black" d="M156.876,-265.697C151.645,-257.559 145.3,-247.689 139.522,-238.701"/>
<polygon fill="black" stroke="black" points="142.347,-236.623 133.996,-230.104 136.459,-240.409 142.347,-236.623"/>
</g>
<!-- ReadModelCoordinates -->
<g id="node3" class="node"><title>ReadModelCoordinates</title>
<polygon fill="#ccffcc" stroke="black" points="832,-590 650,-590 650,-554 832,-554 832,-590"/>
<text text-anchor="middle" x="741" y="-568.3" font-family="Courier,monospace" font-size="14.00">ReadModelCoordinates</text>
</g>
<!-- XPoints -->
<g id="node22" class="node"><title>XPoints</title>
<path fill="#ffffcc" stroke="black" d="M679.5,-518C679.5,-518 640.5,-518 640.5,-518 634.5,-518 628.5,-512 628.5,-506 628.5,-506 628.5,-494 628.5,-494 628.5,-488 634.5,-482 640.5,-482 640.5,-482 679.5,-482 679.5,-482 685.5,-482 691.5,-488 691.5,-494 691.5,-494 691.5,-506 691.5,-506 691.5,-512 685.5,-518 679.5,-518"/>
<text text-anchor="middle" x="660" y="-496.3" font-family="Helvetica,sans-Serif" font-size="14.00">XPoints</text>
</g>
<!-- ReadModelCoordinates&#45;&gt;XPoints -->
<g id="edge3" class="edge"><title>ReadModelCoordinates&#45;&gt;XPoints</title>
<path fill="none" stroke="black" d="M720.978,-553.697C710.874,-544.965 698.464,-534.24 687.482,-524.75"/>
<polygon fill="black" stroke="black" points="689.647,-521.995 679.792,-518.104 685.07,-527.291 689.647,-521.995"/>
</g>
<!-- YPoints -->
<g id="node23" class="node"><title>YPoints</title>
<path fill="#ffffcc" stroke="black" d="M760.5,-518C760.5,-518 721.5,-518 721.5,-518 715.5,-518 709.5,-512 709.5,-506 709.5,-506 709.5,-494 709.5,-494 709.5,-488 715.5,-482 721.5,-482 721.5,-482 760.5,-482 760.5,-482 766.5,-482 772.5,-488 772.5,-494 772.5,-494 772.5,-506 772.5,-506 772.5,-512 766.5,-518 760.5,-518"/>
<text text-anchor="middle" x="741" y="-496.3" font-family="Helvetica,sans-Serif" font-size="14.00">YPoints</text>
</g>
<!-- ReadModelCoordinates&#45;&gt;YPoints -->
<g id="edge4" class="edge"><title>ReadModelCoordinates&#45;&gt;YPoints</title>
<path fill="none" stroke="black" d="M741,-553.697C741,-545.983 741,-536.712 741,-528.112"/>
<polygon fill="black" stroke="black" points="744.5,-528.104 741,-518.104 737.5,-528.104 744.5,-528.104"/>
</g>
<!-- ZPoints -->
<g id="node24" class="node"><title>ZPoints</title>
<path fill="#ffffcc" stroke="black" d="M841,-518C841,-518 803,-518 803,-518 797,-518 791,-512 791,-506 791,-506 791,-494 791,-494 791,-488 797,-482 803,-482 803,-482 841,-482 841,-482 847,-482 853,-488 853,-494 853,-494 853,-506 853,-506 853,-512 847,-518 841,-518"/>
<text text-anchor="middle" x="822" y="-496.3" font-family="Helvetica,sans-Serif" font-size="14.00">ZPoints</text>
</g>
<!-- ReadModelCoordinates&#45;&gt;ZPoints -->
<g id="edge5" class="edge"><title>ReadModelCoordinates&#45;&gt;ZPoints</title>
<path fill="none" stroke="black" d="M761.022,-553.697C771.126,-544.965 783.536,-534.24 794.518,-524.75"/>
<polygon fill="black" stroke="black" points="796.93,-527.291 802.208,-518.104 792.353,-521.995 796.93,-527.291"/>
</g>
<!-- ReadFacetsModel -->
<g id="node4" class="node"><title>ReadFacetsModel</title>
<polygon fill="#ccffcc" stroke="black" points="996,-590 856,-590 856,-554 996,-554 996,-590"/>
<text text-anchor="middle" x="926" y="-568.3" font-family="Courier,monospace" font-size="14.00">ReadFacetsModel</text>
</g>
<!-- Facets -->
<g id="node21" class="node"><title>Facets</title>
<path fill="#ffffcc" stroke="black" d="M957.5,-518C957.5,-518 924.5,-518 924.5,-518 918.5,-518 912.5,-512 912.5,-506 912.5,-506 912.5,-494 912.5,-494 912.5,-488 918.5,-482 924.5,-482 924.5,-482 957.5,-482 957.5,-482 963.5,-482 969.5,-488 969.5,-494 969.5,-494 969.5,-506 969.5,-506 969.5,-512 963.5,-518 957.5,-518"/>
<text text-anchor="middle" x="941" y="-496.3" font-family="Helvetica,sans-Serif" font-size="14.00">Facets</text>
</g>
<!-- ReadFacetsModel&#45;&gt;Facets -->
<g id="edge8" class="edge"><title>ReadFacetsModel&#45;&gt;Facets</title>
<path fill="none" stroke="black" d="M929.708,-553.697C931.361,-545.983 933.347,-536.712 935.19,-528.112"/>
<polygon fill="black" stroke="black" points="938.662,-528.616 937.335,-518.104 931.817,-527.149 938.662,-528.616"/>
</g>
<!-- GenerateTransposeMatrix -->
<g id="node5" class="node"><title>GenerateTransposeMatrix</title>
<polygon fill="#ccffcc" stroke="black" points="1077,-446 871,-446 871,-410 1077,-410 1077,-446"/>
<text text-anchor="middle" x="974" y="-424.3" font-family="Courier,monospace" font-size="14.00">GenerateTransposeMatrix</text>
</g>
<!-- Node1 -->
<g id="node25" class="node"><title>Node1</title>
<path fill="#ffffcc" stroke="black" d="M1016,-374C1016,-374 984,-374 984,-374 978,-374 972,-368 972,-362 972,-362 972,-350 972,-350 972,-344 978,-338 984,-338 984,-338 1016,-338 1016,-338 1022,-338 1028,-344 1028,-350 1028,-350 1028,-362 1028,-362 1028,-368 1022,-374 1016,-374"/>
<text text-anchor="middle" x="1000" y="-352.3" font-family="Helvetica,sans-Serif" font-size="14.00">Node1</text>
</g>
<!-- GenerateTransposeMatrix&#45;&gt;Node1 -->
<g id="edge11" class="edge"><title>GenerateTransposeMatrix&#45;&gt;Node1</title>
<path fill="none" stroke="black" d="M980.427,-409.697C983.355,-401.813 986.887,-392.304 990.14,-383.546"/>
<polygon fill="black" stroke="black" points="993.446,-384.697 993.647,-374.104 986.884,-382.26 993.446,-384.697"/>
</g>
<!-- Node2 -->
<g id="node26" class="node"><title>Node2</title>
<path fill="#ffffcc" stroke="black" d="M1090,-374C1090,-374 1058,-374 1058,-374 1052,-374 1046,-368 1046,-362 1046,-362 1046,-350 1046,-350 1046,-344 1052,-338 1058,-338 1058,-338 1090,-338 1090,-338 1096,-338 1102,-344 1102,-350 1102,-350 1102,-362 1102,-362 1102,-368 1096,-374 1090,-374"/>
<text text-anchor="middle" x="1074" y="-352.3" font-family="Helvetica,sans-Serif" font-size="14.00">Node2</text>
</g>
<!-- GenerateTransposeMatrix&#45;&gt;Node2 -->
<g id="edge12" class="edge"><title>GenerateTransposeMatrix&#45;&gt;Node2</title>
<path fill="none" stroke="black" d="M998.463,-409.876C1011.3,-400.893 1027.2,-389.763 1041.09,-380.034"/>
<polygon fill="black" stroke="black" points="1043.26,-382.792 1049.44,-374.19 1039.24,-377.057 1043.26,-382.792"/>
</g>
<!-- Node3 -->
<g id="node27" class="node"><title>Node3</title>
<path fill="#ffffcc" stroke="black" d="M942,-374C942,-374 910,-374 910,-374 904,-374 898,-368 898,-362 898,-362 898,-350 898,-350 898,-344 904,-338 910,-338 910,-338 942,-338 942,-338 948,-338 954,-344 954,-350 954,-350 954,-362 954,-362 954,-368 948,-374 942,-374"/>
<text text-anchor="middle" x="926" y="-352.3" font-family="Helvetica,sans-Serif" font-size="14.00">Node3</text>
</g>
<!-- GenerateTransposeMatrix&#45;&gt;Node3 -->
<g id="edge13" class="edge"><title>GenerateTransposeMatrix&#45;&gt;Node3</title>
<path fill="none" stroke="black" d="M962.135,-409.697C956.497,-401.474 949.646,-391.483 943.431,-382.421"/>
<polygon fill="black" stroke="black" points="946.271,-380.372 937.729,-374.104 940.497,-384.331 946.271,-380.372"/>
</g>
<!-- NTria -->
<g id="node43" class="node"><title>NTria</title>
<path fill="#ffffcc" stroke="black" d="M708,-302C708,-302 678,-302 678,-302 672,-302 666,-296 666,-290 666,-290 666,-278 666,-278 666,-272 672,-266 678,-266 678,-266 708,-266 708,-266 714,-266 720,-272 720,-278 720,-278 720,-290 720,-290 720,-296 714,-302 708,-302"/>
<text text-anchor="middle" x="693" y="-280.3" font-family="Helvetica,sans-Serif" font-size="14.00">NTria</text>
</g>
<!-- GenerateTransposeMatrix&#45;&gt;NTria -->
<g id="edge14" class="edge"><title>GenerateTransposeMatrix&#45;&gt;NTria</title>
<path fill="none" stroke="black" d="M909.606,-409.988C880.504,-401.119 846.179,-388.971 817,-374 781.569,-355.821 745.004,-328.315 720.847,-308.697"/>
<polygon fill="black" stroke="black" points="722.79,-305.763 712.842,-302.116 718.344,-311.17 722.79,-305.763"/>
</g>
<!-- GenerateCoordinatesPoints -->
<g id="node6" class="node"><title>GenerateCoordinatesPoints</title>
<polygon fill="#ccffcc" stroke="black" points="852.5,-446 629.5,-446 629.5,-410 852.5,-410 852.5,-446"/>
<text text-anchor="middle" x="741" y="-424.3" font-family="Courier,monospace" font-size="14.00">GenerateCoordinatesPoints</text>
</g>
<!-- Points -->
<g id="node28" class="node"><title>Points</title>
<path fill="#ffffcc" stroke="black" d="M868,-374C868,-374 838,-374 838,-374 832,-374 826,-368 826,-362 826,-362 826,-350 826,-350 826,-344 832,-338 838,-338 838,-338 868,-338 868,-338 874,-338 880,-344 880,-350 880,-350 880,-362 880,-362 880,-368 874,-374 868,-374"/>
<text text-anchor="middle" x="853" y="-352.3" font-family="Helvetica,sans-Serif" font-size="14.00">Points</text>
</g>
<!-- GenerateCoordinatesPoints&#45;&gt;Points -->
<g id="edge16" class="edge"><title>GenerateCoordinatesPoints&#45;&gt;Points</title>
<path fill="none" stroke="black" d="M768.398,-409.876C783.152,-400.655 801.525,-389.172 817.377,-379.265"/>
<polygon fill="black" stroke="black" points="819.26,-382.215 825.885,-373.947 815.55,-376.279 819.26,-382.215"/>
</g>
<!-- Plot3dGraphModel -->
<g id="node7" class="node"><title>Plot3dGraphModel</title>
<polygon fill="#ccffcc" stroke="black" points="1186.5,-302 1037.5,-302 1037.5,-266 1186.5,-266 1186.5,-302"/>
<text text-anchor="middle" x="1112" y="-280.3" font-family="Courier,monospace" font-size="14.00">Plot3dGraphModel</text>
</g>
<!-- Plot -->
<g id="node14" class="node"><title>Plot</title>
<path fill="#ffffcc" stroke="black" d="M1150,-230C1150,-230 1120,-230 1120,-230 1114,-230 1108,-224 1108,-218 1108,-218 1108,-206 1108,-206 1108,-200 1114,-194 1120,-194 1120,-194 1150,-194 1150,-194 1156,-194 1162,-200 1162,-206 1162,-206 1162,-218 1162,-218 1162,-224 1156,-230 1150,-230"/>
<text text-anchor="middle" x="1135" y="-208.3" font-family="Helvetica,sans-Serif" font-size="14.00">Plot</text>
</g>
<!-- Plot3dGraphModel&#45;&gt;Plot -->
<g id="edge20" class="edge"><title>Plot3dGraphModel&#45;&gt;Plot</title>
<path fill="none" stroke="black" d="M1117.69,-265.697C1120.25,-257.898 1123.33,-248.509 1126.18,-239.829"/>
<polygon fill="black" stroke="black" points="1129.58,-240.697 1129.38,-230.104 1122.93,-238.512 1129.58,-240.697"/>
</g>
<!-- CalculateRefsGeometryModel -->
<g id="node8" class="node"><title>CalculateRefsGeometryModel</title>
<polygon fill="#ccffcc" stroke="black" points="600.5,-446 369.5,-446 369.5,-410 600.5,-410 600.5,-446"/>
<text text-anchor="middle" x="485" y="-424.3" font-family="Courier,monospace" font-size="14.00">CalculateRefsGeometryModel</text>
</g>
<!-- IP -->
<g id="node29" class="node"><title>IP</title>
<path fill="#ffffcc" stroke="black" d="M638,-374C638,-374 608,-374 608,-374 602,-374 596,-368 596,-362 596,-362 596,-350 596,-350 596,-344 602,-338 608,-338 608,-338 638,-338 638,-338 644,-338 650,-344 650,-350 650,-350 650,-362 650,-362 650,-368 644,-374 638,-374"/>
<text text-anchor="middle" x="623" y="-352.3" font-family="Helvetica,sans-Serif" font-size="14.00">IP</text>
</g>
<!-- CalculateRefsGeometryModel&#45;&gt;IP -->
<g id="edge26" class="edge"><title>CalculateRefsGeometryModel&#45;&gt;IP</title>
<path fill="none" stroke="black" d="M518.759,-409.876C539.333,-399.44 565.622,-386.105 586.652,-375.438"/>
<polygon fill="black" stroke="black" points="588.272,-378.54 595.607,-370.895 585.105,-372.298 588.272,-378.54"/>
</g>
<!-- IT -->
<g id="node30" class="node"><title>IT</title>
<path fill="#ffffcc" stroke="black" d="M494,-374C494,-374 464,-374 464,-374 458,-374 452,-368 452,-362 452,-362 452,-350 452,-350 452,-344 458,-338 464,-338 464,-338 494,-338 494,-338 500,-338 506,-344 506,-350 506,-350 506,-362 506,-362 506,-368 500,-374 494,-374"/>
<text text-anchor="middle" x="479" y="-352.3" font-family="Helvetica,sans-Serif" font-size="14.00">IT</text>
</g>
<!-- CalculateRefsGeometryModel&#45;&gt;IT -->
<g id="edge25" class="edge"><title>CalculateRefsGeometryModel&#45;&gt;IT</title>
<path fill="none" stroke="black" d="M483.517,-409.697C482.856,-401.983 482.061,-392.712 481.324,-384.112"/>
<polygon fill="black" stroke="black" points="484.807,-383.769 480.466,-374.104 477.833,-384.367 484.807,-383.769"/>
</g>
<!-- DelP -->
<g id="node31" class="node"><title>DelP</title>
<path fill="#ffffcc" stroke="black" d="M566,-374C566,-374 536,-374 536,-374 530,-374 524,-368 524,-362 524,-362 524,-350 524,-350 524,-344 530,-338 536,-338 536,-338 566,-338 566,-338 572,-338 578,-344 578,-350 578,-350 578,-362 578,-362 578,-368 572,-374 566,-374"/>
<text text-anchor="middle" x="551" y="-352.3" font-family="Helvetica,sans-Serif" font-size="14.00">DelP</text>
</g>
<!-- CalculateRefsGeometryModel&#45;&gt;DelP -->
<g id="edge27" class="edge"><title>CalculateRefsGeometryModel&#45;&gt;DelP</title>
<path fill="none" stroke="black" d="M501.315,-409.697C509.307,-401.22 519.072,-390.864 527.822,-381.583"/>
<polygon fill="black" stroke="black" points="530.559,-383.781 534.873,-374.104 525.466,-378.979 530.559,-383.781"/>
</g>
<!-- DelT -->
<g id="node32" class="node"><title>DelT</title>
<path fill="#ffffcc" stroke="black" d="M422,-374C422,-374 392,-374 392,-374 386,-374 380,-368 380,-362 380,-362 380,-350 380,-350 380,-344 386,-338 392,-338 392,-338 422,-338 422,-338 428,-338 434,-344 434,-350 434,-350 434,-362 434,-362 434,-368 428,-374 422,-374"/>
<text text-anchor="middle" x="407" y="-352.3" font-family="Helvetica,sans-Serif" font-size="14.00">DelT</text>
</g>
<!-- CalculateRefsGeometryModel&#45;&gt;DelT -->
<g id="edge28" class="edge"><title>CalculateRefsGeometryModel&#45;&gt;DelT</title>
<path fill="none" stroke="black" d="M465.719,-409.697C456.085,-401.05 444.271,-390.449 433.773,-381.027"/>
<polygon fill="black" stroke="black" points="435.839,-378.179 426.059,-374.104 431.164,-383.388 435.839,-378.179"/>
</g>
<!-- CalculateEdgesAndNormalTriangles -->
<g id="node9" class="node"><title>CalculateEdgesAndNormalTriangles</title>
<polygon fill="#ccffcc" stroke="black" points="1019.5,-302 738.5,-302 738.5,-266 1019.5,-266 1019.5,-302"/>
<text text-anchor="middle" x="879" y="-280.3" font-family="Courier,monospace" font-size="14.00">CalculateEdgesAndNormalTriangles</text>
</g>
<!-- Alpha -->
<g id="node45" class="node"><title>Alpha</title>
<path fill="#ffffcc" stroke="black" d="M915,-230C915,-230 885,-230 885,-230 879,-230 873,-224 873,-218 873,-218 873,-206 873,-206 873,-200 879,-194 885,-194 885,-194 915,-194 915,-194 921,-194 927,-200 927,-206 927,-206 927,-218 927,-218 927,-224 921,-230 915,-230"/>
<text text-anchor="middle" x="900" y="-208.3" font-family="Helvetica,sans-Serif" font-size="14.00">Alpha</text>
</g>
<!-- CalculateEdgesAndNormalTriangles&#45;&gt;Alpha -->
<g id="edge30" class="edge"><title>CalculateEdgesAndNormalTriangles&#45;&gt;Alpha</title>
<path fill="none" stroke="black" d="M884.191,-265.697C886.531,-257.898 889.347,-248.509 891.951,-239.829"/>
<polygon fill="black" stroke="black" points="895.348,-240.688 894.869,-230.104 888.643,-238.677 895.348,-240.688"/>
</g>
<!-- Beta -->
<g id="node46" class="node"><title>Beta</title>
<path fill="#ffffcc" stroke="black" d="M993,-230C993,-230 963,-230 963,-230 957,-230 951,-224 951,-218 951,-218 951,-206 951,-206 951,-200 957,-194 963,-194 963,-194 993,-194 993,-194 999,-194 1005,-200 1005,-206 1005,-206 1005,-218 1005,-218 1005,-224 999,-230 993,-230"/>
<text text-anchor="middle" x="978" y="-208.3" font-family="Helvetica,sans-Serif" font-size="14.00">Beta</text>
</g>
<!-- CalculateEdgesAndNormalTriangles&#45;&gt;Beta -->
<g id="edge29" class="edge"><title>CalculateEdgesAndNormalTriangles&#45;&gt;Beta</title>
<path fill="none" stroke="black" d="M903.218,-265.876C915.923,-256.893 931.664,-245.763 945.423,-236.034"/>
<polygon fill="black" stroke="black" points="947.544,-238.821 953.689,-230.19 943.503,-233.105 947.544,-238.821"/>
</g>
<!-- CalculateGlobalAnglesAndDirections -->
<g id="node10" class="node"><title>CalculateGlobalAnglesAndDirections</title>
<polygon fill="#ccffcc" stroke="black" points="627.5,-302 330.5,-302 330.5,-266 627.5,-266 627.5,-302"/>
<text text-anchor="middle" x="479" y="-280.3" font-family="Courier,monospace" font-size="14.00">CalculateGlobalAnglesAndDirections</text>
</g>
<!-- U -->
<g id="node33" class="node"><title>U</title>
<path fill="#ffffcc" stroke="black" d="M570,-230C570,-230 540,-230 540,-230 534,-230 528,-224 528,-218 528,-218 528,-206 528,-206 528,-200 534,-194 540,-194 540,-194 570,-194 570,-194 576,-194 582,-200 582,-206 582,-206 582,-218 582,-218 582,-224 576,-230 570,-230"/>
<text text-anchor="middle" x="555" y="-208.3" font-family="Helvetica,sans-Serif" font-size="14.00">U</text>
</g>
<!-- CalculateGlobalAnglesAndDirections&#45;&gt;U -->
<g id="edge35" class="edge"><title>CalculateGlobalAnglesAndDirections&#45;&gt;U</title>
<path fill="none" stroke="black" d="M497.787,-265.697C507.174,-257.05 518.684,-246.449 528.913,-237.027"/>
<polygon fill="black" stroke="black" points="531.445,-239.454 536.43,-230.104 526.703,-234.305 531.445,-239.454"/>
</g>
<!-- V -->
<g id="node34" class="node"><title>V</title>
<path fill="#ffffcc" stroke="black" d="M642,-230C642,-230 612,-230 612,-230 606,-230 600,-224 600,-218 600,-218 600,-206 600,-206 600,-200 606,-194 612,-194 612,-194 642,-194 642,-194 648,-194 654,-200 654,-206 654,-206 654,-218 654,-218 654,-224 648,-230 642,-230"/>
<text text-anchor="middle" x="627" y="-208.3" font-family="Helvetica,sans-Serif" font-size="14.00">V</text>
</g>
<!-- CalculateGlobalAnglesAndDirections&#45;&gt;V -->
<g id="edge36" class="edge"><title>CalculateGlobalAnglesAndDirections&#45;&gt;V</title>
<path fill="none" stroke="black" d="M515.205,-265.876C538.22,-254.99 567.903,-240.951 590.899,-230.075"/>
<polygon fill="black" stroke="black" points="592.444,-233.216 599.988,-225.776 589.451,-226.888 592.444,-233.216"/>
</g>
<!-- W -->
<g id="node35" class="node"><title>W</title>
<path fill="#ffffcc" stroke="black" d="M714,-230C714,-230 684,-230 684,-230 678,-230 672,-224 672,-218 672,-218 672,-206 672,-206 672,-200 678,-194 684,-194 684,-194 714,-194 714,-194 720,-194 726,-200 726,-206 726,-206 726,-218 726,-218 726,-224 720,-230 714,-230"/>
<text text-anchor="middle" x="699" y="-208.3" font-family="Helvetica,sans-Serif" font-size="14.00">W</text>
</g>
<!-- CalculateGlobalAnglesAndDirections&#45;&gt;W -->
<g id="edge37" class="edge"><title>CalculateGlobalAnglesAndDirections&#45;&gt;W</title>
<path fill="none" stroke="black" d="M548.013,-265.943C580.529,-257.247 619.867,-245.781 662.292,-230.001"/>
<polygon fill="black" stroke="black" points="663.56,-233.264 671.679,-226.457 661.087,-226.715 663.56,-233.264"/>
</g>
<!-- UU -->
<g id="node36" class="node"><title>UU</title>
<path fill="#ffffcc" stroke="black" d="M282,-230C282,-230 252,-230 252,-230 246,-230 240,-224 240,-218 240,-218 240,-206 240,-206 240,-200 246,-194 252,-194 252,-194 282,-194 282,-194 288,-194 294,-200 294,-206 294,-206 294,-218 294,-218 294,-224 288,-230 282,-230"/>
<text text-anchor="middle" x="267" y="-208.3" font-family="Helvetica,sans-Serif" font-size="14.00">UU</text>
</g>
<!-- CalculateGlobalAnglesAndDirections&#45;&gt;UU -->
<g id="edge38" class="edge"><title>CalculateGlobalAnglesAndDirections&#45;&gt;UU</title>
<path fill="none" stroke="black" d="M414.274,-265.999C383.037,-257.215 344.987,-245.668 303.745,-230.039"/>
<polygon fill="black" stroke="black" points="304.925,-226.743 294.335,-226.422 302.413,-233.277 304.925,-226.743"/>
</g>
<!-- VV -->
<g id="node37" class="node"><title>VV</title>
<path fill="#ffffcc" stroke="black" d="M354,-230C354,-230 324,-230 324,-230 318,-230 312,-224 312,-218 312,-218 312,-206 312,-206 312,-200 318,-194 324,-194 324,-194 354,-194 354,-194 360,-194 366,-200 366,-206 366,-206 366,-218 366,-218 366,-224 360,-230 354,-230"/>
<text text-anchor="middle" x="339" y="-208.3" font-family="Helvetica,sans-Serif" font-size="14.00">VV</text>
</g>
<!-- CalculateGlobalAnglesAndDirections&#45;&gt;VV -->
<g id="edge39" class="edge"><title>CalculateGlobalAnglesAndDirections&#45;&gt;VV</title>
<path fill="none" stroke="black" d="M444.752,-265.876C423.738,-255.369 396.849,-241.924 375.443,-231.222"/>
<polygon fill="black" stroke="black" points="376.847,-228.01 366.337,-226.669 373.716,-234.271 376.847,-228.01"/>
</g>
<!-- WW -->
<g id="node38" class="node"><title>WW</title>
<path fill="#ffffcc" stroke="black" d="M426,-230C426,-230 396,-230 396,-230 390,-230 384,-224 384,-218 384,-218 384,-206 384,-206 384,-200 390,-194 396,-194 396,-194 426,-194 426,-194 432,-194 438,-200 438,-206 438,-206 438,-218 438,-218 438,-224 432,-230 426,-230"/>
<text text-anchor="middle" x="411" y="-208.3" font-family="Helvetica,sans-Serif" font-size="14.00">WW</text>
</g>
<!-- CalculateGlobalAnglesAndDirections&#45;&gt;WW -->
<g id="edge40" class="edge"><title>CalculateGlobalAnglesAndDirections&#45;&gt;WW</title>
<path fill="none" stroke="black" d="M462.191,-265.697C453.874,-257.135 443.695,-246.656 434.61,-237.304"/>
<polygon fill="black" stroke="black" points="437.094,-234.838 427.616,-230.104 432.073,-239.716 437.094,-234.838"/>
</g>
<!-- SP -->
<g id="node41" class="node"><title>SP</title>
<path fill="#ffffcc" stroke="black" d="M498,-230C498,-230 468,-230 468,-230 462,-230 456,-224 456,-218 456,-218 456,-206 456,-206 456,-200 462,-194 468,-194 468,-194 498,-194 498,-194 504,-194 510,-200 510,-206 510,-206 510,-218 510,-218 510,-224 504,-230 498,-230"/>
<text text-anchor="middle" x="483" y="-208.3" font-family="Helvetica,sans-Serif" font-size="14.00">SP</text>
</g>
<!-- CalculateGlobalAnglesAndDirections&#45;&gt;SP -->
<g id="edge41" class="edge"><title>CalculateGlobalAnglesAndDirections&#45;&gt;SP</title>
<path fill="none" stroke="black" d="M479.989,-265.697C480.43,-257.983 480.959,-248.712 481.451,-240.112"/>
<polygon fill="black" stroke="black" points="484.946,-240.288 482.023,-230.104 477.958,-239.888 484.946,-240.288"/>
</g>
<!-- CP -->
<g id="node42" class="node"><title>CP</title>
<path fill="#ffffcc" stroke="black" d="M210,-230C210,-230 180,-230 180,-230 174,-230 168,-224 168,-218 168,-218 168,-206 168,-206 168,-200 174,-194 180,-194 180,-194 210,-194 210,-194 216,-194 222,-200 222,-206 222,-206 222,-218 222,-218 222,-224 216,-230 210,-230"/>
<text text-anchor="middle" x="195" y="-208.3" font-family="Helvetica,sans-Serif" font-size="14.00">CP</text>
</g>
<!-- CalculateGlobalAnglesAndDirections&#45;&gt;CP -->
<g id="edge42" class="edge"><title>CalculateGlobalAnglesAndDirections&#45;&gt;CP</title>
<path fill="none" stroke="black" d="M373.177,-265.958C331.257,-257.864 282.739,-246.82 231.788,-229.893"/>
<polygon fill="black" stroke="black" points="232.842,-226.554 222.248,-226.663 230.597,-233.185 232.842,-226.554"/>
</g>
<!-- D0 -->
<g id="node44" class="node"><title>D0</title>
<path fill="#ffffcc" stroke="black" d="M786,-230C786,-230 756,-230 756,-230 750,-230 744,-224 744,-218 744,-218 744,-206 744,-206 744,-200 750,-194 756,-194 756,-194 786,-194 786,-194 792,-194 798,-200 798,-206 798,-206 798,-218 798,-218 798,-224 792,-230 786,-230"/>
<text text-anchor="middle" x="771" y="-208.3" font-family="Helvetica,sans-Serif" font-size="14.00">D0</text>
</g>
<!-- CalculateGlobalAnglesAndDirections&#45;&gt;D0 -->
<g id="edge43" class="edge"><title>CalculateGlobalAnglesAndDirections&#45;&gt;D0</title>
<path fill="none" stroke="black" d="M589.827,-265.984C632.768,-257.959 682.223,-246.96 734.054,-229.932"/>
<polygon fill="black" stroke="black" points="735.388,-233.177 743.759,-226.682 733.165,-226.539 735.388,-233.177"/>
</g>
<!-- CalculateSphericalCoordinateSystemRadialUnitVector -->
<g id="node11" class="node"><title>CalculateSphericalCoordinateSystemRadialUnitVector</title>
<polygon fill="#ccffcc" stroke="black" points="900.5,-158 471.5,-158 471.5,-122 900.5,-122 900.5,-158"/>
<text text-anchor="middle" x="686" y="-136.3" font-family="Courier,monospace" font-size="14.00">CalculateSphericalCoordinateSystemRadialUnitVector</text>
</g>
<!-- R -->
<g id="node17" class="node"><title>R</title>
<path fill="#ffffcc" stroke="black" d="M701,-86C701,-86 671,-86 671,-86 665,-86 659,-80 659,-74 659,-74 659,-62 659,-62 659,-56 665,-50 671,-50 671,-50 701,-50 701,-50 707,-50 713,-56 713,-62 713,-62 713,-74 713,-74 713,-80 707,-86 701,-86"/>
<text text-anchor="middle" x="686" y="-64.3" font-family="Helvetica,sans-Serif" font-size="14.00">R</text>
</g>
<!-- CalculateSphericalCoordinateSystemRadialUnitVector&#45;&gt;R -->
<g id="edge48" class="edge"><title>CalculateSphericalCoordinateSystemRadialUnitVector&#45;&gt;R</title>
<path fill="none" stroke="black" d="M686,-121.697C686,-113.983 686,-104.712 686,-96.1124"/>
<polygon fill="black" stroke="black" points="689.5,-96.1043 686,-86.1043 682.5,-96.1044 689.5,-96.1043"/>
</g>
<!-- CalculateIncidentFieldInGlobalCartesianCoordinates -->
<g id="node12" class="node"><title>CalculateIncidentFieldInGlobalCartesianCoordinates</title>
<polygon fill="#ccffcc" stroke="black" points="453.5,-158 24.5,-158 24.5,-122 453.5,-122 453.5,-158"/>
<text text-anchor="middle" x="239" y="-136.3" font-family="Courier,monospace" font-size="14.00">CalculateIncidentFieldInGlobalCartesianCoordinates</text>
</g>
<!-- E0 -->
<g id="node15" class="node"><title>E0</title>
<path fill="#ffffcc" stroke="black" d="M254,-86C254,-86 224,-86 224,-86 218,-86 212,-80 212,-74 212,-74 212,-62 212,-62 212,-56 218,-50 224,-50 224,-50 254,-50 254,-50 260,-50 266,-56 266,-62 266,-62 266,-74 266,-74 266,-80 260,-86 254,-86"/>
<text text-anchor="middle" x="239" y="-64.3" font-family="Helvetica,sans-Serif" font-size="14.00">E0</text>
</g>
<!-- CalculateIncidentFieldInGlobalCartesianCoordinates&#45;&gt;E0 -->
<g id="edge52" class="edge"><title>CalculateIncidentFieldInGlobalCartesianCoordinates&#45;&gt;E0</title>
<path fill="none" stroke="black" d="M239,-121.697C239,-113.983 239,-104.712 239,-96.1124"/>
<polygon fill="black" stroke="black" points="242.5,-96.1043 239,-86.1043 235.5,-96.1044 242.5,-96.1043"/>
</g>
<!-- CalculateIlumFaces -->
<g id="node13" class="node"><title>CalculateIlumFaces</title>
<polygon fill="#ccffcc" stroke="black" points="1083.5,-158 918.5,-158 918.5,-122 1083.5,-122 1083.5,-158"/>
<text text-anchor="middle" x="1001" y="-136.3" font-family="Courier,monospace" font-size="14.00">CalculateIlumFaces</text>
</g>
<!-- T1 -->
<g id="node16" class="node"><title>T1</title>
<path fill="#ffffcc" stroke="black" d="M1016,-86C1016,-86 986,-86 986,-86 980,-86 974,-80 974,-74 974,-74 974,-62 974,-62 974,-56 980,-50 986,-50 986,-50 1016,-50 1016,-50 1022,-50 1028,-56 1028,-62 1028,-62 1028,-74 1028,-74 1028,-80 1022,-86 1016,-86"/>
<text text-anchor="middle" x="1001" y="-64.3" font-family="Helvetica,sans-Serif" font-size="14.00">T1</text>
</g>
<!-- CalculateIlumFaces&#45;&gt;T1 -->
<g id="edge60" class="edge"><title>CalculateIlumFaces&#45;&gt;T1</title>
<path fill="none" stroke="black" d="M1001,-121.697C1001,-113.983 1001,-104.712 1001,-96.1124"/>
<polygon fill="black" stroke="black" points="1004.5,-96.1043 1001,-86.1043 997.5,-96.1044 1004.5,-96.1043"/>
</g>
<!-- Plot_output_port -->
<g id="node50" class="node"><title>Plot_output_port</title>
<ellipse fill="#ffffff" stroke="black" cx="1217" cy="-140" rx="7" ry="7"/>
</g>
<!-- Plot&#45;&gt;Plot_output_port -->
<g id="edge69" class="edge"><title>Plot&#45;&gt;Plot_output_port</title>
<path fill="none" stroke="black" d="M1155.56,-193.971C1167.94,-183.654 1183.97,-170.177 1198,-158 1200.11,-156.173 1202.33,-154.215 1204.48,-152.302"/>
<polygon fill="black" stroke="black" points="1206.93,-154.801 1212.04,-145.516 1202.26,-149.592 1206.93,-154.801"/>
</g>
<!-- E0_output_port -->
<g id="node51" class="node"><title>E0_output_port</title>
<ellipse fill="#ffffff" stroke="black" cx="239" cy="-7" rx="7" ry="7"/>
</g>
<!-- E0&#45;&gt;E0_output_port -->
<g id="edge70" class="edge"><title>E0&#45;&gt;E0_output_port</title>
<path fill="none" stroke="black" d="M239,-49.9348C239,-41.8859 239,-32.3254 239,-24.3671"/>
<polygon fill="black" stroke="black" points="242.5,-24.2164 239,-14.2164 235.5,-24.2165 242.5,-24.2164"/>
</g>
<!-- T1_output_port -->
<g id="node52" class="node"><title>T1_output_port</title>
<ellipse fill="#ffffff" stroke="black" cx="1001" cy="-7" rx="7" ry="7"/>
</g>
<!-- T1&#45;&gt;T1_output_port -->
<g id="edge71" class="edge"><title>T1&#45;&gt;T1_output_port</title>
<path fill="none" stroke="black" d="M1001,-49.9348C1001,-41.8859 1001,-32.3254 1001,-24.3671"/>
<polygon fill="black" stroke="black" points="1004.5,-24.2164 1001,-14.2164 997.5,-24.2165 1004.5,-24.2164"/>
</g>
<!-- R_output_port -->
<g id="node53" class="node"><title>R_output_port</title>
<ellipse fill="#ffffff" stroke="black" cx="686" cy="-7" rx="7" ry="7"/>
</g>
<!-- R&#45;&gt;R_output_port -->
<g id="edge72" class="edge"><title>R&#45;&gt;R_output_port</title>
<path fill="none" stroke="black" d="M686,-49.9348C686,-41.8859 686,-32.3254 686,-24.3671"/>
<polygon fill="black" stroke="black" points="689.5,-24.2164 686,-14.2164 682.5,-24.2165 689.5,-24.2164"/>
</g>
<!-- Name -->
<g id="node18" class="node"><title>Name</title>
<path fill="#ffffcc" stroke="black" d="M827,-667.5C827,-667.5 797,-667.5 797,-667.5 791,-667.5 785,-661.5 785,-655.5 785,-655.5 785,-643.5 785,-643.5 785,-637.5 791,-631.5 797,-631.5 797,-631.5 827,-631.5 827,-631.5 833,-631.5 839,-637.5 839,-643.5 839,-643.5 839,-655.5 839,-655.5 839,-661.5 833,-667.5 827,-667.5"/>
<text text-anchor="middle" x="812" y="-645.8" font-family="Helvetica,sans-Serif" font-size="14.00">Name</text>
</g>
<!-- Name&#45;&gt;ReadModelCoordinates -->
<g id="edge6" class="edge"><title>Name&#45;&gt;ReadModelCoordinates</title>
<path fill="none" stroke="black" d="M795.889,-631.368C786.448,-621.329 774.368,-608.483 763.945,-597.4"/>
<polygon fill="black" stroke="black" points="766.448,-594.951 757.047,-590.064 761.348,-599.747 766.448,-594.951"/>
</g>
<!-- Name&#45;&gt;ReadFacetsModel -->
<g id="edge9" class="edge"><title>Name&#45;&gt;ReadFacetsModel</title>
<path fill="none" stroke="black" d="M837.868,-631.368C853.756,-620.846 874.298,-607.241 891.553,-595.814"/>
<polygon fill="black" stroke="black" points="893.829,-598.504 900.234,-590.064 889.964,-592.668 893.829,-598.504"/>
</g>
<!-- CoordinatesFile -->
<g id="node19" class="node"><title>CoordinatesFile</title>
<path fill="#ffffcc" stroke="black" d="M609,-626.5C609,-626.5 755,-626.5 755,-626.5 761,-626.5 767,-632.5 767,-638.5 767,-638.5 767,-660.5 767,-660.5 767,-666.5 761,-672.5 755,-672.5 755,-672.5 609,-672.5 609,-672.5 603,-672.5 597,-666.5 597,-660.5 597,-660.5 597,-638.5 597,-638.5 597,-632.5 603,-626.5 609,-626.5"/>
<text text-anchor="middle" x="682" y="-657.3" font-family="Helvetica,sans-Serif" font-size="14.00">CoordinatesFile</text>
<polyline fill="none" stroke="black" points="597,-649.5 767,-649.5 "/>
<text text-anchor="middle" x="682" y="-634.3" font-family="Helvetica,sans-Serif" font-size="14.00">file:{name}/coordinates.m</text>
</g>
<!-- CoordinatesFile&#45;&gt;ReadModelCoordinates -->
<g id="edge7" class="edge"><title>CoordinatesFile&#45;&gt;ReadModelCoordinates</title>
<path fill="none" stroke="black" d="M699.383,-626.256C706.253,-617.464 714.185,-607.314 721.27,-598.248"/>
<polygon fill="black" stroke="black" points="724.083,-600.332 727.483,-590.298 718.567,-596.022 724.083,-600.332"/>
</g>
<!-- FacetsFile -->
<g id="node20" class="node"><title>FacetsFile</title>
<path fill="#ffffcc" stroke="black" d="M869.5,-626.5C869.5,-626.5 982.5,-626.5 982.5,-626.5 988.5,-626.5 994.5,-632.5 994.5,-638.5 994.5,-638.5 994.5,-660.5 994.5,-660.5 994.5,-666.5 988.5,-672.5 982.5,-672.5 982.5,-672.5 869.5,-672.5 869.5,-672.5 863.5,-672.5 857.5,-666.5 857.5,-660.5 857.5,-660.5 857.5,-638.5 857.5,-638.5 857.5,-632.5 863.5,-626.5 869.5,-626.5"/>
<text text-anchor="middle" x="926" y="-657.3" font-family="Helvetica,sans-Serif" font-size="14.00">FacetsFile</text>
<polyline fill="none" stroke="black" points="857.5,-649.5 994.5,-649.5 "/>
<text text-anchor="middle" x="926" y="-634.3" font-family="Helvetica,sans-Serif" font-size="14.00">file:{name}/facets.m</text>
</g>
<!-- FacetsFile&#45;&gt;ReadFacetsModel -->
<g id="edge10" class="edge"><title>FacetsFile&#45;&gt;ReadFacetsModel</title>
<path fill="none" stroke="black" d="M926,-626.256C926,-618.182 926,-608.962 926,-600.489"/>
<polygon fill="black" stroke="black" points="929.5,-600.298 926,-590.298 922.5,-600.298 929.5,-600.298"/>
</g>
<!-- Facets&#45;&gt;GenerateTransposeMatrix -->
<g id="edge15" class="edge"><title>Facets&#45;&gt;GenerateTransposeMatrix</title>
<path fill="none" stroke="black" d="M949.157,-481.697C952.914,-473.728 957.453,-464.1 961.618,-455.264"/>
<polygon fill="black" stroke="black" points="964.838,-456.642 965.937,-446.104 958.506,-453.657 964.838,-456.642"/>
</g>
<!-- XPoints&#45;&gt;GenerateCoordinatesPoints -->
<g id="edge17" class="edge"><title>XPoints&#45;&gt;GenerateCoordinatesPoints</title>
<path fill="none" stroke="black" d="M680.022,-481.697C690.126,-472.965 702.536,-462.24 713.518,-452.75"/>
<polygon fill="black" stroke="black" points="715.93,-455.291 721.208,-446.104 711.353,-449.995 715.93,-455.291"/>
</g>
<!-- YPoints&#45;&gt;GenerateCoordinatesPoints -->
<g id="edge18" class="edge"><title>YPoints&#45;&gt;GenerateCoordinatesPoints</title>
<path fill="none" stroke="black" d="M741,-481.697C741,-473.983 741,-464.712 741,-456.112"/>
<polygon fill="black" stroke="black" points="744.5,-456.104 741,-446.104 737.5,-456.104 744.5,-456.104"/>
</g>
<!-- ZPoints&#45;&gt;GenerateCoordinatesPoints -->
<g id="edge19" class="edge"><title>ZPoints&#45;&gt;GenerateCoordinatesPoints</title>
<path fill="none" stroke="black" d="M801.978,-481.697C791.874,-472.965 779.464,-462.24 768.482,-452.75"/>
<polygon fill="black" stroke="black" points="770.647,-449.995 760.792,-446.104 766.07,-455.291 770.647,-449.995"/>
</g>
<!-- Node1&#45;&gt;Plot3dGraphModel -->
<g id="edge21" class="edge"><title>Node1&#45;&gt;Plot3dGraphModel</title>
<path fill="none" stroke="black" d="M1027.4,-337.876C1041.91,-328.808 1059.92,-317.552 1075.59,-307.759"/>
<polygon fill="black" stroke="black" points="1077.87,-310.458 1084.5,-302.19 1074.16,-304.522 1077.87,-310.458"/>
</g>
<!-- Node1&#45;&gt;CalculateEdgesAndNormalTriangles -->
<g id="edge31" class="edge"><title>Node1&#45;&gt;CalculateEdgesAndNormalTriangles</title>
<path fill="none" stroke="black" d="M971.936,-338.765C955.765,-329.41 935.206,-317.516 917.537,-307.294"/>
<polygon fill="black" stroke="black" points="919.008,-304.102 908.6,-302.124 915.503,-310.161 919.008,-304.102"/>
</g>
<!-- Node2&#45;&gt;Plot3dGraphModel -->
<g id="edge22" class="edge"><title>Node2&#45;&gt;Plot3dGraphModel</title>
<path fill="none" stroke="black" d="M1083.39,-337.697C1087.76,-329.644 1093.06,-319.894 1097.9,-310.982"/>
<polygon fill="black" stroke="black" points="1101.02,-312.563 1102.71,-302.104 1094.87,-309.223 1101.02,-312.563"/>
</g>
<!-- Node2&#45;&gt;CalculateEdgesAndNormalTriangles -->
<g id="edge32" class="edge"><title>Node2&#45;&gt;CalculateEdgesAndNormalTriangles</title>
<path fill="none" stroke="black" d="M1045.85,-341.691C1042.88,-340.4 1039.89,-339.146 1037,-338 1006.91,-326.081 972.953,-314.459 944.25,-305.151"/>
<polygon fill="black" stroke="black" points="945.322,-301.819 934.73,-302.085 943.176,-308.482 945.322,-301.819"/>
</g>
<!-- Node3&#45;&gt;Plot3dGraphModel -->
<g id="edge23" class="edge"><title>Node3&#45;&gt;Plot3dGraphModel</title>
<path fill="none" stroke="black" d="M954.169,-341.745C957.135,-340.443 960.119,-339.172 963,-338 991.541,-326.394 1023.69,-314.779 1050.8,-305.393"/>
<polygon fill="black" stroke="black" points="1052.23,-308.603 1060.55,-302.04 1049.95,-301.984 1052.23,-308.603"/>
</g>
<!-- Node3&#45;&gt;CalculateEdgesAndNormalTriangles -->
<g id="edge33" class="edge"><title>Node3&#45;&gt;CalculateEdgesAndNormalTriangles</title>
<path fill="none" stroke="black" d="M914.382,-337.697C908.861,-329.474 902.153,-319.483 896.068,-310.421"/>
<polygon fill="black" stroke="black" points="898.965,-308.456 890.484,-302.104 893.153,-312.358 898.965,-308.456"/>
</g>
<!-- Points&#45;&gt;Plot3dGraphModel -->
<g id="edge24" class="edge"><title>Points&#45;&gt;Plot3dGraphModel</title>
<path fill="none" stroke="black" d="M880.271,-341.404C883.183,-340.169 886.13,-339.006 889,-338 914.489,-329.062 975.651,-314.7 1027.49,-303.18"/>
<polygon fill="black" stroke="black" points="1028.37,-306.568 1037.38,-300.99 1026.86,-299.734 1028.37,-306.568"/>
</g>
<!-- Points&#45;&gt;CalculateEdgesAndNormalTriangles -->
<g id="edge34" class="edge"><title>Points&#45;&gt;CalculateEdgesAndNormalTriangles</title>
<path fill="none" stroke="black" d="M859.427,-337.697C862.355,-329.813 865.887,-320.304 869.14,-311.546"/>
<polygon fill="black" stroke="black" points="872.446,-312.697 872.647,-302.104 865.884,-310.26 872.446,-312.697"/>
</g>
<!-- IP&#45;&gt;CalculateGlobalAnglesAndDirections -->
<g id="edge44" class="edge"><title>IP&#45;&gt;CalculateGlobalAnglesAndDirections</title>
<path fill="none" stroke="black" d="M595.915,-341.834C575.488,-331.904 547.032,-318.071 523.308,-306.538"/>
<polygon fill="black" stroke="black" points="524.664,-303.306 514.14,-302.082 521.604,-309.602 524.664,-303.306"/>
</g>
<!-- IP&#45;&gt;CalculateIlumFaces -->
<g id="edge63" class="edge"><title>IP&#45;&gt;CalculateIlumFaces</title>
<path fill="none" stroke="black" d="M627.465,-337.954C633.822,-314.948 645.94,-275.715 657,-266 708.511,-220.756 754.819,-274.47 807,-230 820.193,-218.757 809.106,-205.584 822,-194 835.722,-181.672 872.63,-169.829 909.393,-160.477"/>
<polygon fill="black" stroke="black" points="910.369,-163.841 919.228,-158.031 908.679,-157.048 910.369,-163.841"/>
</g>
<!-- IT&#45;&gt;CalculateGlobalAnglesAndDirections -->
<g id="edge45" class="edge"><title>IT&#45;&gt;CalculateGlobalAnglesAndDirections</title>
<path fill="none" stroke="black" d="M479,-337.697C479,-329.983 479,-320.712 479,-312.112"/>
<polygon fill="black" stroke="black" points="482.5,-312.104 479,-302.104 475.5,-312.104 482.5,-312.104"/>
</g>
<!-- DelP&#45;&gt;CalculateGlobalAnglesAndDirections -->
<g id="edge46" class="edge"><title>DelP&#45;&gt;CalculateGlobalAnglesAndDirections</title>
<path fill="none" stroke="black" d="M533.202,-337.697C524.396,-329.135 513.618,-318.656 503.999,-309.304"/>
<polygon fill="black" stroke="black" points="506.203,-306.566 496.593,-302.104 501.323,-311.585 506.203,-306.566"/>
</g>
<!-- DelT&#45;&gt;CalculateGlobalAnglesAndDirections -->
<g id="edge47" class="edge"><title>DelT&#45;&gt;CalculateGlobalAnglesAndDirections</title>
<path fill="none" stroke="black" d="M424.798,-337.697C433.604,-329.135 444.382,-318.656 454.001,-309.304"/>
<polygon fill="black" stroke="black" points="456.677,-311.585 461.407,-302.104 451.797,-306.566 456.677,-311.585"/>
</g>
<!-- U&#45;&gt;CalculateSphericalCoordinateSystemRadialUnitVector -->
<g id="edge49" class="edge"><title>U&#45;&gt;CalculateSphericalCoordinateSystemRadialUnitVector</title>
<path fill="none" stroke="black" d="M582.143,-196.496C600.21,-186.842 624.289,-173.975 644.713,-163.062"/>
<polygon fill="black" stroke="black" points="646.634,-166.004 653.804,-158.204 643.335,-159.83 646.634,-166.004"/>
</g>
<!-- V&#45;&gt;CalculateSphericalCoordinateSystemRadialUnitVector -->
<g id="edge50" class="edge"><title>V&#45;&gt;CalculateSphericalCoordinateSystemRadialUnitVector</title>
<path fill="none" stroke="black" d="M641.584,-193.697C648.658,-185.305 657.283,-175.07 665.045,-165.861"/>
<polygon fill="black" stroke="black" points="667.815,-168.006 671.583,-158.104 662.463,-163.495 667.815,-168.006"/>
</g>
<!-- W&#45;&gt;CalculateSphericalCoordinateSystemRadialUnitVector -->
<g id="edge51" class="edge"><title>W&#45;&gt;CalculateSphericalCoordinateSystemRadialUnitVector</title>
<path fill="none" stroke="black" d="M695.787,-193.697C694.354,-185.983 692.632,-176.712 691.035,-168.112"/>
<polygon fill="black" stroke="black" points="694.444,-167.297 689.177,-158.104 687.561,-168.575 694.444,-167.297"/>
</g>
<!-- UU&#45;&gt;CalculateIncidentFieldInGlobalCartesianCoordinates -->
<g id="edge53" class="edge"><title>UU&#45;&gt;CalculateIncidentFieldInGlobalCartesianCoordinates</title>
<path fill="none" stroke="black" d="M260.079,-193.697C256.925,-185.813 253.122,-176.304 249.619,-167.546"/>
<polygon fill="black" stroke="black" points="252.805,-166.089 245.842,-158.104 246.306,-168.689 252.805,-166.089"/>
</g>
<!-- VV&#45;&gt;CalculateIncidentFieldInGlobalCartesianCoordinates -->
<g id="edge54" class="edge"><title>VV&#45;&gt;CalculateIncidentFieldInGlobalCartesianCoordinates</title>
<path fill="none" stroke="black" d="M314.537,-193.876C301.704,-184.893 285.804,-173.763 271.906,-164.034"/>
<polygon fill="black" stroke="black" points="273.756,-161.057 263.557,-158.19 269.742,-166.792 273.756,-161.057"/>
</g>
<!-- WW&#45;&gt;CalculateIncidentFieldInGlobalCartesianCoordinates -->
<g id="edge55" class="edge"><title>WW&#45;&gt;CalculateIncidentFieldInGlobalCartesianCoordinates</title>
<path fill="none" stroke="black" d="M383.965,-197.987C380.954,-196.611 377.92,-195.257 375,-194 348.8,-182.725 319.348,-171.119 294.568,-161.652"/>
<polygon fill="black" stroke="black" points="295.557,-158.284 284.966,-158.001 293.069,-164.827 295.557,-158.284"/>
</g>
<!-- Et&#45;&gt;CalculateIncidentFieldInGlobalCartesianCoordinates -->
<g id="edge56" class="edge"><title>Et&#45;&gt;CalculateIncidentFieldInGlobalCartesianCoordinates</title>
<path fill="none" stroke="black" d="M78.3842,-197.703C81.2746,-196.409 84.1853,-195.152 87,-194 115.923,-182.167 148.578,-170.56 176.187,-161.239"/>
<polygon fill="black" stroke="black" points="177.359,-164.537 185.728,-158.04 175.134,-157.9 177.359,-164.537"/>
</g>
<!-- Ep&#45;&gt;CalculateIncidentFieldInGlobalCartesianCoordinates -->
<g id="edge57" class="edge"><title>Ep&#45;&gt;CalculateIncidentFieldInGlobalCartesianCoordinates</title>
<path fill="none" stroke="black" d="M150.197,-194.588C165.565,-185.314 184.999,-173.587 201.765,-163.469"/>
<polygon fill="black" stroke="black" points="204.009,-166.203 210.762,-158.04 200.392,-160.21 204.009,-166.203"/>
</g>
<!-- SP&#45;&gt;CalculateIncidentFieldInGlobalCartesianCoordinates -->
<g id="edge58" class="edge"><title>SP&#45;&gt;CalculateIncidentFieldInGlobalCartesianCoordinates</title>
<path fill="none" stroke="black" d="M455.712,-197.452C452.803,-196.207 449.862,-195.029 447,-194 409.82,-180.624 367.757,-169.237 331.234,-160.485"/>
<polygon fill="black" stroke="black" points="331.625,-156.981 321.088,-158.087 330.014,-163.793 331.625,-156.981"/>
</g>
<!-- CP&#45;&gt;CalculateIncidentFieldInGlobalCartesianCoordinates -->
<g id="edge59" class="edge"><title>CP&#45;&gt;CalculateIncidentFieldInGlobalCartesianCoordinates</title>
<path fill="none" stroke="black" d="M205.876,-193.697C210.992,-185.559 217.195,-175.689 222.845,-166.701"/>
<polygon fill="black" stroke="black" points="225.89,-168.433 228.249,-158.104 219.964,-164.708 225.89,-168.433"/>
</g>
<!-- NTria&#45;&gt;CalculateIlumFaces -->
<g id="edge61" class="edge"><title>NTria&#45;&gt;CalculateIlumFaces</title>
<path fill="none" stroke="black" d="M720.032,-269.98C723.044,-268.605 726.078,-267.254 729,-266 769.732,-248.526 783.961,-252.749 822,-230 843.1,-217.381 842.899,-206.617 864,-194 885.931,-180.887 911.681,-169.92 934.902,-161.428"/>
<polygon fill="black" stroke="black" points="936.097,-164.717 944.339,-158.059 933.744,-158.125 936.097,-164.717"/>
</g>
<!-- D0&#45;&gt;CalculateIlumFaces -->
<g id="edge62" class="edge"><title>D0&#45;&gt;CalculateIlumFaces</title>
<path fill="none" stroke="black" d="M798.172,-199.201C802.753,-197.366 807.485,-195.563 812,-194 847.905,-181.572 888.385,-169.916 922.644,-160.717"/>
<polygon fill="black" stroke="black" points="923.835,-164.022 932.597,-158.067 922.033,-157.258 923.835,-164.022"/>
</g>
<!-- Alpha&#45;&gt;CalculateIlumFaces -->
<g id="edge64" class="edge"><title>Alpha&#45;&gt;CalculateIlumFaces</title>
<path fill="none" stroke="black" d="M924.707,-193.876C937.669,-184.893 953.728,-173.763 967.765,-164.034"/>
<polygon fill="black" stroke="black" points="969.972,-166.763 976.198,-158.19 965.985,-161.009 969.972,-166.763"/>
</g>
<!-- Beta&#45;&gt;CalculateIlumFaces -->
<g id="edge65" class="edge"><title>Beta&#45;&gt;CalculateIlumFaces</title>
<path fill="none" stroke="black" d="M983.685,-193.697C986.248,-185.898 989.333,-176.509 992.185,-167.829"/>
<polygon fill="black" stroke="black" points="995.584,-168.697 995.38,-158.104 988.933,-166.512 995.584,-168.697"/>
</g>
<!-- Name_input_port -->
<g id="node47" class="node"><title>Name_input_port</title>
<ellipse fill="#ffffff" stroke="black" cx="812" cy="-716" rx="7" ry="7"/>
</g>
<!-- Name_input_port&#45;&gt;Name -->
<g id="edge66" class="edge"><title>Name_input_port&#45;&gt;Name</title>
<path fill="none" stroke="black" d="M812,-708.58C812,-701.358 812,-689.151 812,-677.786"/>
<polygon fill="black" stroke="black" points="815.5,-677.753 812,-667.753 808.5,-677.753 815.5,-677.753"/>
</g>
<!-- CoordinatesFile_input_port -->
<g id="node48" class="node"><title>CoordinatesFile_input_port</title>
<ellipse fill="#ffffff" stroke="black" cx="682" cy="-716" rx="7" ry="7"/>
</g>
<!-- CoordinatesFile_input_port&#45;&gt;CoordinatesFile -->
<g id="edge67" class="edge"><title>CoordinatesFile_input_port&#45;&gt;CoordinatesFile</title>
<path fill="none" stroke="black" d="M682,-708.58C682,-702.384 682,-692.516 682,-682.66"/>
<polygon fill="black" stroke="black" points="685.5,-682.548 682,-672.548 678.5,-682.548 685.5,-682.548"/>
</g>
<!-- FacetsFile_input_port -->
<g id="node49" class="node"><title>FacetsFile_input_port</title>
<ellipse fill="#ffffff" stroke="black" cx="926" cy="-716" rx="7" ry="7"/>
</g>
<!-- FacetsFile_input_port&#45;&gt;FacetsFile -->
<g id="edge68" class="edge"><title>FacetsFile_input_port&#45;&gt;FacetsFile</title>
<path fill="none" stroke="black" d="M926,-708.58C926,-702.384 926,-692.516 926,-682.66"/>
<polygon fill="black" stroke="black" points="929.5,-682.548 926,-672.548 922.5,-682.548 929.5,-682.548"/>
</g>
</g>
</svg>
