<?xml version="1.0" encoding="UTF-8" standalone="no"?>
<!DOCTYPE svg PUBLIC "-//W3C//DTD SVG 1.1//EN"
 "http://www.w3.org/Graphics/SVG/1.1/DTD/svg11.dtd">
<!-- Generated by graphviz version 2.38.0 (20140413.2041)
 -->
<!-- Title: dependency Pages: 1 -->
<svg width="900pt" height="1880pt"
 viewBox="0.00 0.00 900.00 1880.00" xmlns="http://www.w3.org/2000/svg" xmlns:xlink="http://www.w3.org/1999/xlink">
<g id="graph0" class="graph" transform="scale(1 1) rotate(0) translate(4 1876)">
<title>dependency</title>
<polygon fill="white" stroke="none" points="-4,4 -4,-1876 896,-1876 896,4 -4,4"/>
<!-- v_1_18 -->
<g id="node1" class="node"><title>v_1_18</title>
<polygon fill="#3a85b9" stroke="black" points="700,-36 558,-36 558,-0 700,-0 700,-36"/>
<text text-anchor="middle" x="629" y="-13" font-family="Times,serif" font-size="20.00" fill="white">11 find_module</text>
</g>
<!-- v_3_19 -->
<g id="node2" class="node"><title>v_3_19</title>
<path fill="#85cbd0" stroke="black" d="M661.5,-792C661.5,-792 596.5,-792 596.5,-792 590.5,-792 584.5,-786 584.5,-780 584.5,-780 584.5,-768 584.5,-768 584.5,-762 590.5,-756 596.5,-756 596.5,-756 661.5,-756 661.5,-756 667.5,-756 673.5,-762 673.5,-768 673.5,-768 673.5,-780 673.5,-780 673.5,-786 667.5,-792 661.5,-792"/>
<text text-anchor="middle" x="629" y="-769" font-family="Times,serif" font-size="20.00">30 return</text>
</g>
<!-- v_1_21 -->
<g id="node3" class="node"><title>v_1_21</title>
<polygon fill="#3a85b9" stroke="black" points="700,-90 558,-90 558,-54 700,-54 700,-90"/>
<text text-anchor="middle" x="629" y="-67" font-family="Times,serif" font-size="20.00" fill="white">11 find_module</text>
</g>
<!-- v_1_21&#45;&gt;v_1_18 -->
<g id="edge16" class="edge"><title>v_1_21&#45;&gt;v_1_18</title>
<path fill="none" stroke="black" d="M629,-53.7902C629,-51.3082 629,-48.8262 629,-46.3443"/>
<polygon fill="black" stroke="black" points="632.5,-46.1406 629,-36.1406 625.5,-46.1407 632.5,-46.1406"/>
</g>
<!-- v_4_22 -->
<g id="node4" class="node"><title>v_4_22</title>
<path fill="#85cbd0" stroke="black" d="M666,-846C666,-846 592,-846 592,-846 586,-846 580,-840 580,-834 580,-834 580,-822 580,-822 580,-816 586,-810 592,-810 592,-810 666,-810 666,-810 672,-810 678,-816 678,-822 678,-822 678,-834 678,-834 678,-840 672,-846 666,-846"/>
<text text-anchor="middle" x="629" y="-823" font-family="Times,serif" font-size="20.00">187 return</text>
</g>
<!-- v_1_24 -->
<g id="node5" class="node"><title>v_1_24</title>
<polygon fill="#3a85b9" stroke="black" points="700,-144 558,-144 558,-108 700,-108 700,-144"/>
<text text-anchor="middle" x="629" y="-121" font-family="Times,serif" font-size="20.00" fill="white">11 find_module</text>
</g>
<!-- v_1_24&#45;&gt;v_1_21 -->
<g id="edge15" class="edge"><title>v_1_24&#45;&gt;v_1_21</title>
<path fill="none" stroke="black" d="M629,-107.79C629,-105.308 629,-102.826 629,-100.344"/>
<polygon fill="black" stroke="black" points="632.5,-100.141 629,-90.1406 625.5,-100.141 632.5,-100.141"/>
</g>
<!-- v_5_25 -->
<g id="node6" class="node"><title>v_5_25</title>
<path fill="#85cbd0" stroke="black" d="M666,-900C666,-900 592,-900 592,-900 586,-900 580,-894 580,-888 580,-888 580,-876 580,-876 580,-870 586,-864 592,-864 592,-864 666,-864 666,-864 672,-864 678,-870 678,-876 678,-876 678,-888 678,-888 678,-894 672,-900 666,-900"/>
<text text-anchor="middle" x="629" y="-877" font-family="Times,serif" font-size="20.00">187 return</text>
</g>
<!-- v_1_27 -->
<g id="node7" class="node"><title>v_1_27</title>
<polygon fill="#3a85b9" stroke="black" points="700,-198 558,-198 558,-162 700,-162 700,-198"/>
<text text-anchor="middle" x="629" y="-175" font-family="Times,serif" font-size="20.00" fill="white">11 find_module</text>
</g>
<!-- v_1_27&#45;&gt;v_1_24 -->
<g id="edge11" class="edge"><title>v_1_27&#45;&gt;v_1_24</title>
<path fill="none" stroke="black" d="M629,-161.79C629,-159.308 629,-156.826 629,-154.344"/>
<polygon fill="black" stroke="black" points="632.5,-154.141 629,-144.141 625.5,-154.141 632.5,-154.141"/>
</g>
<!-- v_6_28 -->
<g id="node8" class="node"><title>v_6_28</title>
<path fill="#85cbd0" stroke="black" d="M666,-954C666,-954 592,-954 592,-954 586,-954 580,-948 580,-942 580,-942 580,-930 580,-930 580,-924 586,-918 592,-918 592,-918 666,-918 666,-918 672,-918 678,-924 678,-930 678,-930 678,-942 678,-942 678,-948 672,-954 666,-954"/>
<text text-anchor="middle" x="629" y="-931" font-family="Times,serif" font-size="20.00">187 return</text>
</g>
<!-- v_1_30 -->
<g id="node9" class="node"><title>v_1_30</title>
<polygon fill="#3a85b9" stroke="black" points="700,-252 558,-252 558,-216 700,-216 700,-252"/>
<text text-anchor="middle" x="629" y="-229" font-family="Times,serif" font-size="20.00" fill="white">11 find_module</text>
</g>
<!-- v_1_30&#45;&gt;v_1_27 -->
<g id="edge14" class="edge"><title>v_1_30&#45;&gt;v_1_27</title>
<path fill="none" stroke="black" d="M629,-215.79C629,-213.308 629,-210.826 629,-208.344"/>
<polygon fill="black" stroke="black" points="632.5,-208.141 629,-198.141 625.5,-208.141 632.5,-208.141"/>
</g>
<!-- v_7_31 -->
<g id="node10" class="node"><title>v_7_31</title>
<path fill="#85cbd0" stroke="black" d="M661.5,-1008C661.5,-1008 596.5,-1008 596.5,-1008 590.5,-1008 584.5,-1002 584.5,-996 584.5,-996 584.5,-984 584.5,-984 584.5,-978 590.5,-972 596.5,-972 596.5,-972 661.5,-972 661.5,-972 667.5,-972 673.5,-978 673.5,-984 673.5,-984 673.5,-996 673.5,-996 673.5,-1002 667.5,-1008 661.5,-1008"/>
<text text-anchor="middle" x="629" y="-985" font-family="Times,serif" font-size="20.00">30 return</text>
</g>
<!-- v_1_33 -->
<g id="node11" class="node"><title>v_1_33</title>
<polygon fill="#3a85b9" stroke="black" points="700,-306 558,-306 558,-270 700,-270 700,-306"/>
<text text-anchor="middle" x="629" y="-283" font-family="Times,serif" font-size="20.00" fill="white">11 find_module</text>
</g>
<!-- v_1_33&#45;&gt;v_1_30 -->
<g id="edge12" class="edge"><title>v_1_33&#45;&gt;v_1_30</title>
<path fill="none" stroke="black" d="M629,-269.79C629,-267.308 629,-264.826 629,-262.344"/>
<polygon fill="black" stroke="black" points="632.5,-262.141 629,-252.141 625.5,-262.141 632.5,-262.141"/>
</g>
<!-- v_8_34 -->
<g id="node12" class="node"><title>v_8_34</title>
<path fill="#85cbd0" stroke="black" d="M666,-1062C666,-1062 592,-1062 592,-1062 586,-1062 580,-1056 580,-1050 580,-1050 580,-1038 580,-1038 580,-1032 586,-1026 592,-1026 592,-1026 666,-1026 666,-1026 672,-1026 678,-1032 678,-1038 678,-1038 678,-1050 678,-1050 678,-1056 672,-1062 666,-1062"/>
<text text-anchor="middle" x="629" y="-1039" font-family="Times,serif" font-size="20.00">113 return</text>
</g>
<!-- v_1_36 -->
<g id="node13" class="node"><title>v_1_36</title>
<polygon fill="#3a85b9" stroke="black" points="700,-360 558,-360 558,-324 700,-324 700,-360"/>
<text text-anchor="middle" x="629" y="-337" font-family="Times,serif" font-size="20.00" fill="white">11 find_module</text>
</g>
<!-- v_1_36&#45;&gt;v_1_33 -->
<g id="edge19" class="edge"><title>v_1_36&#45;&gt;v_1_33</title>
<path fill="none" stroke="black" d="M629,-323.79C629,-321.308 629,-318.826 629,-316.344"/>
<polygon fill="black" stroke="black" points="632.5,-316.141 629,-306.141 625.5,-316.141 632.5,-316.141"/>
</g>
<!-- v_9_37 -->
<g id="node14" class="node"><title>v_9_37</title>
<path fill="#85cbd0" stroke="black" d="M661.5,-1116C661.5,-1116 596.5,-1116 596.5,-1116 590.5,-1116 584.5,-1110 584.5,-1104 584.5,-1104 584.5,-1092 584.5,-1092 584.5,-1086 590.5,-1080 596.5,-1080 596.5,-1080 661.5,-1080 661.5,-1080 667.5,-1080 673.5,-1086 673.5,-1092 673.5,-1092 673.5,-1104 673.5,-1104 673.5,-1110 667.5,-1116 661.5,-1116"/>
<text text-anchor="middle" x="629" y="-1093" font-family="Times,serif" font-size="20.00">31 return</text>
</g>
<!-- v_1_39 -->
<g id="node15" class="node"><title>v_1_39</title>
<polygon fill="#3a85b9" stroke="black" points="700,-414 558,-414 558,-378 700,-378 700,-414"/>
<text text-anchor="middle" x="629" y="-391" font-family="Times,serif" font-size="20.00" fill="white">11 find_module</text>
</g>
<!-- v_1_39&#45;&gt;v_1_36 -->
<g id="edge4" class="edge"><title>v_1_39&#45;&gt;v_1_36</title>
<path fill="none" stroke="black" d="M629,-377.79C629,-375.308 629,-372.826 629,-370.344"/>
<polygon fill="black" stroke="black" points="632.5,-370.141 629,-360.141 625.5,-370.141 632.5,-370.141"/>
</g>
<!-- v_10_40 -->
<g id="node16" class="node"><title>v_10_40</title>
<path fill="#85cbd0" stroke="black" d="M661.5,-1170C661.5,-1170 596.5,-1170 596.5,-1170 590.5,-1170 584.5,-1164 584.5,-1158 584.5,-1158 584.5,-1146 584.5,-1146 584.5,-1140 590.5,-1134 596.5,-1134 596.5,-1134 661.5,-1134 661.5,-1134 667.5,-1134 673.5,-1140 673.5,-1146 673.5,-1146 673.5,-1158 673.5,-1158 673.5,-1164 667.5,-1170 661.5,-1170"/>
<text text-anchor="middle" x="629" y="-1147" font-family="Times,serif" font-size="20.00">31 return</text>
</g>
<!-- v_1_42 -->
<g id="node17" class="node"><title>v_1_42</title>
<polygon fill="#3a85b9" stroke="black" points="700,-468 558,-468 558,-432 700,-432 700,-468"/>
<text text-anchor="middle" x="629" y="-445" font-family="Times,serif" font-size="20.00" fill="white">11 find_module</text>
</g>
<!-- v_1_42&#45;&gt;v_1_39 -->
<g id="edge6" class="edge"><title>v_1_42&#45;&gt;v_1_39</title>
<path fill="none" stroke="black" d="M629,-431.79C629,-429.308 629,-426.826 629,-424.344"/>
<polygon fill="black" stroke="black" points="632.5,-424.141 629,-414.141 625.5,-424.141 632.5,-424.141"/>
</g>
<!-- v_11_43 -->
<g id="node18" class="node"><title>v_11_43</title>
<path fill="#85cbd0" stroke="black" d="M661.5,-1224C661.5,-1224 596.5,-1224 596.5,-1224 590.5,-1224 584.5,-1218 584.5,-1212 584.5,-1212 584.5,-1200 584.5,-1200 584.5,-1194 590.5,-1188 596.5,-1188 596.5,-1188 661.5,-1188 661.5,-1188 667.5,-1188 673.5,-1194 673.5,-1200 673.5,-1200 673.5,-1212 673.5,-1212 673.5,-1218 667.5,-1224 661.5,-1224"/>
<text text-anchor="middle" x="629" y="-1201" font-family="Times,serif" font-size="20.00">31 return</text>
</g>
<!-- v_1_45 -->
<g id="node19" class="node"><title>v_1_45</title>
<polygon fill="#3a85b9" stroke="black" points="700,-522 558,-522 558,-486 700,-486 700,-522"/>
<text text-anchor="middle" x="629" y="-499" font-family="Times,serif" font-size="20.00" fill="white">11 find_module</text>
</g>
<!-- v_1_45&#45;&gt;v_1_42 -->
<g id="edge8" class="edge"><title>v_1_45&#45;&gt;v_1_42</title>
<path fill="none" stroke="black" d="M629,-485.79C629,-483.308 629,-480.826 629,-478.344"/>
<polygon fill="black" stroke="black" points="632.5,-478.141 629,-468.141 625.5,-478.141 632.5,-478.141"/>
</g>
<!-- v_12_46 -->
<g id="node20" class="node"><title>v_12_46</title>
<path fill="#85cbd0" stroke="black" d="M661.5,-1278C661.5,-1278 596.5,-1278 596.5,-1278 590.5,-1278 584.5,-1272 584.5,-1266 584.5,-1266 584.5,-1254 584.5,-1254 584.5,-1248 590.5,-1242 596.5,-1242 596.5,-1242 661.5,-1242 661.5,-1242 667.5,-1242 673.5,-1248 673.5,-1254 673.5,-1254 673.5,-1266 673.5,-1266 673.5,-1272 667.5,-1278 661.5,-1278"/>
<text text-anchor="middle" x="629" y="-1255" font-family="Times,serif" font-size="20.00">31 return</text>
</g>
<!-- v_1_48 -->
<g id="node21" class="node"><title>v_1_48</title>
<polygon fill="#3a85b9" stroke="black" points="700,-576 558,-576 558,-540 700,-540 700,-576"/>
<text text-anchor="middle" x="629" y="-553" font-family="Times,serif" font-size="20.00" fill="white">11 find_module</text>
</g>
<!-- v_1_48&#45;&gt;v_1_45 -->
<g id="edge5" class="edge"><title>v_1_48&#45;&gt;v_1_45</title>
<path fill="none" stroke="black" d="M629,-539.79C629,-537.308 629,-534.826 629,-532.344"/>
<polygon fill="black" stroke="black" points="632.5,-532.141 629,-522.141 625.5,-532.141 632.5,-532.141"/>
</g>
<!-- v_13_49 -->
<g id="node22" class="node"><title>v_13_49</title>
<path fill="#85cbd0" stroke="black" d="M661.5,-1332C661.5,-1332 596.5,-1332 596.5,-1332 590.5,-1332 584.5,-1326 584.5,-1320 584.5,-1320 584.5,-1308 584.5,-1308 584.5,-1302 590.5,-1296 596.5,-1296 596.5,-1296 661.5,-1296 661.5,-1296 667.5,-1296 673.5,-1302 673.5,-1308 673.5,-1308 673.5,-1320 673.5,-1320 673.5,-1326 667.5,-1332 661.5,-1332"/>
<text text-anchor="middle" x="629" y="-1309" font-family="Times,serif" font-size="20.00">31 return</text>
</g>
<!-- v_1_51 -->
<g id="node23" class="node"><title>v_1_51</title>
<polygon fill="#3a85b9" stroke="black" points="700,-630 558,-630 558,-594 700,-594 700,-630"/>
<text text-anchor="middle" x="629" y="-607" font-family="Times,serif" font-size="20.00" fill="white">11 find_module</text>
</g>
<!-- v_1_51&#45;&gt;v_1_48 -->
<g id="edge13" class="edge"><title>v_1_51&#45;&gt;v_1_48</title>
<path fill="none" stroke="black" d="M629,-593.79C629,-591.308 629,-588.826 629,-586.344"/>
<polygon fill="black" stroke="black" points="632.5,-586.141 629,-576.141 625.5,-586.141 632.5,-586.141"/>
</g>
<!-- v_14_52 -->
<g id="node24" class="node"><title>v_14_52</title>
<path fill="#85cbd0" stroke="black" d="M661.5,-1386C661.5,-1386 596.5,-1386 596.5,-1386 590.5,-1386 584.5,-1380 584.5,-1374 584.5,-1374 584.5,-1362 584.5,-1362 584.5,-1356 590.5,-1350 596.5,-1350 596.5,-1350 661.5,-1350 661.5,-1350 667.5,-1350 673.5,-1356 673.5,-1362 673.5,-1362 673.5,-1374 673.5,-1374 673.5,-1380 667.5,-1386 661.5,-1386"/>
<text text-anchor="middle" x="629" y="-1363" font-family="Times,serif" font-size="20.00">31 return</text>
</g>
<!-- v_1_54 -->
<g id="node25" class="node"><title>v_1_54</title>
<polygon fill="#3a85b9" stroke="black" points="700,-684 558,-684 558,-648 700,-648 700,-684"/>
<text text-anchor="middle" x="629" y="-661" font-family="Times,serif" font-size="20.00" fill="white">11 find_module</text>
</g>
<!-- v_1_54&#45;&gt;v_1_51 -->
<g id="edge7" class="edge"><title>v_1_54&#45;&gt;v_1_51</title>
<path fill="none" stroke="black" d="M629,-647.79C629,-645.308 629,-642.826 629,-640.344"/>
<polygon fill="black" stroke="black" points="632.5,-640.141 629,-630.141 625.5,-640.141 632.5,-640.141"/>
</g>
<!-- v_15_55 -->
<g id="node26" class="node"><title>v_15_55</title>
<path fill="#85cbd0" stroke="black" d="M656.5,-1440C656.5,-1440 601.5,-1440 601.5,-1440 595.5,-1440 589.5,-1434 589.5,-1428 589.5,-1428 589.5,-1416 589.5,-1416 589.5,-1410 595.5,-1404 601.5,-1404 601.5,-1404 656.5,-1404 656.5,-1404 662.5,-1404 668.5,-1410 668.5,-1416 668.5,-1416 668.5,-1428 668.5,-1428 668.5,-1434 662.5,-1440 656.5,-1440"/>
<text text-anchor="middle" x="629" y="-1417" font-family="Times,serif" font-size="20.00">6 return</text>
</g>
<!-- v_1_57 -->
<g id="node27" class="node"><title>v_1_57</title>
<polygon fill="#3a85b9" stroke="black" points="855.5,-738 402.5,-738 402.5,-702 855.5,-702 855.5,-738"/>
<text text-anchor="middle" x="629" y="-715" font-family="Times,serif" font-size="20.00" fill="white">11 /usr/local/lib/python2.7/ ... lkits/mplot3d/__init__.py</text>
</g>
<!-- v_1_57&#45;&gt;v_1_54 -->
<g id="edge2" class="edge"><title>v_1_57&#45;&gt;v_1_54</title>
<path fill="none" stroke="black" d="M629,-701.79C629,-699.308 629,-696.826 629,-694.344"/>
<polygon fill="black" stroke="black" points="632.5,-694.141 629,-684.141 625.5,-694.141 632.5,-694.141"/>
</g>
<!-- v_1_79 -->
<g id="node28" class="node"><title>v_1_79</title>
<polygon fill="#3a85b9" stroke="black" points="672,-1494 586,-1494 586,-1458 672,-1458 672,-1494"/>
<text text-anchor="middle" x="629" y="-1471" font-family="Times,serif" font-size="20.00" fill="white">407 time</text>
</g>
<!-- v_1_80 -->
<g id="node29" class="node"><title>v_1_80</title>
<path fill="#85cbd0" stroke="black" d="M659.5,-1548C659.5,-1548 598.5,-1548 598.5,-1548 592.5,-1548 586.5,-1542 586.5,-1536 586.5,-1536 586.5,-1524 586.5,-1524 586.5,-1518 592.5,-1512 598.5,-1512 598.5,-1512 659.5,-1512 659.5,-1512 665.5,-1512 671.5,-1518 671.5,-1524 671.5,-1524 671.5,-1536 671.5,-1536 671.5,-1542 665.5,-1548 659.5,-1548"/>
<text text-anchor="middle" x="629" y="-1525" font-family="Times,serif" font-size="20.00">407 start</text>
</g>
<!-- v_1_80&#45;&gt;v_1_79 -->
<g id="edge17" class="edge"><title>v_1_80&#45;&gt;v_1_79</title>
<path fill="none" stroke="black" d="M629,-1511.79C629,-1509.31 629,-1506.83 629,-1504.34"/>
<polygon fill="black" stroke="black" points="632.5,-1504.14 629,-1494.14 625.5,-1504.14 632.5,-1504.14"/>
</g>
<!-- v_1_84 -->
<g id="node30" class="node"><title>v_1_84</title>
<polygon fill="#3a85b9" stroke="black" points="691,-1602 567,-1602 567,-1566 691,-1566 691,-1602"/>
<text text-anchor="middle" x="629" y="-1579" font-family="Times,serif" font-size="20.00" fill="white">408 type.now</text>
</g>
<!-- v_1_87 -->
<g id="node31" class="node"><title>v_1_87</title>
<polygon fill="#3a85b9" stroke="black" points="722,-1656 536,-1656 536,-1620 722,-1620 722,-1656"/>
<text text-anchor="middle" x="629" y="-1633" font-family="Times,serif" font-size="20.00" fill="white">408 datetime.strftime</text>
</g>
<!-- v_1_87&#45;&gt;v_1_84 -->
<g id="edge3" class="edge"><title>v_1_87&#45;&gt;v_1_84</title>
<path fill="none" stroke="black" stroke-dasharray="5,2" d="M629,-1619.79C629,-1617.31 629,-1614.83 629,-1612.34"/>
<polygon fill="black" stroke="black" points="632.5,-1612.14 629,-1602.14 625.5,-1612.14 632.5,-1612.14"/>
</g>
<!-- v_1_88 -->
<g id="node32" class="node"><title>v_1_88</title>
<path fill="#85cbd0" stroke="black" d="M659.5,-1710C659.5,-1710 598.5,-1710 598.5,-1710 592.5,-1710 586.5,-1704 586.5,-1698 586.5,-1698 586.5,-1686 586.5,-1686 586.5,-1680 592.5,-1674 598.5,-1674 598.5,-1674 659.5,-1674 659.5,-1674 665.5,-1674 671.5,-1680 671.5,-1686 671.5,-1686 671.5,-1698 671.5,-1698 671.5,-1704 665.5,-1710 659.5,-1710"/>
<text text-anchor="middle" x="629" y="-1687" font-family="Times,serif" font-size="20.00">408 now</text>
</g>
<!-- v_1_88&#45;&gt;v_1_87 -->
<g id="edge18" class="edge"><title>v_1_88&#45;&gt;v_1_87</title>
<path fill="none" stroke="black" d="M629,-1673.79C629,-1671.31 629,-1668.83 629,-1666.34"/>
<polygon fill="black" stroke="black" points="632.5,-1666.14 629,-1656.14 625.5,-1666.14 632.5,-1666.14"/>
</g>
<!-- a_1 -->
<g id="node33" class="node"><title>a_1</title>
<path fill="white" stroke="black" d="M191,-1791C191,-1791 12,-1791 12,-1791 6,-1791 0,-1785 0,-1779 0,-1779 0,-1767 0,-1767 0,-1761 6,-1755 12,-1755 12,-1755 191,-1755 191,-1755 197,-1755 203,-1761 203,-1767 203,-1767 203,-1779 203,-1779 203,-1785 197,-1791 191,-1791"/>
<text text-anchor="middle" x="101.5" y="-1768" font-family="Times,serif" font-size="20.00">input_data_file_001.dat</text>
</g>
<!-- a_3 -->
<g id="node34" class="node"><title>a_3</title>
<path fill="white" stroke="black" d="M878.5,-1818C878.5,-1818 379.5,-1818 379.5,-1818 373.5,-1818 367.5,-1812 367.5,-1806 367.5,-1806 367.5,-1794 367.5,-1794 367.5,-1788 373.5,-1782 379.5,-1782 379.5,-1782 878.5,-1782 878.5,-1782 884.5,-1782 890.5,-1788 890.5,-1794 890.5,-1794 890.5,-1806 890.5,-1806 890.5,-1812 884.5,-1818 878.5,-1818"/>
<text text-anchor="middle" x="629" y="-1795" font-family="Times,serif" font-size="20.00">R_PyPOFacetsModular_BOX_i ... 01.dat_20180308041452.dat</text>
</g>
<!-- v_1_22561 -->
<g id="node36" class="node"><title>v_1_22561</title>
<polygon fill="#3a85b9" stroke="black" points="330,-1791 239,-1791 239,-1755 330,-1755 330,-1791"/>
<text text-anchor="middle" x="284.5" y="-1768" font-family="Times,serif" font-size="20.00" fill="white">417 main</text>
</g>
<!-- a_3&#45;&gt;v_1_22561 -->
<g id="edge9" class="edge"><title>a_3&#45;&gt;v_1_22561</title>
<path fill="none" stroke="black" stroke-dasharray="5,2" d="M399.548,-1781.99C377.903,-1780.28 357.636,-1778.69 340.366,-1777.33"/>
<polygon fill="black" stroke="black" points="340.259,-1773.81 330.015,-1776.51 339.709,-1780.78 340.259,-1773.81"/>
</g>
<!-- a_4 -->
<g id="node35" class="node"><title>a_4</title>
<path fill="white" stroke="black" d="M880,-1764C880,-1764 378,-1764 378,-1764 372,-1764 366,-1758 366,-1752 366,-1752 366,-1740 366,-1740 366,-1734 372,-1728 378,-1728 378,-1728 880,-1728 880,-1728 886,-1728 892,-1734 892,-1740 892,-1740 892,-1752 892,-1752 892,-1758 886,-1764 880,-1764"/>
<text text-anchor="middle" x="629" y="-1741" font-family="Times,serif" font-size="20.00">E0_PyPOFacetsModular_BOX_ ... 01.dat_20180308041452.dat</text>
</g>
<!-- a_4&#45;&gt;v_1_22561 -->
<g id="edge1" class="edge"><title>a_4&#45;&gt;v_1_22561</title>
<path fill="none" stroke="black" stroke-dasharray="5,2" d="M399.548,-1764.01C377.903,-1765.72 357.636,-1767.31 340.366,-1768.67"/>
<polygon fill="black" stroke="black" points="339.709,-1765.22 330.015,-1769.49 340.259,-1772.19 339.709,-1765.22"/>
</g>
<!-- v_1_22561&#45;&gt;a_1 -->
<g id="edge10" class="edge"><title>v_1_22561&#45;&gt;a_1</title>
<path fill="none" stroke="black" stroke-dasharray="5,2" d="M238.758,-1773C230.772,-1773 222.14,-1773 213.233,-1773"/>
<polygon fill="black" stroke="black" points="213.079,-1769.5 203.079,-1773 213.079,-1776.5 213.079,-1769.5"/>
</g>
<!-- v_1_90 -->
<g id="node37" class="node"><title>v_1_90</title>
<path fill="#85cbd0" stroke="black" d="M664.5,-1872C664.5,-1872 593.5,-1872 593.5,-1872 587.5,-1872 581.5,-1866 581.5,-1860 581.5,-1860 581.5,-1848 581.5,-1848 581.5,-1842 587.5,-1836 593.5,-1836 593.5,-1836 664.5,-1836 664.5,-1836 670.5,-1836 676.5,-1842 676.5,-1848 676.5,-1848 676.5,-1860 676.5,-1860 676.5,-1866 670.5,-1872 664.5,-1872"/>
<text text-anchor="middle" x="629" y="-1849" font-family="Times,serif" font-size="20.00">416 name</text>
</g>
</g>
</svg>
