<?xml version="1.0" encoding="UTF-8" standalone="no"?>
<!DOCTYPE svg PUBLIC "-//W3C//DTD SVG 1.1//EN"
 "http://www.w3.org/Graphics/SVG/1.1/DTD/svg11.dtd">
<!-- Generated by graphviz version 2.40.1 (20161225.0304)
 -->
<!-- Title: dependency Pages: 1 -->
<svg width="995pt" height="368pt"
 viewBox="0.00 0.00 995.00 368.00" xmlns="http://www.w3.org/2000/svg" xmlns:xlink="http://www.w3.org/1999/xlink">
<g id="graph0" class="graph" transform="scale(1 1) rotate(0) translate(4 364)">
<title>dependency</title>
<polygon fill="#ffffff" stroke="transparent" points="-4,4 -4,-364 991,-364 991,4 -4,4"/>
<!-- v_1_40 -->
<g id="node1" class="node">
<title>v_1_40</title>
<polygon fill="#3a85b9" stroke="#000000" points="375,-36 289,-36 289,0 375,0 375,-36"/>
<text text-anchor="middle" x="332" y="-13" font-family="Times,serif" font-size="20.00" fill="#ffffff">411 time</text>
</g>
<!-- v_1_41 -->
<g id="node2" class="node">
<title>v_1_41</title>
<path fill="#85cbd0" stroke="#000000" d="M754.5,-36C754.5,-36 693.5,-36 693.5,-36 687.5,-36 681.5,-30 681.5,-24 681.5,-24 681.5,-12 681.5,-12 681.5,-6 687.5,0 693.5,0 693.5,0 754.5,0 754.5,0 760.5,0 766.5,-6 766.5,-12 766.5,-12 766.5,-24 766.5,-24 766.5,-30 760.5,-36 754.5,-36"/>
<text text-anchor="middle" x="724" y="-13" font-family="Times,serif" font-size="20.00" fill="#000000">411 start</text>
</g>
<!-- v_1_41&#45;&gt;v_1_40 -->
<g id="edge4" class="edge">
<title>v_1_41&#45;&gt;v_1_40</title>
<path fill="none" stroke="#000000" d="M681.3029,-18C609.3282,-18 464.0268,-18 385.4138,-18"/>
<polygon fill="#000000" stroke="#000000" points="385.2412,-14.5001 375.2411,-18 385.2411,-21.5001 385.2412,-14.5001"/>
</g>
<!-- v_1_45 -->
<g id="node3" class="node">
<title>v_1_45</title>
<polygon fill="#3a85b9" stroke="#000000" points="163.5,-90 39.5,-90 39.5,-54 163.5,-54 163.5,-90"/>
<text text-anchor="middle" x="101.5" y="-67" font-family="Times,serif" font-size="20.00" fill="#ffffff">412 type.now</text>
</g>
<!-- v_1_48 -->
<g id="node4" class="node">
<title>v_1_48</title>
<polygon fill="#3a85b9" stroke="#000000" points="425,-90 239,-90 239,-54 425,-54 425,-90"/>
<text text-anchor="middle" x="332" y="-67" font-family="Times,serif" font-size="20.00" fill="#ffffff">412 datetime.strftime</text>
</g>
<!-- v_1_48&#45;&gt;v_1_45 -->
<g id="edge5" class="edge">
<title>v_1_48&#45;&gt;v_1_45</title>
<path fill="none" stroke="#000000" stroke-dasharray="5,2" d="M238.9112,-72C217.2131,-72 194.4259,-72 173.7847,-72"/>
<polygon fill="#000000" stroke="#000000" points="173.5221,-68.5001 163.522,-72 173.522,-75.5001 173.5221,-68.5001"/>
</g>
<!-- v_1_49 -->
<g id="node5" class="node">
<title>v_1_49</title>
<path fill="#85cbd0" stroke="#000000" d="M754.5,-90C754.5,-90 693.5,-90 693.5,-90 687.5,-90 681.5,-84 681.5,-78 681.5,-78 681.5,-66 681.5,-66 681.5,-60 687.5,-54 693.5,-54 693.5,-54 754.5,-54 754.5,-54 760.5,-54 766.5,-60 766.5,-66 766.5,-66 766.5,-78 766.5,-78 766.5,-84 760.5,-90 754.5,-90"/>
<text text-anchor="middle" x="724" y="-67" font-family="Times,serif" font-size="20.00" fill="#000000">412 now</text>
</g>
<!-- v_1_49&#45;&gt;v_1_48 -->
<g id="edge6" class="edge">
<title>v_1_49&#45;&gt;v_1_48</title>
<path fill="none" stroke="#000000" d="M681.3029,-72C622.6923,-72 515.4569,-72 435.2047,-72"/>
<polygon fill="#000000" stroke="#000000" points="435.0616,-68.5001 425.0616,-72 435.0615,-75.5001 435.0616,-68.5001"/>
</g>
<!-- a_1 -->
<g id="node6" class="node">
<title>a_1</title>
<path fill="#ffffff" stroke="#000000" d="M191,-171C191,-171 12,-171 12,-171 6,-171 0,-165 0,-159 0,-159 0,-147 0,-147 0,-141 6,-135 12,-135 12,-135 191,-135 191,-135 197,-135 203,-141 203,-147 203,-147 203,-159 203,-159 203,-165 197,-171 191,-171"/>
<text text-anchor="middle" x="101.5" y="-148" font-family="Times,serif" font-size="20.00" fill="#000000">input_data_file_002.dat</text>
</g>
<!-- a_2 -->
<g id="node7" class="node">
<title>a_2</title>
<path fill="#ffffff" stroke="#000000" d="M800,-252C800,-252 648,-252 648,-252 642,-252 636,-246 636,-240 636,-240 636,-228 636,-228 636,-222 642,-216 648,-216 648,-216 800,-216 800,-216 806,-216 812,-222 812,-228 812,-228 812,-240 812,-240 812,-246 806,-252 800,-252"/>
<text text-anchor="middle" x="724" y="-229" font-family="Times,serif" font-size="20.00" fill="#000000">BOX/coordinates.m</text>
</g>
<!-- a_4 -->
<g id="node8" class="node">
<title>a_4</title>
<path fill="#ffffff" stroke="#000000" d="M777.5,-306C777.5,-306 670.5,-306 670.5,-306 664.5,-306 658.5,-300 658.5,-294 658.5,-294 658.5,-282 658.5,-282 658.5,-276 664.5,-270 670.5,-270 670.5,-270 777.5,-270 777.5,-270 783.5,-270 789.5,-276 789.5,-282 789.5,-282 789.5,-294 789.5,-294 789.5,-300 783.5,-306 777.5,-306"/>
<text text-anchor="middle" x="724" y="-283" font-family="Times,serif" font-size="20.00" fill="#000000">BOX/facets.m</text>
</g>
<!-- a_5 -->
<g id="node9" class="node">
<title>a_5</title>
<path fill="#ffffff" stroke="#000000" d="M973.5,-198C973.5,-198 474.5,-198 474.5,-198 468.5,-198 462.5,-192 462.5,-186 462.5,-186 462.5,-174 462.5,-174 462.5,-168 468.5,-162 474.5,-162 474.5,-162 973.5,-162 973.5,-162 979.5,-162 985.5,-168 985.5,-174 985.5,-174 985.5,-186 985.5,-186 985.5,-192 979.5,-198 973.5,-198"/>
<text text-anchor="middle" x="724" y="-175" font-family="Times,serif" font-size="20.00" fill="#000000">R_PyPOFacetsModular_BOX_i ... 02.dat_20180310215022.dat</text>
</g>
<!-- v_1_2053 -->
<g id="node11" class="node">
<title>v_1_2053</title>
<polygon fill="#3a85b9" stroke="#000000" points="377.5,-171 286.5,-171 286.5,-135 377.5,-135 377.5,-171"/>
<text text-anchor="middle" x="332" y="-148" font-family="Times,serif" font-size="20.00" fill="#ffffff">421 main</text>
</g>
<!-- a_5&#45;&gt;v_1_2053 -->
<g id="edge1" class="edge">
<title>a_5&#45;&gt;v_1_2053</title>
<path fill="none" stroke="#000000" stroke-dasharray="5,2" d="M462.5303,-161.9906C434.7711,-160.0786 408.9914,-158.303 387.7998,-156.8434"/>
<polygon fill="#000000" stroke="#000000" points="387.9936,-153.3485 377.7767,-156.153 387.5125,-160.332 387.9936,-153.3485"/>
</g>
<!-- a_6 -->
<g id="node10" class="node">
<title>a_6</title>
<path fill="#ffffff" stroke="#000000" d="M975,-144C975,-144 473,-144 473,-144 467,-144 461,-138 461,-132 461,-132 461,-120 461,-120 461,-114 467,-108 473,-108 473,-108 975,-108 975,-108 981,-108 987,-114 987,-120 987,-120 987,-132 987,-132 987,-138 981,-144 975,-144"/>
<text text-anchor="middle" x="724" y="-121" font-family="Times,serif" font-size="20.00" fill="#000000">E0_PyPOFacetsModular_BOX_ ... 02.dat_20180310215022.dat</text>
</g>
<!-- a_6&#45;&gt;v_1_2053 -->
<g id="edge3" class="edge">
<title>a_6&#45;&gt;v_1_2053</title>
<path fill="none" stroke="#000000" stroke-dasharray="5,2" d="M462.5303,-144.0094C434.7711,-145.9214 408.9914,-147.697 387.7998,-149.1566"/>
<polygon fill="#000000" stroke="#000000" points="387.5125,-145.668 377.7767,-149.847 387.9936,-152.6515 387.5125,-145.668"/>
</g>
<!-- v_1_2053&#45;&gt;a_1 -->
<g id="edge2" class="edge">
<title>v_1_2053&#45;&gt;a_1</title>
<path fill="none" stroke="#000000" stroke-dasharray="5,2" d="M286.4606,-153C265.3804,-153 239.316,-153 213.4717,-153"/>
<polygon fill="#000000" stroke="#000000" points="213.2035,-149.5001 203.2035,-153 213.2034,-156.5001 213.2035,-149.5001"/>
</g>
<!-- v_1_51 -->
<g id="node12" class="node">
<title>v_1_51</title>
<path fill="#85cbd0" stroke="#000000" d="M759.5,-360C759.5,-360 688.5,-360 688.5,-360 682.5,-360 676.5,-354 676.5,-348 676.5,-348 676.5,-336 676.5,-336 676.5,-330 682.5,-324 688.5,-324 688.5,-324 759.5,-324 759.5,-324 765.5,-324 771.5,-330 771.5,-336 771.5,-336 771.5,-348 771.5,-348 771.5,-354 765.5,-360 759.5,-360"/>
<text text-anchor="middle" x="724" y="-337" font-family="Times,serif" font-size="20.00" fill="#000000">420 name</text>
</g>
</g>
</svg>
