<?xml version="1.0" encoding="UTF-8" standalone="no"?>
<!DOCTYPE svg PUBLIC "-//W3C//DTD SVG 1.1//EN"
 "http://www.w3.org/Graphics/SVG/1.1/DTD/svg11.dtd">
<!-- Generated by graphviz version 2.40.1 (20161225.0304)
 -->
<!-- Title: dependency Pages: 1 -->
<svg width="995pt" height="341pt"
 viewBox="0.00 0.00 995.00 341.00" xmlns="http://www.w3.org/2000/svg" xmlns:xlink="http://www.w3.org/1999/xlink">
<g id="graph0" class="graph" transform="scale(1 1) rotate(0) translate(4 337)">
<title>dependency</title>
<polygon fill="#ffffff" stroke="transparent" points="-4,4 -4,-337 991,-337 991,4 -4,4"/>
<!-- v_1_39 -->
<g id="node1" class="node">
<title>v_1_39</title>
<polygon fill="#3a85b9" stroke="#000000" points="375,-36 289,-36 289,0 375,0 375,-36"/>
<text text-anchor="middle" x="332" y="-13" font-family="Times,serif" font-size="20.00" fill="#ffffff">407 time</text>
</g>
<!-- v_1_40 -->
<g id="node2" class="node">
<title>v_1_40</title>
<path fill="#85cbd0" stroke="#000000" d="M754.5,-36C754.5,-36 693.5,-36 693.5,-36 687.5,-36 681.5,-30 681.5,-24 681.5,-24 681.5,-12 681.5,-12 681.5,-6 687.5,0 693.5,0 693.5,0 754.5,0 754.5,0 760.5,0 766.5,-6 766.5,-12 766.5,-12 766.5,-24 766.5,-24 766.5,-30 760.5,-36 754.5,-36"/>
<text text-anchor="middle" x="724" y="-13" font-family="Times,serif" font-size="20.00" fill="#000000">407 start</text>
</g>
<!-- v_1_40&#45;&gt;v_1_39 -->
<g id="edge3" class="edge">
<title>v_1_40&#45;&gt;v_1_39</title>
<path fill="none" stroke="#000000" d="M681.3029,-18C609.3282,-18 464.0268,-18 385.4138,-18"/>
<polygon fill="#000000" stroke="#000000" points="385.2412,-14.5001 375.2411,-18 385.2411,-21.5001 385.2412,-14.5001"/>
</g>
<!-- v_1_44 -->
<g id="node3" class="node">
<title>v_1_44</title>
<polygon fill="#3a85b9" stroke="#000000" points="163.5,-90 39.5,-90 39.5,-54 163.5,-54 163.5,-90"/>
<text text-anchor="middle" x="101.5" y="-67" font-family="Times,serif" font-size="20.00" fill="#ffffff">408 type.now</text>
</g>
<!-- v_1_47 -->
<g id="node4" class="node">
<title>v_1_47</title>
<polygon fill="#3a85b9" stroke="#000000" points="425,-90 239,-90 239,-54 425,-54 425,-90"/>
<text text-anchor="middle" x="332" y="-67" font-family="Times,serif" font-size="20.00" fill="#ffffff">408 datetime.strftime</text>
</g>
<!-- v_1_47&#45;&gt;v_1_44 -->
<g id="edge4" class="edge">
<title>v_1_47&#45;&gt;v_1_44</title>
<path fill="none" stroke="#000000" stroke-dasharray="5,2" d="M238.9112,-72C217.2131,-72 194.4259,-72 173.7847,-72"/>
<polygon fill="#000000" stroke="#000000" points="173.5221,-68.5001 163.522,-72 173.522,-75.5001 173.5221,-68.5001"/>
</g>
<!-- v_1_48 -->
<g id="node5" class="node">
<title>v_1_48</title>
<path fill="#85cbd0" stroke="#000000" d="M754.5,-90C754.5,-90 693.5,-90 693.5,-90 687.5,-90 681.5,-84 681.5,-78 681.5,-78 681.5,-66 681.5,-66 681.5,-60 687.5,-54 693.5,-54 693.5,-54 754.5,-54 754.5,-54 760.5,-54 766.5,-60 766.5,-66 766.5,-66 766.5,-78 766.5,-78 766.5,-84 760.5,-90 754.5,-90"/>
<text text-anchor="middle" x="724" y="-67" font-family="Times,serif" font-size="20.00" fill="#000000">408 now</text>
</g>
<!-- v_1_48&#45;&gt;v_1_47 -->
<g id="edge7" class="edge">
<title>v_1_48&#45;&gt;v_1_47</title>
<path fill="none" stroke="#000000" d="M681.3029,-72C622.6923,-72 515.4569,-72 435.2047,-72"/>
<polygon fill="#000000" stroke="#000000" points="435.0616,-68.5001 425.0616,-72 435.0615,-75.5001 435.0616,-68.5001"/>
</g>
<!-- a_1 -->
<g id="node6" class="node">
<title>a_1</title>
<path fill="#ffffff" stroke="#000000" d="M191,-218C191,-218 12,-218 12,-218 6,-218 0,-212 0,-206 0,-206 0,-194 0,-194 0,-188 6,-182 12,-182 12,-182 191,-182 191,-182 197,-182 203,-188 203,-194 203,-194 203,-206 203,-206 203,-212 197,-218 191,-218"/>
<text text-anchor="middle" x="101.5" y="-195" font-family="Times,serif" font-size="20.00" fill="#000000">input_data_file_002.dat</text>
</g>
<!-- a_2 -->
<g id="node7" class="node">
<title>a_2</title>
<path fill="#ffffff" stroke="#000000" d="M800,-279C800,-279 648,-279 648,-279 642,-279 636,-273 636,-267 636,-267 636,-255 636,-255 636,-249 642,-243 648,-243 648,-243 800,-243 800,-243 806,-243 812,-249 812,-255 812,-255 812,-267 812,-267 812,-273 806,-279 800,-279"/>
<text text-anchor="middle" x="724" y="-256" font-family="Times,serif" font-size="20.00" fill="#000000">BOX/coordinates.m</text>
</g>
<!-- a_3 -->
<g id="node8" class="node">
<title>a_3</title>
<path fill="#ffffff" stroke="#000000" d="M777.5,-333C777.5,-333 670.5,-333 670.5,-333 664.5,-333 658.5,-327 658.5,-321 658.5,-321 658.5,-309 658.5,-309 658.5,-303 664.5,-297 670.5,-297 670.5,-297 777.5,-297 777.5,-297 783.5,-297 789.5,-303 789.5,-309 789.5,-309 789.5,-321 789.5,-321 789.5,-327 783.5,-333 777.5,-333"/>
<text text-anchor="middle" x="724" y="-310" font-family="Times,serif" font-size="20.00" fill="#000000">BOX/facets.m</text>
</g>
<!-- a_4 -->
<g id="node9" class="node">
<title>a_4</title>
<path fill="#ffffff" stroke="#000000" d="M973.5,-225C973.5,-225 474.5,-225 474.5,-225 468.5,-225 462.5,-219 462.5,-213 462.5,-213 462.5,-201 462.5,-201 462.5,-195 468.5,-189 474.5,-189 474.5,-189 973.5,-189 973.5,-189 979.5,-189 985.5,-195 985.5,-201 985.5,-201 985.5,-213 985.5,-213 985.5,-219 979.5,-225 973.5,-225"/>
<text text-anchor="middle" x="724" y="-202" font-family="Times,serif" font-size="20.00" fill="#000000">R_PyPOFacetsModular_BOX_i ... 02.dat_20180310200138.dat</text>
</g>
<!-- v_1_53 -->
<g id="node11" class="node">
<title>v_1_53</title>
<polygon fill="#3a85b9" stroke="#000000" points="377.5,-205 286.5,-205 286.5,-169 377.5,-169 377.5,-205"/>
<text text-anchor="middle" x="332" y="-182" font-family="Times,serif" font-size="20.00" fill="#ffffff">417 main</text>
</g>
<!-- a_4&#45;&gt;v_1_53 -->
<g id="edge1" class="edge">
<title>a_4&#45;&gt;v_1_53</title>
<path fill="none" stroke="#000000" stroke-dasharray="5,2" d="M462.258,-193.6458C434.5468,-192.232 408.8186,-190.9193 387.6722,-189.8404"/>
<polygon fill="#000000" stroke="#000000" points="387.8361,-186.3443 377.6707,-189.3301 387.4793,-193.3352 387.8361,-186.3443"/>
</g>
<!-- a_5 -->
<g id="node10" class="node">
<title>a_5</title>
<path fill="#ffffff" stroke="#000000" d="M975,-171C975,-171 473,-171 473,-171 467,-171 461,-165 461,-159 461,-159 461,-147 461,-147 461,-141 467,-135 473,-135 473,-135 975,-135 975,-135 981,-135 987,-141 987,-147 987,-147 987,-159 987,-159 987,-165 981,-171 975,-171"/>
<text text-anchor="middle" x="724" y="-148" font-family="Times,serif" font-size="20.00" fill="#000000">E0_PyPOFacetsModular_BOX_ ... 02.dat_20180310200138.dat</text>
</g>
<!-- a_5&#45;&gt;v_1_53 -->
<g id="edge5" class="edge">
<title>a_5&#45;&gt;v_1_53</title>
<path fill="none" stroke="#000000" stroke-dasharray="5,2" d="M516.2348,-171.0205C468.8536,-175.13 422.3926,-179.1598 387.9808,-182.1445"/>
<polygon fill="#000000" stroke="#000000" points="387.3605,-178.6851 377.7004,-183.0362 387.9654,-185.6589 387.3605,-178.6851"/>
</g>
<!-- v_1_53&#45;&gt;a_1 -->
<g id="edge6" class="edge">
<title>v_1_53&#45;&gt;a_1</title>
<path fill="none" stroke="#000000" stroke-dasharray="5,2" d="M286.4606,-189.5684C265.3804,-190.7573 239.316,-192.2273 213.4717,-193.6849"/>
<polygon fill="#000000" stroke="#000000" points="212.9905,-190.2064 203.2035,-194.264 213.3847,-197.1953 212.9905,-190.2064"/>
</g>
<!-- v_1_50 -->
<g id="node12" class="node">
<title>v_1_50</title>
<path fill="#85cbd0" stroke="#000000" d="M137,-164C137,-164 66,-164 66,-164 60,-164 54,-158 54,-152 54,-152 54,-140 54,-140 54,-134 60,-128 66,-128 66,-128 137,-128 137,-128 143,-128 149,-134 149,-140 149,-140 149,-152 149,-152 149,-158 143,-164 137,-164"/>
<text text-anchor="middle" x="101.5" y="-141" font-family="Times,serif" font-size="20.00" fill="#000000">416 name</text>
</g>
<!-- v_1_53&#45;&gt;v_1_50 -->
<g id="edge2" class="edge">
<title>v_1_53&#45;&gt;v_1_50</title>
<path fill="none" stroke="#000000" stroke-dasharray="5,2" d="M286.4606,-178.8997C250.0109,-172.4163 198.66,-163.2823 159.3107,-156.283"/>
<polygon fill="#000000" stroke="#000000" points="159.7838,-152.8123 149.3253,-154.5069 158.5578,-159.7041 159.7838,-152.8123"/>
</g>
</g>
</svg>
