<?xml version="1.0" encoding="UTF-8" standalone="no"?>
<!DOCTYPE svg PUBLIC "-//W3C//DTD SVG 1.1//EN"
 "http://www.w3.org/Graphics/SVG/1.1/DTD/svg11.dtd">
<!-- Generated by graphviz version 2.38.0 (20140413.2041)
 -->
<!-- Title: dependency Pages: 1 -->
<svg width="2953pt" height="1029pt"
 viewBox="0.00 0.00 2953.00 1029.00" xmlns="http://www.w3.org/2000/svg" xmlns:xlink="http://www.w3.org/1999/xlink">
<g id="graph0" class="graph" transform="scale(1 1) rotate(0) translate(4 1025)">
<title>dependency</title>
<polygon fill="white" stroke="none" points="-4,4 -4,-1025 2949,-1025 2949,4 -4,4"/>
<!-- v_1_18 -->
<g id="node1" class="node"><title>v_1_18</title>
<polygon fill="#3a85b9" stroke="black" points="142,-36 0,-36 0,-0 142,-0 142,-36"/>
<text text-anchor="middle" x="71" y="-13" font-family="Times,serif" font-size="20.00" fill="white">11 find_module</text>
</g>
<!-- v_3_19 -->
<g id="node2" class="node"><title>v_3_19</title>
<path fill="#85cbd0" stroke="black" d="M2714.5,-90C2714.5,-90 2649.5,-90 2649.5,-90 2643.5,-90 2637.5,-84 2637.5,-78 2637.5,-78 2637.5,-66 2637.5,-66 2637.5,-60 2643.5,-54 2649.5,-54 2649.5,-54 2714.5,-54 2714.5,-54 2720.5,-54 2726.5,-60 2726.5,-66 2726.5,-66 2726.5,-78 2726.5,-78 2726.5,-84 2720.5,-90 2714.5,-90"/>
<text text-anchor="middle" x="2682" y="-67" font-family="Times,serif" font-size="20.00">30 return</text>
</g>
<!-- v_1_21 -->
<g id="node3" class="node"><title>v_1_21</title>
<polygon fill="#3a85b9" stroke="black" points="320,-36 178,-36 178,-0 320,-0 320,-36"/>
<text text-anchor="middle" x="249" y="-13" font-family="Times,serif" font-size="20.00" fill="white">11 find_module</text>
</g>
<!-- v_1_21&#45;&gt;v_1_18 -->
<g id="edge15" class="edge"><title>v_1_21&#45;&gt;v_1_18</title>
<path fill="none" stroke="black" d="M177.934,-18C169.46,-18 160.753,-18 152.148,-18"/>
<polygon fill="black" stroke="black" points="152.112,-14.5001 142.112,-18 152.112,-21.5001 152.112,-14.5001"/>
</g>
<!-- v_4_22 -->
<g id="node4" class="node"><title>v_4_22</title>
<path fill="#85cbd0" stroke="black" d="M2719,-144C2719,-144 2645,-144 2645,-144 2639,-144 2633,-138 2633,-132 2633,-132 2633,-120 2633,-120 2633,-114 2639,-108 2645,-108 2645,-108 2719,-108 2719,-108 2725,-108 2731,-114 2731,-120 2731,-120 2731,-132 2731,-132 2731,-138 2725,-144 2719,-144"/>
<text text-anchor="middle" x="2682" y="-121" font-family="Times,serif" font-size="20.00">187 return</text>
</g>
<!-- v_1_24 -->
<g id="node5" class="node"><title>v_1_24</title>
<polygon fill="#3a85b9" stroke="black" points="498,-36 356,-36 356,-0 498,-0 498,-36"/>
<text text-anchor="middle" x="427" y="-13" font-family="Times,serif" font-size="20.00" fill="white">11 find_module</text>
</g>
<!-- v_1_24&#45;&gt;v_1_21 -->
<g id="edge14" class="edge"><title>v_1_24&#45;&gt;v_1_21</title>
<path fill="none" stroke="black" d="M355.934,-18C347.46,-18 338.753,-18 330.148,-18"/>
<polygon fill="black" stroke="black" points="330.112,-14.5001 320.112,-18 330.112,-21.5001 330.112,-14.5001"/>
</g>
<!-- v_5_25 -->
<g id="node6" class="node"><title>v_5_25</title>
<path fill="#85cbd0" stroke="black" d="M2719,-198C2719,-198 2645,-198 2645,-198 2639,-198 2633,-192 2633,-186 2633,-186 2633,-174 2633,-174 2633,-168 2639,-162 2645,-162 2645,-162 2719,-162 2719,-162 2725,-162 2731,-168 2731,-174 2731,-174 2731,-186 2731,-186 2731,-192 2725,-198 2719,-198"/>
<text text-anchor="middle" x="2682" y="-175" font-family="Times,serif" font-size="20.00">187 return</text>
</g>
<!-- v_1_27 -->
<g id="node7" class="node"><title>v_1_27</title>
<polygon fill="#3a85b9" stroke="black" points="676,-36 534,-36 534,-0 676,-0 676,-36"/>
<text text-anchor="middle" x="605" y="-13" font-family="Times,serif" font-size="20.00" fill="white">11 find_module</text>
</g>
<!-- v_1_27&#45;&gt;v_1_24 -->
<g id="edge10" class="edge"><title>v_1_27&#45;&gt;v_1_24</title>
<path fill="none" stroke="black" d="M533.934,-18C525.46,-18 516.753,-18 508.148,-18"/>
<polygon fill="black" stroke="black" points="508.112,-14.5001 498.112,-18 508.112,-21.5001 508.112,-14.5001"/>
</g>
<!-- v_6_28 -->
<g id="node8" class="node"><title>v_6_28</title>
<path fill="#85cbd0" stroke="black" d="M2719,-252C2719,-252 2645,-252 2645,-252 2639,-252 2633,-246 2633,-240 2633,-240 2633,-228 2633,-228 2633,-222 2639,-216 2645,-216 2645,-216 2719,-216 2719,-216 2725,-216 2731,-222 2731,-228 2731,-228 2731,-240 2731,-240 2731,-246 2725,-252 2719,-252"/>
<text text-anchor="middle" x="2682" y="-229" font-family="Times,serif" font-size="20.00">187 return</text>
</g>
<!-- v_1_30 -->
<g id="node9" class="node"><title>v_1_30</title>
<polygon fill="#3a85b9" stroke="black" points="854,-36 712,-36 712,-0 854,-0 854,-36"/>
<text text-anchor="middle" x="783" y="-13" font-family="Times,serif" font-size="20.00" fill="white">11 find_module</text>
</g>
<!-- v_1_30&#45;&gt;v_1_27 -->
<g id="edge12" class="edge"><title>v_1_30&#45;&gt;v_1_27</title>
<path fill="none" stroke="black" d="M711.934,-18C703.46,-18 694.753,-18 686.148,-18"/>
<polygon fill="black" stroke="black" points="686.112,-14.5001 676.112,-18 686.112,-21.5001 686.112,-14.5001"/>
</g>
<!-- v_7_31 -->
<g id="node10" class="node"><title>v_7_31</title>
<path fill="#85cbd0" stroke="black" d="M2714.5,-306C2714.5,-306 2649.5,-306 2649.5,-306 2643.5,-306 2637.5,-300 2637.5,-294 2637.5,-294 2637.5,-282 2637.5,-282 2637.5,-276 2643.5,-270 2649.5,-270 2649.5,-270 2714.5,-270 2714.5,-270 2720.5,-270 2726.5,-276 2726.5,-282 2726.5,-282 2726.5,-294 2726.5,-294 2726.5,-300 2720.5,-306 2714.5,-306"/>
<text text-anchor="middle" x="2682" y="-283" font-family="Times,serif" font-size="20.00">30 return</text>
</g>
<!-- v_1_33 -->
<g id="node11" class="node"><title>v_1_33</title>
<polygon fill="#3a85b9" stroke="black" points="1032,-36 890,-36 890,-0 1032,-0 1032,-36"/>
<text text-anchor="middle" x="961" y="-13" font-family="Times,serif" font-size="20.00" fill="white">11 find_module</text>
</g>
<!-- v_1_33&#45;&gt;v_1_30 -->
<g id="edge11" class="edge"><title>v_1_33&#45;&gt;v_1_30</title>
<path fill="none" stroke="black" d="M889.934,-18C881.46,-18 872.753,-18 864.148,-18"/>
<polygon fill="black" stroke="black" points="864.112,-14.5001 854.112,-18 864.112,-21.5001 864.112,-14.5001"/>
</g>
<!-- v_8_34 -->
<g id="node12" class="node"><title>v_8_34</title>
<path fill="#85cbd0" stroke="black" d="M2719,-360C2719,-360 2645,-360 2645,-360 2639,-360 2633,-354 2633,-348 2633,-348 2633,-336 2633,-336 2633,-330 2639,-324 2645,-324 2645,-324 2719,-324 2719,-324 2725,-324 2731,-330 2731,-336 2731,-336 2731,-348 2731,-348 2731,-354 2725,-360 2719,-360"/>
<text text-anchor="middle" x="2682" y="-337" font-family="Times,serif" font-size="20.00">113 return</text>
</g>
<!-- v_1_36 -->
<g id="node13" class="node"><title>v_1_36</title>
<polygon fill="#3a85b9" stroke="black" points="1210,-36 1068,-36 1068,-0 1210,-0 1210,-36"/>
<text text-anchor="middle" x="1139" y="-13" font-family="Times,serif" font-size="20.00" fill="white">11 find_module</text>
</g>
<!-- v_1_36&#45;&gt;v_1_33 -->
<g id="edge18" class="edge"><title>v_1_36&#45;&gt;v_1_33</title>
<path fill="none" stroke="black" d="M1067.93,-18C1059.46,-18 1050.75,-18 1042.15,-18"/>
<polygon fill="black" stroke="black" points="1042.11,-14.5001 1032.11,-18 1042.11,-21.5001 1042.11,-14.5001"/>
</g>
<!-- v_9_37 -->
<g id="node14" class="node"><title>v_9_37</title>
<path fill="#85cbd0" stroke="black" d="M2714.5,-414C2714.5,-414 2649.5,-414 2649.5,-414 2643.5,-414 2637.5,-408 2637.5,-402 2637.5,-402 2637.5,-390 2637.5,-390 2637.5,-384 2643.5,-378 2649.5,-378 2649.5,-378 2714.5,-378 2714.5,-378 2720.5,-378 2726.5,-384 2726.5,-390 2726.5,-390 2726.5,-402 2726.5,-402 2726.5,-408 2720.5,-414 2714.5,-414"/>
<text text-anchor="middle" x="2682" y="-391" font-family="Times,serif" font-size="20.00">31 return</text>
</g>
<!-- v_1_39 -->
<g id="node15" class="node"><title>v_1_39</title>
<polygon fill="#3a85b9" stroke="black" points="1388,-36 1246,-36 1246,-0 1388,-0 1388,-36"/>
<text text-anchor="middle" x="1317" y="-13" font-family="Times,serif" font-size="20.00" fill="white">11 find_module</text>
</g>
<!-- v_1_39&#45;&gt;v_1_36 -->
<g id="edge3" class="edge"><title>v_1_39&#45;&gt;v_1_36</title>
<path fill="none" stroke="black" d="M1245.93,-18C1237.46,-18 1228.75,-18 1220.15,-18"/>
<polygon fill="black" stroke="black" points="1220.11,-14.5001 1210.11,-18 1220.11,-21.5001 1220.11,-14.5001"/>
</g>
<!-- v_10_40 -->
<g id="node16" class="node"><title>v_10_40</title>
<path fill="#85cbd0" stroke="black" d="M2714.5,-468C2714.5,-468 2649.5,-468 2649.5,-468 2643.5,-468 2637.5,-462 2637.5,-456 2637.5,-456 2637.5,-444 2637.5,-444 2637.5,-438 2643.5,-432 2649.5,-432 2649.5,-432 2714.5,-432 2714.5,-432 2720.5,-432 2726.5,-438 2726.5,-444 2726.5,-444 2726.5,-456 2726.5,-456 2726.5,-462 2720.5,-468 2714.5,-468"/>
<text text-anchor="middle" x="2682" y="-445" font-family="Times,serif" font-size="20.00">31 return</text>
</g>
<!-- v_1_42 -->
<g id="node17" class="node"><title>v_1_42</title>
<polygon fill="#3a85b9" stroke="black" points="1566,-36 1424,-36 1424,-0 1566,-0 1566,-36"/>
<text text-anchor="middle" x="1495" y="-13" font-family="Times,serif" font-size="20.00" fill="white">11 find_module</text>
</g>
<!-- v_1_42&#45;&gt;v_1_39 -->
<g id="edge6" class="edge"><title>v_1_42&#45;&gt;v_1_39</title>
<path fill="none" stroke="black" d="M1423.93,-18C1415.46,-18 1406.75,-18 1398.15,-18"/>
<polygon fill="black" stroke="black" points="1398.11,-14.5001 1388.11,-18 1398.11,-21.5001 1398.11,-14.5001"/>
</g>
<!-- v_11_43 -->
<g id="node18" class="node"><title>v_11_43</title>
<path fill="#85cbd0" stroke="black" d="M2714.5,-522C2714.5,-522 2649.5,-522 2649.5,-522 2643.5,-522 2637.5,-516 2637.5,-510 2637.5,-510 2637.5,-498 2637.5,-498 2637.5,-492 2643.5,-486 2649.5,-486 2649.5,-486 2714.5,-486 2714.5,-486 2720.5,-486 2726.5,-492 2726.5,-498 2726.5,-498 2726.5,-510 2726.5,-510 2726.5,-516 2720.5,-522 2714.5,-522"/>
<text text-anchor="middle" x="2682" y="-499" font-family="Times,serif" font-size="20.00">31 return</text>
</g>
<!-- v_1_45 -->
<g id="node19" class="node"><title>v_1_45</title>
<polygon fill="#3a85b9" stroke="black" points="1744,-36 1602,-36 1602,-0 1744,-0 1744,-36"/>
<text text-anchor="middle" x="1673" y="-13" font-family="Times,serif" font-size="20.00" fill="white">11 find_module</text>
</g>
<!-- v_1_45&#45;&gt;v_1_42 -->
<g id="edge8" class="edge"><title>v_1_45&#45;&gt;v_1_42</title>
<path fill="none" stroke="black" d="M1601.93,-18C1593.46,-18 1584.75,-18 1576.15,-18"/>
<polygon fill="black" stroke="black" points="1576.11,-14.5001 1566.11,-18 1576.11,-21.5001 1576.11,-14.5001"/>
</g>
<!-- v_12_46 -->
<g id="node20" class="node"><title>v_12_46</title>
<path fill="#85cbd0" stroke="black" d="M2714.5,-576C2714.5,-576 2649.5,-576 2649.5,-576 2643.5,-576 2637.5,-570 2637.5,-564 2637.5,-564 2637.5,-552 2637.5,-552 2637.5,-546 2643.5,-540 2649.5,-540 2649.5,-540 2714.5,-540 2714.5,-540 2720.5,-540 2726.5,-546 2726.5,-552 2726.5,-552 2726.5,-564 2726.5,-564 2726.5,-570 2720.5,-576 2714.5,-576"/>
<text text-anchor="middle" x="2682" y="-553" font-family="Times,serif" font-size="20.00">31 return</text>
</g>
<!-- v_1_48 -->
<g id="node21" class="node"><title>v_1_48</title>
<polygon fill="#3a85b9" stroke="black" points="1922,-36 1780,-36 1780,-0 1922,-0 1922,-36"/>
<text text-anchor="middle" x="1851" y="-13" font-family="Times,serif" font-size="20.00" fill="white">11 find_module</text>
</g>
<!-- v_1_48&#45;&gt;v_1_45 -->
<g id="edge4" class="edge"><title>v_1_48&#45;&gt;v_1_45</title>
<path fill="none" stroke="black" d="M1779.93,-18C1771.46,-18 1762.75,-18 1754.15,-18"/>
<polygon fill="black" stroke="black" points="1754.11,-14.5001 1744.11,-18 1754.11,-21.5001 1754.11,-14.5001"/>
</g>
<!-- v_13_49 -->
<g id="node22" class="node"><title>v_13_49</title>
<path fill="#85cbd0" stroke="black" d="M2714.5,-630C2714.5,-630 2649.5,-630 2649.5,-630 2643.5,-630 2637.5,-624 2637.5,-618 2637.5,-618 2637.5,-606 2637.5,-606 2637.5,-600 2643.5,-594 2649.5,-594 2649.5,-594 2714.5,-594 2714.5,-594 2720.5,-594 2726.5,-600 2726.5,-606 2726.5,-606 2726.5,-618 2726.5,-618 2726.5,-624 2720.5,-630 2714.5,-630"/>
<text text-anchor="middle" x="2682" y="-607" font-family="Times,serif" font-size="20.00">31 return</text>
</g>
<!-- v_1_51 -->
<g id="node23" class="node"><title>v_1_51</title>
<polygon fill="#3a85b9" stroke="black" points="2130.5,-36 1988.5,-36 1988.5,-0 2130.5,-0 2130.5,-36"/>
<text text-anchor="middle" x="2059.5" y="-13" font-family="Times,serif" font-size="20.00" fill="white">11 find_module</text>
</g>
<!-- v_1_51&#45;&gt;v_1_48 -->
<g id="edge9" class="edge"><title>v_1_51&#45;&gt;v_1_48</title>
<path fill="none" stroke="black" d="M1988.3,-18C1970.25,-18 1950.69,-18 1932.17,-18"/>
<polygon fill="black" stroke="black" points="1932.01,-14.5001 1922.01,-18 1932.01,-21.5001 1932.01,-14.5001"/>
</g>
<!-- v_14_52 -->
<g id="node24" class="node"><title>v_14_52</title>
<path fill="#85cbd0" stroke="black" d="M2714.5,-684C2714.5,-684 2649.5,-684 2649.5,-684 2643.5,-684 2637.5,-678 2637.5,-672 2637.5,-672 2637.5,-660 2637.5,-660 2637.5,-654 2643.5,-648 2649.5,-648 2649.5,-648 2714.5,-648 2714.5,-648 2720.5,-648 2726.5,-654 2726.5,-660 2726.5,-660 2726.5,-672 2726.5,-672 2726.5,-678 2720.5,-684 2714.5,-684"/>
<text text-anchor="middle" x="2682" y="-661" font-family="Times,serif" font-size="20.00">31 return</text>
</g>
<!-- v_1_54 -->
<g id="node25" class="node"><title>v_1_54</title>
<polygon fill="#3a85b9" stroke="black" points="2361,-36 2219,-36 2219,-0 2361,-0 2361,-36"/>
<text text-anchor="middle" x="2290" y="-13" font-family="Times,serif" font-size="20.00" fill="white">11 find_module</text>
</g>
<!-- v_1_54&#45;&gt;v_1_51 -->
<g id="edge7" class="edge"><title>v_1_54&#45;&gt;v_1_51</title>
<path fill="none" stroke="black" d="M2218.89,-18C2194.33,-18 2166.56,-18 2141.2,-18"/>
<polygon fill="black" stroke="black" points="2140.87,-14.5001 2130.87,-18 2140.87,-21.5001 2140.87,-14.5001"/>
</g>
<!-- v_15_55 -->
<g id="node26" class="node"><title>v_15_55</title>
<path fill="#85cbd0" stroke="black" d="M2709.5,-738C2709.5,-738 2654.5,-738 2654.5,-738 2648.5,-738 2642.5,-732 2642.5,-726 2642.5,-726 2642.5,-714 2642.5,-714 2642.5,-708 2648.5,-702 2654.5,-702 2654.5,-702 2709.5,-702 2709.5,-702 2715.5,-702 2721.5,-708 2721.5,-714 2721.5,-714 2721.5,-726 2721.5,-726 2721.5,-732 2715.5,-738 2709.5,-738"/>
<text text-anchor="middle" x="2682" y="-715" font-family="Times,serif" font-size="20.00">6 return</text>
</g>
<!-- v_1_57 -->
<g id="node27" class="node"><title>v_1_57</title>
<polygon fill="#3a85b9" stroke="black" points="2908.5,-36 2455.5,-36 2455.5,-0 2908.5,-0 2908.5,-36"/>
<text text-anchor="middle" x="2682" y="-13" font-family="Times,serif" font-size="20.00" fill="white">11 /usr/local/lib/python2.7/ ... lkits/mplot3d/__init__.py</text>
</g>
<!-- v_1_57&#45;&gt;v_1_54 -->
<g id="edge1" class="edge"><title>v_1_57&#45;&gt;v_1_54</title>
<path fill="none" stroke="black" d="M2455.26,-18C2425.36,-18 2396.44,-18 2371.42,-18"/>
<polygon fill="black" stroke="black" points="2371.31,-14.5001 2361.31,-18 2371.31,-21.5001 2371.31,-14.5001"/>
</g>
<!-- v_1_79 -->
<g id="node28" class="node"><title>v_1_79</title>
<polygon fill="#3a85b9" stroke="black" points="2333,-792 2247,-792 2247,-756 2333,-756 2333,-792"/>
<text text-anchor="middle" x="2290" y="-769" font-family="Times,serif" font-size="20.00" fill="white">407 time</text>
</g>
<!-- v_1_80 -->
<g id="node29" class="node"><title>v_1_80</title>
<path fill="#85cbd0" stroke="black" d="M2712.5,-792C2712.5,-792 2651.5,-792 2651.5,-792 2645.5,-792 2639.5,-786 2639.5,-780 2639.5,-780 2639.5,-768 2639.5,-768 2639.5,-762 2645.5,-756 2651.5,-756 2651.5,-756 2712.5,-756 2712.5,-756 2718.5,-756 2724.5,-762 2724.5,-768 2724.5,-768 2724.5,-780 2724.5,-780 2724.5,-786 2718.5,-792 2712.5,-792"/>
<text text-anchor="middle" x="2682" y="-769" font-family="Times,serif" font-size="20.00">407 start</text>
</g>
<!-- v_1_80&#45;&gt;v_1_79 -->
<g id="edge16" class="edge"><title>v_1_80&#45;&gt;v_1_79</title>
<path fill="none" stroke="black" d="M2639.26,-774C2567.61,-774 2421.38,-774 2343.14,-774"/>
<polygon fill="black" stroke="black" points="2343.03,-770.5 2333.03,-774 2343.03,-777.5 2343.03,-770.5"/>
</g>
<!-- v_1_84 -->
<g id="node30" class="node"><title>v_1_84</title>
<polygon fill="#3a85b9" stroke="black" points="2121.5,-846 1997.5,-846 1997.5,-810 2121.5,-810 2121.5,-846"/>
<text text-anchor="middle" x="2059.5" y="-823" font-family="Times,serif" font-size="20.00" fill="white">408 type.now</text>
</g>
<!-- v_1_87 -->
<g id="node31" class="node"><title>v_1_87</title>
<polygon fill="#3a85b9" stroke="black" points="2383,-846 2197,-846 2197,-810 2383,-810 2383,-846"/>
<text text-anchor="middle" x="2290" y="-823" font-family="Times,serif" font-size="20.00" fill="white">408 datetime.strftime</text>
</g>
<!-- v_1_87&#45;&gt;v_1_84 -->
<g id="edge2" class="edge"><title>v_1_87&#45;&gt;v_1_84</title>
<path fill="none" stroke="black" stroke-dasharray="5,2" d="M2196.72,-828C2175.1,-828 2152.4,-828 2131.86,-828"/>
<polygon fill="black" stroke="black" points="2131.64,-824.5 2121.64,-828 2131.64,-831.5 2131.64,-824.5"/>
</g>
<!-- v_1_88 -->
<g id="node32" class="node"><title>v_1_88</title>
<path fill="#85cbd0" stroke="black" d="M2712.5,-846C2712.5,-846 2651.5,-846 2651.5,-846 2645.5,-846 2639.5,-840 2639.5,-834 2639.5,-834 2639.5,-822 2639.5,-822 2639.5,-816 2645.5,-810 2651.5,-810 2651.5,-810 2712.5,-810 2712.5,-810 2718.5,-810 2724.5,-816 2724.5,-822 2724.5,-822 2724.5,-834 2724.5,-834 2724.5,-840 2718.5,-846 2712.5,-846"/>
<text text-anchor="middle" x="2682" y="-823" font-family="Times,serif" font-size="20.00">408 now</text>
</g>
<!-- v_1_88&#45;&gt;v_1_87 -->
<g id="edge17" class="edge"><title>v_1_88&#45;&gt;v_1_87</title>
<path fill="none" stroke="black" d="M2639.26,-828C2581.03,-828 2473.55,-828 2393.33,-828"/>
<polygon fill="black" stroke="black" points="2393.19,-824.5 2383.19,-828 2393.19,-831.5 2393.19,-824.5"/>
</g>
<!-- a_1 -->
<g id="node33" class="node"><title>a_1</title>
<path fill="white" stroke="black" d="M2149,-927C2149,-927 1970,-927 1970,-927 1964,-927 1958,-921 1958,-915 1958,-915 1958,-903 1958,-903 1958,-897 1964,-891 1970,-891 1970,-891 2149,-891 2149,-891 2155,-891 2161,-897 2161,-903 2161,-903 2161,-915 2161,-915 2161,-921 2155,-927 2149,-927"/>
<text text-anchor="middle" x="2059.5" y="-904" font-family="Times,serif" font-size="20.00">input_data_file_001.dat</text>
</g>
<!-- a_3 -->
<g id="node34" class="node"><title>a_3</title>
<path fill="white" stroke="black" d="M2931.5,-967C2931.5,-967 2432.5,-967 2432.5,-967 2426.5,-967 2420.5,-961 2420.5,-955 2420.5,-955 2420.5,-943 2420.5,-943 2420.5,-937 2426.5,-931 2432.5,-931 2432.5,-931 2931.5,-931 2931.5,-931 2937.5,-931 2943.5,-937 2943.5,-943 2943.5,-943 2943.5,-955 2943.5,-955 2943.5,-961 2937.5,-967 2931.5,-967"/>
<text text-anchor="middle" x="2682" y="-944" font-family="Times,serif" font-size="20.00">R_PyPOFacetsModular_BOX_i ... 01.dat_20180308040633.dat</text>
</g>
<!-- v_1_132635 -->
<g id="node36" class="node"><title>v_1_132635</title>
<polygon fill="#3a85b9" stroke="black" points="2335.5,-927 2244.5,-927 2244.5,-891 2335.5,-891 2335.5,-927"/>
<text text-anchor="middle" x="2290" y="-904" font-family="Times,serif" font-size="20.00" fill="white">417 main</text>
</g>
<!-- a_3&#45;&gt;v_1_132635 -->
<g id="edge13" class="edge"><title>a_3&#45;&gt;v_1_132635</title>
<path fill="none" stroke="black" stroke-dasharray="5,2" d="M2505.4,-930.989C2447.49,-925.051 2387.29,-918.876 2345.47,-914.587"/>
<polygon fill="black" stroke="black" points="2345.82,-911.104 2335.52,-913.566 2345.11,-918.068 2345.82,-911.104"/>
</g>
<!-- a_4 -->
<g id="node35" class="node"><title>a_4</title>
<path fill="white" stroke="black" d="M2933,-913C2933,-913 2431,-913 2431,-913 2425,-913 2419,-907 2419,-901 2419,-901 2419,-889 2419,-889 2419,-883 2425,-877 2431,-877 2431,-877 2933,-877 2933,-877 2939,-877 2945,-883 2945,-889 2945,-889 2945,-901 2945,-901 2945,-907 2939,-913 2933,-913"/>
<text text-anchor="middle" x="2682" y="-890" font-family="Times,serif" font-size="20.00">E0_PyPOFacetsModular_BOX_ ... 01.dat_20180308040633.dat</text>
</g>
<!-- a_4&#45;&gt;v_1_132635 -->
<g id="edge19" class="edge"><title>a_4&#45;&gt;v_1_132635</title>
<path fill="none" stroke="black" stroke-dasharray="5,2" d="M2418.97,-904.406C2391.69,-905.385 2366.41,-906.293 2345.64,-907.038"/>
<polygon fill="black" stroke="black" points="2345.38,-903.545 2335.52,-907.402 2345.63,-910.541 2345.38,-903.545"/>
</g>
<!-- v_1_132635&#45;&gt;a_1 -->
<g id="edge5" class="edge"><title>v_1_132635&#45;&gt;a_1</title>
<path fill="none" stroke="black" stroke-dasharray="5,2" d="M2244.4,-909C2223.42,-909 2197.37,-909 2171.54,-909"/>
<polygon fill="black" stroke="black" points="2171.27,-905.5 2161.27,-909 2171.27,-912.5 2171.27,-905.5"/>
</g>
<!-- v_1_90 -->
<g id="node37" class="node"><title>v_1_90</title>
<path fill="#85cbd0" stroke="black" d="M2717.5,-1021C2717.5,-1021 2646.5,-1021 2646.5,-1021 2640.5,-1021 2634.5,-1015 2634.5,-1009 2634.5,-1009 2634.5,-997 2634.5,-997 2634.5,-991 2640.5,-985 2646.5,-985 2646.5,-985 2717.5,-985 2717.5,-985 2723.5,-985 2729.5,-991 2729.5,-997 2729.5,-997 2729.5,-1009 2729.5,-1009 2729.5,-1015 2723.5,-1021 2717.5,-1021"/>
<text text-anchor="middle" x="2682" y="-998" font-family="Times,serif" font-size="20.00">416 name</text>
</g>
</g>
</svg>
