<?xml version="1.0" encoding="UTF-8" standalone="no"?>
<!DOCTYPE svg PUBLIC "-//W3C//DTD SVG 1.1//EN"
 "http://www.w3.org/Graphics/SVG/1.1/DTD/svg11.dtd">
<!-- Generated by graphviz version 2.40.1 (20161225.0304)
 -->
<!-- Title: dependency Pages: 1 -->
<svg width="2237pt" height="1284pt"
 viewBox="0.00 0.00 2237.00 1284.00" xmlns="http://www.w3.org/2000/svg" xmlns:xlink="http://www.w3.org/1999/xlink">
<g id="graph0" class="graph" transform="scale(1 1) rotate(0) translate(4 1280)">
<title>dependency</title>
<polygon fill="#ffffff" stroke="transparent" points="-4,4 -4,-1280 2233,-1280 2233,4 -4,4"/>
<!-- v_1_46 -->
<g id="node1" class="node">
<title>v_1_46</title>
<polygon fill="#3a85b9" stroke="#000000" points="2010,-247 1922,-247 1922,-211 2010,-211 2010,-247"/>
<text text-anchor="middle" x="1966" y="-224" font-family="Times,serif" font-size="20.00" fill="#ffffff">266 print</text>
</g>
<!-- v_1_43 -->
<g id="node2" class="node">
<title>v_1_43</title>
<path fill="#85cbd0" stroke="#000000" d="M1561,-247C1561,-247 1415,-247 1415,-247 1409,-247 1403,-241 1403,-235 1403,-235 1403,-223 1403,-223 1403,-217 1409,-211 1415,-211 1415,-211 1561,-211 1561,-211 1567,-211 1573,-217 1573,-223 1573,-223 1573,-235 1573,-235 1573,-241 1567,-247 1561,-247"/>
<text text-anchor="middle" x="1488" y="-224" font-family="Times,serif" font-size="20.00" fill="#000000">265 input_data_file</text>
</g>
<!-- v_1_46&#45;&gt;v_1_43 -->
<g id="edge75" class="edge">
<title>v_1_46&#45;&gt;v_1_43</title>
<path fill="none" stroke="#000000" stroke-dasharray="5,2" d="M1921.8877,-229C1845.2804,-229 1686.0154,-229 1583.2227,-229"/>
<polygon fill="#000000" stroke="#000000" points="1583.1469,-225.5001 1573.1468,-229 1583.1468,-232.5001 1583.1469,-225.5001"/>
</g>
<!-- a_1 -->
<g id="node3" class="node">
<title>a_1</title>
<path fill="#ffffff" stroke="#000000" d="M191,-360C191,-360 12,-360 12,-360 6,-360 0,-354 0,-348 0,-348 0,-336 0,-336 0,-330 6,-324 12,-324 12,-324 191,-324 191,-324 197,-324 203,-330 203,-336 203,-336 203,-348 203,-348 203,-354 197,-360 191,-360"/>
<text text-anchor="middle" x="101.5" y="-337" font-family="Times,serif" font-size="20.00" fill="#000000">input_data_file_002.dat</text>
</g>
<!-- v_1_222 -->
<g id="node4" class="node">
<title>v_1_222</title>
<polygon fill="#3a85b9" stroke="#000000" points="459,-360 264,-360 264,-324 459,-324 459,-360"/>
<text text-anchor="middle" x="361.5" y="-337" font-family="Times,serif" font-size="20.00" fill="#ffffff">268 read_param_input</text>
</g>
<!-- v_1_222&#45;&gt;a_1 -->
<g id="edge13" class="edge">
<title>v_1_222&#45;&gt;a_1</title>
<path fill="none" stroke="#000000" stroke-dasharray="5,2" d="M263.9459,-342C247.4786,-342 230.2694,-342 213.4698,-342"/>
<polygon fill="#000000" stroke="#000000" points="213.0729,-338.5001 203.0729,-342 213.0729,-345.5001 213.0729,-338.5001"/>
</g>
<!-- v_1_223 -->
<g id="node5" class="node">
<title>v_1_223</title>
<path fill="#85cbd0" stroke="#000000" d="M1129.5,-682C1129.5,-682 1055.5,-682 1055.5,-682 1049.5,-682 1043.5,-676 1043.5,-670 1043.5,-670 1043.5,-658 1043.5,-658 1043.5,-652 1049.5,-646 1055.5,-646 1055.5,-646 1129.5,-646 1129.5,-646 1135.5,-646 1141.5,-652 1141.5,-658 1141.5,-658 1141.5,-670 1141.5,-670 1141.5,-676 1135.5,-682 1129.5,-682"/>
<text text-anchor="middle" x="1092.5" y="-659" font-family="Times,serif" font-size="20.00" fill="#000000">268 delstd</text>
</g>
<!-- v_1_223&#45;&gt;v_1_222 -->
<g id="edge27" class="edge">
<title>v_1_223&#45;&gt;v_1_222</title>
<path fill="none" stroke="#000000" d="M1043.3412,-672.7885C935.2848,-689.1361 674.4443,-711.9382 520,-585 445.9178,-524.1116 394.3619,-419.391 372.7999,-369.7086"/>
<polygon fill="#000000" stroke="#000000" points="375.9124,-368.0844 368.773,-360.2562 369.4725,-370.8279 375.9124,-368.0844"/>
</g>
<!-- v_1_224 -->
<g id="node6" class="node">
<title>v_1_224</title>
<path fill="#85cbd0" stroke="#000000" d="M597.5,-576C597.5,-576 540.5,-576 540.5,-576 534.5,-576 528.5,-570 528.5,-564 528.5,-564 528.5,-552 528.5,-552 528.5,-546 534.5,-540 540.5,-540 540.5,-540 597.5,-540 597.5,-540 603.5,-540 609.5,-546 609.5,-552 609.5,-552 609.5,-564 609.5,-564 609.5,-570 603.5,-576 597.5,-576"/>
<text text-anchor="middle" x="569" y="-553" font-family="Times,serif" font-size="20.00" fill="#000000">268 ipol</text>
</g>
<!-- v_1_224&#45;&gt;v_1_222 -->
<g id="edge40" class="edge">
<title>v_1_224&#45;&gt;v_1_222</title>
<path fill="none" stroke="#000000" d="M551.6656,-539.9555C514.8191,-501.5997 428.6111,-411.8602 386.0963,-367.6038"/>
<polygon fill="#000000" stroke="#000000" points="388.3829,-364.9319 378.931,-360.1451 383.3348,-369.7814 388.3829,-364.9319"/>
</g>
<!-- v_1_225 -->
<g id="node7" class="node">
<title>v_1_225</title>
<path fill="#85cbd0" stroke="#000000" d="M602,-495C602,-495 536,-495 536,-495 530,-495 524,-489 524,-483 524,-483 524,-471 524,-471 524,-465 530,-459 536,-459 536,-459 602,-459 602,-459 608,-459 614,-465 614,-471 614,-471 614,-483 614,-483 614,-489 608,-495 602,-495"/>
<text text-anchor="middle" x="569" y="-472" font-family="Times,serif" font-size="20.00" fill="#000000">268 tstart</text>
</g>
<!-- v_1_225&#45;&gt;v_1_222 -->
<g id="edge32" class="edge">
<title>v_1_225&#45;&gt;v_1_222</title>
<path fill="none" stroke="#000000" d="M535.2829,-458.9702C530.1177,-456.0507 524.8829,-452.9996 520,-450 475.7825,-422.8367 426.6603,-388.7202 394.9927,-366.1834"/>
<polygon fill="#000000" stroke="#000000" points="396.7145,-363.1121 386.5423,-360.1494 392.6467,-368.8089 396.7145,-363.1121"/>
</g>
<!-- v_1_226 -->
<g id="node8" class="node">
<title>v_1_226</title>
<path fill="#85cbd0" stroke="#000000" d="M604.5,-441C604.5,-441 533.5,-441 533.5,-441 527.5,-441 521.5,-435 521.5,-429 521.5,-429 521.5,-417 521.5,-417 521.5,-411 527.5,-405 533.5,-405 533.5,-405 604.5,-405 604.5,-405 610.5,-405 616.5,-411 616.5,-417 616.5,-417 616.5,-429 616.5,-429 616.5,-435 610.5,-441 604.5,-441"/>
<text text-anchor="middle" x="569" y="-418" font-family="Times,serif" font-size="20.00" fill="#000000">268 pstart</text>
</g>
<!-- v_1_226&#45;&gt;v_1_222 -->
<g id="edge74" class="edge">
<title>v_1_226&#45;&gt;v_1_222</title>
<path fill="none" stroke="#000000" d="M522.6912,-404.9228C491.4909,-392.7434 450.1701,-376.6134 417.1767,-363.734"/>
<polygon fill="#000000" stroke="#000000" points="418.2554,-360.398 407.6672,-360.0219 415.7099,-366.9187 418.2554,-360.398"/>
</g>
<!-- v_1_227 -->
<g id="node9" class="node">
<title>v_1_227</title>
<path fill="#85cbd0" stroke="#000000" d="M599.5,-387C599.5,-387 538.5,-387 538.5,-387 532.5,-387 526.5,-381 526.5,-375 526.5,-375 526.5,-363 526.5,-363 526.5,-357 532.5,-351 538.5,-351 538.5,-351 599.5,-351 599.5,-351 605.5,-351 611.5,-357 611.5,-363 611.5,-363 611.5,-375 611.5,-375 611.5,-381 605.5,-387 599.5,-387"/>
<text text-anchor="middle" x="569" y="-364" font-family="Times,serif" font-size="20.00" fill="#000000">268 delp</text>
</g>
<!-- v_1_227&#45;&gt;v_1_222 -->
<g id="edge80" class="edge">
<title>v_1_227&#45;&gt;v_1_222</title>
<path fill="none" stroke="#000000" d="M526.2575,-363.4383C509.5369,-361.2626 489.5374,-358.6603 469.3313,-356.0311"/>
<polygon fill="#000000" stroke="#000000" points="469.7768,-352.5596 459.4087,-354.7399 468.8735,-359.5011 469.7768,-352.5596"/>
</g>
<!-- v_1_228 -->
<g id="node10" class="node">
<title>v_1_228</title>
<path fill="#85cbd0" stroke="#000000" d="M597,-333C597,-333 541,-333 541,-333 535,-333 529,-327 529,-321 529,-321 529,-309 529,-309 529,-303 535,-297 541,-297 541,-297 597,-297 597,-297 603,-297 609,-303 609,-309 609,-309 609,-321 609,-321 609,-327 603,-333 597,-333"/>
<text text-anchor="middle" x="569" y="-310" font-family="Times,serif" font-size="20.00" fill="#000000">268 delt</text>
</g>
<!-- v_1_228&#45;&gt;v_1_222 -->
<g id="edge28" class="edge">
<title>v_1_228&#45;&gt;v_1_222</title>
<path fill="none" stroke="#000000" d="M528.9919,-320.2059C511.7086,-322.4548 490.5721,-325.2051 469.2114,-327.9845"/>
<polygon fill="#000000" stroke="#000000" points="468.5249,-324.5443 459.0602,-329.3054 469.4282,-331.4858 468.5249,-324.5443"/>
</g>
<!-- v_1_229 -->
<g id="node11" class="node">
<title>v_1_229</title>
<path fill="#85cbd0" stroke="#000000" d="M598.5,-157C598.5,-157 539.5,-157 539.5,-157 533.5,-157 527.5,-151 527.5,-145 527.5,-145 527.5,-133 527.5,-133 527.5,-127 533.5,-121 539.5,-121 539.5,-121 598.5,-121 598.5,-121 604.5,-121 610.5,-127 610.5,-133 610.5,-133 610.5,-145 610.5,-145 610.5,-151 604.5,-157 598.5,-157"/>
<text text-anchor="middle" x="569" y="-134" font-family="Times,serif" font-size="20.00" fill="#000000">268 corr</text>
</g>
<!-- v_1_229&#45;&gt;v_1_222 -->
<g id="edge51" class="edge">
<title>v_1_229&#45;&gt;v_1_222</title>
<path fill="none" stroke="#000000" d="M546.154,-157.319C537.7708,-164.2472 528.305,-172.3167 520,-180 470.2085,-226.064 415.6015,-283.5508 385.2434,-316.1877"/>
<polygon fill="#000000" stroke="#000000" points="382.299,-314.2154 378.0654,-323.9277 387.4315,-318.9753 382.299,-314.2154"/>
</g>
<!-- v_1_230 -->
<g id="node12" class="node">
<title>v_1_230</title>
<path fill="#85cbd0" stroke="#000000" d="M601.5,-279C601.5,-279 536.5,-279 536.5,-279 530.5,-279 524.5,-273 524.5,-267 524.5,-267 524.5,-255 524.5,-255 524.5,-249 530.5,-243 536.5,-243 536.5,-243 601.5,-243 601.5,-243 607.5,-243 613.5,-249 613.5,-255 613.5,-255 613.5,-267 613.5,-267 613.5,-273 607.5,-279 601.5,-279"/>
<text text-anchor="middle" x="569" y="-256" font-family="Times,serif" font-size="20.00" fill="#000000">268 tstop</text>
</g>
<!-- v_1_230&#45;&gt;v_1_222 -->
<g id="edge53" class="edge">
<title>v_1_230&#45;&gt;v_1_222</title>
<path fill="none" stroke="#000000" d="M524.486,-278.3765C493.1631,-290.6038 451.0071,-307.0599 417.4158,-320.1726"/>
<polygon fill="#000000" stroke="#000000" points="415.7799,-317.0539 407.7372,-323.9508 418.3254,-323.5747 415.7799,-317.0539"/>
</g>
<!-- v_1_231 -->
<g id="node13" class="node">
<title>v_1_231</title>
<path fill="#85cbd0" stroke="#000000" d="M598.5,-90C598.5,-90 539.5,-90 539.5,-90 533.5,-90 527.5,-84 527.5,-78 527.5,-78 527.5,-66 527.5,-66 527.5,-60 533.5,-54 539.5,-54 539.5,-54 598.5,-54 598.5,-54 604.5,-54 610.5,-60 610.5,-66 610.5,-66 610.5,-78 610.5,-78 610.5,-84 604.5,-90 598.5,-90"/>
<text text-anchor="middle" x="569" y="-67" font-family="Times,serif" font-size="20.00" fill="#000000">268 freq</text>
</g>
<!-- v_1_231&#45;&gt;v_1_222 -->
<g id="edge39" class="edge">
<title>v_1_231&#45;&gt;v_1_222</title>
<path fill="none" stroke="#000000" d="M544.1293,-90.0601C536.0037,-96.5287 527.2201,-104.1683 520,-112 458.7793,-178.4068 402.7425,-269.9301 376.7522,-314.8723"/>
<polygon fill="#000000" stroke="#000000" points="373.6112,-313.3139 371.6712,-323.7296 379.6831,-316.7971 373.6112,-313.3139"/>
</g>
<!-- v_1_232 -->
<g id="node14" class="node">
<title>v_1_232</title>
<path fill="#85cbd0" stroke="#000000" d="M603.5,-225C603.5,-225 534.5,-225 534.5,-225 528.5,-225 522.5,-219 522.5,-213 522.5,-213 522.5,-201 522.5,-201 522.5,-195 528.5,-189 534.5,-189 534.5,-189 603.5,-189 603.5,-189 609.5,-189 615.5,-195 615.5,-201 615.5,-201 615.5,-213 615.5,-213 615.5,-219 609.5,-225 603.5,-225"/>
<text text-anchor="middle" x="569" y="-202" font-family="Times,serif" font-size="20.00" fill="#000000">268 pstop</text>
</g>
<!-- v_1_232&#45;&gt;v_1_222 -->
<g id="edge25" class="edge">
<title>v_1_232&#45;&gt;v_1_222</title>
<path fill="none" stroke="#000000" d="M535.2829,-225.0298C530.1177,-227.9493 524.8829,-231.0004 520,-234 475.7825,-261.1633 426.6603,-295.2798 394.9927,-317.8166"/>
<polygon fill="#000000" stroke="#000000" points="392.6467,-315.1911 386.5423,-323.8506 396.7145,-320.8879 392.6467,-315.1911"/>
</g>
<!-- v_1_235 -->
<g id="node15" class="node">
<title>v_1_235</title>
<polygon fill="#3a85b9" stroke="#000000" points="873,-36 785,-36 785,0 873,0 873,-36"/>
<text text-anchor="middle" x="829" y="-13" font-family="Times,serif" font-size="20.00" fill="#ffffff">272 print</text>
</g>
<!-- v_1_235&#45;&gt;v_1_231 -->
<g id="edge38" class="edge">
<title>v_1_235&#45;&gt;v_1_231</title>
<path fill="none" stroke="#000000" stroke-dasharray="5,2" d="M784.7677,-22.9054C749.1681,-27.3122 697.9966,-34.6835 654,-45 642.9237,-47.5972 631.2033,-50.9278 620.1211,-54.3568"/>
<polygon fill="#000000" stroke="#000000" points="619.0548,-51.023 610.5786,-57.3795 621.1687,-57.6962 619.0548,-51.023"/>
</g>
<!-- v_1_241 -->
<g id="node16" class="node">
<title>v_1_241</title>
<polygon fill="#3a85b9" stroke="#000000" points="940,-90 718,-90 718,-54 940,-54 940,-90"/>
<text text-anchor="middle" x="829" y="-67" font-family="Times,serif" font-size="20.00" fill="#ffffff">275 calculate_wavelength</text>
</g>
<!-- v_1_241&#45;&gt;v_1_231 -->
<g id="edge44" class="edge">
<title>v_1_241&#45;&gt;v_1_231</title>
<path fill="none" stroke="#000000" stroke-dasharray="5,2" d="M717.9824,-72C684.3261,-72 648.935,-72 621.0958,-72"/>
<polygon fill="#000000" stroke="#000000" points="620.8153,-68.5001 610.8152,-72 620.8152,-75.5001 620.8153,-68.5001"/>
</g>
<!-- v_1_242 -->
<g id="node17" class="node">
<title>v_1_242</title>
<path fill="#85cbd0" stroke="#000000" d="M1133,-144C1133,-144 1052,-144 1052,-144 1046,-144 1040,-138 1040,-132 1040,-132 1040,-120 1040,-120 1040,-114 1046,-108 1052,-108 1052,-108 1133,-108 1133,-108 1139,-108 1145,-114 1145,-120 1145,-120 1145,-132 1145,-132 1145,-138 1139,-144 1133,-144"/>
<text text-anchor="middle" x="1092.5" y="-121" font-family="Times,serif" font-size="20.00" fill="#000000">275 waveL</text>
</g>
<!-- v_1_242&#45;&gt;v_1_241 -->
<g id="edge62" class="edge">
<title>v_1_242&#45;&gt;v_1_241</title>
<path fill="none" stroke="#000000" d="M1039.9513,-108.6184C1028.2045,-105.1116 1015.7452,-101.6832 1004,-99 986.6787,-95.0429 968.2585,-91.4964 950.1187,-88.3767"/>
<polygon fill="#000000" stroke="#000000" points="950.5206,-84.8952 940.0785,-86.6876 949.3592,-91.7982 950.5206,-84.8952"/>
</g>
<!-- v_1_245 -->
<g id="node18" class="node">
<title>v_1_245</title>
<polygon fill="#3a85b9" stroke="#000000" points="1271,-198 1183,-198 1183,-162 1271,-162 1271,-198"/>
<text text-anchor="middle" x="1227" y="-175" font-family="Times,serif" font-size="20.00" fill="#ffffff">276 print</text>
</g>
<!-- v_1_245&#45;&gt;v_1_242 -->
<g id="edge60" class="edge">
<title>v_1_245&#45;&gt;v_1_242</title>
<path fill="none" stroke="#000000" stroke-dasharray="5,2" d="M1182.9597,-162.3184C1171.4737,-157.7069 1158.9582,-152.6821 1147.0008,-147.8814"/>
<polygon fill="#000000" stroke="#000000" points="1148.1453,-144.5694 1137.5613,-144.0915 1145.5372,-151.0654 1148.1453,-144.5694"/>
</g>
<!-- v_1_248 -->
<g id="node19" class="node">
<title>v_1_248</title>
<polygon fill="#3a85b9" stroke="#000000" points="873,-144 785,-144 785,-108 873,-108 873,-144"/>
<text text-anchor="middle" x="829" y="-121" font-family="Times,serif" font-size="20.00" fill="#ffffff">279 print</text>
</g>
<!-- v_1_248&#45;&gt;v_1_229 -->
<g id="edge59" class="edge">
<title>v_1_248&#45;&gt;v_1_229</title>
<path fill="none" stroke="#000000" stroke-dasharray="5,2" d="M784.8945,-128.2053C739.5422,-130.4729 668.9451,-134.0027 620.9245,-136.4038"/>
<polygon fill="#000000" stroke="#000000" points="620.5501,-132.918 610.7374,-136.9131 620.8998,-139.9093 620.5501,-132.918"/>
</g>
<!-- v_1_252 -->
<g id="node20" class="node">
<title>v_1_252</title>
<polygon fill="#3a85b9" stroke="#000000" points="1271,-682 1183,-682 1183,-646 1271,-646 1271,-682"/>
<text text-anchor="middle" x="1227" y="-659" font-family="Times,serif" font-size="20.00" fill="#ffffff">282 print</text>
</g>
<!-- v_1_252&#45;&gt;v_1_223 -->
<g id="edge79" class="edge">
<title>v_1_252&#45;&gt;v_1_223</title>
<path fill="none" stroke="#000000" stroke-dasharray="5,2" d="M1182.9597,-664C1173.0766,-664 1162.4312,-664 1152.0351,-664"/>
<polygon fill="#000000" stroke="#000000" points="1151.7596,-660.5001 1141.7595,-664 1151.7595,-667.5001 1151.7596,-660.5001"/>
</g>
<!-- v_1_258 -->
<g id="node21" class="node">
<title>v_1_258</title>
<polygon fill="#3a85b9" stroke="#000000" points="1528,-301 1448,-301 1448,-265 1528,-265 1528,-301"/>
<text text-anchor="middle" x="1488" y="-278" font-family="Times,serif" font-size="20.00" fill="#ffffff">285 exp</text>
</g>
<!-- v_1_254 -->
<g id="node22" class="node">
<title>v_1_254</title>
<path fill="#85cbd0" stroke="#000000" d="M1250.5,-144C1250.5,-144 1203.5,-144 1203.5,-144 1197.5,-144 1191.5,-138 1191.5,-132 1191.5,-132 1191.5,-120 1191.5,-120 1191.5,-114 1197.5,-108 1203.5,-108 1203.5,-108 1250.5,-108 1250.5,-108 1256.5,-108 1262.5,-114 1262.5,-120 1262.5,-120 1262.5,-132 1262.5,-132 1262.5,-138 1256.5,-144 1250.5,-144"/>
<text text-anchor="middle" x="1227" y="-121" font-family="Times,serif" font-size="20.00" fill="#000000">284 bk</text>
</g>
<!-- v_1_258&#45;&gt;v_1_254 -->
<g id="edge6" class="edge">
<title>v_1_258&#45;&gt;v_1_254</title>
<path fill="none" stroke="#000000" stroke-dasharray="5,2" d="M1447.6956,-287.9953C1407.957,-290.6149 1347.7135,-288.0907 1309,-256 1271.6656,-225.0525 1303.7979,-190.4579 1273,-153 1272.173,-151.9941 1271.298,-151.0173 1270.3828,-150.0693"/>
<polygon fill="#000000" stroke="#000000" points="1272.5425,-147.3086 1262.709,-143.365 1267.937,-152.5801 1272.5425,-147.3086"/>
</g>
<!-- v_1_253 -->
<g id="node23" class="node">
<title>v_1_253</title>
<path fill="#85cbd0" stroke="#000000" d="M1261,-457C1261,-457 1193,-457 1193,-457 1187,-457 1181,-451 1181,-445 1181,-445 1181,-433 1181,-433 1181,-427 1187,-421 1193,-421 1193,-421 1261,-421 1261,-421 1267,-421 1273,-427 1273,-433 1273,-433 1273,-445 1273,-445 1273,-451 1267,-457 1261,-457"/>
<text text-anchor="middle" x="1227" y="-434" font-family="Times,serif" font-size="20.00" fill="#000000">283 delsq</text>
</g>
<!-- v_1_258&#45;&gt;v_1_253 -->
<g id="edge76" class="edge">
<title>v_1_258&#45;&gt;v_1_253</title>
<path fill="none" stroke="#000000" stroke-dasharray="5,2" d="M1457.805,-301.0476C1410.3639,-329.4032 1318.3887,-384.3769 1266.0036,-415.6875"/>
<polygon fill="#000000" stroke="#000000" points="1264.1138,-412.7395 1257.3258,-420.8742 1267.7051,-418.748 1264.1138,-412.7395"/>
</g>
<!-- v_1_254&#45;&gt;v_1_242 -->
<g id="edge20" class="edge">
<title>v_1_254&#45;&gt;v_1_242</title>
<path fill="none" stroke="#000000" d="M1191.3096,-126C1180.2439,-126 1167.7038,-126 1155.3617,-126"/>
<polygon fill="#000000" stroke="#000000" points="1155.0776,-122.5001 1145.0776,-126 1155.0775,-129.5001 1155.0776,-122.5001"/>
</g>
<!-- v_1_253&#45;&gt;v_1_223 -->
<g id="edge34" class="edge">
<title>v_1_253&#45;&gt;v_1_223</title>
<path fill="none" stroke="#000000" d="M1223.8528,-457.1114C1216.4443,-494.8957 1194.6504,-583.0816 1145,-637 1144.2363,-637.8294 1143.4413,-638.6373 1142.6191,-639.4241"/>
<polygon fill="#000000" stroke="#000000" points="1140.1492,-636.9212 1134.5955,-645.9438 1144.5636,-642.3539 1140.1492,-636.9212"/>
</g>
<!-- v_1_259 -->
<g id="node24" class="node">
<title>v_1_259</title>
<path fill="#85cbd0" stroke="#000000" d="M2004,-301C2004,-301 1928,-301 1928,-301 1922,-301 1916,-295 1916,-289 1916,-289 1916,-277 1916,-277 1916,-271 1922,-265 1928,-265 1928,-265 2004,-265 2004,-265 2010,-265 2016,-271 2016,-277 2016,-277 2016,-289 2016,-289 2016,-295 2010,-301 2004,-301"/>
<text text-anchor="middle" x="1966" y="-278" font-family="Times,serif" font-size="20.00" fill="#000000">285 cfact1</text>
</g>
<!-- v_1_259&#45;&gt;v_1_258 -->
<g id="edge46" class="edge">
<title>v_1_259&#45;&gt;v_1_258</title>
<path fill="none" stroke="#000000" d="M1915.7491,-283C1824.0054,-283 1630.3852,-283 1538.4756,-283"/>
<polygon fill="#000000" stroke="#000000" points="1538.314,-279.5001 1528.314,-283 1538.3139,-286.5001 1538.314,-279.5001"/>
</g>
<!-- v_1_266 -->
<g id="node25" class="node">
<title>v_1_266</title>
<polygon fill="#3a85b9" stroke="#000000" points="873,-576 785,-576 785,-540 873,-540 873,-576"/>
<text text-anchor="middle" x="829" y="-553" font-family="Times,serif" font-size="20.00" fill="#ffffff">291 print</text>
</g>
<!-- v_1_266&#45;&gt;v_1_224 -->
<g id="edge15" class="edge">
<title>v_1_266&#45;&gt;v_1_224</title>
<path fill="none" stroke="#000000" stroke-dasharray="5,2" d="M784.8945,-558C739.2723,-558 668.1037,-558 620.0694,-558"/>
<polygon fill="#000000" stroke="#000000" points="619.8887,-554.5001 609.8886,-558 619.8886,-561.5001 619.8887,-554.5001"/>
</g>
<!-- v_1_272 -->
<g id="node26" class="node">
<title>v_1_272</title>
<polygon fill="#3a85b9" stroke="#000000" points="1004,-630 654,-630 654,-594 1004,-594 1004,-630"/>
<text text-anchor="middle" x="829" y="-607" font-family="Times,serif" font-size="20.00" fill="#ffffff">294 calculate_incident_wave_polarization</text>
</g>
<!-- v_1_272&#45;&gt;v_1_224 -->
<g id="edge23" class="edge">
<title>v_1_272&#45;&gt;v_1_224</title>
<path fill="none" stroke="#000000" stroke-dasharray="5,2" d="M697.6577,-593.9915C682.8673,-591.2959 668.0669,-588.2985 654,-585 642.6905,-582.3481 630.7095,-578.9317 619.422,-575.4265"/>
<polygon fill="#000000" stroke="#000000" points="620.3059,-572.035 609.7155,-572.3404 618.1849,-578.7059 620.3059,-572.035"/>
</g>
<!-- v_1_273 -->
<g id="node27" class="node">
<title>v_1_273</title>
<path fill="#85cbd0" stroke="#000000" d="M1114.5,-628C1114.5,-628 1070.5,-628 1070.5,-628 1064.5,-628 1058.5,-622 1058.5,-616 1058.5,-616 1058.5,-604 1058.5,-604 1058.5,-598 1064.5,-592 1070.5,-592 1070.5,-592 1114.5,-592 1114.5,-592 1120.5,-592 1126.5,-598 1126.5,-604 1126.5,-604 1126.5,-616 1126.5,-616 1126.5,-622 1120.5,-628 1114.5,-628"/>
<text text-anchor="middle" x="1092.5" y="-605" font-family="Times,serif" font-size="20.00" fill="#000000">294 Et</text>
</g>
<!-- v_1_273&#45;&gt;v_1_272 -->
<g id="edge31" class="edge">
<title>v_1_273&#45;&gt;v_1_272</title>
<path fill="none" stroke="#000000" d="M1058.3221,-610.2594C1045.9255,-610.3535 1030.9069,-610.4675 1014.5528,-610.5916"/>
<polygon fill="#000000" stroke="#000000" points="1014.1821,-607.0942 1004.209,-610.6701 1014.2353,-614.094 1014.1821,-607.0942"/>
</g>
<!-- v_1_274 -->
<g id="node28" class="node">
<title>v_1_274</title>
<path fill="#85cbd0" stroke="#000000" d="M1117,-574C1117,-574 1068,-574 1068,-574 1062,-574 1056,-568 1056,-562 1056,-562 1056,-550 1056,-550 1056,-544 1062,-538 1068,-538 1068,-538 1117,-538 1117,-538 1123,-538 1129,-544 1129,-550 1129,-550 1129,-562 1129,-562 1129,-568 1123,-574 1117,-574"/>
<text text-anchor="middle" x="1092.5" y="-551" font-family="Times,serif" font-size="20.00" fill="#000000">294 Ep</text>
</g>
<!-- v_1_274&#45;&gt;v_1_272 -->
<g id="edge45" class="edge">
<title>v_1_274&#45;&gt;v_1_272</title>
<path fill="none" stroke="#000000" d="M1055.8554,-569.4998C1040.0693,-574.9248 1021.297,-580.8611 1004,-585 993.3631,-587.5453 982.3026,-589.9045 971.1419,-592.0804"/>
<polygon fill="#000000" stroke="#000000" points="970.4882,-588.6419 961.3163,-593.9453 971.7936,-595.5191 970.4882,-588.6419"/>
</g>
<!-- a_2 -->
<g id="node29" class="node">
<title>a_2</title>
<path fill="#ffffff" stroke="#000000" d="M177.5,-1029C177.5,-1029 25.5,-1029 25.5,-1029 19.5,-1029 13.5,-1023 13.5,-1017 13.5,-1017 13.5,-1005 13.5,-1005 13.5,-999 19.5,-993 25.5,-993 25.5,-993 177.5,-993 177.5,-993 183.5,-993 189.5,-999 189.5,-1005 189.5,-1005 189.5,-1017 189.5,-1017 189.5,-1023 183.5,-1029 177.5,-1029"/>
<text text-anchor="middle" x="101.5" y="-1006" font-family="Times,serif" font-size="20.00" fill="#000000">BOX/coordinates.m</text>
</g>
<!-- v_1_300 -->
<g id="node30" class="node">
<title>v_1_300</title>
<polygon fill="#3a85b9" stroke="#000000" points="484,-1029 239,-1029 239,-993 484,-993 484,-1029"/>
<text text-anchor="middle" x="361.5" y="-1006" font-family="Times,serif" font-size="20.00" fill="#ffffff">299 read_model_coordinates</text>
</g>
<!-- v_1_300&#45;&gt;a_2 -->
<g id="edge35" class="edge">
<title>v_1_300&#45;&gt;a_2</title>
<path fill="none" stroke="#000000" stroke-dasharray="5,2" d="M238.733,-1011C225.6607,-1011 212.4906,-1011 199.7536,-1011"/>
<polygon fill="#000000" stroke="#000000" points="199.6418,-1007.5001 189.6417,-1011 199.6417,-1014.5001 199.6418,-1007.5001"/>
</g>
<!-- v_1_42 -->
<g id="node31" class="node">
<title>v_1_42</title>
<path fill="#85cbd0" stroke="#000000" d="M137,-972C137,-972 66,-972 66,-972 60,-972 54,-966 54,-960 54,-960 54,-948 54,-948 54,-942 60,-936 66,-936 66,-936 137,-936 137,-936 143,-936 149,-942 149,-948 149,-948 149,-960 149,-960 149,-966 143,-972 137,-972"/>
<text text-anchor="middle" x="101.5" y="-949" font-family="Times,serif" font-size="20.00" fill="#000000">263 name</text>
</g>
<!-- v_1_300&#45;&gt;v_1_42 -->
<g id="edge17" class="edge">
<title>v_1_300&#45;&gt;v_1_42</title>
<path fill="none" stroke="#000000" stroke-dasharray="5,2" d="M279.2344,-992.9648C240.2372,-984.4155 194.585,-974.4071 159.3134,-966.6745"/>
<polygon fill="#000000" stroke="#000000" points="159.7056,-963.1774 149.188,-964.4547 158.2065,-970.015 159.7056,-963.1774"/>
</g>
<!-- v_1_301 -->
<g id="node32" class="node">
<title>v_1_301</title>
<path fill="#85cbd0" stroke="#000000" d="M598.5,-979C598.5,-979 539.5,-979 539.5,-979 533.5,-979 527.5,-973 527.5,-967 527.5,-967 527.5,-955 527.5,-955 527.5,-949 533.5,-943 539.5,-943 539.5,-943 598.5,-943 598.5,-943 604.5,-943 610.5,-949 610.5,-955 610.5,-955 610.5,-967 610.5,-967 610.5,-973 604.5,-979 598.5,-979"/>
<text text-anchor="middle" x="569" y="-956" font-family="Times,serif" font-size="20.00" fill="#000000">299 ypts</text>
</g>
<!-- v_1_301&#45;&gt;v_1_300 -->
<g id="edge14" class="edge">
<title>v_1_301&#45;&gt;v_1_300</title>
<path fill="none" stroke="#000000" d="M527.0093,-971.1182C503.8101,-976.7084 474.1335,-983.8594 446.3326,-990.5584"/>
<polygon fill="#000000" stroke="#000000" points="445.4928,-987.1605 436.591,-992.9058 447.1327,-993.9657 445.4928,-987.1605"/>
</g>
<!-- v_1_302 -->
<g id="node33" class="node">
<title>v_1_302</title>
<path fill="#85cbd0" stroke="#000000" d="M598.5,-1100C598.5,-1100 539.5,-1100 539.5,-1100 533.5,-1100 527.5,-1094 527.5,-1088 527.5,-1088 527.5,-1076 527.5,-1076 527.5,-1070 533.5,-1064 539.5,-1064 539.5,-1064 598.5,-1064 598.5,-1064 604.5,-1064 610.5,-1070 610.5,-1076 610.5,-1076 610.5,-1088 610.5,-1088 610.5,-1094 604.5,-1100 598.5,-1100"/>
<text text-anchor="middle" x="569" y="-1077" font-family="Times,serif" font-size="20.00" fill="#000000">299 xpts</text>
</g>
<!-- v_1_302&#45;&gt;v_1_300 -->
<g id="edge48" class="edge">
<title>v_1_302&#45;&gt;v_1_300</title>
<path fill="none" stroke="#000000" d="M527.0093,-1067.6321C497.3691,-1057.4901 457.1553,-1043.7302 423.7891,-1032.3134"/>
<polygon fill="#000000" stroke="#000000" points="424.7196,-1028.9326 414.1251,-1029.0066 422.4534,-1035.5556 424.7196,-1028.9326"/>
</g>
<!-- v_1_303 -->
<g id="node34" class="node">
<title>v_1_303</title>
<path fill="#85cbd0" stroke="#000000" d="M598.5,-1033C598.5,-1033 539.5,-1033 539.5,-1033 533.5,-1033 527.5,-1027 527.5,-1021 527.5,-1021 527.5,-1009 527.5,-1009 527.5,-1003 533.5,-997 539.5,-997 539.5,-997 598.5,-997 598.5,-997 604.5,-997 610.5,-1003 610.5,-1009 610.5,-1009 610.5,-1021 610.5,-1021 610.5,-1027 604.5,-1033 598.5,-1033"/>
<text text-anchor="middle" x="569" y="-1010" font-family="Times,serif" font-size="20.00" fill="#000000">299 zpts</text>
</g>
<!-- v_1_303&#45;&gt;v_1_300 -->
<g id="edge22" class="edge">
<title>v_1_303&#45;&gt;v_1_300</title>
<path fill="none" stroke="#000000" d="M527.0093,-1014.1905C517.1173,-1013.9999 506.0477,-1013.7865 494.448,-1013.5629"/>
<polygon fill="#000000" stroke="#000000" points="494.1998,-1010.0575 484.1341,-1013.364 494.0648,-1017.0562 494.1998,-1010.0575"/>
</g>
<!-- v_1_307 -->
<g id="node35" class="node">
<title>v_1_307</title>
<polygon fill="#3a85b9" stroke="#000000" points="873,-1114 785,-1114 785,-1078 873,-1078 873,-1114"/>
<text text-anchor="middle" x="829" y="-1091" font-family="Times,serif" font-size="20.00" fill="#ffffff">300 print</text>
</g>
<!-- v_1_307&#45;&gt;v_1_302 -->
<g id="edge12" class="edge">
<title>v_1_307&#45;&gt;v_1_302</title>
<path fill="none" stroke="#000000" stroke-dasharray="5,2" d="M784.8945,-1093.6251C739.5422,-1091.183 668.9451,-1087.3817 620.9245,-1084.7959"/>
<polygon fill="#000000" stroke="#000000" points="620.9112,-1081.2902 610.7374,-1084.2474 620.5347,-1088.2801 620.9112,-1081.2902"/>
</g>
<!-- v_1_311 -->
<g id="node36" class="node">
<title>v_1_311</title>
<polygon fill="#3a85b9" stroke="#000000" points="873,-952 785,-952 785,-916 873,-916 873,-952"/>
<text text-anchor="middle" x="829" y="-929" font-family="Times,serif" font-size="20.00" fill="#ffffff">301 print</text>
</g>
<!-- v_1_311&#45;&gt;v_1_301 -->
<g id="edge33" class="edge">
<title>v_1_311&#45;&gt;v_1_301</title>
<path fill="none" stroke="#000000" stroke-dasharray="5,2" d="M784.8945,-938.5802C739.5422,-943.2898 668.9451,-950.6211 620.9245,-955.6078"/>
<polygon fill="#000000" stroke="#000000" points="620.3224,-952.1515 610.7374,-956.6657 621.0455,-959.114 620.3224,-952.1515"/>
</g>
<!-- v_1_315 -->
<g id="node37" class="node">
<title>v_1_315</title>
<polygon fill="#3a85b9" stroke="#000000" points="873,-1006 785,-1006 785,-970 873,-970 873,-1006"/>
<text text-anchor="middle" x="829" y="-983" font-family="Times,serif" font-size="20.00" fill="#ffffff">302 print</text>
</g>
<!-- v_1_315&#45;&gt;v_1_303 -->
<g id="edge58" class="edge">
<title>v_1_315&#45;&gt;v_1_303</title>
<path fill="none" stroke="#000000" stroke-dasharray="5,2" d="M784.8945,-992.5802C739.5422,-997.2898 668.9451,-1004.6211 620.9245,-1009.6078"/>
<polygon fill="#000000" stroke="#000000" points="620.3224,-1006.1515 610.7374,-1010.6657 621.0455,-1013.114 620.3224,-1006.1515"/>
</g>
<!-- v_1_319 -->
<g id="node38" class="node">
<title>v_1_319</title>
<polygon fill="#3a85b9" stroke="#000000" points="866.5,-1168 791.5,-1168 791.5,-1132 866.5,-1132 866.5,-1168"/>
<text text-anchor="middle" x="829" y="-1145" font-family="Times,serif" font-size="20.00" fill="#ffffff">303 len</text>
</g>
<!-- v_1_319&#45;&gt;v_1_302 -->
<g id="edge61" class="edge">
<title>v_1_319&#45;&gt;v_1_302</title>
<path fill="none" stroke="#000000" stroke-dasharray="5,2" d="M791.4062,-1147.4345C755.468,-1144.2313 700.0905,-1137.3208 654,-1123 639.1264,-1118.3786 623.5783,-1111.5358 609.9075,-1104.7587"/>
<polygon fill="#000000" stroke="#000000" points="611.2735,-1101.5266 600.7744,-1100.1055 608.0957,-1107.7638 611.2735,-1101.5266"/>
</g>
<!-- v_1_320 -->
<g id="node39" class="node">
<title>v_1_320</title>
<path fill="#85cbd0" stroke="#000000" d="M1130,-1168C1130,-1168 1055,-1168 1055,-1168 1049,-1168 1043,-1162 1043,-1156 1043,-1156 1043,-1144 1043,-1144 1043,-1138 1049,-1132 1055,-1132 1055,-1132 1130,-1132 1130,-1132 1136,-1132 1142,-1138 1142,-1144 1142,-1144 1142,-1156 1142,-1156 1142,-1162 1136,-1168 1130,-1168"/>
<text text-anchor="middle" x="1092.5" y="-1145" font-family="Times,serif" font-size="20.00" fill="#000000">303 nverts</text>
</g>
<!-- v_1_320&#45;&gt;v_1_319 -->
<g id="edge19" class="edge">
<title>v_1_320&#45;&gt;v_1_319</title>
<path fill="none" stroke="#000000" d="M1042.9377,-1150C995.3983,-1150 924.0888,-1150 877.0587,-1150"/>
<polygon fill="#000000" stroke="#000000" points="876.8254,-1146.5001 866.8254,-1150 876.8254,-1153.5001 876.8254,-1146.5001"/>
</g>
<!-- v_1_324 -->
<g id="node40" class="node">
<title>v_1_324</title>
<polygon fill="#3a85b9" stroke="#000000" points="1271,-1168 1183,-1168 1183,-1132 1271,-1132 1271,-1168"/>
<text text-anchor="middle" x="1227" y="-1145" font-family="Times,serif" font-size="20.00" fill="#ffffff">304 print</text>
</g>
<!-- v_1_324&#45;&gt;v_1_320 -->
<g id="edge5" class="edge">
<title>v_1_324&#45;&gt;v_1_320</title>
<path fill="none" stroke="#000000" stroke-dasharray="5,2" d="M1182.9597,-1150C1173.1915,-1150 1162.6787,-1150 1152.3979,-1150"/>
<polygon fill="#000000" stroke="#000000" points="1152.2306,-1146.5001 1142.2305,-1150 1152.2305,-1153.5001 1152.2306,-1146.5001"/>
</g>
<!-- a_4 -->
<g id="node41" class="node">
<title>a_4</title>
<path fill="#ffffff" stroke="#000000" d="M155,-911C155,-911 48,-911 48,-911 42,-911 36,-905 36,-899 36,-899 36,-887 36,-887 36,-881 42,-875 48,-875 48,-875 155,-875 155,-875 161,-875 167,-881 167,-887 167,-887 167,-899 167,-899 167,-905 161,-911 155,-911"/>
<text text-anchor="middle" x="101.5" y="-888" font-family="Times,serif" font-size="20.00" fill="#000000">BOX/facets.m</text>
</g>
<!-- v_1_342 -->
<g id="node42" class="node">
<title>v_1_342</title>
<polygon fill="#3a85b9" stroke="#000000" points="462,-911 261,-911 261,-875 462,-875 462,-911"/>
<text text-anchor="middle" x="361.5" y="-888" font-family="Times,serif" font-size="20.00" fill="#ffffff">307 read_facets_model</text>
</g>
<!-- v_1_342&#45;&gt;v_1_42 -->
<g id="edge63" class="edge">
<title>v_1_342&#45;&gt;v_1_42</title>
<path fill="none" stroke="#000000" stroke-dasharray="5,2" d="M284.5467,-911.0544C244.4429,-920.4634 196.2094,-931.7797 159.3246,-940.4335"/>
<polygon fill="#000000" stroke="#000000" points="158.1744,-937.1082 149.2383,-942.7999 159.7734,-943.9231 158.1744,-937.1082"/>
</g>
<!-- v_1_342&#45;&gt;a_4 -->
<g id="edge18" class="edge">
<title>v_1_342&#45;&gt;a_4</title>
<path fill="none" stroke="#000000" stroke-dasharray="5,2" d="M260.9772,-893C233.2237,-893 203.578,-893 177.4693,-893"/>
<polygon fill="#000000" stroke="#000000" points="177.2718,-889.5001 167.2717,-893 177.2717,-896.5001 177.2718,-889.5001"/>
</g>
<!-- v_1_343 -->
<g id="node43" class="node">
<title>v_1_343</title>
<path fill="#85cbd0" stroke="#000000" d="M606,-898C606,-898 532,-898 532,-898 526,-898 520,-892 520,-886 520,-886 520,-874 520,-874 520,-868 526,-862 532,-862 532,-862 606,-862 606,-862 612,-862 618,-868 618,-874 618,-874 618,-886 618,-886 618,-892 612,-898 606,-898"/>
<text text-anchor="middle" x="569" y="-875" font-family="Times,serif" font-size="20.00" fill="#000000">307 facets</text>
</g>
<!-- v_1_343&#45;&gt;v_1_342 -->
<g id="edge72" class="edge">
<title>v_1_343&#45;&gt;v_1_342</title>
<path fill="none" stroke="#000000" d="M519.8254,-883.0808C505.4347,-883.9824 489.0856,-885.0067 472.4882,-886.0465"/>
<polygon fill="#000000" stroke="#000000" points="471.8988,-882.5765 462.1373,-886.695 472.3366,-889.5628 471.8988,-882.5765"/>
</g>
<!-- v_1_347 -->
<g id="node44" class="node">
<title>v_1_347</title>
<polygon fill="#3a85b9" stroke="#000000" points="873,-898 785,-898 785,-862 873,-862 873,-898"/>
<text text-anchor="middle" x="829" y="-875" font-family="Times,serif" font-size="20.00" fill="#ffffff">308 print</text>
</g>
<!-- v_1_347&#45;&gt;v_1_343 -->
<g id="edge64" class="edge">
<title>v_1_347&#45;&gt;v_1_343</title>
<path fill="none" stroke="#000000" stroke-dasharray="5,2" d="M784.8945,-880C741.8368,-880 676.0242,-880 628.3805,-880"/>
<polygon fill="#000000" stroke="#000000" points="628.2025,-876.5001 618.2025,-880 628.2025,-883.5001 628.2025,-876.5001"/>
</g>
<!-- v_1_361 -->
<g id="node45" class="node">
<title>v_1_361</title>
<polygon fill="#3a85b9" stroke="#000000" points="961,-844 697,-844 697,-808 961,-808 961,-844"/>
<text text-anchor="middle" x="829" y="-821" font-family="Times,serif" font-size="20.00" fill="#ffffff">311 generate_transpose_matrix</text>
</g>
<!-- v_1_361&#45;&gt;v_1_343 -->
<g id="edge66" class="edge">
<title>v_1_361&#45;&gt;v_1_343</title>
<path fill="none" stroke="#000000" stroke-dasharray="5,2" d="M697.6577,-844.0085C682.8673,-846.7041 668.0669,-849.7015 654,-853 645.4569,-855.0032 636.5307,-857.4427 627.8096,-860.0271"/>
<polygon fill="#000000" stroke="#000000" points="626.6276,-856.7283 618.0819,-862.991 628.6678,-863.4244 626.6276,-856.7283"/>
</g>
<!-- v_1_362 -->
<g id="node46" class="node">
<title>v_1_362</title>
<path fill="#85cbd0" stroke="#000000" d="M1116.5,-790C1116.5,-790 1068.5,-790 1068.5,-790 1062.5,-790 1056.5,-784 1056.5,-778 1056.5,-778 1056.5,-766 1056.5,-766 1056.5,-760 1062.5,-754 1068.5,-754 1068.5,-754 1116.5,-754 1116.5,-754 1122.5,-754 1128.5,-760 1128.5,-766 1128.5,-766 1128.5,-778 1128.5,-778 1128.5,-784 1122.5,-790 1116.5,-790"/>
<text text-anchor="middle" x="1092.5" y="-767" font-family="Times,serif" font-size="20.00" fill="#000000">311 Rs</text>
</g>
<!-- v_1_362&#45;&gt;v_1_361 -->
<g id="edge65" class="edge">
<title>v_1_362&#45;&gt;v_1_361</title>
<path fill="none" stroke="#000000" d="M1056.4139,-779.3952C1023.1258,-786.2171 972.1603,-796.6616 926.9082,-805.9353"/>
<polygon fill="#000000" stroke="#000000" points="926.1423,-802.5194 917.0486,-807.9559 927.5477,-809.3769 926.1423,-802.5194"/>
</g>
<!-- v_1_363 -->
<g id="node47" class="node">
<title>v_1_363</title>
<path fill="#85cbd0" stroke="#000000" d="M1123.5,-736C1123.5,-736 1061.5,-736 1061.5,-736 1055.5,-736 1049.5,-730 1049.5,-724 1049.5,-724 1049.5,-712 1049.5,-712 1049.5,-706 1055.5,-700 1061.5,-700 1061.5,-700 1123.5,-700 1123.5,-700 1129.5,-700 1135.5,-706 1135.5,-712 1135.5,-712 1135.5,-724 1135.5,-724 1135.5,-730 1129.5,-736 1123.5,-736"/>
<text text-anchor="middle" x="1092.5" y="-713" font-family="Times,serif" font-size="20.00" fill="#000000">311 nfcv</text>
</g>
<!-- v_1_363&#45;&gt;v_1_361 -->
<g id="edge26" class="edge">
<title>v_1_363&#45;&gt;v_1_361</title>
<path fill="none" stroke="#000000" d="M1049.2834,-735.7131C1003.7027,-754.3951 931.8089,-783.862 882.6366,-804.0161"/>
<polygon fill="#000000" stroke="#000000" points="881.0452,-800.8857 873.1196,-807.9168 883.7,-807.3628 881.0452,-800.8857"/>
</g>
<!-- v_1_364 -->
<g id="node48" class="node">
<title>v_1_364</title>
<path fill="#85cbd0" stroke="#000000" d="M1130,-1006C1130,-1006 1055,-1006 1055,-1006 1049,-1006 1043,-1000 1043,-994 1043,-994 1043,-982 1043,-982 1043,-976 1049,-970 1055,-970 1055,-970 1130,-970 1130,-970 1136,-970 1142,-976 1142,-982 1142,-982 1142,-994 1142,-994 1142,-1000 1136,-1006 1130,-1006"/>
<text text-anchor="middle" x="1092.5" y="-983" font-family="Times,serif" font-size="20.00" fill="#000000">311 node1</text>
</g>
<!-- v_1_364&#45;&gt;v_1_361 -->
<g id="edge3" class="edge">
<title>v_1_364&#45;&gt;v_1_361</title>
<path fill="none" stroke="#000000" d="M1049.9037,-969.978C1046.2548,-967.3294 1042.8686,-964.3458 1040,-961 1007.0668,-922.589 1042.6636,-885.6362 1004,-853 994.1759,-844.7074 982.8913,-838.4036 970.8857,-833.6602"/>
<polygon fill="#000000" stroke="#000000" points="971.7116,-830.2391 961.1169,-830.1824 969.3638,-836.8336 971.7116,-830.2391"/>
</g>
<!-- v_1_365 -->
<g id="node49" class="node">
<title>v_1_365</title>
<path fill="#85cbd0" stroke="#000000" d="M1124,-952C1124,-952 1061,-952 1061,-952 1055,-952 1049,-946 1049,-940 1049,-940 1049,-928 1049,-928 1049,-922 1055,-916 1061,-916 1061,-916 1124,-916 1124,-916 1130,-916 1136,-922 1136,-928 1136,-928 1136,-940 1136,-940 1136,-946 1130,-952 1124,-952"/>
<text text-anchor="middle" x="1092.5" y="-929" font-family="Times,serif" font-size="20.00" fill="#000000">311 ilum</text>
</g>
<!-- v_1_365&#45;&gt;v_1_361 -->
<g id="edge81" class="edge">
<title>v_1_365&#45;&gt;v_1_361</title>
<path fill="none" stroke="#000000" d="M1052.1125,-915.9812C1047.8088,-913.2739 1043.6696,-910.2768 1040,-907 1018.4848,-887.7881 1028.3162,-868.5152 1004,-853 993.8768,-846.5408 982.7684,-841.4241 971.2112,-837.3907"/>
<polygon fill="#000000" stroke="#000000" points="972.0004,-833.9684 961.4093,-834.2517 969.8654,-840.6349 972.0004,-833.9684"/>
</g>
<!-- v_1_366 -->
<g id="node50" class="node">
<title>v_1_366</title>
<path fill="#85cbd0" stroke="#000000" d="M1130,-898C1130,-898 1055,-898 1055,-898 1049,-898 1043,-892 1043,-886 1043,-886 1043,-874 1043,-874 1043,-868 1049,-862 1055,-862 1055,-862 1130,-862 1130,-862 1136,-862 1142,-868 1142,-874 1142,-874 1142,-886 1142,-886 1142,-892 1136,-898 1130,-898"/>
<text text-anchor="middle" x="1092.5" y="-875" font-family="Times,serif" font-size="20.00" fill="#000000">311 node3</text>
</g>
<!-- v_1_366&#45;&gt;v_1_361 -->
<g id="edge56" class="edge">
<title>v_1_366&#45;&gt;v_1_361</title>
<path fill="none" stroke="#000000" d="M1042.7561,-863.4611C1030.2025,-859.665 1016.6848,-855.8979 1004,-853 992.9898,-850.4847 981.5356,-848.1353 969.9916,-845.9559"/>
<polygon fill="#000000" stroke="#000000" points="970.3014,-842.4542 959.8327,-844.0846 969.0332,-849.3384 970.3014,-842.4542"/>
</g>
<!-- v_1_367 -->
<g id="node51" class="node">
<title>v_1_367</title>
<path fill="#85cbd0" stroke="#000000" d="M1130,-844C1130,-844 1055,-844 1055,-844 1049,-844 1043,-838 1043,-832 1043,-832 1043,-820 1043,-820 1043,-814 1049,-808 1055,-808 1055,-808 1130,-808 1130,-808 1136,-808 1142,-814 1142,-820 1142,-820 1142,-832 1142,-832 1142,-838 1136,-844 1130,-844"/>
<text text-anchor="middle" x="1092.5" y="-821" font-family="Times,serif" font-size="20.00" fill="#000000">311 node2</text>
</g>
<!-- v_1_367&#45;&gt;v_1_361 -->
<g id="edge43" class="edge">
<title>v_1_367&#45;&gt;v_1_361</title>
<path fill="none" stroke="#000000" d="M1042.9377,-826C1022.2748,-826 997.1213,-826 971.4227,-826"/>
<polygon fill="#000000" stroke="#000000" points="971.1692,-822.5001 961.1692,-826 971.1691,-829.5001 971.1692,-822.5001"/>
</g>
<!-- v_1_371 -->
<g id="node52" class="node">
<title>v_1_371</title>
<polygon fill="#3a85b9" stroke="#000000" points="1271,-736 1183,-736 1183,-700 1271,-700 1271,-736"/>
<text text-anchor="middle" x="1227" y="-713" font-family="Times,serif" font-size="20.00" fill="#ffffff">312 print</text>
</g>
<!-- v_1_371&#45;&gt;v_1_363 -->
<g id="edge29" class="edge">
<title>v_1_371&#45;&gt;v_1_363</title>
<path fill="none" stroke="#000000" stroke-dasharray="5,2" d="M1182.9597,-718C1171.1086,-718 1158.1614,-718 1145.8623,-718"/>
<polygon fill="#000000" stroke="#000000" points="1145.7217,-714.5001 1135.7217,-718 1145.7216,-721.5001 1145.7217,-714.5001"/>
</g>
<!-- v_1_375 -->
<g id="node53" class="node">
<title>v_1_375</title>
<polygon fill="#3a85b9" stroke="#000000" points="1271,-1006 1183,-1006 1183,-970 1271,-970 1271,-1006"/>
<text text-anchor="middle" x="1227" y="-983" font-family="Times,serif" font-size="20.00" fill="#ffffff">313 print</text>
</g>
<!-- v_1_375&#45;&gt;v_1_364 -->
<g id="edge52" class="edge">
<title>v_1_375&#45;&gt;v_1_364</title>
<path fill="none" stroke="#000000" stroke-dasharray="5,2" d="M1182.9597,-988C1173.1915,-988 1162.6787,-988 1152.3979,-988"/>
<polygon fill="#000000" stroke="#000000" points="1152.2306,-984.5001 1142.2305,-988 1152.2305,-991.5001 1152.2306,-984.5001"/>
</g>
<!-- v_1_379 -->
<g id="node54" class="node">
<title>v_1_379</title>
<polygon fill="#3a85b9" stroke="#000000" points="1271,-844 1183,-844 1183,-808 1271,-808 1271,-844"/>
<text text-anchor="middle" x="1227" y="-821" font-family="Times,serif" font-size="20.00" fill="#ffffff">314 print</text>
</g>
<!-- v_1_379&#45;&gt;v_1_367 -->
<g id="edge7" class="edge">
<title>v_1_379&#45;&gt;v_1_367</title>
<path fill="none" stroke="#000000" stroke-dasharray="5,2" d="M1182.9597,-826C1173.1915,-826 1162.6787,-826 1152.3979,-826"/>
<polygon fill="#000000" stroke="#000000" points="1152.2306,-822.5001 1142.2305,-826 1152.2305,-829.5001 1152.2306,-822.5001"/>
</g>
<!-- v_1_383 -->
<g id="node55" class="node">
<title>v_1_383</title>
<polygon fill="#3a85b9" stroke="#000000" points="1271,-898 1183,-898 1183,-862 1271,-862 1271,-898"/>
<text text-anchor="middle" x="1227" y="-875" font-family="Times,serif" font-size="20.00" fill="#ffffff">315 print</text>
</g>
<!-- v_1_383&#45;&gt;v_1_366 -->
<g id="edge10" class="edge">
<title>v_1_383&#45;&gt;v_1_366</title>
<path fill="none" stroke="#000000" stroke-dasharray="5,2" d="M1182.9597,-880C1173.1915,-880 1162.6787,-880 1152.3979,-880"/>
<polygon fill="#000000" stroke="#000000" points="1152.2306,-876.5001 1142.2305,-880 1152.2305,-883.5001 1152.2306,-876.5001"/>
</g>
<!-- v_1_387 -->
<g id="node56" class="node">
<title>v_1_387</title>
<polygon fill="#3a85b9" stroke="#000000" points="1264.5,-952 1189.5,-952 1189.5,-916 1264.5,-916 1264.5,-952"/>
<text text-anchor="middle" x="1227" y="-929" font-family="Times,serif" font-size="20.00" fill="#ffffff">316 len</text>
</g>
<!-- v_1_387&#45;&gt;v_1_366 -->
<g id="edge37" class="edge">
<title>v_1_387&#45;&gt;v_1_366</title>
<path fill="none" stroke="#000000" stroke-dasharray="5,2" d="M1189.1763,-918.8143C1176.1715,-913.593 1161.3379,-907.6375 1147.2609,-901.9858"/>
<polygon fill="#000000" stroke="#000000" points="1148.2521,-898.6122 1137.668,-898.1344 1145.644,-905.1082 1148.2521,-898.6122"/>
</g>
<!-- v_1_388 -->
<g id="node57" class="node">
<title>v_1_388</title>
<path fill="#85cbd0" stroke="#000000" d="M1519.5,-952C1519.5,-952 1456.5,-952 1456.5,-952 1450.5,-952 1444.5,-946 1444.5,-940 1444.5,-940 1444.5,-928 1444.5,-928 1444.5,-922 1450.5,-916 1456.5,-916 1456.5,-916 1519.5,-916 1519.5,-916 1525.5,-916 1531.5,-922 1531.5,-928 1531.5,-928 1531.5,-940 1531.5,-940 1531.5,-946 1525.5,-952 1519.5,-952"/>
<text text-anchor="middle" x="1488" y="-929" font-family="Times,serif" font-size="20.00" fill="#000000">316 ntria</text>
</g>
<!-- v_1_388&#45;&gt;v_1_387 -->
<g id="edge49" class="edge">
<title>v_1_388&#45;&gt;v_1_387</title>
<path fill="none" stroke="#000000" d="M1444.3145,-934C1397.5361,-934 1323.5211,-934 1275.1069,-934"/>
<polygon fill="#000000" stroke="#000000" points="1274.8841,-930.5001 1264.8841,-934 1274.884,-937.5001 1274.8841,-930.5001"/>
</g>
<!-- v_1_391 -->
<g id="node58" class="node">
<title>v_1_391</title>
<polygon fill="#3a85b9" stroke="#000000" points="2010,-952 1922,-952 1922,-916 2010,-916 2010,-952"/>
<text text-anchor="middle" x="1966" y="-929" font-family="Times,serif" font-size="20.00" fill="#ffffff">317 print</text>
</g>
<!-- v_1_391&#45;&gt;v_1_388 -->
<g id="edge2" class="edge">
<title>v_1_391&#45;&gt;v_1_388</title>
<path fill="none" stroke="#000000" stroke-dasharray="5,2" d="M1921.8877,-934C1833.9166,-934 1636.9465,-934 1541.6606,-934"/>
<polygon fill="#000000" stroke="#000000" points="1541.66,-930.5001 1531.6599,-934 1541.6599,-937.5001 1541.66,-930.5001"/>
</g>
<!-- v_1_411 -->
<g id="node59" class="node">
<title>v_1_411</title>
<polygon fill="#3a85b9" stroke="#000000" points="967,-1060 691,-1060 691,-1024 967,-1024 967,-1060"/>
<text text-anchor="middle" x="829" y="-1037" font-family="Times,serif" font-size="20.00" fill="#ffffff">320 generate_coordinates_points</text>
</g>
<!-- v_1_411&#45;&gt;v_1_301 -->
<g id="edge8" class="edge">
<title>v_1_411&#45;&gt;v_1_301</title>
<path fill="none" stroke="#000000" stroke-dasharray="5,2" d="M690.6111,-1027.1997C678.0024,-1023.9035 665.6174,-1019.8884 654,-1015 635.5655,-1007.2431 634.7995,-998.8526 618,-988 616.1108,-986.7795 614.1624,-985.559 612.1811,-984.3483"/>
<polygon fill="#000000" stroke="#000000" points="613.7531,-981.2118 603.3639,-979.1345 610.1901,-987.2372 613.7531,-981.2118"/>
</g>
<!-- v_1_411&#45;&gt;v_1_302 -->
<g id="edge30" class="edge">
<title>v_1_411&#45;&gt;v_1_302</title>
<path fill="none" stroke="#000000" stroke-dasharray="5,2" d="M711.9302,-1060.0107C679.9215,-1064.9351 646.8569,-1070.022 620.6018,-1074.0613"/>
<polygon fill="#000000" stroke="#000000" points="619.8761,-1070.6316 610.5246,-1075.6116 620.9406,-1077.5502 619.8761,-1070.6316"/>
</g>
<!-- v_1_411&#45;&gt;v_1_303 -->
<g id="edge24" class="edge">
<title>v_1_411&#45;&gt;v_1_303</title>
<path fill="none" stroke="#000000" stroke-dasharray="5,2" d="M690.6263,-1027.6304C665.6235,-1025.034 641.0355,-1022.4806 620.5823,-1020.3566"/>
<polygon fill="#000000" stroke="#000000" points="620.8957,-1016.8704 610.5876,-1019.3187 620.1726,-1023.833 620.8957,-1016.8704"/>
</g>
<!-- v_1_412 -->
<g id="node60" class="node">
<title>v_1_412</title>
<path fill="#85cbd0" stroke="#000000" d="M1109.5,-1060C1109.5,-1060 1075.5,-1060 1075.5,-1060 1069.5,-1060 1063.5,-1054 1063.5,-1048 1063.5,-1048 1063.5,-1036 1063.5,-1036 1063.5,-1030 1069.5,-1024 1075.5,-1024 1075.5,-1024 1109.5,-1024 1109.5,-1024 1115.5,-1024 1121.5,-1030 1121.5,-1036 1121.5,-1036 1121.5,-1048 1121.5,-1048 1121.5,-1054 1115.5,-1060 1109.5,-1060"/>
<text text-anchor="middle" x="1092.5" y="-1037" font-family="Times,serif" font-size="20.00" fill="#000000">320 r</text>
</g>
<!-- v_1_412&#45;&gt;v_1_411 -->
<g id="edge42" class="edge">
<title>v_1_412&#45;&gt;v_1_411</title>
<path fill="none" stroke="#000000" d="M1063.2941,-1042C1041.6183,-1042 1010.2513,-1042 977.4808,-1042"/>
<polygon fill="#000000" stroke="#000000" points="977.2748,-1038.5001 967.2747,-1042 977.2747,-1045.5001 977.2748,-1038.5001"/>
</g>
<!-- v_1_415 -->
<g id="node61" class="node">
<title>v_1_415</title>
<polygon fill="#3a85b9" stroke="#000000" points="873,-468 785,-468 785,-432 873,-432 873,-468"/>
<text text-anchor="middle" x="829" y="-445" font-family="Times,serif" font-size="20.00" fill="#ffffff">328 print</text>
</g>
<!-- v_1_415&#45;&gt;v_1_226 -->
<g id="edge21" class="edge">
<title>v_1_415&#45;&gt;v_1_226</title>
<path fill="none" stroke="#000000" stroke-dasharray="5,2" d="M784.8945,-445.4198C741.4319,-440.9064 674.7843,-433.9853 627.0412,-429.0274"/>
<polygon fill="#000000" stroke="#000000" points="627.1617,-425.5211 616.8536,-427.9694 626.4386,-432.4837 627.1617,-425.5211"/>
</g>
<!-- v_1_418 -->
<g id="node62" class="node">
<title>v_1_418</title>
<polygon fill="#3a85b9" stroke="#000000" points="873,-198 785,-198 785,-162 873,-162 873,-198"/>
<text text-anchor="middle" x="829" y="-175" font-family="Times,serif" font-size="20.00" fill="#ffffff">331 print</text>
</g>
<!-- v_1_418&#45;&gt;v_1_232 -->
<g id="edge73" class="edge">
<title>v_1_418&#45;&gt;v_1_232</title>
<path fill="none" stroke="#000000" stroke-dasharray="5,2" d="M784.8945,-184.5802C741.027,-189.1357 673.5404,-196.1439 625.7117,-201.1107"/>
<polygon fill="#000000" stroke="#000000" points="625.1029,-197.655 615.5179,-202.1693 625.826,-204.6176 625.1029,-197.655"/>
</g>
<!-- v_1_421 -->
<g id="node63" class="node">
<title>v_1_421</title>
<polygon fill="#3a85b9" stroke="#000000" points="873,-414 785,-414 785,-378 873,-378 873,-414"/>
<text text-anchor="middle" x="829" y="-391" font-family="Times,serif" font-size="20.00" fill="#ffffff">334 print</text>
</g>
<!-- v_1_421&#45;&gt;v_1_227 -->
<g id="edge68" class="edge">
<title>v_1_421&#45;&gt;v_1_227</title>
<path fill="none" stroke="#000000" stroke-dasharray="5,2" d="M784.8945,-391.4198C739.8122,-386.7382 669.7846,-379.4661 621.7844,-374.4815"/>
<polygon fill="#000000" stroke="#000000" points="621.9007,-370.9748 611.5926,-373.4231 621.1776,-377.9374 621.9007,-370.9748"/>
</g>
<!-- v_1_424 -->
<g id="node64" class="node">
<title>v_1_424</title>
<polygon fill="#3a85b9" stroke="#000000" points="873,-522 785,-522 785,-486 873,-486 873,-522"/>
<text text-anchor="middle" x="829" y="-499" font-family="Times,serif" font-size="20.00" fill="#ffffff">337 print</text>
</g>
<!-- v_1_424&#45;&gt;v_1_225 -->
<g id="edge71" class="edge">
<title>v_1_424&#45;&gt;v_1_225</title>
<path fill="none" stroke="#000000" stroke-dasharray="5,2" d="M784.8945,-499.4198C740.622,-494.8223 672.2925,-487.7265 624.3923,-482.7523"/>
<polygon fill="#000000" stroke="#000000" points="624.5038,-479.2451 614.1957,-481.6934 623.7807,-486.2077 624.5038,-479.2451"/>
</g>
<!-- v_1_427 -->
<g id="node65" class="node">
<title>v_1_427</title>
<polygon fill="#3a85b9" stroke="#000000" points="873,-252 785,-252 785,-216 873,-216 873,-252"/>
<text text-anchor="middle" x="829" y="-229" font-family="Times,serif" font-size="20.00" fill="#ffffff">340 print</text>
</g>
<!-- v_1_427&#45;&gt;v_1_230 -->
<g id="edge55" class="edge">
<title>v_1_427&#45;&gt;v_1_230</title>
<path fill="none" stroke="#000000" stroke-dasharray="5,2" d="M784.8945,-238.5802C740.4871,-243.1917 671.8757,-250.3168 623.9547,-255.2932"/>
<polygon fill="#000000" stroke="#000000" points="623.343,-251.8378 613.758,-256.3521 624.0661,-258.8003 623.343,-251.8378"/>
</g>
<!-- v_1_430 -->
<g id="node66" class="node">
<title>v_1_430</title>
<polygon fill="#3a85b9" stroke="#000000" points="873,-306 785,-306 785,-270 873,-270 873,-306"/>
<text text-anchor="middle" x="829" y="-283" font-family="Times,serif" font-size="20.00" fill="#ffffff">343 print</text>
</g>
<!-- v_1_430&#45;&gt;v_1_228 -->
<g id="edge69" class="edge">
<title>v_1_430&#45;&gt;v_1_228</title>
<path fill="none" stroke="#000000" stroke-dasharray="5,2" d="M784.8945,-292.5802C739.0023,-297.3459 667.2606,-304.796 619.2191,-309.7849"/>
<polygon fill="#000000" stroke="#000000" points="618.6313,-306.3271 609.0463,-310.8413 619.3544,-313.2896 618.6313,-306.3271"/>
</g>
<!-- v_1_456 -->
<g id="node67" class="node">
<title>v_1_456</title>
<polygon fill="#3a85b9" stroke="#000000" points="981.5,-360 676.5,-360 676.5,-324 981.5,-324 981.5,-360"/>
<text text-anchor="middle" x="829" y="-337" font-family="Times,serif" font-size="20.00" fill="#ffffff">346 calculate_refs_geometry_model</text>
</g>
<!-- v_1_456&#45;&gt;v_1_225 -->
<g id="edge4" class="edge">
<title>v_1_456&#45;&gt;v_1_225</title>
<path fill="none" stroke="#000000" stroke-dasharray="5,2" d="M676.0936,-355.6596C668.273,-359.3637 660.8376,-363.7715 654,-369 622.7054,-392.9301 644.6422,-420.9795 618,-450 617.2446,-450.8228 616.4582,-451.6262 615.6451,-452.4102"/>
<polygon fill="#000000" stroke="#000000" points="613.209,-449.8826 607.7225,-458.9463 617.6637,-455.2823 613.209,-449.8826"/>
</g>
<!-- v_1_456&#45;&gt;v_1_226 -->
<g id="edge78" class="edge">
<title>v_1_456&#45;&gt;v_1_226</title>
<path fill="none" stroke="#000000" stroke-dasharray="5,2" d="M679.1565,-360.02C670.5219,-362.6259 662.0755,-365.602 654,-369 635.5655,-376.7569 634.7995,-385.1474 618,-396 616.1108,-397.2205 614.1624,-398.441 612.1811,-399.6517"/>
<polygon fill="#000000" stroke="#000000" points="610.1901,-396.7628 603.3639,-404.8655 613.7531,-402.7882 610.1901,-396.7628"/>
</g>
<!-- v_1_456&#45;&gt;v_1_227 -->
<g id="edge54" class="edge">
<title>v_1_456&#45;&gt;v_1_227</title>
<path fill="none" stroke="#000000" stroke-dasharray="5,2" d="M676.253,-357.8622C656.8487,-359.8773 638.1422,-361.8199 621.9361,-363.5028"/>
<polygon fill="#000000" stroke="#000000" points="621.2503,-360.0551 611.6653,-364.5694 621.9734,-367.0177 621.2503,-360.0551"/>
</g>
<!-- v_1_456&#45;&gt;v_1_228 -->
<g id="edge70" class="edge">
<title>v_1_456&#45;&gt;v_1_228</title>
<path fill="none" stroke="#000000" stroke-dasharray="5,2" d="M676.253,-326.1378C655.7485,-324.0085 636.0232,-321.9601 619.204,-320.2135"/>
<polygon fill="#000000" stroke="#000000" points="619.4343,-316.7187 609.1263,-319.167 618.7112,-323.6812 619.4343,-316.7187"/>
</g>
<!-- v_1_456&#45;&gt;v_1_230 -->
<g id="edge11" class="edge">
<title>v_1_456&#45;&gt;v_1_230</title>
<path fill="none" stroke="#000000" stroke-dasharray="5,2" d="M679.1565,-323.98C670.5219,-321.3741 662.0755,-318.398 654,-315 635.5655,-307.2431 634.7995,-298.8526 618,-288 616.1108,-286.7795 614.1624,-285.559 612.1811,-284.3483"/>
<polygon fill="#000000" stroke="#000000" points="613.7531,-281.2118 603.3639,-279.1345 610.1901,-287.2372 613.7531,-281.2118"/>
</g>
<!-- v_1_456&#45;&gt;v_1_232 -->
<g id="edge77" class="edge">
<title>v_1_456&#45;&gt;v_1_232</title>
<path fill="none" stroke="#000000" stroke-dasharray="5,2" d="M676.0936,-328.3404C668.273,-324.6363 660.8376,-320.2285 654,-315 622.7054,-291.0699 644.6422,-263.0205 618,-234 617.2446,-233.1772 616.4582,-232.3738 615.6451,-231.5898"/>
<polygon fill="#000000" stroke="#000000" points="617.6637,-228.7177 607.7225,-225.0537 613.209,-234.1174 617.6637,-228.7177"/>
</g>
<!-- v_1_261 -->
<g id="node68" class="node">
<title>v_1_261</title>
<path fill="#85cbd0" stroke="#000000" d="M1992.5,-1006C1992.5,-1006 1939.5,-1006 1939.5,-1006 1933.5,-1006 1927.5,-1000 1927.5,-994 1927.5,-994 1927.5,-982 1927.5,-982 1927.5,-976 1933.5,-970 1939.5,-970 1939.5,-970 1992.5,-970 1992.5,-970 1998.5,-970 2004.5,-976 2004.5,-982 2004.5,-982 2004.5,-994 2004.5,-994 2004.5,-1000 1998.5,-1006 1992.5,-1006"/>
<text text-anchor="middle" x="1966" y="-983" font-family="Times,serif" font-size="20.00" fill="#000000">287 rad</text>
</g>
<!-- v_1_457 -->
<g id="node69" class="node">
<title>v_1_457</title>
<path fill="#85cbd0" stroke="#000000" d="M1113.5,-441C1113.5,-441 1071.5,-441 1071.5,-441 1065.5,-441 1059.5,-435 1059.5,-429 1059.5,-429 1059.5,-417 1059.5,-417 1059.5,-411 1065.5,-405 1071.5,-405 1071.5,-405 1113.5,-405 1113.5,-405 1119.5,-405 1125.5,-411 1125.5,-417 1125.5,-417 1125.5,-429 1125.5,-429 1125.5,-435 1119.5,-441 1113.5,-441"/>
<text text-anchor="middle" x="1092.5" y="-418" font-family="Times,serif" font-size="20.00" fill="#000000">346 ip</text>
</g>
<!-- v_1_457&#45;&gt;v_1_456 -->
<g id="edge41" class="edge">
<title>v_1_457&#45;&gt;v_1_456</title>
<path fill="none" stroke="#000000" d="M1059.2604,-406.9805C1052.7625,-403.55 1046.0815,-399.8065 1040,-396 1023.047,-385.3889 1022.4345,-376.7569 1004,-369 998.9528,-366.8762 993.7607,-364.9173 988.4684,-363.1106"/>
<polygon fill="#000000" stroke="#000000" points="989.4347,-359.7449 978.8435,-360.02 987.2946,-366.4097 989.4347,-359.7449"/>
</g>
<!-- v_1_458 -->
<g id="node70" class="node">
<title>v_1_458</title>
<path fill="#85cbd0" stroke="#000000" d="M1111.5,-387C1111.5,-387 1073.5,-387 1073.5,-387 1067.5,-387 1061.5,-381 1061.5,-375 1061.5,-375 1061.5,-363 1061.5,-363 1061.5,-357 1067.5,-351 1073.5,-351 1073.5,-351 1111.5,-351 1111.5,-351 1117.5,-351 1123.5,-357 1123.5,-363 1123.5,-363 1123.5,-375 1123.5,-375 1123.5,-381 1117.5,-387 1111.5,-387"/>
<text text-anchor="middle" x="1092.5" y="-364" font-family="Times,serif" font-size="20.00" fill="#000000">346 it</text>
</g>
<!-- v_1_458&#45;&gt;v_1_456 -->
<g id="edge67" class="edge">
<title>v_1_458&#45;&gt;v_1_456</title>
<path fill="none" stroke="#000000" d="M1061.4984,-365.8234C1043.1623,-363.9445 1018.3684,-361.404 991.7872,-358.6803"/>
<polygon fill="#000000" stroke="#000000" points="991.8267,-355.1661 981.5219,-357.6284 991.1131,-362.1296 991.8267,-355.1661"/>
</g>
<!-- v_1_459 -->
<g id="node71" class="node">
<title>v_1_459</title>
<path fill="#85cbd0" stroke="#000000" d="M1120.5,-333C1120.5,-333 1064.5,-333 1064.5,-333 1058.5,-333 1052.5,-327 1052.5,-321 1052.5,-321 1052.5,-309 1052.5,-309 1052.5,-303 1058.5,-297 1064.5,-297 1064.5,-297 1120.5,-297 1120.5,-297 1126.5,-297 1132.5,-303 1132.5,-309 1132.5,-309 1132.5,-321 1132.5,-321 1132.5,-327 1126.5,-333 1120.5,-333"/>
<text text-anchor="middle" x="1092.5" y="-310" font-family="Times,serif" font-size="20.00" fill="#000000">346 delt</text>
</g>
<!-- v_1_459&#45;&gt;v_1_456 -->
<g id="edge47" class="edge">
<title>v_1_459&#45;&gt;v_1_456</title>
<path fill="none" stroke="#000000" d="M1052.48,-319.1007C1035.3612,-320.8548 1014.1406,-323.0292 991.6467,-325.3341"/>
<polygon fill="#000000" stroke="#000000" points="991.1772,-321.8638 981.5861,-326.365 991.8908,-328.8273 991.1772,-321.8638"/>
</g>
<!-- v_1_460 -->
<g id="node72" class="node">
<title>v_1_460</title>
<path fill="#85cbd0" stroke="#000000" d="M1123,-279C1123,-279 1062,-279 1062,-279 1056,-279 1050,-273 1050,-267 1050,-267 1050,-255 1050,-255 1050,-249 1056,-243 1062,-243 1062,-243 1123,-243 1123,-243 1129,-243 1135,-249 1135,-255 1135,-255 1135,-267 1135,-267 1135,-273 1129,-279 1123,-279"/>
<text text-anchor="middle" x="1092.5" y="-256" font-family="Times,serif" font-size="20.00" fill="#000000">346 delp</text>
</g>
<!-- v_1_460&#45;&gt;v_1_456 -->
<g id="edge1" class="edge">
<title>v_1_460&#45;&gt;v_1_456</title>
<path fill="none" stroke="#000000" d="M1055.3459,-279.1134C1050.1141,-281.9499 1044.8652,-284.9548 1040,-288 1023.047,-298.6111 1022.4345,-307.2431 1004,-315 998.9528,-317.1238 993.7607,-319.0827 988.4684,-320.8894"/>
<polygon fill="#000000" stroke="#000000" points="987.2946,-317.5903 978.8435,-323.98 989.4347,-324.2551 987.2946,-317.5903"/>
</g>
<!-- v_1_1321 -->
<g id="node73" class="node">
<title>v_1_1321</title>
<polygon fill="#3a85b9" stroke="#000000" points="1667,-1114 1309,-1114 1309,-1078 1667,-1078 1667,-1114"/>
<text text-anchor="middle" x="1488" y="-1091" font-family="Times,serif" font-size="20.00" fill="#ffffff">351 calculate_edges_and_normal_triangles</text>
</g>
<!-- v_1_1322 -->
<g id="node74" class="node">
<title>v_1_1322</title>
<path fill="#85cbd0" stroke="#000000" d="M2001,-1168C2001,-1168 1931,-1168 1931,-1168 1925,-1168 1919,-1162 1919,-1156 1919,-1156 1919,-1144 1919,-1144 1919,-1138 1925,-1132 1931,-1132 1931,-1132 2001,-1132 2001,-1132 2007,-1132 2013,-1138 2013,-1144 2013,-1144 2013,-1156 2013,-1156 2013,-1162 2007,-1168 2001,-1168"/>
<text text-anchor="middle" x="1966" y="-1145" font-family="Times,serif" font-size="20.00" fill="#000000">351 alpha</text>
</g>
<!-- v_1_1322&#45;&gt;v_1_1321 -->
<g id="edge36" class="edge">
<title>v_1_1322&#45;&gt;v_1_1321</title>
<path fill="none" stroke="#000000" d="M1918.9316,-1145.4917C1866.2814,-1140.3735 1778.4743,-1131.6121 1703,-1123 1681.9316,-1120.596 1659.7177,-1117.9416 1637.884,-1115.2637"/>
<polygon fill="#000000" stroke="#000000" points="1638.2374,-1111.7808 1627.8846,-1114.0324 1637.3818,-1118.7284 1638.2374,-1111.7808"/>
</g>
<!-- v_1_1323 -->
<g id="node75" class="node">
<title>v_1_1323</title>
<path fill="#85cbd0" stroke="#000000" d="M1996,-1114C1996,-1114 1936,-1114 1936,-1114 1930,-1114 1924,-1108 1924,-1102 1924,-1102 1924,-1090 1924,-1090 1924,-1084 1930,-1078 1936,-1078 1936,-1078 1996,-1078 1996,-1078 2002,-1078 2008,-1084 2008,-1090 2008,-1090 2008,-1102 2008,-1102 2008,-1108 2002,-1114 1996,-1114"/>
<text text-anchor="middle" x="1966" y="-1091" font-family="Times,serif" font-size="20.00" fill="#000000">351 beta</text>
</g>
<!-- v_1_1323&#45;&gt;v_1_1321 -->
<g id="edge9" class="edge">
<title>v_1_1323&#45;&gt;v_1_1321</title>
<path fill="none" stroke="#000000" d="M1923.9996,-1096C1868.7746,-1096 1768.1071,-1096 1677.4072,-1096"/>
<polygon fill="#000000" stroke="#000000" points="1677.2519,-1092.5001 1667.2518,-1096 1677.2518,-1099.5001 1677.2519,-1092.5001"/>
</g>
<!-- v_1_1324 -->
<g id="node76" class="node">
<title>v_1_1324</title>
<path fill="#85cbd0" stroke="#000000" d="M1999,-1060C1999,-1060 1933,-1060 1933,-1060 1927,-1060 1921,-1054 1921,-1048 1921,-1048 1921,-1036 1921,-1036 1921,-1030 1927,-1024 1933,-1024 1933,-1024 1999,-1024 1999,-1024 2005,-1024 2011,-1030 2011,-1036 2011,-1036 2011,-1048 2011,-1048 2011,-1054 2005,-1060 1999,-1060"/>
<text text-anchor="middle" x="1966" y="-1037" font-family="Times,serif" font-size="20.00" fill="#000000">351 areai</text>
</g>
<!-- v_1_1324&#45;&gt;v_1_1321 -->
<g id="edge57" class="edge">
<title>v_1_1324&#45;&gt;v_1_1321</title>
<path fill="none" stroke="#000000" d="M1920.8248,-1046.3243C1868.4054,-1051.4148 1779.3863,-1060.2838 1703,-1069 1681.9316,-1071.404 1659.7177,-1074.0584 1637.884,-1076.7363"/>
<polygon fill="#000000" stroke="#000000" points="1637.3818,-1073.2716 1627.8846,-1077.9676 1638.2374,-1080.2192 1637.3818,-1073.2716"/>
</g>
<!-- a_5 -->
<g id="node77" class="node">
<title>a_5</title>
<path fill="#ffffff" stroke="#000000" d="M2215.5,-1276C2215.5,-1276 1716.5,-1276 1716.5,-1276 1710.5,-1276 1704.5,-1270 1704.5,-1264 1704.5,-1264 1704.5,-1252 1704.5,-1252 1704.5,-1246 1710.5,-1240 1716.5,-1240 1716.5,-1240 2215.5,-1240 2215.5,-1240 2221.5,-1240 2227.5,-1246 2227.5,-1252 2227.5,-1252 2227.5,-1264 2227.5,-1264 2227.5,-1270 2221.5,-1276 2215.5,-1276"/>
<text text-anchor="middle" x="1966" y="-1253" font-family="Times,serif" font-size="20.00" fill="#000000">R_PyPOFacetsModular_BOX_i ... 02.dat_20180320114325.dat</text>
</g>
<!-- v_1_1524 -->
<g id="node79" class="node">
<title>v_1_1524</title>
<polygon fill="#3a85b9" stroke="#000000" points="1579.5,-1249 1396.5,-1249 1396.5,-1213 1579.5,-1213 1579.5,-1249"/>
<text text-anchor="middle" x="1488" y="-1226" font-family="Times,serif" font-size="20.00" fill="#ffffff">353 main_all_in_one</text>
</g>
<!-- a_5&#45;&gt;v_1_1524 -->
<g id="edge16" class="edge">
<title>a_5&#45;&gt;v_1_1524</title>
<path fill="none" stroke="#000000" stroke-dasharray="5,2" d="M1704.2742,-1243.2163C1663.7306,-1240.9262 1624.0671,-1238.6858 1590.0077,-1236.7619"/>
<polygon fill="#000000" stroke="#000000" points="1589.8042,-1233.245 1579.6227,-1236.1753 1589.4094,-1240.2338 1589.8042,-1233.245"/>
</g>
<!-- a_6 -->
<g id="node78" class="node">
<title>a_6</title>
<path fill="#ffffff" stroke="#000000" d="M2217,-1222C2217,-1222 1715,-1222 1715,-1222 1709,-1222 1703,-1216 1703,-1210 1703,-1210 1703,-1198 1703,-1198 1703,-1192 1709,-1186 1715,-1186 1715,-1186 2217,-1186 2217,-1186 2223,-1186 2229,-1192 2229,-1198 2229,-1198 2229,-1210 2229,-1210 2229,-1216 2223,-1222 2217,-1222"/>
<text text-anchor="middle" x="1966" y="-1199" font-family="Times,serif" font-size="20.00" fill="#000000">E0_PyPOFacetsModular_BOX_ ... 02.dat_20180320114325.dat</text>
</g>
<!-- a_6&#45;&gt;v_1_1524 -->
<g id="edge50" class="edge">
<title>a_6&#45;&gt;v_1_1524</title>
<path fill="none" stroke="#000000" stroke-dasharray="5,2" d="M1702.8798,-1218.8624C1662.8205,-1221.1252 1623.6744,-1223.3364 1590.005,-1225.2382"/>
<polygon fill="#000000" stroke="#000000" points="1589.5234,-1221.7597 1579.7367,-1225.8182 1589.9182,-1228.7486 1589.5234,-1221.7597"/>
</g>
</g>
</svg>
