<?xml version="1.0" encoding="UTF-8" standalone="no"?>
<!DOCTYPE svg PUBLIC "-//W3C//DTD SVG 1.1//EN"
 "http://www.w3.org/Graphics/SVG/1.1/DTD/svg11.dtd">
<!-- Generated by graphviz version 2.40.1 (20161225.0304)
 -->
<!-- Title: dependency Pages: 1 -->
<svg width="2245pt" height="1445pt"
 viewBox="0.00 0.00 2245.00 1445.00" xmlns="http://www.w3.org/2000/svg" xmlns:xlink="http://www.w3.org/1999/xlink">
<g id="graph0" class="graph" transform="scale(1 1) rotate(0) translate(4 1441)">
<title>dependency</title>
<polygon fill="#ffffff" stroke="transparent" points="-4,4 -4,-1441 2241,-1441 2241,4 -4,4"/>
<!-- v_1_46 -->
<g id="node1" class="node">
<title>v_1_46</title>
<polygon fill="#3a85b9" stroke="#000000" points="405.5,-589 317.5,-589 317.5,-553 405.5,-553 405.5,-589"/>
<text text-anchor="middle" x="361.5" y="-566" font-family="Times,serif" font-size="20.00" fill="#ffffff">266 print</text>
</g>
<!-- v_1_43 -->
<g id="node2" class="node">
<title>v_1_43</title>
<path fill="#85cbd0" stroke="#000000" d="M174.5,-589C174.5,-589 28.5,-589 28.5,-589 22.5,-589 16.5,-583 16.5,-577 16.5,-577 16.5,-565 16.5,-565 16.5,-559 22.5,-553 28.5,-553 28.5,-553 174.5,-553 174.5,-553 180.5,-553 186.5,-559 186.5,-565 186.5,-565 186.5,-577 186.5,-577 186.5,-583 180.5,-589 174.5,-589"/>
<text text-anchor="middle" x="101.5" y="-566" font-family="Times,serif" font-size="20.00" fill="#000000">265 input_data_file</text>
</g>
<!-- v_1_46&#45;&gt;v_1_43 -->
<g id="edge74" class="edge">
<title>v_1_46&#45;&gt;v_1_43</title>
<path fill="none" stroke="#000000" stroke-dasharray="5,2" d="M317.3945,-571C284.4017,-571 238.0486,-571 196.7466,-571"/>
<polygon fill="#000000" stroke="#000000" points="196.6436,-567.5001 186.6436,-571 196.6435,-574.5001 196.6436,-567.5001"/>
</g>
<!-- a_1 -->
<g id="node3" class="node">
<title>a_1</title>
<path fill="#ffffff" stroke="#000000" d="M191,-535C191,-535 12,-535 12,-535 6,-535 0,-529 0,-523 0,-523 0,-511 0,-511 0,-505 6,-499 12,-499 12,-499 191,-499 191,-499 197,-499 203,-505 203,-511 203,-511 203,-523 203,-523 203,-529 197,-535 191,-535"/>
<text text-anchor="middle" x="101.5" y="-512" font-family="Times,serif" font-size="20.00" fill="#000000">input_data_file_002.dat</text>
</g>
<!-- v_1_50 -->
<g id="node4" class="node">
<title>v_1_50</title>
<polygon fill="#3a85b9" stroke="#000000" points="459,-535 264,-535 264,-499 459,-499 459,-535"/>
<text text-anchor="middle" x="361.5" y="-512" font-family="Times,serif" font-size="20.00" fill="#ffffff">268 read_param_input</text>
</g>
<!-- v_1_50&#45;&gt;v_1_43 -->
<g id="edge57" class="edge">
<title>v_1_50&#45;&gt;v_1_43</title>
<path fill="none" stroke="#000000" stroke-dasharray="5,2" d="M274.5623,-535.0563C249.5399,-540.2533 222.1179,-545.9486 196.6275,-551.2427"/>
<polygon fill="#000000" stroke="#000000" points="195.668,-547.8672 186.5887,-553.3277 197.0916,-554.721 195.668,-547.8672"/>
</g>
<!-- v_1_50&#45;&gt;a_1 -->
<g id="edge84" class="edge">
<title>v_1_50&#45;&gt;a_1</title>
<path fill="none" stroke="#000000" stroke-dasharray="5,2" d="M263.9459,-517C247.4786,-517 230.2694,-517 213.4698,-517"/>
<polygon fill="#000000" stroke="#000000" points="213.0729,-513.5001 203.0729,-517 213.0729,-520.5001 213.0729,-513.5001"/>
</g>
<!-- v_1_51 -->
<g id="node5" class="node">
<title>v_1_51</title>
<path fill="#85cbd0" stroke="#000000" d="M1129.5,-884C1129.5,-884 1055.5,-884 1055.5,-884 1049.5,-884 1043.5,-878 1043.5,-872 1043.5,-872 1043.5,-860 1043.5,-860 1043.5,-854 1049.5,-848 1055.5,-848 1055.5,-848 1129.5,-848 1129.5,-848 1135.5,-848 1141.5,-854 1141.5,-860 1141.5,-860 1141.5,-872 1141.5,-872 1141.5,-878 1135.5,-884 1129.5,-884"/>
<text text-anchor="middle" x="1092.5" y="-861" font-family="Times,serif" font-size="20.00" fill="#000000">268 delstd</text>
</g>
<!-- v_1_51&#45;&gt;v_1_50 -->
<g id="edge96" class="edge">
<title>v_1_51&#45;&gt;v_1_50</title>
<path fill="none" stroke="#000000" d="M1043.2977,-871.9002C960.904,-880.1202 790.6132,-889.9695 654,-851 587.9469,-832.1581 558.9117,-830.6031 520,-774 461.3861,-688.7369 554.8714,-619.3832 484,-544 479.2895,-538.9896 473.8771,-534.8044 468.0077,-531.3172"/>
<polygon fill="#000000" stroke="#000000" points="469.5972,-528.1988 459.11,-526.6925 466.3689,-534.41 469.5972,-528.1988"/>
</g>
<!-- v_1_52 -->
<g id="node6" class="node">
<title>v_1_52</title>
<path fill="#85cbd0" stroke="#000000" d="M597.5,-765C597.5,-765 540.5,-765 540.5,-765 534.5,-765 528.5,-759 528.5,-753 528.5,-753 528.5,-741 528.5,-741 528.5,-735 534.5,-729 540.5,-729 540.5,-729 597.5,-729 597.5,-729 603.5,-729 609.5,-735 609.5,-741 609.5,-741 609.5,-753 609.5,-753 609.5,-759 603.5,-765 597.5,-765"/>
<text text-anchor="middle" x="569" y="-742" font-family="Times,serif" font-size="20.00" fill="#000000">268 ipol</text>
</g>
<!-- v_1_52&#45;&gt;v_1_50 -->
<g id="edge70" class="edge">
<title>v_1_52&#45;&gt;v_1_50</title>
<path fill="none" stroke="#000000" d="M560.0307,-728.9979C549.8263,-708.2489 532.9068,-673.0161 520,-642 502.1728,-599.1599 518.9506,-574.5211 484,-544 479.2096,-539.8168 473.9181,-536.2366 468.3021,-533.1763"/>
<polygon fill="#000000" stroke="#000000" points="469.7606,-529.9938 459.2352,-528.7832 466.7084,-536.2933 469.7606,-529.9938"/>
</g>
<!-- v_1_53 -->
<g id="node7" class="node">
<title>v_1_53</title>
<path fill="#85cbd0" stroke="#000000" d="M602,-633C602,-633 536,-633 536,-633 530,-633 524,-627 524,-621 524,-621 524,-609 524,-609 524,-603 530,-597 536,-597 536,-597 602,-597 602,-597 608,-597 614,-603 614,-609 614,-609 614,-621 614,-621 614,-627 608,-633 602,-633"/>
<text text-anchor="middle" x="569" y="-610" font-family="Times,serif" font-size="20.00" fill="#000000">268 tstart</text>
</g>
<!-- v_1_53&#45;&gt;v_1_50 -->
<g id="edge2" class="edge">
<title>v_1_53&#45;&gt;v_1_50</title>
<path fill="none" stroke="#000000" d="M548.3431,-596.8607C525.5901,-577.0241 491.249,-547.5592 484,-544 479.1129,-541.6004 474.012,-539.4121 468.7857,-537.4165"/>
<polygon fill="#000000" stroke="#000000" points="469.8568,-534.0827 459.2621,-534.0287 467.5107,-540.6779 469.8568,-534.0827"/>
</g>
<!-- v_1_54 -->
<g id="node8" class="node">
<title>v_1_54</title>
<path fill="#85cbd0" stroke="#000000" d="M604.5,-562C604.5,-562 533.5,-562 533.5,-562 527.5,-562 521.5,-556 521.5,-550 521.5,-550 521.5,-538 521.5,-538 521.5,-532 527.5,-526 533.5,-526 533.5,-526 604.5,-526 604.5,-526 610.5,-526 616.5,-532 616.5,-538 616.5,-538 616.5,-550 616.5,-550 616.5,-556 610.5,-562 604.5,-562"/>
<text text-anchor="middle" x="569" y="-539" font-family="Times,serif" font-size="20.00" fill="#000000">268 pstart</text>
</g>
<!-- v_1_54&#45;&gt;v_1_50 -->
<g id="edge79" class="edge">
<title>v_1_54&#45;&gt;v_1_50</title>
<path fill="none" stroke="#000000" d="M521.3953,-537.8057C505.7473,-535.7695 487.6608,-533.4161 469.4025,-531.0403"/>
<polygon fill="#000000" stroke="#000000" points="469.6238,-527.5397 459.2558,-529.72 468.7206,-534.4812 469.6238,-527.5397"/>
</g>
<!-- v_1_55 -->
<g id="node9" class="node">
<title>v_1_55</title>
<path fill="#85cbd0" stroke="#000000" d="M599.5,-508C599.5,-508 538.5,-508 538.5,-508 532.5,-508 526.5,-502 526.5,-496 526.5,-496 526.5,-484 526.5,-484 526.5,-478 532.5,-472 538.5,-472 538.5,-472 599.5,-472 599.5,-472 605.5,-472 611.5,-478 611.5,-484 611.5,-484 611.5,-496 611.5,-496 611.5,-502 605.5,-508 599.5,-508"/>
<text text-anchor="middle" x="569" y="-485" font-family="Times,serif" font-size="20.00" fill="#000000">268 delp</text>
</g>
<!-- v_1_55&#45;&gt;v_1_50 -->
<g id="edge13" class="edge">
<title>v_1_55&#45;&gt;v_1_50</title>
<path fill="none" stroke="#000000" d="M526.2575,-495.5617C509.5369,-497.7374 489.5374,-500.3397 469.3313,-502.9689"/>
<polygon fill="#000000" stroke="#000000" points="468.8735,-499.4989 459.4087,-504.2601 469.7768,-506.4404 468.8735,-499.4989"/>
</g>
<!-- v_1_56 -->
<g id="node10" class="node">
<title>v_1_56</title>
<path fill="#85cbd0" stroke="#000000" d="M597,-454C597,-454 541,-454 541,-454 535,-454 529,-448 529,-442 529,-442 529,-430 529,-430 529,-424 535,-418 541,-418 541,-418 597,-418 597,-418 603,-418 609,-424 609,-430 609,-430 609,-442 609,-442 609,-448 603,-454 597,-454"/>
<text text-anchor="middle" x="569" y="-431" font-family="Times,serif" font-size="20.00" fill="#000000">268 delt</text>
</g>
<!-- v_1_56&#45;&gt;v_1_50 -->
<g id="edge91" class="edge">
<title>v_1_56&#45;&gt;v_1_50</title>
<path fill="none" stroke="#000000" d="M528.9919,-451.6176C497.3437,-463.9719 452.7755,-481.3695 417.5689,-495.1129"/>
<polygon fill="#000000" stroke="#000000" points="415.9482,-491.9882 407.9056,-498.8851 418.4937,-498.509 415.9482,-491.9882"/>
</g>
<!-- v_1_57 -->
<g id="node11" class="node">
<title>v_1_57</title>
<path fill="#85cbd0" stroke="#000000" d="M1122,-938C1122,-938 1063,-938 1063,-938 1057,-938 1051,-932 1051,-926 1051,-926 1051,-914 1051,-914 1051,-908 1057,-902 1063,-902 1063,-902 1122,-902 1122,-902 1128,-902 1134,-908 1134,-914 1134,-914 1134,-926 1134,-926 1134,-932 1128,-938 1122,-938"/>
<text text-anchor="middle" x="1092.5" y="-915" font-family="Times,serif" font-size="20.00" fill="#000000">268 corr</text>
</g>
<!-- v_1_57&#45;&gt;v_1_50 -->
<g id="edge21" class="edge">
<title>v_1_57&#45;&gt;v_1_50</title>
<path fill="none" stroke="#000000" d="M1050.624,-928.9855C940.9845,-949.7464 645.3532,-987.3487 520,-821 445.2866,-721.8523 567.8523,-635.5486 484,-544 479.3056,-538.8748 473.8779,-534.6078 467.9726,-531.0647"/>
<polygon fill="#000000" stroke="#000000" points="469.4921,-527.9097 459.0088,-526.3761 466.2476,-534.1124 469.4921,-527.9097"/>
</g>
<!-- v_1_58 -->
<g id="node12" class="node">
<title>v_1_58</title>
<path fill="#85cbd0" stroke="#000000" d="M601.5,-392C601.5,-392 536.5,-392 536.5,-392 530.5,-392 524.5,-386 524.5,-380 524.5,-380 524.5,-368 524.5,-368 524.5,-362 530.5,-356 536.5,-356 536.5,-356 601.5,-356 601.5,-356 607.5,-356 613.5,-362 613.5,-368 613.5,-368 613.5,-380 613.5,-380 613.5,-386 607.5,-392 601.5,-392"/>
<text text-anchor="middle" x="569" y="-369" font-family="Times,serif" font-size="20.00" fill="#000000">268 tstop</text>
</g>
<!-- v_1_58&#45;&gt;v_1_50 -->
<g id="edge29" class="edge">
<title>v_1_58&#45;&gt;v_1_50</title>
<path fill="none" stroke="#000000" d="M542.72,-392.111C505.5588,-417.721 437.5902,-464.562 396.2828,-493.0292"/>
<polygon fill="#000000" stroke="#000000" points="394.1415,-490.2542 387.8936,-498.8107 398.1137,-496.018 394.1415,-490.2542"/>
</g>
<!-- v_1_59 -->
<g id="node13" class="node">
<title>v_1_59</title>
<path fill="#85cbd0" stroke="#000000" d="M598.5,-113C598.5,-113 539.5,-113 539.5,-113 533.5,-113 527.5,-107 527.5,-101 527.5,-101 527.5,-89 527.5,-89 527.5,-83 533.5,-77 539.5,-77 539.5,-77 598.5,-77 598.5,-77 604.5,-77 610.5,-83 610.5,-89 610.5,-89 610.5,-101 610.5,-101 610.5,-107 604.5,-113 598.5,-113"/>
<text text-anchor="middle" x="569" y="-90" font-family="Times,serif" font-size="20.00" fill="#000000">268 freq</text>
</g>
<!-- v_1_59&#45;&gt;v_1_50 -->
<g id="edge60" class="edge">
<title>v_1_59&#45;&gt;v_1_50</title>
<path fill="none" stroke="#000000" d="M559.229,-113.0767C549.1972,-131.7437 533.2265,-161.7631 520,-188 464.1336,-298.8202 401.0321,-432.5223 374.4233,-489.3204"/>
<polygon fill="#000000" stroke="#000000" points="371.1035,-488.157 370.0346,-498.6978 377.4435,-491.1242 371.1035,-488.157"/>
</g>
<!-- v_1_60 -->
<g id="node14" class="node">
<title>v_1_60</title>
<path fill="#85cbd0" stroke="#000000" d="M603.5,-233C603.5,-233 534.5,-233 534.5,-233 528.5,-233 522.5,-227 522.5,-221 522.5,-221 522.5,-209 522.5,-209 522.5,-203 528.5,-197 534.5,-197 534.5,-197 603.5,-197 603.5,-197 609.5,-197 615.5,-203 615.5,-209 615.5,-209 615.5,-221 615.5,-221 615.5,-227 609.5,-233 603.5,-233"/>
<text text-anchor="middle" x="569" y="-210" font-family="Times,serif" font-size="20.00" fill="#000000">268 pstop</text>
</g>
<!-- v_1_60&#45;&gt;v_1_50 -->
<g id="edge26" class="edge">
<title>v_1_60&#45;&gt;v_1_50</title>
<path fill="none" stroke="#000000" d="M553.7412,-233.064C543.8289,-245.0213 530.7927,-261.174 520,-276 464.9917,-351.5651 405.9438,-445.0473 377.9857,-490.1551"/>
<polygon fill="#000000" stroke="#000000" points="374.9429,-488.4212 372.6615,-498.7675 380.897,-492.1021 374.9429,-488.4212"/>
</g>
<!-- v_1_63 -->
<g id="node15" class="node">
<title>v_1_63</title>
<polygon fill="#3a85b9" stroke="#000000" points="873,-90 785,-90 785,-54 873,-54 873,-90"/>
<text text-anchor="middle" x="829" y="-67" font-family="Times,serif" font-size="20.00" fill="#ffffff">272 print</text>
</g>
<!-- v_1_63&#45;&gt;v_1_59 -->
<g id="edge42" class="edge">
<title>v_1_63&#45;&gt;v_1_59</title>
<path fill="none" stroke="#000000" stroke-dasharray="5,2" d="M784.8945,-75.9016C739.5422,-79.9136 668.9451,-86.1587 620.9245,-90.4067"/>
<polygon fill="#000000" stroke="#000000" points="620.3901,-86.9402 610.7374,-91.3078 621.007,-93.913 620.3901,-86.9402"/>
</g>
<!-- v_1_66 -->
<g id="node16" class="node">
<title>v_1_66</title>
<polygon fill="#3a85b9" stroke="#000000" points="940,-36 718,-36 718,0 940,0 940,-36"/>
<text text-anchor="middle" x="829" y="-13" font-family="Times,serif" font-size="20.00" fill="#ffffff">275 calculate_wavelength</text>
</g>
<!-- v_1_66&#45;&gt;v_1_59 -->
<g id="edge33" class="edge">
<title>v_1_66&#45;&gt;v_1_59</title>
<path fill="none" stroke="#000000" stroke-dasharray="5,2" d="M717.7344,-28.689C696.221,-32.5581 674.1251,-37.8266 654,-45 636.0702,-51.3909 617.682,-61.6614 602.6153,-71.2362"/>
<polygon fill="#000000" stroke="#000000" points="600.6166,-68.3612 594.1567,-76.7588 604.4435,-74.2225 600.6166,-68.3612"/>
</g>
<!-- v_1_67 -->
<g id="node17" class="node">
<title>v_1_67</title>
<path fill="#85cbd0" stroke="#000000" d="M1133,-63C1133,-63 1052,-63 1052,-63 1046,-63 1040,-57 1040,-51 1040,-51 1040,-39 1040,-39 1040,-33 1046,-27 1052,-27 1052,-27 1133,-27 1133,-27 1139,-27 1145,-33 1145,-39 1145,-39 1145,-51 1145,-51 1145,-57 1139,-63 1133,-63"/>
<text text-anchor="middle" x="1092.5" y="-40" font-family="Times,serif" font-size="20.00" fill="#000000">275 waveL</text>
</g>
<!-- v_1_67&#45;&gt;v_1_66 -->
<g id="edge66" class="edge">
<title>v_1_67&#45;&gt;v_1_66</title>
<path fill="none" stroke="#000000" d="M1039.8101,-39.601C1013.9934,-36.9557 981.7498,-33.6518 950.3046,-30.4297"/>
<polygon fill="#000000" stroke="#000000" points="950.4371,-26.925 940.1324,-29.3874 949.7235,-33.8886 950.4371,-26.925"/>
</g>
<!-- v_1_70 -->
<g id="node18" class="node">
<title>v_1_70</title>
<polygon fill="#3a85b9" stroke="#000000" points="1404,-63 1316,-63 1316,-27 1404,-27 1404,-63"/>
<text text-anchor="middle" x="1360" y="-40" font-family="Times,serif" font-size="20.00" fill="#ffffff">276 print</text>
</g>
<!-- v_1_70&#45;&gt;v_1_67 -->
<g id="edge93" class="edge">
<title>v_1_70&#45;&gt;v_1_67</title>
<path fill="none" stroke="#000000" stroke-dasharray="5,2" d="M1315.8278,-45C1272.0494,-45 1204.5745,-45 1155.246,-45"/>
<polygon fill="#000000" stroke="#000000" points="1155.0103,-41.5001 1145.0103,-45 1155.0103,-48.5001 1155.0103,-41.5001"/>
</g>
<!-- v_1_73 -->
<g id="node19" class="node">
<title>v_1_73</title>
<polygon fill="#3a85b9" stroke="#000000" points="1404,-938 1316,-938 1316,-902 1404,-902 1404,-938"/>
<text text-anchor="middle" x="1360" y="-915" font-family="Times,serif" font-size="20.00" fill="#ffffff">279 print</text>
</g>
<!-- v_1_73&#45;&gt;v_1_57 -->
<g id="edge23" class="edge">
<title>v_1_73&#45;&gt;v_1_57</title>
<path fill="none" stroke="#000000" stroke-dasharray="5,2" d="M1315.8278,-920C1268.7245,-920 1194.1885,-920 1144.3389,-920"/>
<polygon fill="#000000" stroke="#000000" points="1144.095,-916.5001 1134.095,-920 1144.095,-923.5001 1144.095,-916.5001"/>
</g>
<!-- v_1_77 -->
<g id="node20" class="node">
<title>v_1_77</title>
<polygon fill="#3a85b9" stroke="#000000" points="1404,-830 1316,-830 1316,-794 1404,-794 1404,-830"/>
<text text-anchor="middle" x="1360" y="-807" font-family="Times,serif" font-size="20.00" fill="#ffffff">282 print</text>
</g>
<!-- v_1_77&#45;&gt;v_1_51 -->
<g id="edge88" class="edge">
<title>v_1_77&#45;&gt;v_1_51</title>
<path fill="none" stroke="#000000" stroke-dasharray="5,2" d="M1315.8951,-816.8266C1279.4579,-821.2497 1226.5157,-828.6825 1181,-839 1171.3652,-841.184 1161.2521,-843.8769 1151.4465,-846.7081"/>
<polygon fill="#000000" stroke="#000000" points="1150.3678,-843.3772 1141.7726,-849.5718 1152.3547,-850.0894 1150.3678,-843.3772"/>
</g>
<!-- v_1_83 -->
<g id="node21" class="node">
<title>v_1_83</title>
<polygon fill="#3a85b9" stroke="#000000" points="1878,-566 1798,-566 1798,-530 1878,-530 1878,-566"/>
<text text-anchor="middle" x="1838" y="-543" font-family="Times,serif" font-size="20.00" fill="#ffffff">285 exp</text>
</g>
<!-- v_1_79 -->
<g id="node22" class="node">
<title>v_1_79</title>
<path fill="#85cbd0" stroke="#000000" d="M1383.5,-315C1383.5,-315 1336.5,-315 1336.5,-315 1330.5,-315 1324.5,-309 1324.5,-303 1324.5,-303 1324.5,-291 1324.5,-291 1324.5,-285 1330.5,-279 1336.5,-279 1336.5,-279 1383.5,-279 1383.5,-279 1389.5,-279 1395.5,-285 1395.5,-291 1395.5,-291 1395.5,-303 1395.5,-303 1395.5,-309 1389.5,-315 1383.5,-315"/>
<text text-anchor="middle" x="1360" y="-292" font-family="Times,serif" font-size="20.00" fill="#000000">284 bk</text>
</g>
<!-- v_1_83&#45;&gt;v_1_79 -->
<g id="edge97" class="edge">
<title>v_1_83&#45;&gt;v_1_79</title>
<path fill="none" stroke="#000000" stroke-dasharray="5,2" d="M1797.8122,-552.1516C1744.13,-555.9119 1647.3903,-556.3353 1575,-521 1481.9708,-475.5905 1407.5229,-372.2503 1376.132,-323.452"/>
<polygon fill="#000000" stroke="#000000" points="1379.086,-321.5748 1370.777,-315.0013 1373.1732,-325.3216 1379.086,-321.5748"/>
</g>
<!-- v_1_78 -->
<g id="node23" class="node">
<title>v_1_78</title>
<path fill="#85cbd0" stroke="#000000" d="M1394,-884C1394,-884 1326,-884 1326,-884 1320,-884 1314,-878 1314,-872 1314,-872 1314,-860 1314,-860 1314,-854 1320,-848 1326,-848 1326,-848 1394,-848 1394,-848 1400,-848 1406,-854 1406,-860 1406,-860 1406,-872 1406,-872 1406,-878 1400,-884 1394,-884"/>
<text text-anchor="middle" x="1360" y="-861" font-family="Times,serif" font-size="20.00" fill="#000000">283 delsq</text>
</g>
<!-- v_1_83&#45;&gt;v_1_78 -->
<g id="edge63" class="edge">
<title>v_1_83&#45;&gt;v_1_78</title>
<path fill="none" stroke="#000000" stroke-dasharray="5,2" d="M1797.9256,-538.538C1740.282,-527.5453 1634.3832,-517.5577 1575,-575 1489.8856,-657.3325 1622.1392,-754.6733 1539,-839 1507.6398,-870.8081 1455.9275,-875.6196 1416.1278,-873.6065"/>
<polygon fill="#000000" stroke="#000000" points="1416.2354,-870.1061 1406.0263,-872.939 1415.7737,-877.0908 1416.2354,-870.1061"/>
</g>
<!-- v_1_79&#45;&gt;v_1_67 -->
<g id="edge39" class="edge">
<title>v_1_79&#45;&gt;v_1_67</title>
<path fill="none" stroke="#000000" d="M1340.7621,-278.8768C1293.834,-234.6679 1173.3863,-121.1995 1119.3908,-70.3326"/>
<polygon fill="#000000" stroke="#000000" points="1121.6019,-67.6071 1111.9231,-63.2976 1116.8019,-72.7023 1121.6019,-67.6071"/>
</g>
<!-- v_1_78&#45;&gt;v_1_51 -->
<g id="edge12" class="edge">
<title>v_1_78&#45;&gt;v_1_51</title>
<path fill="none" stroke="#000000" d="M1313.7104,-866C1268.8972,-866 1200.7576,-866 1151.9514,-866"/>
<polygon fill="#000000" stroke="#000000" points="1151.8455,-862.5001 1141.8455,-866 1151.8455,-869.5001 1151.8455,-862.5001"/>
</g>
<!-- v_1_84 -->
<g id="node24" class="node">
<title>v_1_84</title>
<path fill="#85cbd0" stroke="#000000" d="M2225,-566C2225,-566 2149,-566 2149,-566 2143,-566 2137,-560 2137,-554 2137,-554 2137,-542 2137,-542 2137,-536 2143,-530 2149,-530 2149,-530 2225,-530 2225,-530 2231,-530 2237,-536 2237,-542 2237,-542 2237,-554 2237,-554 2237,-560 2231,-566 2225,-566"/>
<text text-anchor="middle" x="2187" y="-543" font-family="Times,serif" font-size="20.00" fill="#000000">285 cfact1</text>
</g>
<!-- v_1_84&#45;&gt;v_1_83 -->
<g id="edge45" class="edge">
<title>v_1_84&#45;&gt;v_1_83</title>
<path fill="none" stroke="#000000" d="M2136.9968,-548C2070.8007,-548 1954.7304,-548 1888.357,-548"/>
<polygon fill="#000000" stroke="#000000" points="1888.1465,-544.5001 1878.1465,-548 1888.1464,-551.5001 1888.1465,-544.5001"/>
</g>
<!-- v_1_91 -->
<g id="node25" class="node">
<title>v_1_91</title>
<polygon fill="#3a85b9" stroke="#000000" points="873,-788 785,-788 785,-752 873,-752 873,-788"/>
<text text-anchor="middle" x="829" y="-765" font-family="Times,serif" font-size="20.00" fill="#ffffff">291 print</text>
</g>
<!-- v_1_91&#45;&gt;v_1_52 -->
<g id="edge10" class="edge">
<title>v_1_91&#45;&gt;v_1_52</title>
<path fill="none" stroke="#000000" stroke-dasharray="5,2" d="M784.8945,-766.0984C739.2723,-762.0625 668.1037,-755.7669 620.0694,-751.5177"/>
<polygon fill="#000000" stroke="#000000" points="620.1582,-748.012 609.8886,-750.6171 619.5413,-754.9847 620.1582,-748.012"/>
</g>
<!-- v_1_94 -->
<g id="node26" class="node">
<title>v_1_94</title>
<polygon fill="#3a85b9" stroke="#000000" points="1004,-842 654,-842 654,-806 1004,-806 1004,-842"/>
<text text-anchor="middle" x="829" y="-819" font-family="Times,serif" font-size="20.00" fill="#ffffff">294 calculate_incident_wave_polarization</text>
</g>
<!-- v_1_94&#45;&gt;v_1_52 -->
<g id="edge38" class="edge">
<title>v_1_94&#45;&gt;v_1_52</title>
<path fill="none" stroke="#000000" stroke-dasharray="5,2" d="M683.727,-805.9839C673.5559,-803.3827 663.5558,-800.4061 654,-797 636.0702,-790.6091 617.682,-780.3386 602.6153,-770.7638"/>
<polygon fill="#000000" stroke="#000000" points="604.4435,-767.7775 594.1567,-765.2412 600.6166,-773.6388 604.4435,-767.7775"/>
</g>
<!-- v_1_95 -->
<g id="node27" class="node">
<title>v_1_95</title>
<path fill="#85cbd0" stroke="#000000" d="M1114.5,-776C1114.5,-776 1070.5,-776 1070.5,-776 1064.5,-776 1058.5,-770 1058.5,-764 1058.5,-764 1058.5,-752 1058.5,-752 1058.5,-746 1064.5,-740 1070.5,-740 1070.5,-740 1114.5,-740 1114.5,-740 1120.5,-740 1126.5,-746 1126.5,-752 1126.5,-752 1126.5,-764 1126.5,-764 1126.5,-770 1120.5,-776 1114.5,-776"/>
<text text-anchor="middle" x="1092.5" y="-753" font-family="Times,serif" font-size="20.00" fill="#000000">294 Et</text>
</g>
<!-- v_1_95&#45;&gt;v_1_94 -->
<g id="edge75" class="edge">
<title>v_1_95&#45;&gt;v_1_94</title>
<path fill="none" stroke="#000000" d="M1058.4003,-775.5354C1042.2765,-783.1686 1022.535,-791.5883 1004,-797 995.6383,-799.4414 986.9835,-801.6731 978.2032,-803.7117"/>
<polygon fill="#000000" stroke="#000000" points="977.2439,-800.3396 968.2454,-805.9321 978.7674,-807.1718 977.2439,-800.3396"/>
</g>
<!-- v_1_96 -->
<g id="node28" class="node">
<title>v_1_96</title>
<path fill="#85cbd0" stroke="#000000" d="M1117,-830C1117,-830 1068,-830 1068,-830 1062,-830 1056,-824 1056,-818 1056,-818 1056,-806 1056,-806 1056,-800 1062,-794 1068,-794 1068,-794 1117,-794 1117,-794 1123,-794 1129,-800 1129,-806 1129,-806 1129,-818 1129,-818 1129,-824 1123,-830 1117,-830"/>
<text text-anchor="middle" x="1092.5" y="-807" font-family="Times,serif" font-size="20.00" fill="#000000">294 Ep</text>
</g>
<!-- v_1_96&#45;&gt;v_1_94 -->
<g id="edge37" class="edge">
<title>v_1_96&#45;&gt;v_1_94</title>
<path fill="none" stroke="#000000" d="M1055.8615,-813.6685C1043.9133,-814.2127 1029.7305,-814.8586 1014.376,-815.5578"/>
<polygon fill="#000000" stroke="#000000" points="1013.9588,-812.0731 1004.1285,-816.0245 1014.2774,-819.0659 1013.9588,-812.0731"/>
</g>
<!-- a_2 -->
<g id="node29" class="node">
<title>a_2</title>
<path fill="#ffffff" stroke="#000000" d="M177.5,-1142C177.5,-1142 25.5,-1142 25.5,-1142 19.5,-1142 13.5,-1136 13.5,-1130 13.5,-1130 13.5,-1118 13.5,-1118 13.5,-1112 19.5,-1106 25.5,-1106 25.5,-1106 177.5,-1106 177.5,-1106 183.5,-1106 189.5,-1112 189.5,-1118 189.5,-1118 189.5,-1130 189.5,-1130 189.5,-1136 183.5,-1142 177.5,-1142"/>
<text text-anchor="middle" x="101.5" y="-1119" font-family="Times,serif" font-size="20.00" fill="#000000">BOX/coordinates.m</text>
</g>
<!-- v_1_100 -->
<g id="node30" class="node">
<title>v_1_100</title>
<polygon fill="#3a85b9" stroke="#000000" points="484,-1142 239,-1142 239,-1106 484,-1106 484,-1142"/>
<text text-anchor="middle" x="361.5" y="-1119" font-family="Times,serif" font-size="20.00" fill="#ffffff">299 read_model_coordinates</text>
</g>
<!-- v_1_100&#45;&gt;a_2 -->
<g id="edge19" class="edge">
<title>v_1_100&#45;&gt;a_2</title>
<path fill="none" stroke="#000000" stroke-dasharray="5,2" d="M238.733,-1124C225.6607,-1124 212.4906,-1124 199.7536,-1124"/>
<polygon fill="#000000" stroke="#000000" points="199.6418,-1120.5001 189.6417,-1124 199.6417,-1127.5001 199.6418,-1120.5001"/>
</g>
<!-- v_1_42 -->
<g id="node31" class="node">
<title>v_1_42</title>
<path fill="#85cbd0" stroke="#000000" d="M137,-1196C137,-1196 66,-1196 66,-1196 60,-1196 54,-1190 54,-1184 54,-1184 54,-1172 54,-1172 54,-1166 60,-1160 66,-1160 66,-1160 137,-1160 137,-1160 143,-1160 149,-1166 149,-1172 149,-1172 149,-1184 149,-1184 149,-1190 143,-1196 137,-1196"/>
<text text-anchor="middle" x="101.5" y="-1173" font-family="Times,serif" font-size="20.00" fill="#000000">263 name</text>
</g>
<!-- v_1_100&#45;&gt;v_1_42 -->
<g id="edge52" class="edge">
<title>v_1_100&#45;&gt;v_1_42</title>
<path fill="none" stroke="#000000" stroke-dasharray="5,2" d="M274.5623,-1142.0563C236.7012,-1149.9198 193.3463,-1158.9242 159.5015,-1165.9535"/>
<polygon fill="#000000" stroke="#000000" points="158.3992,-1162.6077 149.3199,-1168.0682 159.8227,-1169.4614 158.3992,-1162.6077"/>
</g>
<!-- v_1_101 -->
<g id="node32" class="node">
<title>v_1_101</title>
<path fill="#85cbd0" stroke="#000000" d="M598.5,-1142C598.5,-1142 539.5,-1142 539.5,-1142 533.5,-1142 527.5,-1136 527.5,-1130 527.5,-1130 527.5,-1118 527.5,-1118 527.5,-1112 533.5,-1106 539.5,-1106 539.5,-1106 598.5,-1106 598.5,-1106 604.5,-1106 610.5,-1112 610.5,-1118 610.5,-1118 610.5,-1130 610.5,-1130 610.5,-1136 604.5,-1142 598.5,-1142"/>
<text text-anchor="middle" x="569" y="-1119" font-family="Times,serif" font-size="20.00" fill="#000000">299 ypts</text>
</g>
<!-- v_1_101&#45;&gt;v_1_100 -->
<g id="edge8" class="edge">
<title>v_1_101&#45;&gt;v_1_100</title>
<path fill="none" stroke="#000000" d="M527.0093,-1124C517.1173,-1124 506.0477,-1124 494.448,-1124"/>
<polygon fill="#000000" stroke="#000000" points="494.1342,-1120.5001 484.1341,-1124 494.1341,-1127.5001 494.1342,-1120.5001"/>
</g>
<!-- v_1_102 -->
<g id="node33" class="node">
<title>v_1_102</title>
<path fill="#85cbd0" stroke="#000000" d="M598.5,-1061C598.5,-1061 539.5,-1061 539.5,-1061 533.5,-1061 527.5,-1055 527.5,-1049 527.5,-1049 527.5,-1037 527.5,-1037 527.5,-1031 533.5,-1025 539.5,-1025 539.5,-1025 598.5,-1025 598.5,-1025 604.5,-1025 610.5,-1031 610.5,-1037 610.5,-1037 610.5,-1049 610.5,-1049 610.5,-1055 604.5,-1061 598.5,-1061"/>
<text text-anchor="middle" x="569" y="-1038" font-family="Times,serif" font-size="20.00" fill="#000000">299 xpts</text>
</g>
<!-- v_1_102&#45;&gt;v_1_100 -->
<g id="edge54" class="edge">
<title>v_1_102&#45;&gt;v_1_100</title>
<path fill="none" stroke="#000000" d="M527.0093,-1059.3916C495.4017,-1071.7299 451.7703,-1088.762 417.2406,-1102.241"/>
<polygon fill="#000000" stroke="#000000" points="415.8031,-1099.0449 407.7604,-1105.9417 418.3486,-1105.5657 415.8031,-1099.0449"/>
</g>
<!-- v_1_103 -->
<g id="node34" class="node">
<title>v_1_103</title>
<path fill="#85cbd0" stroke="#000000" d="M598.5,-1196C598.5,-1196 539.5,-1196 539.5,-1196 533.5,-1196 527.5,-1190 527.5,-1184 527.5,-1184 527.5,-1172 527.5,-1172 527.5,-1166 533.5,-1160 539.5,-1160 539.5,-1160 598.5,-1160 598.5,-1160 604.5,-1160 610.5,-1166 610.5,-1172 610.5,-1172 610.5,-1184 610.5,-1184 610.5,-1190 604.5,-1196 598.5,-1196"/>
<text text-anchor="middle" x="569" y="-1173" font-family="Times,serif" font-size="20.00" fill="#000000">299 zpts</text>
</g>
<!-- v_1_103&#45;&gt;v_1_100 -->
<g id="edge65" class="edge">
<title>v_1_103&#45;&gt;v_1_100</title>
<path fill="none" stroke="#000000" d="M527.0093,-1167.0723C502.2193,-1160.6209 470.033,-1152.2447 440.6426,-1144.5961"/>
<polygon fill="#000000" stroke="#000000" points="441.3565,-1141.1654 430.7973,-1142.034 439.5935,-1147.9398 441.3565,-1141.1654"/>
</g>
<!-- v_1_107 -->
<g id="node35" class="node">
<title>v_1_107</title>
<polygon fill="#3a85b9" stroke="#000000" points="873,-993 785,-993 785,-957 873,-957 873,-993"/>
<text text-anchor="middle" x="829" y="-970" font-family="Times,serif" font-size="20.00" fill="#ffffff">300 print</text>
</g>
<!-- v_1_107&#45;&gt;v_1_102 -->
<g id="edge25" class="edge">
<title>v_1_107&#45;&gt;v_1_102</title>
<path fill="none" stroke="#000000" stroke-dasharray="5,2" d="M784.6752,-978.1885C748.8003,-981.6321 697.3016,-988.5457 654,-1002 639.1264,-1006.6214 623.5783,-1013.4642 609.9075,-1020.2413"/>
<polygon fill="#000000" stroke="#000000" points="608.0957,-1017.2362 600.7744,-1024.8945 611.2735,-1023.4734 608.0957,-1017.2362"/>
</g>
<!-- v_1_111 -->
<g id="node36" class="node">
<title>v_1_111</title>
<polygon fill="#3a85b9" stroke="#000000" points="873,-1155 785,-1155 785,-1119 873,-1119 873,-1155"/>
<text text-anchor="middle" x="829" y="-1132" font-family="Times,serif" font-size="20.00" fill="#ffffff">301 print</text>
</g>
<!-- v_1_111&#45;&gt;v_1_101 -->
<g id="edge41" class="edge">
<title>v_1_111&#45;&gt;v_1_101</title>
<path fill="none" stroke="#000000" stroke-dasharray="5,2" d="M784.8945,-1134.7947C739.5422,-1132.5271 668.9451,-1128.9973 620.9245,-1126.5962"/>
<polygon fill="#000000" stroke="#000000" points="620.8998,-1123.0907 610.7374,-1126.0869 620.5501,-1130.082 620.8998,-1123.0907"/>
</g>
<!-- v_1_115 -->
<g id="node37" class="node">
<title>v_1_115</title>
<polygon fill="#3a85b9" stroke="#000000" points="873,-1209 785,-1209 785,-1173 873,-1173 873,-1209"/>
<text text-anchor="middle" x="829" y="-1186" font-family="Times,serif" font-size="20.00" fill="#ffffff">302 print</text>
</g>
<!-- v_1_115&#45;&gt;v_1_103 -->
<g id="edge64" class="edge">
<title>v_1_115&#45;&gt;v_1_103</title>
<path fill="none" stroke="#000000" stroke-dasharray="5,2" d="M784.8945,-1188.7947C739.5422,-1186.5271 668.9451,-1182.9973 620.9245,-1180.5962"/>
<polygon fill="#000000" stroke="#000000" points="620.8998,-1177.0907 610.7374,-1180.0869 620.5501,-1184.082 620.8998,-1177.0907"/>
</g>
<!-- v_1_119 -->
<g id="node38" class="node">
<title>v_1_119</title>
<polygon fill="#3a85b9" stroke="#000000" points="866.5,-1047 791.5,-1047 791.5,-1011 866.5,-1011 866.5,-1047"/>
<text text-anchor="middle" x="829" y="-1024" font-family="Times,serif" font-size="20.00" fill="#ffffff">303 len</text>
</g>
<!-- v_1_119&#45;&gt;v_1_102 -->
<g id="edge1" class="edge">
<title>v_1_119&#45;&gt;v_1_102</title>
<path fill="none" stroke="#000000" stroke-dasharray="5,2" d="M791.4714,-1031.0208C746.6078,-1033.4365 671.28,-1037.4926 620.8696,-1040.207"/>
<polygon fill="#000000" stroke="#000000" points="620.621,-1036.7152 610.8237,-1040.748 620.9974,-1043.7051 620.621,-1036.7152"/>
</g>
<!-- v_1_120 -->
<g id="node39" class="node">
<title>v_1_120</title>
<path fill="#85cbd0" stroke="#000000" d="M1130,-1019C1130,-1019 1055,-1019 1055,-1019 1049,-1019 1043,-1013 1043,-1007 1043,-1007 1043,-995 1043,-995 1043,-989 1049,-983 1055,-983 1055,-983 1130,-983 1130,-983 1136,-983 1142,-989 1142,-995 1142,-995 1142,-1007 1142,-1007 1142,-1013 1136,-1019 1130,-1019"/>
<text text-anchor="middle" x="1092.5" y="-996" font-family="Times,serif" font-size="20.00" fill="#000000">303 nverts</text>
</g>
<!-- v_1_120&#45;&gt;v_1_119 -->
<g id="edge31" class="edge">
<title>v_1_120&#45;&gt;v_1_119</title>
<path fill="none" stroke="#000000" d="M1042.9377,-1006.2666C995.3983,-1011.3182 924.0888,-1018.8957 877.0587,-1023.8932"/>
<polygon fill="#000000" stroke="#000000" points="876.3996,-1020.4434 866.8254,-1024.9806 877.1393,-1027.4043 876.3996,-1020.4434"/>
</g>
<!-- v_1_124 -->
<g id="node40" class="node">
<title>v_1_124</title>
<polygon fill="#3a85b9" stroke="#000000" points="1404,-1005 1316,-1005 1316,-969 1404,-969 1404,-1005"/>
<text text-anchor="middle" x="1360" y="-982" font-family="Times,serif" font-size="20.00" fill="#ffffff">304 print</text>
</g>
<!-- v_1_124&#45;&gt;v_1_120 -->
<g id="edge48" class="edge">
<title>v_1_124&#45;&gt;v_1_120</title>
<path fill="none" stroke="#000000" stroke-dasharray="5,2" d="M1315.8278,-989.3118C1271.2182,-991.6465 1202.0037,-995.269 1152.456,-997.8621"/>
<polygon fill="#000000" stroke="#000000" points="1152.0009,-994.381 1142.1976,-998.399 1152.3669,-1001.3715 1152.0009,-994.381"/>
</g>
<!-- a_4 -->
<g id="node41" class="node">
<title>a_4</title>
<path fill="#ffffff" stroke="#000000" d="M155,-1250C155,-1250 48,-1250 48,-1250 42,-1250 36,-1244 36,-1238 36,-1238 36,-1226 36,-1226 36,-1220 42,-1214 48,-1214 48,-1214 155,-1214 155,-1214 161,-1214 167,-1220 167,-1226 167,-1226 167,-1238 167,-1238 167,-1244 161,-1250 155,-1250"/>
<text text-anchor="middle" x="101.5" y="-1227" font-family="Times,serif" font-size="20.00" fill="#000000">BOX/facets.m</text>
</g>
<!-- v_1_127 -->
<g id="node42" class="node">
<title>v_1_127</title>
<polygon fill="#3a85b9" stroke="#000000" points="462,-1250 261,-1250 261,-1214 462,-1214 462,-1250"/>
<text text-anchor="middle" x="361.5" y="-1227" font-family="Times,serif" font-size="20.00" fill="#ffffff">307 read_facets_model</text>
</g>
<!-- v_1_127&#45;&gt;v_1_42 -->
<g id="edge30" class="edge">
<title>v_1_127&#45;&gt;v_1_42</title>
<path fill="none" stroke="#000000" stroke-dasharray="5,2" d="M274.5623,-1213.9437C236.7012,-1206.0802 193.3463,-1197.0758 159.5015,-1190.0465"/>
<polygon fill="#000000" stroke="#000000" points="159.8227,-1186.5386 149.3199,-1187.9318 158.3992,-1193.3923 159.8227,-1186.5386"/>
</g>
<!-- v_1_127&#45;&gt;a_4 -->
<g id="edge87" class="edge">
<title>v_1_127&#45;&gt;a_4</title>
<path fill="none" stroke="#000000" stroke-dasharray="5,2" d="M260.9772,-1232C233.2237,-1232 203.578,-1232 177.4693,-1232"/>
<polygon fill="#000000" stroke="#000000" points="177.2718,-1228.5001 167.2717,-1232 177.2717,-1235.5001 177.2718,-1228.5001"/>
</g>
<!-- v_1_128 -->
<g id="node43" class="node">
<title>v_1_128</title>
<path fill="#85cbd0" stroke="#000000" d="M606,-1263C606,-1263 532,-1263 532,-1263 526,-1263 520,-1257 520,-1251 520,-1251 520,-1239 520,-1239 520,-1233 526,-1227 532,-1227 532,-1227 606,-1227 606,-1227 612,-1227 618,-1233 618,-1239 618,-1239 618,-1251 618,-1251 618,-1257 612,-1263 606,-1263"/>
<text text-anchor="middle" x="569" y="-1240" font-family="Times,serif" font-size="20.00" fill="#000000">307 facets</text>
</g>
<!-- v_1_128&#45;&gt;v_1_127 -->
<g id="edge69" class="edge">
<title>v_1_128&#45;&gt;v_1_127</title>
<path fill="none" stroke="#000000" d="M519.8254,-1241.9192C505.4347,-1241.0176 489.0856,-1239.9933 472.4882,-1238.9535"/>
<polygon fill="#000000" stroke="#000000" points="472.3366,-1235.4372 462.1373,-1238.305 471.8988,-1242.4235 472.3366,-1235.4372"/>
</g>
<!-- v_1_132 -->
<g id="node44" class="node">
<title>v_1_132</title>
<polygon fill="#3a85b9" stroke="#000000" points="873,-1263 785,-1263 785,-1227 873,-1227 873,-1263"/>
<text text-anchor="middle" x="829" y="-1240" font-family="Times,serif" font-size="20.00" fill="#ffffff">308 print</text>
</g>
<!-- v_1_132&#45;&gt;v_1_128 -->
<g id="edge15" class="edge">
<title>v_1_132&#45;&gt;v_1_128</title>
<path fill="none" stroke="#000000" stroke-dasharray="5,2" d="M784.8945,-1245C741.8368,-1245 676.0242,-1245 628.3805,-1245"/>
<polygon fill="#000000" stroke="#000000" points="628.2025,-1241.5001 618.2025,-1245 628.2025,-1248.5001 628.2025,-1241.5001"/>
</g>
<!-- v_1_136 -->
<g id="node45" class="node">
<title>v_1_136</title>
<polygon fill="#3a85b9" stroke="#000000" points="961,-1317 697,-1317 697,-1281 961,-1281 961,-1317"/>
<text text-anchor="middle" x="829" y="-1294" font-family="Times,serif" font-size="20.00" fill="#ffffff">311 generate_transpose_matrix</text>
</g>
<!-- v_1_136&#45;&gt;v_1_128 -->
<g id="edge53" class="edge">
<title>v_1_136&#45;&gt;v_1_128</title>
<path fill="none" stroke="#000000" stroke-dasharray="5,2" d="M697.6577,-1280.9915C682.8673,-1278.2959 668.0669,-1275.2985 654,-1272 645.4569,-1269.9968 636.5307,-1267.5573 627.8096,-1264.9729"/>
<polygon fill="#000000" stroke="#000000" points="628.6678,-1261.5756 618.0819,-1262.009 626.6276,-1268.2717 628.6678,-1261.5756"/>
</g>
<!-- v_1_137 -->
<g id="node46" class="node">
<title>v_1_137</title>
<path fill="#85cbd0" stroke="#000000" d="M1116.5,-1329C1116.5,-1329 1068.5,-1329 1068.5,-1329 1062.5,-1329 1056.5,-1323 1056.5,-1317 1056.5,-1317 1056.5,-1305 1056.5,-1305 1056.5,-1299 1062.5,-1293 1068.5,-1293 1068.5,-1293 1116.5,-1293 1116.5,-1293 1122.5,-1293 1128.5,-1299 1128.5,-1305 1128.5,-1305 1128.5,-1317 1128.5,-1317 1128.5,-1323 1122.5,-1329 1116.5,-1329"/>
<text text-anchor="middle" x="1092.5" y="-1306" font-family="Times,serif" font-size="20.00" fill="#000000">311 Rs</text>
</g>
<!-- v_1_137&#45;&gt;v_1_136 -->
<g id="edge28" class="edge">
<title>v_1_137&#45;&gt;v_1_136</title>
<path fill="none" stroke="#000000" d="M1056.4139,-1309.3566C1033.7751,-1308.3256 1002.96,-1306.9223 971.3265,-1305.4817"/>
<polygon fill="#000000" stroke="#000000" points="971.1854,-1301.9717 961.0365,-1305.013 970.8669,-1308.9645 971.1854,-1301.9717"/>
</g>
<!-- v_1_138 -->
<g id="node47" class="node">
<title>v_1_138</title>
<path fill="#85cbd0" stroke="#000000" d="M1123.5,-1383C1123.5,-1383 1061.5,-1383 1061.5,-1383 1055.5,-1383 1049.5,-1377 1049.5,-1371 1049.5,-1371 1049.5,-1359 1049.5,-1359 1049.5,-1353 1055.5,-1347 1061.5,-1347 1061.5,-1347 1123.5,-1347 1123.5,-1347 1129.5,-1347 1135.5,-1353 1135.5,-1359 1135.5,-1359 1135.5,-1371 1135.5,-1371 1135.5,-1377 1129.5,-1383 1123.5,-1383"/>
<text text-anchor="middle" x="1092.5" y="-1360" font-family="Times,serif" font-size="20.00" fill="#000000">311 nfcv</text>
</g>
<!-- v_1_138&#45;&gt;v_1_136 -->
<g id="edge81" class="edge">
<title>v_1_138&#45;&gt;v_1_136</title>
<path fill="none" stroke="#000000" d="M1049.2834,-1354.1753C1011.8769,-1344.806 956.7489,-1330.9978 911.0011,-1319.5392"/>
<polygon fill="#000000" stroke="#000000" points="911.6438,-1316.0921 901.093,-1317.0575 909.943,-1322.8823 911.6438,-1316.0921"/>
</g>
<!-- v_1_139 -->
<g id="node48" class="node">
<title>v_1_139</title>
<path fill="#85cbd0" stroke="#000000" d="M1130,-1221C1130,-1221 1055,-1221 1055,-1221 1049,-1221 1043,-1215 1043,-1209 1043,-1209 1043,-1197 1043,-1197 1043,-1191 1049,-1185 1055,-1185 1055,-1185 1130,-1185 1130,-1185 1136,-1185 1142,-1191 1142,-1197 1142,-1197 1142,-1209 1142,-1209 1142,-1215 1136,-1221 1130,-1221"/>
<text text-anchor="middle" x="1092.5" y="-1198" font-family="Times,serif" font-size="20.00" fill="#000000">311 node1</text>
</g>
<!-- v_1_139&#45;&gt;v_1_136 -->
<g id="edge34" class="edge">
<title>v_1_139&#45;&gt;v_1_136</title>
<path fill="none" stroke="#000000" d="M1053.0375,-1221.1415C1048.4745,-1223.8576 1044.0213,-1226.8233 1040,-1230 1020.7079,-1245.24 1025.4853,-1260.0489 1004,-1272 993.7157,-1277.7206 982.594,-1282.334 971.1153,-1286.0435"/>
<polygon fill="#000000" stroke="#000000" points="969.9763,-1282.7309 961.3998,-1288.9514 971.9835,-1289.437 969.9763,-1282.7309"/>
</g>
<!-- v_1_140 -->
<g id="node49" class="node">
<title>v_1_140</title>
<path fill="#85cbd0" stroke="#000000" d="M1124,-1437C1124,-1437 1061,-1437 1061,-1437 1055,-1437 1049,-1431 1049,-1425 1049,-1425 1049,-1413 1049,-1413 1049,-1407 1055,-1401 1061,-1401 1061,-1401 1124,-1401 1124,-1401 1130,-1401 1136,-1407 1136,-1413 1136,-1413 1136,-1425 1136,-1425 1136,-1431 1130,-1437 1124,-1437"/>
<text text-anchor="middle" x="1092.5" y="-1414" font-family="Times,serif" font-size="20.00" fill="#000000">311 ilum</text>
</g>
<!-- v_1_140&#45;&gt;v_1_136 -->
<g id="edge99" class="edge">
<title>v_1_140&#45;&gt;v_1_136</title>
<path fill="none" stroke="#000000" d="M1052.7661,-1400.9049C1006.033,-1379.6222 928.4486,-1344.2897 878.0217,-1321.3249"/>
<polygon fill="#000000" stroke="#000000" points="879.177,-1318.0052 868.6257,-1317.0459 876.2758,-1324.3757 879.177,-1318.0052"/>
</g>
<!-- v_1_141 -->
<g id="node50" class="node">
<title>v_1_141</title>
<path fill="#85cbd0" stroke="#000000" d="M1130,-1113C1130,-1113 1055,-1113 1055,-1113 1049,-1113 1043,-1107 1043,-1101 1043,-1101 1043,-1089 1043,-1089 1043,-1083 1049,-1077 1055,-1077 1055,-1077 1130,-1077 1130,-1077 1136,-1077 1142,-1083 1142,-1089 1142,-1089 1142,-1101 1142,-1101 1142,-1107 1136,-1113 1130,-1113"/>
<text text-anchor="middle" x="1092.5" y="-1090" font-family="Times,serif" font-size="20.00" fill="#000000">311 node3</text>
</g>
<!-- v_1_141&#45;&gt;v_1_136 -->
<g id="edge43" class="edge">
<title>v_1_141&#45;&gt;v_1_136</title>
<path fill="none" stroke="#000000" d="M1049.1,-1113.1506C1045.7058,-1115.756 1042.5952,-1118.6949 1040,-1122 997.6587,-1175.9227 1054.4363,-1225.5605 1004,-1272 994.2685,-1280.9604 982.8639,-1287.6713 970.6238,-1292.6358"/>
<polygon fill="#000000" stroke="#000000" points="969.3125,-1289.3885 961.1148,-1296.1002 971.7087,-1295.9656 969.3125,-1289.3885"/>
</g>
<!-- v_1_142 -->
<g id="node51" class="node">
<title>v_1_142</title>
<path fill="#85cbd0" stroke="#000000" d="M1130,-1275C1130,-1275 1055,-1275 1055,-1275 1049,-1275 1043,-1269 1043,-1263 1043,-1263 1043,-1251 1043,-1251 1043,-1245 1049,-1239 1055,-1239 1055,-1239 1130,-1239 1130,-1239 1136,-1239 1142,-1245 1142,-1251 1142,-1251 1142,-1263 1142,-1263 1142,-1269 1136,-1275 1130,-1275"/>
<text text-anchor="middle" x="1092.5" y="-1252" font-family="Times,serif" font-size="20.00" fill="#000000">311 node2</text>
</g>
<!-- v_1_142&#45;&gt;v_1_136 -->
<g id="edge32" class="edge">
<title>v_1_142&#45;&gt;v_1_136</title>
<path fill="none" stroke="#000000" d="M1042.906,-1265.5388C1030.2279,-1267.6851 1016.6144,-1269.958 1004,-1272 989.0639,-1274.4179 973.4023,-1276.904 957.8463,-1279.3429"/>
<polygon fill="#000000" stroke="#000000" points="956.987,-1275.9346 947.6477,-1280.9375 958.0684,-1282.8506 956.987,-1275.9346"/>
</g>
<!-- v_1_146 -->
<g id="node52" class="node">
<title>v_1_146</title>
<polygon fill="#3a85b9" stroke="#000000" points="1404,-1383 1316,-1383 1316,-1347 1404,-1347 1404,-1383"/>
<text text-anchor="middle" x="1360" y="-1360" font-family="Times,serif" font-size="20.00" fill="#ffffff">312 print</text>
</g>
<!-- v_1_146&#45;&gt;v_1_138 -->
<g id="edge20" class="edge">
<title>v_1_146&#45;&gt;v_1_138</title>
<path fill="none" stroke="#000000" stroke-dasharray="5,2" d="M1315.8278,-1365C1269.2786,-1365 1195.9385,-1365 1146.1085,-1365"/>
<polygon fill="#000000" stroke="#000000" points="1145.8503,-1361.5001 1135.8502,-1365 1145.8502,-1368.5001 1145.8503,-1361.5001"/>
</g>
<!-- v_1_150 -->
<g id="node53" class="node">
<title>v_1_150</title>
<polygon fill="#3a85b9" stroke="#000000" points="1404,-1221 1316,-1221 1316,-1185 1404,-1185 1404,-1221"/>
<text text-anchor="middle" x="1360" y="-1198" font-family="Times,serif" font-size="20.00" fill="#ffffff">313 print</text>
</g>
<!-- v_1_150&#45;&gt;v_1_139 -->
<g id="edge82" class="edge">
<title>v_1_150&#45;&gt;v_1_139</title>
<path fill="none" stroke="#000000" stroke-dasharray="5,2" d="M1315.8278,-1203C1271.2182,-1203 1202.0037,-1203 1152.456,-1203"/>
<polygon fill="#000000" stroke="#000000" points="1152.1976,-1199.5001 1142.1976,-1203 1152.1975,-1206.5001 1152.1976,-1199.5001"/>
</g>
<!-- v_1_154 -->
<g id="node54" class="node">
<title>v_1_154</title>
<polygon fill="#3a85b9" stroke="#000000" points="1404,-1275 1316,-1275 1316,-1239 1404,-1239 1404,-1275"/>
<text text-anchor="middle" x="1360" y="-1252" font-family="Times,serif" font-size="20.00" fill="#ffffff">314 print</text>
</g>
<!-- v_1_154&#45;&gt;v_1_142 -->
<g id="edge90" class="edge">
<title>v_1_154&#45;&gt;v_1_142</title>
<path fill="none" stroke="#000000" stroke-dasharray="5,2" d="M1315.8278,-1257C1271.2182,-1257 1202.0037,-1257 1152.456,-1257"/>
<polygon fill="#000000" stroke="#000000" points="1152.1976,-1253.5001 1142.1976,-1257 1152.1975,-1260.5001 1152.1976,-1253.5001"/>
</g>
<!-- v_1_158 -->
<g id="node55" class="node">
<title>v_1_158</title>
<polygon fill="#3a85b9" stroke="#000000" points="1404,-1059 1316,-1059 1316,-1023 1404,-1023 1404,-1059"/>
<text text-anchor="middle" x="1360" y="-1036" font-family="Times,serif" font-size="20.00" fill="#ffffff">315 print</text>
</g>
<!-- v_1_158&#45;&gt;v_1_141 -->
<g id="edge68" class="edge">
<title>v_1_158&#45;&gt;v_1_141</title>
<path fill="none" stroke="#000000" stroke-dasharray="5,2" d="M1315.8951,-1045.8266C1279.4579,-1050.2497 1226.5157,-1057.6825 1181,-1068 1171.5819,-1070.1349 1161.7067,-1072.7561 1152.1084,-1075.5174"/>
<polygon fill="#000000" stroke="#000000" points="1150.8371,-1072.2433 1142.2371,-1078.4312 1152.8188,-1078.9569 1150.8371,-1072.2433"/>
</g>
<!-- v_1_162 -->
<g id="node56" class="node">
<title>v_1_162</title>
<polygon fill="#3a85b9" stroke="#000000" points="1397.5,-1113 1322.5,-1113 1322.5,-1077 1397.5,-1077 1397.5,-1113"/>
<text text-anchor="middle" x="1360" y="-1090" font-family="Times,serif" font-size="20.00" fill="#ffffff">316 len</text>
</g>
<!-- v_1_162&#45;&gt;v_1_141 -->
<g id="edge22" class="edge">
<title>v_1_162&#45;&gt;v_1_141</title>
<path fill="none" stroke="#000000" stroke-dasharray="5,2" d="M1322.2411,-1095C1278.091,-1095 1204.4472,-1095 1152.4568,-1095"/>
<polygon fill="#000000" stroke="#000000" points="1152.3626,-1091.5001 1142.3626,-1095 1152.3626,-1098.5001 1152.3626,-1091.5001"/>
</g>
<!-- v_1_163 -->
<g id="node57" class="node">
<title>v_1_163</title>
<path fill="#85cbd0" stroke="#000000" d="M1869.5,-1086C1869.5,-1086 1806.5,-1086 1806.5,-1086 1800.5,-1086 1794.5,-1080 1794.5,-1074 1794.5,-1074 1794.5,-1062 1794.5,-1062 1794.5,-1056 1800.5,-1050 1806.5,-1050 1806.5,-1050 1869.5,-1050 1869.5,-1050 1875.5,-1050 1881.5,-1056 1881.5,-1062 1881.5,-1062 1881.5,-1074 1881.5,-1074 1881.5,-1080 1875.5,-1086 1869.5,-1086"/>
<text text-anchor="middle" x="1838" y="-1063" font-family="Times,serif" font-size="20.00" fill="#000000">316 ntria</text>
</g>
<!-- v_1_163&#45;&gt;v_1_162 -->
<g id="edge4" class="edge">
<title>v_1_163&#45;&gt;v_1_162</title>
<path fill="none" stroke="#000000" d="M1794.3135,-1070.4676C1704.7705,-1075.5255 1501.0306,-1087.0338 1407.9706,-1092.2904"/>
<polygon fill="#000000" stroke="#000000" points="1407.5038,-1088.8111 1397.7172,-1092.8695 1407.8987,-1095.7999 1407.5038,-1088.8111"/>
</g>
<!-- v_1_166 -->
<g id="node58" class="node">
<title>v_1_166</title>
<polygon fill="#3a85b9" stroke="#000000" points="2231,-1086 2143,-1086 2143,-1050 2231,-1050 2231,-1086"/>
<text text-anchor="middle" x="2187" y="-1063" font-family="Times,serif" font-size="20.00" fill="#ffffff">317 print</text>
</g>
<!-- v_1_166&#45;&gt;v_1_163 -->
<g id="edge59" class="edge">
<title>v_1_166&#45;&gt;v_1_163</title>
<path fill="none" stroke="#000000" stroke-dasharray="5,2" d="M2142.7989,-1068C2078.8579,-1068 1960.6886,-1068 1891.7775,-1068"/>
<polygon fill="#000000" stroke="#000000" points="1891.5683,-1064.5001 1881.5683,-1068 1891.5682,-1071.5001 1891.5683,-1064.5001"/>
</g>
<!-- v_1_172 -->
<g id="node59" class="node">
<title>v_1_172</title>
<polygon fill="#3a85b9" stroke="#000000" points="967,-1101 691,-1101 691,-1065 967,-1065 967,-1101"/>
<text text-anchor="middle" x="829" y="-1078" font-family="Times,serif" font-size="20.00" fill="#ffffff">320 generate_coordinates_points</text>
</g>
<!-- v_1_172&#45;&gt;v_1_101 -->
<g id="edge72" class="edge">
<title>v_1_172&#45;&gt;v_1_101</title>
<path fill="none" stroke="#000000" stroke-dasharray="5,2" d="M710.8357,-1101.0638C691.8258,-1104.018 672.3664,-1107.0707 654,-1110 643.2578,-1111.7133 631.7582,-1113.5832 620.7988,-1115.3823"/>
<polygon fill="#000000" stroke="#000000" points="620.2216,-1111.9301 610.9231,-1117.0082 621.3588,-1118.8372 620.2216,-1111.9301"/>
</g>
<!-- v_1_172&#45;&gt;v_1_102 -->
<g id="edge51" class="edge">
<title>v_1_172&#45;&gt;v_1_102</title>
<path fill="none" stroke="#000000" stroke-dasharray="5,2" d="M711.9302,-1064.9893C679.9215,-1060.0649 646.8569,-1054.978 620.6018,-1050.9387"/>
<polygon fill="#000000" stroke="#000000" points="620.9406,-1047.4498 610.5246,-1049.3884 619.8761,-1054.3684 620.9406,-1047.4498"/>
</g>
<!-- v_1_172&#45;&gt;v_1_103 -->
<g id="edge16" class="edge">
<title>v_1_172&#45;&gt;v_1_103</title>
<path fill="none" stroke="#000000" stroke-dasharray="5,2" d="M690.7707,-1094.9051C677.9303,-1098.7764 665.4553,-1103.7172 654,-1110 632.7382,-1121.6613 636.9026,-1135.8098 618,-1151 616.6467,-1152.0876 615.2434,-1153.1549 613.8038,-1154.1995"/>
<polygon fill="#000000" stroke="#000000" points="611.6223,-1151.4478 605.256,-1159.9166 615.514,-1157.2663 611.6223,-1151.4478"/>
</g>
<!-- v_1_173 -->
<g id="node60" class="node">
<title>v_1_173</title>
<path fill="#85cbd0" stroke="#000000" d="M1109.5,-1167C1109.5,-1167 1075.5,-1167 1075.5,-1167 1069.5,-1167 1063.5,-1161 1063.5,-1155 1063.5,-1155 1063.5,-1143 1063.5,-1143 1063.5,-1137 1069.5,-1131 1075.5,-1131 1075.5,-1131 1109.5,-1131 1109.5,-1131 1115.5,-1131 1121.5,-1137 1121.5,-1143 1121.5,-1143 1121.5,-1155 1121.5,-1155 1121.5,-1161 1115.5,-1167 1109.5,-1167"/>
<text text-anchor="middle" x="1092.5" y="-1144" font-family="Times,serif" font-size="20.00" fill="#000000">320 r</text>
</g>
<!-- v_1_173&#45;&gt;v_1_172 -->
<g id="edge44" class="edge">
<title>v_1_173&#45;&gt;v_1_172</title>
<path fill="none" stroke="#000000" d="M1063.3241,-1133.8241C1046.4096,-1125.6214 1024.4691,-1115.9764 1004,-1110 995.3316,-1107.4691 986.3484,-1105.1635 977.2368,-1103.0648"/>
<polygon fill="#000000" stroke="#000000" points="977.828,-1099.6111 967.308,-1100.8679 976.3157,-1106.4457 977.828,-1099.6111"/>
</g>
<!-- v_1_176 -->
<g id="node61" class="node">
<title>v_1_176</title>
<polygon fill="#3a85b9" stroke="#000000" points="873,-604 785,-604 785,-568 873,-568 873,-604"/>
<text text-anchor="middle" x="829" y="-581" font-family="Times,serif" font-size="20.00" fill="#ffffff">328 print</text>
</g>
<!-- v_1_176&#45;&gt;v_1_54 -->
<g id="edge11" class="edge">
<title>v_1_176&#45;&gt;v_1_54</title>
<path fill="none" stroke="#000000" stroke-dasharray="5,2" d="M784.8945,-578.8753C741.3408,-571.8397 674.5048,-561.0431 626.7411,-553.3274"/>
<polygon fill="#000000" stroke="#000000" points="627.2838,-549.8698 616.8536,-551.7302 626.1675,-556.7802 627.2838,-549.8698"/>
</g>
<!-- v_1_179 -->
<g id="node62" class="node">
<title>v_1_179</title>
<polygon fill="#3a85b9" stroke="#000000" points="873,-182 785,-182 785,-146 873,-146 873,-182"/>
<text text-anchor="middle" x="829" y="-159" font-family="Times,serif" font-size="20.00" fill="#ffffff">331 print</text>
</g>
<!-- v_1_179&#45;&gt;v_1_60 -->
<g id="edge5" class="edge">
<title>v_1_179&#45;&gt;v_1_60</title>
<path fill="none" stroke="#000000" stroke-dasharray="5,2" d="M784.6757,-171.612C749.2437,-177.8157 698.3421,-186.9936 654,-196 644.7616,-197.8764 634.9817,-199.9658 625.4721,-202.053"/>
<polygon fill="#000000" stroke="#000000" points="624.7005,-198.639 615.6938,-204.2184 626.214,-205.4734 624.7005,-198.639"/>
</g>
<!-- v_1_182 -->
<g id="node63" class="node">
<title>v_1_182</title>
<polygon fill="#3a85b9" stroke="#000000" points="873,-512 785,-512 785,-476 873,-476 873,-512"/>
<text text-anchor="middle" x="829" y="-489" font-family="Times,serif" font-size="20.00" fill="#ffffff">334 print</text>
</g>
<!-- v_1_182&#45;&gt;v_1_55 -->
<g id="edge101" class="edge">
<title>v_1_182&#45;&gt;v_1_55</title>
<path fill="none" stroke="#000000" stroke-dasharray="5,2" d="M784.8945,-493.3215C739.8122,-492.6279 669.7846,-491.5505 621.7844,-490.8121"/>
<polygon fill="#000000" stroke="#000000" points="621.6453,-487.3096 611.5926,-490.6553 621.5375,-494.3088 621.6453,-487.3096"/>
</g>
<!-- v_1_185 -->
<g id="node64" class="node">
<title>v_1_185</title>
<polygon fill="#3a85b9" stroke="#000000" points="873,-696 785,-696 785,-660 873,-660 873,-696"/>
<text text-anchor="middle" x="829" y="-673" font-family="Times,serif" font-size="20.00" fill="#ffffff">337 print</text>
</g>
<!-- v_1_185&#45;&gt;v_1_53 -->
<g id="edge77" class="edge">
<title>v_1_185&#45;&gt;v_1_53</title>
<path fill="none" stroke="#000000" stroke-dasharray="5,2" d="M784.6682,-672.0104C749.0124,-666.6881 697.8137,-657.9038 654,-646 644.0062,-643.2848 633.5223,-639.912 623.4636,-636.4005"/>
<polygon fill="#000000" stroke="#000000" points="624.5744,-633.0807 613.9798,-633.0081 622.2167,-639.6717 624.5744,-633.0807"/>
</g>
<!-- v_1_188 -->
<g id="node65" class="node">
<title>v_1_188</title>
<polygon fill="#3a85b9" stroke="#000000" points="873,-312 785,-312 785,-276 873,-276 873,-312"/>
<text text-anchor="middle" x="829" y="-289" font-family="Times,serif" font-size="20.00" fill="#ffffff">340 print</text>
</g>
<!-- v_1_188&#45;&gt;v_1_58 -->
<g id="edge89" class="edge">
<title>v_1_188&#45;&gt;v_1_58</title>
<path fill="none" stroke="#000000" stroke-dasharray="5,2" d="M784.789,-297.9698C748.7537,-302.1716 696.9792,-310.4349 654,-326 636.9774,-332.1648 619.3601,-341.5431 604.6088,-350.3793"/>
<polygon fill="#000000" stroke="#000000" points="602.5122,-347.5596 595.8252,-355.7776 606.1775,-353.5234 602.5122,-347.5596"/>
</g>
<!-- v_1_191 -->
<g id="node66" class="node">
<title>v_1_191</title>
<polygon fill="#3a85b9" stroke="#000000" points="873,-404 785,-404 785,-368 873,-368 873,-404"/>
<text text-anchor="middle" x="829" y="-381" font-family="Times,serif" font-size="20.00" fill="#ffffff">343 print</text>
</g>
<!-- v_1_191&#45;&gt;v_1_56 -->
<g id="edge83" class="edge">
<title>v_1_191&#45;&gt;v_1_56</title>
<path fill="none" stroke="#000000" stroke-dasharray="5,2" d="M784.8836,-391.4248C749.3495,-396.1255 698.2096,-403.6385 654,-413 642.6638,-415.4005 630.589,-418.3957 619.2068,-421.4232"/>
<polygon fill="#000000" stroke="#000000" points="618.1537,-418.0822 609.4185,-424.0778 619.986,-424.8382 618.1537,-418.0822"/>
</g>
<!-- v_1_194 -->
<g id="node67" class="node">
<title>v_1_194</title>
<polygon fill="#3a85b9" stroke="#000000" points="981.5,-458 676.5,-458 676.5,-422 981.5,-422 981.5,-458"/>
<text text-anchor="middle" x="829" y="-435" font-family="Times,serif" font-size="20.00" fill="#ffffff">346 calculate_refs_geometry_model</text>
</g>
<!-- v_1_194&#45;&gt;v_1_53 -->
<g id="edge102" class="edge">
<title>v_1_194&#45;&gt;v_1_53</title>
<path fill="none" stroke="#000000" stroke-dasharray="5,2" d="M676.3754,-452.5674C668.3856,-456.5251 660.8454,-461.2888 654,-467 616.442,-498.3351 645.0578,-530.2524 618,-571 613.464,-577.831 607.6238,-584.2879 601.5661,-590.0441"/>
<polygon fill="#000000" stroke="#000000" points="598.98,-587.6614 593.8586,-596.9361 603.646,-592.8795 598.98,-587.6614"/>
</g>
<!-- v_1_194&#45;&gt;v_1_54 -->
<g id="edge73" class="edge">
<title>v_1_194&#45;&gt;v_1_54</title>
<path fill="none" stroke="#000000" stroke-dasharray="5,2" d="M676.4167,-455.749C668.6068,-458.9389 661.0764,-462.6621 654,-467 630.6543,-481.311 638.4925,-498.8373 618,-517 616.8642,-518.0066 615.6846,-518.991 614.4706,-519.952"/>
<polygon fill="#000000" stroke="#000000" points="612.1742,-517.2907 606.0625,-525.945 616.2372,-522.9909 612.1742,-517.2907"/>
</g>
<!-- v_1_194&#45;&gt;v_1_55 -->
<g id="edge7" class="edge">
<title>v_1_194&#45;&gt;v_1_55</title>
<path fill="none" stroke="#000000" stroke-dasharray="5,2" d="M701.103,-458.0455C685.1932,-460.7861 669.1877,-463.784 654,-467 643.3509,-469.255 632.0499,-472.0349 621.2836,-474.8732"/>
<polygon fill="#000000" stroke="#000000" points="620.3283,-471.5057 611.5805,-477.4829 622.1464,-478.2655 620.3283,-471.5057"/>
</g>
<!-- v_1_194&#45;&gt;v_1_56 -->
<g id="edge18" class="edge">
<title>v_1_194&#45;&gt;v_1_56</title>
<path fill="none" stroke="#000000" stroke-dasharray="5,2" d="M676.253,-437.65C655.7485,-437.3346 636.0232,-437.0311 619.204,-436.7724"/>
<polygon fill="#000000" stroke="#000000" points="619.179,-433.2717 609.1263,-436.6173 619.0712,-440.2708 619.179,-433.2717"/>
</g>
<!-- v_1_194&#45;&gt;v_1_58 -->
<g id="edge55" class="edge">
<title>v_1_194&#45;&gt;v_1_58</title>
<path fill="none" stroke="#000000" stroke-dasharray="5,2" d="M688.7633,-421.9146C676.9113,-419.315 665.1885,-416.3586 654,-413 639.985,-408.793 625.3031,-402.7145 612.1609,-396.6036"/>
<polygon fill="#000000" stroke="#000000" points="613.4267,-393.3294 602.895,-392.1745 610.4079,-399.645 613.4267,-393.3294"/>
</g>
<!-- v_1_194&#45;&gt;v_1_60 -->
<g id="edge49" class="edge">
<title>v_1_194&#45;&gt;v_1_60</title>
<path fill="none" stroke="#000000" stroke-dasharray="5,2" d="M676.2569,-428.2502C668.2449,-424.1013 660.7368,-419.071 654,-413 607.2322,-370.8547 646.335,-332.2191 618,-276 611.6804,-263.4613 602.4754,-251.103 593.7455,-240.8238"/>
<polygon fill="#000000" stroke="#000000" points="596.1459,-238.2538 586.9103,-233.062 590.8925,-242.88 596.1459,-238.2538"/>
</g>
<!-- v_1_86 -->
<g id="node68" class="node">
<title>v_1_86</title>
<path fill="#85cbd0" stroke="#000000" d="M595.5,-321C595.5,-321 542.5,-321 542.5,-321 536.5,-321 530.5,-315 530.5,-309 530.5,-309 530.5,-297 530.5,-297 530.5,-291 536.5,-285 542.5,-285 542.5,-285 595.5,-285 595.5,-285 601.5,-285 607.5,-291 607.5,-297 607.5,-297 607.5,-309 607.5,-309 607.5,-315 601.5,-321 595.5,-321"/>
<text text-anchor="middle" x="569" y="-298" font-family="Times,serif" font-size="20.00" fill="#000000">287 rad</text>
</g>
<!-- v_1_194&#45;&gt;v_1_86 -->
<g id="edge6" class="edge">
<title>v_1_194&#45;&gt;v_1_86</title>
<path fill="none" stroke="#000000" stroke-dasharray="5,2" d="M676.1595,-425.4803C668.3695,-421.985 660.9182,-417.8586 654,-413 626.6563,-393.7967 638.7289,-373.206 618,-347 612.8132,-340.4428 606.5916,-334.0415 600.3494,-328.2422"/>
<polygon fill="#000000" stroke="#000000" points="602.3017,-325.2937 592.5081,-321.2518 597.6436,-330.5189 602.3017,-325.2937"/>
</g>
<!-- v_1_195 -->
<g id="node69" class="node">
<title>v_1_195</title>
<path fill="#85cbd0" stroke="#000000" d="M1113.5,-404C1113.5,-404 1071.5,-404 1071.5,-404 1065.5,-404 1059.5,-398 1059.5,-392 1059.5,-392 1059.5,-380 1059.5,-380 1059.5,-374 1065.5,-368 1071.5,-368 1071.5,-368 1113.5,-368 1113.5,-368 1119.5,-368 1125.5,-374 1125.5,-380 1125.5,-380 1125.5,-392 1125.5,-392 1125.5,-398 1119.5,-404 1113.5,-404"/>
<text text-anchor="middle" x="1092.5" y="-381" font-family="Times,serif" font-size="20.00" fill="#000000">346 ip</text>
</g>
<!-- v_1_195&#45;&gt;v_1_194 -->
<g id="edge76" class="edge">
<title>v_1_195&#45;&gt;v_1_194</title>
<path fill="none" stroke="#000000" d="M1059.1844,-397.3986C1042.7258,-402.7121 1022.4791,-408.7784 1004,-413 992.9898,-415.5153 981.5356,-417.8647 969.9916,-420.0441"/>
<polygon fill="#000000" stroke="#000000" points="969.0332,-416.6616 959.8327,-421.9154 970.3014,-423.5458 969.0332,-416.6616"/>
</g>
<!-- v_1_196 -->
<g id="node70" class="node">
<title>v_1_196</title>
<path fill="#85cbd0" stroke="#000000" d="M1111.5,-566C1111.5,-566 1073.5,-566 1073.5,-566 1067.5,-566 1061.5,-560 1061.5,-554 1061.5,-554 1061.5,-542 1061.5,-542 1061.5,-536 1067.5,-530 1073.5,-530 1073.5,-530 1111.5,-530 1111.5,-530 1117.5,-530 1123.5,-536 1123.5,-542 1123.5,-542 1123.5,-554 1123.5,-554 1123.5,-560 1117.5,-566 1111.5,-566"/>
<text text-anchor="middle" x="1092.5" y="-543" font-family="Times,serif" font-size="20.00" fill="#000000">346 it</text>
</g>
<!-- v_1_196&#45;&gt;v_1_194 -->
<g id="edge27" class="edge">
<title>v_1_196&#45;&gt;v_1_194</title>
<path fill="none" stroke="#000000" d="M1061.397,-535.2941C1053.9083,-531.3797 1046.2689,-526.5978 1040,-521 1018.4848,-501.7881 1028.3162,-482.5152 1004,-467 999.8454,-464.3491 995.5249,-461.9244 991.0756,-459.7079"/>
<polygon fill="#000000" stroke="#000000" points="992.3226,-456.4293 981.7736,-455.4448 989.4062,-462.7929 992.3226,-456.4293"/>
</g>
<!-- v_1_197 -->
<g id="node71" class="node">
<title>v_1_197</title>
<path fill="#85cbd0" stroke="#000000" d="M1120.5,-512C1120.5,-512 1064.5,-512 1064.5,-512 1058.5,-512 1052.5,-506 1052.5,-500 1052.5,-500 1052.5,-488 1052.5,-488 1052.5,-482 1058.5,-476 1064.5,-476 1064.5,-476 1120.5,-476 1120.5,-476 1126.5,-476 1132.5,-482 1132.5,-488 1132.5,-488 1132.5,-500 1132.5,-500 1132.5,-506 1126.5,-512 1120.5,-512"/>
<text text-anchor="middle" x="1092.5" y="-489" font-family="Times,serif" font-size="20.00" fill="#000000">346 delt</text>
</g>
<!-- v_1_197&#45;&gt;v_1_194 -->
<g id="edge36" class="edge">
<title>v_1_197&#45;&gt;v_1_194</title>
<path fill="none" stroke="#000000" d="M1052.2943,-480.4049C1037.2677,-475.6767 1019.9735,-470.6492 1004,-467 992.9898,-464.4847 981.5356,-462.1353 969.9916,-459.9559"/>
<polygon fill="#000000" stroke="#000000" points="970.3014,-456.4542 959.8327,-458.0846 969.0332,-463.3384 970.3014,-456.4542"/>
</g>
<!-- v_1_198 -->
<g id="node72" class="node">
<title>v_1_198</title>
<path fill="#85cbd0" stroke="#000000" d="M1123,-458C1123,-458 1062,-458 1062,-458 1056,-458 1050,-452 1050,-446 1050,-446 1050,-434 1050,-434 1050,-428 1056,-422 1062,-422 1062,-422 1123,-422 1123,-422 1129,-422 1135,-428 1135,-434 1135,-434 1135,-446 1135,-446 1135,-452 1129,-458 1123,-458"/>
<text text-anchor="middle" x="1092.5" y="-435" font-family="Times,serif" font-size="20.00" fill="#000000">346 delp</text>
</g>
<!-- v_1_198&#45;&gt;v_1_194 -->
<g id="edge50" class="edge">
<title>v_1_198&#45;&gt;v_1_194</title>
<path fill="none" stroke="#000000" d="M1049.8713,-440C1033.2733,-440 1013.1227,-440 991.823,-440"/>
<polygon fill="#000000" stroke="#000000" points="991.6263,-436.5001 981.6263,-440 991.6263,-443.5001 991.6263,-436.5001"/>
</g>
<!-- v_1_205 -->
<g id="node73" class="node">
<title>v_1_205</title>
<polygon fill="#3a85b9" stroke="#000000" points="1539,-1167 1181,-1167 1181,-1131 1539,-1131 1539,-1167"/>
<text text-anchor="middle" x="1360" y="-1144" font-family="Times,serif" font-size="20.00" fill="#ffffff">351 calculate_edges_and_normal_triangles</text>
</g>
<!-- v_1_205&#45;&gt;v_1_139 -->
<g id="edge71" class="edge">
<title>v_1_205&#45;&gt;v_1_139</title>
<path fill="none" stroke="#000000" stroke-dasharray="5,2" d="M1225.69,-1167.0744C1210.5552,-1169.758 1195.4057,-1172.7345 1181,-1176 1171.5819,-1178.1349 1161.7067,-1180.7561 1152.1084,-1183.5174"/>
<polygon fill="#000000" stroke="#000000" points="1150.8371,-1180.2433 1142.2371,-1186.4312 1152.8188,-1186.9569 1150.8371,-1180.2433"/>
</g>
<!-- v_1_205&#45;&gt;v_1_141 -->
<g id="edge14" class="edge">
<title>v_1_205&#45;&gt;v_1_141</title>
<path fill="none" stroke="#000000" stroke-dasharray="5,2" d="M1225.69,-1130.9256C1210.5552,-1128.242 1195.4057,-1125.2655 1181,-1122 1171.5819,-1119.8651 1161.7067,-1117.2439 1152.1084,-1114.4826"/>
<polygon fill="#000000" stroke="#000000" points="1152.8188,-1111.0431 1142.2371,-1111.5688 1150.8371,-1117.7567 1152.8188,-1111.0431"/>
</g>
<!-- v_1_205&#45;&gt;v_1_142 -->
<g id="edge46" class="edge">
<title>v_1_205&#45;&gt;v_1_142</title>
<path fill="none" stroke="#000000" stroke-dasharray="5,2" d="M1197.1996,-1167.136C1191.5945,-1169.7687 1186.1719,-1172.7123 1181,-1176 1156.6577,-1191.4742 1166.5152,-1210.7881 1145,-1230 1143.8532,-1231.024 1142.6606,-1232.0207 1141.4315,-1232.9897"/>
<polygon fill="#000000" stroke="#000000" points="1139.0655,-1230.374 1132.8875,-1238.9812 1143.0845,-1236.1053 1139.0655,-1230.374"/>
</g>
<!-- v_1_205&#45;&gt;v_1_173 -->
<g id="edge9" class="edge">
<title>v_1_205&#45;&gt;v_1_173</title>
<path fill="none" stroke="#000000" stroke-dasharray="5,2" d="M1180.8309,-1149C1162.7806,-1149 1145.9826,-1149 1131.986,-1149"/>
<polygon fill="#000000" stroke="#000000" points="1131.8544,-1145.5001 1121.8543,-1149 1131.8543,-1152.5001 1131.8544,-1145.5001"/>
</g>
<!-- v_1_206 -->
<g id="node74" class="node">
<title>v_1_206</title>
<path fill="#85cbd0" stroke="#000000" d="M1873,-1194C1873,-1194 1803,-1194 1803,-1194 1797,-1194 1791,-1188 1791,-1182 1791,-1182 1791,-1170 1791,-1170 1791,-1164 1797,-1158 1803,-1158 1803,-1158 1873,-1158 1873,-1158 1879,-1158 1885,-1164 1885,-1170 1885,-1170 1885,-1182 1885,-1182 1885,-1188 1879,-1194 1873,-1194"/>
<text text-anchor="middle" x="1838" y="-1171" font-family="Times,serif" font-size="20.00" fill="#000000">351 alpha</text>
</g>
<!-- v_1_206&#45;&gt;v_1_205 -->
<g id="edge17" class="edge">
<title>v_1_206&#45;&gt;v_1_205</title>
<path fill="none" stroke="#000000" d="M1790.8593,-1173.3372C1734.6719,-1170.1635 1637.3077,-1164.6638 1549.3355,-1159.6947"/>
<polygon fill="#000000" stroke="#000000" points="1549.3905,-1156.1923 1539.209,-1159.1227 1548.9957,-1163.1812 1549.3905,-1156.1923"/>
</g>
<!-- v_1_207 -->
<g id="node75" class="node">
<title>v_1_207</title>
<path fill="#85cbd0" stroke="#000000" d="M1868,-1140C1868,-1140 1808,-1140 1808,-1140 1802,-1140 1796,-1134 1796,-1128 1796,-1128 1796,-1116 1796,-1116 1796,-1110 1802,-1104 1808,-1104 1808,-1104 1868,-1104 1868,-1104 1874,-1104 1880,-1110 1880,-1116 1880,-1116 1880,-1128 1880,-1128 1880,-1134 1874,-1140 1868,-1140"/>
<text text-anchor="middle" x="1838" y="-1117" font-family="Times,serif" font-size="20.00" fill="#000000">351 beta</text>
</g>
<!-- v_1_207&#45;&gt;v_1_205 -->
<g id="edge61" class="edge">
<title>v_1_207&#45;&gt;v_1_205</title>
<path fill="none" stroke="#000000" d="M1795.9996,-1124.3724C1740.7746,-1127.4918 1640.1071,-1133.1781 1549.4072,-1138.3013"/>
<polygon fill="#000000" stroke="#000000" points="1549.0385,-1134.8164 1539.2518,-1138.8749 1549.4333,-1141.8053 1549.0385,-1134.8164"/>
</g>
<!-- v_1_208 -->
<g id="node76" class="node">
<title>v_1_208</title>
<path fill="#85cbd0" stroke="#000000" d="M1871,-1248C1871,-1248 1805,-1248 1805,-1248 1799,-1248 1793,-1242 1793,-1236 1793,-1236 1793,-1224 1793,-1224 1793,-1218 1799,-1212 1805,-1212 1805,-1212 1871,-1212 1871,-1212 1877,-1212 1883,-1218 1883,-1224 1883,-1224 1883,-1236 1883,-1236 1883,-1242 1877,-1248 1871,-1248"/>
<text text-anchor="middle" x="1838" y="-1225" font-family="Times,serif" font-size="20.00" fill="#000000">351 areai</text>
</g>
<!-- v_1_208&#45;&gt;v_1_205 -->
<g id="edge86" class="edge">
<title>v_1_208&#45;&gt;v_1_205</title>
<path fill="none" stroke="#000000" d="M1792.5504,-1232.5562C1738.7173,-1233.975 1647.2394,-1231.2605 1575,-1203 1556.3745,-1195.7136 1557.4476,-1183.7258 1539,-1176 1533.927,-1173.8755 1528.7112,-1171.9152 1523.3956,-1170.1067"/>
<polygon fill="#000000" stroke="#000000" points="1524.3204,-1166.7278 1513.7294,-1167.0126 1522.1864,-1173.3946 1524.3204,-1166.7278"/>
</g>
<!-- a_5 -->
<g id="node77" class="node">
<title>a_5</title>
<path fill="#ffffff" stroke="#000000" d="M2087.5,-620C2087.5,-620 1588.5,-620 1588.5,-620 1582.5,-620 1576.5,-614 1576.5,-608 1576.5,-608 1576.5,-596 1576.5,-596 1576.5,-590 1582.5,-584 1588.5,-584 1588.5,-584 2087.5,-584 2087.5,-584 2093.5,-584 2099.5,-590 2099.5,-596 2099.5,-596 2099.5,-608 2099.5,-608 2099.5,-614 2093.5,-620 2087.5,-620"/>
<text text-anchor="middle" x="1838" y="-597" font-family="Times,serif" font-size="20.00" fill="#000000">R_PyPOFacetsModular_BOX_i ... 02.dat_20180320114003.dat</text>
</g>
<!-- v_1_211 -->
<g id="node79" class="node">
<title>v_1_211</title>
<polygon fill="#3a85b9" stroke="#000000" points="1451.5,-566 1268.5,-566 1268.5,-530 1451.5,-530 1451.5,-566"/>
<text text-anchor="middle" x="1360" y="-543" font-family="Times,serif" font-size="20.00" fill="#ffffff">353 main_all_in_one</text>
</g>
<!-- a_5&#45;&gt;v_1_211 -->
<g id="edge98" class="edge">
<title>a_5&#45;&gt;v_1_211</title>
<path fill="none" stroke="#000000" stroke-dasharray="5,2" d="M1657.2054,-583.9836C1629.6562,-581.0808 1601.5642,-578.0312 1575,-575 1538.0165,-570.7799 1497.5028,-565.7885 1461.713,-561.2524"/>
<polygon fill="#000000" stroke="#000000" points="1462.1121,-557.7751 1451.7506,-559.9861 1461.2294,-564.7192 1462.1121,-557.7751"/>
</g>
<!-- a_6 -->
<g id="node78" class="node">
<title>a_6</title>
<path fill="#ffffff" stroke="#000000" d="M2089,-512C2089,-512 1587,-512 1587,-512 1581,-512 1575,-506 1575,-500 1575,-500 1575,-488 1575,-488 1575,-482 1581,-476 1587,-476 1587,-476 2089,-476 2089,-476 2095,-476 2101,-482 2101,-488 2101,-488 2101,-500 2101,-500 2101,-506 2095,-512 2089,-512"/>
<text text-anchor="middle" x="1838" y="-489" font-family="Times,serif" font-size="20.00" fill="#000000">E0_PyPOFacetsModular_BOX_ ... 02.dat_20180320114003.dat</text>
</g>
<!-- a_6&#45;&gt;v_1_211 -->
<g id="edge85" class="edge">
<title>a_6&#45;&gt;v_1_211</title>
<path fill="none" stroke="#000000" stroke-dasharray="5,2" d="M1657.2054,-512.0164C1629.6562,-514.9192 1601.5642,-517.9688 1575,-521 1538.0165,-525.2201 1497.5028,-530.2115 1461.713,-534.7476"/>
<polygon fill="#000000" stroke="#000000" points="1461.2294,-531.2808 1451.7506,-536.0139 1462.1121,-538.2249 1461.2294,-531.2808"/>
</g>
<!-- v_1_211&#45;&gt;v_1_51 -->
<g id="edge95" class="edge">
<title>v_1_211&#45;&gt;v_1_51</title>
<path fill="none" stroke="#000000" stroke-dasharray="5,2" d="M1345.7009,-566.1647C1314.8617,-605.5052 1240.1071,-701.7558 1181,-785 1164.3006,-808.5187 1166.5152,-819.7881 1145,-839 1143.8532,-840.024 1142.6606,-841.0207 1141.4315,-841.9897"/>
<polygon fill="#000000" stroke="#000000" points="1139.0655,-839.374 1132.8875,-847.9812 1143.0845,-845.1053 1139.0655,-839.374"/>
</g>
<!-- v_1_211&#45;&gt;v_1_52 -->
<g id="edge100" class="edge">
<title>v_1_211&#45;&gt;v_1_52</title>
<path fill="none" stroke="#000000" stroke-dasharray="5,2" d="M1328.3757,-566.1142C1267.7032,-599.9049 1129.8006,-672.099 1004,-705 932.574,-723.6803 718.3526,-738.2312 619.7218,-744.1355"/>
<polygon fill="#000000" stroke="#000000" points="619.4715,-740.6441 609.6961,-744.7297 619.8857,-747.6318 619.4715,-740.6441"/>
</g>
<!-- v_1_211&#45;&gt;v_1_53 -->
<g id="edge67" class="edge">
<title>v_1_211&#45;&gt;v_1_53</title>
<path fill="none" stroke="#000000" stroke-dasharray="5,2" d="M1274.1102,-566.0494C1234.8244,-574.0807 1187.6301,-583.4148 1145,-591 1082.5559,-602.1107 1067.2236,-607.9511 1004,-613 867.9139,-623.8676 707.1182,-620.3846 624.3638,-617.399"/>
<polygon fill="#000000" stroke="#000000" points="624.3053,-613.8945 614.1819,-617.0198 624.0447,-620.8896 624.3053,-613.8945"/>
</g>
<!-- v_1_211&#45;&gt;v_1_54 -->
<g id="edge78" class="edge">
<title>v_1_211&#45;&gt;v_1_54</title>
<path fill="none" stroke="#000000" stroke-dasharray="5,2" d="M1268.4324,-562.0594C1230.3577,-567.238 1185.6438,-572.4579 1145,-575 1098.4243,-577.9131 1085.6501,-584.6876 1040,-575 1022.8723,-571.3653 1021.0625,-562.9294 1004,-559 871.81,-528.5576 711.1144,-533.4332 626.89,-539.0643"/>
<polygon fill="#000000" stroke="#000000" points="626.4905,-535.5835 616.758,-539.7703 626.9771,-542.5666 626.4905,-535.5835"/>
</g>
<!-- v_1_211&#45;&gt;v_1_57 -->
<g id="edge35" class="edge">
<title>v_1_211&#45;&gt;v_1_57</title>
<path fill="none" stroke="#000000" stroke-dasharray="5,2" d="M1342.8652,-566.2145C1307.9834,-604.1497 1228.0547,-695.5595 1181,-785 1157.4424,-829.7777 1177.9332,-854.589 1145,-893 1144.0202,-894.1428 1142.9799,-895.2434 1141.8895,-896.3028"/>
<polygon fill="#000000" stroke="#000000" points="1139.5883,-893.6634 1134.0714,-902.7085 1144.0248,-899.078 1139.5883,-893.6634"/>
</g>
<!-- v_1_211&#45;&gt;v_1_58 -->
<g id="edge92" class="edge">
<title>v_1_211&#45;&gt;v_1_58</title>
<path fill="none" stroke="#000000" stroke-dasharray="5,2" d="M1346.9881,-529.859C1316.9153,-489.6984 1238.0051,-394.0674 1145,-359 964.3272,-290.8776 728.6449,-334.0112 623.6219,-359.3557"/>
<polygon fill="#000000" stroke="#000000" points="622.75,-355.9657 613.8725,-361.7485 624.4186,-362.7639 622.75,-355.9657"/>
</g>
<!-- v_1_211&#45;&gt;v_1_59 -->
<g id="edge24" class="edge">
<title>v_1_211&#45;&gt;v_1_59</title>
<path fill="none" stroke="#000000" stroke-dasharray="5,2" d="M1342.3806,-529.9307C1307.6615,-493.5472 1229.5669,-407.7611 1181,-324 1159.183,-286.3732 1172.1752,-266.9597 1145,-233 1097.6323,-173.8066 1075.2938,-162.7826 1004,-137 968.7412,-124.249 728.585,-106.1487 620.9715,-98.5621"/>
<polygon fill="#000000" stroke="#000000" points="620.8948,-95.0482 610.6744,-97.8398 620.4049,-102.031 620.8948,-95.0482"/>
</g>
<!-- v_1_211&#45;&gt;v_1_60 -->
<g id="edge80" class="edge">
<title>v_1_211&#45;&gt;v_1_60</title>
<path fill="none" stroke="#000000" stroke-dasharray="5,2" d="M1344.654,-529.7944C1313.0717,-492.1136 1238.9097,-402.5257 1181,-324 1164.0991,-301.0823 1168.5236,-287.0469 1145,-271 1061.5631,-214.0826 753.9023,-212.0265 625.6804,-213.7659"/>
<polygon fill="#000000" stroke="#000000" points="625.613,-210.2664 615.666,-213.9145 625.7169,-217.2656 625.613,-210.2664"/>
</g>
<!-- v_1_211&#45;&gt;v_1_95 -->
<g id="edge3" class="edge">
<title>v_1_211&#45;&gt;v_1_95</title>
<path fill="none" stroke="#000000" stroke-dasharray="5,2" d="M1340.0312,-566.2056C1302.9489,-599.6266 1220.3584,-672.2624 1145,-726 1141.0266,-728.8334 1136.798,-731.6754 1132.5321,-734.4325"/>
<polygon fill="#000000" stroke="#000000" points="1130.3851,-731.6485 1123.793,-739.9427 1134.1187,-737.5697 1130.3851,-731.6485"/>
</g>
<!-- v_1_211&#45;&gt;v_1_96 -->
<g id="edge40" class="edge">
<title>v_1_211&#45;&gt;v_1_96</title>
<path fill="none" stroke="#000000" stroke-dasharray="5,2" d="M1347.2205,-566.0677C1316.4218,-608.6181 1234.0277,-716.6834 1145,-785 1142.7131,-786.7549 1140.295,-788.4501 1137.8022,-790.0775"/>
<polygon fill="#000000" stroke="#000000" points="1135.8594,-787.1622 1129.1207,-795.3378 1139.487,-793.149 1135.8594,-787.1622"/>
</g>
<!-- v_1_211&#45;&gt;v_1_86 -->
<g id="edge47" class="edge">
<title>v_1_211&#45;&gt;v_1_86</title>
<path fill="none" stroke="#000000" stroke-dasharray="5,2" d="M1346.2238,-529.8399C1314.586,-489.1617 1232.6809,-389.5593 1145,-329 1088.6719,-290.0954 1070.9941,-281.0787 1004,-267 851.7696,-235.009 806.4451,-236.0483 654,-267 639.9718,-269.8482 625.3851,-275.0914 612.3374,-280.7116"/>
<polygon fill="#000000" stroke="#000000" points="610.8277,-277.5528 603.1386,-284.8418 613.6949,-283.9387 610.8277,-277.5528"/>
</g>
<!-- v_1_211&#45;&gt;v_1_195 -->
<g id="edge56" class="edge">
<title>v_1_211&#45;&gt;v_1_195</title>
<path fill="none" stroke="#000000" stroke-dasharray="5,2" d="M1332.966,-529.9754C1292.6564,-503.3416 1214.124,-452.3806 1145,-413 1141.7356,-411.1402 1138.3296,-409.2595 1134.8896,-407.4019"/>
<polygon fill="#000000" stroke="#000000" points="1136.2521,-404.1628 1125.7778,-402.5691 1132.9721,-410.3468 1136.2521,-404.1628"/>
</g>
<!-- v_1_211&#45;&gt;v_1_196 -->
<g id="edge62" class="edge">
<title>v_1_211&#45;&gt;v_1_196</title>
<path fill="none" stroke="#000000" stroke-dasharray="5,2" d="M1268.3159,-548C1222.6149,-548 1169.6187,-548 1133.8565,-548"/>
<polygon fill="#000000" stroke="#000000" points="1133.7934,-544.5001 1123.7933,-548 1133.7933,-551.5001 1133.7934,-544.5001"/>
</g>
<!-- v_1_211&#45;&gt;v_1_197 -->
<g id="edge94" class="edge">
<title>v_1_211&#45;&gt;v_1_197</title>
<path fill="none" stroke="#000000" stroke-dasharray="5,2" d="M1270.5545,-529.9437C1228.1156,-521.3766 1178.9678,-511.4552 1143.0732,-504.2092"/>
<polygon fill="#000000" stroke="#000000" points="1143.345,-500.6935 1132.8501,-502.1454 1141.9598,-507.5551 1143.345,-500.6935"/>
</g>
<!-- v_1_211&#45;&gt;v_1_198 -->
<g id="edge58" class="edge">
<title>v_1_211&#45;&gt;v_1_198</title>
<path fill="none" stroke="#000000" stroke-dasharray="5,2" d="M1315.2265,-529.9232C1268.1386,-510.9121 1194.1232,-481.0292 1144.486,-460.9887"/>
<polygon fill="#000000" stroke="#000000" points="1145.7894,-457.7405 1135.2063,-457.2422 1143.1687,-464.2315 1145.7894,-457.7405"/>
</g>
</g>
</svg>
