<?xml version="1.0" encoding="UTF-8" standalone="no"?>
<!DOCTYPE svg PUBLIC "-//W3C//DTD SVG 1.1//EN"
 "http://www.w3.org/Graphics/SVG/1.1/DTD/svg11.dtd">
<!-- Generated by graphviz version 2.40.1 (20161225.0304)
 -->
<!-- Title: dependency Pages: 1 -->
<svg width="3348pt" height="1780pt"
 viewBox="0.00 0.00 3348.00 1780.00" xmlns="http://www.w3.org/2000/svg" xmlns:xlink="http://www.w3.org/1999/xlink">
<g id="graph0" class="graph" transform="scale(1 1) rotate(0) translate(4 1776)">
<title>dependency</title>
<polygon fill="#ffffff" stroke="transparent" points="-4,4 -4,-1776 3344,-1776 3344,4 -4,4"/>
<!-- v_1_12 -->
<g id="node1" class="node">
<title>v_1_12</title>
<polygon fill="#3a85b9" stroke="#000000" points="132,-198 0,-198 0,-162 132,-162 132,-198"/>
<text text-anchor="middle" x="66" y="-175" font-family="Times,serif" font-size="20.00" fill="#ffffff">8 find_module</text>
</g>
<!-- v_3_13 -->
<g id="node2" class="node">
<title>v_3_13</title>
<path fill="#85cbd0" stroke="#000000" d="M3149.5,-306C3149.5,-306 3075.5,-306 3075.5,-306 3069.5,-306 3063.5,-300 3063.5,-294 3063.5,-294 3063.5,-282 3063.5,-282 3063.5,-276 3069.5,-270 3075.5,-270 3075.5,-270 3149.5,-270 3149.5,-270 3155.5,-270 3161.5,-276 3161.5,-282 3161.5,-282 3161.5,-294 3161.5,-294 3161.5,-300 3155.5,-306 3149.5,-306"/>
<text text-anchor="middle" x="3112.5" y="-283" font-family="Times,serif" font-size="20.00" fill="#000000">187 return</text>
</g>
<!-- v_1_15 -->
<g id="node3" class="node">
<title>v_1_15</title>
<polygon fill="#3a85b9" stroke="#000000" points="300,-198 168,-198 168,-162 300,-162 300,-198"/>
<text text-anchor="middle" x="234" y="-175" font-family="Times,serif" font-size="20.00" fill="#ffffff">8 find_module</text>
</g>
<!-- v_1_15&#45;&gt;v_1_12 -->
<g id="edge29" class="edge">
<title>v_1_15&#45;&gt;v_1_12</title>
<path fill="none" stroke="#000000" d="M167.602,-180C159.3209,-180 150.801,-180 142.3839,-180"/>
<polygon fill="#000000" stroke="#000000" points="142.1908,-176.5001 132.1908,-180 142.1908,-183.5001 142.1908,-176.5001"/>
</g>
<!-- v_4_16 -->
<g id="node4" class="node">
<title>v_4_16</title>
<path fill="#85cbd0" stroke="#000000" d="M3149.5,-360C3149.5,-360 3075.5,-360 3075.5,-360 3069.5,-360 3063.5,-354 3063.5,-348 3063.5,-348 3063.5,-336 3063.5,-336 3063.5,-330 3069.5,-324 3075.5,-324 3075.5,-324 3149.5,-324 3149.5,-324 3155.5,-324 3161.5,-330 3161.5,-336 3161.5,-336 3161.5,-348 3161.5,-348 3161.5,-354 3155.5,-360 3149.5,-360"/>
<text text-anchor="middle" x="3112.5" y="-337" font-family="Times,serif" font-size="20.00" fill="#000000">187 return</text>
</g>
<!-- v_1_18 -->
<g id="node5" class="node">
<title>v_1_18</title>
<polygon fill="#3a85b9" stroke="#000000" points="468,-198 336,-198 336,-162 468,-162 468,-198"/>
<text text-anchor="middle" x="402" y="-175" font-family="Times,serif" font-size="20.00" fill="#ffffff">8 find_module</text>
</g>
<!-- v_1_18&#45;&gt;v_1_15 -->
<g id="edge65" class="edge">
<title>v_1_18&#45;&gt;v_1_15</title>
<path fill="none" stroke="#000000" d="M335.602,-180C327.3209,-180 318.801,-180 310.3839,-180"/>
<polygon fill="#000000" stroke="#000000" points="310.1908,-176.5001 300.1908,-180 310.1908,-183.5001 310.1908,-176.5001"/>
</g>
<!-- v_5_19 -->
<g id="node6" class="node">
<title>v_5_19</title>
<path fill="#85cbd0" stroke="#000000" d="M3149.5,-414C3149.5,-414 3075.5,-414 3075.5,-414 3069.5,-414 3063.5,-408 3063.5,-402 3063.5,-402 3063.5,-390 3063.5,-390 3063.5,-384 3069.5,-378 3075.5,-378 3075.5,-378 3149.5,-378 3149.5,-378 3155.5,-378 3161.5,-384 3161.5,-390 3161.5,-390 3161.5,-402 3161.5,-402 3161.5,-408 3155.5,-414 3149.5,-414"/>
<text text-anchor="middle" x="3112.5" y="-391" font-family="Times,serif" font-size="20.00" fill="#000000">199 return</text>
</g>
<!-- v_1_21 -->
<g id="node7" class="node">
<title>v_1_21</title>
<polygon fill="#3a85b9" stroke="#000000" points="967,-198 504,-198 504,-162 967,-162 967,-198"/>
<text text-anchor="middle" x="735.5" y="-175" font-family="Times,serif" font-size="20.00" fill="#ffffff">8 /usr/local/lib/python2.7/ ... ackages/numpy/__init__.py</text>
</g>
<!-- v_1_21&#45;&gt;v_1_18 -->
<g id="edge41" class="edge">
<title>v_1_21&#45;&gt;v_1_18</title>
<path fill="none" stroke="#000000" d="M503.8731,-180C494.9638,-180 486.3472,-180 478.1501,-180"/>
<polygon fill="#000000" stroke="#000000" points="478.001,-176.5001 468.0009,-180 478.0009,-183.5001 478.001,-176.5001"/>
</g>
<!-- v_1_31 -->
<g id="node8" class="node">
<title>v_1_31</title>
<polygon fill="#3a85b9" stroke="#000000" points="1901,-468 1759,-468 1759,-432 1901,-432 1901,-468"/>
<text text-anchor="middle" x="1830" y="-445" font-family="Times,serif" font-size="20.00" fill="#ffffff">12 find_module</text>
</g>
<!-- v_7_32 -->
<g id="node9" class="node">
<title>v_7_32</title>
<path fill="#85cbd0" stroke="#000000" d="M3149.5,-522C3149.5,-522 3075.5,-522 3075.5,-522 3069.5,-522 3063.5,-516 3063.5,-510 3063.5,-510 3063.5,-498 3063.5,-498 3063.5,-492 3069.5,-486 3075.5,-486 3075.5,-486 3149.5,-486 3149.5,-486 3155.5,-486 3161.5,-492 3161.5,-498 3161.5,-498 3161.5,-510 3161.5,-510 3161.5,-516 3155.5,-522 3149.5,-522"/>
<text text-anchor="middle" x="3112.5" y="-499" font-family="Times,serif" font-size="20.00" fill="#000000">187 return</text>
</g>
<!-- v_1_34 -->
<g id="node10" class="node">
<title>v_1_34</title>
<polygon fill="#3a85b9" stroke="#000000" points="2183,-468 2041,-468 2041,-432 2183,-432 2183,-468"/>
<text text-anchor="middle" x="2112" y="-445" font-family="Times,serif" font-size="20.00" fill="#ffffff">12 find_module</text>
</g>
<!-- v_1_34&#45;&gt;v_1_31 -->
<g id="edge20" class="edge">
<title>v_1_34&#45;&gt;v_1_31</title>
<path fill="none" stroke="#000000" d="M2040.8395,-450C2001.4302,-450 1952.2828,-450 1911.3551,-450"/>
<polygon fill="#000000" stroke="#000000" points="1911.1378,-446.5001 1901.1377,-450 1911.1377,-453.5001 1911.1378,-446.5001"/>
</g>
<!-- v_8_35 -->
<g id="node11" class="node">
<title>v_8_35</title>
<path fill="#85cbd0" stroke="#000000" d="M3149.5,-576C3149.5,-576 3075.5,-576 3075.5,-576 3069.5,-576 3063.5,-570 3063.5,-564 3063.5,-564 3063.5,-552 3063.5,-552 3063.5,-546 3069.5,-540 3075.5,-540 3075.5,-540 3149.5,-540 3149.5,-540 3155.5,-540 3161.5,-546 3161.5,-552 3161.5,-552 3161.5,-564 3161.5,-564 3161.5,-570 3155.5,-576 3149.5,-576"/>
<text text-anchor="middle" x="3112.5" y="-553" font-family="Times,serif" font-size="20.00" fill="#000000">187 return</text>
</g>
<!-- v_1_37 -->
<g id="node12" class="node">
<title>v_1_37</title>
<polygon fill="#3a85b9" stroke="#000000" points="2657,-468 2515,-468 2515,-432 2657,-432 2657,-468"/>
<text text-anchor="middle" x="2586" y="-445" font-family="Times,serif" font-size="20.00" fill="#ffffff">12 find_module</text>
</g>
<!-- v_1_37&#45;&gt;v_1_34 -->
<g id="edge52" class="edge">
<title>v_1_37&#45;&gt;v_1_34</title>
<path fill="none" stroke="#000000" d="M2514.781,-450C2428.6777,-450 2284.0863,-450 2193.5811,-450"/>
<polygon fill="#000000" stroke="#000000" points="2193.3645,-446.5001 2183.3644,-450 2193.3644,-453.5001 2193.3645,-446.5001"/>
</g>
<!-- v_9_38 -->
<g id="node13" class="node">
<title>v_9_38</title>
<path fill="#85cbd0" stroke="#000000" d="M3140,-630C3140,-630 3085,-630 3085,-630 3079,-630 3073,-624 3073,-618 3073,-618 3073,-606 3073,-606 3073,-600 3079,-594 3085,-594 3085,-594 3140,-594 3140,-594 3146,-594 3152,-600 3152,-606 3152,-606 3152,-618 3152,-618 3152,-624 3146,-630 3140,-630"/>
<text text-anchor="middle" x="3112.5" y="-607" font-family="Times,serif" font-size="20.00" fill="#000000">6 return</text>
</g>
<!-- v_1_40 -->
<g id="node14" class="node">
<title>v_1_40</title>
<polygon fill="#3a85b9" stroke="#000000" points="3339,-468 2886,-468 2886,-432 3339,-432 3339,-468"/>
<text text-anchor="middle" x="3112.5" y="-445" font-family="Times,serif" font-size="20.00" fill="#ffffff">12 /usr/local/lib/python2.7/ ... lkits/mplot3d/__init__.py</text>
</g>
<!-- v_1_40&#45;&gt;v_1_37 -->
<g id="edge42" class="edge">
<title>v_1_40&#45;&gt;v_1_37</title>
<path fill="none" stroke="#000000" d="M2885.7788,-450C2808.0086,-450 2725.9011,-450 2667.3191,-450"/>
<polygon fill="#000000" stroke="#000000" points="2667.0275,-446.5001 2657.0275,-450 2667.0275,-453.5001 2667.0275,-446.5001"/>
</g>
<!-- v_1_44 -->
<g id="node15" class="node">
<title>v_1_44</title>
<polygon fill="#3a85b9" stroke="#000000" points="1641.5,-684 1499.5,-684 1499.5,-648 1641.5,-648 1641.5,-684"/>
<text text-anchor="middle" x="1570.5" y="-661" font-family="Times,serif" font-size="20.00" fill="#ffffff">13 find_module</text>
</g>
<!-- v_11_45 -->
<g id="node16" class="node">
<title>v_11_45</title>
<path fill="#85cbd0" stroke="#000000" d="M3149.5,-738C3149.5,-738 3075.5,-738 3075.5,-738 3069.5,-738 3063.5,-732 3063.5,-726 3063.5,-726 3063.5,-714 3063.5,-714 3063.5,-708 3069.5,-702 3075.5,-702 3075.5,-702 3149.5,-702 3149.5,-702 3155.5,-702 3161.5,-708 3161.5,-714 3161.5,-714 3161.5,-726 3161.5,-726 3161.5,-732 3155.5,-738 3149.5,-738"/>
<text text-anchor="middle" x="3112.5" y="-715" font-family="Times,serif" font-size="20.00" fill="#000000">187 return</text>
</g>
<!-- v_1_47 -->
<g id="node17" class="node">
<title>v_1_47</title>
<polygon fill="#3a85b9" stroke="#000000" points="1901,-684 1759,-684 1759,-648 1901,-648 1901,-684"/>
<text text-anchor="middle" x="1830" y="-661" font-family="Times,serif" font-size="20.00" fill="#ffffff">13 find_module</text>
</g>
<!-- v_1_47&#45;&gt;v_1_44 -->
<g id="edge47" class="edge">
<title>v_1_47&#45;&gt;v_1_44</title>
<path fill="none" stroke="#000000" d="M1758.7472,-666C1725.7048,-666 1686.261,-666 1652.0352,-666"/>
<polygon fill="#000000" stroke="#000000" points="1651.5938,-662.5001 1641.5938,-666 1651.5938,-669.5001 1651.5938,-662.5001"/>
</g>
<!-- v_12_48 -->
<g id="node18" class="node">
<title>v_12_48</title>
<path fill="#85cbd0" stroke="#000000" d="M3149.5,-792C3149.5,-792 3075.5,-792 3075.5,-792 3069.5,-792 3063.5,-786 3063.5,-780 3063.5,-780 3063.5,-768 3063.5,-768 3063.5,-762 3069.5,-756 3075.5,-756 3075.5,-756 3149.5,-756 3149.5,-756 3155.5,-756 3161.5,-762 3161.5,-768 3161.5,-768 3161.5,-780 3161.5,-780 3161.5,-786 3155.5,-792 3149.5,-792"/>
<text text-anchor="middle" x="3112.5" y="-769" font-family="Times,serif" font-size="20.00" fill="#000000">187 return</text>
</g>
<!-- v_1_50 -->
<g id="node19" class="node">
<title>v_1_50</title>
<polygon fill="#3a85b9" stroke="#000000" points="2183,-684 2041,-684 2041,-648 2183,-648 2183,-684"/>
<text text-anchor="middle" x="2112" y="-661" font-family="Times,serif" font-size="20.00" fill="#ffffff">13 find_module</text>
</g>
<!-- v_1_50&#45;&gt;v_1_47 -->
<g id="edge31" class="edge">
<title>v_1_50&#45;&gt;v_1_47</title>
<path fill="none" stroke="#000000" d="M2040.8395,-666C2001.4302,-666 1952.2828,-666 1911.3551,-666"/>
<polygon fill="#000000" stroke="#000000" points="1911.1378,-662.5001 1901.1377,-666 1911.1377,-669.5001 1911.1378,-662.5001"/>
</g>
<!-- v_13_51 -->
<g id="node20" class="node">
<title>v_13_51</title>
<path fill="#85cbd0" stroke="#000000" d="M3149.5,-846C3149.5,-846 3075.5,-846 3075.5,-846 3069.5,-846 3063.5,-840 3063.5,-834 3063.5,-834 3063.5,-822 3063.5,-822 3063.5,-816 3069.5,-810 3075.5,-810 3075.5,-810 3149.5,-810 3149.5,-810 3155.5,-810 3161.5,-816 3161.5,-822 3161.5,-822 3161.5,-834 3161.5,-834 3161.5,-840 3155.5,-846 3149.5,-846"/>
<text text-anchor="middle" x="3112.5" y="-823" font-family="Times,serif" font-size="20.00" fill="#000000">183 return</text>
</g>
<!-- v_1_53 -->
<g id="node21" class="node">
<title>v_1_53</title>
<polygon fill="#3a85b9" stroke="#000000" points="2657,-684 2515,-684 2515,-648 2657,-648 2657,-684"/>
<text text-anchor="middle" x="2586" y="-661" font-family="Times,serif" font-size="20.00" fill="#ffffff">13 find_module</text>
</g>
<!-- v_1_53&#45;&gt;v_1_50 -->
<g id="edge2" class="edge">
<title>v_1_53&#45;&gt;v_1_50</title>
<path fill="none" stroke="#000000" d="M2514.781,-666C2428.6777,-666 2284.0863,-666 2193.5811,-666"/>
<polygon fill="#000000" stroke="#000000" points="2193.3645,-662.5001 2183.3644,-666 2193.3644,-669.5001 2193.3645,-662.5001"/>
</g>
<!-- v_14_54 -->
<g id="node22" class="node">
<title>v_14_54</title>
<path fill="#85cbd0" stroke="#000000" d="M3154.5,-900C3154.5,-900 3070.5,-900 3070.5,-900 3064.5,-900 3058.5,-894 3058.5,-888 3058.5,-888 3058.5,-876 3058.5,-876 3058.5,-870 3064.5,-864 3070.5,-864 3070.5,-864 3154.5,-864 3154.5,-864 3160.5,-864 3166.5,-870 3166.5,-876 3166.5,-876 3166.5,-888 3166.5,-888 3166.5,-894 3160.5,-900 3154.5,-900"/>
<text text-anchor="middle" x="3112.5" y="-877" font-family="Times,serif" font-size="20.00" fill="#000000">3884 return</text>
</g>
<!-- v_1_56 -->
<g id="node23" class="node">
<title>v_1_56</title>
<polygon fill="#3a85b9" stroke="#000000" points="3340,-684 2885,-684 2885,-648 3340,-648 3340,-684"/>
<text text-anchor="middle" x="3112.5" y="-661" font-family="Times,serif" font-size="20.00" fill="#ffffff">13 /usr/local/lib/python2.7/ ... ages/matplotlib/pyplot.py</text>
</g>
<!-- v_1_56&#45;&gt;v_1_53 -->
<g id="edge67" class="edge">
<title>v_1_56&#45;&gt;v_1_53</title>
<path fill="none" stroke="#000000" d="M2884.6316,-666C2807.2902,-666 2725.7991,-666 2667.5186,-666"/>
<polygon fill="#000000" stroke="#000000" points="2667.2778,-662.5001 2657.2778,-666 2667.2777,-669.5001 2667.2778,-662.5001"/>
</g>
<!-- v_1_79 -->
<g id="node24" class="node">
<title>v_1_79</title>
<polygon fill="#3a85b9" stroke="#000000" points="3156.5,-954 3068.5,-954 3068.5,-918 3156.5,-918 3156.5,-954"/>
<text text-anchor="middle" x="3112.5" y="-931" font-family="Times,serif" font-size="20.00" fill="#ffffff">267 print</text>
</g>
<!-- v_1_76 -->
<g id="node25" class="node">
<title>v_1_76</title>
<path fill="#85cbd0" stroke="#000000" d="M2659,-954C2659,-954 2513,-954 2513,-954 2507,-954 2501,-948 2501,-942 2501,-942 2501,-930 2501,-930 2501,-924 2507,-918 2513,-918 2513,-918 2659,-918 2659,-918 2665,-918 2671,-924 2671,-930 2671,-930 2671,-942 2671,-942 2671,-948 2665,-954 2659,-954"/>
<text text-anchor="middle" x="2586" y="-931" font-family="Times,serif" font-size="20.00" fill="#000000">266 input_data_file</text>
</g>
<!-- v_1_79&#45;&gt;v_1_76 -->
<g id="edge39" class="edge">
<title>v_1_79&#45;&gt;v_1_76</title>
<path fill="none" stroke="#000000" stroke-dasharray="5,2" d="M3068.0647,-936C2983.1148,-936 2795.9537,-936 2681.4411,-936"/>
<polygon fill="#000000" stroke="#000000" points="2681.2761,-932.5001 2671.2761,-936 2681.276,-939.5001 2681.2761,-932.5001"/>
</g>
<!-- a_28 -->
<g id="node26" class="node">
<title>a_28</title>
<path fill="#ffffff" stroke="#000000" d="M825,-1326C825,-1326 646,-1326 646,-1326 640,-1326 634,-1320 634,-1314 634,-1314 634,-1302 634,-1302 634,-1296 640,-1290 646,-1290 646,-1290 825,-1290 825,-1290 831,-1290 837,-1296 837,-1302 837,-1302 837,-1314 837,-1314 837,-1320 831,-1326 825,-1326"/>
<text text-anchor="middle" x="735.5" y="-1303" font-family="Times,serif" font-size="20.00" fill="#000000">input_data_file_002.dat</text>
</g>
<!-- v_1_255 -->
<g id="node27" class="node">
<title>v_1_255</title>
<polygon fill="#3a85b9" stroke="#000000" points="1223,-1326 1028,-1326 1028,-1290 1223,-1290 1223,-1326"/>
<text text-anchor="middle" x="1125.5" y="-1303" font-family="Times,serif" font-size="20.00" fill="#ffffff">269 read_param_input</text>
</g>
<!-- v_1_255&#45;&gt;a_28 -->
<g id="edge44" class="edge">
<title>v_1_255&#45;&gt;a_28</title>
<path fill="none" stroke="#000000" stroke-dasharray="5,2" d="M1027.8413,-1308C973.0334,-1308 904.4269,-1308 847.4523,-1308"/>
<polygon fill="#000000" stroke="#000000" points="847.3211,-1304.5001 837.3211,-1308 847.321,-1311.5001 847.3211,-1304.5001"/>
</g>
<!-- v_1_256 -->
<g id="node28" class="node">
<title>v_1_256</title>
<path fill="#85cbd0" stroke="#000000" d="M1867,-1062C1867,-1062 1793,-1062 1793,-1062 1787,-1062 1781,-1056 1781,-1050 1781,-1050 1781,-1038 1781,-1038 1781,-1032 1787,-1026 1793,-1026 1793,-1026 1867,-1026 1867,-1026 1873,-1026 1879,-1032 1879,-1038 1879,-1038 1879,-1050 1879,-1050 1879,-1056 1873,-1062 1867,-1062"/>
<text text-anchor="middle" x="1830" y="-1039" font-family="Times,serif" font-size="20.00" fill="#000000">269 delstd</text>
</g>
<!-- v_1_256&#45;&gt;v_1_255 -->
<g id="edge99" class="edge">
<title>v_1_256&#45;&gt;v_1_255</title>
<path fill="none" stroke="#000000" d="M1780.9701,-1046.5135C1680.5395,-1053.658 1447.1666,-1080.6584 1284,-1181 1234.3701,-1211.5206 1182.7758,-1255.5507 1152.4288,-1282.9361"/>
<polygon fill="#000000" stroke="#000000" points="1149.8617,-1280.5398 1144.8188,-1289.8575 1154.5716,-1285.7183 1149.8617,-1280.5398"/>
</g>
<!-- v_1_257 -->
<g id="node29" class="node">
<title>v_1_257</title>
<path fill="#85cbd0" stroke="#000000" d="M1858.5,-1664C1858.5,-1664 1801.5,-1664 1801.5,-1664 1795.5,-1664 1789.5,-1658 1789.5,-1652 1789.5,-1652 1789.5,-1640 1789.5,-1640 1789.5,-1634 1795.5,-1628 1801.5,-1628 1801.5,-1628 1858.5,-1628 1858.5,-1628 1864.5,-1628 1870.5,-1634 1870.5,-1640 1870.5,-1640 1870.5,-1652 1870.5,-1652 1870.5,-1658 1864.5,-1664 1858.5,-1664"/>
<text text-anchor="middle" x="1830" y="-1641" font-family="Times,serif" font-size="20.00" fill="#000000">269 ipol</text>
</g>
<!-- v_1_257&#45;&gt;v_1_255 -->
<g id="edge89" class="edge">
<title>v_1_257&#45;&gt;v_1_255</title>
<path fill="none" stroke="#000000" d="M1789.4559,-1654.0275C1714.349,-1667.2439 1549.2737,-1688.5015 1418,-1650 1262.6213,-1604.4287 1167.1156,-1408.492 1136.377,-1335.5231"/>
<polygon fill="#000000" stroke="#000000" points="1139.5247,-1333.9759 1132.47,-1326.0715 1133.0556,-1336.6501 1139.5247,-1333.9759"/>
</g>
<!-- v_1_258 -->
<g id="node30" class="node">
<title>v_1_258</title>
<path fill="#85cbd0" stroke="#000000" d="M1366,-1407C1366,-1407 1300,-1407 1300,-1407 1294,-1407 1288,-1401 1288,-1395 1288,-1395 1288,-1383 1288,-1383 1288,-1377 1294,-1371 1300,-1371 1300,-1371 1366,-1371 1366,-1371 1372,-1371 1378,-1377 1378,-1383 1378,-1383 1378,-1395 1378,-1395 1378,-1401 1372,-1407 1366,-1407"/>
<text text-anchor="middle" x="1333" y="-1384" font-family="Times,serif" font-size="20.00" fill="#000000">269 tstart</text>
</g>
<!-- v_1_258&#45;&gt;v_1_255 -->
<g id="edge7" class="edge">
<title>v_1_258&#45;&gt;v_1_255</title>
<path fill="none" stroke="#000000" d="M1287.9756,-1371.4242C1256.7318,-1359.2278 1214.8935,-1342.8958 1181.4979,-1329.8594"/>
<polygon fill="#000000" stroke="#000000" points="1182.4615,-1326.4784 1171.8733,-1326.1024 1179.916,-1332.9992 1182.4615,-1326.4784"/>
</g>
<!-- v_1_259 -->
<g id="node31" class="node">
<title>v_1_259</title>
<path fill="#85cbd0" stroke="#000000" d="M1368.5,-1555C1368.5,-1555 1297.5,-1555 1297.5,-1555 1291.5,-1555 1285.5,-1549 1285.5,-1543 1285.5,-1543 1285.5,-1531 1285.5,-1531 1285.5,-1525 1291.5,-1519 1297.5,-1519 1297.5,-1519 1368.5,-1519 1368.5,-1519 1374.5,-1519 1380.5,-1525 1380.5,-1531 1380.5,-1531 1380.5,-1543 1380.5,-1543 1380.5,-1549 1374.5,-1555 1368.5,-1555"/>
<text text-anchor="middle" x="1333" y="-1532" font-family="Times,serif" font-size="20.00" fill="#000000">269 pstart</text>
</g>
<!-- v_1_259&#45;&gt;v_1_255 -->
<g id="edge62" class="edge">
<title>v_1_259&#45;&gt;v_1_255</title>
<path fill="none" stroke="#000000" d="M1316.3702,-1518.6471C1279.5514,-1478.0133 1191.0724,-1380.3666 1148.7786,-1333.6906"/>
<polygon fill="#000000" stroke="#000000" points="1151.2293,-1331.1827 1141.921,-1326.1225 1146.042,-1335.883 1151.2293,-1331.1827"/>
</g>
<!-- v_1_260 -->
<g id="node32" class="node">
<title>v_1_260</title>
<path fill="#85cbd0" stroke="#000000" d="M1363.5,-1461C1363.5,-1461 1302.5,-1461 1302.5,-1461 1296.5,-1461 1290.5,-1455 1290.5,-1449 1290.5,-1449 1290.5,-1437 1290.5,-1437 1290.5,-1431 1296.5,-1425 1302.5,-1425 1302.5,-1425 1363.5,-1425 1363.5,-1425 1369.5,-1425 1375.5,-1431 1375.5,-1437 1375.5,-1437 1375.5,-1449 1375.5,-1449 1375.5,-1455 1369.5,-1461 1363.5,-1461"/>
<text text-anchor="middle" x="1333" y="-1438" font-family="Times,serif" font-size="20.00" fill="#000000">269 delp</text>
</g>
<!-- v_1_260&#45;&gt;v_1_255 -->
<g id="edge15" class="edge">
<title>v_1_260&#45;&gt;v_1_255</title>
<path fill="none" stroke="#000000" d="M1299.2829,-1424.9702C1294.1177,-1422.0507 1288.8829,-1418.9996 1284,-1416 1239.7825,-1388.8367 1190.6603,-1354.7202 1158.9927,-1332.1834"/>
<polygon fill="#000000" stroke="#000000" points="1160.7145,-1329.1121 1150.5423,-1326.1494 1156.6467,-1334.8089 1160.7145,-1329.1121"/>
</g>
<!-- v_1_261 -->
<g id="node33" class="node">
<title>v_1_261</title>
<path fill="#85cbd0" stroke="#000000" d="M1361,-1353C1361,-1353 1305,-1353 1305,-1353 1299,-1353 1293,-1347 1293,-1341 1293,-1341 1293,-1329 1293,-1329 1293,-1323 1299,-1317 1305,-1317 1305,-1317 1361,-1317 1361,-1317 1367,-1317 1373,-1323 1373,-1329 1373,-1329 1373,-1341 1373,-1341 1373,-1347 1367,-1353 1361,-1353"/>
<text text-anchor="middle" x="1333" y="-1330" font-family="Times,serif" font-size="20.00" fill="#000000">269 delt</text>
</g>
<!-- v_1_261&#45;&gt;v_1_255 -->
<g id="edge76" class="edge">
<title>v_1_261&#45;&gt;v_1_255</title>
<path fill="none" stroke="#000000" d="M1292.9919,-1329.7941C1275.7086,-1327.5452 1254.5721,-1324.7949 1233.2114,-1322.0155"/>
<polygon fill="#000000" stroke="#000000" points="1233.4282,-1318.5142 1223.0602,-1320.6946 1232.5249,-1325.4557 1233.4282,-1318.5142"/>
</g>
<!-- v_1_262 -->
<g id="node34" class="node">
<title>v_1_262</title>
<path fill="#85cbd0" stroke="#000000" d="M1859.5,-1008C1859.5,-1008 1800.5,-1008 1800.5,-1008 1794.5,-1008 1788.5,-1002 1788.5,-996 1788.5,-996 1788.5,-984 1788.5,-984 1788.5,-978 1794.5,-972 1800.5,-972 1800.5,-972 1859.5,-972 1859.5,-972 1865.5,-972 1871.5,-978 1871.5,-984 1871.5,-984 1871.5,-996 1871.5,-996 1871.5,-1002 1865.5,-1008 1859.5,-1008"/>
<text text-anchor="middle" x="1830" y="-985" font-family="Times,serif" font-size="20.00" fill="#000000">269 corr</text>
</g>
<!-- v_1_262&#45;&gt;v_1_255 -->
<g id="edge95" class="edge">
<title>v_1_262&#45;&gt;v_1_255</title>
<path fill="none" stroke="#000000" d="M1788.1982,-976.335C1778.3803,-972.5216 1768.1256,-968.0262 1759,-963 1741.4815,-953.351 1741.9737,-942.3246 1723,-936 1594.4007,-893.1336 1549.3612,-902.5403 1418,-936 1352.2788,-952.7402 1331.6819,-960.772 1284,-1009 1202.9215,-1091.007 1152.9954,-1223.0345 1134.1148,-1280.1679"/>
<polygon fill="#000000" stroke="#000000" points="1130.7028,-1279.3435 1130.9501,-1289.9355 1137.362,-1281.5011 1130.7028,-1279.3435"/>
</g>
<!-- v_1_263 -->
<g id="node35" class="node">
<title>v_1_263</title>
<path fill="#85cbd0" stroke="#000000" d="M1365.5,-1299C1365.5,-1299 1300.5,-1299 1300.5,-1299 1294.5,-1299 1288.5,-1293 1288.5,-1287 1288.5,-1287 1288.5,-1275 1288.5,-1275 1288.5,-1269 1294.5,-1263 1300.5,-1263 1300.5,-1263 1365.5,-1263 1365.5,-1263 1371.5,-1263 1377.5,-1269 1377.5,-1275 1377.5,-1275 1377.5,-1287 1377.5,-1287 1377.5,-1293 1371.5,-1299 1365.5,-1299"/>
<text text-anchor="middle" x="1333" y="-1276" font-family="Times,serif" font-size="20.00" fill="#000000">269 tstop</text>
</g>
<!-- v_1_263&#45;&gt;v_1_255 -->
<g id="edge92" class="edge">
<title>v_1_263&#45;&gt;v_1_255</title>
<path fill="none" stroke="#000000" d="M1288.486,-1286.7922C1272.1596,-1288.9166 1252.8901,-1291.4239 1233.4243,-1293.9568"/>
<polygon fill="#000000" stroke="#000000" points="1232.7063,-1290.5207 1223.2416,-1295.2818 1233.6096,-1297.4621 1232.7063,-1290.5207"/>
</g>
<!-- v_1_264 -->
<g id="node36" class="node">
<title>v_1_264</title>
<path fill="#85cbd0" stroke="#000000" d="M1362.5,-1054C1362.5,-1054 1303.5,-1054 1303.5,-1054 1297.5,-1054 1291.5,-1048 1291.5,-1042 1291.5,-1042 1291.5,-1030 1291.5,-1030 1291.5,-1024 1297.5,-1018 1303.5,-1018 1303.5,-1018 1362.5,-1018 1362.5,-1018 1368.5,-1018 1374.5,-1024 1374.5,-1030 1374.5,-1030 1374.5,-1042 1374.5,-1042 1374.5,-1048 1368.5,-1054 1362.5,-1054"/>
<text text-anchor="middle" x="1333" y="-1031" font-family="Times,serif" font-size="20.00" fill="#000000">269 freq</text>
</g>
<!-- v_1_264&#45;&gt;v_1_255 -->
<g id="edge36" class="edge">
<title>v_1_264&#45;&gt;v_1_255</title>
<path fill="none" stroke="#000000" d="M1314.1835,-1054.2962C1304.7774,-1063.7577 1293.4219,-1075.6718 1284,-1087 1228.3302,-1153.9331 1170.629,-1239.0956 1142.702,-1281.5054"/>
<polygon fill="#000000" stroke="#000000" points="1139.7642,-1279.603 1137.2061,-1289.8844 1145.6174,-1283.4422 1139.7642,-1279.603"/>
</g>
<!-- v_1_265 -->
<g id="node37" class="node">
<title>v_1_265</title>
<path fill="#85cbd0" stroke="#000000" d="M1367.5,-1226C1367.5,-1226 1298.5,-1226 1298.5,-1226 1292.5,-1226 1286.5,-1220 1286.5,-1214 1286.5,-1214 1286.5,-1202 1286.5,-1202 1286.5,-1196 1292.5,-1190 1298.5,-1190 1298.5,-1190 1367.5,-1190 1367.5,-1190 1373.5,-1190 1379.5,-1196 1379.5,-1202 1379.5,-1202 1379.5,-1214 1379.5,-1214 1379.5,-1220 1373.5,-1226 1367.5,-1226"/>
<text text-anchor="middle" x="1333" y="-1203" font-family="Times,serif" font-size="20.00" fill="#000000">269 pstop</text>
</g>
<!-- v_1_265&#45;&gt;v_1_255 -->
<g id="edge91" class="edge">
<title>v_1_265&#45;&gt;v_1_255</title>
<path fill="none" stroke="#000000" d="M1295.4233,-1226.1092C1260.863,-1242.7648 1209.4893,-1267.5233 1172.2824,-1285.4543"/>
<polygon fill="#000000" stroke="#000000" points="1170.6361,-1282.3624 1163.1472,-1289.8568 1173.6751,-1288.6683 1170.6361,-1282.3624"/>
</g>
<!-- v_1_268 -->
<g id="node38" class="node">
<title>v_1_268</title>
<polygon fill="#3a85b9" stroke="#000000" points="1614.5,-1035 1526.5,-1035 1526.5,-999 1614.5,-999 1614.5,-1035"/>
<text text-anchor="middle" x="1570.5" y="-1012" font-family="Times,serif" font-size="20.00" fill="#ffffff">273 print</text>
</g>
<!-- v_1_268&#45;&gt;v_1_264 -->
<g id="edge45" class="edge">
<title>v_1_268&#45;&gt;v_1_264</title>
<path fill="none" stroke="#000000" stroke-dasharray="5,2" d="M1526.3847,-1020.5292C1486.3557,-1023.7315 1427.2994,-1028.456 1384.9907,-1031.8407"/>
<polygon fill="#000000" stroke="#000000" points="1384.5759,-1028.3627 1374.8869,-1032.649 1385.1342,-1035.3404 1384.5759,-1028.3627"/>
</g>
<!-- v_1_274 -->
<g id="node39" class="node">
<title>v_1_274</title>
<polygon fill="#3a85b9" stroke="#000000" points="1681.5,-981 1459.5,-981 1459.5,-945 1681.5,-945 1681.5,-981"/>
<text text-anchor="middle" x="1570.5" y="-958" font-family="Times,serif" font-size="20.00" fill="#ffffff">276 calculate_wavelength</text>
</g>
<!-- v_1_274&#45;&gt;v_1_264 -->
<g id="edge8" class="edge">
<title>v_1_274&#45;&gt;v_1_264</title>
<path fill="none" stroke="#000000" stroke-dasharray="5,2" d="M1459.4691,-978.3377C1445.3317,-981.5466 1431.2013,-985.3949 1418,-990 1401.4688,-995.7667 1384.2924,-1004.4745 1369.7431,-1012.7679"/>
<polygon fill="#000000" stroke="#000000" points="1367.9195,-1009.7797 1361.0528,-1017.8481 1371.4523,-1015.8229 1367.9195,-1009.7797"/>
</g>
<!-- v_1_275 -->
<g id="node40" class="node">
<title>v_1_275</title>
<path fill="#85cbd0" stroke="#000000" d="M1870.5,-954C1870.5,-954 1789.5,-954 1789.5,-954 1783.5,-954 1777.5,-948 1777.5,-942 1777.5,-942 1777.5,-930 1777.5,-930 1777.5,-924 1783.5,-918 1789.5,-918 1789.5,-918 1870.5,-918 1870.5,-918 1876.5,-918 1882.5,-924 1882.5,-930 1882.5,-930 1882.5,-942 1882.5,-942 1882.5,-948 1876.5,-954 1870.5,-954"/>
<text text-anchor="middle" x="1830" y="-931" font-family="Times,serif" font-size="20.00" fill="#000000">276 waveL</text>
</g>
<!-- v_1_275&#45;&gt;v_1_274 -->
<g id="edge60" class="edge">
<title>v_1_275&#45;&gt;v_1_274</title>
<path fill="none" stroke="#000000" d="M1777.4863,-941.4639C1752.6711,-944.0458 1721.9296,-947.2443 1691.7985,-950.3793"/>
<polygon fill="#000000" stroke="#000000" points="1691.197,-946.9229 1681.613,-951.4391 1691.9215,-953.8854 1691.197,-946.9229"/>
</g>
<!-- v_1_278 -->
<g id="node41" class="node">
<title>v_1_278</title>
<polygon fill="#3a85b9" stroke="#000000" points="2156,-900 2068,-900 2068,-864 2156,-864 2156,-900"/>
<text text-anchor="middle" x="2112" y="-877" font-family="Times,serif" font-size="20.00" fill="#ffffff">277 print</text>
</g>
<!-- v_1_278&#45;&gt;v_1_275 -->
<g id="edge24" class="edge">
<title>v_1_278&#45;&gt;v_1_275</title>
<path fill="none" stroke="#000000" stroke-dasharray="5,2" d="M2067.9262,-887.6304C2032.4162,-892.4474 1981.288,-900.0165 1937,-909 1922.507,-911.9398 1907.0263,-915.5614 1892.471,-919.1864"/>
<polygon fill="#000000" stroke="#000000" points="1891.4041,-915.8459 1882.5657,-921.6882 1893.1183,-922.6328 1891.4041,-915.8459"/>
</g>
<!-- v_1_281 -->
<g id="node42" class="node">
<title>v_1_281</title>
<polygon fill="#3a85b9" stroke="#000000" points="2156,-1008 2068,-1008 2068,-972 2156,-972 2156,-1008"/>
<text text-anchor="middle" x="2112" y="-985" font-family="Times,serif" font-size="20.00" fill="#ffffff">280 print</text>
</g>
<!-- v_1_281&#45;&gt;v_1_262 -->
<g id="edge19" class="edge">
<title>v_1_281&#45;&gt;v_1_262</title>
<path fill="none" stroke="#000000" stroke-dasharray="5,2" d="M2067.9375,-990C2017.6895,-990 1935.6071,-990 1882.1958,-990"/>
<polygon fill="#000000" stroke="#000000" points="1881.9138,-986.5001 1871.9137,-990 1881.9137,-993.5001 1881.9138,-986.5001"/>
</g>
<!-- v_1_285 -->
<g id="node43" class="node">
<title>v_1_285</title>
<polygon fill="#3a85b9" stroke="#000000" points="2156,-1116 2068,-1116 2068,-1080 2156,-1080 2156,-1116"/>
<text text-anchor="middle" x="2112" y="-1093" font-family="Times,serif" font-size="20.00" fill="#ffffff">283 print</text>
</g>
<!-- v_1_285&#45;&gt;v_1_256 -->
<g id="edge86" class="edge">
<title>v_1_285&#45;&gt;v_1_256</title>
<path fill="none" stroke="#000000" stroke-dasharray="5,2" d="M2067.9262,-1092.3696C2032.4162,-1087.5526 1981.288,-1079.9835 1937,-1071 1921.3665,-1067.8289 1904.5837,-1063.8644 1889.0529,-1059.9581"/>
<polygon fill="#000000" stroke="#000000" points="1889.6071,-1056.4875 1879.0524,-1057.4084 1887.8777,-1063.2705 1889.6071,-1056.4875"/>
</g>
<!-- v_1_291 -->
<g id="node44" class="node">
<title>v_1_291</title>
<polygon fill="#3a85b9" stroke="#000000" points="2626,-1008 2546,-1008 2546,-972 2626,-972 2626,-1008"/>
<text text-anchor="middle" x="2586" y="-985" font-family="Times,serif" font-size="20.00" fill="#ffffff">286 exp</text>
</g>
<!-- v_1_287 -->
<g id="node45" class="node">
<title>v_1_287</title>
<path fill="#85cbd0" stroke="#000000" d="M2135.5,-954C2135.5,-954 2088.5,-954 2088.5,-954 2082.5,-954 2076.5,-948 2076.5,-942 2076.5,-942 2076.5,-930 2076.5,-930 2076.5,-924 2082.5,-918 2088.5,-918 2088.5,-918 2135.5,-918 2135.5,-918 2141.5,-918 2147.5,-924 2147.5,-930 2147.5,-930 2147.5,-942 2147.5,-942 2147.5,-948 2141.5,-954 2135.5,-954"/>
<text text-anchor="middle" x="2112" y="-931" font-family="Times,serif" font-size="20.00" fill="#000000">285 bk</text>
</g>
<!-- v_1_291&#45;&gt;v_1_287 -->
<g id="edge71" class="edge">
<title>v_1_291&#45;&gt;v_1_287</title>
<path fill="none" stroke="#000000" stroke-dasharray="5,2" d="M2545.8651,-986.1939C2494.2582,-981.2278 2401.8839,-972.0948 2323,-963 2266.0597,-956.4351 2200.607,-947.9064 2157.8921,-942.2079"/>
<polygon fill="#000000" stroke="#000000" points="2158.1833,-938.7158 2147.8075,-940.8588 2157.2551,-945.654 2158.1833,-938.7158"/>
</g>
<!-- v_1_286 -->
<g id="node46" class="node">
<title>v_1_286</title>
<path fill="#85cbd0" stroke="#000000" d="M2146,-1062C2146,-1062 2078,-1062 2078,-1062 2072,-1062 2066,-1056 2066,-1050 2066,-1050 2066,-1038 2066,-1038 2066,-1032 2072,-1026 2078,-1026 2078,-1026 2146,-1026 2146,-1026 2152,-1026 2158,-1032 2158,-1038 2158,-1038 2158,-1050 2158,-1050 2158,-1056 2152,-1062 2146,-1062"/>
<text text-anchor="middle" x="2112" y="-1039" font-family="Times,serif" font-size="20.00" fill="#000000">284 delsq</text>
</g>
<!-- v_1_291&#45;&gt;v_1_286 -->
<g id="edge38" class="edge">
<title>v_1_291&#45;&gt;v_1_286</title>
<path fill="none" stroke="#000000" stroke-dasharray="5,2" d="M2545.9955,-994.5575C2461.6872,-1004.1622 2265.5552,-1026.5064 2168.4879,-1037.5647"/>
<polygon fill="#000000" stroke="#000000" points="2167.8217,-1034.1178 2158.2821,-1038.7274 2168.6141,-1041.0729 2167.8217,-1034.1178"/>
</g>
<!-- v_1_287&#45;&gt;v_1_275 -->
<g id="edge21" class="edge">
<title>v_1_287&#45;&gt;v_1_275</title>
<path fill="none" stroke="#000000" d="M2076.2845,-936C2030.2418,-936 1949.4001,-936 1892.9404,-936"/>
<polygon fill="#000000" stroke="#000000" points="1892.6958,-932.5001 1882.6957,-936 1892.6957,-939.5001 1892.6958,-932.5001"/>
</g>
<!-- v_1_286&#45;&gt;v_1_256 -->
<g id="edge77" class="edge">
<title>v_1_286&#45;&gt;v_1_256</title>
<path fill="none" stroke="#000000" d="M2065.7492,-1044C2017.5543,-1044 1941.8714,-1044 1889.3092,-1044"/>
<polygon fill="#000000" stroke="#000000" points="1889.1201,-1040.5001 1879.12,-1044 1889.12,-1047.5001 1889.1201,-1040.5001"/>
</g>
<!-- v_1_292 -->
<g id="node47" class="node">
<title>v_1_292</title>
<path fill="#85cbd0" stroke="#000000" d="M3150.5,-1008C3150.5,-1008 3074.5,-1008 3074.5,-1008 3068.5,-1008 3062.5,-1002 3062.5,-996 3062.5,-996 3062.5,-984 3062.5,-984 3062.5,-978 3068.5,-972 3074.5,-972 3074.5,-972 3150.5,-972 3150.5,-972 3156.5,-972 3162.5,-978 3162.5,-984 3162.5,-984 3162.5,-996 3162.5,-996 3162.5,-1002 3156.5,-1008 3150.5,-1008"/>
<text text-anchor="middle" x="3112.5" y="-985" font-family="Times,serif" font-size="20.00" fill="#000000">286 cfact1</text>
</g>
<!-- v_1_292&#45;&gt;v_1_291 -->
<g id="edge88" class="edge">
<title>v_1_292&#45;&gt;v_1_291</title>
<path fill="none" stroke="#000000" d="M3062.4935,-990C2962.0889,-990 2736.9863,-990 2636.3215,-990"/>
<polygon fill="#000000" stroke="#000000" points="2636.1127,-986.5001 2626.1127,-990 2636.1127,-993.5001 2636.1127,-986.5001"/>
</g>
<!-- v_1_299 -->
<g id="node48" class="node">
<title>v_1_299</title>
<polygon fill="#3a85b9" stroke="#000000" points="2156,-1691 2068,-1691 2068,-1655 2156,-1655 2156,-1691"/>
<text text-anchor="middle" x="2112" y="-1668" font-family="Times,serif" font-size="20.00" fill="#ffffff">292 print</text>
</g>
<!-- v_1_299&#45;&gt;v_1_257 -->
<g id="edge93" class="edge">
<title>v_1_299&#45;&gt;v_1_257</title>
<path fill="none" stroke="#000000" stroke-dasharray="5,2" d="M2067.9375,-1668.7813C2017.2538,-1663.9286 1934.1813,-1655.9748 1880.813,-1650.8651"/>
<polygon fill="#000000" stroke="#000000" points="1880.8419,-1647.3519 1870.5538,-1649.8828 1880.1746,-1654.3201 1880.8419,-1647.3519"/>
</g>
<!-- v_1_305 -->
<g id="node49" class="node">
<title>v_1_305</title>
<polygon fill="#3a85b9" stroke="#000000" points="2287,-1637 1937,-1637 1937,-1601 2287,-1601 2287,-1637"/>
<text text-anchor="middle" x="2112" y="-1614" font-family="Times,serif" font-size="20.00" fill="#ffffff">295 calculate_incident_wave_polarization</text>
</g>
<!-- v_1_305&#45;&gt;v_1_257 -->
<g id="edge82" class="edge">
<title>v_1_305&#45;&gt;v_1_257</title>
<path fill="none" stroke="#000000" stroke-dasharray="5,2" d="M1936.6121,-1635.7925C1916.4903,-1637.719 1897.3636,-1639.5503 1881.0109,-1641.116"/>
<polygon fill="#000000" stroke="#000000" points="1880.3038,-1637.6676 1870.6829,-1642.1048 1880.971,-1644.6357 1880.3038,-1637.6676"/>
</g>
<!-- v_1_306 -->
<g id="node50" class="node">
<title>v_1_306</title>
<path fill="#85cbd0" stroke="#000000" d="M2608,-1664C2608,-1664 2564,-1664 2564,-1664 2558,-1664 2552,-1658 2552,-1652 2552,-1652 2552,-1640 2552,-1640 2552,-1634 2558,-1628 2564,-1628 2564,-1628 2608,-1628 2608,-1628 2614,-1628 2620,-1634 2620,-1640 2620,-1640 2620,-1652 2620,-1652 2620,-1658 2614,-1664 2608,-1664"/>
<text text-anchor="middle" x="2586" y="-1641" font-family="Times,serif" font-size="20.00" fill="#000000">295 Et</text>
</g>
<!-- v_1_306&#45;&gt;v_1_305 -->
<g id="edge80" class="edge">
<title>v_1_306&#45;&gt;v_1_305</title>
<path fill="none" stroke="#000000" d="M2551.9111,-1644.0582C2498.709,-1641.0277 2392.1805,-1634.9596 2297.2819,-1629.554"/>
<polygon fill="#000000" stroke="#000000" points="2297.4362,-1626.0572 2287.2533,-1628.9828 2297.038,-1633.0459 2297.4362,-1626.0572"/>
</g>
<!-- v_1_307 -->
<g id="node51" class="node">
<title>v_1_307</title>
<path fill="#85cbd0" stroke="#000000" d="M2610.5,-1610C2610.5,-1610 2561.5,-1610 2561.5,-1610 2555.5,-1610 2549.5,-1604 2549.5,-1598 2549.5,-1598 2549.5,-1586 2549.5,-1586 2549.5,-1580 2555.5,-1574 2561.5,-1574 2561.5,-1574 2610.5,-1574 2610.5,-1574 2616.5,-1574 2622.5,-1580 2622.5,-1586 2622.5,-1586 2622.5,-1598 2622.5,-1598 2622.5,-1604 2616.5,-1610 2610.5,-1610"/>
<text text-anchor="middle" x="2586" y="-1587" font-family="Times,serif" font-size="20.00" fill="#000000">295 Ep</text>
</g>
<!-- v_1_307&#45;&gt;v_1_305 -->
<g id="edge32" class="edge">
<title>v_1_307&#45;&gt;v_1_305</title>
<path fill="none" stroke="#000000" d="M2549.2004,-1594.0962C2495.1591,-1597.1745 2390.6188,-1603.1293 2297.3136,-1608.4442"/>
<polygon fill="#000000" stroke="#000000" points="2296.9467,-1604.9593 2287.1619,-1609.0224 2297.3448,-1611.948 2296.9467,-1604.9593"/>
</g>
<!-- a_29 -->
<g id="node52" class="node">
<title>a_29</title>
<path fill="#ffffff" stroke="#000000" d="M811.5,-360C811.5,-360 659.5,-360 659.5,-360 653.5,-360 647.5,-354 647.5,-348 647.5,-348 647.5,-336 647.5,-336 647.5,-330 653.5,-324 659.5,-324 659.5,-324 811.5,-324 811.5,-324 817.5,-324 823.5,-330 823.5,-336 823.5,-336 823.5,-348 823.5,-348 823.5,-354 817.5,-360 811.5,-360"/>
<text text-anchor="middle" x="735.5" y="-337" font-family="Times,serif" font-size="20.00" fill="#000000">BOX/coordinates.m</text>
</g>
<!-- v_1_333 -->
<g id="node53" class="node">
<title>v_1_333</title>
<polygon fill="#3a85b9" stroke="#000000" points="1248,-360 1003,-360 1003,-324 1248,-324 1248,-360"/>
<text text-anchor="middle" x="1125.5" y="-337" font-family="Times,serif" font-size="20.00" fill="#ffffff">300 read_model_coordinates</text>
</g>
<!-- v_1_333&#45;&gt;v_1_21 -->
<g id="edge30" class="edge">
<title>v_1_333&#45;&gt;v_1_21</title>
<path fill="none" stroke="#000000" stroke-dasharray="5,2" d="M1090.61,-323.9333C1064.5186,-309.3019 1029.01,-286.912 1003,-261 982.5654,-240.6425 991.5989,-222.0631 967,-207 964.4928,-205.4647 961.9414,-203.9948 959.3505,-202.5879"/>
<polygon fill="#000000" stroke="#000000" points="960.8963,-199.4475 950.395,-198.0431 957.7284,-205.6897 960.8963,-199.4475"/>
</g>
<!-- v_1_333&#45;&gt;a_29 -->
<g id="edge5" class="edge">
<title>v_1_333&#45;&gt;a_29</title>
<path fill="none" stroke="#000000" stroke-dasharray="5,2" d="M1002.9043,-342C948.3626,-342 885.013,-342 833.6672,-342"/>
<polygon fill="#000000" stroke="#000000" points="833.5644,-338.5001 823.5643,-342 833.5643,-345.5001 833.5644,-338.5001"/>
</g>
<!-- v_1_75 -->
<g id="node54" class="node">
<title>v_1_75</title>
<path fill="#85cbd0" stroke="#000000" d="M771,-306C771,-306 700,-306 700,-306 694,-306 688,-300 688,-294 688,-294 688,-282 688,-282 688,-276 694,-270 700,-270 700,-270 771,-270 771,-270 777,-270 783,-276 783,-282 783,-282 783,-294 783,-294 783,-300 777,-306 771,-306"/>
<text text-anchor="middle" x="735.5" y="-283" font-family="Times,serif" font-size="20.00" fill="#000000">264 name</text>
</g>
<!-- v_1_333&#45;&gt;v_1_75 -->
<g id="edge64" class="edge">
<title>v_1_333&#45;&gt;v_1_75</title>
<path fill="none" stroke="#000000" stroke-dasharray="5,2" d="M1024.5837,-323.9914C1005.4859,-320.8155 985.651,-317.6743 967,-315 907.8546,-306.5193 839.9172,-298.8388 793.0093,-293.8571"/>
<polygon fill="#000000" stroke="#000000" points="793.3472,-290.3734 783.0351,-292.8049 792.6127,-297.3348 793.3472,-290.3734"/>
</g>
<!-- v_1_334 -->
<g id="node55" class="node">
<title>v_1_334</title>
<path fill="#85cbd0" stroke="#000000" d="M1362.5,-414C1362.5,-414 1303.5,-414 1303.5,-414 1297.5,-414 1291.5,-408 1291.5,-402 1291.5,-402 1291.5,-390 1291.5,-390 1291.5,-384 1297.5,-378 1303.5,-378 1303.5,-378 1362.5,-378 1362.5,-378 1368.5,-378 1374.5,-384 1374.5,-390 1374.5,-390 1374.5,-402 1374.5,-402 1374.5,-408 1368.5,-414 1362.5,-414"/>
<text text-anchor="middle" x="1333" y="-391" font-family="Times,serif" font-size="20.00" fill="#000000">300 ypts</text>
</g>
<!-- v_1_334&#45;&gt;v_1_333 -->
<g id="edge98" class="edge">
<title>v_1_334&#45;&gt;v_1_333</title>
<path fill="none" stroke="#000000" d="M1291.0093,-385.0723C1266.2193,-378.6209 1234.033,-370.2447 1204.6426,-362.5961"/>
<polygon fill="#000000" stroke="#000000" points="1205.3565,-359.1654 1194.7973,-360.034 1203.5935,-365.9398 1205.3565,-359.1654"/>
</g>
<!-- v_1_335 -->
<g id="node56" class="node">
<title>v_1_335</title>
<path fill="#85cbd0" stroke="#000000" d="M1362.5,-360C1362.5,-360 1303.5,-360 1303.5,-360 1297.5,-360 1291.5,-354 1291.5,-348 1291.5,-348 1291.5,-336 1291.5,-336 1291.5,-330 1297.5,-324 1303.5,-324 1303.5,-324 1362.5,-324 1362.5,-324 1368.5,-324 1374.5,-330 1374.5,-336 1374.5,-336 1374.5,-348 1374.5,-348 1374.5,-354 1368.5,-360 1362.5,-360"/>
<text text-anchor="middle" x="1333" y="-337" font-family="Times,serif" font-size="20.00" fill="#000000">300 xpts</text>
</g>
<!-- v_1_335&#45;&gt;v_1_333 -->
<g id="edge90" class="edge">
<title>v_1_335&#45;&gt;v_1_333</title>
<path fill="none" stroke="#000000" d="M1291.0093,-342C1281.1173,-342 1270.0477,-342 1258.448,-342"/>
<polygon fill="#000000" stroke="#000000" points="1258.1342,-338.5001 1248.1341,-342 1258.1341,-345.5001 1258.1342,-338.5001"/>
</g>
<!-- v_1_336 -->
<g id="node57" class="node">
<title>v_1_336</title>
<path fill="#85cbd0" stroke="#000000" d="M1362.5,-468C1362.5,-468 1303.5,-468 1303.5,-468 1297.5,-468 1291.5,-462 1291.5,-456 1291.5,-456 1291.5,-444 1291.5,-444 1291.5,-438 1297.5,-432 1303.5,-432 1303.5,-432 1362.5,-432 1362.5,-432 1368.5,-432 1374.5,-438 1374.5,-444 1374.5,-444 1374.5,-456 1374.5,-456 1374.5,-462 1368.5,-468 1362.5,-468"/>
<text text-anchor="middle" x="1333" y="-445" font-family="Times,serif" font-size="20.00" fill="#000000">300 zpts</text>
</g>
<!-- v_1_336&#45;&gt;v_1_333 -->
<g id="edge79" class="edge">
<title>v_1_336&#45;&gt;v_1_333</title>
<path fill="none" stroke="#000000" d="M1298.2692,-431.9232C1262.8087,-413.4667 1207.6614,-384.7635 1169.2428,-364.7673"/>
<polygon fill="#000000" stroke="#000000" points="1170.8305,-361.648 1160.3441,-360.1357 1167.5986,-367.8573 1170.8305,-361.648"/>
</g>
<!-- v_1_340 -->
<g id="node58" class="node">
<title>v_1_340</title>
<polygon fill="#3a85b9" stroke="#000000" points="1614.5,-306 1526.5,-306 1526.5,-270 1614.5,-270 1614.5,-306"/>
<text text-anchor="middle" x="1570.5" y="-283" font-family="Times,serif" font-size="20.00" fill="#ffffff">301 print</text>
</g>
<!-- v_1_340&#45;&gt;v_1_335 -->
<g id="edge54" class="edge">
<title>v_1_340&#45;&gt;v_1_335</title>
<path fill="none" stroke="#000000" stroke-dasharray="5,2" d="M1526.464,-294.2162C1495.8296,-298.925 1454.1593,-306.0975 1418,-315 1406.9531,-317.7198 1395.2453,-321.1025 1384.166,-324.5436"/>
<polygon fill="#000000" stroke="#000000" points="1383.0993,-321.2101 1374.6238,-327.5675 1385.2139,-327.883 1383.0993,-321.2101"/>
</g>
<!-- v_1_344 -->
<g id="node59" class="node">
<title>v_1_344</title>
<polygon fill="#3a85b9" stroke="#000000" points="1614.5,-468 1526.5,-468 1526.5,-432 1614.5,-432 1614.5,-468"/>
<text text-anchor="middle" x="1570.5" y="-445" font-family="Times,serif" font-size="20.00" fill="#ffffff">302 print</text>
</g>
<!-- v_1_344&#45;&gt;v_1_334 -->
<g id="edge35" class="edge">
<title>v_1_344&#45;&gt;v_1_334</title>
<path fill="none" stroke="#000000" stroke-dasharray="5,2" d="M1526.464,-443.7838C1495.8296,-439.075 1454.1593,-431.9025 1418,-423 1406.9531,-420.2802 1395.2453,-416.8975 1384.166,-413.4564"/>
<polygon fill="#000000" stroke="#000000" points="1385.2139,-410.117 1374.6238,-410.4325 1383.0993,-416.7899 1385.2139,-410.117"/>
</g>
<!-- v_1_348 -->
<g id="node60" class="node">
<title>v_1_348</title>
<polygon fill="#3a85b9" stroke="#000000" points="1614.5,-522 1526.5,-522 1526.5,-486 1614.5,-486 1614.5,-522"/>
<text text-anchor="middle" x="1570.5" y="-499" font-family="Times,serif" font-size="20.00" fill="#ffffff">303 print</text>
</g>
<!-- v_1_348&#45;&gt;v_1_336 -->
<g id="edge84" class="edge">
<title>v_1_348&#45;&gt;v_1_336</title>
<path fill="none" stroke="#000000" stroke-dasharray="5,2" d="M1526.464,-497.7838C1495.8296,-493.075 1454.1593,-485.9025 1418,-477 1406.9531,-474.2802 1395.2453,-470.8975 1384.166,-467.4564"/>
<polygon fill="#000000" stroke="#000000" points="1385.2139,-464.117 1374.6238,-464.4325 1383.0993,-470.7899 1385.2139,-464.117"/>
</g>
<!-- v_1_352 -->
<g id="node61" class="node">
<title>v_1_352</title>
<polygon fill="#3a85b9" stroke="#000000" points="1608,-360 1533,-360 1533,-324 1608,-324 1608,-360"/>
<text text-anchor="middle" x="1570.5" y="-337" font-family="Times,serif" font-size="20.00" fill="#ffffff">304 len</text>
</g>
<!-- v_1_352&#45;&gt;v_1_335 -->
<g id="edge43" class="edge">
<title>v_1_352&#45;&gt;v_1_335</title>
<path fill="none" stroke="#000000" stroke-dasharray="5,2" d="M1532.8674,-342C1492.9447,-342 1429.5913,-342 1384.9311,-342"/>
<polygon fill="#000000" stroke="#000000" points="1384.855,-338.5001 1374.8549,-342 1384.8549,-345.5001 1384.855,-338.5001"/>
</g>
<!-- v_1_353 -->
<g id="node62" class="node">
<title>v_1_353</title>
<path fill="#85cbd0" stroke="#000000" d="M1867.5,-360C1867.5,-360 1792.5,-360 1792.5,-360 1786.5,-360 1780.5,-354 1780.5,-348 1780.5,-348 1780.5,-336 1780.5,-336 1780.5,-330 1786.5,-324 1792.5,-324 1792.5,-324 1867.5,-324 1867.5,-324 1873.5,-324 1879.5,-330 1879.5,-336 1879.5,-336 1879.5,-348 1879.5,-348 1879.5,-354 1873.5,-360 1867.5,-360"/>
<text text-anchor="middle" x="1830" y="-337" font-family="Times,serif" font-size="20.00" fill="#000000">304 nverts</text>
</g>
<!-- v_1_353&#45;&gt;v_1_352 -->
<g id="edge63" class="edge">
<title>v_1_353&#45;&gt;v_1_352</title>
<path fill="none" stroke="#000000" d="M1780.2728,-342C1733.617,-342 1664.3133,-342 1618.2957,-342"/>
<polygon fill="#000000" stroke="#000000" points="1618.2742,-338.5001 1608.2742,-342 1618.2742,-345.5001 1618.2742,-338.5001"/>
</g>
<!-- v_1_357 -->
<g id="node63" class="node">
<title>v_1_357</title>
<polygon fill="#3a85b9" stroke="#000000" points="2156,-360 2068,-360 2068,-324 2156,-324 2156,-360"/>
<text text-anchor="middle" x="2112" y="-337" font-family="Times,serif" font-size="20.00" fill="#ffffff">305 print</text>
</g>
<!-- v_1_357&#45;&gt;v_1_353 -->
<g id="edge105" class="edge">
<title>v_1_357&#45;&gt;v_1_353</title>
<path fill="none" stroke="#000000" stroke-dasharray="5,2" d="M2067.9375,-342C2020.0588,-342 1943.277,-342 1889.936,-342"/>
<polygon fill="#000000" stroke="#000000" points="1889.9288,-338.5001 1879.9288,-342 1889.9288,-345.5001 1889.9288,-338.5001"/>
</g>
<!-- a_31 -->
<g id="node64" class="node">
<title>a_31</title>
<path fill="#ffffff" stroke="#000000" d="M789,-252C789,-252 682,-252 682,-252 676,-252 670,-246 670,-240 670,-240 670,-228 670,-228 670,-222 676,-216 682,-216 682,-216 789,-216 789,-216 795,-216 801,-222 801,-228 801,-228 801,-240 801,-240 801,-246 795,-252 789,-252"/>
<text text-anchor="middle" x="735.5" y="-229" font-family="Times,serif" font-size="20.00" fill="#000000">BOX/facets.m</text>
</g>
<!-- v_1_375 -->
<g id="node65" class="node">
<title>v_1_375</title>
<polygon fill="#3a85b9" stroke="#000000" points="1226,-252 1025,-252 1025,-216 1226,-216 1226,-252"/>
<text text-anchor="middle" x="1125.5" y="-229" font-family="Times,serif" font-size="20.00" fill="#ffffff">308 read_facets_model</text>
</g>
<!-- v_1_375&#45;&gt;v_1_21 -->
<g id="edge25" class="edge">
<title>v_1_375&#45;&gt;v_1_21</title>
<path fill="none" stroke="#000000" stroke-dasharray="5,2" d="M1024.5837,-215.9914C1005.4859,-212.8155 985.651,-209.6743 967,-207 948.411,-204.3346 928.9535,-201.7482 909.5534,-199.2998"/>
<polygon fill="#000000" stroke="#000000" points="909.7756,-195.8004 899.4185,-198.0323 908.9069,-202.7463 909.7756,-195.8004"/>
</g>
<!-- v_1_375&#45;&gt;v_1_75 -->
<g id="edge103" class="edge">
<title>v_1_375&#45;&gt;v_1_75</title>
<path fill="none" stroke="#000000" stroke-dasharray="5,2" d="M1024.5837,-252.0086C1005.4859,-255.1845 985.651,-258.3257 967,-261 907.8546,-269.4807 839.9172,-277.1612 793.0093,-282.1429"/>
<polygon fill="#000000" stroke="#000000" points="792.6127,-278.6652 783.0351,-283.1951 793.3472,-285.6266 792.6127,-278.6652"/>
</g>
<!-- v_1_375&#45;&gt;a_31 -->
<g id="edge57" class="edge">
<title>v_1_375&#45;&gt;a_31</title>
<path fill="none" stroke="#000000" stroke-dasharray="5,2" d="M1024.8118,-234C958.2463,-234 872.3676,-234 811.5151,-234"/>
<polygon fill="#000000" stroke="#000000" points="811.2138,-230.5001 801.2137,-234 811.2137,-237.5001 811.2138,-230.5001"/>
</g>
<!-- v_1_376 -->
<g id="node66" class="node">
<title>v_1_376</title>
<path fill="#85cbd0" stroke="#000000" d="M1370,-252C1370,-252 1296,-252 1296,-252 1290,-252 1284,-246 1284,-240 1284,-240 1284,-228 1284,-228 1284,-222 1290,-216 1296,-216 1296,-216 1370,-216 1370,-216 1376,-216 1382,-222 1382,-228 1382,-228 1382,-240 1382,-240 1382,-246 1376,-252 1370,-252"/>
<text text-anchor="middle" x="1333" y="-229" font-family="Times,serif" font-size="20.00" fill="#000000">308 facets</text>
</g>
<!-- v_1_376&#45;&gt;v_1_375 -->
<g id="edge18" class="edge">
<title>v_1_376&#45;&gt;v_1_375</title>
<path fill="none" stroke="#000000" d="M1283.8254,-234C1269.4347,-234 1253.0856,-234 1236.4882,-234"/>
<polygon fill="#000000" stroke="#000000" points="1236.1373,-230.5001 1226.1373,-234 1236.1372,-237.5001 1236.1373,-230.5001"/>
</g>
<!-- v_1_380 -->
<g id="node67" class="node">
<title>v_1_380</title>
<polygon fill="#3a85b9" stroke="#000000" points="1614.5,-252 1526.5,-252 1526.5,-216 1614.5,-216 1614.5,-252"/>
<text text-anchor="middle" x="1570.5" y="-229" font-family="Times,serif" font-size="20.00" fill="#ffffff">309 print</text>
</g>
<!-- v_1_380&#45;&gt;v_1_376 -->
<g id="edge3" class="edge">
<title>v_1_380&#45;&gt;v_1_376</title>
<path fill="none" stroke="#000000" stroke-dasharray="5,2" d="M1526.3847,-234C1488.5864,-234 1433.8225,-234 1392.2138,-234"/>
<polygon fill="#000000" stroke="#000000" points="1392.2068,-230.5001 1382.2068,-234 1392.2067,-237.5001 1392.2068,-230.5001"/>
</g>
<!-- v_1_394 -->
<g id="node68" class="node">
<title>v_1_394</title>
<polygon fill="#3a85b9" stroke="#000000" points="1702.5,-198 1438.5,-198 1438.5,-162 1702.5,-162 1702.5,-198"/>
<text text-anchor="middle" x="1570.5" y="-175" font-family="Times,serif" font-size="20.00" fill="#ffffff">312 generate_transpose_matrix</text>
</g>
<!-- v_1_394&#45;&gt;v_1_21 -->
<g id="edge87" class="edge">
<title>v_1_394&#45;&gt;v_1_21</title>
<path fill="none" stroke="#000000" stroke-dasharray="5,2" d="M1438.1918,-180C1314.796,-180 1127.7322,-180 977.6294,-180"/>
<polygon fill="#000000" stroke="#000000" points="977.3424,-176.5001 967.3424,-180 977.3423,-183.5001 977.3424,-176.5001"/>
</g>
<!-- v_1_394&#45;&gt;v_1_376 -->
<g id="edge22" class="edge">
<title>v_1_394&#45;&gt;v_1_376</title>
<path fill="none" stroke="#000000" stroke-dasharray="5,2" d="M1458.5379,-198.0692C1444.8261,-200.7977 1431.0539,-203.7861 1418,-207 1409.4796,-209.0977 1400.5661,-211.5899 1391.851,-214.199"/>
<polygon fill="#000000" stroke="#000000" points="1390.6623,-210.9025 1382.1272,-217.1797 1392.7139,-217.5952 1390.6623,-210.9025"/>
</g>
<!-- v_1_395 -->
<g id="node69" class="node">
<title>v_1_395</title>
<path fill="#85cbd0" stroke="#000000" d="M1854,-90C1854,-90 1806,-90 1806,-90 1800,-90 1794,-84 1794,-78 1794,-78 1794,-66 1794,-66 1794,-60 1800,-54 1806,-54 1806,-54 1854,-54 1854,-54 1860,-54 1866,-60 1866,-66 1866,-66 1866,-78 1866,-78 1866,-84 1860,-90 1854,-90"/>
<text text-anchor="middle" x="1830" y="-67" font-family="Times,serif" font-size="20.00" fill="#000000">312 Rs</text>
</g>
<!-- v_1_395&#45;&gt;v_1_394 -->
<g id="edge70" class="edge">
<title>v_1_395&#45;&gt;v_1_394</title>
<path fill="none" stroke="#000000" d="M1793.7646,-85.4404C1782.5788,-89.6804 1770.2462,-94.4477 1759,-99 1711.6699,-118.1584 1658.2397,-141.2593 1620.3821,-157.8799"/>
<polygon fill="#000000" stroke="#000000" points="1618.8508,-154.7298 1611.1061,-161.9596 1621.669,-161.1375 1618.8508,-154.7298"/>
</g>
<!-- v_1_396 -->
<g id="node70" class="node">
<title>v_1_396</title>
<path fill="#85cbd0" stroke="#000000" d="M1861,-36C1861,-36 1799,-36 1799,-36 1793,-36 1787,-30 1787,-24 1787,-24 1787,-12 1787,-12 1787,-6 1793,0 1799,0 1799,0 1861,0 1861,0 1867,0 1873,-6 1873,-12 1873,-12 1873,-24 1873,-24 1873,-30 1867,-36 1861,-36"/>
<text text-anchor="middle" x="1830" y="-13" font-family="Times,serif" font-size="20.00" fill="#000000">312 nfcv</text>
</g>
<!-- v_1_396&#45;&gt;v_1_394 -->
<g id="edge78" class="edge">
<title>v_1_396&#45;&gt;v_1_394</title>
<path fill="none" stroke="#000000" d="M1786.7816,-32.3928C1777.4182,-36.0702 1767.7155,-40.3238 1759,-45 1698.9076,-77.2418 1635.7959,-125.9343 1599.9794,-155.1829"/>
<polygon fill="#000000" stroke="#000000" points="1597.406,-152.7678 1591.9073,-161.824 1601.8534,-158.1735 1597.406,-152.7678"/>
</g>
<!-- v_1_397 -->
<g id="node71" class="node">
<title>v_1_397</title>
<path fill="#85cbd0" stroke="#000000" d="M1867.5,-306C1867.5,-306 1792.5,-306 1792.5,-306 1786.5,-306 1780.5,-300 1780.5,-294 1780.5,-294 1780.5,-282 1780.5,-282 1780.5,-276 1786.5,-270 1792.5,-270 1792.5,-270 1867.5,-270 1867.5,-270 1873.5,-270 1879.5,-276 1879.5,-282 1879.5,-282 1879.5,-294 1879.5,-294 1879.5,-300 1873.5,-306 1867.5,-306"/>
<text text-anchor="middle" x="1830" y="-283" font-family="Times,serif" font-size="20.00" fill="#000000">312 node1</text>
</g>
<!-- v_1_397&#45;&gt;v_1_394 -->
<g id="edge69" class="edge">
<title>v_1_397&#45;&gt;v_1_394</title>
<path fill="none" stroke="#000000" d="M1780.4905,-273.7656C1772.8539,-270.3091 1765.393,-266.0972 1759,-261 1736.4466,-243.0182 1747.1429,-222.7836 1723,-207 1719.3922,-204.6414 1715.6382,-202.4722 1711.7705,-200.4782"/>
<polygon fill="#000000" stroke="#000000" points="1713.0927,-197.2322 1702.5547,-196.1362 1710.1092,-203.5645 1713.0927,-197.2322"/>
</g>
<!-- v_1_398 -->
<g id="node72" class="node">
<title>v_1_398</title>
<path fill="#85cbd0" stroke="#000000" d="M1861.5,-252C1861.5,-252 1798.5,-252 1798.5,-252 1792.5,-252 1786.5,-246 1786.5,-240 1786.5,-240 1786.5,-228 1786.5,-228 1786.5,-222 1792.5,-216 1798.5,-216 1798.5,-216 1861.5,-216 1861.5,-216 1867.5,-216 1873.5,-222 1873.5,-228 1873.5,-228 1873.5,-240 1873.5,-240 1873.5,-246 1867.5,-252 1861.5,-252"/>
<text text-anchor="middle" x="1830" y="-229" font-family="Times,serif" font-size="20.00" fill="#000000">312 ilum</text>
</g>
<!-- v_1_398&#45;&gt;v_1_394 -->
<g id="edge49" class="edge">
<title>v_1_398&#45;&gt;v_1_394</title>
<path fill="none" stroke="#000000" d="M1786.4365,-222.2519C1767.084,-217.2286 1743.9809,-211.4984 1723,-207 1711.7035,-204.578 1699.9029,-202.2084 1688.0856,-199.9418"/>
<polygon fill="#000000" stroke="#000000" points="1688.6425,-196.4852 1678.1658,-198.0633 1687.3399,-203.3629 1688.6425,-196.4852"/>
</g>
<!-- v_1_399 -->
<g id="node73" class="node">
<title>v_1_399</title>
<path fill="#85cbd0" stroke="#000000" d="M1867.5,-198C1867.5,-198 1792.5,-198 1792.5,-198 1786.5,-198 1780.5,-192 1780.5,-186 1780.5,-186 1780.5,-174 1780.5,-174 1780.5,-168 1786.5,-162 1792.5,-162 1792.5,-162 1867.5,-162 1867.5,-162 1873.5,-162 1879.5,-168 1879.5,-174 1879.5,-174 1879.5,-186 1879.5,-186 1879.5,-192 1873.5,-198 1867.5,-198"/>
<text text-anchor="middle" x="1830" y="-175" font-family="Times,serif" font-size="20.00" fill="#000000">312 node3</text>
</g>
<!-- v_1_399&#45;&gt;v_1_394 -->
<g id="edge51" class="edge">
<title>v_1_399&#45;&gt;v_1_394</title>
<path fill="none" stroke="#000000" d="M1780.2728,-180C1760.6121,-180 1736.9295,-180 1712.6625,-180"/>
<polygon fill="#000000" stroke="#000000" points="1712.6079,-176.5001 1702.6079,-180 1712.6078,-183.5001 1712.6079,-176.5001"/>
</g>
<!-- v_1_400 -->
<g id="node74" class="node">
<title>v_1_400</title>
<path fill="#85cbd0" stroke="#000000" d="M1867.5,-144C1867.5,-144 1792.5,-144 1792.5,-144 1786.5,-144 1780.5,-138 1780.5,-132 1780.5,-132 1780.5,-120 1780.5,-120 1780.5,-114 1786.5,-108 1792.5,-108 1792.5,-108 1867.5,-108 1867.5,-108 1873.5,-108 1879.5,-114 1879.5,-120 1879.5,-120 1879.5,-132 1879.5,-132 1879.5,-138 1873.5,-144 1867.5,-144"/>
<text text-anchor="middle" x="1830" y="-121" font-family="Times,serif" font-size="20.00" fill="#000000">312 node2</text>
</g>
<!-- v_1_400&#45;&gt;v_1_394 -->
<g id="edge58" class="edge">
<title>v_1_400&#45;&gt;v_1_394</title>
<path fill="none" stroke="#000000" d="M1780.2728,-136.3478C1748.3226,-142.9964 1705.7515,-151.8552 1667.311,-159.8544"/>
<polygon fill="#000000" stroke="#000000" points="1666.1923,-156.5121 1657.1151,-161.976 1667.6185,-163.3653 1666.1923,-156.5121"/>
</g>
<!-- v_1_404 -->
<g id="node75" class="node">
<title>v_1_404</title>
<polygon fill="#3a85b9" stroke="#000000" points="2156,-36 2068,-36 2068,0 2156,0 2156,-36"/>
<text text-anchor="middle" x="2112" y="-13" font-family="Times,serif" font-size="20.00" fill="#ffffff">313 print</text>
</g>
<!-- v_1_404&#45;&gt;v_1_396 -->
<g id="edge28" class="edge">
<title>v_1_404&#45;&gt;v_1_396</title>
<path fill="none" stroke="#000000" stroke-dasharray="5,2" d="M2067.9375,-18C2018.1251,-18 1937.0281,-18 1883.5915,-18"/>
<polygon fill="#000000" stroke="#000000" points="1883.2905,-14.5001 1873.2905,-18 1883.2905,-21.5001 1883.2905,-14.5001"/>
</g>
<!-- v_1_408 -->
<g id="node76" class="node">
<title>v_1_408</title>
<polygon fill="#3a85b9" stroke="#000000" points="2156,-306 2068,-306 2068,-270 2156,-270 2156,-306"/>
<text text-anchor="middle" x="2112" y="-283" font-family="Times,serif" font-size="20.00" fill="#ffffff">314 print</text>
</g>
<!-- v_1_408&#45;&gt;v_1_397 -->
<g id="edge85" class="edge">
<title>v_1_408&#45;&gt;v_1_397</title>
<path fill="none" stroke="#000000" stroke-dasharray="5,2" d="M2067.9375,-288C2020.0588,-288 1943.277,-288 1889.936,-288"/>
<polygon fill="#000000" stroke="#000000" points="1889.9288,-284.5001 1879.9288,-288 1889.9288,-291.5001 1889.9288,-284.5001"/>
</g>
<!-- v_1_412 -->
<g id="node77" class="node">
<title>v_1_412</title>
<polygon fill="#3a85b9" stroke="#000000" points="2156,-144 2068,-144 2068,-108 2156,-108 2156,-144"/>
<text text-anchor="middle" x="2112" y="-121" font-family="Times,serif" font-size="20.00" fill="#ffffff">315 print</text>
</g>
<!-- v_1_412&#45;&gt;v_1_400 -->
<g id="edge50" class="edge">
<title>v_1_412&#45;&gt;v_1_400</title>
<path fill="none" stroke="#000000" stroke-dasharray="5,2" d="M2067.9375,-126C2020.0588,-126 1943.277,-126 1889.936,-126"/>
<polygon fill="#000000" stroke="#000000" points="1889.9288,-122.5001 1879.9288,-126 1889.9288,-129.5001 1889.9288,-122.5001"/>
</g>
<!-- v_1_416 -->
<g id="node78" class="node">
<title>v_1_416</title>
<polygon fill="#3a85b9" stroke="#000000" points="2156,-198 2068,-198 2068,-162 2156,-162 2156,-198"/>
<text text-anchor="middle" x="2112" y="-175" font-family="Times,serif" font-size="20.00" fill="#ffffff">316 print</text>
</g>
<!-- v_1_416&#45;&gt;v_1_399 -->
<g id="edge12" class="edge">
<title>v_1_416&#45;&gt;v_1_399</title>
<path fill="none" stroke="#000000" stroke-dasharray="5,2" d="M2067.9375,-180C2020.0588,-180 1943.277,-180 1889.936,-180"/>
<polygon fill="#000000" stroke="#000000" points="1889.9288,-176.5001 1879.9288,-180 1889.9288,-183.5001 1889.9288,-176.5001"/>
</g>
<!-- v_1_420 -->
<g id="node79" class="node">
<title>v_1_420</title>
<polygon fill="#3a85b9" stroke="#000000" points="2149.5,-252 2074.5,-252 2074.5,-216 2149.5,-216 2149.5,-252"/>
<text text-anchor="middle" x="2112" y="-229" font-family="Times,serif" font-size="20.00" fill="#ffffff">317 len</text>
</g>
<!-- v_1_420&#45;&gt;v_1_399 -->
<g id="edge37" class="edge">
<title>v_1_420&#45;&gt;v_1_399</title>
<path fill="none" stroke="#000000" stroke-dasharray="5,2" d="M2074.2676,-229.2231C2038.7025,-224.4742 1983.9995,-216.5335 1937,-207 1921.5206,-203.8601 1904.9143,-199.9424 1889.5123,-196.0735"/>
<polygon fill="#000000" stroke="#000000" points="1890.1433,-192.6226 1879.5888,-193.5469 1888.416,-199.4062 1890.1433,-192.6226"/>
</g>
<!-- v_1_421 -->
<g id="node80" class="node">
<title>v_1_421</title>
<path fill="#85cbd0" stroke="#000000" d="M2617.5,-252C2617.5,-252 2554.5,-252 2554.5,-252 2548.5,-252 2542.5,-246 2542.5,-240 2542.5,-240 2542.5,-228 2542.5,-228 2542.5,-222 2548.5,-216 2554.5,-216 2554.5,-216 2617.5,-216 2617.5,-216 2623.5,-216 2629.5,-222 2629.5,-228 2629.5,-228 2629.5,-240 2629.5,-240 2629.5,-246 2623.5,-252 2617.5,-252"/>
<text text-anchor="middle" x="2586" y="-229" font-family="Times,serif" font-size="20.00" fill="#000000">317 ntria</text>
</g>
<!-- v_1_421&#45;&gt;v_1_420 -->
<g id="edge81" class="edge">
<title>v_1_421&#45;&gt;v_1_420</title>
<path fill="none" stroke="#000000" d="M2542.2568,-234C2453.3227,-234 2252.05,-234 2159.8064,-234"/>
<polygon fill="#000000" stroke="#000000" points="2159.6399,-230.5001 2149.6398,-234 2159.6398,-237.5001 2159.6399,-230.5001"/>
</g>
<!-- v_1_424 -->
<g id="node81" class="node">
<title>v_1_424</title>
<polygon fill="#3a85b9" stroke="#000000" points="3156.5,-252 3068.5,-252 3068.5,-216 3156.5,-216 3156.5,-252"/>
<text text-anchor="middle" x="3112.5" y="-229" font-family="Times,serif" font-size="20.00" fill="#ffffff">318 print</text>
</g>
<!-- v_1_424&#45;&gt;v_1_421 -->
<g id="edge33" class="edge">
<title>v_1_424&#45;&gt;v_1_421</title>
<path fill="none" stroke="#000000" stroke-dasharray="5,2" d="M3068.0647,-234C2971.832,-234 2744.4344,-234 2640.0678,-234"/>
<polygon fill="#000000" stroke="#000000" points="2639.7606,-230.5001 2629.7605,-234 2639.7605,-237.5001 2639.7606,-230.5001"/>
</g>
<!-- v_1_444 -->
<g id="node82" class="node">
<title>v_1_444</title>
<polygon fill="#3a85b9" stroke="#000000" points="1708.5,-414 1432.5,-414 1432.5,-378 1708.5,-378 1708.5,-414"/>
<text text-anchor="middle" x="1570.5" y="-391" font-family="Times,serif" font-size="20.00" fill="#ffffff">321 generate_coordinates_points</text>
</g>
<!-- v_1_444&#45;&gt;v_1_334 -->
<g id="edge101" class="edge">
<title>v_1_444&#45;&gt;v_1_334</title>
<path fill="none" stroke="#000000" stroke-dasharray="5,2" d="M1432.3453,-396C1415.4293,-396 1399.0533,-396 1384.6408,-396"/>
<polygon fill="#000000" stroke="#000000" points="1384.5137,-392.5001 1374.5136,-396 1384.5136,-399.5001 1384.5137,-392.5001"/>
</g>
<!-- v_1_444&#45;&gt;v_1_335 -->
<g id="edge26" class="edge">
<title>v_1_444&#45;&gt;v_1_335</title>
<path fill="none" stroke="#000000" stroke-dasharray="5,2" d="M1458.5379,-377.9308C1444.8261,-375.2023 1431.0539,-372.2139 1418,-369 1406.9531,-366.2802 1395.2453,-362.8975 1384.166,-359.4564"/>
<polygon fill="#000000" stroke="#000000" points="1385.2139,-356.117 1374.6238,-356.4325 1383.0993,-362.7899 1385.2139,-356.117"/>
</g>
<!-- v_1_444&#45;&gt;v_1_336 -->
<g id="edge40" class="edge">
<title>v_1_444&#45;&gt;v_1_336</title>
<path fill="none" stroke="#000000" stroke-dasharray="5,2" d="M1458.5379,-414.0692C1444.8261,-416.7977 1431.0539,-419.7861 1418,-423 1406.9531,-425.7198 1395.2453,-429.1025 1384.166,-432.5436"/>
<polygon fill="#000000" stroke="#000000" points="1383.0993,-429.2101 1374.6238,-435.5675 1385.2139,-435.883 1383.0993,-429.2101"/>
</g>
<!-- v_1_445 -->
<g id="node83" class="node">
<title>v_1_445</title>
<path fill="#85cbd0" stroke="#000000" d="M1847,-414C1847,-414 1813,-414 1813,-414 1807,-414 1801,-408 1801,-402 1801,-402 1801,-390 1801,-390 1801,-384 1807,-378 1813,-378 1813,-378 1847,-378 1847,-378 1853,-378 1859,-384 1859,-390 1859,-390 1859,-402 1859,-402 1859,-408 1853,-414 1847,-414"/>
<text text-anchor="middle" x="1830" y="-391" font-family="Times,serif" font-size="20.00" fill="#000000">321 r</text>
</g>
<!-- v_1_445&#45;&gt;v_1_444 -->
<g id="edge6" class="edge">
<title>v_1_445&#45;&gt;v_1_444</title>
<path fill="none" stroke="#000000" d="M1800.9874,-396C1780.1027,-396 1750.176,-396 1718.7714,-396"/>
<polygon fill="#000000" stroke="#000000" points="1718.5328,-392.5001 1708.5328,-396 1718.5328,-399.5001 1718.5328,-392.5001"/>
</g>
<!-- v_1_448 -->
<g id="node84" class="node">
<title>v_1_448</title>
<polygon fill="#3a85b9" stroke="#000000" points="1614.5,-1641 1526.5,-1641 1526.5,-1605 1614.5,-1605 1614.5,-1641"/>
<text text-anchor="middle" x="1570.5" y="-1618" font-family="Times,serif" font-size="20.00" fill="#ffffff">329 print</text>
</g>
<!-- v_1_448&#45;&gt;v_1_259 -->
<g id="edge13" class="edge">
<title>v_1_448&#45;&gt;v_1_259</title>
<path fill="none" stroke="#000000" stroke-dasharray="5,2" d="M1526.2157,-1617.9863C1495.0984,-1613.4462 1452.9556,-1605.2218 1418,-1591 1399.3186,-1583.3994 1380.2136,-1571.6835 1364.8602,-1561.1046"/>
<polygon fill="#000000" stroke="#000000" points="1366.4724,-1557.9583 1356.2854,-1555.047 1362.4334,-1563.6756 1366.4724,-1557.9583"/>
</g>
<!-- v_1_451 -->
<g id="node85" class="node">
<title>v_1_451</title>
<polygon fill="#3a85b9" stroke="#000000" points="1614.5,-1165 1526.5,-1165 1526.5,-1129 1614.5,-1129 1614.5,-1165"/>
<text text-anchor="middle" x="1570.5" y="-1142" font-family="Times,serif" font-size="20.00" fill="#ffffff">332 print</text>
</g>
<!-- v_1_451&#45;&gt;v_1_265 -->
<g id="edge17" class="edge">
<title>v_1_451&#45;&gt;v_1_265</title>
<path fill="none" stroke="#000000" stroke-dasharray="5,2" d="M1526.4466,-1154.7695C1495.8043,-1160.5322 1454.1318,-1169.0852 1418,-1179 1408.7374,-1181.5417 1399.0107,-1184.5394 1389.5797,-1187.6264"/>
<polygon fill="#000000" stroke="#000000" points="1388.2679,-1184.3744 1379.8904,-1190.8604 1390.4841,-1191.0143 1388.2679,-1184.3744"/>
</g>
<!-- v_1_454 -->
<g id="node86" class="node">
<title>v_1_454</title>
<polygon fill="#3a85b9" stroke="#000000" points="1614.5,-1549 1526.5,-1549 1526.5,-1513 1614.5,-1513 1614.5,-1549"/>
<text text-anchor="middle" x="1570.5" y="-1526" font-family="Times,serif" font-size="20.00" fill="#ffffff">335 print</text>
</g>
<!-- v_1_454&#45;&gt;v_1_260 -->
<g id="edge104" class="edge">
<title>v_1_454&#45;&gt;v_1_260</title>
<path fill="none" stroke="#000000" stroke-dasharray="5,2" d="M1526.4762,-1526.2139C1495.2922,-1521.7682 1452.9613,-1513.5632 1418,-1499 1398.7303,-1490.9731 1379.146,-1478.4307 1363.6402,-1467.2489"/>
<polygon fill="#000000" stroke="#000000" points="1365.5959,-1464.3422 1355.4734,-1461.2141 1361.4359,-1469.972 1365.5959,-1464.3422"/>
</g>
<!-- v_1_457 -->
<g id="node87" class="node">
<title>v_1_457</title>
<polygon fill="#3a85b9" stroke="#000000" points="1614.5,-1457 1526.5,-1457 1526.5,-1421 1614.5,-1421 1614.5,-1457"/>
<text text-anchor="middle" x="1570.5" y="-1434" font-family="Times,serif" font-size="20.00" fill="#ffffff">338 print</text>
</g>
<!-- v_1_457&#45;&gt;v_1_258 -->
<g id="edge53" class="edge">
<title>v_1_457&#45;&gt;v_1_258</title>
<path fill="none" stroke="#000000" stroke-dasharray="5,2" d="M1526.2488,-1432.2341C1495.698,-1427.3022 1454.2124,-1420.0882 1418,-1412 1408.2647,-1409.8256 1397.9701,-1407.2654 1388.0337,-1404.6574"/>
<polygon fill="#000000" stroke="#000000" points="1388.8151,-1401.2435 1378.2507,-1402.0459 1387.0097,-1408.0067 1388.8151,-1401.2435"/>
</g>
<!-- v_1_460 -->
<g id="node88" class="node">
<title>v_1_460</title>
<polygon fill="#3a85b9" stroke="#000000" points="1614.5,-1257 1526.5,-1257 1526.5,-1221 1614.5,-1221 1614.5,-1257"/>
<text text-anchor="middle" x="1570.5" y="-1234" font-family="Times,serif" font-size="20.00" fill="#ffffff">341 print</text>
</g>
<!-- v_1_460&#45;&gt;v_1_263 -->
<g id="edge59" class="edge">
<title>v_1_460&#45;&gt;v_1_263</title>
<path fill="none" stroke="#000000" stroke-dasharray="5,2" d="M1526.3847,-1246.8014C1487.2232,-1253.7268 1429.8502,-1263.8728 1387.7646,-1271.3153"/>
<polygon fill="#000000" stroke="#000000" points="1386.9227,-1267.9098 1377.685,-1273.0978 1388.1417,-1274.8029 1386.9227,-1267.9098"/>
</g>
<!-- v_1_463 -->
<g id="node89" class="node">
<title>v_1_463</title>
<polygon fill="#3a85b9" stroke="#000000" points="1614.5,-1349 1526.5,-1349 1526.5,-1313 1614.5,-1313 1614.5,-1349"/>
<text text-anchor="middle" x="1570.5" y="-1326" font-family="Times,serif" font-size="20.00" fill="#ffffff">344 print</text>
</g>
<!-- v_1_463&#45;&gt;v_1_261 -->
<g id="edge73" class="edge">
<title>v_1_463&#45;&gt;v_1_261</title>
<path fill="none" stroke="#000000" stroke-dasharray="5,2" d="M1526.3847,-1331.743C1485.86,-1332.4255 1425.8338,-1333.4365 1383.4266,-1334.1507"/>
<polygon fill="#000000" stroke="#000000" points="1383.2566,-1330.653 1373.317,-1334.321 1383.3746,-1337.652 1383.2566,-1330.653"/>
</g>
<!-- v_1_489 -->
<g id="node90" class="node">
<title>v_1_489</title>
<polygon fill="#3a85b9" stroke="#000000" points="1723,-1403 1418,-1403 1418,-1367 1723,-1367 1723,-1403"/>
<text text-anchor="middle" x="1570.5" y="-1380" font-family="Times,serif" font-size="20.00" fill="#ffffff">347 calculate_refs_geometry_model</text>
</g>
<!-- v_1_489&#45;&gt;v_1_258 -->
<g id="edge23" class="edge">
<title>v_1_489&#45;&gt;v_1_258</title>
<path fill="none" stroke="#000000" stroke-dasharray="5,2" d="M1417.7371,-1387.5728C1407.4001,-1387.7469 1397.4386,-1387.9147 1388.2039,-1388.0702"/>
<polygon fill="#000000" stroke="#000000" points="1388.0448,-1384.5723 1378.1052,-1388.2403 1388.1627,-1391.5713 1388.0448,-1384.5723"/>
</g>
<!-- v_1_489&#45;&gt;v_1_259 -->
<g id="edge61" class="edge">
<title>v_1_489&#45;&gt;v_1_259</title>
<path fill="none" stroke="#000000" stroke-dasharray="5,2" d="M1433.4617,-1403.1223C1428.0801,-1405.737 1422.8978,-1408.6831 1418,-1412 1392.8788,-1429.0124 1398.9673,-1444.8483 1382,-1470 1372.856,-1483.5547 1362.1922,-1498.2553 1353.1519,-1510.4235"/>
<polygon fill="#000000" stroke="#000000" points="1350.0862,-1508.6789 1346.9011,-1518.7836 1355.6924,-1512.8706 1350.0862,-1508.6789"/>
</g>
<!-- v_1_489&#45;&gt;v_1_260 -->
<g id="edge55" class="edge">
<title>v_1_489&#45;&gt;v_1_260</title>
<path fill="none" stroke="#000000" stroke-dasharray="5,2" d="M1455.9365,-1403.0475C1443.0676,-1405.736 1430.2043,-1408.721 1418,-1412 1407.3148,-1414.8708 1396.0746,-1418.5087 1385.3938,-1422.2742"/>
<polygon fill="#000000" stroke="#000000" points="1383.9897,-1419.06 1375.7741,-1425.7499 1386.3684,-1425.6435 1383.9897,-1419.06"/>
</g>
<!-- v_1_489&#45;&gt;v_1_261 -->
<g id="edge16" class="edge">
<title>v_1_489&#45;&gt;v_1_261</title>
<path fill="none" stroke="#000000" stroke-dasharray="5,2" d="M1461.5499,-1366.9307C1446.8703,-1364.1399 1432.0389,-1361.1356 1418,-1358 1406.5757,-1355.4483 1394.3812,-1352.3655 1382.8992,-1349.2974"/>
<polygon fill="#000000" stroke="#000000" points="1383.5974,-1345.8604 1373.0297,-1346.6188 1381.7638,-1352.616 1383.5974,-1345.8604"/>
</g>
<!-- v_1_489&#45;&gt;v_1_263 -->
<g id="edge34" class="edge">
<title>v_1_489&#45;&gt;v_1_263</title>
<path fill="none" stroke="#000000" stroke-dasharray="5,2" d="M1434.858,-1366.9593C1429.0029,-1364.3337 1423.3501,-1361.3617 1418,-1358 1394.8142,-1343.4313 1402.4925,-1326.1627 1382,-1308 1380.8642,-1306.9934 1379.6846,-1306.009 1378.4706,-1305.048"/>
<polygon fill="#000000" stroke="#000000" points="1380.2372,-1302.0091 1370.0625,-1299.055 1376.1742,-1307.7093 1380.2372,-1302.0091"/>
</g>
<!-- v_1_489&#45;&gt;v_1_265 -->
<g id="edge46" class="edge">
<title>v_1_489&#45;&gt;v_1_265</title>
<path fill="none" stroke="#000000" stroke-dasharray="5,2" d="M1430.3876,-1366.9502C1426.0355,-1364.2885 1421.8862,-1361.316 1418,-1358 1380.7914,-1326.2508 1408.605,-1295.0447 1382,-1254 1377.1647,-1246.5404 1370.8675,-1239.4466 1364.4068,-1233.1616"/>
<polygon fill="#000000" stroke="#000000" points="1366.5528,-1230.3799 1356.8252,-1226.1816 1361.8116,-1235.5297 1366.5528,-1230.3799"/>
</g>
<!-- v_1_294 -->
<g id="node91" class="node">
<title>v_1_294</title>
<path fill="#85cbd0" stroke="#000000" d="M3139,-1388C3139,-1388 3086,-1388 3086,-1388 3080,-1388 3074,-1382 3074,-1376 3074,-1376 3074,-1364 3074,-1364 3074,-1358 3080,-1352 3086,-1352 3086,-1352 3139,-1352 3139,-1352 3145,-1352 3151,-1358 3151,-1364 3151,-1364 3151,-1376 3151,-1376 3151,-1382 3145,-1388 3139,-1388"/>
<text text-anchor="middle" x="3112.5" y="-1365" font-family="Times,serif" font-size="20.00" fill="#000000">288 rad</text>
</g>
<!-- v_1_490 -->
<g id="node92" class="node">
<title>v_1_490</title>
<path fill="#85cbd0" stroke="#000000" d="M1851,-1349C1851,-1349 1809,-1349 1809,-1349 1803,-1349 1797,-1343 1797,-1337 1797,-1337 1797,-1325 1797,-1325 1797,-1319 1803,-1313 1809,-1313 1809,-1313 1851,-1313 1851,-1313 1857,-1313 1863,-1319 1863,-1325 1863,-1325 1863,-1337 1863,-1337 1863,-1343 1857,-1349 1851,-1349"/>
<text text-anchor="middle" x="1830" y="-1326" font-family="Times,serif" font-size="20.00" fill="#000000">347 ip</text>
</g>
<!-- v_1_490&#45;&gt;v_1_489 -->
<g id="edge27" class="edge">
<title>v_1_490&#45;&gt;v_1_489</title>
<path fill="none" stroke="#000000" d="M1796.888,-1340.0099C1775.8223,-1345.5792 1747.9148,-1352.6582 1723,-1358 1711.7035,-1360.422 1699.9029,-1362.7916 1688.0856,-1365.0582"/>
<polygon fill="#000000" stroke="#000000" points="1687.3399,-1361.6371 1678.1658,-1366.9367 1688.6425,-1368.5148 1687.3399,-1361.6371"/>
</g>
<!-- v_1_491 -->
<g id="node93" class="node">
<title>v_1_491</title>
<path fill="#85cbd0" stroke="#000000" d="M1849,-1295C1849,-1295 1811,-1295 1811,-1295 1805,-1295 1799,-1289 1799,-1283 1799,-1283 1799,-1271 1799,-1271 1799,-1265 1805,-1259 1811,-1259 1811,-1259 1849,-1259 1849,-1259 1855,-1259 1861,-1265 1861,-1271 1861,-1271 1861,-1283 1861,-1283 1861,-1289 1855,-1295 1849,-1295"/>
<text text-anchor="middle" x="1830" y="-1272" font-family="Times,serif" font-size="20.00" fill="#000000">347 it</text>
</g>
<!-- v_1_491&#45;&gt;v_1_489 -->
<g id="edge4" class="edge">
<title>v_1_491&#45;&gt;v_1_489</title>
<path fill="none" stroke="#000000" d="M1798.8407,-1284.2779C1785.5821,-1288.4733 1770.5487,-1294.7922 1759,-1304 1736.4466,-1321.9818 1747.1429,-1342.2164 1723,-1358 1720.7847,-1359.4483 1718.5142,-1360.8251 1716.1962,-1362.1338"/>
<polygon fill="#000000" stroke="#000000" points="1714.3233,-1359.1614 1707.0351,-1366.8512 1717.528,-1365.3848 1714.3233,-1359.1614"/>
</g>
<!-- v_1_492 -->
<g id="node94" class="node">
<title>v_1_492</title>
<path fill="#85cbd0" stroke="#000000" d="M1858,-1403C1858,-1403 1802,-1403 1802,-1403 1796,-1403 1790,-1397 1790,-1391 1790,-1391 1790,-1379 1790,-1379 1790,-1373 1796,-1367 1802,-1367 1802,-1367 1858,-1367 1858,-1367 1864,-1367 1870,-1373 1870,-1379 1870,-1379 1870,-1391 1870,-1391 1870,-1397 1864,-1403 1858,-1403"/>
<text text-anchor="middle" x="1830" y="-1380" font-family="Times,serif" font-size="20.00" fill="#000000">347 delt</text>
</g>
<!-- v_1_492&#45;&gt;v_1_489 -->
<g id="edge66" class="edge">
<title>v_1_492&#45;&gt;v_1_489</title>
<path fill="none" stroke="#000000" d="M1789.7378,-1385C1773.6383,-1385 1753.9548,-1385 1733.056,-1385"/>
<polygon fill="#000000" stroke="#000000" points="1733.0448,-1381.5001 1723.0447,-1385 1733.0447,-1388.5001 1733.0448,-1381.5001"/>
</g>
<!-- v_1_493 -->
<g id="node95" class="node">
<title>v_1_493</title>
<path fill="#85cbd0" stroke="#000000" d="M1860.5,-1457C1860.5,-1457 1799.5,-1457 1799.5,-1457 1793.5,-1457 1787.5,-1451 1787.5,-1445 1787.5,-1445 1787.5,-1433 1787.5,-1433 1787.5,-1427 1793.5,-1421 1799.5,-1421 1799.5,-1421 1860.5,-1421 1860.5,-1421 1866.5,-1421 1872.5,-1427 1872.5,-1433 1872.5,-1433 1872.5,-1445 1872.5,-1445 1872.5,-1451 1866.5,-1457 1860.5,-1457"/>
<text text-anchor="middle" x="1830" y="-1434" font-family="Times,serif" font-size="20.00" fill="#000000">347 delp</text>
</g>
<!-- v_1_493&#45;&gt;v_1_489 -->
<g id="edge96" class="edge">
<title>v_1_493&#45;&gt;v_1_489</title>
<path fill="none" stroke="#000000" d="M1787.4696,-1427.5203C1767.9098,-1422.4337 1744.3556,-1416.5787 1723,-1412 1711.7035,-1409.578 1699.9029,-1407.2084 1688.0856,-1404.9418"/>
<polygon fill="#000000" stroke="#000000" points="1688.6425,-1401.4852 1678.1658,-1403.0633 1687.3399,-1408.3629 1688.6425,-1401.4852"/>
</g>
<!-- v_1_1354 -->
<g id="node96" class="node">
<title>v_1_1354</title>
<polygon fill="#3a85b9" stroke="#000000" points="2765,-1718 2407,-1718 2407,-1682 2765,-1682 2765,-1718"/>
<text text-anchor="middle" x="2586" y="-1695" font-family="Times,serif" font-size="20.00" fill="#ffffff">352 calculate_edges_and_normal_triangles</text>
</g>
<!-- v_1_1355 -->
<g id="node97" class="node">
<title>v_1_1355</title>
<path fill="#85cbd0" stroke="#000000" d="M3147.5,-1772C3147.5,-1772 3077.5,-1772 3077.5,-1772 3071.5,-1772 3065.5,-1766 3065.5,-1760 3065.5,-1760 3065.5,-1748 3065.5,-1748 3065.5,-1742 3071.5,-1736 3077.5,-1736 3077.5,-1736 3147.5,-1736 3147.5,-1736 3153.5,-1736 3159.5,-1742 3159.5,-1748 3159.5,-1748 3159.5,-1760 3159.5,-1760 3159.5,-1766 3153.5,-1772 3147.5,-1772"/>
<text text-anchor="middle" x="3112.5" y="-1749" font-family="Times,serif" font-size="20.00" fill="#000000">352 alpha</text>
</g>
<!-- v_1_1355&#45;&gt;v_1_1354 -->
<g id="edge75" class="edge">
<title>v_1_1355&#45;&gt;v_1_1354</title>
<path fill="none" stroke="#000000" d="M3065.3133,-1749.1603C2999.5388,-1742.4142 2876.5517,-1729.8002 2771.6303,-1719.039"/>
<polygon fill="#000000" stroke="#000000" points="2771.8405,-1715.5423 2761.5355,-1718.0036 2771.1262,-1722.5058 2771.8405,-1715.5423"/>
</g>
<!-- v_1_1356 -->
<g id="node98" class="node">
<title>v_1_1356</title>
<path fill="#85cbd0" stroke="#000000" d="M3142.5,-1718C3142.5,-1718 3082.5,-1718 3082.5,-1718 3076.5,-1718 3070.5,-1712 3070.5,-1706 3070.5,-1706 3070.5,-1694 3070.5,-1694 3070.5,-1688 3076.5,-1682 3082.5,-1682 3082.5,-1682 3142.5,-1682 3142.5,-1682 3148.5,-1682 3154.5,-1688 3154.5,-1694 3154.5,-1694 3154.5,-1706 3154.5,-1706 3154.5,-1712 3148.5,-1718 3142.5,-1718"/>
<text text-anchor="middle" x="3112.5" y="-1695" font-family="Times,serif" font-size="20.00" fill="#000000">352 beta</text>
</g>
<!-- v_1_1356&#45;&gt;v_1_1354 -->
<g id="edge14" class="edge">
<title>v_1_1356&#45;&gt;v_1_1354</title>
<path fill="none" stroke="#000000" d="M3070.3043,-1700C3006.656,-1700 2882.1647,-1700 2775.3417,-1700"/>
<polygon fill="#000000" stroke="#000000" points="2775.0618,-1696.5001 2765.0618,-1700 2775.0618,-1703.5001 2775.0618,-1696.5001"/>
</g>
<!-- v_1_1357 -->
<g id="node99" class="node">
<title>v_1_1357</title>
<path fill="#85cbd0" stroke="#000000" d="M3145.5,-1664C3145.5,-1664 3079.5,-1664 3079.5,-1664 3073.5,-1664 3067.5,-1658 3067.5,-1652 3067.5,-1652 3067.5,-1640 3067.5,-1640 3067.5,-1634 3073.5,-1628 3079.5,-1628 3079.5,-1628 3145.5,-1628 3145.5,-1628 3151.5,-1628 3157.5,-1634 3157.5,-1640 3157.5,-1640 3157.5,-1652 3157.5,-1652 3157.5,-1658 3151.5,-1664 3145.5,-1664"/>
<text text-anchor="middle" x="3112.5" y="-1641" font-family="Times,serif" font-size="20.00" fill="#000000">352 areai</text>
</g>
<!-- v_1_1357&#45;&gt;v_1_1354 -->
<g id="edge100" class="edge">
<title>v_1_1357&#45;&gt;v_1_1354</title>
<path fill="none" stroke="#000000" d="M3067.1552,-1650.6507C3001.9129,-1657.3423 2877.7575,-1670.0762 2771.9093,-1680.9324"/>
<polygon fill="#000000" stroke="#000000" points="2771.3164,-1677.4747 2761.7257,-1681.9769 2772.0306,-1684.4382 2771.3164,-1677.4747"/>
</g>
<!-- a_32 -->
<g id="node100" class="node">
<title>a_32</title>
<path fill="#ffffff" stroke="#000000" d="M2835.5,-1380C2835.5,-1380 2336.5,-1380 2336.5,-1380 2330.5,-1380 2324.5,-1374 2324.5,-1368 2324.5,-1368 2324.5,-1356 2324.5,-1356 2324.5,-1350 2330.5,-1344 2336.5,-1344 2336.5,-1344 2835.5,-1344 2835.5,-1344 2841.5,-1344 2847.5,-1350 2847.5,-1356 2847.5,-1356 2847.5,-1368 2847.5,-1368 2847.5,-1374 2841.5,-1380 2835.5,-1380"/>
<text text-anchor="middle" x="2586" y="-1357" font-family="Times,serif" font-size="20.00" fill="#000000">R_PyPOFacetsModular_BOX_i ... 02.dat_20180320115211.dat</text>
</g>
<!-- v_1_1926 -->
<g id="node102" class="node">
<title>v_1_1926</title>
<polygon fill="#3a85b9" stroke="#000000" points="2203.5,-1326 2020.5,-1326 2020.5,-1290 2203.5,-1290 2203.5,-1326"/>
<text text-anchor="middle" x="2112" y="-1303" font-family="Times,serif" font-size="20.00" fill="#ffffff">354 main_all_in_one</text>
</g>
<!-- a_32&#45;&gt;v_1_1926 -->
<g id="edge94" class="edge">
<title>a_32&#45;&gt;v_1_1926</title>
<path fill="none" stroke="#000000" stroke-dasharray="5,2" d="M2404.4894,-1343.9643C2377.1685,-1341.0762 2349.3326,-1338.036 2323,-1335 2287.3546,-1330.8903 2248.3733,-1326.011 2213.7227,-1321.5382"/>
<polygon fill="#000000" stroke="#000000" points="2213.962,-1318.04 2203.5953,-1320.2266 2213.0629,-1324.9821 2213.962,-1318.04"/>
</g>
<!-- a_33 -->
<g id="node101" class="node">
<title>a_33</title>
<path fill="#ffffff" stroke="#000000" d="M2837,-1326C2837,-1326 2335,-1326 2335,-1326 2329,-1326 2323,-1320 2323,-1314 2323,-1314 2323,-1302 2323,-1302 2323,-1296 2329,-1290 2335,-1290 2335,-1290 2837,-1290 2837,-1290 2843,-1290 2849,-1296 2849,-1302 2849,-1302 2849,-1314 2849,-1314 2849,-1320 2843,-1326 2837,-1326"/>
<text text-anchor="middle" x="2586" y="-1303" font-family="Times,serif" font-size="20.00" fill="#000000">E0_PyPOFacetsModular_BOX_ ... 02.dat_20180320115211.dat</text>
</g>
<!-- a_33&#45;&gt;v_1_1926 -->
<g id="edge10" class="edge">
<title>a_33&#45;&gt;v_1_1926</title>
<path fill="none" stroke="#000000" stroke-dasharray="5,2" d="M2322.6637,-1308C2284.1119,-1308 2246.5013,-1308 2213.9805,-1308"/>
<polygon fill="#000000" stroke="#000000" points="2213.6059,-1304.5001 2203.6059,-1308 2213.6058,-1311.5001 2213.6059,-1304.5001"/>
</g>
<!-- v_1_1926&#45;&gt;v_1_256 -->
<g id="edge68" class="edge">
<title>v_1_1926&#45;&gt;v_1_256</title>
<path fill="none" stroke="#000000" stroke-dasharray="5,2" d="M2093.0284,-1289.7782C2059.9768,-1257.6872 1990.2774,-1188.4661 1937,-1125 1919.6252,-1104.3025 1922.0076,-1092.9985 1901,-1076 1896.9649,-1072.735 1892.5433,-1069.7296 1887.9419,-1066.9793"/>
<polygon fill="#000000" stroke="#000000" points="1889.3722,-1063.7711 1878.9258,-1062.0038 1885.9901,-1069.8998 1889.3722,-1063.7711"/>
</g>
<!-- v_1_1926&#45;&gt;v_1_257 -->
<g id="edge97" class="edge">
<title>v_1_1926&#45;&gt;v_1_257</title>
<path fill="none" stroke="#000000" stroke-dasharray="5,2" d="M2100.907,-1326.2014C2071.774,-1373.1833 1989.2294,-1501.1301 1901,-1591 1890.0835,-1602.1195 1876.87,-1612.9391 1864.8165,-1621.9985"/>
<polygon fill="#000000" stroke="#000000" points="1862.6797,-1619.2253 1856.6996,-1627.9712 1866.8285,-1624.8634 1862.6797,-1619.2253"/>
</g>
<!-- v_1_1926&#45;&gt;v_1_258 -->
<g id="edge74" class="edge">
<title>v_1_1926&#45;&gt;v_1_258</title>
<path fill="none" stroke="#000000" stroke-dasharray="5,2" d="M2095.9409,-1326.1067C2063.3758,-1361.2868 1985.4537,-1437.8844 1901,-1466 1799.1618,-1499.9031 1513.5298,-1514.9336 1418,-1466 1393.6283,-1453.516 1402.4925,-1434.1627 1382,-1416 1380.8642,-1414.9934 1379.6846,-1414.009 1378.4706,-1413.048"/>
<polygon fill="#000000" stroke="#000000" points="1380.2372,-1410.0091 1370.0625,-1407.055 1376.1742,-1415.7093 1380.2372,-1410.0091"/>
</g>
<!-- v_1_1926&#45;&gt;v_1_259 -->
<g id="edge102" class="edge">
<title>v_1_1926&#45;&gt;v_1_259</title>
<path fill="none" stroke="#000000" stroke-dasharray="5,2" d="M2095.6478,-1326.1165C2062.2561,-1362.169 1982.4806,-1443.5879 1901,-1492 1828.4633,-1535.098 1806.048,-1543.0991 1723,-1558 1589.5751,-1581.9397 1552.5627,-1574.3763 1418,-1558 1409.0242,-1556.9076 1399.6304,-1555.1891 1390.4974,-1553.1944"/>
<polygon fill="#000000" stroke="#000000" points="1391.2527,-1549.7767 1380.7217,-1550.938 1389.6783,-1556.5974 1391.2527,-1549.7767"/>
</g>
<!-- v_1_1926&#45;&gt;v_1_262 -->
<g id="edge83" class="edge">
<title>v_1_1926&#45;&gt;v_1_262</title>
<path fill="none" stroke="#000000" stroke-dasharray="5,2" d="M2089.071,-1289.8982C2052.0694,-1259.5529 1979.0932,-1194.841 1937,-1125 1910.8823,-1081.6656 1936.0245,-1053.5142 1901,-1017 1895.4157,-1011.1782 1888.4462,-1006.597 1881.0723,-1002.9959"/>
<polygon fill="#000000" stroke="#000000" points="1882.1603,-999.6546 1871.5896,-998.9392 1879.407,-1006.0904 1882.1603,-999.6546"/>
</g>
<!-- v_1_1926&#45;&gt;v_1_263 -->
<g id="edge56" class="edge">
<title>v_1_1926&#45;&gt;v_1_263</title>
<path fill="none" stroke="#000000" stroke-dasharray="5,2" d="M2061.2043,-1289.8982C2018.9547,-1275.8525 1956.9095,-1257.5443 1901,-1250 1838.4557,-1241.5604 1820.7363,-1236.8987 1759,-1250 1741.8723,-1253.6347 1740.0546,-1262.0367 1723,-1266 1606.0703,-1293.1728 1464.1964,-1289.9195 1387.9069,-1285.339"/>
<polygon fill="#000000" stroke="#000000" points="1387.7877,-1281.8246 1377.5869,-1284.6869 1387.3462,-1288.8107 1387.7877,-1281.8246"/>
</g>
<!-- v_1_1926&#45;&gt;v_1_264 -->
<g id="edge48" class="edge">
<title>v_1_1926&#45;&gt;v_1_264</title>
<path fill="none" stroke="#000000" stroke-dasharray="5,2" d="M2080.8223,-1289.7369C2016.1939,-1252.6093 1862.0278,-1167.8019 1723,-1120 1605.2395,-1079.5105 1460.5219,-1054.4609 1384.7975,-1043.1353"/>
<polygon fill="#000000" stroke="#000000" points="1384.9841,-1039.625 1374.5804,-1041.6281 1383.9625,-1046.5501 1384.9841,-1039.625"/>
</g>
<!-- v_1_1926&#45;&gt;v_1_265 -->
<g id="edge9" class="edge">
<title>v_1_1926&#45;&gt;v_1_265</title>
<path fill="none" stroke="#000000" stroke-dasharray="5,2" d="M2066.6107,-1289.9997C2024.3549,-1273.8998 1959.3019,-1250.778 1901,-1237 1718.215,-1193.804 1493.4673,-1198.7894 1390.0327,-1204.2038"/>
<polygon fill="#000000" stroke="#000000" points="1389.6062,-1200.7217 1379.8117,-1204.7612 1389.9874,-1207.7114 1389.6062,-1200.7217"/>
</g>
<!-- v_1_1926&#45;&gt;v_1_492 -->
<g id="edge11" class="edge">
<title>v_1_1926&#45;&gt;v_1_492</title>
<path fill="none" stroke="#000000" stroke-dasharray="5,2" d="M2045.8835,-1326.0531C1995.0755,-1339.9262 1925.9926,-1358.7893 1879.7934,-1371.4039"/>
<polygon fill="#000000" stroke="#000000" points="1878.7346,-1368.0648 1870.0097,-1374.0754 1880.5785,-1374.8176 1878.7346,-1368.0648"/>
</g>
<!-- v_1_1926&#45;&gt;v_1_493 -->
<g id="edge72" class="edge">
<title>v_1_1926&#45;&gt;v_1_493</title>
<path fill="none" stroke="#000000" stroke-dasharray="5,2" d="M2077.7483,-1326.1315C2036.3906,-1347.7319 1964.4681,-1384.3643 1901,-1412 1894.9072,-1414.653 1888.4621,-1417.3076 1882.0394,-1419.8606"/>
<polygon fill="#000000" stroke="#000000" points="1880.7283,-1416.6151 1872.6892,-1423.516 1883.2772,-1423.1346 1880.7283,-1416.6151"/>
</g>
<!-- v_1_1927 -->
<g id="node103" class="node">
<title>v_1_1927</title>
<path fill="#85cbd0" stroke="#000000" d="M2621.5,-1272C2621.5,-1272 2550.5,-1272 2550.5,-1272 2544.5,-1272 2538.5,-1266 2538.5,-1260 2538.5,-1260 2538.5,-1248 2538.5,-1248 2538.5,-1242 2544.5,-1236 2550.5,-1236 2550.5,-1236 2621.5,-1236 2621.5,-1236 2627.5,-1236 2633.5,-1242 2633.5,-1248 2633.5,-1248 2633.5,-1260 2633.5,-1260 2633.5,-1266 2627.5,-1272 2621.5,-1272"/>
<text text-anchor="middle" x="2586" y="-1249" font-family="Times,serif" font-size="20.00" fill="#000000">354 result</text>
</g>
<!-- v_1_1927&#45;&gt;v_1_1926 -->
<g id="edge1" class="edge">
<title>v_1_1927&#45;&gt;v_1_1926</title>
<path fill="none" stroke="#000000" d="M2538.4496,-1258.5213C2485.7438,-1263.6168 2398.2361,-1272.3258 2323,-1281 2287.3546,-1285.1097 2248.3733,-1289.989 2213.7227,-1294.4618"/>
<polygon fill="#000000" stroke="#000000" points="2213.0629,-1291.0179 2203.5953,-1295.7734 2213.962,-1297.96 2213.0629,-1291.0179"/>
</g>
</g>
</svg>
